<?xml version="1.0" encoding="UTF-8" standalone="no"?>
<!DOCTYPE svg PUBLIC "-//W3C//DTD SVG 1.1//EN"
 "http://www.w3.org/Graphics/SVG/1.1/DTD/svg11.dtd">
<!-- Generated by graphviz version 12.0.0 (20240704.0754)
 -->
<!-- Pages: 1 -->
<svg width="608pt" height="309pt"
 viewBox="0.00 0.00 608.00 309.00" xmlns="http://www.w3.org/2000/svg" xmlns:xlink="http://www.w3.org/1999/xlink">
<g id="graph0" class="graph" transform="scale(1 1) rotate(0) translate(4 305)">
<polygon fill="white" stroke="none" points="-4,4 -4,-305 604,-305 604,4 -4,4"/>
<g id="clust1" class="cluster">
<title>outer_cluster_f64&#45;0</title>
</g>
<g id="clust2" class="cluster">
<title>cluster_f64&#45;0</title>
<path fill="#ffffb3" stroke="black" stroke-dasharray="5,2" d="M89,-90C89,-90 125,-90 125,-90 131,-90 137,-96 137,-102 137,-102 137,-120 137,-120 137,-126 131,-132 125,-132 125,-132 89,-132 89,-132 83,-132 77,-126 77,-120 77,-120 77,-102 77,-102 77,-96 83,-90 89,-90"/>
</g>
<g id="clust4" class="cluster">
<title>outer_cluster_f64&#45;4611686018427387904</title>
</g>
<g id="clust5" class="cluster">
<title>cluster_f64&#45;4611686018427387904</title>
<path fill="#ffffb3" stroke="black" stroke-dasharray="5,2" d="M522,-11C522,-11 558,-11 558,-11 564,-11 570,-17 570,-23 570,-23 570,-41 570,-41 570,-47 564,-53 558,-53 558,-53 522,-53 522,-53 516,-53 510,-47 510,-41 510,-41 510,-23 510,-23 510,-17 516,-11 522,-11"/>
</g>
<g id="clust7" class="cluster">
<title>outer_cluster_f64&#45;13761874561337393152</title>
</g>
<g id="clust8" class="cluster">
<title>cluster_f64&#45;13761874561337393152</title>
<path fill="#ffffb3" stroke="black" stroke-dasharray="5,2" d="M169,-90C169,-90 205,-90 205,-90 211,-90 217,-96 217,-102 217,-102 217,-120 217,-120 217,-126 211,-132 205,-132 205,-132 169,-132 169,-132 163,-132 157,-126 157,-120 157,-120 157,-102 157,-102 157,-96 163,-90 169,-90"/>
</g>
<g id="clust10" class="cluster">
<title>outer_cluster_f64&#45;16958304396863602688</title>
</g>
<g id="clust11" class="cluster">
<title>cluster_f64&#45;16958304396863602688</title>
<path fill="#ffffb3" stroke="black" stroke-dasharray="5,2" d="M299,-11C299,-11 335,-11 335,-11 341,-11 347,-17 347,-23 347,-23 347,-41 347,-41 347,-47 341,-53 335,-53 335,-53 299,-53 299,-53 293,-53 287,-47 287,-41 287,-41 287,-23 287,-23 287,-17 293,-11 299,-11"/>
</g>
<g id="clust13" class="cluster">
<title>outer_cluster_String&#45;18036887277116069162</title>
</g>
<g id="clust14" class="cluster">
<title>cluster_String&#45;18036887277116069162</title>
<path fill="#bebada" stroke="black" stroke-dasharray="5,2" d="M233,-11C233,-11 269,-11 269,-11 275,-11 281,-17 281,-23 281,-23 281,-41 281,-41 281,-47 275,-53 269,-53 269,-53 233,-53 233,-53 227,-53 221,-47 221,-41 221,-41 221,-23 221,-23 221,-17 227,-11 233,-11"/>
</g>
<g id="clust16" class="cluster">
<title>outer_cluster_String&#45;13601007060649541372</title>
</g>
<g id="clust17" class="cluster">
<title>cluster_String&#45;13601007060649541372</title>
<path fill="#bebada" stroke="black" stroke-dasharray="5,2" d="M23,-90C23,-90 59,-90 59,-90 65,-90 71,-96 71,-102 71,-102 71,-120 71,-120 71,-126 65,-132 59,-132 59,-132 23,-132 23,-132 17,-132 11,-126 11,-120 11,-120 11,-102 11,-102 11,-96 17,-90 23,-90"/>
</g>
<g id="clust19" class="cluster">
<title>outer_cluster_String&#45;9670903108499433938</title>
</g>
<g id="clust20" class="cluster">
<title>cluster_String&#45;9670903108499433938</title>
<path fill="#bebada" stroke="black" stroke-dasharray="5,2" d="M351,-90C351,-90 491,-90 491,-90 497,-90 503,-96 503,-102 503,-102 503,-120 503,-120 503,-126 497,-132 491,-132 491,-132 351,-132 351,-132 345,-132 339,-126 339,-120 339,-120 339,-102 339,-102 339,-96 345,-90 351,-90"/>
</g>
<g id="clust22" class="cluster">
<title>outer_cluster_1</title>
</g>
<g id="clust23" class="cluster">
<title>cluster_1</title>
<path fill="#fb8072" stroke="black" stroke-dasharray="5,2" d="M277,-90C277,-90 321,-90 321,-90 327,-90 333,-96 333,-102 333,-102 333,-120 333,-120 333,-126 327,-132 321,-132 321,-132 277,-132 277,-132 271,-132 265,-126 265,-120 265,-120 265,-102 265,-102 265,-96 271,-90 277,-90"/>
</g>
<g id="clust25" class="cluster">
<title>outer_cluster_7</title>
</g>
<g id="clust26" class="cluster">
<title>cluster_7</title>
<path fill="#fb8072" stroke="black" stroke-dasharray="5,2" d="M375,-169C375,-169 423,-169 423,-169 429,-169 435,-175 435,-181 435,-181 435,-199 435,-199 435,-205 429,-211 423,-211 423,-211 375,-211 375,-211 369,-211 363,-205 363,-199 363,-199 363,-181 363,-181 363,-175 369,-169 375,-169"/>
</g>
<g id="clust28" class="cluster">
<title>outer_cluster_4</title>
</g>
<g id="clust29" class="cluster">
<title>cluster_4</title>
<path fill="#fb8072" stroke="black" stroke-dasharray="5,2" d="M533,-90C533,-90 577,-90 577,-90 583,-90 589,-96 589,-102 589,-102 589,-120 589,-120 589,-126 583,-132 577,-132 577,-132 533,-132 533,-132 527,-132 521,-126 521,-120 521,-120 521,-102 521,-102 521,-96 527,-90 533,-90"/>
</g>
<g id="clust31" class="cluster">
<title>outer_cluster_12</title>
</g>
<g id="clust32" class="cluster">
<title>cluster_12</title>
<path fill="#fb8072" stroke="black" stroke-dasharray="5,2" d="M62,-169C62,-169 106,-169 106,-169 112,-169 118,-175 118,-181 118,-181 118,-199 118,-199 118,-205 112,-211 106,-211 106,-211 62,-211 62,-211 56,-211 50,-205 50,-199 50,-199 50,-181 50,-181 50,-175 56,-169 62,-169"/>
</g>
<g id="clust34" class="cluster">
<title>outer_cluster_14</title>
</g>
<g id="clust35" class="cluster">
<title>cluster_14</title>
<path fill="#fb8072" stroke="black" stroke-dasharray="5,2" d="M171,-169C171,-169 215,-169 215,-169 221,-169 227,-175 227,-181 227,-181 227,-199 227,-199 227,-205 221,-211 215,-211 215,-211 171,-211 171,-211 165,-211 159,-205 159,-199 159,-199 159,-181 159,-181 159,-175 165,-169 171,-169"/>
</g>
<g id="clust37" class="cluster">
<title>outer_cluster_9</title>
</g>
<g id="clust38" class="cluster">
<title>cluster_9</title>
<path fill="#80b1d3" stroke="black" stroke-dasharray="5,2" d="M456,-248C456,-248 508,-248 508,-248 514,-248 520,-254 520,-260 520,-260 520,-278 520,-278 520,-284 514,-290 508,-290 508,-290 456,-290 456,-290 450,-290 444,-284 444,-278 444,-278 444,-260 444,-260 444,-254 450,-248 456,-248"/>
</g>
<g id="clust40" class="cluster">
<title>outer_cluster_3</title>
</g>
<g id="clust41" class="cluster">
<title>cluster_3</title>
<path fill="#80b1d3" stroke="black" stroke-dasharray="5,2" d="M453,-169C453,-169 529,-169 529,-169 535,-169 541,-175 541,-181 541,-181 541,-199 541,-199 541,-205 535,-211 529,-211 529,-211 453,-211 453,-211 447,-211 441,-205 441,-199 441,-199 441,-181 441,-181 441,-175 447,-169 453,-169"/>
</g>
<g id="clust43" class="cluster">
<title>outer_cluster_0</title>
</g>
<g id="clust44" class="cluster">
<title>cluster_0</title>
<path fill="#80b1d3" stroke="black" stroke-dasharray="5,2" d="M269,-169C269,-169 345,-169 345,-169 351,-169 357,-175 357,-181 357,-181 357,-199 357,-199 357,-205 351,-211 345,-211 345,-211 269,-211 269,-211 263,-211 257,-205 257,-199 257,-199 257,-181 257,-181 257,-175 263,-169 269,-169"/>
</g>
<g id="clust46" class="cluster">
<title>outer_cluster_11</title>
</g>
<g id="clust47" class="cluster">
<title>cluster_11</title>
<path fill="#80b1d3" stroke="black" stroke-dasharray="5,2" d="M48,-248C48,-248 124,-248 124,-248 130,-248 136,-254 136,-260 136,-260 136,-278 136,-278 136,-284 130,-290 124,-290 124,-290 48,-290 48,-290 42,-290 36,-284 36,-278 36,-278 36,-260 36,-260 36,-254 42,-248 48,-248"/>
</g>
<g id="clust49" class="cluster">
<title>outer_cluster_6</title>
</g>
<g id="clust50" class="cluster">
<title>cluster_6</title>
<path fill="#80b1d3" stroke="black" stroke-dasharray="5,2" d="M176,-248C176,-248 400,-248 400,-248 406,-248 412,-254 412,-260 412,-260 412,-278 412,-278 412,-284 406,-290 400,-290 400,-290 176,-290 176,-290 170,-290 164,-284 164,-278 164,-278 164,-260 164,-260 164,-254 170,-248 176,-248"/>
</g>
<!-- FloatAttr&#45;8967184907069507595&#45;&gt;f64&#45;16958304396863602688 -->
<g id="edge1" class="edge">
<title>FloatAttr&#45;8967184907069507595:s&#45;&gt;f64&#45;16958304396863602688</title>
<path fill="none" stroke="black" d="M284,-95C284,-80.64 290.98,-66.38 298.52,-55.16"/>
<polygon fill="black" stroke="black" points="297.55,-59.19 299.29,-54.18 294.81,-57.01 297.55,-59.19"/>
</g>
<!-- FloatAttr&#45;8967184907069507595&#45;&gt;String&#45;18036887277116069162 -->
<g id="edge2" class="edge">
<title>FloatAttr&#45;8967184907069507595:s&#45;&gt;String&#45;18036887277116069162</title>
<path fill="none" stroke="black" d="M313.5,-95C313.5,-84.45 295.33,-67.26 278.59,-53.65"/>
<polygon fill="black" stroke="black" points="283.62,-53.72 278.33,-53.55 282.36,-56.98 283.62,-53.72"/>
</g>
<!-- OtherAttr&#45;9670903108499433938&#45;&gt;String&#45;9670903108499433938 -->
<g id="edge3" class="edge">
<title>OtherAttr&#45;9670903108499433938:s&#45;&gt;String&#45;9670903108499433938</title>
<path fill="none" stroke="black" d="M399,-174C399,-160.38 403.77,-146 408.87,-134.52"/>
<polygon fill="black" stroke="black" points="408.4,-138.4 409.71,-133.26 405.49,-136.46 408.4,-138.4"/>
</g>
<!-- FloatAttr&#45;9670903108499433938&#45;&gt;f64&#45;4611686018427387904 -->
<g id="edge4" class="edge">
<title>FloatAttr&#45;9670903108499433938:s&#45;&gt;f64&#45;4611686018427387904</title>
<path fill="none" stroke="black" d="M540,-95C540,-82.22 540,-67.96 540,-56.35"/>
<polygon fill="black" stroke="black" points="541.75,-59.51 540,-54.51 538.25,-59.51 541.75,-59.51"/>
</g>
<!-- FloatAttr&#45;9670903108499433938&#45;&gt;String&#45;18036887277116069162 -->
<g id="edge5" class="edge">
<title>FloatAttr&#45;9670903108499433938:s&#45;&gt;String&#45;18036887277116069162</title>
<path fill="none" stroke="black" d="M569.5,-95C569.5,-70.96 539.8,-90.38 516,-87 413.88,-72.48 382.62,-92.11 286,-56 285.57,-55.84 285.15,-55.68 284.72,-55.5"/>
<polygon fill="black" stroke="black" points="285.86,-54.1 280.58,-53.62 284.41,-57.29 285.86,-54.1"/>
</g>
<!-- FloatAttr&#45;13601007060649541372&#45;&gt;f64&#45;0 -->
<g id="edge6" class="edge">
<title>FloatAttr&#45;13601007060649541372:s&#45;&gt;f64&#45;0</title>
<path fill="none" stroke="black" d="M69,-174C69,-159.11 77.07,-144.78 85.76,-133.66"/>
<polygon fill="black" stroke="black" points="83.86,-137.49 86.61,-132.96 81.64,-134.78 83.86,-137.49"/>
</g>
<!-- FloatAttr&#45;13601007060649541372&#45;&gt;String&#45;13601007060649541372 -->
<g id="edge7" class="edge">
<title>FloatAttr&#45;13601007060649541372:s&#45;&gt;String&#45;13601007060649541372</title>
<path fill="none" stroke="black" d="M98.5,-174C98.5,-163.89 81.85,-146.71 66.47,-132.99"/>
<polygon fill="black" stroke="black" points="71.27,-133.75 66.07,-132.76 69.52,-136.78 71.27,-133.75"/>
</g>
<!-- FloatAttr&#45;2022756157680705081&#45;&gt;f64&#45;13761874561337393152 -->
<g id="edge8" class="edge">
<title>FloatAttr&#45;2022756157680705081:s&#45;&gt;f64&#45;13761874561337393152</title>
<path fill="none" stroke="black" d="M178,-174C178,-160.97 179.97,-146.55 182.07,-134.91"/>
<polygon fill="black" stroke="black" points="182.43,-138.7 182.67,-133.4 179.18,-137.39 182.43,-138.7"/>
</g>
<!-- FloatAttr&#45;2022756157680705081&#45;&gt;String&#45;18036887277116069162 -->
<g id="edge9" class="edge">
<title>FloatAttr&#45;2022756157680705081:s&#45;&gt;String&#45;18036887277116069162</title>
<path fill="none" stroke="black" d="M207.5,-174C207.5,-168.96 231.5,-91.81 233,-87 236.2,-76.79 239.91,-65.55 243.13,-55.99"/>
<polygon fill="black" stroke="black" points="243.69,-59.73 243.67,-54.43 240.38,-58.58 243.69,-59.73"/>
</g>
<!-- arith_subf&#45;14329298399991804034&#45;&gt;String&#45;18036887277116069162 -->
<g id="edge13" class="edge">
<title>arith_subf&#45;14329298399991804034:s&#45;&gt;String&#45;18036887277116069162</title>
<path fill="none" stroke="black" d="M511,-253C511,-230.86 529.34,-232.16 542,-214 565.5,-180.3 578.92,-174.56 590,-135 595.75,-114.46 604.3,-102.83 590,-87 544.48,-36.61 349.98,-78.74 286,-56 285.56,-55.84 285.12,-55.68 284.68,-55.51"/>
<polygon fill="black" stroke="black" points="285.67,-54.04 280.39,-53.61 284.25,-57.24 285.67,-54.04"/>
</g>
<!-- arith_subf&#45;14329298399991804034&#45;&gt;OtherAttr&#45;9670903108499433938 -->
<g id="edge12" class="edge">
<title>arith_subf&#45;14329298399991804034:s&#45;&gt;OtherAttr&#45;9670903108499433938</title>
<path fill="none" stroke="black" d="M502.5,-253C502.5,-250.96 464.16,-228.44 434.15,-211.12"/>
<polygon fill="black" stroke="black" points="440.4,-210.85 435.13,-211.36 439.57,-214.25 440.4,-210.85"/>
</g>
<!-- arith_subf&#45;14329298399991804034&#45;&gt;arith_constant&#45;1939104117755594322 -->
<g id="edge10" class="edge">
<title>arith_subf&#45;14329298399991804034:s&#45;&gt;arith_constant&#45;1939104117755594322</title>
<path fill="none" stroke="black" d="M465,-253C465,-239.18 470.56,-224.89 476.54,-213.51"/>
<polygon fill="black" stroke="black" points="475.79,-217.1 477.69,-212.15 473.12,-214.83 475.79,-217.1"/>
</g>
<!-- arith_subf&#45;14329298399991804034&#45;&gt;arith_constant&#45;17859523323072850888 -->
<g id="edge11" class="edge">
<title>arith_subf&#45;14329298399991804034:s&#45;&gt;arith_constant&#45;17859523323072850888</title>
<path fill="none" stroke="black" d="M490,-253C490,-193.53 417.95,-234.16 362,-214 361.34,-213.76 360.68,-213.52 360.01,-213.28"/>
<polygon fill="black" stroke="black" points="360.66,-211.65 355.37,-211.53 359.43,-214.93 360.66,-211.65"/>
</g>
<!-- arith_constant&#45;1939104117755594322&#45;&gt;String&#45;18036887277116069162 -->
<g id="edge15" class="edge">
<title>arith_constant&#45;1939104117755594322:s&#45;&gt;String&#45;18036887277116069162</title>
<path fill="none" stroke="black" d="M514,-174C514,-135.08 531.15,-114.89 504,-87 469.87,-51.94 331.77,-73.3 286,-56 285.72,-55.89 285.43,-55.78 285.15,-55.67"/>
<polygon fill="black" stroke="black" points="285.9,-54.09 280.63,-53.62 284.46,-57.28 285.9,-54.09"/>
</g>
<!-- arith_constant&#45;1939104117755594322&#45;&gt;FloatAttr&#45;9670903108499433938 -->
<g id="edge14" class="edge">
<title>arith_constant&#45;1939104117755594322:s&#45;&gt;FloatAttr&#45;9670903108499433938</title>
<path fill="none" stroke="black" d="M468,-174C468,-167.15 497.01,-147.54 521.52,-132.19"/>
<polygon fill="black" stroke="black" points="516.57,-136.02 520.59,-132.55 515.29,-132.76 516.57,-136.02"/>
</g>
<!-- arith_constant&#45;17859523323072850888&#45;&gt;String&#45;18036887277116069162 -->
<g id="edge17" class="edge">
<title>arith_constant&#45;17859523323072850888:s&#45;&gt;String&#45;18036887277116069162</title>
<path fill="none" stroke="black" d="M330,-174C330,-139.93 282.73,-163.46 264,-135 255.72,-122.42 252.71,-82.12 251.62,-56.11"/>
<polygon fill="black" stroke="black" points="253.62,-59.36 251.49,-54.51 250.13,-59.63 253.62,-59.36"/>
</g>
<!-- arith_constant&#45;17859523323072850888&#45;&gt;FloatAttr&#45;8967184907069507595 -->
<g id="edge16" class="edge">
<title>arith_constant&#45;17859523323072850888:s&#45;&gt;FloatAttr&#45;8967184907069507595</title>
<path fill="none" stroke="black" d="M284,-174C284,-160.82 287.24,-146.51 290.71,-134.95"/>
<polygon fill="black" stroke="black" points="290.54,-138.41 291.81,-133.27 287.61,-136.49 290.54,-138.41"/>
</g>
<!-- arith_constant&#45;9410104054885187150&#45;&gt;String&#45;13601007060649541372 -->
<g id="edge19" class="edge">
<title>arith_constant&#45;9410104054885187150:s&#45;&gt;String&#45;13601007060649541372</title>
<path fill="none" stroke="black" d="M109,-253C109,-221.2 65.25,-241.34 49,-214 34.77,-190.06 34.97,-157.19 37.26,-135.3"/>
<polygon fill="black" stroke="black" points="38.26,-138.74 37.68,-133.47 34.85,-137.95 38.26,-138.74"/>
</g>
<!-- arith_constant&#45;9410104054885187150&#45;&gt;FloatAttr&#45;13601007060649541372 -->
<g id="edge18" class="edge">
<title>arith_constant&#45;9410104054885187150:s&#45;&gt;FloatAttr&#45;13601007060649541372</title>
<path fill="none" stroke="black" d="M63,-253C63,-239.45 67.55,-225.08 72.42,-213.58"/>
<polygon fill="black" stroke="black" points="72.12,-217.48 73.19,-212.3 69.12,-215.68 72.12,-217.48"/>
</g>
<!-- arith_constant&#45;11823230470111314620&#45;&gt;String&#45;18036887277116069162 -->
<g id="edge21" class="edge">
<title>arith_constant&#45;11823230470111314620:s&#45;&gt;String&#45;18036887277116069162</title>
<path fill="none" stroke="black" d="M237,-253C237,-213.84 179.09,-246.99 158,-214 142.8,-190.22 141.81,-111.4 156,-87 169.34,-64.07 196.46,-50.08 218.32,-42.1"/>
<polygon fill="black" stroke="black" points="215.63,-45.08 219.6,-41.58 214.31,-41.84 215.63,-45.08"/>
</g>
<!-- arith_constant&#45;11823230470111314620&#45;&gt;FloatAttr&#45;2022756157680705081 -->
<g id="edge20" class="edge">
<title>arith_constant&#45;11823230470111314620:s&#45;&gt;FloatAttr&#45;2022756157680705081</title>
<path fill="none" stroke="black" d="M191,-253C191,-240.22 191.43,-225.96 191.89,-214.34"/>
<polygon fill="black" stroke="black" points="193.38,-217.63 192.04,-212.51 189.89,-217.35 193.38,-217.63"/>
</g>
<!-- arith_addf&#45;14329298399991804034&#45;&gt;String&#45;18036887277116069162 -->
<g id="edge25" class="edge">
<title>arith_addf&#45;14329298399991804034:s&#45;&gt;String&#45;18036887277116069162</title>
<path fill="none" stroke="black" d="M329.5,-253C329.5,-210.83 265.89,-249.42 243,-214 226.56,-188.56 239.39,-98.94 246.75,-56.12"/>
<polygon fill="black" stroke="black" points="247.34,-59.73 247.34,-54.43 244.04,-58.58 247.34,-59.73"/>
</g>
<!-- arith_addf&#45;14329298399991804034&#45;&gt;OtherAttr&#45;9670903108499433938 -->
<g id="edge24" class="edge">
<title>arith_addf&#45;14329298399991804034:s&#45;&gt;OtherAttr&#45;9670903108499433938</title>
<path fill="none" stroke="black" d="M321,-253C321,-241.25 342.97,-224.51 363.59,-211.38"/>
<polygon fill="black" stroke="black" points="359.2,-214.33 363.6,-211.38 358.32,-210.95 359.2,-214.33"/>
</g>
<!-- arith_addf&#45;14329298399991804034&#45;&gt;arith_constant&#45;1939104117755594322 -->
<g id="edge22" class="edge">
<title>arith_addf&#45;14329298399991804034:s&#45;&gt;arith_constant&#45;1939104117755594322</title>
<path fill="none" stroke="black" d="M283,-253C283,-182.83 369.45,-236.26 436,-214 436.78,-213.74 437.57,-213.47 438.37,-213.2"/>
<polygon fill="black" stroke="black" points="438.95,-214.84 443.07,-211.51 437.77,-211.55 438.95,-214.84"/>
</g>
<!-- arith_addf&#45;14329298399991804034&#45;&gt;arith_constant&#45;17859523323072850888 -->
<g id="edge23" class="edge">
<title>arith_addf&#45;14329298399991804034:s&#45;&gt;arith_constant&#45;17859523323072850888</title>
<path fill="none" stroke="black" d="M308.5,-253C308.5,-240.22 308.18,-225.96 307.83,-214.34"/>
<polygon fill="black" stroke="black" points="309.77,-217.39 307.72,-212.51 306.28,-217.61 309.77,-217.39"/>
</g>
<!-- arith_addf&#45;4162801374681909104&#45;&gt;String&#45;18036887277116069162 -->
<g id="edge29" class="edge">
<title>arith_addf&#45;4162801374681909104:s&#45;&gt;String&#45;18036887277116069162</title>
<path fill="none" stroke="black" d="M403.5,-253C403.5,-185.19 298.38,-266.93 256,-214 237.03,-190.31 243.83,-99.39 248.32,-56.13"/>
<polygon fill="black" stroke="black" points="249.34,-59.74 248.67,-54.48 245.92,-59 249.34,-59.74"/>
</g>
<!-- arith_addf&#45;4162801374681909104&#45;&gt;OtherAttr&#45;9670903108499433938 -->
<g id="edge28" class="edge">
<title>arith_addf&#45;4162801374681909104:s&#45;&gt;OtherAttr&#45;9670903108499433938</title>
<path fill="none" stroke="black" d="M395,-253C395,-240.08 395.88,-225.67 396.81,-214"/>
<polygon fill="black" stroke="black" points="397.94,-217.72 397.07,-212.49 394.49,-217.12 397.94,-217.72"/>
</g>
<!-- arith_addf&#45;4162801374681909104&#45;&gt;arith_constant&#45;1939104117755594322 -->
<g id="edge27" class="edge">
<title>arith_addf&#45;4162801374681909104:s&#45;&gt;arith_constant&#45;1939104117755594322</title>
<path fill="none" stroke="black" d="M382.5,-253C382.5,-245.56 413.68,-228.27 442.62,-213.84"/>
<polygon fill="black" stroke="black" points="443.3,-215.46 447.01,-211.67 441.75,-212.32 443.3,-215.46"/>
</g>
<!-- arith_addf&#45;4162801374681909104&#45;&gt;arith_constant&#45;17859523323072850888 -->
<g id="edge26" class="edge">
<title>arith_addf&#45;4162801374681909104:s&#45;&gt;arith_constant&#45;17859523323072850888</title>
<path fill="none" stroke="black" d="M357,-253C357,-237.15 346.98,-223.06 335.9,-212.34"/>
<polygon fill="black" stroke="black" points="340.38,-213.51 335.33,-211.91 338.28,-216.31 340.38,-213.51"/>
</g>
<!-- f64&#45;0 -->
<g id="node1" class="node">
<title>f64&#45;0</title>
<g id="a_node1"><a xlink:title="f64&#45;0: f64&#45;0">
<path fill="white" stroke="none" d="M101.67,-95C101.67,-95 112.33,-95 112.33,-95 117.67,-95 123,-100.33 123,-105.67 123,-105.67 123,-116.33 123,-116.33 123,-121.67 117.67,-127 112.33,-127 112.33,-127 101.67,-127 101.67,-127 96.33,-127 91,-121.67 91,-116.33 91,-116.33 91,-105.67 91,-105.67 91,-100.33 96.33,-95 101.67,-95"/>
<text text-anchor="start" x="97.62" y="-105.2" font-family="Helvetica,sans-Serif" font-size="14.00">0.0</text>
<path fill="none" stroke="black" d="M101.67,-95C101.67,-95 112.33,-95 112.33,-95 117.67,-95 123,-100.33 123,-105.67 123,-105.67 123,-116.33 123,-116.33 123,-121.67 117.67,-127 112.33,-127 112.33,-127 101.67,-127 101.67,-127 96.33,-127 91,-121.67 91,-116.33 91,-116.33 91,-105.67 91,-105.67 91,-100.33 96.33,-95 101.67,-95"/>
</a>
</g>
</g>
<!-- f64&#45;4611686018427387904 -->
<g id="node2" class="node">
<title>f64&#45;4611686018427387904</title>
<g id="a_node2"><a xlink:title="f64&#45;4611686018427387904: f64&#45;4611686018427387904">
<path fill="white" stroke="none" d="M534.67,-16C534.67,-16 545.33,-16 545.33,-16 550.67,-16 556,-21.33 556,-26.67 556,-26.67 556,-37.33 556,-37.33 556,-42.67 550.67,-48 545.33,-48 545.33,-48 534.67,-48 534.67,-48 529.33,-48 524,-42.67 524,-37.33 524,-37.33 524,-26.67 524,-26.67 524,-21.33 529.33,-16 534.67,-16"/>
<text text-anchor="start" x="530.62" y="-26.2" font-family="Helvetica,sans-Serif" font-size="14.00">2.0</text>
<path fill="none" stroke="black" d="M534.67,-16C534.67,-16 545.33,-16 545.33,-16 550.67,-16 556,-21.33 556,-26.67 556,-26.67 556,-37.33 556,-37.33 556,-42.67 550.67,-48 545.33,-48 545.33,-48 534.67,-48 534.67,-48 529.33,-48 524,-42.67 524,-37.33 524,-37.33 524,-26.67 524,-26.67 524,-21.33 529.33,-16 534.67,-16"/>
</a>
</g>
</g>
<!-- f64&#45;13761874561337393152 -->
<g id="node3" class="node">
<title>f64&#45;13761874561337393152</title>
<g id="a_node3"><a xlink:title="f64&#45;13761874561337393152: f64&#45;13761874561337393152">
<path fill="white" stroke="none" d="M181.67,-95C181.67,-95 192.33,-95 192.33,-95 197.67,-95 203,-100.33 203,-105.67 203,-105.67 203,-116.33 203,-116.33 203,-121.67 197.67,-127 192.33,-127 192.33,-127 181.67,-127 181.67,-127 176.33,-127 171,-121.67 171,-116.33 171,-116.33 171,-105.67 171,-105.67 171,-100.33 176.33,-95 181.67,-95"/>
<text text-anchor="start" x="177.62" y="-105.2" font-family="Helvetica,sans-Serif" font-size="14.00">3.5</text>
<path fill="none" stroke="black" d="M181.67,-95C181.67,-95 192.33,-95 192.33,-95 197.67,-95 203,-100.33 203,-105.67 203,-105.67 203,-116.33 203,-116.33 203,-121.67 197.67,-127 192.33,-127 192.33,-127 181.67,-127 181.67,-127 176.33,-127 171,-121.67 171,-116.33 171,-116.33 171,-105.67 171,-105.67 171,-100.33 176.33,-95 181.67,-95"/>
</a>
</g>
</g>
<!-- f64&#45;16958304396863602688 -->
<g id="node4" class="node">
<title>f64&#45;16958304396863602688</title>
<g id="a_node4"><a xlink:title="f64&#45;16958304396863602688: f64&#45;16958304396863602688">
<path fill="white" stroke="none" d="M311.67,-16C311.67,-16 322.33,-16 322.33,-16 327.67,-16 333,-21.33 333,-26.67 333,-26.67 333,-37.33 333,-37.33 333,-42.67 327.67,-48 322.33,-48 322.33,-48 311.67,-48 311.67,-48 306.33,-48 301,-42.67 301,-37.33 301,-37.33 301,-26.67 301,-26.67 301,-21.33 306.33,-16 311.67,-16"/>
<text text-anchor="start" x="307.62" y="-26.2" font-family="Helvetica,sans-Serif" font-size="14.00">1.5</text>
<path fill="none" stroke="black" d="M311.67,-16C311.67,-16 322.33,-16 322.33,-16 327.67,-16 333,-21.33 333,-26.67 333,-26.67 333,-37.33 333,-37.33 333,-42.67 327.67,-48 322.33,-48 322.33,-48 311.67,-48 311.67,-48 306.33,-48 301,-42.67 301,-37.33 301,-37.33 301,-26.67 301,-26.67 301,-21.33 306.33,-16 311.67,-16"/>
</a>
</g>
</g>
<!-- String&#45;18036887277116069162 -->
<g id="node5" class="node">
<title>String&#45;18036887277116069162</title>
<g id="a_node5"><a xlink:title="String&#45;18036887277116069162: String&#45;18036887277116069162">
<path fill="white" stroke="none" d="M242.04,-16C242.04,-16 259.96,-16 259.96,-16 265.29,-16 270.62,-21.33 270.62,-26.67 270.62,-26.67 270.62,-37.33 270.62,-37.33 270.62,-42.67 265.29,-48 259.96,-48 259.96,-48 242.04,-48 242.04,-48 236.71,-48 231.38,-42.67 231.38,-37.33 231.38,-37.33 231.38,-26.67 231.38,-26.67 231.38,-21.33 236.71,-16 242.04,-16"/>
<text text-anchor="start" x="236.38" y="-26.2" font-family="Helvetica,sans-Serif" font-size="14.00">&quot;f64&quot;</text>
<path fill="none" stroke="black" d="M242.04,-16C242.04,-16 259.96,-16 259.96,-16 265.29,-16 270.62,-21.33 270.62,-26.67 270.62,-26.67 270.62,-37.33 270.62,-37.33 270.62,-42.67 265.29,-48 259.96,-48 259.96,-48 242.04,-48 242.04,-48 236.71,-48 231.38,-42.67 231.38,-37.33 231.38,-37.33 231.38,-26.67 231.38,-26.67 231.38,-21.33 236.71,-16 242.04,-16"/>
</a>
</g>
</g>
<!-- String&#45;13601007060649541372 -->
<g id="node6" class="node">
<title>String&#45;13601007060649541372</title>
<g id="a_node6"><a xlink:title="String&#45;13601007060649541372: String&#45;13601007060649541372">
<path fill="white" stroke="none" d="M32.04,-95C32.04,-95 49.96,-95 49.96,-95 55.29,-95 60.62,-100.33 60.62,-105.67 60.62,-105.67 60.62,-116.33 60.62,-116.33 60.62,-121.67 55.29,-127 49.96,-127 49.96,-127 32.04,-127 32.04,-127 26.71,-127 21.38,-121.67 21.38,-116.33 21.38,-116.33 21.38,-105.67 21.38,-105.67 21.38,-100.33 26.71,-95 32.04,-95"/>
<text text-anchor="start" x="26.38" y="-105.2" font-family="Helvetica,sans-Serif" font-size="14.00">&quot;f32&quot;</text>
<path fill="none" stroke="black" d="M32.04,-95C32.04,-95 49.96,-95 49.96,-95 55.29,-95 60.62,-100.33 60.62,-105.67 60.62,-105.67 60.62,-116.33 60.62,-116.33 60.62,-121.67 55.29,-127 49.96,-127 49.96,-127 32.04,-127 32.04,-127 26.71,-127 21.38,-121.67 21.38,-116.33 21.38,-116.33 21.38,-105.67 21.38,-105.67 21.38,-100.33 26.71,-95 32.04,-95"/>
</a>
</g>
</g>
<!-- String&#45;9670903108499433938 -->
<g id="node7" class="node">
<title>String&#45;9670903108499433938</title>
<g id="a_node7"><a xlink:title="String&#45;9670903108499433938: String&#45;9670903108499433938">
<path fill="white" stroke="none" d="M353.17,-95C353.17,-95 488.83,-95 488.83,-95 494.17,-95 499.5,-100.33 499.5,-105.67 499.5,-105.67 499.5,-116.33 499.5,-116.33 499.5,-121.67 494.17,-127 488.83,-127 488.83,-127 353.17,-127 353.17,-127 347.83,-127 342.5,-121.67 342.5,-116.33 342.5,-116.33 342.5,-105.67 342.5,-105.67 342.5,-100.33 347.83,-95 353.17,-95"/>
<text text-anchor="start" x="347.5" y="-105.2" font-family="Helvetica,sans-Serif" font-size="14.00">&quot;#arith.fastmath&lt;none&gt;&quot;</text>
<path fill="none" stroke="black" d="M353.17,-95C353.17,-95 488.83,-95 488.83,-95 494.17,-95 499.5,-100.33 499.5,-105.67 499.5,-105.67 499.5,-116.33 499.5,-116.33 499.5,-121.67 494.17,-127 488.83,-127 488.83,-127 353.17,-127 353.17,-127 347.83,-127 342.5,-121.67 342.5,-116.33 342.5,-116.33 342.5,-105.67 342.5,-105.67 342.5,-100.33 347.83,-95 353.17,-95"/>
</a>
</g>
</g>
<!-- FloatAttr&#45;8967184907069507595 -->
<g id="node8" class="node">
<title>FloatAttr&#45;8967184907069507595</title>
<g id="a_node8"><a xlink:title="1: FloatAttr&#45;8967184907069507595">
<path fill="white" stroke="none" d="M279.17,-95C279.17,-95 318.83,-95 318.83,-95 324.17,-95 329.5,-100.33 329.5,-105.67 329.5,-105.67 329.5,-116.33 329.5,-116.33 329.5,-121.67 324.17,-127 318.83,-127 318.83,-127 279.17,-127 279.17,-127 273.83,-127 268.5,-121.67 268.5,-116.33 268.5,-116.33 268.5,-105.67 268.5,-105.67 268.5,-100.33 273.83,-95 279.17,-95"/>
<text text-anchor="start" x="273.5" y="-105.2" font-family="Helvetica,sans-Serif" font-size="14.00">FloatAttr</text>
<path fill="none" stroke="black" d="M279.17,-95C279.17,-95 318.83,-95 318.83,-95 324.17,-95 329.5,-100.33 329.5,-105.67 329.5,-105.67 329.5,-116.33 329.5,-116.33 329.5,-121.67 324.17,-127 318.83,-127 318.83,-127 279.17,-127 279.17,-127 273.83,-127 268.5,-121.67 268.5,-116.33 268.5,-116.33 268.5,-105.67 268.5,-105.67 268.5,-100.33 273.83,-95 279.17,-95"/>
</a>
</g>
</g>
<!-- OtherAttr&#45;9670903108499433938 -->
<g id="node9" class="node">
<title>OtherAttr&#45;9670903108499433938</title>
<g id="a_node9"><a xlink:title="7: OtherAttr&#45;9670903108499433938">
<path fill="white" stroke="none" d="M376.92,-174C376.92,-174 421.08,-174 421.08,-174 426.42,-174 431.75,-179.33 431.75,-184.67 431.75,-184.67 431.75,-195.33 431.75,-195.33 431.75,-200.67 426.42,-206 421.08,-206 421.08,-206 376.92,-206 376.92,-206 371.58,-206 366.25,-200.67 366.25,-195.33 366.25,-195.33 366.25,-184.67 366.25,-184.67 366.25,-179.33 371.58,-174 376.92,-174"/>
<text text-anchor="start" x="371.25" y="-184.2" font-family="Helvetica,sans-Serif" font-size="14.00">OtherAttr</text>
<path fill="none" stroke="black" d="M376.92,-174C376.92,-174 421.08,-174 421.08,-174 426.42,-174 431.75,-179.33 431.75,-184.67 431.75,-184.67 431.75,-195.33 431.75,-195.33 431.75,-200.67 426.42,-206 421.08,-206 421.08,-206 376.92,-206 376.92,-206 371.58,-206 366.25,-200.67 366.25,-195.33 366.25,-195.33 366.25,-184.67 366.25,-184.67 366.25,-179.33 371.58,-174 376.92,-174"/>
</a>
</g>
</g>
<!-- FloatAttr&#45;9670903108499433938 -->
<g id="node10" class="node">
<title>FloatAttr&#45;9670903108499433938</title>
<g id="a_node10"><a xlink:title="4: FloatAttr&#45;9670903108499433938">
<path fill="white" stroke="none" d="M535.17,-95C535.17,-95 574.83,-95 574.83,-95 580.17,-95 585.5,-100.33 585.5,-105.67 585.5,-105.67 585.5,-116.33 585.5,-116.33 585.5,-121.67 580.17,-127 574.83,-127 574.83,-127 535.17,-127 535.17,-127 529.83,-127 524.5,-121.67 524.5,-116.33 524.5,-116.33 524.5,-105.67 524.5,-105.67 524.5,-100.33 529.83,-95 535.17,-95"/>
<text text-anchor="start" x="529.5" y="-105.2" font-family="Helvetica,sans-Serif" font-size="14.00">FloatAttr</text>
<path fill="none" stroke="black" d="M535.17,-95C535.17,-95 574.83,-95 574.83,-95 580.17,-95 585.5,-100.33 585.5,-105.67 585.5,-105.67 585.5,-116.33 585.5,-116.33 585.5,-121.67 580.17,-127 574.83,-127 574.83,-127 535.17,-127 535.17,-127 529.83,-127 524.5,-121.67 524.5,-116.33 524.5,-116.33 524.5,-105.67 524.5,-105.67 524.5,-100.33 529.83,-95 535.17,-95"/>
</a>
</g>
</g>
<!-- FloatAttr&#45;13601007060649541372 -->
<g id="node11" class="node">
<title>FloatAttr&#45;13601007060649541372</title>
<g id="a_node11"><a xlink:title="12: FloatAttr&#45;13601007060649541372">
<path fill="white" stroke="none" d="M64.17,-174C64.17,-174 103.83,-174 103.83,-174 109.17,-174 114.5,-179.33 114.5,-184.67 114.5,-184.67 114.5,-195.33 114.5,-195.33 114.5,-200.67 109.17,-206 103.83,-206 103.83,-206 64.17,-206 64.17,-206 58.83,-206 53.5,-200.67 53.5,-195.33 53.5,-195.33 53.5,-184.67 53.5,-184.67 53.5,-179.33 58.83,-174 64.17,-174"/>
<text text-anchor="start" x="58.5" y="-184.2" font-family="Helvetica,sans-Serif" font-size="14.00">FloatAttr</text>
<path fill="none" stroke="black" d="M64.17,-174C64.17,-174 103.83,-174 103.83,-174 109.17,-174 114.5,-179.33 114.5,-184.67 114.5,-184.67 114.5,-195.33 114.5,-195.33 114.5,-200.67 109.17,-206 103.83,-206 103.83,-206 64.17,-206 64.17,-206 58.83,-206 53.5,-200.67 53.5,-195.33 53.5,-195.33 53.5,-184.67 53.5,-184.67 53.5,-179.33 58.83,-174 64.17,-174"/>
</a>
</g>
</g>
<!-- FloatAttr&#45;2022756157680705081 -->
<g id="node12" class="node">
<title>FloatAttr&#45;2022756157680705081</title>
<g id="a_node12"><a xlink:title="14: FloatAttr&#45;2022756157680705081">
<path fill="white" stroke="none" d="M173.17,-174C173.17,-174 212.83,-174 212.83,-174 218.17,-174 223.5,-179.33 223.5,-184.67 223.5,-184.67 223.5,-195.33 223.5,-195.33 223.5,-200.67 218.17,-206 212.83,-206 212.83,-206 173.17,-206 173.17,-206 167.83,-206 162.5,-200.67 162.5,-195.33 162.5,-195.33 162.5,-184.67 162.5,-184.67 162.5,-179.33 167.83,-174 173.17,-174"/>
<text text-anchor="start" x="167.5" y="-184.2" font-family="Helvetica,sans-Serif" font-size="14.00">FloatAttr</text>
<path fill="none" stroke="black" d="M173.17,-174C173.17,-174 212.83,-174 212.83,-174 218.17,-174 223.5,-179.33 223.5,-184.67 223.5,-184.67 223.5,-195.33 223.5,-195.33 223.5,-200.67 218.17,-206 212.83,-206 212.83,-206 173.17,-206 173.17,-206 167.83,-206 162.5,-200.67 162.5,-195.33 162.5,-195.33 162.5,-184.67 162.5,-184.67 162.5,-179.33 167.83,-174 173.17,-174"/>
</a>
</g>
</g>
<!-- arith_subf&#45;14329298399991804034 -->
<g id="node13" class="node">
<title>arith_subf&#45;14329298399991804034</title>
<g id="a_node13"><a xlink:title="9: arith_subf&#45;14329298399991804034">
<path fill="white" stroke="none" d="M458.17,-253C458.17,-253 505.83,-253 505.83,-253 511.17,-253 516.5,-258.33 516.5,-263.67 516.5,-263.67 516.5,-274.33 516.5,-274.33 516.5,-279.67 511.17,-285 505.83,-285 505.83,-285 458.17,-285 458.17,-285 452.83,-285 447.5,-279.67 447.5,-274.33 447.5,-274.33 447.5,-263.67 447.5,-263.67 447.5,-258.33 452.83,-253 458.17,-253"/>
<text text-anchor="start" x="452.38" y="-263.2" font-family="Helvetica,sans-Serif" font-size="14.00">arith_subf</text>
<path fill="none" stroke="black" d="M458.17,-253C458.17,-253 505.83,-253 505.83,-253 511.17,-253 516.5,-258.33 516.5,-263.67 516.5,-263.67 516.5,-274.33 516.5,-274.33 516.5,-279.67 511.17,-285 505.83,-285 505.83,-285 458.17,-285 458.17,-285 452.83,-285 447.5,-279.67 447.5,-274.33 447.5,-274.33 447.5,-263.67 447.5,-263.67 447.5,-258.33 452.83,-253 458.17,-253"/>
</a>
</g>
</g>
<!-- arith_constant&#45;1939104117755594322 -->
<g id="node14" class="node">
<title>arith_constant&#45;1939104117755594322</title>
<g id="a_node14"><a xlink:title="3: arith_constant&#45;1939104117755594322">
<path fill="white" stroke="none" d="M454.67,-174C454.67,-174 527.33,-174 527.33,-174 532.67,-174 538,-179.33 538,-184.67 538,-184.67 538,-195.33 538,-195.33 538,-200.67 532.67,-206 527.33,-206 527.33,-206 454.67,-206 454.67,-206 449.33,-206 444,-200.67 444,-195.33 444,-195.33 444,-184.67 444,-184.67 444,-179.33 449.33,-174 454.67,-174"/>
<text text-anchor="start" x="448.62" y="-184.2" font-family="Helvetica,sans-Serif" font-size="14.00">arith_constant</text>
<path fill="none" stroke="black" d="M454.67,-174C454.67,-174 527.33,-174 527.33,-174 532.67,-174 538,-179.33 538,-184.67 538,-184.67 538,-195.33 538,-195.33 538,-200.67 532.67,-206 527.33,-206 527.33,-206 454.67,-206 454.67,-206 449.33,-206 444,-200.67 444,-195.33 444,-195.33 444,-184.67 444,-184.67 444,-179.33 449.33,-174 454.67,-174"/>
</a>
</g>
</g>
<!-- arith_constant&#45;17859523323072850888 -->
<g id="node15" class="node">
<title>arith_constant&#45;17859523323072850888</title>
<g id="a_node15"><a xlink:title="0: arith_constant&#45;17859523323072850888">
<path fill="white" stroke="none" d="M270.67,-174C270.67,-174 343.33,-174 343.33,-174 348.67,-174 354,-179.33 354,-184.67 354,-184.67 354,-195.33 354,-195.33 354,-200.67 348.67,-206 343.33,-206 343.33,-206 270.67,-206 270.67,-206 265.33,-206 260,-200.67 260,-195.33 260,-195.33 260,-184.67 260,-184.67 260,-179.33 265.33,-174 270.67,-174"/>
<text text-anchor="start" x="264.62" y="-184.2" font-family="Helvetica,sans-Serif" font-size="14.00">arith_constant</text>
<path fill="none" stroke="black" d="M270.67,-174C270.67,-174 343.33,-174 343.33,-174 348.67,-174 354,-179.33 354,-184.67 354,-184.67 354,-195.33 354,-195.33 354,-200.67 348.67,-206 343.33,-206 343.33,-206 270.67,-206 270.67,-206 265.33,-206 260,-200.67 260,-195.33 260,-195.33 260,-184.67 260,-184.67 260,-179.33 265.33,-174 270.67,-174"/>
</a>
</g>
</g>
<!-- arith_constant&#45;9410104054885187150 -->
<g id="node16" class="node">
<title>arith_constant&#45;9410104054885187150</title>
<g id="a_node16"><a xlink:title="11: arith_constant&#45;9410104054885187150">
<path fill="white" stroke="none" d="M49.67,-253C49.67,-253 122.33,-253 122.33,-253 127.67,-253 133,-258.33 133,-263.67 133,-263.67 133,-274.33 133,-274.33 133,-279.67 127.67,-285 122.33,-285 122.33,-285 49.67,-285 49.67,-285 44.33,-285 39,-279.67 39,-274.33 39,-274.33 39,-263.67 39,-263.67 39,-258.33 44.33,-253 49.67,-253"/>
<text text-anchor="start" x="43.62" y="-263.2" font-family="Helvetica,sans-Serif" font-size="14.00">arith_constant</text>
<path fill="none" stroke="black" d="M49.67,-253C49.67,-253 122.33,-253 122.33,-253 127.67,-253 133,-258.33 133,-263.67 133,-263.67 133,-274.33 133,-274.33 133,-279.67 127.67,-285 122.33,-285 122.33,-285 49.67,-285 49.67,-285 44.33,-285 39,-279.67 39,-274.33 39,-274.33 39,-263.67 39,-263.67 39,-258.33 44.33,-253 49.67,-253"/>
</a>
</g>
</g>
<!-- arith_constant&#45;11823230470111314620 -->
<g id="node17" class="node">
<title>arith_constant&#45;11823230470111314620</title>
<g id="a_node17"><a xlink:title="6: arith_constant&#45;11823230470111314620">
<path fill="white" stroke="none" d="M177.67,-253C177.67,-253 250.33,-253 250.33,-253 255.67,-253 261,-258.33 261,-263.67 261,-263.67 261,-274.33 261,-274.33 261,-279.67 255.67,-285 250.33,-285 250.33,-285 177.67,-285 177.67,-285 172.33,-285 167,-279.67 167,-274.33 167,-274.33 167,-263.67 167,-263.67 167,-258.33 172.33,-253 177.67,-253"/>
<text text-anchor="start" x="171.62" y="-263.2" font-family="Helvetica,sans-Serif" font-size="14.00">arith_constant</text>
<path fill="none" stroke="black" d="M177.67,-253C177.67,-253 250.33,-253 250.33,-253 255.67,-253 261,-258.33 261,-263.67 261,-263.67 261,-274.33 261,-274.33 261,-279.67 255.67,-285 250.33,-285 250.33,-285 177.67,-285 177.67,-285 172.33,-285 167,-279.67 167,-274.33 167,-274.33 167,-263.67 167,-263.67 167,-258.33 172.33,-253 177.67,-253"/>
</a>
</g>
</g>
<!-- arith_addf&#45;14329298399991804034 -->
<g id="node18" class="node">
<title>arith_addf&#45;14329298399991804034</title>
<g id="a_node18"><a xlink:title="6: arith_addf&#45;14329298399991804034">
<path fill="white" stroke="none" d="M275.67,-253C275.67,-253 324.33,-253 324.33,-253 329.67,-253 335,-258.33 335,-263.67 335,-263.67 335,-274.33 335,-274.33 335,-279.67 329.67,-285 324.33,-285 324.33,-285 275.67,-285 275.67,-285 270.33,-285 265,-279.67 265,-274.33 265,-274.33 265,-263.67 265,-263.67 265,-258.33 270.33,-253 275.67,-253"/>
<text text-anchor="start" x="270" y="-263.2" font-family="Helvetica,sans-Serif" font-size="14.00">arith_addf</text>
<path fill="none" stroke="black" d="M275.67,-253C275.67,-253 324.33,-253 324.33,-253 329.67,-253 335,-258.33 335,-263.67 335,-263.67 335,-274.33 335,-274.33 335,-279.67 329.67,-285 324.33,-285 324.33,-285 275.67,-285 275.67,-285 270.33,-285 265,-279.67 265,-274.33 265,-274.33 265,-263.67 265,-263.67 265,-258.33 270.33,-253 275.67,-253"/>
</a>
</g>
</g>
<!-- arith_addf&#45;4162801374681909104 -->
<g id="node19" class="node">
<title>arith_addf&#45;4162801374681909104</title>
<g id="a_node19"><a xlink:title="6: arith_addf&#45;4162801374681909104">
<path fill="white" stroke="none" d="M349.67,-253C349.67,-253 398.33,-253 398.33,-253 403.67,-253 409,-258.33 409,-263.67 409,-263.67 409,-274.33 409,-274.33 409,-279.67 403.67,-285 398.33,-285 398.33,-285 349.67,-285 349.67,-285 344.33,-285 339,-279.67 339,-274.33 339,-274.33 339,-263.67 339,-263.67 339,-258.33 344.33,-253 349.67,-253"/>
<text text-anchor="start" x="344" y="-263.2" font-family="Helvetica,sans-Serif" font-size="14.00">arith_addf</text>
<path fill="none" stroke="black" d="M349.67,-253C349.67,-253 398.33,-253 398.33,-253 403.67,-253 409,-258.33 409,-263.67 409,-263.67 409,-274.33 409,-274.33 409,-279.67 403.67,-285 398.33,-285 398.33,-285 349.67,-285 349.67,-285 344.33,-285 339,-279.67 339,-274.33 339,-274.33 339,-263.67 339,-263.67 339,-258.33 344.33,-253 349.67,-253"/>
</a>
</g>
</g>
</g>
</svg>
