<?xml version="1.0" encoding="UTF-8" standalone="no"?>
<!DOCTYPE svg PUBLIC "-//W3C//DTD SVG 1.1//EN"
 "http://www.w3.org/Graphics/SVG/1.1/DTD/svg11.dtd">
<!-- Generated by graphviz version 11.0.0 (20240428.1522)
 -->
<!-- Pages: 1 -->
<svg width="388pt" height="230pt"
 viewBox="0.00 0.00 388.00 230.00" xmlns="http://www.w3.org/2000/svg" xmlns:xlink="http://www.w3.org/1999/xlink">
<g id="graph0" class="graph" transform="scale(1 1) rotate(0) translate(4 226)">
<polygon fill="white" stroke="none" points="-4,4 -4,-226 384,-226 384,4 -4,4"/>
<g id="clust1" class="cluster">
<title>outer_cluster_4</title>
</g>
<g id="clust2" class="cluster">
<title>cluster_4</title>
<path fill="#ffffb3" stroke="black" stroke-dasharray="5,2" d="M155,-169C155,-169 245,-169 245,-169 251,-169 257,-175 257,-181 257,-181 257,-199 257,-199 257,-205 251,-211 245,-211 245,-211 155,-211 155,-211 149,-211 143,-205 143,-199 143,-199 143,-181 143,-181 143,-175 149,-169 155,-169"/>
</g>
<g id="clust4" class="cluster">
<title>outer_cluster_6</title>
</g>
<g id="clust5" class="cluster">
<title>cluster_6</title>
<path fill="#ffffb3" stroke="black" stroke-dasharray="5,2" d="M23,-90C23,-90 209,-90 209,-90 215,-90 221,-96 221,-102 221,-102 221,-120 221,-120 221,-126 215,-132 209,-132 209,-132 23,-132 23,-132 17,-132 11,-126 11,-120 11,-120 11,-102 11,-102 11,-96 17,-90 23,-90"/>
</g>
<g id="clust7" class="cluster">
<title>outer_cluster_2</title>
</g>
<g id="clust8" class="cluster">
<title>cluster_2</title>
<path fill="#ffffb3" stroke="black" stroke-dasharray="5,2" d="M239,-90C239,-90 313,-90 313,-90 319,-90 325,-96 325,-102 325,-102 325,-120 325,-120 325,-126 319,-132 313,-132 313,-132 239,-132 239,-132 233,-132 227,-126 227,-120 227,-120 227,-102 227,-102 227,-96 233,-90 239,-90"/>
</g>
<g id="clust10" class="cluster">
<title>outer_cluster_String&#45;1145338382888088809</title>
</g>
<g id="clust11" class="cluster">
<title>cluster_String&#45;1145338382888088809</title>
<path fill="#bebada" stroke="black" stroke-dasharray="5,2" d="M253,-11C253,-11 357,-11 357,-11 363,-11 369,-17 369,-23 369,-23 369,-41 369,-41 369,-47 363,-53 357,-53 357,-53 253,-53 253,-53 247,-53 241,-47 241,-41 241,-41 241,-23 241,-23 241,-17 247,-11 253,-11"/>
</g>
<g id="clust13" class="cluster">
<title>outer_cluster_String&#45;17627030480522586708</title>
</g>
<g id="clust14" class="cluster">
<title>cluster_String&#45;17627030480522586708</title>
<path fill="#bebada" stroke="black" stroke-dasharray="5,2" d="M86,-11C86,-11 190,-11 190,-11 196,-11 202,-17 202,-23 202,-23 202,-41 202,-41 202,-47 196,-53 190,-53 190,-53 86,-53 86,-53 80,-53 74,-47 74,-41 74,-41 74,-23 74,-23 74,-17 80,-11 86,-11"/>
</g>
<!-- linalg_transpose&#45;2589152559009763059&#45;&gt;tensor_empty&#45;17627030480522586708 -->
<g id="edge1" class="edge">
<title>linalg_transpose&#45;2589152559009763059:s&#45;&gt;tensor_empty&#45;17627030480522586708</title>
<path fill="none" stroke="black" d="M173.5,-174C173.5,-169.96 137.64,-150.88 106.24,-134.93"/>
<polygon fill="black" stroke="black" points="107.04,-133.38 101.79,-132.68 105.46,-136.5 107.04,-133.38"/>
</g>
<!-- linalg_transpose&#45;2589152559009763059&#45;&gt;tensor_empty&#45;1145338382888088809 -->
<g id="edge2" class="edge">
<title>linalg_transpose&#45;2589152559009763059:s&#45;&gt;tensor_empty&#45;1145338382888088809</title>
<path fill="none" stroke="black" d="M213,-174C213,-156.78 225.11,-142.74 238.7,-132.41"/>
<polygon fill="black" stroke="black" points="234.31,-135.97 238.35,-132.54 233.05,-132.71 234.31,-135.97"/>
</g>
<!-- linalg_transpose&#45;2589152559009763059&#45;&gt;String&#45;1145338382888088809 -->
<g id="edge3" class="edge">
<title>linalg_transpose&#45;2589152559009763059:s&#45;&gt;String&#45;1145338382888088809</title>
<path fill="none" stroke="black" d="M239.5,-174C239.5,-131.83 303.11,-170.42 326,-135 341.58,-110.88 329.75,-77.44 318.52,-55.51"/>
<polygon fill="black" stroke="black" points="321.94,-57.04 317.48,-54.19 319.19,-59.2 321.94,-57.04"/>
</g>
<!-- tensor_empty&#45;17627030480522586708&#45;&gt;String&#45;17627030480522586708 -->
<g id="edge4" class="edge">
<title>tensor_empty&#45;17627030480522586708:s&#45;&gt;String&#45;17627030480522586708</title>
<path fill="none" stroke="black" d="M60,-95C60,-76.66 73.38,-62.88 89.05,-53.02"/>
<polygon fill="black" stroke="black" points="83.04,-55.14 87.93,-53.09 82.83,-51.64 83.04,-55.14"/>
</g>
<!-- tensor_empty&#45;1145338382888088809&#45;&gt;String&#45;1145338382888088809 -->
<g id="edge8" class="edge">
<title>tensor_empty&#45;1145338382888088809:s&#45;&gt;String&#45;1145338382888088809</title>
<path fill="none" stroke="black" d="M276,-95C276,-80.91 282.22,-66.57 288.9,-55.23"/>
<polygon fill="black" stroke="black" points="287.75,-58.8 290.11,-54.06 285.31,-56.29 287.75,-58.8"/>
</g>
<!-- linalg_transpose&#45;6542648677822143565&#45;&gt;linalg_transpose&#45;2589152559009763059 -->
<g id="edge5" class="edge">
<title>linalg_transpose&#45;6542648677822143565:s&#45;&gt;linalg_transpose&#45;2589152559009763059</title>
<path fill="none" stroke="black" d="M137.5,-95C137.5,-82.77 118.49,-87.2 110,-96 104.91,-101.28 106.54,-122.53 110,-129 119.23,-146.26 135.87,-159.41 152.34,-168.93"/>
<polygon fill="black" stroke="black" points="146.24,-169.97 151.41,-168.82 146.65,-166.5 146.24,-169.97"/>
</g>
<!-- linalg_transpose&#45;6542648677822143565&#45;&gt;tensor_empty&#45;17627030480522586708 -->
<g id="edge6" class="edge">
<title>linalg_transpose&#45;6542648677822143565:s&#45;&gt;tensor_empty&#45;17627030480522586708</title>
<path fill="none" stroke="black" d="M177,-95C177,-63.68 134.98,-75.86 101.52,-90.52"/>
<polygon fill="black" stroke="black" points="101.03,-88.82 97.18,-92.46 102.46,-92.01 101.03,-88.82"/>
</g>
<!-- linalg_transpose&#45;6542648677822143565&#45;&gt;String&#45;17627030480522586708 -->
<g id="edge7" class="edge">
<title>linalg_transpose&#45;6542648677822143565:s&#45;&gt;String&#45;17627030480522586708</title>
<path fill="none" stroke="black" d="M203.5,-95C203.5,-77.71 191.31,-63.8 177.45,-53.57"/>
<polygon fill="black" stroke="black" points="182.91,-54.28 177.64,-53.66 181.37,-57.43 182.91,-54.28"/>
</g>
<!-- linalg_transpose&#45;2589152559009763059 -->
<g id="node1" class="node">
<title>linalg_transpose&#45;2589152559009763059</title>
<g id="a_node1"><a xlink:title="4: linalg_transpose&#45;2589152559009763059">
<path fill="white" stroke="none" d="M156.67,-174C156.67,-174 243.33,-174 243.33,-174 248.67,-174 254,-179.33 254,-184.67 254,-184.67 254,-195.33 254,-195.33 254,-200.67 248.67,-206 243.33,-206 243.33,-206 156.67,-206 156.67,-206 151.33,-206 146,-200.67 146,-195.33 146,-195.33 146,-184.67 146,-184.67 146,-179.33 151.33,-174 156.67,-174"/>
<text text-anchor="start" x="150.88" y="-184.2" font-family="Helvetica,sans-Serif" font-size="14.00">linalg_transpose</text>
<path fill="none" stroke="black" d="M156.67,-174C156.67,-174 243.33,-174 243.33,-174 248.67,-174 254,-179.33 254,-184.67 254,-184.67 254,-195.33 254,-195.33 254,-200.67 248.67,-206 243.33,-206 243.33,-206 156.67,-206 156.67,-206 151.33,-206 146,-200.67 146,-195.33 146,-195.33 146,-184.67 146,-184.67 146,-179.33 151.33,-174 156.67,-174"/>
</a>
</g>
</g>
<!-- tensor_empty&#45;17627030480522586708 -->
<g id="node2" class="node">
<title>tensor_empty&#45;17627030480522586708</title>
<g id="a_node2"><a xlink:title="6: tensor_empty&#45;17627030480522586708">
<path fill="white" stroke="none" d="M24.42,-95C24.42,-95 95.58,-95 95.58,-95 100.92,-95 106.25,-100.33 106.25,-105.67 106.25,-105.67 106.25,-116.33 106.25,-116.33 106.25,-121.67 100.92,-127 95.58,-127 95.58,-127 24.42,-127 24.42,-127 19.08,-127 13.75,-121.67 13.75,-116.33 13.75,-116.33 13.75,-105.67 13.75,-105.67 13.75,-100.33 19.08,-95 24.42,-95"/>
<text text-anchor="start" x="18.75" y="-105.2" font-family="Helvetica,sans-Serif" font-size="14.00">tensor_empty</text>
<path fill="none" stroke="black" d="M24.42,-95C24.42,-95 95.58,-95 95.58,-95 100.92,-95 106.25,-100.33 106.25,-105.67 106.25,-105.67 106.25,-116.33 106.25,-116.33 106.25,-121.67 100.92,-127 95.58,-127 95.58,-127 24.42,-127 24.42,-127 19.08,-127 13.75,-121.67 13.75,-116.33 13.75,-116.33 13.75,-105.67 13.75,-105.67 13.75,-100.33 19.08,-95 24.42,-95"/>
</a>
</g>
</g>
<!-- tensor_empty&#45;1145338382888088809 -->
<g id="node3" class="node">
<title>tensor_empty&#45;1145338382888088809</title>
<g id="a_node3"><a xlink:title="2: tensor_empty&#45;1145338382888088809">
<path fill="white" stroke="none" d="M240.42,-95C240.42,-95 311.58,-95 311.58,-95 316.92,-95 322.25,-100.33 322.25,-105.67 322.25,-105.67 322.25,-116.33 322.25,-116.33 322.25,-121.67 316.92,-127 311.58,-127 311.58,-127 240.42,-127 240.42,-127 235.08,-127 229.75,-121.67 229.75,-116.33 229.75,-116.33 229.75,-105.67 229.75,-105.67 229.75,-100.33 235.08,-95 240.42,-95"/>
<text text-anchor="start" x="234.75" y="-105.2" font-family="Helvetica,sans-Serif" font-size="14.00">tensor_empty</text>
<path fill="none" stroke="black" d="M240.42,-95C240.42,-95 311.58,-95 311.58,-95 316.92,-95 322.25,-100.33 322.25,-105.67 322.25,-105.67 322.25,-116.33 322.25,-116.33 322.25,-121.67 316.92,-127 311.58,-127 311.58,-127 240.42,-127 240.42,-127 235.08,-127 229.75,-121.67 229.75,-116.33 229.75,-116.33 229.75,-105.67 229.75,-105.67 229.75,-100.33 235.08,-95 240.42,-95"/>
</a>
</g>
</g>
<!-- String&#45;1145338382888088809 -->
<g id="node4" class="node">
<title>String&#45;1145338382888088809</title>
<g id="a_node4"><a xlink:title="String&#45;1145338382888088809: String&#45;1145338382888088809">
<path fill="white" stroke="none" d="M254.79,-16C254.79,-16 355.21,-16 355.21,-16 360.54,-16 365.88,-21.33 365.88,-26.67 365.88,-26.67 365.88,-37.33 365.88,-37.33 365.88,-42.67 360.54,-48 355.21,-48 355.21,-48 254.79,-48 254.79,-48 249.46,-48 244.12,-42.67 244.12,-37.33 244.12,-37.33 244.12,-26.67 244.12,-26.67 244.12,-21.33 249.46,-16 254.79,-16"/>
<text text-anchor="start" x="249.12" y="-26.2" font-family="Helvetica,sans-Serif" font-size="14.00">&quot;tensor&lt;2x3xf32&gt;&quot;</text>
<path fill="none" stroke="black" d="M254.79,-16C254.79,-16 355.21,-16 355.21,-16 360.54,-16 365.88,-21.33 365.88,-26.67 365.88,-26.67 365.88,-37.33 365.88,-37.33 365.88,-42.67 360.54,-48 355.21,-48 355.21,-48 254.79,-48 254.79,-48 249.46,-48 244.12,-42.67 244.12,-37.33 244.12,-37.33 244.12,-26.67 244.12,-26.67 244.12,-21.33 249.46,-16 254.79,-16"/>
</a>
</g>
</g>
<!-- String&#45;17627030480522586708 -->
<g id="node5" class="node">
<title>String&#45;17627030480522586708</title>
<g id="a_node5"><a xlink:title="String&#45;17627030480522586708: String&#45;17627030480522586708">
<path fill="white" stroke="none" d="M87.79,-16C87.79,-16 188.21,-16 188.21,-16 193.54,-16 198.88,-21.33 198.88,-26.67 198.88,-26.67 198.88,-37.33 198.88,-37.33 198.88,-42.67 193.54,-48 188.21,-48 188.21,-48 87.79,-48 87.79,-48 82.46,-48 77.12,-42.67 77.12,-37.33 77.12,-37.33 77.12,-26.67 77.12,-26.67 77.12,-21.33 82.46,-16 87.79,-16"/>
<text text-anchor="start" x="82.12" y="-26.2" font-family="Helvetica,sans-Serif" font-size="14.00">&quot;tensor&lt;3x2xf32&gt;&quot;</text>
<path fill="none" stroke="black" d="M87.79,-16C87.79,-16 188.21,-16 188.21,-16 193.54,-16 198.88,-21.33 198.88,-26.67 198.88,-26.67 198.88,-37.33 198.88,-37.33 198.88,-42.67 193.54,-48 188.21,-48 188.21,-48 87.79,-48 87.79,-48 82.46,-48 77.12,-42.67 77.12,-37.33 77.12,-37.33 77.12,-26.67 77.12,-26.67 77.12,-21.33 82.46,-16 87.79,-16"/>
</a>
</g>
</g>
<!-- linalg_transpose&#45;6542648677822143565 -->
<g id="node6" class="node">
<title>linalg_transpose&#45;6542648677822143565</title>
<g id="a_node6"><a xlink:title="6: linalg_transpose&#45;6542648677822143565">
<path fill="white" stroke="none" d="M120.67,-95C120.67,-95 207.33,-95 207.33,-95 212.67,-95 218,-100.33 218,-105.67 218,-105.67 218,-116.33 218,-116.33 218,-121.67 212.67,-127 207.33,-127 207.33,-127 120.67,-127 120.67,-127 115.33,-127 110,-121.67 110,-116.33 110,-116.33 110,-105.67 110,-105.67 110,-100.33 115.33,-95 120.67,-95"/>
<text text-anchor="start" x="114.88" y="-105.2" font-family="Helvetica,sans-Serif" font-size="14.00">linalg_transpose</text>
<path fill="none" stroke="black" d="M120.67,-95C120.67,-95 207.33,-95 207.33,-95 212.67,-95 218,-100.33 218,-105.67 218,-105.67 218,-116.33 218,-116.33 218,-121.67 212.67,-127 207.33,-127 207.33,-127 120.67,-127 120.67,-127 115.33,-127 110,-121.67 110,-116.33 110,-116.33 110,-105.67 110,-105.67 110,-100.33 115.33,-95 120.67,-95"/>
</a>
</g>
</g>
</g>
</svg>
