<?xml version="1.0" encoding="UTF-8" standalone="no"?>
<!DOCTYPE svg PUBLIC "-//W3C//DTD SVG 1.1//EN"
 "http://www.w3.org/Graphics/SVG/1.1/DTD/svg11.dtd">
<!-- Generated by graphviz version 12.0.0 (20240704.0754)
 -->
<!-- Pages: 1 -->
<svg width="838pt" height="388pt"
 viewBox="0.00 0.00 838.00 388.00" xmlns="http://www.w3.org/2000/svg" xmlns:xlink="http://www.w3.org/1999/xlink">
<g id="graph0" class="graph" transform="scale(1 1) rotate(0) translate(4 384)">
<polygon fill="white" stroke="none" points="-4,4 -4,-384 834,-384 834,4 -4,4"/>
<g id="clust1" class="cluster">
<title>outer_cluster_String&#45;3221225478</title>
</g>
<g id="clust2" class="cluster">
<title>cluster_String&#45;3221225478</title>
<path fill="#ffffb3" stroke="black" stroke-dasharray="5,2" d="M23,-169C23,-169 59,-169 59,-169 65,-169 71,-175 71,-181 71,-181 71,-199 71,-199 71,-205 65,-211 59,-211 59,-211 23,-211 23,-211 17,-211 11,-205 11,-199 11,-199 11,-181 11,-181 11,-175 17,-169 23,-169"/>
</g>
<g id="clust4" class="cluster">
<title>outer_cluster_IntVec&#45;0</title>
</g>
<g id="clust5" class="cluster">
<title>cluster_IntVec&#45;0</title>
<path fill="#bebada" stroke="black" stroke-dasharray="5,2" d="M307,-90C307,-90 343,-90 343,-90 349,-90 355,-96 355,-102 355,-102 355,-120 355,-120 355,-126 349,-132 343,-132 343,-132 307,-132 307,-132 301,-132 295,-126 295,-120 295,-120 295,-102 295,-102 295,-96 301,-90 307,-90"/>
</g>
<g id="clust7" class="cluster">
<title>outer_cluster_i64&#45;8</title>
</g>
<g id="clust8" class="cluster">
<title>cluster_i64&#45;8</title>
<path fill="#fb8072" stroke="black" stroke-dasharray="5,2" d="M705,-248C705,-248 741,-248 741,-248 747,-248 753,-254 753,-260 753,-260 753,-278 753,-278 753,-284 747,-290 741,-290 741,-290 705,-290 705,-290 699,-290 693,-284 693,-278 693,-278 693,-260 693,-260 693,-254 699,-248 705,-248"/>
</g>
<g id="clust10" class="cluster">
<title>outer_cluster_i64&#45;0</title>
</g>
<g id="clust11" class="cluster">
<title>cluster_i64&#45;0</title>
<path fill="#fb8072" stroke="black" stroke-dasharray="5,2" d="M77,-90C77,-90 113,-90 113,-90 119,-90 125,-96 125,-102 125,-102 125,-120 125,-120 125,-126 119,-132 113,-132 113,-132 77,-132 77,-132 71,-132 65,-126 65,-120 65,-120 65,-102 65,-102 65,-96 71,-90 77,-90"/>
</g>
<g id="clust13" class="cluster">
<title>outer_cluster_i64&#45;3</title>
</g>
<g id="clust14" class="cluster">
<title>cluster_i64&#45;3</title>
<path fill="#fb8072" stroke="black" stroke-dasharray="5,2" d="M561,-169C561,-169 597,-169 597,-169 603,-169 609,-175 609,-181 609,-181 609,-199 609,-199 609,-205 603,-211 597,-211 597,-211 561,-211 561,-211 555,-211 549,-205 549,-199 549,-199 549,-181 549,-181 549,-175 555,-169 561,-169"/>
</g>
<g id="clust16" class="cluster">
<title>outer_cluster_i64&#45;2</title>
</g>
<g id="clust17" class="cluster">
<title>cluster_i64&#45;2</title>
<path fill="#fb8072" stroke="black" stroke-dasharray="5,2" d="M187,-169C187,-169 223,-169 223,-169 229,-169 235,-175 235,-181 235,-181 235,-199 235,-199 235,-205 229,-211 223,-211 223,-211 187,-211 187,-211 181,-211 175,-205 175,-199 175,-199 175,-181 175,-181 175,-175 181,-169 187,-169"/>
</g>
<g id="clust19" class="cluster">
<title>outer_cluster_i64&#45;100</title>
</g>
<g id="clust20" class="cluster">
<title>cluster_i64&#45;100</title>
<path fill="#fb8072" stroke="black" stroke-dasharray="5,2" d="M307,-11C307,-11 343,-11 343,-11 349,-11 355,-17 355,-23 355,-23 355,-41 355,-41 355,-47 349,-53 343,-53 343,-53 307,-53 307,-53 301,-53 295,-47 295,-41 295,-41 295,-23 295,-23 295,-17 301,-11 307,-11"/>
</g>
<g id="clust22" class="cluster">
<title>outer_cluster_i64&#45;5</title>
</g>
<g id="clust23" class="cluster">
<title>cluster_i64&#45;5</title>
<path fill="#fb8072" stroke="black" stroke-dasharray="5,2" d="M253,-169C253,-169 289,-169 289,-169 295,-169 301,-175 301,-181 301,-181 301,-199 301,-199 301,-205 295,-211 289,-211 289,-211 253,-211 253,-211 247,-211 241,-205 241,-199 241,-199 241,-181 241,-181 241,-175 247,-169 253,-169"/>
</g>
<g id="clust25" class="cluster">
<title>outer_cluster_i64&#45;4</title>
</g>
<g id="clust26" class="cluster">
<title>cluster_i64&#45;4</title>
<path fill="#fb8072" stroke="black" stroke-dasharray="5,2" d="M495,-169C495,-169 531,-169 531,-169 537,-169 543,-175 543,-181 543,-181 543,-199 543,-199 543,-205 537,-211 531,-211 531,-211 495,-211 495,-211 489,-211 483,-205 483,-199 483,-199 483,-181 483,-181 483,-175 489,-169 495,-169"/>
</g>
<g id="clust28" class="cluster">
<title>outer_cluster_i64&#45;6</title>
</g>
<g id="clust29" class="cluster">
<title>cluster_i64&#45;6</title>
<path fill="#fb8072" stroke="black" stroke-dasharray="5,2" d="M429,-169C429,-169 465,-169 465,-169 471,-169 477,-175 477,-181 477,-181 477,-199 477,-199 477,-205 471,-211 465,-211 465,-211 429,-211 429,-211 423,-211 417,-205 417,-199 417,-199 417,-181 417,-181 417,-175 423,-169 429,-169"/>
</g>
<g id="clust31" class="cluster">
<title>outer_cluster_i64&#45;1</title>
</g>
<g id="clust32" class="cluster">
<title>cluster_i64&#45;1</title>
<path fill="#fb8072" stroke="black" stroke-dasharray="5,2" d="M627,-169C627,-169 663,-169 663,-169 669,-169 675,-175 675,-181 675,-181 675,-199 675,-199 675,-205 669,-211 663,-211 663,-211 627,-211 627,-211 621,-211 615,-205 615,-199 615,-199 615,-181 615,-181 615,-175 621,-169 627,-169"/>
</g>
<g id="clust34" class="cluster">
<title>outer_cluster_Op&#45;16</title>
</g>
<g id="clust35" class="cluster">
<title>cluster_Op&#45;16</title>
<path fill="#80b1d3" stroke="black" stroke-dasharray="5,2" d="M352,-327C352,-327 428,-327 428,-327 434,-327 440,-333 440,-339 440,-339 440,-357 440,-357 440,-363 434,-369 428,-369 428,-369 352,-369 352,-369 346,-369 340,-363 340,-357 340,-357 340,-339 340,-339 340,-333 346,-327 352,-327"/>
</g>
<g id="clust37" class="cluster">
<title>outer_cluster_Op&#45;6</title>
</g>
<g id="clust38" class="cluster">
<title>cluster_Op&#45;6</title>
<path fill="#80b1d3" stroke="black" stroke-dasharray="5,2" d="M242,-248C242,-248 278,-248 278,-248 284,-248 290,-254 290,-260 290,-260 290,-278 290,-278 290,-284 284,-290 278,-290 278,-290 242,-290 242,-290 236,-290 230,-284 230,-278 230,-278 230,-260 230,-260 230,-254 236,-248 242,-248"/>
</g>
<g id="clust40" class="cluster">
<title>outer_cluster_Op&#45;0</title>
</g>
<g id="clust41" class="cluster">
<title>cluster_Op&#45;0</title>
<path fill="#80b1d3" stroke="black" stroke-dasharray="5,2" d="M174,-248C174,-248 210,-248 210,-248 216,-248 222,-254 222,-260 222,-260 222,-278 222,-278 222,-284 216,-290 210,-290 210,-290 174,-290 174,-290 168,-290 162,-284 162,-278 162,-278 162,-260 162,-260 162,-254 168,-248 174,-248"/>
</g>
<g id="clust43" class="cluster">
<title>outer_cluster_Op&#45;12</title>
</g>
<g id="clust44" class="cluster">
<title>cluster_Op&#45;12</title>
<path fill="#80b1d3" stroke="black" stroke-dasharray="5,2" d="M308,-248C308,-248 344,-248 344,-248 350,-248 356,-254 356,-260 356,-260 356,-278 356,-278 356,-284 350,-290 344,-290 344,-290 308,-290 308,-290 302,-290 296,-284 296,-278 296,-278 296,-260 296,-260 296,-254 302,-248 308,-248"/>
</g>
<g id="clust46" class="cluster">
<title>outer_cluster_Op&#45;20</title>
</g>
<g id="clust47" class="cluster">
<title>cluster_Op&#45;20</title>
<path fill="#80b1d3" stroke="black" stroke-dasharray="5,2" d="M738,-327C738,-327 774,-327 774,-327 780,-327 786,-333 786,-339 786,-339 786,-357 786,-357 786,-363 780,-369 774,-369 774,-369 738,-369 738,-369 732,-369 726,-363 726,-357 726,-357 726,-339 726,-339 726,-333 732,-327 738,-327"/>
</g>
<g id="clust49" class="cluster">
<title>outer_cluster_Op&#45;14</title>
</g>
<g id="clust50" class="cluster">
<title>cluster_Op&#45;14</title>
<path fill="#80b1d3" stroke="black" stroke-dasharray="5,2" d="M375,-248C375,-248 411,-248 411,-248 417,-248 423,-254 423,-260 423,-260 423,-278 423,-278 423,-284 417,-290 411,-290 411,-290 375,-290 375,-290 369,-290 363,-284 363,-278 363,-278 363,-260 363,-260 363,-254 369,-248 375,-248"/>
</g>
<g id="clust52" class="cluster">
<title>outer_cluster_Op&#45;10</title>
</g>
<g id="clust53" class="cluster">
<title>cluster_Op&#45;10</title>
<path fill="#80b1d3" stroke="black" stroke-dasharray="5,2" d="M449,-248C449,-248 485,-248 485,-248 491,-248 497,-254 497,-260 497,-260 497,-278 497,-278 497,-284 491,-290 485,-290 485,-290 449,-290 449,-290 443,-290 437,-284 437,-278 437,-278 437,-260 437,-260 437,-254 443,-248 449,-248"/>
</g>
<g id="clust55" class="cluster">
<title>outer_cluster_Op&#45;8</title>
</g>
<g id="clust56" class="cluster">
<title>cluster_Op&#45;8</title>
<path fill="#80b1d3" stroke="black" stroke-dasharray="5,2" d="M530,-248C530,-248 566,-248 566,-248 572,-248 578,-254 578,-260 578,-260 578,-278 578,-278 578,-284 572,-290 566,-290 566,-290 530,-290 530,-290 524,-290 518,-284 518,-278 518,-278 518,-260 518,-260 518,-254 524,-248 530,-248"/>
</g>
<g id="clust58" class="cluster">
<title>outer_cluster_Op&#45;4</title>
</g>
<g id="clust59" class="cluster">
<title>cluster_Op&#45;4</title>
<path fill="#80b1d3" stroke="black" stroke-dasharray="5,2" d="M626,-248C626,-248 662,-248 662,-248 668,-248 674,-254 674,-260 674,-260 674,-278 674,-278 674,-284 668,-290 662,-290 662,-290 626,-290 626,-290 620,-290 614,-284 614,-278 614,-278 614,-260 614,-260 614,-254 620,-248 626,-248"/>
</g>
<g id="clust61" class="cluster">
<title>outer_cluster_AttrPair&#45;18</title>
</g>
<g id="clust62" class="cluster">
<title>cluster_AttrPair&#45;18</title>
<path fill="#fdb462" stroke="black" stroke-dasharray="5,2" d="M82,-248C82,-248 140,-248 140,-248 146,-248 152,-254 152,-260 152,-260 152,-278 152,-278 152,-284 146,-290 140,-290 140,-290 82,-290 82,-290 76,-290 70,-284 70,-278 70,-278 70,-260 70,-260 70,-254 76,-248 82,-248"/>
</g>
<g id="clust64" class="cluster">
<title>outer_cluster_Attr&#45;17</title>
</g>
<g id="clust65" class="cluster">
<title>cluster_Attr&#45;17</title>
<path fill="#b3de69" stroke="black" stroke-dasharray="5,2" d="M101,-169C101,-169 157,-169 157,-169 163,-169 169,-175 169,-181 169,-181 169,-199 169,-199 169,-205 163,-211 157,-211 157,-211 101,-211 101,-211 95,-211 89,-205 89,-199 89,-199 89,-181 89,-181 89,-175 95,-169 101,-169"/>
</g>
<g id="clust67" class="cluster">
<title>outer_cluster_Type&#45;21</title>
</g>
<g id="clust68" class="cluster">
<title>cluster_Type&#45;21</title>
<path fill="#fccde5" stroke="black" stroke-dasharray="5,2" d="M771,-248C771,-248 807,-248 807,-248 813,-248 819,-254 819,-260 819,-260 819,-278 819,-278 819,-284 813,-290 807,-290 807,-290 771,-290 771,-290 765,-290 759,-284 759,-278 759,-278 759,-260 759,-260 759,-254 765,-248 771,-248"/>
</g>
<g id="clust70" class="cluster">
<title>outer_cluster_Type&#45;2</title>
</g>
<g id="clust71" class="cluster">
<title>cluster_Type&#45;2</title>
<path fill="#fccde5" stroke="black" stroke-dasharray="5,2" d="M319,-169C319,-169 399,-169 399,-169 405,-169 411,-175 411,-181 411,-181 411,-199 411,-199 411,-205 405,-211 399,-211 399,-211 319,-211 319,-211 313,-211 307,-205 307,-199 307,-199 307,-181 307,-181 307,-175 313,-169 319,-169"/>
</g>
<g id="clust73" class="cluster">
<title>outer_cluster_Type&#45;1</title>
</g>
<g id="clust74" class="cluster">
<title>cluster_Type&#45;1</title>
<path fill="#fccde5" stroke="black" stroke-dasharray="5,2" d="M373,-90C373,-90 409,-90 409,-90 415,-90 421,-96 421,-102 421,-102 421,-120 421,-120 421,-126 415,-132 409,-132 409,-132 373,-132 373,-132 367,-132 361,-126 361,-120 361,-120 361,-102 361,-102 361,-96 367,-90 373,-90"/>
</g>
<!-- IntVec&#45;0&#45;&gt;i64&#45;100 -->
<g id="edge1" class="edge">
<title>IntVec&#45;0:s&#45;&gt;i64&#45;100</title>
<path fill="none" stroke="black" d="M313.5,-95C313.5,-81.98 315.98,-67.67 318.64,-56.08"/>
<polygon fill="black" stroke="black" points="318.88,-59.63 319.47,-54.36 315.72,-58.11 318.88,-59.63"/>
</g>
<!-- IntVec&#45;0&#45;&gt;i64&#45;100 -->
<g id="edge2" class="edge">
<title>IntVec&#45;0:s&#45;&gt;i64&#45;100</title>
<path fill="none" stroke="black" d="M336.5,-95C336.5,-81.98 334.02,-67.67 331.36,-56.08"/>
<polygon fill="black" stroke="black" points="334.28,-58.11 330.53,-54.36 331.12,-59.63 334.28,-58.11"/>
</g>
<!-- arith_constant&#45;11808970072622434574&#45;&gt;NamedAttr&#45;4319375231502193485 -->
<g id="edge3" class="edge">
<title>arith_constant&#45;11808970072622434574:s&#45;&gt;NamedAttr&#45;4319375231502193485</title>
<path fill="none" stroke="black" d="M367,-332C367,-285.41 205.38,-307.17 161,-293 159.98,-292.67 158.95,-292.33 157.92,-291.98"/>
<polygon fill="black" stroke="black" points="158.72,-290.41 153.42,-290.33 157.52,-293.69 158.72,-290.41"/>
</g>
<!-- arith_constant&#45;11808970072622434574&#45;&gt;I32&#45;0 -->
<g id="edge4" class="edge">
<title>arith_constant&#45;11808970072622434574:s&#45;&gt;I32&#45;0</title>
<path fill="none" stroke="black" d="M413,-332C413,-273.14 636.28,-337.34 675,-293 693.56,-271.74 694,-187.74 676,-166 644.33,-127.77 492.43,-116.4 424.25,-113.19"/>
<polygon fill="black" stroke="black" points="427.64,-111.73 422.51,-113.04 427.34,-115.22 427.64,-111.73"/>
</g>
<!-- NamedAttr&#45;4319375231502193485&#45;&gt;String&#45;3221225478 -->
<g id="edge21" class="edge">
<title>NamedAttr&#45;4319375231502193485:s&#45;&gt;String&#45;3221225478</title>
<path fill="none" stroke="black" d="M92.5,-253C92.5,-236.82 81.99,-222.6 70.47,-211.88"/>
<polygon fill="black" stroke="black" points="75.4,-212.57 70.17,-211.72 73.73,-215.65 75.4,-212.57"/>
</g>
<!-- NamedAttr&#45;4319375231502193485&#45;&gt;IntegerAttr&#45;5871781006564002453 -->
<g id="edge22" class="edge">
<title>NamedAttr&#45;4319375231502193485:s&#45;&gt;IntegerAttr&#45;5871781006564002453</title>
<path fill="none" stroke="black" d="M129,-253C129,-240.22 129,-225.96 129,-214.35"/>
<polygon fill="black" stroke="black" points="130.75,-217.51 129,-212.51 127.25,-217.51 130.75,-217.51"/>
</g>
<!-- Value&#45;13656135949156587278&#45;&gt;i64&#45;2 -->
<g id="edge5" class="edge">
<title>Value&#45;13656135949156587278:s&#45;&gt;i64&#45;2</title>
<path fill="none" stroke="black" d="M249.5,-253C249.5,-237.58 240.3,-223.37 230.27,-212.45"/>
<polygon fill="black" stroke="black" points="234.4,-212.96 229.23,-211.8 232.55,-215.93 234.4,-212.96"/>
</g>
<!-- Value&#45;13656135949156587278&#45;&gt;RankedTensor&#45;5871781006564002453 -->
<g id="edge6" class="edge">
<title>Value&#45;13656135949156587278:s&#45;&gt;RankedTensor&#45;5871781006564002453</title>
<path fill="none" stroke="black" d="M270.5,-253C270.5,-241.33 291.39,-226.37 312.87,-214.06"/>
<polygon fill="black" stroke="black" points="313.51,-215.71 317.01,-211.74 311.8,-212.66 313.51,-215.71"/>
</g>
<!-- RankedTensor&#45;5871781006564002453&#45;&gt;IntVec&#45;0 -->
<g id="edge25" class="edge">
<title>RankedTensor&#45;5871781006564002453:s&#45;&gt;IntVec&#45;0</title>
<path fill="none" stroke="black" d="M335,-174C335,-161.03 332.84,-146.72 330.53,-135.13"/>
<polygon fill="black" stroke="black" points="333.34,-137.36 329.82,-133.4 330.1,-138.69 333.34,-137.36"/>
</g>
<!-- RankedTensor&#45;5871781006564002453&#45;&gt;I32&#45;0 -->
<g id="edge26" class="edge">
<title>RankedTensor&#45;5871781006564002453:s&#45;&gt;I32&#45;0</title>
<path fill="none" stroke="black" d="M382.5,-174C382.5,-160.98 384.36,-146.57 386.34,-134.92"/>
<polygon fill="black" stroke="black" points="386.78,-138.71 386.91,-133.42 383.51,-137.48 386.78,-138.71"/>
</g>
<!-- Value&#45;11743562013128004906&#45;&gt;i64&#45;0 -->
<g id="edge7" class="edge">
<title>Value&#45;11743562013128004906:s&#45;&gt;i64&#45;0</title>
<path fill="none" stroke="black" d="M181.5,-253C181.5,-207.97 112.97,-251.47 88,-214 72.34,-190.51 78.84,-156.84 86.01,-134.7"/>
<polygon fill="black" stroke="black" points="86.37,-138.71 86.5,-133.42 83.09,-137.47 86.37,-138.71"/>
</g>
<!-- Value&#45;11743562013128004906&#45;&gt;RankedTensor&#45;5871781006564002453 -->
<g id="edge8" class="edge">
<title>Value&#45;11743562013128004906:s&#45;&gt;RankedTensor&#45;5871781006564002453</title>
<path fill="none" stroke="black" d="M202.5,-253C202.5,-205.5 257.86,-231.55 302,-214 302.62,-213.76 303.24,-213.51 303.86,-213.26"/>
<polygon fill="black" stroke="black" points="304.13,-215.04 308.13,-211.56 302.83,-211.79 304.13,-215.04"/>
</g>
<!-- Value&#45;8055065427700440304&#45;&gt;i64&#45;5 -->
<g id="edge9" class="edge">
<title>Value&#45;8055065427700440304:s&#45;&gt;i64&#45;5</title>
<path fill="none" stroke="black" d="M315.5,-253C315.5,-237.58 306.3,-223.37 296.27,-212.45"/>
<polygon fill="black" stroke="black" points="300.4,-212.96 295.23,-211.8 298.55,-215.93 300.4,-212.96"/>
</g>
<!-- Value&#45;8055065427700440304&#45;&gt;RankedTensor&#45;5871781006564002453 -->
<g id="edge10" class="edge">
<title>Value&#45;8055065427700440304:s&#45;&gt;RankedTensor&#45;5871781006564002453</title>
<path fill="none" stroke="black" d="M336.5,-253C336.5,-239.35 341.38,-224.97 346.59,-213.49"/>
<polygon fill="black" stroke="black" points="346.05,-217.35 347.46,-212.24 343.17,-215.35 346.05,-217.35"/>
</g>
<!-- Value&#45;4116797014279381844&#45;&gt;i64&#45;8 -->
<g id="edge11" class="edge">
<title>Value&#45;4116797014279381844:s&#45;&gt;i64&#45;8</title>
<path fill="none" stroke="black" d="M745.5,-332C745.5,-318.35 740.62,-303.97 735.41,-292.49"/>
<polygon fill="black" stroke="black" points="738.83,-294.35 734.54,-291.24 735.95,-296.35 738.83,-294.35"/>
</g>
<!-- Value&#45;4116797014279381844&#45;&gt;None&#45;0 -->
<g id="edge12" class="edge">
<title>Value&#45;4116797014279381844:s&#45;&gt;None&#45;0</title>
<path fill="none" stroke="black" d="M766.5,-332C766.5,-318.35 771.38,-303.97 776.59,-292.49"/>
<polygon fill="black" stroke="black" points="776.05,-296.35 777.46,-291.24 773.17,-294.35 776.05,-296.35"/>
</g>
<!-- Value&#45;1476769281115640523&#45;&gt;i64&#45;6 -->
<g id="edge13" class="edge">
<title>Value&#45;1476769281115640523:s&#45;&gt;i64&#45;6</title>
<path fill="none" stroke="black" d="M382.5,-253C382.5,-242.28 401.25,-225.1 418.53,-211.54"/>
<polygon fill="black" stroke="black" points="414.86,-216.03 418.08,-211.83 412.94,-213.11 414.86,-216.03"/>
</g>
<!-- Value&#45;1476769281115640523&#45;&gt;RankedTensor&#45;5871781006564002453 -->
<g id="edge14" class="edge">
<title>Value&#45;1476769281115640523:s&#45;&gt;RankedTensor&#45;5871781006564002453</title>
<path fill="none" stroke="black" d="M403.5,-253C403.5,-237.58 394.3,-223.37 384.27,-212.45"/>
<polygon fill="black" stroke="black" points="388.4,-212.96 383.23,-211.8 386.55,-215.93 388.4,-212.96"/>
</g>
<!-- Value&#45;12139158412232607314&#45;&gt;i64&#45;4 -->
<g id="edge15" class="edge">
<title>Value&#45;12139158412232607314:s&#45;&gt;i64&#45;4</title>
<path fill="none" stroke="black" d="M456.5,-253C456.5,-242.97 472.86,-225.78 487.97,-212.04"/>
<polygon fill="black" stroke="black" points="485.06,-215.99 488.33,-211.82 483.17,-213.04 485.06,-215.99"/>
</g>
<!-- Value&#45;12139158412232607314&#45;&gt;RankedTensor&#45;5871781006564002453 -->
<g id="edge16" class="edge">
<title>Value&#45;12139158412232607314:s&#45;&gt;RankedTensor&#45;5871781006564002453</title>
<path fill="none" stroke="black" d="M477.5,-253C477.5,-245.06 443.63,-227.88 412.11,-213.62"/>
<polygon fill="black" stroke="black" points="412.91,-212.07 407.64,-211.62 411.48,-215.26 412.91,-212.07"/>
</g>
<!-- Value&#45;9572042964624420268&#45;&gt;i64&#45;3 -->
<g id="edge17" class="edge">
<title>Value&#45;9572042964624420268:s&#45;&gt;i64&#45;3</title>
<path fill="none" stroke="black" d="M537.5,-253C537.5,-237.95 546.05,-223.79 555.39,-212.81"/>
<polygon fill="black" stroke="black" points="553.65,-216.39 556.51,-211.93 551.5,-213.63 553.65,-216.39"/>
</g>
<!-- Value&#45;9572042964624420268&#45;&gt;RankedTensor&#45;5871781006564002453 -->
<g id="edge18" class="edge">
<title>Value&#45;9572042964624420268:s&#45;&gt;RankedTensor&#45;5871781006564002453</title>
<path fill="none" stroke="black" d="M558.5,-253C558.5,-187.34 478.22,-234.99 416,-214 415.12,-213.7 414.24,-213.4 413.36,-213.1"/>
<polygon fill="black" stroke="black" points="414.18,-211.53 408.89,-211.5 413.01,-214.83 414.18,-211.53"/>
</g>
<!-- Value&#45;7659469028595837896&#45;&gt;i64&#45;1 -->
<g id="edge19" class="edge">
<title>Value&#45;7659469028595837896:s&#45;&gt;i64&#45;1</title>
<path fill="none" stroke="black" d="M633.5,-253C633.5,-239.98 635.98,-225.67 638.64,-214.08"/>
<polygon fill="black" stroke="black" points="638.88,-217.63 639.47,-212.36 635.72,-216.11 638.88,-217.63"/>
</g>
<!-- Value&#45;7659469028595837896&#45;&gt;RankedTensor&#45;5871781006564002453 -->
<g id="edge20" class="edge">
<title>Value&#45;7659469028595837896:s&#45;&gt;RankedTensor&#45;5871781006564002453</title>
<path fill="none" stroke="black" d="M654.5,-253C654.5,-199.3 467.72,-228.47 416,-214 414.8,-213.67 413.6,-213.31 412.39,-212.95"/>
<polygon fill="black" stroke="black" points="413.03,-211.32 407.74,-211.46 411.97,-214.65 413.03,-211.32"/>
</g>
<!-- IntegerAttr&#45;5871781006564002453&#45;&gt;i64&#45;0 -->
<g id="edge23" class="edge">
<title>IntegerAttr&#45;5871781006564002453:s&#45;&gt;i64&#45;0</title>
<path fill="none" stroke="black" d="M111,-174C111,-160.77 107.54,-146.45 103.85,-134.91"/>
<polygon fill="black" stroke="black" points="106.66,-137.52 103.3,-133.42 103.37,-138.72 106.66,-137.52"/>
</g>
<!-- IntegerAttr&#45;5871781006564002453&#45;&gt;I32&#45;0 -->
<g id="edge24" class="edge">
<title>IntegerAttr&#45;5871781006564002453:s&#45;&gt;I32&#45;0</title>
<path fill="none" stroke="black" d="M146.5,-174C146.5,-126.64 311.94,-152.35 356,-135 358.16,-134.15 360.32,-133.16 362.45,-132.07"/>
<polygon fill="black" stroke="black" points="356.75,-134.52 361.5,-132.18 356.33,-131.05 356.75,-134.52"/>
</g>
<!-- String&#45;3221225478 -->
<g id="node1" class="node">
<title>String&#45;3221225478</title>
<g id="a_node1"><a xlink:title="String&#45;3221225478: String&#45;3221225478">
<path fill="white" stroke="none" d="M25.29,-174C25.29,-174 56.71,-174 56.71,-174 62.04,-174 67.38,-179.33 67.38,-184.67 67.38,-184.67 67.38,-195.33 67.38,-195.33 67.38,-200.67 62.04,-206 56.71,-206 56.71,-206 25.29,-206 25.29,-206 19.96,-206 14.62,-200.67 14.62,-195.33 14.62,-195.33 14.62,-184.67 14.62,-184.67 14.62,-179.33 19.96,-174 25.29,-174"/>
<text text-anchor="start" x="19.62" y="-184.2" font-family="Helvetica,sans-Serif" font-size="14.00">&quot;value&quot;</text>
<path fill="none" stroke="black" d="M25.29,-174C25.29,-174 56.71,-174 56.71,-174 62.04,-174 67.38,-179.33 67.38,-184.67 67.38,-184.67 67.38,-195.33 67.38,-195.33 67.38,-200.67 62.04,-206 56.71,-206 56.71,-206 25.29,-206 25.29,-206 19.96,-206 14.62,-200.67 14.62,-195.33 14.62,-195.33 14.62,-184.67 14.62,-184.67 14.62,-179.33 19.96,-174 25.29,-174"/>
</a>
</g>
</g>
<!-- IntVec&#45;0 -->
<g id="node2" class="node">
<title>IntVec&#45;0</title>
<g id="a_node2"><a xlink:title="IntVec&#45;0: IntVec&#45;0">
<path fill="white" stroke="none" d="M311.67,-95C311.67,-95 338.33,-95 338.33,-95 343.67,-95 349,-100.33 349,-105.67 349,-105.67 349,-116.33 349,-116.33 349,-121.67 343.67,-127 338.33,-127 338.33,-127 311.67,-127 311.67,-127 306.33,-127 301,-121.67 301,-116.33 301,-116.33 301,-105.67 301,-105.67 301,-100.33 306.33,-95 311.67,-95"/>
<text text-anchor="start" x="305.88" y="-105.2" font-family="Helvetica,sans-Serif" font-size="14.00">IntVec</text>
<path fill="none" stroke="black" d="M311.67,-95C311.67,-95 338.33,-95 338.33,-95 343.67,-95 349,-100.33 349,-105.67 349,-105.67 349,-116.33 349,-116.33 349,-121.67 343.67,-127 338.33,-127 338.33,-127 311.67,-127 311.67,-127 306.33,-127 301,-121.67 301,-116.33 301,-116.33 301,-105.67 301,-105.67 301,-100.33 306.33,-95 311.67,-95"/>
</a>
</g>
</g>
<!-- i64&#45;100 -->
<g id="node3" class="node">
<title>i64&#45;100</title>
<g id="a_node3"><a xlink:title="i64&#45;100: i64&#45;100">
<path fill="white" stroke="none" d="M319.42,-16C319.42,-16 330.58,-16 330.58,-16 335.92,-16 341.25,-21.33 341.25,-26.67 341.25,-26.67 341.25,-37.33 341.25,-37.33 341.25,-42.67 335.92,-48 330.58,-48 330.58,-48 319.42,-48 319.42,-48 314.08,-48 308.75,-42.67 308.75,-37.33 308.75,-37.33 308.75,-26.67 308.75,-26.67 308.75,-21.33 314.08,-16 319.42,-16"/>
<text text-anchor="start" x="313.75" y="-26.2" font-family="Helvetica,sans-Serif" font-size="14.00">100</text>
<path fill="none" stroke="black" d="M319.42,-16C319.42,-16 330.58,-16 330.58,-16 335.92,-16 341.25,-21.33 341.25,-26.67 341.25,-26.67 341.25,-37.33 341.25,-37.33 341.25,-42.67 335.92,-48 330.58,-48 330.58,-48 319.42,-48 319.42,-48 314.08,-48 308.75,-42.67 308.75,-37.33 308.75,-37.33 308.75,-26.67 308.75,-26.67 308.75,-21.33 314.08,-16 319.42,-16"/>
</a>
</g>
</g>
<!-- i64&#45;8 -->
<g id="node4" class="node">
<title>i64&#45;8</title>
<g id="a_node4"><a xlink:title="i64&#45;8: i64&#45;8">
<path fill="white" stroke="none" d="M717.67,-253C717.67,-253 728.33,-253 728.33,-253 733.67,-253 739,-258.33 739,-263.67 739,-263.67 739,-274.33 739,-274.33 739,-279.67 733.67,-285 728.33,-285 728.33,-285 717.67,-285 717.67,-285 712.33,-285 707,-279.67 707,-274.33 707,-274.33 707,-263.67 707,-263.67 707,-258.33 712.33,-253 717.67,-253"/>
<text text-anchor="start" x="719.25" y="-263.2" font-family="Helvetica,sans-Serif" font-size="14.00">8</text>
<path fill="none" stroke="black" d="M717.67,-253C717.67,-253 728.33,-253 728.33,-253 733.67,-253 739,-258.33 739,-263.67 739,-263.67 739,-274.33 739,-274.33 739,-279.67 733.67,-285 728.33,-285 728.33,-285 717.67,-285 717.67,-285 712.33,-285 707,-279.67 707,-274.33 707,-274.33 707,-263.67 707,-263.67 707,-258.33 712.33,-253 717.67,-253"/>
</a>
</g>
</g>
<!-- i64&#45;0 -->
<g id="node5" class="node">
<title>i64&#45;0</title>
<g id="a_node5"><a xlink:title="i64&#45;0: i64&#45;0">
<path fill="white" stroke="none" d="M89.67,-95C89.67,-95 100.33,-95 100.33,-95 105.67,-95 111,-100.33 111,-105.67 111,-105.67 111,-116.33 111,-116.33 111,-121.67 105.67,-127 100.33,-127 100.33,-127 89.67,-127 89.67,-127 84.33,-127 79,-121.67 79,-116.33 79,-116.33 79,-105.67 79,-105.67 79,-100.33 84.33,-95 89.67,-95"/>
<text text-anchor="start" x="91.25" y="-105.2" font-family="Helvetica,sans-Serif" font-size="14.00">0</text>
<path fill="none" stroke="black" d="M89.67,-95C89.67,-95 100.33,-95 100.33,-95 105.67,-95 111,-100.33 111,-105.67 111,-105.67 111,-116.33 111,-116.33 111,-121.67 105.67,-127 100.33,-127 100.33,-127 89.67,-127 89.67,-127 84.33,-127 79,-121.67 79,-116.33 79,-116.33 79,-105.67 79,-105.67 79,-100.33 84.33,-95 89.67,-95"/>
</a>
</g>
</g>
<!-- i64&#45;3 -->
<g id="node6" class="node">
<title>i64&#45;3</title>
<g id="a_node6"><a xlink:title="i64&#45;3: i64&#45;3">
<path fill="white" stroke="none" d="M573.67,-174C573.67,-174 584.33,-174 584.33,-174 589.67,-174 595,-179.33 595,-184.67 595,-184.67 595,-195.33 595,-195.33 595,-200.67 589.67,-206 584.33,-206 584.33,-206 573.67,-206 573.67,-206 568.33,-206 563,-200.67 563,-195.33 563,-195.33 563,-184.67 563,-184.67 563,-179.33 568.33,-174 573.67,-174"/>
<text text-anchor="start" x="575.25" y="-184.2" font-family="Helvetica,sans-Serif" font-size="14.00">3</text>
<path fill="none" stroke="black" d="M573.67,-174C573.67,-174 584.33,-174 584.33,-174 589.67,-174 595,-179.33 595,-184.67 595,-184.67 595,-195.33 595,-195.33 595,-200.67 589.67,-206 584.33,-206 584.33,-206 573.67,-206 573.67,-206 568.33,-206 563,-200.67 563,-195.33 563,-195.33 563,-184.67 563,-184.67 563,-179.33 568.33,-174 573.67,-174"/>
</a>
</g>
</g>
<!-- i64&#45;2 -->
<g id="node7" class="node">
<title>i64&#45;2</title>
<g id="a_node7"><a xlink:title="i64&#45;2: i64&#45;2">
<path fill="white" stroke="none" d="M199.67,-174C199.67,-174 210.33,-174 210.33,-174 215.67,-174 221,-179.33 221,-184.67 221,-184.67 221,-195.33 221,-195.33 221,-200.67 215.67,-206 210.33,-206 210.33,-206 199.67,-206 199.67,-206 194.33,-206 189,-200.67 189,-195.33 189,-195.33 189,-184.67 189,-184.67 189,-179.33 194.33,-174 199.67,-174"/>
<text text-anchor="start" x="201.25" y="-184.2" font-family="Helvetica,sans-Serif" font-size="14.00">2</text>
<path fill="none" stroke="black" d="M199.67,-174C199.67,-174 210.33,-174 210.33,-174 215.67,-174 221,-179.33 221,-184.67 221,-184.67 221,-195.33 221,-195.33 221,-200.67 215.67,-206 210.33,-206 210.33,-206 199.67,-206 199.67,-206 194.33,-206 189,-200.67 189,-195.33 189,-195.33 189,-184.67 189,-184.67 189,-179.33 194.33,-174 199.67,-174"/>
</a>
</g>
</g>
<!-- i64&#45;5 -->
<g id="node8" class="node">
<title>i64&#45;5</title>
<g id="a_node8"><a xlink:title="i64&#45;5: i64&#45;5">
<path fill="white" stroke="none" d="M265.67,-174C265.67,-174 276.33,-174 276.33,-174 281.67,-174 287,-179.33 287,-184.67 287,-184.67 287,-195.33 287,-195.33 287,-200.67 281.67,-206 276.33,-206 276.33,-206 265.67,-206 265.67,-206 260.33,-206 255,-200.67 255,-195.33 255,-195.33 255,-184.67 255,-184.67 255,-179.33 260.33,-174 265.67,-174"/>
<text text-anchor="start" x="267.25" y="-184.2" font-family="Helvetica,sans-Serif" font-size="14.00">5</text>
<path fill="none" stroke="black" d="M265.67,-174C265.67,-174 276.33,-174 276.33,-174 281.67,-174 287,-179.33 287,-184.67 287,-184.67 287,-195.33 287,-195.33 287,-200.67 281.67,-206 276.33,-206 276.33,-206 265.67,-206 265.67,-206 260.33,-206 255,-200.67 255,-195.33 255,-195.33 255,-184.67 255,-184.67 255,-179.33 260.33,-174 265.67,-174"/>
</a>
</g>
</g>
<!-- i64&#45;4 -->
<g id="node9" class="node">
<title>i64&#45;4</title>
<g id="a_node9"><a xlink:title="i64&#45;4: i64&#45;4">
<path fill="white" stroke="none" d="M507.67,-174C507.67,-174 518.33,-174 518.33,-174 523.67,-174 529,-179.33 529,-184.67 529,-184.67 529,-195.33 529,-195.33 529,-200.67 523.67,-206 518.33,-206 518.33,-206 507.67,-206 507.67,-206 502.33,-206 497,-200.67 497,-195.33 497,-195.33 497,-184.67 497,-184.67 497,-179.33 502.33,-174 507.67,-174"/>
<text text-anchor="start" x="509.25" y="-184.2" font-family="Helvetica,sans-Serif" font-size="14.00">4</text>
<path fill="none" stroke="black" d="M507.67,-174C507.67,-174 518.33,-174 518.33,-174 523.67,-174 529,-179.33 529,-184.67 529,-184.67 529,-195.33 529,-195.33 529,-200.67 523.67,-206 518.33,-206 518.33,-206 507.67,-206 507.67,-206 502.33,-206 497,-200.67 497,-195.33 497,-195.33 497,-184.67 497,-184.67 497,-179.33 502.33,-174 507.67,-174"/>
</a>
</g>
</g>
<!-- i64&#45;6 -->
<g id="node10" class="node">
<title>i64&#45;6</title>
<g id="a_node10"><a xlink:title="i64&#45;6: i64&#45;6">
<path fill="white" stroke="none" d="M441.67,-174C441.67,-174 452.33,-174 452.33,-174 457.67,-174 463,-179.33 463,-184.67 463,-184.67 463,-195.33 463,-195.33 463,-200.67 457.67,-206 452.33,-206 452.33,-206 441.67,-206 441.67,-206 436.33,-206 431,-200.67 431,-195.33 431,-195.33 431,-184.67 431,-184.67 431,-179.33 436.33,-174 441.67,-174"/>
<text text-anchor="start" x="443.25" y="-184.2" font-family="Helvetica,sans-Serif" font-size="14.00">6</text>
<path fill="none" stroke="black" d="M441.67,-174C441.67,-174 452.33,-174 452.33,-174 457.67,-174 463,-179.33 463,-184.67 463,-184.67 463,-195.33 463,-195.33 463,-200.67 457.67,-206 452.33,-206 452.33,-206 441.67,-206 441.67,-206 436.33,-206 431,-200.67 431,-195.33 431,-195.33 431,-184.67 431,-184.67 431,-179.33 436.33,-174 441.67,-174"/>
</a>
</g>
</g>
<!-- i64&#45;1 -->
<g id="node11" class="node">
<title>i64&#45;1</title>
<g id="a_node11"><a xlink:title="i64&#45;1: i64&#45;1">
<path fill="white" stroke="none" d="M639.67,-174C639.67,-174 650.33,-174 650.33,-174 655.67,-174 661,-179.33 661,-184.67 661,-184.67 661,-195.33 661,-195.33 661,-200.67 655.67,-206 650.33,-206 650.33,-206 639.67,-206 639.67,-206 634.33,-206 629,-200.67 629,-195.33 629,-195.33 629,-184.67 629,-184.67 629,-179.33 634.33,-174 639.67,-174"/>
<text text-anchor="start" x="641.25" y="-184.2" font-family="Helvetica,sans-Serif" font-size="14.00">1</text>
<path fill="none" stroke="black" d="M639.67,-174C639.67,-174 650.33,-174 650.33,-174 655.67,-174 661,-179.33 661,-184.67 661,-184.67 661,-195.33 661,-195.33 661,-200.67 655.67,-206 650.33,-206 650.33,-206 639.67,-206 639.67,-206 634.33,-206 629,-200.67 629,-195.33 629,-195.33 629,-184.67 629,-184.67 629,-179.33 634.33,-174 639.67,-174"/>
</a>
</g>
</g>
<!-- arith_constant&#45;11808970072622434574 -->
<g id="node12" class="node">
<title>arith_constant&#45;11808970072622434574</title>
<g id="a_node12"><a xlink:title="Op&#45;16: arith_constant&#45;11808970072622434574">
<path fill="white" stroke="none" d="M353.67,-332C353.67,-332 426.33,-332 426.33,-332 431.67,-332 437,-337.33 437,-342.67 437,-342.67 437,-353.33 437,-353.33 437,-358.67 431.67,-364 426.33,-364 426.33,-364 353.67,-364 353.67,-364 348.33,-364 343,-358.67 343,-353.33 343,-353.33 343,-342.67 343,-342.67 343,-337.33 348.33,-332 353.67,-332"/>
<text text-anchor="start" x="347.62" y="-342.2" font-family="Helvetica,sans-Serif" font-size="14.00">arith_constant</text>
<path fill="none" stroke="black" d="M353.67,-332C353.67,-332 426.33,-332 426.33,-332 431.67,-332 437,-337.33 437,-342.67 437,-342.67 437,-353.33 437,-353.33 437,-358.67 431.67,-364 426.33,-364 426.33,-364 353.67,-364 353.67,-364 348.33,-364 343,-358.67 343,-353.33 343,-353.33 343,-342.67 343,-342.67 343,-337.33 348.33,-332 353.67,-332"/>
</a>
</g>
</g>
<!-- NamedAttr&#45;4319375231502193485 -->
<g id="node13" class="node">
<title>NamedAttr&#45;4319375231502193485</title>
<g id="a_node13"><a xlink:title="AttrPair&#45;18: NamedAttr&#45;4319375231502193485">
<path fill="white" stroke="none" d="M84.17,-253C84.17,-253 137.83,-253 137.83,-253 143.17,-253 148.5,-258.33 148.5,-263.67 148.5,-263.67 148.5,-274.33 148.5,-274.33 148.5,-279.67 143.17,-285 137.83,-285 137.83,-285 84.17,-285 84.17,-285 78.83,-285 73.5,-279.67 73.5,-274.33 73.5,-274.33 73.5,-263.67 73.5,-263.67 73.5,-258.33 78.83,-253 84.17,-253"/>
<text text-anchor="start" x="78.38" y="-263.2" font-family="Helvetica,sans-Serif" font-size="14.00">NamedAttr</text>
<path fill="none" stroke="black" d="M84.17,-253C84.17,-253 137.83,-253 137.83,-253 143.17,-253 148.5,-258.33 148.5,-263.67 148.5,-263.67 148.5,-274.33 148.5,-274.33 148.5,-279.67 143.17,-285 137.83,-285 137.83,-285 84.17,-285 84.17,-285 78.83,-285 73.5,-279.67 73.5,-274.33 73.5,-274.33 73.5,-263.67 73.5,-263.67 73.5,-258.33 78.83,-253 84.17,-253"/>
</a>
</g>
</g>
<!-- I32&#45;0 -->
<g id="node14" class="node">
<title>I32&#45;0</title>
<g id="a_node14"><a xlink:title="Type&#45;1: I32&#45;0">
<path fill="white" stroke="none" d="M385.67,-95C385.67,-95 396.33,-95 396.33,-95 401.67,-95 407,-100.33 407,-105.67 407,-105.67 407,-116.33 407,-116.33 407,-121.67 401.67,-127 396.33,-127 396.33,-127 385.67,-127 385.67,-127 380.33,-127 375,-121.67 375,-116.33 375,-116.33 375,-105.67 375,-105.67 375,-100.33 380.33,-95 385.67,-95"/>
<text text-anchor="start" x="381.62" y="-105.2" font-family="Helvetica,sans-Serif" font-size="14.00">I32</text>
<path fill="none" stroke="black" d="M385.67,-95C385.67,-95 396.33,-95 396.33,-95 401.67,-95 407,-100.33 407,-105.67 407,-105.67 407,-116.33 407,-116.33 407,-121.67 401.67,-127 396.33,-127 396.33,-127 385.67,-127 385.67,-127 380.33,-127 375,-121.67 375,-116.33 375,-116.33 375,-105.67 375,-105.67 375,-100.33 380.33,-95 385.67,-95"/>
</a>
</g>
</g>
<!-- Value&#45;13656135949156587278 -->
<g id="node15" class="node">
<title>Value&#45;13656135949156587278</title>
<g id="a_node15"><a xlink:title="Op&#45;6: Value&#45;13656135949156587278">
<path fill="white" stroke="none" d="M248.67,-253C248.67,-253 271.33,-253 271.33,-253 276.67,-253 282,-258.33 282,-263.67 282,-263.67 282,-274.33 282,-274.33 282,-279.67 276.67,-285 271.33,-285 271.33,-285 248.67,-285 248.67,-285 243.33,-285 238,-279.67 238,-274.33 238,-274.33 238,-263.67 238,-263.67 238,-258.33 243.33,-253 248.67,-253"/>
<text text-anchor="start" x="242.75" y="-263.2" font-family="Helvetica,sans-Serif" font-size="14.00">Value</text>
<path fill="none" stroke="black" d="M248.67,-253C248.67,-253 271.33,-253 271.33,-253 276.67,-253 282,-258.33 282,-263.67 282,-263.67 282,-274.33 282,-274.33 282,-279.67 276.67,-285 271.33,-285 271.33,-285 248.67,-285 248.67,-285 243.33,-285 238,-279.67 238,-274.33 238,-274.33 238,-263.67 238,-263.67 238,-258.33 243.33,-253 248.67,-253"/>
</a>
</g>
</g>
<!-- RankedTensor&#45;5871781006564002453 -->
<g id="node16" class="node">
<title>RankedTensor&#45;5871781006564002453</title>
<g id="a_node16"><a xlink:title="Type&#45;2: RankedTensor&#45;5871781006564002453">
<path fill="white" stroke="none" d="M321.17,-174C321.17,-174 396.83,-174 396.83,-174 402.17,-174 407.5,-179.33 407.5,-184.67 407.5,-184.67 407.5,-195.33 407.5,-195.33 407.5,-200.67 402.17,-206 396.83,-206 396.83,-206 321.17,-206 321.17,-206 315.83,-206 310.5,-200.67 310.5,-195.33 310.5,-195.33 310.5,-184.67 310.5,-184.67 310.5,-179.33 315.83,-174 321.17,-174"/>
<text text-anchor="start" x="315.5" y="-184.2" font-family="Helvetica,sans-Serif" font-size="14.00">RankedTensor</text>
<path fill="none" stroke="black" d="M321.17,-174C321.17,-174 396.83,-174 396.83,-174 402.17,-174 407.5,-179.33 407.5,-184.67 407.5,-184.67 407.5,-195.33 407.5,-195.33 407.5,-200.67 402.17,-206 396.83,-206 396.83,-206 321.17,-206 321.17,-206 315.83,-206 310.5,-200.67 310.5,-195.33 310.5,-195.33 310.5,-184.67 310.5,-184.67 310.5,-179.33 315.83,-174 321.17,-174"/>
</a>
</g>
</g>
<!-- Value&#45;11743562013128004906 -->
<g id="node17" class="node">
<title>Value&#45;11743562013128004906</title>
<g id="a_node17"><a xlink:title="Op&#45;0: Value&#45;11743562013128004906">
<path fill="white" stroke="none" d="M180.67,-253C180.67,-253 203.33,-253 203.33,-253 208.67,-253 214,-258.33 214,-263.67 214,-263.67 214,-274.33 214,-274.33 214,-279.67 208.67,-285 203.33,-285 203.33,-285 180.67,-285 180.67,-285 175.33,-285 170,-279.67 170,-274.33 170,-274.33 170,-263.67 170,-263.67 170,-258.33 175.33,-253 180.67,-253"/>
<text text-anchor="start" x="174.75" y="-263.2" font-family="Helvetica,sans-Serif" font-size="14.00">Value</text>
<path fill="none" stroke="black" d="M180.67,-253C180.67,-253 203.33,-253 203.33,-253 208.67,-253 214,-258.33 214,-263.67 214,-263.67 214,-274.33 214,-274.33 214,-279.67 208.67,-285 203.33,-285 203.33,-285 180.67,-285 180.67,-285 175.33,-285 170,-279.67 170,-274.33 170,-274.33 170,-263.67 170,-263.67 170,-258.33 175.33,-253 180.67,-253"/>
</a>
</g>
</g>
<!-- Value&#45;8055065427700440304 -->
<g id="node18" class="node">
<title>Value&#45;8055065427700440304</title>
<g id="a_node18"><a xlink:title="Op&#45;12: Value&#45;8055065427700440304">
<path fill="white" stroke="none" d="M314.67,-253C314.67,-253 337.33,-253 337.33,-253 342.67,-253 348,-258.33 348,-263.67 348,-263.67 348,-274.33 348,-274.33 348,-279.67 342.67,-285 337.33,-285 337.33,-285 314.67,-285 314.67,-285 309.33,-285 304,-279.67 304,-274.33 304,-274.33 304,-263.67 304,-263.67 304,-258.33 309.33,-253 314.67,-253"/>
<text text-anchor="start" x="308.75" y="-263.2" font-family="Helvetica,sans-Serif" font-size="14.00">Value</text>
<path fill="none" stroke="black" d="M314.67,-253C314.67,-253 337.33,-253 337.33,-253 342.67,-253 348,-258.33 348,-263.67 348,-263.67 348,-274.33 348,-274.33 348,-279.67 342.67,-285 337.33,-285 337.33,-285 314.67,-285 314.67,-285 309.33,-285 304,-279.67 304,-274.33 304,-274.33 304,-263.67 304,-263.67 304,-258.33 309.33,-253 314.67,-253"/>
</a>
</g>
</g>
<!-- Value&#45;4116797014279381844 -->
<g id="node19" class="node">
<title>Value&#45;4116797014279381844</title>
<g id="a_node19"><a xlink:title="Op&#45;20: Value&#45;4116797014279381844">
<path fill="white" stroke="none" d="M744.67,-332C744.67,-332 767.33,-332 767.33,-332 772.67,-332 778,-337.33 778,-342.67 778,-342.67 778,-353.33 778,-353.33 778,-358.67 772.67,-364 767.33,-364 767.33,-364 744.67,-364 744.67,-364 739.33,-364 734,-358.67 734,-353.33 734,-353.33 734,-342.67 734,-342.67 734,-337.33 739.33,-332 744.67,-332"/>
<text text-anchor="start" x="738.75" y="-342.2" font-family="Helvetica,sans-Serif" font-size="14.00">Value</text>
<path fill="none" stroke="black" d="M744.67,-332C744.67,-332 767.33,-332 767.33,-332 772.67,-332 778,-337.33 778,-342.67 778,-342.67 778,-353.33 778,-353.33 778,-358.67 772.67,-364 767.33,-364 767.33,-364 744.67,-364 744.67,-364 739.33,-364 734,-358.67 734,-353.33 734,-353.33 734,-342.67 734,-342.67 734,-337.33 739.33,-332 744.67,-332"/>
</a>
</g>
</g>
<!-- None&#45;0 -->
<g id="node20" class="node">
<title>None&#45;0</title>
<g id="a_node20"><a xlink:title="Type&#45;21: None&#45;0">
<path fill="white" stroke="none" d="M778.54,-253C778.54,-253 799.46,-253 799.46,-253 804.79,-253 810.12,-258.33 810.12,-263.67 810.12,-263.67 810.12,-274.33 810.12,-274.33 810.12,-279.67 804.79,-285 799.46,-285 799.46,-285 778.54,-285 778.54,-285 773.21,-285 767.88,-279.67 767.88,-274.33 767.88,-274.33 767.88,-263.67 767.88,-263.67 767.88,-258.33 773.21,-253 778.54,-253"/>
<text text-anchor="start" x="772.88" y="-263.2" font-family="Helvetica,sans-Serif" font-size="14.00">None</text>
<path fill="none" stroke="black" d="M778.54,-253C778.54,-253 799.46,-253 799.46,-253 804.79,-253 810.12,-258.33 810.12,-263.67 810.12,-263.67 810.12,-274.33 810.12,-274.33 810.12,-279.67 804.79,-285 799.46,-285 799.46,-285 778.54,-285 778.54,-285 773.21,-285 767.88,-279.67 767.88,-274.33 767.88,-274.33 767.88,-263.67 767.88,-263.67 767.88,-258.33 773.21,-253 778.54,-253"/>
</a>
</g>
</g>
<!-- Value&#45;1476769281115640523 -->
<g id="node21" class="node">
<title>Value&#45;1476769281115640523</title>
<g id="a_node21"><a xlink:title="Op&#45;14: Value&#45;1476769281115640523">
<path fill="white" stroke="none" d="M381.67,-253C381.67,-253 404.33,-253 404.33,-253 409.67,-253 415,-258.33 415,-263.67 415,-263.67 415,-274.33 415,-274.33 415,-279.67 409.67,-285 404.33,-285 404.33,-285 381.67,-285 381.67,-285 376.33,-285 371,-279.67 371,-274.33 371,-274.33 371,-263.67 371,-263.67 371,-258.33 376.33,-253 381.67,-253"/>
<text text-anchor="start" x="375.75" y="-263.2" font-family="Helvetica,sans-Serif" font-size="14.00">Value</text>
<path fill="none" stroke="black" d="M381.67,-253C381.67,-253 404.33,-253 404.33,-253 409.67,-253 415,-258.33 415,-263.67 415,-263.67 415,-274.33 415,-274.33 415,-279.67 409.67,-285 404.33,-285 404.33,-285 381.67,-285 381.67,-285 376.33,-285 371,-279.67 371,-274.33 371,-274.33 371,-263.67 371,-263.67 371,-258.33 376.33,-253 381.67,-253"/>
</a>
</g>
</g>
<!-- Value&#45;12139158412232607314 -->
<g id="node22" class="node">
<title>Value&#45;12139158412232607314</title>
<g id="a_node22"><a xlink:title="Op&#45;10: Value&#45;12139158412232607314">
<path fill="white" stroke="none" d="M455.67,-253C455.67,-253 478.33,-253 478.33,-253 483.67,-253 489,-258.33 489,-263.67 489,-263.67 489,-274.33 489,-274.33 489,-279.67 483.67,-285 478.33,-285 478.33,-285 455.67,-285 455.67,-285 450.33,-285 445,-279.67 445,-274.33 445,-274.33 445,-263.67 445,-263.67 445,-258.33 450.33,-253 455.67,-253"/>
<text text-anchor="start" x="449.75" y="-263.2" font-family="Helvetica,sans-Serif" font-size="14.00">Value</text>
<path fill="none" stroke="black" d="M455.67,-253C455.67,-253 478.33,-253 478.33,-253 483.67,-253 489,-258.33 489,-263.67 489,-263.67 489,-274.33 489,-274.33 489,-279.67 483.67,-285 478.33,-285 478.33,-285 455.67,-285 455.67,-285 450.33,-285 445,-279.67 445,-274.33 445,-274.33 445,-263.67 445,-263.67 445,-258.33 450.33,-253 455.67,-253"/>
</a>
</g>
</g>
<!-- Value&#45;9572042964624420268 -->
<g id="node23" class="node">
<title>Value&#45;9572042964624420268</title>
<g id="a_node23"><a xlink:title="Op&#45;8: Value&#45;9572042964624420268">
<path fill="white" stroke="none" d="M536.67,-253C536.67,-253 559.33,-253 559.33,-253 564.67,-253 570,-258.33 570,-263.67 570,-263.67 570,-274.33 570,-274.33 570,-279.67 564.67,-285 559.33,-285 559.33,-285 536.67,-285 536.67,-285 531.33,-285 526,-279.67 526,-274.33 526,-274.33 526,-263.67 526,-263.67 526,-258.33 531.33,-253 536.67,-253"/>
<text text-anchor="start" x="530.75" y="-263.2" font-family="Helvetica,sans-Serif" font-size="14.00">Value</text>
<path fill="none" stroke="black" d="M536.67,-253C536.67,-253 559.33,-253 559.33,-253 564.67,-253 570,-258.33 570,-263.67 570,-263.67 570,-274.33 570,-274.33 570,-279.67 564.67,-285 559.33,-285 559.33,-285 536.67,-285 536.67,-285 531.33,-285 526,-279.67 526,-274.33 526,-274.33 526,-263.67 526,-263.67 526,-258.33 531.33,-253 536.67,-253"/>
</a>
</g>
</g>
<!-- Value&#45;7659469028595837896 -->
<g id="node24" class="node">
<title>Value&#45;7659469028595837896</title>
<g id="a_node24"><a xlink:title="Op&#45;4: Value&#45;7659469028595837896">
<path fill="white" stroke="none" d="M632.67,-253C632.67,-253 655.33,-253 655.33,-253 660.67,-253 666,-258.33 666,-263.67 666,-263.67 666,-274.33 666,-274.33 666,-279.67 660.67,-285 655.33,-285 655.33,-285 632.67,-285 632.67,-285 627.33,-285 622,-279.67 622,-274.33 622,-274.33 622,-263.67 622,-263.67 622,-258.33 627.33,-253 632.67,-253"/>
<text text-anchor="start" x="626.75" y="-263.2" font-family="Helvetica,sans-Serif" font-size="14.00">Value</text>
<path fill="none" stroke="black" d="M632.67,-253C632.67,-253 655.33,-253 655.33,-253 660.67,-253 666,-258.33 666,-263.67 666,-263.67 666,-274.33 666,-274.33 666,-279.67 660.67,-285 655.33,-285 655.33,-285 632.67,-285 632.67,-285 627.33,-285 622,-279.67 622,-274.33 622,-274.33 622,-263.67 622,-263.67 622,-258.33 627.33,-253 632.67,-253"/>
</a>
</g>
</g>
<!-- IntegerAttr&#45;5871781006564002453 -->
<g id="node25" class="node">
<title>IntegerAttr&#45;5871781006564002453</title>
<g id="a_node25"><a xlink:title="Attr&#45;17: IntegerAttr&#45;5871781006564002453">
<path fill="white" stroke="none" d="M103.17,-174C103.17,-174 154.83,-174 154.83,-174 160.17,-174 165.5,-179.33 165.5,-184.67 165.5,-184.67 165.5,-195.33 165.5,-195.33 165.5,-200.67 160.17,-206 154.83,-206 154.83,-206 103.17,-206 103.17,-206 97.83,-206 92.5,-200.67 92.5,-195.33 92.5,-195.33 92.5,-184.67 92.5,-184.67 92.5,-179.33 97.83,-174 103.17,-174"/>
<text text-anchor="start" x="97.5" y="-184.2" font-family="Helvetica,sans-Serif" font-size="14.00">IntegerAttr</text>
<path fill="none" stroke="black" d="M103.17,-174C103.17,-174 154.83,-174 154.83,-174 160.17,-174 165.5,-179.33 165.5,-184.67 165.5,-184.67 165.5,-195.33 165.5,-195.33 165.5,-200.67 160.17,-206 154.83,-206 154.83,-206 103.17,-206 103.17,-206 97.83,-206 92.5,-200.67 92.5,-195.33 92.5,-195.33 92.5,-184.67 92.5,-184.67 92.5,-179.33 97.83,-174 103.17,-174"/>
</a>
</g>
</g>
</g>
</svg>
