<?xml version="1.0" encoding="UTF-8" standalone="no"?>
<!DOCTYPE svg PUBLIC "-//W3C//DTD SVG 1.1//EN"
 "http://www.w3.org/Graphics/SVG/1.1/DTD/svg11.dtd">
<!-- Generated by graphviz version 12.0.0 (20240704.0754)
 -->
<!-- Pages: 1 -->
<svg width="551pt" height="309pt"
 viewBox="0.00 0.00 551.00 309.00" xmlns="http://www.w3.org/2000/svg" xmlns:xlink="http://www.w3.org/1999/xlink">
<g id="graph0" class="graph" transform="scale(1 1) rotate(0) translate(4 305)">
<polygon fill="white" stroke="none" points="-4,4 -4,-305 547,-305 547,4 -4,4"/>
<g id="clust1" class="cluster">
<title>outer_cluster_Type&#45;1</title>
</g>
<g id="clust2" class="cluster">
<title>cluster_Type&#45;1</title>
<path fill="#ffffb3" stroke="black" stroke-dasharray="5,2" d="M295,-90C295,-90 331,-90 331,-90 337,-90 343,-96 343,-102 343,-102 343,-120 343,-120 343,-126 337,-132 331,-132 331,-132 295,-132 295,-132 289,-132 283,-126 283,-120 283,-120 283,-102 283,-102 283,-96 289,-90 295,-90"/>
</g>
<g id="clust4" class="cluster">
<title>outer_cluster_Type&#45;8</title>
</g>
<g id="clust5" class="cluster">
<title>cluster_Type&#45;8</title>
<path fill="#ffffb3" stroke="black" stroke-dasharray="5,2" d="M418,-169C418,-169 454,-169 454,-169 460,-169 466,-175 466,-181 466,-181 466,-199 466,-199 466,-205 460,-211 454,-211 454,-211 418,-211 418,-211 412,-211 406,-205 406,-199 406,-199 406,-181 406,-181 406,-175 412,-169 418,-169"/>
</g>
<g id="clust7" class="cluster">
<title>outer_cluster_Op&#45;7</title>
</g>
<g id="clust8" class="cluster">
<title>cluster_Op&#45;7</title>
<path fill="#bebada" stroke="black" stroke-dasharray="5,2" d="M446,-248C446,-248 482,-248 482,-248 488,-248 494,-254 494,-260 494,-260 494,-278 494,-278 494,-284 488,-290 482,-290 482,-290 446,-290 446,-290 440,-290 434,-284 434,-278 434,-278 434,-260 434,-260 434,-254 440,-248 446,-248"/>
</g>
<g id="clust10" class="cluster">
<title>outer_cluster_Op&#45;3</title>
</g>
<g id="clust11" class="cluster">
<title>cluster_Op&#45;3</title>
<path fill="#bebada" stroke="black" stroke-dasharray="5,2" d="M211,-248C211,-248 263,-248 263,-248 269,-248 275,-254 275,-260 275,-260 275,-278 275,-278 275,-284 269,-290 263,-290 263,-290 211,-290 211,-290 205,-290 199,-284 199,-278 199,-278 199,-260 199,-260 199,-254 205,-248 211,-248"/>
</g>
<g id="clust13" class="cluster">
<title>outer_cluster_Op&#45;0</title>
</g>
<g id="clust14" class="cluster">
<title>cluster_Op&#45;0</title>
<path fill="#bebada" stroke="black" stroke-dasharray="5,2" d="M239,-169C239,-169 275,-169 275,-169 281,-169 287,-175 287,-181 287,-181 287,-199 287,-199 287,-205 281,-211 275,-211 275,-211 239,-211 239,-211 233,-211 227,-205 227,-199 227,-199 227,-181 227,-181 227,-175 233,-169 239,-169"/>
</g>
<g id="clust16" class="cluster">
<title>outer_cluster_Op&#45;10</title>
</g>
<g id="clust17" class="cluster">
<title>cluster_Op&#45;10</title>
<path fill="#bebada" stroke="black" stroke-dasharray="5,2" d="M352,-169C352,-169 388,-169 388,-169 394,-169 400,-175 400,-181 400,-181 400,-199 400,-199 400,-205 394,-211 388,-211 388,-211 352,-211 352,-211 346,-211 340,-205 340,-199 340,-199 340,-181 340,-181 340,-175 346,-169 352,-169"/>
</g>
<g id="clust19" class="cluster">
<title>outer_cluster_AttrPair&#45;5</title>
</g>
<g id="clust20" class="cluster">
<title>cluster_AttrPair&#45;5</title>
<path fill="#fb8072" stroke="black" stroke-dasharray="5,2" d="M139,-169C139,-169 197,-169 197,-169 203,-169 209,-175 209,-181 209,-181 209,-199 209,-199 209,-205 203,-211 197,-211 197,-211 139,-211 139,-211 133,-211 127,-205 127,-199 127,-199 127,-181 127,-181 127,-175 133,-169 139,-169"/>
</g>
<g id="clust22" class="cluster">
<title>outer_cluster_Attr&#45;4</title>
</g>
<g id="clust23" class="cluster">
<title>cluster_Attr&#45;4</title>
<path fill="#80b1d3" stroke="black" stroke-dasharray="5,2" d="M151,-90C151,-90 199,-90 199,-90 205,-90 211,-96 211,-102 211,-102 211,-120 211,-120 211,-126 205,-132 199,-132 199,-132 151,-132 151,-132 145,-132 139,-126 139,-120 139,-120 139,-102 139,-102 139,-96 145,-90 151,-90"/>
</g>
<g id="clust25" class="cluster">
<title>outer_cluster_i64&#45;0</title>
</g>
<g id="clust26" class="cluster">
<title>cluster_i64&#45;0</title>
<path fill="#fdb462" stroke="black" stroke-dasharray="5,2" d="M229,-90C229,-90 265,-90 265,-90 271,-90 277,-96 277,-102 277,-102 277,-120 277,-120 277,-126 271,-132 265,-132 265,-132 229,-132 229,-132 223,-132 217,-126 217,-120 217,-120 217,-102 217,-102 217,-96 223,-90 229,-90"/>
</g>
<g id="clust28" class="cluster">
<title>outer_cluster_i64&#45;2</title>
</g>
<g id="clust29" class="cluster">
<title>cluster_i64&#45;2</title>
<path fill="#fdb462" stroke="black" stroke-dasharray="5,2" d="M484,-169C484,-169 520,-169 520,-169 526,-169 532,-175 532,-181 532,-181 532,-199 532,-199 532,-205 526,-211 520,-211 520,-211 484,-211 484,-211 478,-211 472,-205 472,-199 472,-199 472,-181 472,-181 472,-175 478,-169 484,-169"/>
</g>
<g id="clust31" class="cluster">
<title>outer_cluster_i64&#45;1</title>
</g>
<g id="clust32" class="cluster">
<title>cluster_i64&#45;1</title>
<path fill="#fdb462" stroke="black" stroke-dasharray="5,2" d="M73,-169C73,-169 109,-169 109,-169 115,-169 121,-175 121,-181 121,-181 121,-199 121,-199 121,-205 115,-211 109,-211 109,-211 73,-211 73,-211 67,-211 61,-205 61,-199 61,-199 61,-181 61,-181 61,-175 67,-169 73,-169"/>
</g>
<g id="clust34" class="cluster">
<title>outer_cluster_i64&#45;3</title>
</g>
<g id="clust35" class="cluster">
<title>cluster_i64&#45;3</title>
<path fill="#fdb462" stroke="black" stroke-dasharray="5,2" d="M361,-90C361,-90 397,-90 397,-90 403,-90 409,-96 409,-102 409,-102 409,-120 409,-120 409,-126 403,-132 397,-132 397,-132 361,-132 361,-132 355,-132 349,-126 349,-120 349,-120 349,-102 349,-102 349,-96 355,-90 361,-90"/>
</g>
<g id="clust37" class="cluster">
<title>outer_cluster_String&#45;1073741832</title>
</g>
<g id="clust38" class="cluster">
<title>cluster_String&#45;1073741832</title>
<path fill="#b3de69" stroke="black" stroke-dasharray="5,2" d="M23,-11C23,-11 159,-11 159,-11 165,-11 171,-17 171,-23 171,-23 171,-41 171,-41 171,-47 165,-53 159,-53 159,-53 23,-53 23,-53 17,-53 11,-47 11,-41 11,-41 11,-23 11,-23 11,-17 17,-11 23,-11"/>
</g>
<g id="clust40" class="cluster">
<title>outer_cluster_String&#45;1073741831</title>
</g>
<g id="clust41" class="cluster">
<title>cluster_String&#45;1073741831</title>
<path fill="#b3de69" stroke="black" stroke-dasharray="5,2" d="M35,-90C35,-90 121,-90 121,-90 127,-90 133,-96 133,-102 133,-102 133,-120 133,-120 133,-126 127,-132 121,-132 121,-132 35,-132 35,-132 29,-132 23,-126 23,-120 23,-120 23,-102 23,-102 23,-96 29,-90 35,-90"/>
</g>
<g id="clust43" class="cluster">
<title>outer_cluster_String&#45;3758096390</title>
</g>
<g id="clust44" class="cluster">
<title>cluster_String&#45;3758096390</title>
<path fill="#b3de69" stroke="black" stroke-dasharray="5,2" d="M189,-11C189,-11 271,-11 271,-11 277,-11 283,-17 283,-23 283,-23 283,-41 283,-41 283,-47 277,-53 271,-53 271,-53 189,-53 189,-53 183,-53 177,-47 177,-41 177,-41 177,-23 177,-23 177,-17 183,-11 189,-11"/>
</g>
<!-- Value&#45;11993333841121498764&#45;&gt;I1&#45;0 -->
<g id="edge2" class="edge">
<title>Value&#45;11993333841121498764:s&#45;&gt;I1&#45;0</title>
<path fill="none" stroke="black" d="M474.5,-253C474.5,-238.17 466.45,-223.93 457.71,-212.86"/>
<polygon fill="black" stroke="black" points="461.67,-214.09 456.79,-212.02 459.31,-216.68 461.67,-214.09"/>
</g>
<!-- Value&#45;11993333841121498764&#45;&gt;i64&#45;2 -->
<g id="edge1" class="edge">
<title>Value&#45;11993333841121498764:s&#45;&gt;i64&#45;2</title>
<path fill="none" stroke="black" d="M453.5,-253C453.5,-237.22 463.37,-223.05 474.21,-212.26"/>
<polygon fill="black" stroke="black" points="471.74,-216.32 474.68,-211.91 469.63,-213.52 471.74,-216.32"/>
</g>
<!-- arith_addi&#45;2228637120100337632&#45;&gt;I32&#45;0 -->
<g id="edge7" class="edge">
<title>arith_addi&#45;2228637120100337632:s&#45;&gt;I32&#45;0</title>
<path fill="none" stroke="black" d="M268,-253C268,-233.52 281.19,-232.25 288,-214 297.82,-187.68 304.87,-156.1 308.94,-135.12"/>
<polygon fill="black" stroke="black" points="309.46,-138.71 309.57,-133.42 306.18,-137.49 309.46,-138.71"/>
</g>
<!-- arith_addi&#45;2228637120100337632&#45;&gt;i64&#45;1 -->
<g id="edge3" class="edge">
<title>arith_addi&#45;2228637120100337632:s&#45;&gt;i64&#45;1</title>
<path fill="none" stroke="black" d="M220,-253C220,-207.77 165.97,-235.18 126,-214 124.37,-213.14 122.73,-212.22 121.08,-211.27"/>
<polygon fill="black" stroke="black" points="124.18,-216.88 121.34,-212.4 120.77,-217.67 124.18,-216.88"/>
</g>
<!-- arith_addi&#45;2228637120100337632&#45;&gt;Value&#45;5871781006564002453 -->
<g id="edge4" class="edge">
<title>arith_addi&#45;2228637120100337632:s&#45;&gt;Value&#45;5871781006564002453</title>
<path fill="none" stroke="black" d="M245,-253C245,-239.96 247.59,-225.65 250.37,-214.06"/>
<polygon fill="black" stroke="black" points="250.54,-217.6 251.23,-212.35 247.42,-216.03 250.54,-217.6"/>
</g>
<!-- arith_addi&#45;2228637120100337632&#45;&gt;Value&#45;5871781006564002453 -->
<g id="edge5" class="edge">
<title>arith_addi&#45;2228637120100337632:s&#45;&gt;Value&#45;5871781006564002453</title>
<path fill="none" stroke="black" d="M257.5,-253C257.5,-240.22 257.39,-225.96 257.28,-214.35"/>
<polygon fill="black" stroke="black" points="259.09,-217.48 257.24,-212.51 255.59,-217.55 259.09,-217.48"/>
</g>
<!-- arith_addi&#45;2228637120100337632&#45;&gt;NamedAttr&#45;782441146990431284 -->
<g id="edge6" class="edge">
<title>arith_addi&#45;2228637120100337632:s&#45;&gt;NamedAttr&#45;782441146990431284</title>
<path fill="none" stroke="black" d="M263.5,-253C263.5,-239.54 236.47,-222.85 211.17,-210.18"/>
<polygon fill="black" stroke="black" points="215.13,-211.2 210.16,-209.35 212.89,-213.89 215.13,-211.2"/>
</g>
<!-- Value&#45;5871781006564002453&#45;&gt;I32&#45;0 -->
<g id="edge9" class="edge">
<title>Value&#45;5871781006564002453:s&#45;&gt;I32&#45;0</title>
<path fill="none" stroke="black" d="M267.5,-174C267.5,-158.46 276.9,-144.24 287.16,-133.35"/>
<polygon fill="black" stroke="black" points="285.05,-137.75 287.48,-133.04 282.65,-135.2 285.05,-137.75"/>
</g>
<!-- Value&#45;5871781006564002453&#45;&gt;i64&#45;0 -->
<g id="edge8" class="edge">
<title>Value&#45;5871781006564002453:s&#45;&gt;i64&#45;0</title>
<path fill="none" stroke="black" d="M246.5,-174C246.5,-161.22 246.61,-146.96 246.72,-135.35"/>
<polygon fill="black" stroke="black" points="248.41,-138.55 246.76,-133.51 244.91,-138.48 248.41,-138.55"/>
</g>
<!-- NamedAttr&#45;782441146990431284&#45;&gt;String&#45;1073741831 -->
<g id="edge12" class="edge">
<title>NamedAttr&#45;782441146990431284:s&#45;&gt;String&#45;1073741831</title>
<path fill="none" stroke="black" d="M149.5,-174C149.5,-156.29 136.83,-142.51 122.16,-132.48"/>
<polygon fill="black" stroke="black" points="127.42,-132.35 122.12,-132.47 126.33,-135.68 127.42,-132.35"/>
</g>
<!-- NamedAttr&#45;782441146990431284&#45;&gt;OtherAttr&#45;17121831673073448956 -->
<g id="edge13" class="edge">
<title>NamedAttr&#45;782441146990431284:s&#45;&gt;OtherAttr&#45;17121831673073448956</title>
<path fill="none" stroke="black" d="M186,-174C186,-160.99 183.62,-146.69 181.08,-135.1"/>
<polygon fill="black" stroke="black" points="183.97,-137.2 180.29,-133.38 180.78,-138.65 183.97,-137.2"/>
</g>
<!-- Value&#45;8740641910606876011&#45;&gt;I32&#45;0 -->
<g id="edge11" class="edge">
<title>Value&#45;8740641910606876011:s&#45;&gt;I32&#45;0</title>
<path fill="none" stroke="black" d="M380.5,-174C380.5,-163.09 361.14,-146.08 343.15,-132.64"/>
<polygon fill="black" stroke="black" points="346.12,-137.93 343.33,-133.43 342.71,-138.69 346.12,-137.93"/>
</g>
<!-- Value&#45;8740641910606876011&#45;&gt;i64&#45;3 -->
<g id="edge10" class="edge">
<title>Value&#45;8740641910606876011:s&#45;&gt;i64&#45;3</title>
<path fill="none" stroke="black" d="M359.5,-174C359.5,-160.55 363.73,-146.18 368.25,-134.66"/>
<polygon fill="black" stroke="black" points="368.2,-138.59 368.93,-133.35 365.08,-136.99 368.2,-138.59"/>
</g>
<!-- OtherAttr&#45;17121831673073448956&#45;&gt;String&#45;1073741832 -->
<g id="edge14" class="edge">
<title>OtherAttr&#45;17121831673073448956:s&#45;&gt;String&#45;1073741832</title>
<path fill="none" stroke="black" d="M159,-95C159,-77.5 146.55,-63.62 132.3,-53.47"/>
<polygon fill="black" stroke="black" points="137.71,-53.57 132.41,-53.51 136.52,-56.86 137.71,-53.57"/>
</g>
<!-- OtherAttr&#45;17121831673073448956&#45;&gt;String&#45;3758096390 -->
<g id="edge15" class="edge">
<title>OtherAttr&#45;17121831673073448956:s&#45;&gt;String&#45;3758096390</title>
<path fill="none" stroke="black" d="M190.5,-95C190.5,-80.06 198.76,-65.82 207.73,-54.76"/>
<polygon fill="black" stroke="black" points="205.95,-58.49 208.7,-53.96 203.72,-55.78 205.95,-58.49"/>
</g>
<!-- I32&#45;0 -->
<g id="node1" class="node">
<title>I32&#45;0</title>
<g id="a_node1"><a xlink:title="Type&#45;1: I32&#45;0">
<path fill="white" stroke="none" d="M307.67,-95C307.67,-95 318.33,-95 318.33,-95 323.67,-95 329,-100.33 329,-105.67 329,-105.67 329,-116.33 329,-116.33 329,-121.67 323.67,-127 318.33,-127 318.33,-127 307.67,-127 307.67,-127 302.33,-127 297,-121.67 297,-116.33 297,-116.33 297,-105.67 297,-105.67 297,-100.33 302.33,-95 307.67,-95"/>
<text text-anchor="start" x="303.62" y="-105.2" font-family="Helvetica,sans-Serif" font-size="14.00">I32</text>
<path fill="none" stroke="black" d="M307.67,-95C307.67,-95 318.33,-95 318.33,-95 323.67,-95 329,-100.33 329,-105.67 329,-105.67 329,-116.33 329,-116.33 329,-121.67 323.67,-127 318.33,-127 318.33,-127 307.67,-127 307.67,-127 302.33,-127 297,-121.67 297,-116.33 297,-116.33 297,-105.67 297,-105.67 297,-100.33 302.33,-95 307.67,-95"/>
</a>
</g>
</g>
<!-- I1&#45;0 -->
<g id="node2" class="node">
<title>I1&#45;0</title>
<g id="a_node2"><a xlink:title="Type&#45;8: I1&#45;0">
<path fill="white" stroke="none" d="M430.67,-174C430.67,-174 441.33,-174 441.33,-174 446.67,-174 452,-179.33 452,-184.67 452,-184.67 452,-195.33 452,-195.33 452,-200.67 446.67,-206 441.33,-206 441.33,-206 430.67,-206 430.67,-206 425.33,-206 420,-200.67 420,-195.33 420,-195.33 420,-184.67 420,-184.67 420,-179.33 425.33,-174 430.67,-174"/>
<text text-anchor="start" x="430.38" y="-184.2" font-family="Helvetica,sans-Serif" font-size="14.00">I1</text>
<path fill="none" stroke="black" d="M430.67,-174C430.67,-174 441.33,-174 441.33,-174 446.67,-174 452,-179.33 452,-184.67 452,-184.67 452,-195.33 452,-195.33 452,-200.67 446.67,-206 441.33,-206 441.33,-206 430.67,-206 430.67,-206 425.33,-206 420,-200.67 420,-195.33 420,-195.33 420,-184.67 420,-184.67 420,-179.33 425.33,-174 430.67,-174"/>
</a>
</g>
</g>
<!-- Value&#45;11993333841121498764 -->
<g id="node3" class="node">
<title>Value&#45;11993333841121498764</title>
<g id="a_node3"><a xlink:title="Op&#45;7: Value&#45;11993333841121498764">
<path fill="white" stroke="none" d="M452.67,-253C452.67,-253 475.33,-253 475.33,-253 480.67,-253 486,-258.33 486,-263.67 486,-263.67 486,-274.33 486,-274.33 486,-279.67 480.67,-285 475.33,-285 475.33,-285 452.67,-285 452.67,-285 447.33,-285 442,-279.67 442,-274.33 442,-274.33 442,-263.67 442,-263.67 442,-258.33 447.33,-253 452.67,-253"/>
<text text-anchor="start" x="446.75" y="-263.2" font-family="Helvetica,sans-Serif" font-size="14.00">Value</text>
<path fill="none" stroke="black" d="M452.67,-253C452.67,-253 475.33,-253 475.33,-253 480.67,-253 486,-258.33 486,-263.67 486,-263.67 486,-274.33 486,-274.33 486,-279.67 480.67,-285 475.33,-285 475.33,-285 452.67,-285 452.67,-285 447.33,-285 442,-279.67 442,-274.33 442,-274.33 442,-263.67 442,-263.67 442,-258.33 447.33,-253 452.67,-253"/>
</a>
</g>
</g>
<!-- i64&#45;2 -->
<g id="node4" class="node">
<title>i64&#45;2</title>
<g id="a_node4"><a xlink:title="i64&#45;2: i64&#45;2">
<path fill="white" stroke="none" d="M496.67,-174C496.67,-174 507.33,-174 507.33,-174 512.67,-174 518,-179.33 518,-184.67 518,-184.67 518,-195.33 518,-195.33 518,-200.67 512.67,-206 507.33,-206 507.33,-206 496.67,-206 496.67,-206 491.33,-206 486,-200.67 486,-195.33 486,-195.33 486,-184.67 486,-184.67 486,-179.33 491.33,-174 496.67,-174"/>
<text text-anchor="start" x="498.25" y="-184.2" font-family="Helvetica,sans-Serif" font-size="14.00">2</text>
<path fill="none" stroke="black" d="M496.67,-174C496.67,-174 507.33,-174 507.33,-174 512.67,-174 518,-179.33 518,-184.67 518,-184.67 518,-195.33 518,-195.33 518,-200.67 512.67,-206 507.33,-206 507.33,-206 496.67,-206 496.67,-206 491.33,-206 486,-200.67 486,-195.33 486,-195.33 486,-184.67 486,-184.67 486,-179.33 491.33,-174 496.67,-174"/>
</a>
</g>
</g>
<!-- arith_addi&#45;2228637120100337632 -->
<g id="node5" class="node">
<title>arith_addi&#45;2228637120100337632</title>
<g id="a_node5"><a xlink:title="Op&#45;3: arith_addi&#45;2228637120100337632">
<path fill="white" stroke="none" d="M213.17,-253C213.17,-253 260.83,-253 260.83,-253 266.17,-253 271.5,-258.33 271.5,-263.67 271.5,-263.67 271.5,-274.33 271.5,-274.33 271.5,-279.67 266.17,-285 260.83,-285 260.83,-285 213.17,-285 213.17,-285 207.83,-285 202.5,-279.67 202.5,-274.33 202.5,-274.33 202.5,-263.67 202.5,-263.67 202.5,-258.33 207.83,-253 213.17,-253"/>
<text text-anchor="start" x="207.38" y="-263.2" font-family="Helvetica,sans-Serif" font-size="14.00">arith_addi</text>
<path fill="none" stroke="black" d="M213.17,-253C213.17,-253 260.83,-253 260.83,-253 266.17,-253 271.5,-258.33 271.5,-263.67 271.5,-263.67 271.5,-274.33 271.5,-274.33 271.5,-279.67 266.17,-285 260.83,-285 260.83,-285 213.17,-285 213.17,-285 207.83,-285 202.5,-279.67 202.5,-274.33 202.5,-274.33 202.5,-263.67 202.5,-263.67 202.5,-258.33 207.83,-253 213.17,-253"/>
</a>
</g>
</g>
<!-- i64&#45;1 -->
<g id="node6" class="node">
<title>i64&#45;1</title>
<g id="a_node6"><a xlink:title="i64&#45;1: i64&#45;1">
<path fill="white" stroke="none" d="M85.67,-174C85.67,-174 96.33,-174 96.33,-174 101.67,-174 107,-179.33 107,-184.67 107,-184.67 107,-195.33 107,-195.33 107,-200.67 101.67,-206 96.33,-206 96.33,-206 85.67,-206 85.67,-206 80.33,-206 75,-200.67 75,-195.33 75,-195.33 75,-184.67 75,-184.67 75,-179.33 80.33,-174 85.67,-174"/>
<text text-anchor="start" x="87.25" y="-184.2" font-family="Helvetica,sans-Serif" font-size="14.00">1</text>
<path fill="none" stroke="black" d="M85.67,-174C85.67,-174 96.33,-174 96.33,-174 101.67,-174 107,-179.33 107,-184.67 107,-184.67 107,-195.33 107,-195.33 107,-200.67 101.67,-206 96.33,-206 96.33,-206 85.67,-206 85.67,-206 80.33,-206 75,-200.67 75,-195.33 75,-195.33 75,-184.67 75,-184.67 75,-179.33 80.33,-174 85.67,-174"/>
</a>
</g>
</g>
<!-- Value&#45;5871781006564002453 -->
<g id="node7" class="node">
<title>Value&#45;5871781006564002453</title>
<g id="a_node7"><a xlink:title="Op&#45;0: Value&#45;5871781006564002453">
<path fill="white" stroke="none" d="M245.67,-174C245.67,-174 268.33,-174 268.33,-174 273.67,-174 279,-179.33 279,-184.67 279,-184.67 279,-195.33 279,-195.33 279,-200.67 273.67,-206 268.33,-206 268.33,-206 245.67,-206 245.67,-206 240.33,-206 235,-200.67 235,-195.33 235,-195.33 235,-184.67 235,-184.67 235,-179.33 240.33,-174 245.67,-174"/>
<text text-anchor="start" x="239.75" y="-184.2" font-family="Helvetica,sans-Serif" font-size="14.00">Value</text>
<path fill="none" stroke="black" d="M245.67,-174C245.67,-174 268.33,-174 268.33,-174 273.67,-174 279,-179.33 279,-184.67 279,-184.67 279,-195.33 279,-195.33 279,-200.67 273.67,-206 268.33,-206 268.33,-206 245.67,-206 245.67,-206 240.33,-206 235,-200.67 235,-195.33 235,-195.33 235,-184.67 235,-184.67 235,-179.33 240.33,-174 245.67,-174"/>
</a>
</g>
</g>
<!-- NamedAttr&#45;782441146990431284 -->
<g id="node8" class="node">
<title>NamedAttr&#45;782441146990431284</title>
<g id="a_node8"><a xlink:title="AttrPair&#45;5: NamedAttr&#45;782441146990431284">
<path fill="white" stroke="none" d="M141.17,-174C141.17,-174 194.83,-174 194.83,-174 200.17,-174 205.5,-179.33 205.5,-184.67 205.5,-184.67 205.5,-195.33 205.5,-195.33 205.5,-200.67 200.17,-206 194.83,-206 194.83,-206 141.17,-206 141.17,-206 135.83,-206 130.5,-200.67 130.5,-195.33 130.5,-195.33 130.5,-184.67 130.5,-184.67 130.5,-179.33 135.83,-174 141.17,-174"/>
<text text-anchor="start" x="135.38" y="-184.2" font-family="Helvetica,sans-Serif" font-size="14.00">NamedAttr</text>
<path fill="none" stroke="black" d="M141.17,-174C141.17,-174 194.83,-174 194.83,-174 200.17,-174 205.5,-179.33 205.5,-184.67 205.5,-184.67 205.5,-195.33 205.5,-195.33 205.5,-200.67 200.17,-206 194.83,-206 194.83,-206 141.17,-206 141.17,-206 135.83,-206 130.5,-200.67 130.5,-195.33 130.5,-195.33 130.5,-184.67 130.5,-184.67 130.5,-179.33 135.83,-174 141.17,-174"/>
</a>
</g>
</g>
<!-- i64&#45;0 -->
<g id="node9" class="node">
<title>i64&#45;0</title>
<g id="a_node9"><a xlink:title="i64&#45;0: i64&#45;0">
<path fill="white" stroke="none" d="M241.67,-95C241.67,-95 252.33,-95 252.33,-95 257.67,-95 263,-100.33 263,-105.67 263,-105.67 263,-116.33 263,-116.33 263,-121.67 257.67,-127 252.33,-127 252.33,-127 241.67,-127 241.67,-127 236.33,-127 231,-121.67 231,-116.33 231,-116.33 231,-105.67 231,-105.67 231,-100.33 236.33,-95 241.67,-95"/>
<text text-anchor="start" x="243.25" y="-105.2" font-family="Helvetica,sans-Serif" font-size="14.00">0</text>
<path fill="none" stroke="black" d="M241.67,-95C241.67,-95 252.33,-95 252.33,-95 257.67,-95 263,-100.33 263,-105.67 263,-105.67 263,-116.33 263,-116.33 263,-121.67 257.67,-127 252.33,-127 252.33,-127 241.67,-127 241.67,-127 236.33,-127 231,-121.67 231,-116.33 231,-116.33 231,-105.67 231,-105.67 231,-100.33 236.33,-95 241.67,-95"/>
</a>
</g>
</g>
<!-- Value&#45;8740641910606876011 -->
<g id="node10" class="node">
<title>Value&#45;8740641910606876011</title>
<g id="a_node10"><a xlink:title="Op&#45;10: Value&#45;8740641910606876011">
<path fill="white" stroke="none" d="M358.67,-174C358.67,-174 381.33,-174 381.33,-174 386.67,-174 392,-179.33 392,-184.67 392,-184.67 392,-195.33 392,-195.33 392,-200.67 386.67,-206 381.33,-206 381.33,-206 358.67,-206 358.67,-206 353.33,-206 348,-200.67 348,-195.33 348,-195.33 348,-184.67 348,-184.67 348,-179.33 353.33,-174 358.67,-174"/>
<text text-anchor="start" x="352.75" y="-184.2" font-family="Helvetica,sans-Serif" font-size="14.00">Value</text>
<path fill="none" stroke="black" d="M358.67,-174C358.67,-174 381.33,-174 381.33,-174 386.67,-174 392,-179.33 392,-184.67 392,-184.67 392,-195.33 392,-195.33 392,-200.67 386.67,-206 381.33,-206 381.33,-206 358.67,-206 358.67,-206 353.33,-206 348,-200.67 348,-195.33 348,-195.33 348,-184.67 348,-184.67 348,-179.33 353.33,-174 358.67,-174"/>
</a>
</g>
</g>
<!-- i64&#45;3 -->
<g id="node11" class="node">
<title>i64&#45;3</title>
<g id="a_node11"><a xlink:title="i64&#45;3: i64&#45;3">
<path fill="white" stroke="none" d="M373.67,-95C373.67,-95 384.33,-95 384.33,-95 389.67,-95 395,-100.33 395,-105.67 395,-105.67 395,-116.33 395,-116.33 395,-121.67 389.67,-127 384.33,-127 384.33,-127 373.67,-127 373.67,-127 368.33,-127 363,-121.67 363,-116.33 363,-116.33 363,-105.67 363,-105.67 363,-100.33 368.33,-95 373.67,-95"/>
<text text-anchor="start" x="375.25" y="-105.2" font-family="Helvetica,sans-Serif" font-size="14.00">3</text>
<path fill="none" stroke="black" d="M373.67,-95C373.67,-95 384.33,-95 384.33,-95 389.67,-95 395,-100.33 395,-105.67 395,-105.67 395,-116.33 395,-116.33 395,-121.67 389.67,-127 384.33,-127 384.33,-127 373.67,-127 373.67,-127 368.33,-127 363,-121.67 363,-116.33 363,-116.33 363,-105.67 363,-105.67 363,-100.33 368.33,-95 373.67,-95"/>
</a>
</g>
</g>
<!-- String&#45;1073741831 -->
<g id="node12" class="node">
<title>String&#45;1073741831</title>
<g id="a_node12"><a xlink:title="String&#45;1073741831: String&#45;1073741831">
<path fill="white" stroke="none" d="M36.79,-95C36.79,-95 119.21,-95 119.21,-95 124.54,-95 129.88,-100.33 129.88,-105.67 129.88,-105.67 129.88,-116.33 129.88,-116.33 129.88,-121.67 124.54,-127 119.21,-127 119.21,-127 36.79,-127 36.79,-127 31.46,-127 26.12,-121.67 26.12,-116.33 26.12,-116.33 26.12,-105.67 26.12,-105.67 26.12,-100.33 31.46,-95 36.79,-95"/>
<text text-anchor="start" x="31.12" y="-105.2" font-family="Helvetica,sans-Serif" font-size="14.00">&quot;overflowFlags&quot;</text>
<path fill="none" stroke="black" d="M36.79,-95C36.79,-95 119.21,-95 119.21,-95 124.54,-95 129.88,-100.33 129.88,-105.67 129.88,-105.67 129.88,-116.33 129.88,-116.33 129.88,-121.67 124.54,-127 119.21,-127 119.21,-127 36.79,-127 36.79,-127 31.46,-127 26.12,-121.67 26.12,-116.33 26.12,-116.33 26.12,-105.67 26.12,-105.67 26.12,-100.33 31.46,-95 36.79,-95"/>
</a>
</g>
</g>
<!-- OtherAttr&#45;17121831673073448956 -->
<g id="node13" class="node">
<title>OtherAttr&#45;17121831673073448956</title>
<g id="a_node13"><a xlink:title="Attr&#45;4: OtherAttr&#45;17121831673073448956">
<path fill="white" stroke="none" d="M153.17,-95C153.17,-95 196.83,-95 196.83,-95 202.17,-95 207.5,-100.33 207.5,-105.67 207.5,-105.67 207.5,-116.33 207.5,-116.33 207.5,-121.67 202.17,-127 196.83,-127 196.83,-127 153.17,-127 153.17,-127 147.83,-127 142.5,-121.67 142.5,-116.33 142.5,-116.33 142.5,-105.67 142.5,-105.67 142.5,-100.33 147.83,-95 153.17,-95"/>
<text text-anchor="start" x="147.25" y="-105.2" font-family="Helvetica,sans-Serif" font-size="14.00">OtherAttr</text>
<path fill="none" stroke="black" d="M153.17,-95C153.17,-95 196.83,-95 196.83,-95 202.17,-95 207.5,-100.33 207.5,-105.67 207.5,-105.67 207.5,-116.33 207.5,-116.33 207.5,-121.67 202.17,-127 196.83,-127 196.83,-127 153.17,-127 153.17,-127 147.83,-127 142.5,-121.67 142.5,-116.33 142.5,-116.33 142.5,-105.67 142.5,-105.67 142.5,-100.33 147.83,-95 153.17,-95"/>
</a>
</g>
</g>
<!-- String&#45;1073741832 -->
<g id="node14" class="node">
<title>String&#45;1073741832</title>
<g id="a_node14"><a xlink:title="String&#45;1073741832: String&#45;1073741832">
<path fill="white" stroke="none" d="M24.29,-16C24.29,-16 157.71,-16 157.71,-16 163.04,-16 168.38,-21.33 168.38,-26.67 168.38,-26.67 168.38,-37.33 168.38,-37.33 168.38,-42.67 163.04,-48 157.71,-48 157.71,-48 24.29,-48 24.29,-48 18.96,-48 13.62,-42.67 13.62,-37.33 13.62,-37.33 13.62,-26.67 13.62,-26.67 13.62,-21.33 18.96,-16 24.29,-16"/>
<text text-anchor="start" x="18.62" y="-26.2" font-family="Helvetica,sans-Serif" font-size="14.00">&quot;#arith.overflow&lt;none&gt;&quot;</text>
<path fill="none" stroke="black" d="M24.29,-16C24.29,-16 157.71,-16 157.71,-16 163.04,-16 168.38,-21.33 168.38,-26.67 168.38,-26.67 168.38,-37.33 168.38,-37.33 168.38,-42.67 163.04,-48 157.71,-48 157.71,-48 24.29,-48 24.29,-48 18.96,-48 13.62,-42.67 13.62,-37.33 13.62,-37.33 13.62,-26.67 13.62,-26.67 13.62,-21.33 18.96,-16 24.29,-16"/>
</a>
</g>
</g>
<!-- String&#45;3758096390 -->
<g id="node15" class="node">
<title>String&#45;3758096390</title>
<g id="a_node15"><a xlink:title="String&#45;3758096390: String&#45;3758096390">
<path fill="white" stroke="none" d="M190.29,-16C190.29,-16 269.71,-16 269.71,-16 275.04,-16 280.38,-21.33 280.38,-26.67 280.38,-26.67 280.38,-37.33 280.38,-37.33 280.38,-42.67 275.04,-48 269.71,-48 269.71,-48 190.29,-48 190.29,-48 184.96,-48 179.62,-42.67 179.62,-37.33 179.62,-37.33 179.62,-26.67 179.62,-26.67 179.62,-21.33 184.96,-16 190.29,-16"/>
<text text-anchor="start" x="184.62" y="-26.2" font-family="Helvetica,sans-Serif" font-size="14.00">&quot;arith.overflow&quot;</text>
<path fill="none" stroke="black" d="M190.29,-16C190.29,-16 269.71,-16 269.71,-16 275.04,-16 280.38,-21.33 280.38,-26.67 280.38,-26.67 280.38,-37.33 280.38,-37.33 280.38,-42.67 275.04,-48 269.71,-48 269.71,-48 190.29,-48 190.29,-48 184.96,-48 179.62,-42.67 179.62,-37.33 179.62,-37.33 179.62,-26.67 179.62,-26.67 179.62,-21.33 184.96,-16 190.29,-16"/>
</a>
</g>
</g>
</g>
</svg>
