<?xml version="1.0" encoding="UTF-8" standalone="no"?>
<!DOCTYPE svg PUBLIC "-//W3C//DTD SVG 1.1//EN"
 "http://www.w3.org/Graphics/SVG/1.1/DTD/svg11.dtd">
<!-- Generated by graphviz version 12.0.0 (20240704.0754)
 -->
<!-- Pages: 1 -->
<svg width="635pt" height="862pt"
 viewBox="0.00 0.00 635.42 862.00" xmlns="http://www.w3.org/2000/svg" xmlns:xlink="http://www.w3.org/1999/xlink">
<g id="graph0" class="graph" transform="scale(1 1) rotate(0) translate(4 858)">
<polygon fill="white" stroke="none" points="-4,4 -4,-858 631.42,-858 631.42,4 -4,4"/>
<g id="clust1" class="cluster">
<title>outer_cluster_OpVec&#45;0</title>
</g>
<g id="clust2" class="cluster">
<title>cluster_OpVec&#45;0</title>
<path fill="#ffffb3" stroke="black" stroke-dasharray="5,2" d="M270.42,-406C270.42,-406 306.42,-406 306.42,-406 312.42,-406 318.42,-412 318.42,-418 318.42,-418 318.42,-436 318.42,-436 318.42,-442 312.42,-448 306.42,-448 306.42,-448 270.42,-448 270.42,-448 264.42,-448 258.42,-442 258.42,-436 258.42,-436 258.42,-418 258.42,-418 258.42,-412 264.42,-406 270.42,-406"/>
</g>
<g id="clust4" class="cluster">
<title>outer_cluster_OpVec&#45;1</title>
</g>
<g id="clust5" class="cluster">
<title>cluster_OpVec&#45;1</title>
<path fill="#ffffb3" stroke="black" stroke-dasharray="5,2" d="M448.42,-485C448.42,-485 484.42,-485 484.42,-485 490.42,-485 496.42,-491 496.42,-497 496.42,-497 496.42,-515 496.42,-515 496.42,-521 490.42,-527 484.42,-527 484.42,-527 448.42,-527 448.42,-527 442.42,-527 436.42,-521 436.42,-515 436.42,-515 436.42,-497 436.42,-497 436.42,-491 442.42,-485 448.42,-485"/>
</g>
<g id="clust7" class="cluster">
<title>outer_cluster_Type&#45;1</title>
</g>
<g id="clust8" class="cluster">
<title>cluster_Type&#45;1</title>
<path fill="#bebada" stroke="black" stroke-dasharray="5,2" d="M299.42,-90C299.42,-90 335.42,-90 335.42,-90 341.42,-90 347.42,-96 347.42,-102 347.42,-102 347.42,-120 347.42,-120 347.42,-126 341.42,-132 335.42,-132 335.42,-132 299.42,-132 299.42,-132 293.42,-132 287.42,-126 287.42,-120 287.42,-120 287.42,-102 287.42,-102 287.42,-96 293.42,-90 299.42,-90"/>
</g>
<g id="clust10" class="cluster">
<title>outer_cluster_Type&#45;33</title>
</g>
<g id="clust11" class="cluster">
<title>cluster_Type&#45;33</title>
<path fill="#bebada" stroke="black" stroke-dasharray="5,2" d="M480.42,-722C480.42,-722 516.42,-722 516.42,-722 522.42,-722 528.42,-728 528.42,-734 528.42,-734 528.42,-752 528.42,-752 528.42,-758 522.42,-764 516.42,-764 516.42,-764 480.42,-764 480.42,-764 474.42,-764 468.42,-758 468.42,-752 468.42,-752 468.42,-734 468.42,-734 468.42,-728 474.42,-722 480.42,-722"/>
</g>
<g id="clust13" class="cluster">
<title>outer_cluster_Type&#45;11</title>
</g>
<g id="clust14" class="cluster">
<title>cluster_Type&#45;11</title>
<path fill="#bebada" stroke="black" stroke-dasharray="5,2" d="M95.42,-169C95.42,-169 131.42,-169 131.42,-169 137.42,-169 143.42,-175 143.42,-181 143.42,-181 143.42,-199 143.42,-199 143.42,-205 137.42,-211 131.42,-211 131.42,-211 95.42,-211 95.42,-211 89.42,-211 83.42,-205 83.42,-199 83.42,-199 83.42,-181 83.42,-181 83.42,-175 89.42,-169 95.42,-169"/>
</g>
<g id="clust16" class="cluster">
<title>outer_cluster_Type&#45;14</title>
</g>
<g id="clust17" class="cluster">
<title>cluster_Type&#45;14</title>
<path fill="#bebada" stroke="black" stroke-dasharray="5,2" d="M371.42,-327C371.42,-327 407.42,-327 407.42,-327 413.42,-327 419.42,-333 419.42,-339 419.42,-339 419.42,-357 419.42,-357 419.42,-363 413.42,-369 407.42,-369 407.42,-369 371.42,-369 371.42,-369 365.42,-369 359.42,-363 359.42,-357 359.42,-357 359.42,-339 359.42,-339 359.42,-333 365.42,-327 371.42,-327"/>
</g>
<g id="clust19" class="cluster">
<title>outer_cluster_Block&#45;27</title>
</g>
<g id="clust20" class="cluster">
<title>cluster_Block&#45;27</title>
<path fill="#fb8072" stroke="black" stroke-dasharray="5,2" d="M280.42,-564C280.42,-564 316.42,-564 316.42,-564 322.42,-564 328.42,-570 328.42,-576 328.42,-576 328.42,-594 328.42,-594 328.42,-600 322.42,-606 316.42,-606 316.42,-606 280.42,-606 280.42,-606 274.42,-606 268.42,-600 268.42,-594 268.42,-594 268.42,-576 268.42,-576 268.42,-570 274.42,-564 280.42,-564"/>
</g>
<g id="clust22" class="cluster">
<title>outer_cluster_Block&#45;29</title>
</g>
<g id="clust23" class="cluster">
<title>cluster_Block&#45;29</title>
<path fill="#fb8072" stroke="black" stroke-dasharray="5,2" d="M433.42,-564C433.42,-564 469.42,-564 469.42,-564 475.42,-564 481.42,-570 481.42,-576 481.42,-576 481.42,-594 481.42,-594 481.42,-600 475.42,-606 469.42,-606 469.42,-606 433.42,-606 433.42,-606 427.42,-606 421.42,-600 421.42,-594 421.42,-594 421.42,-576 421.42,-576 421.42,-570 427.42,-564 433.42,-564"/>
</g>
<g id="clust25" class="cluster">
<title>outer_cluster_i64&#45;3</title>
</g>
<g id="clust26" class="cluster">
<title>cluster_i64&#45;3</title>
<path fill="#80b1d3" stroke="black" stroke-dasharray="5,2" d="M29.42,-169C29.42,-169 65.42,-169 65.42,-169 71.42,-169 77.42,-175 77.42,-181 77.42,-181 77.42,-199 77.42,-199 77.42,-205 71.42,-211 65.42,-211 65.42,-211 29.42,-211 29.42,-211 23.42,-211 17.42,-205 17.42,-199 17.42,-199 17.42,-181 17.42,-181 17.42,-175 23.42,-169 29.42,-169"/>
</g>
<g id="clust28" class="cluster">
<title>outer_cluster_i64&#45;9</title>
</g>
<g id="clust29" class="cluster">
<title>cluster_i64&#45;9</title>
<path fill="#80b1d3" stroke="black" stroke-dasharray="5,2" d="M546.42,-722C546.42,-722 582.42,-722 582.42,-722 588.42,-722 594.42,-728 594.42,-734 594.42,-734 594.42,-752 594.42,-752 594.42,-758 588.42,-764 582.42,-764 582.42,-764 546.42,-764 546.42,-764 540.42,-764 534.42,-758 534.42,-752 534.42,-752 534.42,-734 534.42,-734 534.42,-728 540.42,-722 546.42,-722"/>
</g>
<g id="clust31" class="cluster">
<title>outer_cluster_i64&#45;0</title>
</g>
<g id="clust32" class="cluster">
<title>cluster_i64&#45;0</title>
<path fill="#80b1d3" stroke="black" stroke-dasharray="5,2" d="M365.42,-90C365.42,-90 401.42,-90 401.42,-90 407.42,-90 413.42,-96 413.42,-102 413.42,-102 413.42,-120 413.42,-120 413.42,-126 407.42,-132 401.42,-132 401.42,-132 365.42,-132 365.42,-132 359.42,-132 353.42,-126 353.42,-120 353.42,-120 353.42,-102 353.42,-102 353.42,-96 359.42,-90 365.42,-90"/>
</g>
<g id="clust34" class="cluster">
<title>outer_cluster_f64&#45;0</title>
</g>
<g id="clust35" class="cluster">
<title>cluster_f64&#45;0</title>
<path fill="#fdb462" stroke="black" stroke-dasharray="5,2" d="M150.42,-90C150.42,-90 186.42,-90 186.42,-90 192.42,-90 198.42,-96 198.42,-102 198.42,-102 198.42,-120 198.42,-120 198.42,-126 192.42,-132 186.42,-132 186.42,-132 150.42,-132 150.42,-132 144.42,-132 138.42,-126 138.42,-120 138.42,-120 138.42,-102 138.42,-102 138.42,-96 144.42,-90 150.42,-90"/>
</g>
<g id="clust37" class="cluster">
<title>outer_cluster_Attr&#45;4</title>
</g>
<g id="clust38" class="cluster">
<title>cluster_Attr&#45;4</title>
<path fill="#b3de69" stroke="black" stroke-dasharray="5,2" d="M161.42,-169C161.42,-169 205.42,-169 205.42,-169 211.42,-169 217.42,-175 217.42,-181 217.42,-181 217.42,-199 217.42,-199 217.42,-205 211.42,-211 205.42,-211 205.42,-211 161.42,-211 161.42,-211 155.42,-211 149.42,-205 149.42,-199 149.42,-199 149.42,-181 149.42,-181 149.42,-175 155.42,-169 161.42,-169"/>
</g>
<g id="clust40" class="cluster">
<title>outer_cluster_Attr&#45;9</title>
</g>
<g id="clust41" class="cluster">
<title>cluster_Attr&#45;9</title>
<path fill="#b3de69" stroke="black" stroke-dasharray="5,2" d="M440.42,-90C440.42,-90 518.42,-90 518.42,-90 524.42,-90 530.42,-96 530.42,-102 530.42,-102 530.42,-120 530.42,-120 530.42,-126 524.42,-132 518.42,-132 518.42,-132 440.42,-132 440.42,-132 434.42,-132 428.42,-126 428.42,-120 428.42,-120 428.42,-102 428.42,-102 428.42,-96 434.42,-90 440.42,-90"/>
</g>
<g id="clust43" class="cluster">
<title>outer_cluster_Attr&#45;12</title>
</g>
<g id="clust44" class="cluster">
<title>cluster_Attr&#45;12</title>
<path fill="#b3de69" stroke="black" stroke-dasharray="5,2" d="M37.42,-248C37.42,-248 93.42,-248 93.42,-248 99.42,-248 105.42,-254 105.42,-260 105.42,-260 105.42,-278 105.42,-278 105.42,-284 99.42,-290 93.42,-290 93.42,-290 37.42,-290 37.42,-290 31.42,-290 25.42,-284 25.42,-278 25.42,-278 25.42,-260 25.42,-260 25.42,-254 31.42,-248 37.42,-248"/>
</g>
<g id="clust46" class="cluster">
<title>outer_cluster_BlockVec&#45;0</title>
</g>
<g id="clust47" class="cluster">
<title>cluster_BlockVec&#45;0</title>
<path fill="#fccde5" stroke="black" stroke-dasharray="5,2" d="M276.42,-643C276.42,-643 324.42,-643 324.42,-643 330.42,-643 336.42,-649 336.42,-655 336.42,-655 336.42,-673 336.42,-673 336.42,-679 330.42,-685 324.42,-685 324.42,-685 276.42,-685 276.42,-685 270.42,-685 264.42,-679 264.42,-673 264.42,-673 264.42,-655 264.42,-655 264.42,-649 270.42,-643 276.42,-643"/>
</g>
<g id="clust49" class="cluster">
<title>outer_cluster_BlockVec&#45;1</title>
</g>
<g id="clust50" class="cluster">
<title>cluster_BlockVec&#45;1</title>
<path fill="#fccde5" stroke="black" stroke-dasharray="5,2" d="M406.42,-643C406.42,-643 454.42,-643 454.42,-643 460.42,-643 466.42,-649 466.42,-655 466.42,-655 466.42,-673 466.42,-673 466.42,-679 460.42,-685 454.42,-685 454.42,-685 406.42,-685 406.42,-685 400.42,-685 394.42,-679 394.42,-673 394.42,-673 394.42,-655 394.42,-655 394.42,-649 400.42,-643 406.42,-643"/>
</g>
<g id="clust52" class="cluster">
<title>outer_cluster_Op&#45;22</title>
</g>
<g id="clust53" class="cluster">
<title>cluster_Op&#45;22</title>
<path fill="#d9d9d9" stroke="black" stroke-dasharray="5,2" d="M469.42,-327C469.42,-327 521.42,-327 521.42,-327 527.42,-327 533.42,-333 533.42,-339 533.42,-339 533.42,-357 533.42,-357 533.42,-363 527.42,-369 521.42,-369 521.42,-369 469.42,-369 469.42,-369 463.42,-369 457.42,-363 457.42,-357 457.42,-357 457.42,-339 457.42,-339 457.42,-333 463.42,-327 469.42,-327"/>
</g>
<g id="clust55" class="cluster">
<title>outer_cluster_Op&#45;0</title>
</g>
<g id="clust56" class="cluster">
<title>cluster_Op&#45;0</title>
<path fill="#d9d9d9" stroke="black" stroke-dasharray="5,2" d="M363.42,-169C363.42,-169 399.42,-169 399.42,-169 405.42,-169 411.42,-175 411.42,-181 411.42,-181 411.42,-199 411.42,-199 411.42,-205 405.42,-211 399.42,-211 399.42,-211 363.42,-211 363.42,-211 357.42,-211 351.42,-205 351.42,-199 351.42,-199 351.42,-181 351.42,-181 351.42,-175 357.42,-169 363.42,-169"/>
</g>
<g id="clust58" class="cluster">
<title>outer_cluster_Op&#45;18</title>
</g>
<g id="clust59" class="cluster">
<title>cluster_Op&#45;18</title>
<path fill="#d9d9d9" stroke="black" stroke-dasharray="5,2" d="M297.42,-327C297.42,-327 341.42,-327 341.42,-327 347.42,-327 353.42,-333 353.42,-339 353.42,-339 353.42,-357 353.42,-357 353.42,-363 347.42,-369 341.42,-369 341.42,-369 297.42,-369 297.42,-369 291.42,-369 285.42,-363 285.42,-357 285.42,-357 285.42,-339 285.42,-339 285.42,-333 291.42,-327 297.42,-327"/>
</g>
<g id="clust61" class="cluster">
<title>outer_cluster_Op&#45;7</title>
</g>
<g id="clust62" class="cluster">
<title>cluster_Op&#45;7</title>
<path fill="#d9d9d9" stroke="black" stroke-dasharray="5,2" d="M336.42,-406C336.42,-406 392.42,-406 392.42,-406 398.42,-406 404.42,-412 404.42,-418 404.42,-418 404.42,-436 404.42,-436 404.42,-442 398.42,-448 392.42,-448 392.42,-448 336.42,-448 336.42,-448 330.42,-448 324.42,-442 324.42,-436 324.42,-436 324.42,-418 324.42,-418 324.42,-412 330.42,-406 336.42,-406"/>
</g>
<g id="clust64" class="cluster">
<title>outer_cluster_Op&#45;16</title>
</g>
<g id="clust65" class="cluster">
<title>cluster_Op&#45;16</title>
<path fill="#d9d9d9" stroke="black" stroke-dasharray="5,2" d="M313.42,-248C313.42,-248 365.42,-248 365.42,-248 371.42,-248 377.42,-254 377.42,-260 377.42,-260 377.42,-278 377.42,-278 377.42,-284 371.42,-290 365.42,-290 365.42,-290 313.42,-290 313.42,-290 307.42,-290 301.42,-284 301.42,-278 301.42,-278 301.42,-260 301.42,-260 301.42,-254 307.42,-248 313.42,-248"/>
</g>
<g id="clust67" class="cluster">
<title>outer_cluster_Op&#45;3</title>
</g>
<g id="clust68" class="cluster">
<title>cluster_Op&#45;3</title>
<path fill="#d9d9d9" stroke="black" stroke-dasharray="5,2" d="M179.42,-327C179.42,-327 255.42,-327 255.42,-327 261.42,-327 267.42,-333 267.42,-339 267.42,-339 267.42,-357 267.42,-357 267.42,-363 261.42,-369 255.42,-369 255.42,-369 179.42,-369 179.42,-369 173.42,-369 167.42,-363 167.42,-357 167.42,-357 167.42,-339 167.42,-339 167.42,-333 173.42,-327 179.42,-327"/>
</g>
<g id="clust70" class="cluster">
<title>outer_cluster_Op&#45;26</title>
</g>
<g id="clust71" class="cluster">
<title>cluster_Op&#45;26</title>
<path fill="#d9d9d9" stroke="black" stroke-dasharray="5,2" d="M321.42,-801C321.42,-801 357.42,-801 357.42,-801 363.42,-801 369.42,-807 369.42,-813 369.42,-813 369.42,-831 369.42,-831 369.42,-837 363.42,-843 357.42,-843 357.42,-843 321.42,-843 321.42,-843 315.42,-843 309.42,-837 309.42,-831 309.42,-831 309.42,-813 309.42,-813 309.42,-807 315.42,-801 321.42,-801"/>
</g>
<g id="clust73" class="cluster">
<title>outer_cluster_Op&#45;24</title>
</g>
<g id="clust74" class="cluster">
<title>cluster_Op&#45;24</title>
<path fill="#d9d9d9" stroke="black" stroke-dasharray="5,2" d="M469.42,-406C469.42,-406 513.42,-406 513.42,-406 519.42,-406 525.42,-412 525.42,-418 525.42,-418 525.42,-436 525.42,-436 525.42,-442 519.42,-448 513.42,-448 513.42,-448 469.42,-448 469.42,-448 463.42,-448 457.42,-442 457.42,-436 457.42,-436 457.42,-418 457.42,-418 457.42,-412 463.42,-406 469.42,-406"/>
</g>
<g id="clust76" class="cluster">
<title>outer_cluster_Op&#45;20</title>
</g>
<g id="clust77" class="cluster">
<title>cluster_Op&#45;20</title>
<path fill="#d9d9d9" stroke="black" stroke-dasharray="5,2" d="M407.42,-248C407.42,-248 459.42,-248 459.42,-248 465.42,-248 471.42,-254 471.42,-260 471.42,-260 471.42,-278 471.42,-278 471.42,-284 465.42,-290 459.42,-290 459.42,-290 407.42,-290 407.42,-290 401.42,-290 395.42,-284 395.42,-278 395.42,-278 395.42,-260 395.42,-260 395.42,-254 401.42,-248 407.42,-248"/>
</g>
<g id="clust79" class="cluster">
<title>outer_cluster_Op&#45;32</title>
</g>
<g id="clust80" class="cluster">
<title>cluster_Op&#45;32</title>
<path fill="#d9d9d9" stroke="black" stroke-dasharray="5,2" d="M513.42,-801C513.42,-801 549.42,-801 549.42,-801 555.42,-801 561.42,-807 561.42,-813 561.42,-813 561.42,-831 561.42,-831 561.42,-837 555.42,-843 549.42,-843 549.42,-843 513.42,-843 513.42,-843 507.42,-843 501.42,-837 501.42,-831 501.42,-831 501.42,-813 501.42,-813 501.42,-807 507.42,-801 513.42,-801"/>
</g>
<g id="clust82" class="cluster">
<title>outer_cluster_FastMathFlags&#45;8</title>
</g>
<g id="clust83" class="cluster">
<title>cluster_FastMathFlags&#45;8</title>
<path fill="#bc80bd" stroke="black" stroke-dasharray="5,2" d="M461.42,-11C461.42,-11 497.42,-11 497.42,-11 503.42,-11 509.42,-17 509.42,-23 509.42,-23 509.42,-41 509.42,-41 509.42,-47 503.42,-53 497.42,-53 497.42,-53 461.42,-53 461.42,-53 455.42,-53 449.42,-47 449.42,-41 449.42,-41 449.42,-23 449.42,-23 449.42,-17 455.42,-11 461.42,-11"/>
</g>
<g id="clust85" class="cluster">
<title>outer_cluster_Region&#45;30</title>
</g>
<g id="clust86" class="cluster">
<title>cluster_Region&#45;30</title>
<path fill="#ccebc5" stroke="black" stroke-dasharray="5,2" d="M396.42,-722C396.42,-722 432.42,-722 432.42,-722 438.42,-722 444.42,-728 444.42,-734 444.42,-734 444.42,-752 444.42,-752 444.42,-758 438.42,-764 432.42,-764 432.42,-764 396.42,-764 396.42,-764 390.42,-764 384.42,-758 384.42,-752 384.42,-752 384.42,-734 384.42,-734 384.42,-728 390.42,-722 396.42,-722"/>
</g>
<g id="clust88" class="cluster">
<title>outer_cluster_Region&#45;28</title>
</g>
<g id="clust89" class="cluster">
<title>cluster_Region&#45;28</title>
<path fill="#ccebc5" stroke="black" stroke-dasharray="5,2" d="M293.42,-722C293.42,-722 329.42,-722 329.42,-722 335.42,-722 341.42,-728 341.42,-734 341.42,-734 341.42,-752 341.42,-752 341.42,-758 335.42,-764 329.42,-764 329.42,-764 293.42,-764 293.42,-764 287.42,-764 281.42,-758 281.42,-752 281.42,-752 281.42,-734 281.42,-734 281.42,-728 287.42,-722 293.42,-722"/>
</g>
<g id="clust91" class="cluster">
<title>outer_cluster_AttrPair&#45;10</title>
</g>
<g id="clust92" class="cluster">
<title>cluster_AttrPair&#45;10</title>
<path fill="#ffed6f" stroke="black" stroke-dasharray="5,2" d="M441.42,-169C441.42,-169 499.42,-169 499.42,-169 505.42,-169 511.42,-175 511.42,-181 511.42,-181 511.42,-199 511.42,-199 511.42,-205 505.42,-211 499.42,-211 499.42,-211 441.42,-211 441.42,-211 435.42,-211 429.42,-205 429.42,-199 429.42,-199 429.42,-181 429.42,-181 429.42,-175 435.42,-169 441.42,-169"/>
</g>
<g id="clust94" class="cluster">
<title>outer_cluster_AttrPair&#45;13</title>
</g>
<g id="clust95" class="cluster">
<title>cluster_AttrPair&#45;13</title>
<path fill="#ffed6f" stroke="black" stroke-dasharray="5,2" d="M91.42,-327C91.42,-327 149.42,-327 149.42,-327 155.42,-327 161.42,-333 161.42,-339 161.42,-339 161.42,-357 161.42,-357 161.42,-363 155.42,-369 149.42,-369 149.42,-369 91.42,-369 91.42,-369 85.42,-369 79.42,-363 79.42,-357 79.42,-357 79.42,-339 79.42,-339 79.42,-333 85.42,-327 91.42,-327"/>
</g>
<g id="clust97" class="cluster">
<title>outer_cluster_AttrPair&#45;5</title>
</g>
<g id="clust98" class="cluster">
<title>cluster_AttrPair&#45;5</title>
<path fill="#ffed6f" stroke="black" stroke-dasharray="5,2" d="M211.42,-248C211.42,-248 269.42,-248 269.42,-248 275.42,-248 281.42,-254 281.42,-260 281.42,-260 281.42,-278 281.42,-278 281.42,-284 275.42,-290 269.42,-290 269.42,-290 211.42,-290 211.42,-290 205.42,-290 199.42,-284 199.42,-278 199.42,-278 199.42,-260 199.42,-260 199.42,-254 205.42,-248 211.42,-248"/>
</g>
<g id="clust100" class="cluster">
<title>outer_cluster_String&#45;3221225478</title>
</g>
<g id="clust101" class="cluster">
<title>cluster_String&#45;3221225478</title>
<path fill="#000000" stroke="black" stroke-dasharray="5,2" d="M235.42,-169C235.42,-169 271.42,-169 271.42,-169 277.42,-169 283.42,-175 283.42,-181 283.42,-181 283.42,-199 283.42,-199 283.42,-205 277.42,-211 271.42,-211 271.42,-211 235.42,-211 235.42,-211 229.42,-211 223.42,-205 223.42,-199 223.42,-199 223.42,-181 223.42,-181 223.42,-175 229.42,-169 235.42,-169"/>
</g>
<g id="clust103" class="cluster">
<title>outer_cluster_String&#45;536870921</title>
</g>
<g id="clust104" class="cluster">
<title>cluster_String&#45;536870921</title>
<path fill="#000000" stroke="black" stroke-dasharray="5,2" d="M123.42,-248C123.42,-248 181.42,-248 181.42,-248 187.42,-248 193.42,-254 193.42,-260 193.42,-260 193.42,-278 193.42,-278 193.42,-284 187.42,-290 181.42,-290 181.42,-290 123.42,-290 123.42,-290 117.42,-290 111.42,-284 111.42,-278 111.42,-278 111.42,-260 111.42,-260 111.42,-254 117.42,-248 123.42,-248"/>
</g>
<g id="clust106" class="cluster">
<title>outer_cluster_String&#45;1879048205</title>
</g>
<g id="clust107" class="cluster">
<title>cluster_String&#45;1879048205</title>
<path fill="#000000" stroke="black" stroke-dasharray="5,2" d="M548.42,-90C548.42,-90 604.42,-90 604.42,-90 610.42,-90 616.42,-96 616.42,-102 616.42,-102 616.42,-120 616.42,-120 616.42,-126 610.42,-132 604.42,-132 604.42,-132 548.42,-132 548.42,-132 542.42,-132 536.42,-126 536.42,-120 536.42,-120 536.42,-102 536.42,-102 536.42,-96 542.42,-90 548.42,-90"/>
</g>
<!-- OpVec&#45;0&#45;&gt;math_sqrt&#45;17720959334994776468 -->
<g id="edge1" class="edge">
<title>OpVec&#45;0:s&#45;&gt;math_sqrt&#45;17720959334994776468</title>
<path fill="none" stroke="black" d="M275.92,-411C275.92,-372.15 267.67,-359.05 284.42,-324 290.48,-311.34 300.8,-300 310.87,-291.01"/>
<polygon fill="black" stroke="black" points="307.84,-294.59 311.44,-290.71 306.2,-291.5 307.84,-294.59"/>
</g>
<!-- OpVec&#45;0&#45;&gt;scf_yield&#45;1714775736476281168 -->
<g id="edge2" class="edge">
<title>OpVec&#45;0:s&#45;&gt;scf_yield&#45;1714775736476281168</title>
<path fill="none" stroke="black" d="M300.92,-411C300.92,-397.73 304.86,-383.51 309.11,-372.03"/>
<polygon fill="black" stroke="black" points="309.39,-375.66 309.85,-370.38 306.2,-374.22 309.39,-375.66"/>
</g>
<!-- math_sqrt&#45;17720959334994776468&#45;&gt;F32&#45;0 -->
<g id="edge28" class="edge">
<title>math_sqrt&#45;17720959334994776468:s&#45;&gt;F32&#45;0</title>
<path fill="none" stroke="black" d="M364.92,-253C364.92,-234.51 356.49,-231.47 350.42,-214 341.01,-186.91 330.98,-155.49 324.48,-134.75"/>
<polygon fill="black" stroke="black" points="327.26,-137.65 324.05,-133.44 323.94,-138.74 327.26,-137.65"/>
</g>
<!-- math_sqrt&#45;17720959334994776468&#45;&gt;NamedAttr&#45;10439477994750310197 -->
<g id="edge27" class="edge">
<title>math_sqrt&#45;17720959334994776468:s&#45;&gt;NamedAttr&#45;10439477994750310197</title>
<path fill="none" stroke="black" d="M347.92,-253C347.92,-243.84 392.12,-223.31 427.42,-208.38"/>
<polygon fill="black" stroke="black" points="425,-212.12 428.17,-207.88 423.04,-209.22 425,-212.12"/>
</g>
<!-- math_sqrt&#45;17720959334994776468&#45;&gt;Value&#45;5871781006564002453 -->
<g id="edge26" class="edge">
<title>math_sqrt&#45;17720959334994776468:s&#45;&gt;Value&#45;5871781006564002453</title>
<path fill="none" stroke="black" d="M322.42,-253C322.42,-235 335.63,-220.16 349.55,-209.51"/>
<polygon fill="black" stroke="black" points="347.83,-213.48 350.31,-208.8 345.45,-210.91 347.83,-213.48"/>
</g>
<!-- scf_yield&#45;1714775736476281168&#45;&gt;math_sqrt&#45;17720959334994776468 -->
<g id="edge20" class="edge">
<title>scf_yield&#45;1714775736476281168:s&#45;&gt;math_sqrt&#45;17720959334994776468</title>
<path fill="none" stroke="black" d="M319.42,-332C319.42,-318.52 323.76,-304.15 328.4,-292.64"/>
<polygon fill="black" stroke="black" points="328.26,-296.56 329.1,-291.33 325.18,-294.89 328.26,-296.56"/>
</g>
<!-- OpVec&#45;1&#45;&gt;arith_negf&#45;17720959334994776468 -->
<g id="edge3" class="edge">
<title>OpVec&#45;1:s&#45;&gt;arith_negf&#45;17720959334994776468</title>
<path fill="none" stroke="black" d="M453.92,-490C453.92,-417.72 442.82,-332.66 436.96,-292.79"/>
<polygon fill="black" stroke="black" points="439.72,-295.67 436.52,-291.44 436.38,-296.74 439.72,-295.67"/>
</g>
<!-- OpVec&#45;1&#45;&gt;math_sqrt&#45;16455843395713391235 -->
<g id="edge4" class="edge">
<title>OpVec&#45;1:s&#45;&gt;math_sqrt&#45;16455843395713391235</title>
<path fill="none" stroke="black" d="M472.42,-490C472.42,-460.4 512.95,-477.36 526.42,-451 539.65,-425.13 525,-392.64 511.69,-371.37"/>
<polygon fill="black" stroke="black" points="515.11,-372.19 510.27,-370.04 512.72,-374.74 515.11,-372.19"/>
</g>
<!-- OpVec&#45;1&#45;&gt;scf_yield&#45;51973628441192654 -->
<g id="edge5" class="edge">
<title>OpVec&#45;1:s&#45;&gt;scf_yield&#45;51973628441192654</title>
<path fill="none" stroke="black" d="M484.92,-490C484.92,-477.03 486.35,-462.62 487.86,-450.96"/>
<polygon fill="black" stroke="black" points="488.61,-454.74 488.29,-449.46 485.24,-453.79 488.61,-454.74"/>
</g>
<!-- arith_negf&#45;17720959334994776468&#45;&gt;F32&#45;0 -->
<g id="edge38" class="edge">
<title>arith_negf&#45;17720959334994776468:s&#45;&gt;F32&#45;0</title>
<path fill="none" stroke="black" d="M458.92,-253C458.92,-231 438.83,-233.39 428.42,-214 417.79,-194.19 427.04,-183.09 412.42,-166 392.91,-143.19 378.33,-150.15 352.42,-135 350.89,-134.11 349.34,-133.17 347.77,-132.22"/>
<polygon fill="black" stroke="black" points="353.44,-134.94 348.55,-132.91 351.11,-137.55 353.44,-134.94"/>
</g>
<!-- arith_negf&#45;17720959334994776468&#45;&gt;NamedAttr&#45;10439477994750310197 -->
<g id="edge37" class="edge">
<title>arith_negf&#45;17720959334994776468:s&#45;&gt;NamedAttr&#45;10439477994750310197</title>
<path fill="none" stroke="black" d="M441.92,-253C441.92,-238.95 448.04,-224.61 454.61,-213.27"/>
<polygon fill="black" stroke="black" points="453.52,-216.87 455.78,-212.08 451.02,-214.41 453.52,-216.87"/>
</g>
<!-- arith_negf&#45;17720959334994776468&#45;&gt;Value&#45;5871781006564002453 -->
<g id="edge36" class="edge">
<title>arith_negf&#45;17720959334994776468:s&#45;&gt;Value&#45;5871781006564002453</title>
<path fill="none" stroke="black" d="M416.42,-253C416.42,-238.32 408.89,-223.91 400.81,-212.68"/>
<polygon fill="black" stroke="black" points="404.97,-214.29 400.16,-212.06 402.52,-216.8 404.97,-214.29"/>
</g>
<!-- math_sqrt&#45;16455843395713391235&#45;&gt;arith_negf&#45;17720959334994776468 -->
<g id="edge15" class="edge">
<title>math_sqrt&#45;16455843395713391235:s&#45;&gt;arith_negf&#45;17720959334994776468</title>
<path fill="none" stroke="black" d="M478.42,-332C478.42,-316.52 469.12,-302.3 458.98,-291.4"/>
<polygon fill="black" stroke="black" points="463.42,-293.42 458.67,-291.08 460.92,-295.87 463.42,-293.42"/>
</g>
<!-- math_sqrt&#45;16455843395713391235&#45;&gt;F32&#45;0 -->
<g id="edge17" class="edge">
<title>math_sqrt&#45;16455843395713391235:s&#45;&gt;F32&#45;0</title>
<path fill="none" stroke="black" d="M520.92,-332C520.92,-258.13 560.87,-221.77 512.42,-166 464.92,-111.32 419.52,-162.3 352.42,-135 350.28,-134.13 348.12,-133.11 345.99,-132.01"/>
<polygon fill="black" stroke="black" points="352,-130.38 346.96,-132.03 351.93,-133.88 352,-130.38"/>
</g>
<!-- math_sqrt&#45;16455843395713391235&#45;&gt;NamedAttr&#45;10439477994750310197 -->
<g id="edge16" class="edge">
<title>math_sqrt&#45;16455843395713391235:s&#45;&gt;NamedAttr&#45;10439477994750310197</title>
<path fill="none" stroke="black" d="M503.92,-332C503.92,-289.19 489.13,-241.01 479.2,-213.5"/>
<polygon fill="black" stroke="black" points="482.37,-216.17 478.68,-212.37 479.2,-217.65 482.37,-216.17"/>
</g>
<!-- scf_yield&#45;51973628441192654&#45;&gt;math_sqrt&#45;16455843395713391235 -->
<g id="edge35" class="edge">
<title>scf_yield&#45;51973628441192654:s&#45;&gt;math_sqrt&#45;16455843395713391235</title>
<path fill="none" stroke="black" d="M491.42,-411C491.42,-398.08 492.3,-383.67 493.23,-372"/>
<polygon fill="black" stroke="black" points="494.36,-375.72 493.49,-370.49 490.92,-375.12 494.36,-375.72"/>
</g>
<!-- Blk&#45;0&#45;&gt;OpVec&#45;0 -->
<g id="edge6" class="edge">
<title>Blk&#45;0:s&#45;&gt;OpVec&#45;0</title>
<path fill="none" stroke="black" d="M298.42,-569C298.42,-527.42 294.04,-479.12 291.08,-451.21"/>
<polygon fill="black" stroke="black" points="293.47,-454.01 290.71,-449.48 290.04,-454.74 293.47,-454.01"/>
</g>
<!-- Blk&#45;5871781006564002453&#45;&gt;OpVec&#45;1 -->
<g id="edge7" class="edge">
<title>Blk&#45;5871781006564002453:s&#45;&gt;OpVec&#45;1</title>
<path fill="none" stroke="black" d="M451.42,-569C451.42,-555.82 454.66,-541.51 458.13,-529.95"/>
<polygon fill="black" stroke="black" points="457.96,-533.41 459.23,-528.27 455.03,-531.49 457.96,-533.41"/>
</g>
<!-- FloatAttr&#45;5871781006564002453&#45;&gt;F32&#45;0 -->
<g id="edge9" class="edge">
<title>FloatAttr&#45;5871781006564002453:s&#45;&gt;F32&#45;0</title>
<path fill="none" stroke="black" d="M197.92,-174C197.92,-134.94 248.84,-120.46 284.2,-115.11"/>
<polygon fill="black" stroke="black" points="281.62,-117.64 285.97,-114.62 280.68,-114.27 281.62,-117.64"/>
</g>
<!-- FloatAttr&#45;5871781006564002453&#45;&gt;f64&#45;0 -->
<g id="edge8" class="edge">
<title>FloatAttr&#45;5871781006564002453:s&#45;&gt;f64&#45;0</title>
<path fill="none" stroke="black" d="M168.42,-174C168.42,-161.22 168.42,-146.96 168.42,-135.35"/>
<polygon fill="black" stroke="black" points="170.17,-138.51 168.42,-133.51 166.67,-138.51 170.17,-138.51"/>
</g>
<!-- arith_fastmath&#45;10080759905092916392&#45;&gt;none&#45;0 -->
<g id="edge10" class="edge">
<title>arith_fastmath&#45;10080759905092916392:s&#45;&gt;none&#45;0</title>
<path fill="none" stroke="black" d="M479.42,-95C479.42,-82.22 479.42,-67.96 479.42,-56.35"/>
<polygon fill="black" stroke="black" points="481.17,-59.51 479.42,-54.51 477.67,-59.51 481.17,-59.51"/>
</g>
<!-- IntegerAttr&#45;5363064066095506329&#45;&gt;I64&#45;0 -->
<g id="edge12" class="edge">
<title>IntegerAttr&#45;5363064066095506329:s&#45;&gt;I64&#45;0</title>
<path fill="none" stroke="black" d="M82.92,-253C82.92,-238.77 89.47,-224.42 96.5,-213.12"/>
<polygon fill="black" stroke="black" points="95.69,-217.35 97.1,-212.25 92.81,-215.36 95.69,-217.35"/>
</g>
<!-- IntegerAttr&#45;5363064066095506329&#45;&gt;i64&#45;3 -->
<g id="edge11" class="edge">
<title>IntegerAttr&#45;5363064066095506329:s&#45;&gt;i64&#45;3</title>
<path fill="none" stroke="black" d="M47.42,-253C47.42,-240.22 47.42,-225.96 47.42,-214.35"/>
<polygon fill="black" stroke="black" points="49.17,-217.51 47.42,-212.51 45.67,-217.51 49.17,-217.51"/>
</g>
<!-- BlockVec&#45;0&#45;&gt;Blk&#45;0 -->
<g id="edge13" class="edge">
<title>BlockVec&#45;0:s&#45;&gt;Blk&#45;0</title>
<path fill="none" stroke="black" d="M300.42,-648C300.42,-635.22 299.99,-620.96 299.53,-609.34"/>
<polygon fill="black" stroke="black" points="301.53,-612.35 299.38,-607.51 298.05,-612.63 301.53,-612.35"/>
</g>
<!-- BlockVec&#45;1&#45;&gt;Blk&#45;5871781006564002453 -->
<g id="edge14" class="edge">
<title>BlockVec&#45;1:s&#45;&gt;Blk&#45;5871781006564002453</title>
<path fill="none" stroke="black" d="M430.42,-648C430.42,-634.45 434.98,-620.08 439.84,-608.58"/>
<polygon fill="black" stroke="black" points="439.54,-612.48 440.62,-607.3 436.54,-610.68 439.54,-612.48"/>
</g>
<!-- NamedAttr&#45;10439477994750310197&#45;&gt;arith_fastmath&#45;10080759905092916392 -->
<g id="edge44" class="edge">
<title>NamedAttr&#45;10439477994750310197:s&#45;&gt;arith_fastmath&#45;10080759905092916392</title>
<path fill="none" stroke="black" d="M488.42,-174C488.42,-160.97 486.45,-146.55 484.35,-134.91"/>
<polygon fill="black" stroke="black" points="487.24,-137.39 483.75,-133.4 483.99,-138.7 487.24,-137.39"/>
</g>
<!-- NamedAttr&#45;10439477994750310197&#45;&gt;String&#45;1879048205 -->
<g id="edge43" class="edge">
<title>NamedAttr&#45;10439477994750310197:s&#45;&gt;String&#45;1879048205</title>
<path fill="none" stroke="black" d="M451.92,-174C451.92,-134.64 496.23,-152.62 531.42,-135 531.55,-134.94 531.67,-134.88 531.79,-134.82"/>
<polygon fill="black" stroke="black" points="532.36,-136.49 536.04,-132.68 530.79,-133.36 532.36,-136.49"/>
</g>
<!-- Value&#45;5871781006564002453&#45;&gt;F32&#45;0 -->
<g id="edge19" class="edge">
<title>Value&#45;5871781006564002453:s&#45;&gt;F32&#45;0</title>
<path fill="none" stroke="black" d="M391.92,-174C391.92,-167.8 367.19,-148.16 346.23,-132.63"/>
<polygon fill="black" stroke="black" points="351.59,-133.4 346.34,-132.69 350.01,-136.52 351.59,-133.4"/>
</g>
<!-- Value&#45;5871781006564002453&#45;&gt;i64&#45;0 -->
<g id="edge18" class="edge">
<title>Value&#45;5871781006564002453:s&#45;&gt;i64&#45;0</title>
<path fill="none" stroke="black" d="M370.92,-174C370.92,-160.94 373.62,-146.63 376.51,-135.05"/>
<polygon fill="black" stroke="black" points="376.63,-138.58 377.42,-133.34 373.53,-136.94 376.63,-138.58"/>
</g>
<!-- arith_cmpf&#45;444619395108343417&#45;&gt;I1&#45;0 -->
<g id="edge25" class="edge">
<title>arith_cmpf&#45;444619395108343417:s&#45;&gt;I1&#45;0</title>
<path fill="none" stroke="black" d="M397.42,-411C397.42,-398 395.67,-383.58 393.81,-371.93"/>
<polygon fill="black" stroke="black" points="396.59,-374.56 393.28,-370.43 393.29,-375.72 396.59,-374.56"/>
</g>
<!-- arith_cmpf&#45;444619395108343417&#45;&gt;NamedAttr&#45;10439477994750310197 -->
<g id="edge23" class="edge">
<title>arith_cmpf&#45;444619395108343417:s&#45;&gt;NamedAttr&#45;10439477994750310197</title>
<path fill="none" stroke="black" d="M386.42,-411C386.42,-385.85 411.92,-391.8 427.42,-372 430.54,-368.02 471.13,-297.88 472.42,-293 479.38,-266.74 477.28,-235.32 474.48,-214.36"/>
<polygon fill="black" stroke="black" points="476.97,-216.82 473.96,-212.46 473.6,-217.74 476.97,-216.82"/>
</g>
<!-- arith_cmpf&#45;444619395108343417&#45;&gt;Value&#45;5871781006564002453 -->
<g id="edge21" class="edge">
<title>arith_cmpf&#45;444619395108343417:s&#45;&gt;Value&#45;5871781006564002453</title>
<path fill="none" stroke="black" d="M346.42,-411C346.42,-373.82 401.22,-403.83 420.42,-372 431.44,-353.73 427.72,-344.05 420.42,-324 414.28,-307.1 401.63,-309.48 394.42,-293 383.27,-267.51 380.88,-235.24 380.72,-213.9"/>
<polygon fill="black" stroke="black" points="382.45,-217.52 380.72,-212.51 378.95,-217.51 382.45,-217.52"/>
</g>
<!-- arith_cmpf&#45;444619395108343417&#45;&gt;arith_constant&#45;7223664373682896047 -->
<g id="edge22" class="edge">
<title>arith_cmpf&#45;444619395108343417:s&#45;&gt;arith_constant&#45;7223664373682896047</title>
<path fill="none" stroke="black" d="M372.92,-411C372.92,-405.33 315.18,-383.55 270.07,-367.4"/>
<polygon fill="black" stroke="black" points="274.1,-367.22 268.81,-366.86 272.72,-370.44 274.1,-367.22"/>
</g>
<!-- arith_cmpf&#45;444619395108343417&#45;&gt;NamedAttr&#45;532458502365569988 -->
<g id="edge24" class="edge">
<title>arith_cmpf&#45;444619395108343417:s&#45;&gt;NamedAttr&#45;532458502365569988</title>
<path fill="none" stroke="black" d="M392.92,-411C392.92,-359.93 214.95,-387.92 166.42,-372 165.67,-371.75 164.91,-371.49 164.15,-371.22"/>
<polygon fill="black" stroke="black" points="165,-369.68 159.71,-369.54 163.76,-372.95 165,-369.68"/>
</g>
<!-- arith_constant&#45;7223664373682896047&#45;&gt;F32&#45;0 -->
<g id="edge30" class="edge">
<title>arith_constant&#45;7223664373682896047:s&#45;&gt;F32&#45;0</title>
<path fill="none" stroke="black" d="M240.42,-332C240.42,-306.53 270.06,-315.27 282.42,-293 297.32,-266.17 309.53,-177.99 314.73,-135.42"/>
<polygon fill="black" stroke="black" points="315.77,-138.74 315.17,-133.48 312.36,-137.97 315.77,-138.74"/>
</g>
<!-- arith_constant&#45;7223664373682896047&#45;&gt;NamedAttr&#45;1773198441008368060 -->
<g id="edge29" class="edge">
<title>arith_constant&#45;7223664373682896047:s&#45;&gt;NamedAttr&#45;1773198441008368060</title>
<path fill="none" stroke="black" d="M194.42,-332C194.42,-316.4 203.93,-302.17 214.3,-291.29"/>
<polygon fill="black" stroke="black" points="212.03,-295.61 214.63,-291 209.72,-292.98 212.03,-295.61"/>
</g>
<!-- NamedAttr&#45;532458502365569988&#45;&gt;IntegerAttr&#45;5363064066095506329 -->
<g id="edge46" class="edge">
<title>NamedAttr&#45;532458502365569988:s&#45;&gt;IntegerAttr&#45;5363064066095506329</title>
<path fill="none" stroke="black" d="M138.42,-332C138.42,-320.68 117.76,-303.85 98.42,-290.59"/>
<polygon fill="black" stroke="black" points="103.71,-290.9 98.42,-290.59 102.35,-294.13 103.71,-290.9"/>
</g>
<!-- NamedAttr&#45;532458502365569988&#45;&gt;String&#45;536870921 -->
<g id="edge45" class="edge">
<title>NamedAttr&#45;532458502365569988:s&#45;&gt;String&#45;536870921</title>
<path fill="none" stroke="black" d="M101.92,-332C101.92,-315.94 112.23,-301.74 123.53,-291"/>
<polygon fill="black" stroke="black" points="120.56,-295.02 123.79,-290.83 118.65,-292.08 120.56,-295.02"/>
</g>
<!-- NamedAttr&#45;1773198441008368060&#45;&gt;FloatAttr&#45;5871781006564002453 -->
<g id="edge48" class="edge">
<title>NamedAttr&#45;1773198441008368060:s&#45;&gt;FloatAttr&#45;5871781006564002453</title>
<path fill="none" stroke="black" d="M258.42,-253C258.42,-241.45 237.01,-224.54 217.07,-211.3"/>
<polygon fill="black" stroke="black" points="222.52,-210.76 217.25,-211.34 221.73,-214.17 222.52,-210.76"/>
</g>
<!-- NamedAttr&#45;1773198441008368060&#45;&gt;String&#45;3221225478 -->
<g id="edge47" class="edge">
<title>NamedAttr&#45;1773198441008368060:s&#45;&gt;String&#45;3221225478</title>
<path fill="none" stroke="black" d="M221.92,-253C221.92,-238.68 228.68,-224.32 235.94,-213.04"/>
<polygon fill="black" stroke="black" points="234.91,-217.22 236.59,-212.2 232.15,-215.08 234.91,-217.22"/>
</g>
<!-- scf_if&#45;6534449784372148832&#45;&gt;F32&#45;0 -->
<g id="edge34" class="edge">
<title>scf_if&#45;6534449784372148832:s&#45;&gt;F32&#45;0</title>
<path fill="none" stroke="black" d="M356.42,-806C356.42,-785.14 8.42,-685.86 8.42,-665 8.42,-665 8.42,-665 8.42,-268 8.42,-222.53 -14.26,-199.56 16.42,-166 44.25,-135.56 158.85,-142.39 199.42,-135 228.26,-129.75 260.98,-123.34 284.63,-118.62"/>
<polygon fill="black" stroke="black" points="282.16,-121.61 286.04,-118 280.75,-118.4 282.16,-121.61"/>
</g>
<!-- scf_if&#45;6534449784372148832&#45;&gt;arith_cmpf&#45;444619395108343417 -->
<g id="edge31" class="edge">
<title>scf_if&#45;6534449784372148832:s&#45;&gt;arith_cmpf&#45;444619395108343417</title>
<path fill="none" stroke="black" d="M329.42,-806C329.42,-787.73 337.94,-784.71 342.42,-767 353.73,-722.38 360.42,-711.03 360.42,-665 360.42,-665 360.42,-665 360.42,-584 360.42,-536.9 362.27,-481.83 363.45,-451.33"/>
<polygon fill="black" stroke="black" points="364.95,-454.63 363.59,-449.51 361.46,-454.36 364.95,-454.63"/>
</g>
<!-- scf_if&#45;6534449784372148832&#45;&gt;Reg&#45;0 -->
<g id="edge32" class="edge">
<title>scf_if&#45;6534449784372148832:s&#45;&gt;Reg&#45;0</title>
<path fill="none" stroke="black" d="M343.92,-806C343.92,-791.69 337.05,-777.43 329.62,-766.2"/>
<polygon fill="black" stroke="black" points="333.29,-768.14 328.87,-765.21 330.49,-770.25 333.29,-768.14"/>
</g>
<!-- scf_if&#45;6534449784372148832&#45;&gt;Reg&#45;5871781006564002453 -->
<g id="edge33" class="edge">
<title>scf_if&#45;6534449784372148832:s&#45;&gt;Reg&#45;5871781006564002453</title>
<path fill="none" stroke="black" d="M351.42,-806C351.42,-786.56 366.85,-771.18 382.44,-760.6"/>
<polygon fill="black" stroke="black" points="380.11,-764.38 383.19,-760.07 378.09,-761.52 380.11,-764.38"/>
</g>
<!-- Reg&#45;0&#45;&gt;BlockVec&#45;0 -->
<g id="edge42" class="edge">
<title>Reg&#45;0:s&#45;&gt;BlockVec&#45;0</title>
<path fill="none" stroke="black" d="M311.42,-727C311.42,-713.99 309.05,-699.69 306.5,-688.1"/>
<polygon fill="black" stroke="black" points="309.39,-690.2 305.72,-686.38 306.21,-691.65 309.39,-690.2"/>
</g>
<!-- Reg&#45;5871781006564002453&#45;&gt;BlockVec&#45;1 -->
<g id="edge41" class="edge">
<title>Reg&#45;5871781006564002453:s&#45;&gt;BlockVec&#45;1</title>
<path fill="none" stroke="black" d="M414.42,-727C414.42,-713.77 417.88,-699.45 421.58,-687.91"/>
<polygon fill="black" stroke="black" points="422.05,-691.72 422.12,-686.42 418.76,-690.52 422.05,-691.72"/>
</g>
<!-- Value&#45;16764672366980485282&#45;&gt;None&#45;0 -->
<g id="edge40" class="edge">
<title>Value&#45;16764672366980485282:s&#45;&gt;None&#45;0</title>
<path fill="none" stroke="black" d="M541.92,-806C541.92,-790.58 532.8,-776.28 522.91,-765.31"/>
<polygon fill="black" stroke="black" points="527.43,-767.48 522.7,-765.09 524.9,-769.9 527.43,-767.48"/>
</g>
<!-- Value&#45;16764672366980485282&#45;&gt;i64&#45;9 -->
<g id="edge39" class="edge">
<title>Value&#45;16764672366980485282:s&#45;&gt;i64&#45;9</title>
<path fill="none" stroke="black" d="M520.92,-806C520.92,-790.58 530.05,-776.28 539.94,-765.31"/>
<polygon fill="black" stroke="black" points="537.94,-769.9 540.15,-765.09 535.42,-767.48 537.94,-769.9"/>
</g>
<!-- OpVec&#45;0 -->
<g id="node1" class="node">
<title>OpVec&#45;0</title>
<g id="a_node1"><a xlink:title="OpVec&#45;0: OpVec&#45;0">
<path fill="white" stroke="none" d="M273.09,-411C273.09,-411 303.76,-411 303.76,-411 309.09,-411 314.42,-416.33 314.42,-421.67 314.42,-421.67 314.42,-432.33 314.42,-432.33 314.42,-437.67 309.09,-443 303.76,-443 303.76,-443 273.09,-443 273.09,-443 267.76,-443 262.42,-437.67 262.42,-432.33 262.42,-432.33 262.42,-421.67 262.42,-421.67 262.42,-416.33 267.76,-411 273.09,-411"/>
<text text-anchor="start" x="267.42" y="-421.2" font-family="Helvetica,sans-Serif" font-size="14.00">OpVec</text>
<path fill="none" stroke="black" d="M273.09,-411C273.09,-411 303.76,-411 303.76,-411 309.09,-411 314.42,-416.33 314.42,-421.67 314.42,-421.67 314.42,-432.33 314.42,-432.33 314.42,-437.67 309.09,-443 303.76,-443 303.76,-443 273.09,-443 273.09,-443 267.76,-443 262.42,-437.67 262.42,-432.33 262.42,-432.33 262.42,-421.67 262.42,-421.67 262.42,-416.33 267.76,-411 273.09,-411"/>
</a>
</g>
</g>
<!-- math_sqrt&#45;17720959334994776468 -->
<g id="node2" class="node">
<title>math_sqrt&#45;17720959334994776468</title>
<g id="a_node2"><a xlink:title="Op&#45;16: math_sqrt&#45;17720959334994776468">
<path fill="white" stroke="none" d="M315.09,-253C315.09,-253 363.76,-253 363.76,-253 369.09,-253 374.42,-258.33 374.42,-263.67 374.42,-263.67 374.42,-274.33 374.42,-274.33 374.42,-279.67 369.09,-285 363.76,-285 363.76,-285 315.09,-285 315.09,-285 309.76,-285 304.42,-279.67 304.42,-274.33 304.42,-274.33 304.42,-263.67 304.42,-263.67 304.42,-258.33 309.76,-253 315.09,-253"/>
<text text-anchor="start" x="309.05" y="-263.2" font-family="Helvetica,sans-Serif" font-size="14.00">math_sqrt</text>
<path fill="none" stroke="black" d="M315.09,-253C315.09,-253 363.76,-253 363.76,-253 369.09,-253 374.42,-258.33 374.42,-263.67 374.42,-263.67 374.42,-274.33 374.42,-274.33 374.42,-279.67 369.09,-285 363.76,-285 363.76,-285 315.09,-285 315.09,-285 309.76,-285 304.42,-279.67 304.42,-274.33 304.42,-274.33 304.42,-263.67 304.42,-263.67 304.42,-258.33 309.76,-253 315.09,-253"/>
</a>
</g>
</g>
<!-- scf_yield&#45;1714775736476281168 -->
<g id="node3" class="node">
<title>scf_yield&#45;1714775736476281168</title>
<g id="a_node3"><a xlink:title="Op&#45;18: scf_yield&#45;1714775736476281168">
<path fill="white" stroke="none" d="M298.84,-332C298.84,-332 340.01,-332 340.01,-332 345.34,-332 350.67,-337.33 350.67,-342.67 350.67,-342.67 350.67,-353.33 350.67,-353.33 350.67,-358.67 345.34,-364 340.01,-364 340.01,-364 298.84,-364 298.84,-364 293.51,-364 288.17,-358.67 288.17,-353.33 288.17,-353.33 288.17,-342.67 288.17,-342.67 288.17,-337.33 293.51,-332 298.84,-332"/>
<text text-anchor="start" x="293.17" y="-342.2" font-family="Helvetica,sans-Serif" font-size="14.00">scf_yield</text>
<path fill="none" stroke="black" d="M298.84,-332C298.84,-332 340.01,-332 340.01,-332 345.34,-332 350.67,-337.33 350.67,-342.67 350.67,-342.67 350.67,-353.33 350.67,-353.33 350.67,-358.67 345.34,-364 340.01,-364 340.01,-364 298.84,-364 298.84,-364 293.51,-364 288.17,-358.67 288.17,-353.33 288.17,-353.33 288.17,-342.67 288.17,-342.67 288.17,-337.33 293.51,-332 298.84,-332"/>
</a>
</g>
</g>
<!-- OpVec&#45;1 -->
<g id="node4" class="node">
<title>OpVec&#45;1</title>
<g id="a_node4"><a xlink:title="OpVec&#45;1: OpVec&#45;1">
<path fill="white" stroke="none" d="M451.09,-490C451.09,-490 481.76,-490 481.76,-490 487.09,-490 492.42,-495.33 492.42,-500.67 492.42,-500.67 492.42,-511.33 492.42,-511.33 492.42,-516.67 487.09,-522 481.76,-522 481.76,-522 451.09,-522 451.09,-522 445.76,-522 440.42,-516.67 440.42,-511.33 440.42,-511.33 440.42,-500.67 440.42,-500.67 440.42,-495.33 445.76,-490 451.09,-490"/>
<text text-anchor="start" x="445.42" y="-500.2" font-family="Helvetica,sans-Serif" font-size="14.00">OpVec</text>
<path fill="none" stroke="black" d="M451.09,-490C451.09,-490 481.76,-490 481.76,-490 487.09,-490 492.42,-495.33 492.42,-500.67 492.42,-500.67 492.42,-511.33 492.42,-511.33 492.42,-516.67 487.09,-522 481.76,-522 481.76,-522 451.09,-522 451.09,-522 445.76,-522 440.42,-516.67 440.42,-511.33 440.42,-511.33 440.42,-500.67 440.42,-500.67 440.42,-495.33 445.76,-490 451.09,-490"/>
</a>
</g>
</g>
<!-- arith_negf&#45;17720959334994776468 -->
<g id="node5" class="node">
<title>arith_negf&#45;17720959334994776468</title>
<g id="a_node5"><a xlink:title="Op&#45;20: arith_negf&#45;17720959334994776468">
<path fill="white" stroke="none" d="M409.09,-253C409.09,-253 457.76,-253 457.76,-253 463.09,-253 468.42,-258.33 468.42,-263.67 468.42,-263.67 468.42,-274.33 468.42,-274.33 468.42,-279.67 463.09,-285 457.76,-285 457.76,-285 409.09,-285 409.09,-285 403.76,-285 398.42,-279.67 398.42,-274.33 398.42,-274.33 398.42,-263.67 398.42,-263.67 398.42,-258.33 403.76,-253 409.09,-253"/>
<text text-anchor="start" x="403.42" y="-263.2" font-family="Helvetica,sans-Serif" font-size="14.00">arith_negf</text>
<path fill="none" stroke="black" d="M409.09,-253C409.09,-253 457.76,-253 457.76,-253 463.09,-253 468.42,-258.33 468.42,-263.67 468.42,-263.67 468.42,-274.33 468.42,-274.33 468.42,-279.67 463.09,-285 457.76,-285 457.76,-285 409.09,-285 409.09,-285 403.76,-285 398.42,-279.67 398.42,-274.33 398.42,-274.33 398.42,-263.67 398.42,-263.67 398.42,-258.33 403.76,-253 409.09,-253"/>
</a>
</g>
</g>
<!-- math_sqrt&#45;16455843395713391235 -->
<g id="node6" class="node">
<title>math_sqrt&#45;16455843395713391235</title>
<g id="a_node6"><a xlink:title="Op&#45;22: math_sqrt&#45;16455843395713391235">
<path fill="white" stroke="none" d="M471.09,-332C471.09,-332 519.76,-332 519.76,-332 525.09,-332 530.42,-337.33 530.42,-342.67 530.42,-342.67 530.42,-353.33 530.42,-353.33 530.42,-358.67 525.09,-364 519.76,-364 519.76,-364 471.09,-364 471.09,-364 465.76,-364 460.42,-358.67 460.42,-353.33 460.42,-353.33 460.42,-342.67 460.42,-342.67 460.42,-337.33 465.76,-332 471.09,-332"/>
<text text-anchor="start" x="465.05" y="-342.2" font-family="Helvetica,sans-Serif" font-size="14.00">math_sqrt</text>
<path fill="none" stroke="black" d="M471.09,-332C471.09,-332 519.76,-332 519.76,-332 525.09,-332 530.42,-337.33 530.42,-342.67 530.42,-342.67 530.42,-353.33 530.42,-353.33 530.42,-358.67 525.09,-364 519.76,-364 519.76,-364 471.09,-364 471.09,-364 465.76,-364 460.42,-358.67 460.42,-353.33 460.42,-353.33 460.42,-342.67 460.42,-342.67 460.42,-337.33 465.76,-332 471.09,-332"/>
</a>
</g>
</g>
<!-- scf_yield&#45;51973628441192654 -->
<g id="node7" class="node">
<title>scf_yield&#45;51973628441192654</title>
<g id="a_node7"><a xlink:title="Op&#45;24: scf_yield&#45;51973628441192654">
<path fill="white" stroke="none" d="M470.84,-411C470.84,-411 512.01,-411 512.01,-411 517.34,-411 522.67,-416.33 522.67,-421.67 522.67,-421.67 522.67,-432.33 522.67,-432.33 522.67,-437.67 517.34,-443 512.01,-443 512.01,-443 470.84,-443 470.84,-443 465.51,-443 460.17,-437.67 460.17,-432.33 460.17,-432.33 460.17,-421.67 460.17,-421.67 460.17,-416.33 465.51,-411 470.84,-411"/>
<text text-anchor="start" x="465.17" y="-421.2" font-family="Helvetica,sans-Serif" font-size="14.00">scf_yield</text>
<path fill="none" stroke="black" d="M470.84,-411C470.84,-411 512.01,-411 512.01,-411 517.34,-411 522.67,-416.33 522.67,-421.67 522.67,-421.67 522.67,-432.33 522.67,-432.33 522.67,-437.67 517.34,-443 512.01,-443 512.01,-443 470.84,-443 470.84,-443 465.51,-443 460.17,-437.67 460.17,-432.33 460.17,-432.33 460.17,-421.67 460.17,-421.67 460.17,-416.33 465.51,-411 470.84,-411"/>
</a>
</g>
</g>
<!-- F32&#45;0 -->
<g id="node8" class="node">
<title>F32&#45;0</title>
<g id="a_node8"><a xlink:title="Type&#45;1: F32&#45;0">
<path fill="white" stroke="none" d="M311.47,-95C311.47,-95 323.38,-95 323.38,-95 328.72,-95 334.05,-100.33 334.05,-105.67 334.05,-105.67 334.05,-116.33 334.05,-116.33 334.05,-121.67 328.72,-127 323.38,-127 323.38,-127 311.47,-127 311.47,-127 306.13,-127 300.8,-121.67 300.8,-116.33 300.8,-116.33 300.8,-105.67 300.8,-105.67 300.8,-100.33 306.13,-95 311.47,-95"/>
<text text-anchor="start" x="305.8" y="-105.2" font-family="Helvetica,sans-Serif" font-size="14.00">F32</text>
<path fill="none" stroke="black" d="M311.47,-95C311.47,-95 323.38,-95 323.38,-95 328.72,-95 334.05,-100.33 334.05,-105.67 334.05,-105.67 334.05,-116.33 334.05,-116.33 334.05,-121.67 328.72,-127 323.38,-127 323.38,-127 311.47,-127 311.47,-127 306.13,-127 300.8,-121.67 300.8,-116.33 300.8,-116.33 300.8,-105.67 300.8,-105.67 300.8,-100.33 306.13,-95 311.47,-95"/>
</a>
</g>
</g>
<!-- None&#45;0 -->
<g id="node9" class="node">
<title>None&#45;0</title>
<g id="a_node9"><a xlink:title="Type&#45;33: None&#45;0">
<path fill="white" stroke="none" d="M487.97,-727C487.97,-727 508.88,-727 508.88,-727 514.22,-727 519.55,-732.33 519.55,-737.67 519.55,-737.67 519.55,-748.33 519.55,-748.33 519.55,-753.67 514.22,-759 508.88,-759 508.88,-759 487.97,-759 487.97,-759 482.63,-759 477.3,-753.67 477.3,-748.33 477.3,-748.33 477.3,-737.67 477.3,-737.67 477.3,-732.33 482.63,-727 487.97,-727"/>
<text text-anchor="start" x="482.3" y="-737.2" font-family="Helvetica,sans-Serif" font-size="14.00">None</text>
<path fill="none" stroke="black" d="M487.97,-727C487.97,-727 508.88,-727 508.88,-727 514.22,-727 519.55,-732.33 519.55,-737.67 519.55,-737.67 519.55,-748.33 519.55,-748.33 519.55,-753.67 514.22,-759 508.88,-759 508.88,-759 487.97,-759 487.97,-759 482.63,-759 477.3,-753.67 477.3,-748.33 477.3,-748.33 477.3,-737.67 477.3,-737.67 477.3,-732.33 482.63,-727 487.97,-727"/>
</a>
</g>
</g>
<!-- I64&#45;0 -->
<g id="node10" class="node">
<title>I64&#45;0</title>
<g id="a_node10"><a xlink:title="Type&#45;11: I64&#45;0">
<path fill="white" stroke="none" d="M108.09,-174C108.09,-174 118.76,-174 118.76,-174 124.09,-174 129.42,-179.33 129.42,-184.67 129.42,-184.67 129.42,-195.33 129.42,-195.33 129.42,-200.67 124.09,-206 118.76,-206 118.76,-206 108.09,-206 108.09,-206 102.76,-206 97.42,-200.67 97.42,-195.33 97.42,-195.33 97.42,-184.67 97.42,-184.67 97.42,-179.33 102.76,-174 108.09,-174"/>
<text text-anchor="start" x="104.05" y="-184.2" font-family="Helvetica,sans-Serif" font-size="14.00">I64</text>
<path fill="none" stroke="black" d="M108.09,-174C108.09,-174 118.76,-174 118.76,-174 124.09,-174 129.42,-179.33 129.42,-184.67 129.42,-184.67 129.42,-195.33 129.42,-195.33 129.42,-200.67 124.09,-206 118.76,-206 118.76,-206 108.09,-206 108.09,-206 102.76,-206 97.42,-200.67 97.42,-195.33 97.42,-195.33 97.42,-184.67 97.42,-184.67 97.42,-179.33 102.76,-174 108.09,-174"/>
</a>
</g>
</g>
<!-- I1&#45;0 -->
<g id="node11" class="node">
<title>I1&#45;0</title>
<g id="a_node11"><a xlink:title="Type&#45;14: I1&#45;0">
<path fill="white" stroke="none" d="M384.09,-332C384.09,-332 394.76,-332 394.76,-332 400.09,-332 405.42,-337.33 405.42,-342.67 405.42,-342.67 405.42,-353.33 405.42,-353.33 405.42,-358.67 400.09,-364 394.76,-364 394.76,-364 384.09,-364 384.09,-364 378.76,-364 373.42,-358.67 373.42,-353.33 373.42,-353.33 373.42,-342.67 373.42,-342.67 373.42,-337.33 378.76,-332 384.09,-332"/>
<text text-anchor="start" x="383.8" y="-342.2" font-family="Helvetica,sans-Serif" font-size="14.00">I1</text>
<path fill="none" stroke="black" d="M384.09,-332C384.09,-332 394.76,-332 394.76,-332 400.09,-332 405.42,-337.33 405.42,-342.67 405.42,-342.67 405.42,-353.33 405.42,-353.33 405.42,-358.67 400.09,-364 394.76,-364 394.76,-364 384.09,-364 384.09,-364 378.76,-364 373.42,-358.67 373.42,-353.33 373.42,-353.33 373.42,-342.67 373.42,-342.67 373.42,-337.33 378.76,-332 384.09,-332"/>
</a>
</g>
</g>
<!-- Blk&#45;0 -->
<g id="node12" class="node">
<title>Blk&#45;0</title>
<g id="a_node12"><a xlink:title="Block&#45;27: Blk&#45;0">
<path fill="white" stroke="none" d="M293.09,-569C293.09,-569 303.76,-569 303.76,-569 309.09,-569 314.42,-574.33 314.42,-579.67 314.42,-579.67 314.42,-590.33 314.42,-590.33 314.42,-595.67 309.09,-601 303.76,-601 303.76,-601 293.09,-601 293.09,-601 287.76,-601 282.42,-595.67 282.42,-590.33 282.42,-590.33 282.42,-579.67 282.42,-579.67 282.42,-574.33 287.76,-569 293.09,-569"/>
<text text-anchor="start" x="289.05" y="-579.2" font-family="Helvetica,sans-Serif" font-size="14.00">Blk</text>
<path fill="none" stroke="black" d="M293.09,-569C293.09,-569 303.76,-569 303.76,-569 309.09,-569 314.42,-574.33 314.42,-579.67 314.42,-579.67 314.42,-590.33 314.42,-590.33 314.42,-595.67 309.09,-601 303.76,-601 303.76,-601 293.09,-601 293.09,-601 287.76,-601 282.42,-595.67 282.42,-590.33 282.42,-590.33 282.42,-579.67 282.42,-579.67 282.42,-574.33 287.76,-569 293.09,-569"/>
</a>
</g>
</g>
<!-- Blk&#45;5871781006564002453 -->
<g id="node13" class="node">
<title>Blk&#45;5871781006564002453</title>
<g id="a_node13"><a xlink:title="Block&#45;29: Blk&#45;5871781006564002453">
<path fill="white" stroke="none" d="M446.09,-569C446.09,-569 456.76,-569 456.76,-569 462.09,-569 467.42,-574.33 467.42,-579.67 467.42,-579.67 467.42,-590.33 467.42,-590.33 467.42,-595.67 462.09,-601 456.76,-601 456.76,-601 446.09,-601 446.09,-601 440.76,-601 435.42,-595.67 435.42,-590.33 435.42,-590.33 435.42,-579.67 435.42,-579.67 435.42,-574.33 440.76,-569 446.09,-569"/>
<text text-anchor="start" x="442.05" y="-579.2" font-family="Helvetica,sans-Serif" font-size="14.00">Blk</text>
<path fill="none" stroke="black" d="M446.09,-569C446.09,-569 456.76,-569 456.76,-569 462.09,-569 467.42,-574.33 467.42,-579.67 467.42,-579.67 467.42,-590.33 467.42,-590.33 467.42,-595.67 462.09,-601 456.76,-601 456.76,-601 446.09,-601 446.09,-601 440.76,-601 435.42,-595.67 435.42,-590.33 435.42,-590.33 435.42,-579.67 435.42,-579.67 435.42,-574.33 440.76,-569 446.09,-569"/>
</a>
</g>
</g>
<!-- i64&#45;3 -->
<g id="node14" class="node">
<title>i64&#45;3</title>
<g id="a_node14"><a xlink:title="i64&#45;3: i64&#45;3">
<path fill="white" stroke="none" d="M42.09,-174C42.09,-174 52.76,-174 52.76,-174 58.09,-174 63.42,-179.33 63.42,-184.67 63.42,-184.67 63.42,-195.33 63.42,-195.33 63.42,-200.67 58.09,-206 52.76,-206 52.76,-206 42.09,-206 42.09,-206 36.76,-206 31.42,-200.67 31.42,-195.33 31.42,-195.33 31.42,-184.67 31.42,-184.67 31.42,-179.33 36.76,-174 42.09,-174"/>
<text text-anchor="start" x="43.67" y="-184.2" font-family="Helvetica,sans-Serif" font-size="14.00">3</text>
<path fill="none" stroke="black" d="M42.09,-174C42.09,-174 52.76,-174 52.76,-174 58.09,-174 63.42,-179.33 63.42,-184.67 63.42,-184.67 63.42,-195.33 63.42,-195.33 63.42,-200.67 58.09,-206 52.76,-206 52.76,-206 42.09,-206 42.09,-206 36.76,-206 31.42,-200.67 31.42,-195.33 31.42,-195.33 31.42,-184.67 31.42,-184.67 31.42,-179.33 36.76,-174 42.09,-174"/>
</a>
</g>
</g>
<!-- i64&#45;9 -->
<g id="node15" class="node">
<title>i64&#45;9</title>
<g id="a_node15"><a xlink:title="i64&#45;9: i64&#45;9">
<path fill="white" stroke="none" d="M559.09,-727C559.09,-727 569.76,-727 569.76,-727 575.09,-727 580.42,-732.33 580.42,-737.67 580.42,-737.67 580.42,-748.33 580.42,-748.33 580.42,-753.67 575.09,-759 569.76,-759 569.76,-759 559.09,-759 559.09,-759 553.76,-759 548.42,-753.67 548.42,-748.33 548.42,-748.33 548.42,-737.67 548.42,-737.67 548.42,-732.33 553.76,-727 559.09,-727"/>
<text text-anchor="start" x="560.67" y="-737.2" font-family="Helvetica,sans-Serif" font-size="14.00">9</text>
<path fill="none" stroke="black" d="M559.09,-727C559.09,-727 569.76,-727 569.76,-727 575.09,-727 580.42,-732.33 580.42,-737.67 580.42,-737.67 580.42,-748.33 580.42,-748.33 580.42,-753.67 575.09,-759 569.76,-759 569.76,-759 559.09,-759 559.09,-759 553.76,-759 548.42,-753.67 548.42,-748.33 548.42,-748.33 548.42,-737.67 548.42,-737.67 548.42,-732.33 553.76,-727 559.09,-727"/>
</a>
</g>
</g>
<!-- i64&#45;0 -->
<g id="node16" class="node">
<title>i64&#45;0</title>
<g id="a_node16"><a xlink:title="i64&#45;0: i64&#45;0">
<path fill="white" stroke="none" d="M378.09,-95C378.09,-95 388.76,-95 388.76,-95 394.09,-95 399.42,-100.33 399.42,-105.67 399.42,-105.67 399.42,-116.33 399.42,-116.33 399.42,-121.67 394.09,-127 388.76,-127 388.76,-127 378.09,-127 378.09,-127 372.76,-127 367.42,-121.67 367.42,-116.33 367.42,-116.33 367.42,-105.67 367.42,-105.67 367.42,-100.33 372.76,-95 378.09,-95"/>
<text text-anchor="start" x="379.67" y="-105.2" font-family="Helvetica,sans-Serif" font-size="14.00">0</text>
<path fill="none" stroke="black" d="M378.09,-95C378.09,-95 388.76,-95 388.76,-95 394.09,-95 399.42,-100.33 399.42,-105.67 399.42,-105.67 399.42,-116.33 399.42,-116.33 399.42,-121.67 394.09,-127 388.76,-127 388.76,-127 378.09,-127 378.09,-127 372.76,-127 367.42,-121.67 367.42,-116.33 367.42,-116.33 367.42,-105.67 367.42,-105.67 367.42,-100.33 372.76,-95 378.09,-95"/>
</a>
</g>
</g>
<!-- f64&#45;0 -->
<g id="node17" class="node">
<title>f64&#45;0</title>
<g id="a_node17"><a xlink:title="f64&#45;0: f64&#45;0">
<path fill="white" stroke="none" d="M163.09,-95C163.09,-95 173.76,-95 173.76,-95 179.09,-95 184.42,-100.33 184.42,-105.67 184.42,-105.67 184.42,-116.33 184.42,-116.33 184.42,-121.67 179.09,-127 173.76,-127 173.76,-127 163.09,-127 163.09,-127 157.76,-127 152.42,-121.67 152.42,-116.33 152.42,-116.33 152.42,-105.67 152.42,-105.67 152.42,-100.33 157.76,-95 163.09,-95"/>
<text text-anchor="start" x="159.05" y="-105.2" font-family="Helvetica,sans-Serif" font-size="14.00">0.0</text>
<path fill="none" stroke="black" d="M163.09,-95C163.09,-95 173.76,-95 173.76,-95 179.09,-95 184.42,-100.33 184.42,-105.67 184.42,-105.67 184.42,-116.33 184.42,-116.33 184.42,-121.67 179.09,-127 173.76,-127 173.76,-127 163.09,-127 163.09,-127 157.76,-127 152.42,-121.67 152.42,-116.33 152.42,-116.33 152.42,-105.67 152.42,-105.67 152.42,-100.33 157.76,-95 163.09,-95"/>
</a>
</g>
</g>
<!-- FloatAttr&#45;5871781006564002453 -->
<g id="node18" class="node">
<title>FloatAttr&#45;5871781006564002453</title>
<g id="a_node18"><a xlink:title="Attr&#45;4: FloatAttr&#45;5871781006564002453">
<path fill="white" stroke="none" d="M163.59,-174C163.59,-174 203.26,-174 203.26,-174 208.59,-174 213.92,-179.33 213.92,-184.67 213.92,-184.67 213.92,-195.33 213.92,-195.33 213.92,-200.67 208.59,-206 203.26,-206 203.26,-206 163.59,-206 163.59,-206 158.26,-206 152.92,-200.67 152.92,-195.33 152.92,-195.33 152.92,-184.67 152.92,-184.67 152.92,-179.33 158.26,-174 163.59,-174"/>
<text text-anchor="start" x="157.92" y="-184.2" font-family="Helvetica,sans-Serif" font-size="14.00">FloatAttr</text>
<path fill="none" stroke="black" d="M163.59,-174C163.59,-174 203.26,-174 203.26,-174 208.59,-174 213.92,-179.33 213.92,-184.67 213.92,-184.67 213.92,-195.33 213.92,-195.33 213.92,-200.67 208.59,-206 203.26,-206 203.26,-206 163.59,-206 163.59,-206 158.26,-206 152.92,-200.67 152.92,-195.33 152.92,-195.33 152.92,-184.67 152.92,-184.67 152.92,-179.33 158.26,-174 163.59,-174"/>
</a>
</g>
</g>
<!-- arith_fastmath&#45;10080759905092916392 -->
<g id="node19" class="node">
<title>arith_fastmath&#45;10080759905092916392</title>
<g id="a_node19"><a xlink:title="Attr&#45;9: arith_fastmath&#45;10080759905092916392">
<path fill="white" stroke="none" d="M441.97,-95C441.97,-95 516.88,-95 516.88,-95 522.22,-95 527.55,-100.33 527.55,-105.67 527.55,-105.67 527.55,-116.33 527.55,-116.33 527.55,-121.67 522.22,-127 516.88,-127 516.88,-127 441.97,-127 441.97,-127 436.63,-127 431.3,-121.67 431.3,-116.33 431.3,-116.33 431.3,-105.67 431.3,-105.67 431.3,-100.33 436.63,-95 441.97,-95"/>
<text text-anchor="start" x="436.3" y="-105.2" font-family="Helvetica,sans-Serif" font-size="14.00">arith_fastmath</text>
<path fill="none" stroke="black" d="M441.97,-95C441.97,-95 516.88,-95 516.88,-95 522.22,-95 527.55,-100.33 527.55,-105.67 527.55,-105.67 527.55,-116.33 527.55,-116.33 527.55,-121.67 522.22,-127 516.88,-127 516.88,-127 441.97,-127 441.97,-127 436.63,-127 431.3,-121.67 431.3,-116.33 431.3,-116.33 431.3,-105.67 431.3,-105.67 431.3,-100.33 436.63,-95 441.97,-95"/>
</a>
</g>
</g>
<!-- none&#45;0 -->
<g id="node20" class="node">
<title>none&#45;0</title>
<g id="a_node20"><a xlink:title="FastMathFlags&#45;8: none&#45;0">
<path fill="white" stroke="none" d="M470.09,-16C470.09,-16 488.76,-16 488.76,-16 494.09,-16 499.42,-21.33 499.42,-26.67 499.42,-26.67 499.42,-37.33 499.42,-37.33 499.42,-42.67 494.09,-48 488.76,-48 488.76,-48 470.09,-48 470.09,-48 464.76,-48 459.42,-42.67 459.42,-37.33 459.42,-37.33 459.42,-26.67 459.42,-26.67 459.42,-21.33 464.76,-16 470.09,-16"/>
<text text-anchor="start" x="464.42" y="-26.2" font-family="Helvetica,sans-Serif" font-size="14.00">none</text>
<path fill="none" stroke="black" d="M470.09,-16C470.09,-16 488.76,-16 488.76,-16 494.09,-16 499.42,-21.33 499.42,-26.67 499.42,-26.67 499.42,-37.33 499.42,-37.33 499.42,-42.67 494.09,-48 488.76,-48 488.76,-48 470.09,-48 470.09,-48 464.76,-48 459.42,-42.67 459.42,-37.33 459.42,-37.33 459.42,-26.67 459.42,-26.67 459.42,-21.33 464.76,-16 470.09,-16"/>
</a>
</g>
</g>
<!-- IntegerAttr&#45;5363064066095506329 -->
<g id="node21" class="node">
<title>IntegerAttr&#45;5363064066095506329</title>
<g id="a_node21"><a xlink:title="Attr&#45;12: IntegerAttr&#45;5363064066095506329">
<path fill="white" stroke="none" d="M39.59,-253C39.59,-253 91.26,-253 91.26,-253 96.59,-253 101.92,-258.33 101.92,-263.67 101.92,-263.67 101.92,-274.33 101.92,-274.33 101.92,-279.67 96.59,-285 91.26,-285 91.26,-285 39.59,-285 39.59,-285 34.26,-285 28.92,-279.67 28.92,-274.33 28.92,-274.33 28.92,-263.67 28.92,-263.67 28.92,-258.33 34.26,-253 39.59,-253"/>
<text text-anchor="start" x="33.92" y="-263.2" font-family="Helvetica,sans-Serif" font-size="14.00">IntegerAttr</text>
<path fill="none" stroke="black" d="M39.59,-253C39.59,-253 91.26,-253 91.26,-253 96.59,-253 101.92,-258.33 101.92,-263.67 101.92,-263.67 101.92,-274.33 101.92,-274.33 101.92,-279.67 96.59,-285 91.26,-285 91.26,-285 39.59,-285 39.59,-285 34.26,-285 28.92,-279.67 28.92,-274.33 28.92,-274.33 28.92,-263.67 28.92,-263.67 28.92,-258.33 34.26,-253 39.59,-253"/>
</a>
</g>
</g>
<!-- BlockVec&#45;0 -->
<g id="node22" class="node">
<title>BlockVec&#45;0</title>
<g id="a_node22"><a xlink:title="BlockVec&#45;0: BlockVec&#45;0">
<path fill="white" stroke="none" d="M277.97,-648C277.97,-648 322.88,-648 322.88,-648 328.22,-648 333.55,-653.33 333.55,-658.67 333.55,-658.67 333.55,-669.33 333.55,-669.33 333.55,-674.67 328.22,-680 322.88,-680 322.88,-680 277.97,-680 277.97,-680 272.63,-680 267.3,-674.67 267.3,-669.33 267.3,-669.33 267.3,-658.67 267.3,-658.67 267.3,-653.33 272.63,-648 277.97,-648"/>
<text text-anchor="start" x="272.3" y="-658.2" font-family="Helvetica,sans-Serif" font-size="14.00">BlockVec</text>
<path fill="none" stroke="black" d="M277.97,-648C277.97,-648 322.88,-648 322.88,-648 328.22,-648 333.55,-653.33 333.55,-658.67 333.55,-658.67 333.55,-669.33 333.55,-669.33 333.55,-674.67 328.22,-680 322.88,-680 322.88,-680 277.97,-680 277.97,-680 272.63,-680 267.3,-674.67 267.3,-669.33 267.3,-669.33 267.3,-658.67 267.3,-658.67 267.3,-653.33 272.63,-648 277.97,-648"/>
</a>
</g>
</g>
<!-- BlockVec&#45;1 -->
<g id="node23" class="node">
<title>BlockVec&#45;1</title>
<g id="a_node23"><a xlink:title="BlockVec&#45;1: BlockVec&#45;1">
<path fill="white" stroke="none" d="M407.97,-648C407.97,-648 452.88,-648 452.88,-648 458.22,-648 463.55,-653.33 463.55,-658.67 463.55,-658.67 463.55,-669.33 463.55,-669.33 463.55,-674.67 458.22,-680 452.88,-680 452.88,-680 407.97,-680 407.97,-680 402.63,-680 397.3,-674.67 397.3,-669.33 397.3,-669.33 397.3,-658.67 397.3,-658.67 397.3,-653.33 402.63,-648 407.97,-648"/>
<text text-anchor="start" x="402.3" y="-658.2" font-family="Helvetica,sans-Serif" font-size="14.00">BlockVec</text>
<path fill="none" stroke="black" d="M407.97,-648C407.97,-648 452.88,-648 452.88,-648 458.22,-648 463.55,-653.33 463.55,-658.67 463.55,-658.67 463.55,-669.33 463.55,-669.33 463.55,-674.67 458.22,-680 452.88,-680 452.88,-680 407.97,-680 407.97,-680 402.63,-680 397.3,-674.67 397.3,-669.33 397.3,-669.33 397.3,-658.67 397.3,-658.67 397.3,-653.33 402.63,-648 407.97,-648"/>
</a>
</g>
</g>
<!-- NamedAttr&#45;10439477994750310197 -->
<g id="node24" class="node">
<title>NamedAttr&#45;10439477994750310197</title>
<g id="a_node24"><a xlink:title="AttrPair&#45;10: NamedAttr&#45;10439477994750310197">
<path fill="white" stroke="none" d="M443.59,-174C443.59,-174 497.26,-174 497.26,-174 502.59,-174 507.92,-179.33 507.92,-184.67 507.92,-184.67 507.92,-195.33 507.92,-195.33 507.92,-200.67 502.59,-206 497.26,-206 497.26,-206 443.59,-206 443.59,-206 438.26,-206 432.92,-200.67 432.92,-195.33 432.92,-195.33 432.92,-184.67 432.92,-184.67 432.92,-179.33 438.26,-174 443.59,-174"/>
<text text-anchor="start" x="437.8" y="-184.2" font-family="Helvetica,sans-Serif" font-size="14.00">NamedAttr</text>
<path fill="none" stroke="black" d="M443.59,-174C443.59,-174 497.26,-174 497.26,-174 502.59,-174 507.92,-179.33 507.92,-184.67 507.92,-184.67 507.92,-195.33 507.92,-195.33 507.92,-200.67 502.59,-206 497.26,-206 497.26,-206 443.59,-206 443.59,-206 438.26,-206 432.92,-200.67 432.92,-195.33 432.92,-195.33 432.92,-184.67 432.92,-184.67 432.92,-179.33 438.26,-174 443.59,-174"/>
</a>
</g>
</g>
<!-- Value&#45;5871781006564002453 -->
<g id="node25" class="node">
<title>Value&#45;5871781006564002453</title>
<g id="a_node25"><a xlink:title="Op&#45;0: Value&#45;5871781006564002453">
<path fill="white" stroke="none" d="M370.09,-174C370.09,-174 392.76,-174 392.76,-174 398.09,-174 403.42,-179.33 403.42,-184.67 403.42,-184.67 403.42,-195.33 403.42,-195.33 403.42,-200.67 398.09,-206 392.76,-206 392.76,-206 370.09,-206 370.09,-206 364.76,-206 359.42,-200.67 359.42,-195.33 359.42,-195.33 359.42,-184.67 359.42,-184.67 359.42,-179.33 364.76,-174 370.09,-174"/>
<text text-anchor="start" x="364.17" y="-184.2" font-family="Helvetica,sans-Serif" font-size="14.00">Value</text>
<path fill="none" stroke="black" d="M370.09,-174C370.09,-174 392.76,-174 392.76,-174 398.09,-174 403.42,-179.33 403.42,-184.67 403.42,-184.67 403.42,-195.33 403.42,-195.33 403.42,-200.67 398.09,-206 392.76,-206 392.76,-206 370.09,-206 370.09,-206 364.76,-206 359.42,-200.67 359.42,-195.33 359.42,-195.33 359.42,-184.67 359.42,-184.67 359.42,-179.33 364.76,-174 370.09,-174"/>
</a>
</g>
</g>
<!-- arith_cmpf&#45;444619395108343417 -->
<g id="node26" class="node">
<title>arith_cmpf&#45;444619395108343417</title>
<g id="a_node26"><a xlink:title="Op&#45;7: arith_cmpf&#45;444619395108343417">
<path fill="white" stroke="none" d="M338.59,-411C338.59,-411 390.26,-411 390.26,-411 395.59,-411 400.92,-416.33 400.92,-421.67 400.92,-421.67 400.92,-432.33 400.92,-432.33 400.92,-437.67 395.59,-443 390.26,-443 390.26,-443 338.59,-443 338.59,-443 333.26,-443 327.92,-437.67 327.92,-432.33 327.92,-432.33 327.92,-421.67 327.92,-421.67 327.92,-416.33 333.26,-411 338.59,-411"/>
<text text-anchor="start" x="332.55" y="-421.2" font-family="Helvetica,sans-Serif" font-size="14.00">arith_cmpf</text>
<path fill="none" stroke="black" d="M338.59,-411C338.59,-411 390.26,-411 390.26,-411 395.59,-411 400.92,-416.33 400.92,-421.67 400.92,-421.67 400.92,-432.33 400.92,-432.33 400.92,-437.67 395.59,-443 390.26,-443 390.26,-443 338.59,-443 338.59,-443 333.26,-443 327.92,-437.67 327.92,-432.33 327.92,-432.33 327.92,-421.67 327.92,-421.67 327.92,-416.33 333.26,-411 338.59,-411"/>
</a>
</g>
</g>
<!-- arith_constant&#45;7223664373682896047 -->
<g id="node27" class="node">
<title>arith_constant&#45;7223664373682896047</title>
<g id="a_node27"><a xlink:title="Op&#45;3: arith_constant&#45;7223664373682896047">
<path fill="white" stroke="none" d="M181.09,-332C181.09,-332 253.76,-332 253.76,-332 259.09,-332 264.42,-337.33 264.42,-342.67 264.42,-342.67 264.42,-353.33 264.42,-353.33 264.42,-358.67 259.09,-364 253.76,-364 253.76,-364 181.09,-364 181.09,-364 175.76,-364 170.42,-358.67 170.42,-353.33 170.42,-353.33 170.42,-342.67 170.42,-342.67 170.42,-337.33 175.76,-332 181.09,-332"/>
<text text-anchor="start" x="175.05" y="-342.2" font-family="Helvetica,sans-Serif" font-size="14.00">arith_constant</text>
<path fill="none" stroke="black" d="M181.09,-332C181.09,-332 253.76,-332 253.76,-332 259.09,-332 264.42,-337.33 264.42,-342.67 264.42,-342.67 264.42,-353.33 264.42,-353.33 264.42,-358.67 259.09,-364 253.76,-364 253.76,-364 181.09,-364 181.09,-364 175.76,-364 170.42,-358.67 170.42,-353.33 170.42,-353.33 170.42,-342.67 170.42,-342.67 170.42,-337.33 175.76,-332 181.09,-332"/>
</a>
</g>
</g>
<!-- NamedAttr&#45;532458502365569988 -->
<g id="node28" class="node">
<title>NamedAttr&#45;532458502365569988</title>
<g id="a_node28"><a xlink:title="AttrPair&#45;13: NamedAttr&#45;532458502365569988">
<path fill="white" stroke="none" d="M93.59,-332C93.59,-332 147.26,-332 147.26,-332 152.59,-332 157.92,-337.33 157.92,-342.67 157.92,-342.67 157.92,-353.33 157.92,-353.33 157.92,-358.67 152.59,-364 147.26,-364 147.26,-364 93.59,-364 93.59,-364 88.26,-364 82.92,-358.67 82.92,-353.33 82.92,-353.33 82.92,-342.67 82.92,-342.67 82.92,-337.33 88.26,-332 93.59,-332"/>
<text text-anchor="start" x="87.8" y="-342.2" font-family="Helvetica,sans-Serif" font-size="14.00">NamedAttr</text>
<path fill="none" stroke="black" d="M93.59,-332C93.59,-332 147.26,-332 147.26,-332 152.59,-332 157.92,-337.33 157.92,-342.67 157.92,-342.67 157.92,-353.33 157.92,-353.33 157.92,-358.67 152.59,-364 147.26,-364 147.26,-364 93.59,-364 93.59,-364 88.26,-364 82.92,-358.67 82.92,-353.33 82.92,-353.33 82.92,-342.67 82.92,-342.67 82.92,-337.33 88.26,-332 93.59,-332"/>
</a>
</g>
</g>
<!-- NamedAttr&#45;1773198441008368060 -->
<g id="node29" class="node">
<title>NamedAttr&#45;1773198441008368060</title>
<g id="a_node29"><a xlink:title="AttrPair&#45;5: NamedAttr&#45;1773198441008368060">
<path fill="white" stroke="none" d="M213.59,-253C213.59,-253 267.26,-253 267.26,-253 272.59,-253 277.92,-258.33 277.92,-263.67 277.92,-263.67 277.92,-274.33 277.92,-274.33 277.92,-279.67 272.59,-285 267.26,-285 267.26,-285 213.59,-285 213.59,-285 208.26,-285 202.92,-279.67 202.92,-274.33 202.92,-274.33 202.92,-263.67 202.92,-263.67 202.92,-258.33 208.26,-253 213.59,-253"/>
<text text-anchor="start" x="207.8" y="-263.2" font-family="Helvetica,sans-Serif" font-size="14.00">NamedAttr</text>
<path fill="none" stroke="black" d="M213.59,-253C213.59,-253 267.26,-253 267.26,-253 272.59,-253 277.92,-258.33 277.92,-263.67 277.92,-263.67 277.92,-274.33 277.92,-274.33 277.92,-279.67 272.59,-285 267.26,-285 267.26,-285 213.59,-285 213.59,-285 208.26,-285 202.92,-279.67 202.92,-274.33 202.92,-274.33 202.92,-263.67 202.92,-263.67 202.92,-258.33 208.26,-253 213.59,-253"/>
</a>
</g>
</g>
<!-- scf_if&#45;6534449784372148832 -->
<g id="node30" class="node">
<title>scf_if&#45;6534449784372148832</title>
<g id="a_node30"><a xlink:title="Op&#45;26: scf_if&#45;6534449784372148832">
<path fill="white" stroke="none" d="M329.59,-806C329.59,-806 349.26,-806 349.26,-806 354.59,-806 359.92,-811.33 359.92,-816.67 359.92,-816.67 359.92,-827.33 359.92,-827.33 359.92,-832.67 354.59,-838 349.26,-838 349.26,-838 329.59,-838 329.59,-838 324.26,-838 318.92,-832.67 318.92,-827.33 318.92,-827.33 318.92,-816.67 318.92,-816.67 318.92,-811.33 324.26,-806 329.59,-806"/>
<text text-anchor="start" x="323.67" y="-816.2" font-family="Helvetica,sans-Serif" font-size="14.00">scf_if</text>
<path fill="none" stroke="black" d="M329.59,-806C329.59,-806 349.26,-806 349.26,-806 354.59,-806 359.92,-811.33 359.92,-816.67 359.92,-816.67 359.92,-827.33 359.92,-827.33 359.92,-832.67 354.59,-838 349.26,-838 349.26,-838 329.59,-838 329.59,-838 324.26,-838 318.92,-832.67 318.92,-827.33 318.92,-827.33 318.92,-816.67 318.92,-816.67 318.92,-811.33 324.26,-806 329.59,-806"/>
</a>
</g>
</g>
<!-- Reg&#45;0 -->
<g id="node31" class="node">
<title>Reg&#45;0</title>
<g id="a_node31"><a xlink:title="Region&#45;28: Reg&#45;0">
<path fill="white" stroke="none" d="M304.72,-727C304.72,-727 318.13,-727 318.13,-727 323.47,-727 328.8,-732.33 328.8,-737.67 328.8,-737.67 328.8,-748.33 328.8,-748.33 328.8,-753.67 323.47,-759 318.13,-759 318.13,-759 304.72,-759 304.72,-759 299.38,-759 294.05,-753.67 294.05,-748.33 294.05,-748.33 294.05,-737.67 294.05,-737.67 294.05,-732.33 299.38,-727 304.72,-727"/>
<text text-anchor="start" x="299.05" y="-737.2" font-family="Helvetica,sans-Serif" font-size="14.00">Reg</text>
<path fill="none" stroke="black" d="M304.72,-727C304.72,-727 318.13,-727 318.13,-727 323.47,-727 328.8,-732.33 328.8,-737.67 328.8,-737.67 328.8,-748.33 328.8,-748.33 328.8,-753.67 323.47,-759 318.13,-759 318.13,-759 304.72,-759 304.72,-759 299.38,-759 294.05,-753.67 294.05,-748.33 294.05,-748.33 294.05,-737.67 294.05,-737.67 294.05,-732.33 299.38,-727 304.72,-727"/>
</a>
</g>
</g>
<!-- Reg&#45;5871781006564002453 -->
<g id="node32" class="node">
<title>Reg&#45;5871781006564002453</title>
<g id="a_node32"><a xlink:title="Region&#45;30: Reg&#45;5871781006564002453">
<path fill="white" stroke="none" d="M407.72,-727C407.72,-727 421.13,-727 421.13,-727 426.47,-727 431.8,-732.33 431.8,-737.67 431.8,-737.67 431.8,-748.33 431.8,-748.33 431.8,-753.67 426.47,-759 421.13,-759 421.13,-759 407.72,-759 407.72,-759 402.38,-759 397.05,-753.67 397.05,-748.33 397.05,-748.33 397.05,-737.67 397.05,-737.67 397.05,-732.33 402.38,-727 407.72,-727"/>
<text text-anchor="start" x="402.05" y="-737.2" font-family="Helvetica,sans-Serif" font-size="14.00">Reg</text>
<path fill="none" stroke="black" d="M407.72,-727C407.72,-727 421.13,-727 421.13,-727 426.47,-727 431.8,-732.33 431.8,-737.67 431.8,-737.67 431.8,-748.33 431.8,-748.33 431.8,-753.67 426.47,-759 421.13,-759 421.13,-759 407.72,-759 407.72,-759 402.38,-759 397.05,-753.67 397.05,-748.33 397.05,-748.33 397.05,-737.67 397.05,-737.67 397.05,-732.33 402.38,-727 407.72,-727"/>
</a>
</g>
</g>
<!-- Value&#45;16764672366980485282 -->
<g id="node33" class="node">
<title>Value&#45;16764672366980485282</title>
<g id="a_node33"><a xlink:title="Op&#45;32: Value&#45;16764672366980485282">
<path fill="white" stroke="none" d="M520.09,-806C520.09,-806 542.76,-806 542.76,-806 548.09,-806 553.42,-811.33 553.42,-816.67 553.42,-816.67 553.42,-827.33 553.42,-827.33 553.42,-832.67 548.09,-838 542.76,-838 542.76,-838 520.09,-838 520.09,-838 514.76,-838 509.42,-832.67 509.42,-827.33 509.42,-827.33 509.42,-816.67 509.42,-816.67 509.42,-811.33 514.76,-806 520.09,-806"/>
<text text-anchor="start" x="514.17" y="-816.2" font-family="Helvetica,sans-Serif" font-size="14.00">Value</text>
<path fill="none" stroke="black" d="M520.09,-806C520.09,-806 542.76,-806 542.76,-806 548.09,-806 553.42,-811.33 553.42,-816.67 553.42,-816.67 553.42,-827.33 553.42,-827.33 553.42,-832.67 548.09,-838 542.76,-838 542.76,-838 520.09,-838 520.09,-838 514.76,-838 509.42,-832.67 509.42,-827.33 509.42,-827.33 509.42,-816.67 509.42,-816.67 509.42,-811.33 514.76,-806 520.09,-806"/>
</a>
</g>
</g>
<!-- String&#45;1879048205 -->
<g id="node34" class="node">
<title>String&#45;1879048205</title>
<g id="a_node34"><a xlink:title="String&#45;1879048205: String&#45;1879048205">
<path fill="white" stroke="none" d="M550.59,-95C550.59,-95 602.26,-95 602.26,-95 607.59,-95 612.92,-100.33 612.92,-105.67 612.92,-105.67 612.92,-116.33 612.92,-116.33 612.92,-121.67 607.59,-127 602.26,-127 602.26,-127 550.59,-127 550.59,-127 545.26,-127 539.92,-121.67 539.92,-116.33 539.92,-116.33 539.92,-105.67 539.92,-105.67 539.92,-100.33 545.26,-95 550.59,-95"/>
<text text-anchor="start" x="544.92" y="-105.2" font-family="Helvetica,sans-Serif" font-size="14.00">&quot;fastmath&quot;</text>
<path fill="none" stroke="black" d="M550.59,-95C550.59,-95 602.26,-95 602.26,-95 607.59,-95 612.92,-100.33 612.92,-105.67 612.92,-105.67 612.92,-116.33 612.92,-116.33 612.92,-121.67 607.59,-127 602.26,-127 602.26,-127 550.59,-127 550.59,-127 545.26,-127 539.92,-121.67 539.92,-116.33 539.92,-116.33 539.92,-105.67 539.92,-105.67 539.92,-100.33 545.26,-95 550.59,-95"/>
</a>
</g>
</g>
<!-- String&#45;536870921 -->
<g id="node35" class="node">
<title>String&#45;536870921</title>
<g id="a_node35"><a xlink:title="String&#45;536870921: String&#45;536870921">
<path fill="white" stroke="none" d="M125.09,-253C125.09,-253 179.76,-253 179.76,-253 185.09,-253 190.42,-258.33 190.42,-263.67 190.42,-263.67 190.42,-274.33 190.42,-274.33 190.42,-279.67 185.09,-285 179.76,-285 179.76,-285 125.09,-285 125.09,-285 119.76,-285 114.42,-279.67 114.42,-274.33 114.42,-274.33 114.42,-263.67 114.42,-263.67 114.42,-258.33 119.76,-253 125.09,-253"/>
<text text-anchor="start" x="119.42" y="-263.2" font-family="Helvetica,sans-Serif" font-size="14.00">&quot;predicate&quot;</text>
<path fill="none" stroke="black" d="M125.09,-253C125.09,-253 179.76,-253 179.76,-253 185.09,-253 190.42,-258.33 190.42,-263.67 190.42,-263.67 190.42,-274.33 190.42,-274.33 190.42,-279.67 185.09,-285 179.76,-285 179.76,-285 125.09,-285 125.09,-285 119.76,-285 114.42,-279.67 114.42,-274.33 114.42,-274.33 114.42,-263.67 114.42,-263.67 114.42,-258.33 119.76,-253 125.09,-253"/>
</a>
</g>
</g>
<!-- String&#45;3221225478 -->
<g id="node36" class="node">
<title>String&#45;3221225478</title>
<g id="a_node36"><a xlink:title="String&#45;3221225478: String&#45;3221225478">
<path fill="white" stroke="none" d="M237.72,-174C237.72,-174 269.13,-174 269.13,-174 274.47,-174 279.8,-179.33 279.8,-184.67 279.8,-184.67 279.8,-195.33 279.8,-195.33 279.8,-200.67 274.47,-206 269.13,-206 269.13,-206 237.72,-206 237.72,-206 232.38,-206 227.05,-200.67 227.05,-195.33 227.05,-195.33 227.05,-184.67 227.05,-184.67 227.05,-179.33 232.38,-174 237.72,-174"/>
<text text-anchor="start" x="232.05" y="-184.2" font-family="Helvetica,sans-Serif" font-size="14.00">&quot;value&quot;</text>
<path fill="none" stroke="black" d="M237.72,-174C237.72,-174 269.13,-174 269.13,-174 274.47,-174 279.8,-179.33 279.8,-184.67 279.8,-184.67 279.8,-195.33 279.8,-195.33 279.8,-200.67 274.47,-206 269.13,-206 269.13,-206 237.72,-206 237.72,-206 232.38,-206 227.05,-200.67 227.05,-195.33 227.05,-195.33 227.05,-184.67 227.05,-184.67 227.05,-179.33 232.38,-174 237.72,-174"/>
</a>
</g>
</g>
</g>
</svg>
