<?xml version="1.0" encoding="UTF-8" standalone="no"?>
<!DOCTYPE svg PUBLIC "-//W3C//DTD SVG 1.1//EN"
 "http://www.w3.org/Graphics/SVG/1.1/DTD/svg11.dtd">
<!-- Generated by graphviz version 12.0.0 (20240704.0754)
 -->
<!-- Pages: 1 -->
<svg width="601pt" height="783pt"
 viewBox="0.00 0.00 600.59 783.00" xmlns="http://www.w3.org/2000/svg" xmlns:xlink="http://www.w3.org/1999/xlink">
<g id="graph0" class="graph" transform="scale(1 1) rotate(0) translate(4 779)">
<polygon fill="white" stroke="none" points="-4,4 -4,-779 596.59,-779 596.59,4 -4,4"/>
<g id="clust1" class="cluster">
<title>outer_cluster_Attr&#45;12</title>
</g>
<g id="clust2" class="cluster">
<title>cluster_Attr&#45;12</title>
<path fill="#ffffb3" stroke="black" stroke-dasharray="5,2" d="M503,-248C503,-248 559,-248 559,-248 565,-248 571,-254 571,-260 571,-260 571,-278 571,-278 571,-284 565,-290 559,-290 559,-290 503,-290 503,-290 497,-290 491,-284 491,-278 491,-278 491,-260 491,-260 491,-254 497,-248 503,-248"/>
</g>
<g id="clust4" class="cluster">
<title>outer_cluster_Attr&#45;9</title>
</g>
<g id="clust5" class="cluster">
<title>cluster_Attr&#45;9</title>
<path fill="#ffffb3" stroke="black" stroke-dasharray="5,2" d="M109,-90C109,-90 187,-90 187,-90 193,-90 199,-96 199,-102 199,-102 199,-120 199,-120 199,-126 193,-132 187,-132 187,-132 109,-132 109,-132 103,-132 97,-126 97,-120 97,-120 97,-102 97,-102 97,-96 103,-90 109,-90"/>
</g>
<g id="clust7" class="cluster">
<title>outer_cluster_Attr&#45;4</title>
</g>
<g id="clust8" class="cluster">
<title>cluster_Attr&#45;4</title>
<path fill="#ffffb3" stroke="black" stroke-dasharray="5,2" d="M387,-169C387,-169 431,-169 431,-169 437,-169 443,-175 443,-181 443,-181 443,-199 443,-199 443,-205 437,-211 431,-211 431,-211 387,-211 387,-211 381,-211 375,-205 375,-199 375,-199 375,-181 375,-181 375,-175 381,-169 387,-169"/>
</g>
<g id="clust10" class="cluster">
<title>outer_cluster_f64&#45;0</title>
</g>
<g id="clust11" class="cluster">
<title>cluster_f64&#45;0</title>
<path fill="#bebada" stroke="black" stroke-dasharray="5,2" d="M376,-90C376,-90 412,-90 412,-90 418,-90 424,-96 424,-102 424,-102 424,-120 424,-120 424,-126 418,-132 412,-132 412,-132 376,-132 376,-132 370,-132 364,-126 364,-120 364,-120 364,-102 364,-102 364,-96 370,-90 376,-90"/>
</g>
<g id="clust13" class="cluster">
<title>outer_cluster_Block&#45;23</title>
</g>
<g id="clust14" class="cluster">
<title>cluster_Block&#45;23</title>
<path fill="#fb8072" stroke="black" stroke-dasharray="5,2" d="M205,-406C205,-406 241,-406 241,-406 247,-406 253,-412 253,-418 253,-418 253,-436 253,-436 253,-442 247,-448 241,-448 241,-448 205,-448 205,-448 199,-448 193,-442 193,-436 193,-436 193,-418 193,-418 193,-412 199,-406 205,-406"/>
</g>
<g id="clust16" class="cluster">
<title>outer_cluster_Block&#45;25</title>
</g>
<g id="clust17" class="cluster">
<title>cluster_Block&#45;25</title>
<path fill="#fb8072" stroke="black" stroke-dasharray="5,2" d="M134,-485C134,-485 170,-485 170,-485 176,-485 182,-491 182,-497 182,-497 182,-515 182,-515 182,-521 176,-527 170,-527 170,-527 134,-527 134,-527 128,-527 122,-521 122,-515 122,-515 122,-497 122,-497 122,-491 128,-485 134,-485"/>
</g>
<g id="clust19" class="cluster">
<title>outer_cluster_Region&#45;26</title>
</g>
<g id="clust20" class="cluster">
<title>cluster_Region&#45;26</title>
<path fill="#80b1d3" stroke="black" stroke-dasharray="5,2" d="M185,-643C185,-643 221,-643 221,-643 227,-643 233,-649 233,-655 233,-655 233,-673 233,-673 233,-679 227,-685 221,-685 221,-685 185,-685 185,-685 179,-685 173,-679 173,-673 173,-673 173,-655 173,-655 173,-649 179,-643 185,-643"/>
</g>
<g id="clust22" class="cluster">
<title>outer_cluster_Region&#45;24</title>
</g>
<g id="clust23" class="cluster">
<title>cluster_Region&#45;24</title>
<path fill="#80b1d3" stroke="black" stroke-dasharray="5,2" d="M227,-564C227,-564 263,-564 263,-564 269,-564 275,-570 275,-576 275,-576 275,-594 275,-594 275,-600 269,-606 263,-606 263,-606 227,-606 227,-606 221,-606 215,-600 215,-594 215,-594 215,-576 215,-576 215,-570 221,-564 227,-564"/>
</g>
<g id="clust25" class="cluster">
<title>outer_cluster_Op&#45;3</title>
</g>
<g id="clust26" class="cluster">
<title>cluster_Op&#45;3</title>
<path fill="#fdb462" stroke="black" stroke-dasharray="5,2" d="M315,-327C315,-327 391,-327 391,-327 397,-327 403,-333 403,-339 403,-339 403,-357 403,-357 403,-363 397,-369 391,-369 391,-369 315,-369 315,-369 309,-369 303,-363 303,-357 303,-357 303,-339 303,-339 303,-333 309,-327 315,-327"/>
</g>
<g id="clust28" class="cluster">
<title>outer_cluster_Op&#45;18</title>
</g>
<g id="clust29" class="cluster">
<title>cluster_Op&#45;18</title>
<path fill="#fdb462" stroke="black" stroke-dasharray="5,2" d="M127,-248C127,-248 179,-248 179,-248 185,-248 191,-254 191,-260 191,-260 191,-278 191,-278 191,-284 185,-290 179,-290 179,-290 127,-290 127,-290 121,-290 115,-284 115,-278 115,-278 115,-260 115,-260 115,-254 121,-248 127,-248"/>
</g>
<g id="clust31" class="cluster">
<title>outer_cluster_Op&#45;16</title>
</g>
<g id="clust32" class="cluster">
<title>cluster_Op&#45;16</title>
<path fill="#fdb462" stroke="black" stroke-dasharray="5,2" d="M221,-248C221,-248 273,-248 273,-248 279,-248 285,-254 285,-260 285,-260 285,-278 285,-278 285,-284 279,-290 273,-290 273,-290 221,-290 221,-290 215,-290 209,-284 209,-278 209,-278 209,-260 209,-260 209,-254 215,-248 221,-248"/>
</g>
<g id="clust34" class="cluster">
<title>outer_cluster_Op&#45;7</title>
</g>
<g id="clust35" class="cluster">
<title>cluster_Op&#45;7</title>
<path fill="#fdb462" stroke="black" stroke-dasharray="5,2" d="M278,-406C278,-406 334,-406 334,-406 340,-406 346,-412 346,-418 346,-418 346,-436 346,-436 346,-442 340,-448 334,-448 334,-448 278,-448 278,-448 272,-448 266,-442 266,-436 266,-436 266,-418 266,-418 266,-412 272,-406 278,-406"/>
</g>
<g id="clust37" class="cluster">
<title>outer_cluster_Op&#45;0</title>
</g>
<g id="clust38" class="cluster">
<title>cluster_Op&#45;0</title>
<path fill="#fdb462" stroke="black" stroke-dasharray="5,2" d="M227,-169C227,-169 263,-169 263,-169 269,-169 275,-175 275,-181 275,-181 275,-199 275,-199 275,-205 269,-211 263,-211 263,-211 227,-211 227,-211 221,-211 215,-205 215,-199 215,-199 215,-181 215,-181 215,-175 221,-169 227,-169"/>
</g>
<g id="clust40" class="cluster">
<title>outer_cluster_Op&#45;22</title>
</g>
<g id="clust41" class="cluster">
<title>cluster_Op&#45;22</title>
<path fill="#fdb462" stroke="black" stroke-dasharray="5,2" d="M282,-722C282,-722 318,-722 318,-722 324,-722 330,-728 330,-734 330,-734 330,-752 330,-752 330,-758 324,-764 318,-764 318,-764 282,-764 282,-764 276,-764 270,-758 270,-752 270,-752 270,-734 270,-734 270,-728 276,-722 282,-722"/>
</g>
<g id="clust43" class="cluster">
<title>outer_cluster_Op&#45;20</title>
</g>
<g id="clust44" class="cluster">
<title>cluster_Op&#45;20</title>
<path fill="#fdb462" stroke="black" stroke-dasharray="5,2" d="M63,-327C63,-327 115,-327 115,-327 121,-327 127,-333 127,-339 127,-339 127,-357 127,-357 127,-363 121,-369 115,-369 115,-369 63,-369 63,-369 57,-369 51,-363 51,-357 51,-357 51,-339 51,-339 51,-333 57,-327 63,-327"/>
</g>
<g id="clust46" class="cluster">
<title>outer_cluster_BlockVec&#45;0</title>
</g>
<g id="clust47" class="cluster">
<title>cluster_BlockVec&#45;0</title>
<path fill="#b3de69" stroke="black" stroke-dasharray="5,2" d="M214,-485C214,-485 262,-485 262,-485 268,-485 274,-491 274,-497 274,-497 274,-515 274,-515 274,-521 268,-527 262,-527 262,-527 214,-527 214,-527 208,-527 202,-521 202,-515 202,-515 202,-497 202,-497 202,-491 208,-485 214,-485"/>
</g>
<g id="clust49" class="cluster">
<title>outer_cluster_BlockVec&#45;1</title>
</g>
<g id="clust50" class="cluster">
<title>cluster_BlockVec&#45;1</title>
<path fill="#b3de69" stroke="black" stroke-dasharray="5,2" d="M131,-564C131,-564 179,-564 179,-564 185,-564 191,-570 191,-576 191,-576 191,-594 191,-594 191,-600 185,-606 179,-606 179,-606 131,-606 131,-606 125,-606 119,-600 119,-594 119,-594 119,-576 119,-576 119,-570 125,-564 131,-564"/>
</g>
<g id="clust52" class="cluster">
<title>outer_cluster_i64&#45;3</title>
</g>
<g id="clust53" class="cluster">
<title>cluster_i64&#45;3</title>
<path fill="#fccde5" stroke="black" stroke-dasharray="5,2" d="M527,-169C527,-169 563,-169 563,-169 569,-169 575,-175 575,-181 575,-181 575,-199 575,-199 575,-205 569,-211 563,-211 563,-211 527,-211 527,-211 521,-211 515,-205 515,-199 515,-199 515,-181 515,-181 515,-175 521,-169 527,-169"/>
</g>
<g id="clust55" class="cluster">
<title>outer_cluster_i64&#45;0</title>
</g>
<g id="clust56" class="cluster">
<title>cluster_i64&#45;0</title>
<path fill="#fccde5" stroke="black" stroke-dasharray="5,2" d="M217,-90C217,-90 253,-90 253,-90 259,-90 265,-96 265,-102 265,-102 265,-120 265,-120 265,-126 259,-132 253,-132 253,-132 217,-132 217,-132 211,-132 205,-126 205,-120 205,-120 205,-102 205,-102 205,-96 211,-90 217,-90"/>
</g>
<g id="clust58" class="cluster">
<title>outer_cluster_Type&#45;1</title>
</g>
<g id="clust59" class="cluster">
<title>cluster_Type&#45;1</title>
<path fill="#d9d9d9" stroke="black" stroke-dasharray="5,2" d="M283,-90C283,-90 319,-90 319,-90 325,-90 331,-96 331,-102 331,-102 331,-120 331,-120 331,-126 325,-132 319,-132 319,-132 283,-132 283,-132 277,-132 271,-126 271,-120 271,-120 271,-102 271,-102 271,-96 277,-90 283,-90"/>
</g>
<g id="clust61" class="cluster">
<title>outer_cluster_Type&#45;11</title>
</g>
<g id="clust62" class="cluster">
<title>cluster_Type&#45;11</title>
<path fill="#d9d9d9" stroke="black" stroke-dasharray="5,2" d="M461,-169C461,-169 497,-169 497,-169 503,-169 509,-175 509,-181 509,-181 509,-199 509,-199 509,-205 503,-211 497,-211 497,-211 461,-211 461,-211 455,-211 449,-205 449,-199 449,-199 449,-181 449,-181 449,-175 455,-169 461,-169"/>
</g>
<g id="clust64" class="cluster">
<title>outer_cluster_Type&#45;14</title>
</g>
<g id="clust65" class="cluster">
<title>cluster_Type&#45;14</title>
<path fill="#d9d9d9" stroke="black" stroke-dasharray="5,2" d="M237,-327C237,-327 273,-327 273,-327 279,-327 285,-333 285,-339 285,-339 285,-357 285,-357 285,-363 279,-369 273,-369 273,-369 237,-369 237,-369 231,-369 225,-363 225,-357 225,-357 225,-339 225,-339 225,-333 231,-327 237,-327"/>
</g>
<g id="clust67" class="cluster">
<title>outer_cluster_OpVec&#45;0</title>
</g>
<g id="clust68" class="cluster">
<title>cluster_OpVec&#45;0</title>
<path fill="#bc80bd" stroke="black" stroke-dasharray="5,2" d="M158,-327C158,-327 194,-327 194,-327 200,-327 206,-333 206,-339 206,-339 206,-357 206,-357 206,-363 200,-369 194,-369 194,-369 158,-369 158,-369 152,-369 146,-363 146,-357 146,-357 146,-339 146,-339 146,-333 152,-327 158,-327"/>
</g>
<g id="clust70" class="cluster">
<title>outer_cluster_OpVec&#45;1</title>
</g>
<g id="clust71" class="cluster">
<title>cluster_OpVec&#45;1</title>
<path fill="#bc80bd" stroke="black" stroke-dasharray="5,2" d="M131,-406C131,-406 167,-406 167,-406 173,-406 179,-412 179,-418 179,-418 179,-436 179,-436 179,-442 173,-448 167,-448 167,-448 131,-448 131,-448 125,-448 119,-442 119,-436 119,-436 119,-418 119,-418 119,-412 125,-406 131,-406"/>
</g>
<g id="clust73" class="cluster">
<title>outer_cluster_String&#45;1879048205</title>
</g>
<g id="clust74" class="cluster">
<title>cluster_String&#45;1879048205</title>
<path fill="#ccebc5" stroke="black" stroke-dasharray="5,2" d="M23,-90C23,-90 79,-90 79,-90 85,-90 91,-96 91,-102 91,-102 91,-120 91,-120 91,-126 85,-132 79,-132 79,-132 23,-132 23,-132 17,-132 11,-126 11,-120 11,-120 11,-102 11,-102 11,-96 17,-90 23,-90"/>
</g>
<g id="clust76" class="cluster">
<title>outer_cluster_String&#45;536870921</title>
</g>
<g id="clust77" class="cluster">
<title>cluster_String&#45;536870921</title>
<path fill="#ccebc5" stroke="black" stroke-dasharray="5,2" d="M415,-248C415,-248 473,-248 473,-248 479,-248 485,-254 485,-260 485,-260 485,-278 485,-278 485,-284 479,-290 473,-290 473,-290 415,-290 415,-290 409,-290 403,-284 403,-278 403,-278 403,-260 403,-260 403,-254 409,-248 415,-248"/>
</g>
<g id="clust79" class="cluster">
<title>outer_cluster_String&#45;3221225478</title>
</g>
<g id="clust80" class="cluster">
<title>cluster_String&#45;3221225478</title>
<path fill="#ccebc5" stroke="black" stroke-dasharray="5,2" d="M321,-169C321,-169 357,-169 357,-169 363,-169 369,-175 369,-181 369,-181 369,-199 369,-199 369,-205 363,-211 357,-211 357,-211 321,-211 321,-211 315,-211 309,-205 309,-199 309,-199 309,-181 309,-181 309,-175 315,-169 321,-169"/>
</g>
<g id="clust82" class="cluster">
<title>outer_cluster_FastMathFlags&#45;8</title>
</g>
<g id="clust83" class="cluster">
<title>cluster_FastMathFlags&#45;8</title>
<path fill="#ffed6f" stroke="black" stroke-dasharray="5,2" d="M130,-11C130,-11 166,-11 166,-11 172,-11 178,-17 178,-23 178,-23 178,-41 178,-41 178,-47 172,-53 166,-53 166,-53 130,-53 130,-53 124,-53 118,-47 118,-41 118,-41 118,-23 118,-23 118,-17 124,-11 130,-11"/>
</g>
<g id="clust85" class="cluster">
<title>outer_cluster_AttrPair&#45;5</title>
</g>
<g id="clust86" class="cluster">
<title>cluster_AttrPair&#45;5</title>
<path fill="#000000" stroke="black" stroke-dasharray="5,2" d="M327,-248C327,-248 385,-248 385,-248 391,-248 397,-254 397,-260 397,-260 397,-278 397,-278 397,-284 391,-290 385,-290 385,-290 327,-290 327,-290 321,-290 315,-284 315,-278 315,-278 315,-260 315,-260 315,-254 321,-248 327,-248"/>
</g>
<g id="clust88" class="cluster">
<title>outer_cluster_AttrPair&#45;10</title>
</g>
<g id="clust89" class="cluster">
<title>cluster_AttrPair&#45;10</title>
<path fill="#000000" stroke="black" stroke-dasharray="5,2" d="M127,-169C127,-169 185,-169 185,-169 191,-169 197,-175 197,-181 197,-181 197,-199 197,-199 197,-205 191,-211 185,-211 185,-211 127,-211 127,-211 121,-211 115,-205 115,-199 115,-199 115,-181 115,-181 115,-175 121,-169 127,-169"/>
</g>
<g id="clust91" class="cluster">
<title>outer_cluster_AttrPair&#45;13</title>
</g>
<g id="clust92" class="cluster">
<title>cluster_AttrPair&#45;13</title>
<path fill="#000000" stroke="black" stroke-dasharray="5,2" d="M433,-327C433,-327 491,-327 491,-327 497,-327 503,-333 503,-339 503,-339 503,-357 503,-357 503,-363 497,-369 491,-369 491,-369 433,-369 433,-369 427,-369 421,-363 421,-357 421,-357 421,-339 421,-339 421,-333 427,-327 433,-327"/>
</g>
<!-- IntegerAttr&#45;5363064066095506329&#45;&gt;i64&#45;3 -->
<g id="edge1" class="edge">
<title>IntegerAttr&#45;5363064066095506329:s&#45;&gt;i64&#45;3</title>
<path fill="none" stroke="black" d="M513,-253C513,-238.74 519.77,-224.48 527.08,-213.24"/>
<polygon fill="black" stroke="black" points="526.31,-217.31 527.8,-212.23 523.47,-215.28 526.31,-217.31"/>
</g>
<!-- IntegerAttr&#45;5363064066095506329&#45;&gt;I64&#45;0 -->
<g id="edge2" class="edge">
<title>IntegerAttr&#45;5363064066095506329:s&#45;&gt;I64&#45;0</title>
<path fill="none" stroke="black" d="M548.5,-253C548.5,-241.92 528.56,-224.92 510.05,-211.52"/>
<polygon fill="black" stroke="black" points="513.94,-214.45 509.8,-211.13 510.97,-216.3 513.94,-214.45"/>
</g>
<!-- arith_fastmath&#45;10080759905092916392&#45;&gt;none&#45;0 -->
<g id="edge3" class="edge">
<title>arith_fastmath&#45;10080759905092916392:s&#45;&gt;none&#45;0</title>
<path fill="none" stroke="black" d="M148,-95C148,-82.22 148,-67.96 148,-56.35"/>
<polygon fill="black" stroke="black" points="149.75,-59.51 148,-54.51 146.25,-59.51 149.75,-59.51"/>
</g>
<!-- FloatAttr&#45;5871781006564002453&#45;&gt;f64&#45;0 -->
<g id="edge4" class="edge">
<title>FloatAttr&#45;5871781006564002453:s&#45;&gt;f64&#45;0</title>
<path fill="none" stroke="black" d="M394,-174C394,-161.22 394,-146.96 394,-135.35"/>
<polygon fill="black" stroke="black" points="395.75,-138.51 394,-133.51 392.25,-138.51 395.75,-138.51"/>
</g>
<!-- FloatAttr&#45;5871781006564002453&#45;&gt;F32&#45;0 -->
<g id="edge5" class="edge">
<title>FloatAttr&#45;5871781006564002453:s&#45;&gt;F32&#45;0</title>
<path fill="none" stroke="black" d="M423.5,-174C423.5,-163.9 369.84,-140.01 333.55,-125.01"/>
<polygon fill="black" stroke="black" points="337.58,-125.14 332.34,-124.38 335.97,-128.24 337.58,-125.14"/>
</g>
<!-- Blk&#45;0&#45;&gt;OpVec&#45;0 -->
<g id="edge6" class="edge">
<title>Blk&#45;0:s&#45;&gt;OpVec&#45;0</title>
<path fill="none" stroke="black" d="M223,-411C223,-395.4 213.43,-381.26 202.93,-370.43"/>
<polygon fill="black" stroke="black" points="207.36,-372.16 202.51,-370.03 204.97,-374.72 207.36,-372.16"/>
</g>
<!-- OpVec&#45;0&#45;&gt;math_sqrt&#45;17720959334994776468 -->
<g id="edge34" class="edge">
<title>OpVec&#45;0:s&#45;&gt;math_sqrt&#45;17720959334994776468</title>
<path fill="none" stroke="black" d="M176,-332C176,-312.89 190.78,-298.31 206.85,-288.11"/>
<polygon fill="black" stroke="black" points="204.32,-291.67 207.7,-287.59 202.52,-288.67 204.32,-291.67"/>
</g>
<!-- Blk&#45;5871781006564002453&#45;&gt;OpVec&#45;1 -->
<g id="edge7" class="edge">
<title>Blk&#45;5871781006564002453:s&#45;&gt;OpVec&#45;1</title>
<path fill="none" stroke="black" d="M152,-490C152,-477.09 151.34,-462.68 150.64,-451.01"/>
<polygon fill="black" stroke="black" points="152.83,-454.24 150.45,-449.5 149.35,-454.68 152.83,-454.24"/>
</g>
<!-- OpVec&#45;1&#45;&gt;arith_negf&#45;17720959334994776468 -->
<g id="edge35" class="edge">
<title>OpVec&#45;1:s&#45;&gt;arith_negf&#45;17720959334994776468</title>
<path fill="none" stroke="black" d="M136.5,-411C136.5,-369.24 143.73,-321 148.61,-293.15"/>
<polygon fill="black" stroke="black" points="149.19,-296.72 149.23,-291.43 145.9,-295.54 149.19,-296.72"/>
</g>
<!-- OpVec&#45;1&#45;&gt;math_sqrt&#45;28517649814821314 -->
<g id="edge36" class="edge">
<title>OpVec&#45;1:s&#45;&gt;math_sqrt&#45;28517649814821314</title>
<path fill="none" stroke="black" d="M161.5,-411C161.5,-399.72 140.98,-382.9 121.77,-369.62"/>
<polygon fill="black" stroke="black" points="127.07,-370.09 121.79,-369.62 125.62,-373.28 127.07,-370.09"/>
</g>
<!-- Reg&#45;5871781006564002453&#45;&gt;BlockVec&#45;1 -->
<g id="edge8" class="edge">
<title>Reg&#45;5871781006564002453:s&#45;&gt;BlockVec&#45;1</title>
<path fill="none" stroke="black" d="M203,-648C203,-632.28 193.23,-618.12 182.5,-607.32"/>
<polygon fill="black" stroke="black" points="187.04,-608.74 182.05,-606.95 184.84,-611.46 187.04,-608.74"/>
</g>
<!-- BlockVec&#45;1&#45;&gt;Blk&#45;5871781006564002453 -->
<g id="edge33" class="edge">
<title>BlockVec&#45;1:s&#45;&gt;Blk&#45;5871781006564002453</title>
<path fill="none" stroke="black" d="M155,-569C155,-556.09 154.34,-541.68 153.64,-530.01"/>
<polygon fill="black" stroke="black" points="155.83,-533.24 153.45,-528.5 152.35,-533.68 155.83,-533.24"/>
</g>
<!-- Reg&#45;0&#45;&gt;BlockVec&#45;0 -->
<g id="edge9" class="edge">
<title>Reg&#45;0:s&#45;&gt;BlockVec&#45;0</title>
<path fill="none" stroke="black" d="M245,-569C245,-556.02 243.47,-541.61 241.84,-529.95"/>
<polygon fill="black" stroke="black" points="244.51,-532.71 241.37,-528.45 241.17,-533.74 244.51,-532.71"/>
</g>
<!-- BlockVec&#45;0&#45;&gt;Blk&#45;0 -->
<g id="edge32" class="edge">
<title>BlockVec&#45;0:s&#45;&gt;Blk&#45;0</title>
<path fill="none" stroke="black" d="M238,-490C238,-476.82 234.76,-462.51 231.29,-450.95"/>
<polygon fill="black" stroke="black" points="234.39,-452.49 230.19,-449.27 231.46,-454.41 234.39,-452.49"/>
</g>
<!-- arith_constant&#45;7223664373682896047&#45;&gt;F32&#45;0 -->
<g id="edge11" class="edge">
<title>arith_constant&#45;7223664373682896047:s&#45;&gt;F32&#45;0</title>
<path fill="none" stroke="black" d="M376,-332C376,-299.45 330.81,-320.88 314,-293 298.37,-267.07 298.88,-178.04 300.11,-135.28"/>
<polygon fill="black" stroke="black" points="301.66,-138.61 300.22,-133.51 298.16,-138.39 301.66,-138.61"/>
</g>
<!-- arith_constant&#45;7223664373682896047&#45;&gt;NamedAttr&#45;1773198441008368060 -->
<g id="edge10" class="edge">
<title>arith_constant&#45;7223664373682896047:s&#45;&gt;NamedAttr&#45;1773198441008368060</title>
<path fill="none" stroke="black" d="M330,-332C330,-318.18 335.56,-303.89 341.54,-292.51"/>
<polygon fill="black" stroke="black" points="340.79,-296.1 342.69,-291.15 338.12,-293.83 340.79,-296.1"/>
</g>
<!-- NamedAttr&#45;1773198441008368060&#45;&gt;FloatAttr&#45;5871781006564002453 -->
<g id="edge38" class="edge">
<title>NamedAttr&#45;1773198441008368060:s&#45;&gt;FloatAttr&#45;5871781006564002453</title>
<path fill="none" stroke="black" d="M374,-253C374,-238.32 381.54,-223.91 389.62,-212.68"/>
<polygon fill="black" stroke="black" points="387.9,-216.8 390.26,-212.06 385.46,-214.29 387.9,-216.8"/>
</g>
<!-- NamedAttr&#45;1773198441008368060&#45;&gt;String&#45;3221225478 -->
<g id="edge37" class="edge">
<title>NamedAttr&#45;1773198441008368060:s&#45;&gt;String&#45;3221225478</title>
<path fill="none" stroke="black" d="M337.5,-253C337.5,-240.22 337.82,-225.96 338.17,-214.34"/>
<polygon fill="black" stroke="black" points="339.72,-217.61 338.28,-212.51 336.23,-217.39 339.72,-217.61"/>
</g>
<!-- arith_negf&#45;17720959334994776468&#45;&gt;F32&#45;0 -->
<g id="edge14" class="edge">
<title>arith_negf&#45;17720959334994776468:s&#45;&gt;F32&#45;0</title>
<path fill="none" stroke="black" d="M178.5,-253C178.5,-233.62 190.58,-231.9 198,-214 206.61,-193.22 199.9,-183.52 214,-166 230.87,-145.04 243.2,-149.28 266,-135 267.35,-134.16 268.72,-133.29 270.11,-132.41"/>
<polygon fill="black" stroke="black" points="269.06,-137.42 270.2,-132.25 266.08,-135.58 269.06,-137.42"/>
</g>
<!-- arith_negf&#45;17720959334994776468&#45;&gt;Value&#45;5871781006564002453 -->
<g id="edge12" class="edge">
<title>arith_negf&#45;17720959334994776468:s&#45;&gt;Value&#45;5871781006564002453</title>
<path fill="none" stroke="black" d="M136,-253C136,-215.82 177.98,-232.9 210,-214 211.53,-213.1 213.08,-212.16 214.64,-211.2"/>
<polygon fill="black" stroke="black" points="211.33,-216.54 213.88,-211.89 208.99,-213.94 211.33,-216.54"/>
</g>
<!-- arith_negf&#45;17720959334994776468&#45;&gt;NamedAttr&#45;10439477994750310197 -->
<g id="edge13" class="edge">
<title>arith_negf&#45;17720959334994776468:s&#45;&gt;NamedAttr&#45;10439477994750310197</title>
<path fill="none" stroke="black" d="M161.5,-253C161.5,-240.05 160.3,-225.64 159.01,-213.98"/>
<polygon fill="black" stroke="black" points="161.52,-216.93 158.65,-212.47 158.12,-217.74 161.52,-216.93"/>
</g>
<!-- Value&#45;5871781006564002453&#45;&gt;F32&#45;0 -->
<g id="edge24" class="edge">
<title>Value&#45;5871781006564002453:s&#45;&gt;F32&#45;0</title>
<path fill="none" stroke="black" d="M255.5,-174C255.5,-158.46 264.9,-144.24 275.16,-133.35"/>
<polygon fill="black" stroke="black" points="273.05,-137.75 275.48,-133.04 270.65,-135.2 273.05,-137.75"/>
</g>
<!-- Value&#45;5871781006564002453&#45;&gt;i64&#45;0 -->
<g id="edge23" class="edge">
<title>Value&#45;5871781006564002453:s&#45;&gt;i64&#45;0</title>
<path fill="none" stroke="black" d="M234.5,-174C234.5,-161.22 234.61,-146.96 234.72,-135.35"/>
<polygon fill="black" stroke="black" points="236.41,-138.55 234.76,-133.51 232.91,-138.48 236.41,-138.55"/>
</g>
<!-- NamedAttr&#45;10439477994750310197&#45;&gt;arith_fastmath&#45;10080759905092916392 -->
<g id="edge40" class="edge">
<title>NamedAttr&#45;10439477994750310197:s&#45;&gt;arith_fastmath&#45;10080759905092916392</title>
<path fill="none" stroke="black" d="M174,-174C174,-160.18 168.44,-145.89 162.46,-134.51"/>
<polygon fill="black" stroke="black" points="165.88,-135.83 161.31,-133.15 163.21,-138.1 165.88,-135.83"/>
</g>
<!-- NamedAttr&#45;10439477994750310197&#45;&gt;String&#45;1879048205 -->
<g id="edge39" class="edge">
<title>NamedAttr&#45;10439477994750310197:s&#45;&gt;String&#45;1879048205</title>
<path fill="none" stroke="black" d="M137.5,-174C137.5,-162.52 117.12,-147.58 96.15,-135.24"/>
<polygon fill="black" stroke="black" points="97.04,-133.74 91.84,-132.75 95.29,-136.77 97.04,-133.74"/>
</g>
<!-- math_sqrt&#45;17720959334994776468&#45;&gt;F32&#45;0 -->
<g id="edge17" class="edge">
<title>math_sqrt&#45;17720959334994776468:s&#45;&gt;F32&#45;0</title>
<path fill="none" stroke="black" d="M272.5,-253C272.5,-230.19 287.01,-168.17 295.32,-134.49"/>
<polygon fill="black" stroke="black" points="294.97,-138.49 296.02,-133.3 291.96,-136.71 294.97,-138.49"/>
</g>
<!-- math_sqrt&#45;17720959334994776468&#45;&gt;Value&#45;5871781006564002453 -->
<g id="edge15" class="edge">
<title>math_sqrt&#45;17720959334994776468:s&#45;&gt;Value&#45;5871781006564002453</title>
<path fill="none" stroke="black" d="M230,-253C230,-239.82 233.24,-225.51 236.71,-213.95"/>
<polygon fill="black" stroke="black" points="236.54,-217.41 237.81,-212.27 233.61,-215.49 236.54,-217.41"/>
</g>
<!-- math_sqrt&#45;17720959334994776468&#45;&gt;NamedAttr&#45;10439477994750310197 -->
<g id="edge16" class="edge">
<title>math_sqrt&#45;17720959334994776468:s&#45;&gt;NamedAttr&#45;10439477994750310197</title>
<path fill="none" stroke="black" d="M255.5,-253C255.5,-238.8 225.92,-221.65 199.02,-208.99"/>
<polygon fill="black" stroke="black" points="203.17,-210.09 198.18,-208.31 200.97,-212.81 203.17,-210.09"/>
</g>
<!-- arith_cmpf&#45;444619395108343417&#45;&gt;arith_constant&#45;7223664373682896047 -->
<g id="edge19" class="edge">
<title>arith_cmpf&#45;444619395108343417:s&#45;&gt;arith_constant&#45;7223664373682896047</title>
<path fill="none" stroke="black" d="M314.5,-411C314.5,-396.17 322.55,-381.93 331.29,-370.86"/>
<polygon fill="black" stroke="black" points="329.69,-374.68 332.21,-370.02 327.33,-372.09 329.69,-374.68"/>
</g>
<!-- arith_cmpf&#45;444619395108343417&#45;&gt;Value&#45;5871781006564002453 -->
<g id="edge18" class="edge">
<title>arith_cmpf&#45;444619395108343417:s&#45;&gt;Value&#45;5871781006564002453</title>
<path fill="none" stroke="black" d="M288,-411C288,-337.22 309.96,-314.78 286,-245 281.94,-233.16 274.18,-221.85 266.49,-212.66"/>
<polygon fill="black" stroke="black" points="270.53,-213.47 265.47,-211.9 268.45,-216.28 270.53,-213.47"/>
</g>
<!-- arith_cmpf&#45;444619395108343417&#45;&gt;NamedAttr&#45;10439477994750310197 -->
<g id="edge20" class="edge">
<title>arith_cmpf&#45;444619395108343417:s&#45;&gt;NamedAttr&#45;10439477994750310197</title>
<path fill="none" stroke="black" d="M328,-411C328,-361.63 256.9,-408.8 224,-372 204.6,-350.3 203.8,-271.61 192,-245 186.99,-233.7 179.66,-222.17 172.93,-212.68"/>
<polygon fill="black" stroke="black" points="177.09,-214.4 172.33,-212.08 174.6,-216.86 177.09,-214.4"/>
</g>
<!-- arith_cmpf&#45;444619395108343417&#45;&gt;NamedAttr&#45;532458502365569988 -->
<g id="edge21" class="edge">
<title>arith_cmpf&#45;444619395108343417:s&#45;&gt;NamedAttr&#45;532458502365569988</title>
<path fill="none" stroke="black" d="M334.5,-411C334.5,-406.2 381.93,-384.19 418.94,-367.75"/>
<polygon fill="black" stroke="black" points="416.91,-371.52 419.8,-367.08 414.77,-368.75 416.91,-371.52"/>
</g>
<!-- arith_cmpf&#45;444619395108343417&#45;&gt;I1&#45;0 -->
<g id="edge22" class="edge">
<title>arith_cmpf&#45;444619395108343417:s&#45;&gt;I1&#45;0</title>
<path fill="none" stroke="black" d="M339,-411C339,-407.55 309.2,-386.21 285.1,-369.52"/>
<polygon fill="black" stroke="black" points="287.69,-375.01 285.22,-370.32 284.23,-375.53 287.69,-375.01"/>
</g>
<!-- NamedAttr&#45;532458502365569988&#45;&gt;IntegerAttr&#45;5363064066095506329 -->
<g id="edge42" class="edge">
<title>NamedAttr&#45;532458502365569988:s&#45;&gt;IntegerAttr&#45;5363064066095506329</title>
<path fill="none" stroke="black" d="M480,-332C480,-315.88 490.41,-301.67 501.82,-290.94"/>
<polygon fill="black" stroke="black" points="498.7,-294.84 502.1,-290.77 496.9,-291.83 498.7,-294.84"/>
</g>
<!-- NamedAttr&#45;532458502365569988&#45;&gt;String&#45;536870921 -->
<g id="edge41" class="edge">
<title>NamedAttr&#45;532458502365569988:s&#45;&gt;String&#45;536870921</title>
<path fill="none" stroke="black" d="M443.5,-332C443.5,-319.22 443.61,-304.96 443.72,-293.35"/>
<polygon fill="black" stroke="black" points="445.41,-296.55 443.76,-291.51 441.91,-296.48 445.41,-296.55"/>
</g>
<!-- scf_if&#45;2950782419708476712&#45;&gt;F32&#45;0 -->
<g id="edge28" class="edge">
<title>scf_if&#45;2950782419708476712:s&#45;&gt;F32&#45;0</title>
<path fill="none" stroke="black" d="M317,-727C317,-592.8 584,-720.2 584,-586 584,-586 584,-586 584,-268 584,-222.53 607.07,-199.2 576,-166 543.32,-131.08 409.35,-146.83 363,-135 353.33,-132.53 343.07,-129.09 333.75,-125.61"/>
<polygon fill="black" stroke="black" points="337.64,-125.49 332.37,-124.97 336.17,-128.67 337.64,-125.49"/>
</g>
<!-- scf_if&#45;2950782419708476712&#45;&gt;Reg&#45;5871781006564002453 -->
<g id="edge27" class="edge">
<title>scf_if&#45;2950782419708476712:s&#45;&gt;Reg&#45;5871781006564002453</title>
<path fill="none" stroke="black" d="M312,-727C312,-691.69 268.25,-676.24 236.18,-669.65"/>
<polygon fill="black" stroke="black" points="239.71,-669.11 234.42,-668.98 238.48,-672.39 239.71,-669.11"/>
</g>
<!-- scf_if&#45;2950782419708476712&#45;&gt;Reg&#45;0 -->
<g id="edge26" class="edge">
<title>scf_if&#45;2950782419708476712:s&#45;&gt;Reg&#45;0</title>
<path fill="none" stroke="black" d="M304.5,-727C304.5,-682.1 278.58,-635.04 260.95,-608.24"/>
<polygon fill="black" stroke="black" points="264.57,-610.24 260.22,-607.23 261.74,-612.3 264.57,-610.24"/>
</g>
<!-- scf_if&#45;2950782419708476712&#45;&gt;arith_cmpf&#45;444619395108343417 -->
<g id="edge25" class="edge">
<title>scf_if&#45;2950782419708476712:s&#45;&gt;arith_cmpf&#45;444619395108343417</title>
<path fill="none" stroke="black" d="M290,-727C290,-624.02 299.58,-501.37 303.92,-451.16"/>
<polygon fill="black" stroke="black" points="305.07,-454.72 304.21,-449.49 301.62,-454.12 305.07,-454.72"/>
</g>
<!-- math_sqrt&#45;28517649814821314&#45;&gt;F32&#45;0 -->
<g id="edge31" class="edge">
<title>math_sqrt&#45;28517649814821314:s&#45;&gt;F32&#45;0</title>
<path fill="none" stroke="black" d="M114.5,-332C114.5,-258.22 67.33,-223.14 114,-166 157.61,-112.6 202.26,-161.29 266,-135 266.27,-134.89 266.53,-134.78 266.8,-134.66"/>
<polygon fill="black" stroke="black" points="267.27,-136.38 271.03,-132.65 265.76,-133.22 267.27,-136.38"/>
</g>
<!-- math_sqrt&#45;28517649814821314&#45;&gt;arith_negf&#45;17720959334994776468 -->
<g id="edge29" class="edge">
<title>math_sqrt&#45;28517649814821314:s&#45;&gt;arith_negf&#45;17720959334994776468</title>
<path fill="none" stroke="black" d="M72,-332C72,-319.92 95.01,-303.1 116.5,-290.03"/>
<polygon fill="black" stroke="black" points="110.56,-292.27 115.41,-290.12 110.28,-288.78 110.56,-292.27"/>
</g>
<!-- math_sqrt&#45;28517649814821314&#45;&gt;NamedAttr&#45;10439477994750310197 -->
<g id="edge30" class="edge">
<title>math_sqrt&#45;28517649814821314:s&#45;&gt;NamedAttr&#45;10439477994750310197</title>
<path fill="none" stroke="black" d="M97.5,-332C97.5,-292.64 97.8,-280.87 114,-245 119.33,-233.2 127.73,-221.66 135.63,-212.3"/>
<polygon fill="black" stroke="black" points="133.11,-215.95 136.41,-211.81 131.25,-212.98 133.11,-215.95"/>
</g>
<!-- IntegerAttr&#45;5363064066095506329 -->
<g id="node1" class="node">
<title>IntegerAttr&#45;5363064066095506329</title>
<g id="a_node1"><a xlink:title="Attr&#45;12: IntegerAttr&#45;5363064066095506329">
<path fill="white" stroke="none" d="M505.17,-253C505.17,-253 556.83,-253 556.83,-253 562.17,-253 567.5,-258.33 567.5,-263.67 567.5,-263.67 567.5,-274.33 567.5,-274.33 567.5,-279.67 562.17,-285 556.83,-285 556.83,-285 505.17,-285 505.17,-285 499.83,-285 494.5,-279.67 494.5,-274.33 494.5,-274.33 494.5,-263.67 494.5,-263.67 494.5,-258.33 499.83,-253 505.17,-253"/>
<text text-anchor="start" x="499.5" y="-263.2" font-family="Helvetica,sans-Serif" font-size="14.00">IntegerAttr</text>
<path fill="none" stroke="black" d="M505.17,-253C505.17,-253 556.83,-253 556.83,-253 562.17,-253 567.5,-258.33 567.5,-263.67 567.5,-263.67 567.5,-274.33 567.5,-274.33 567.5,-279.67 562.17,-285 556.83,-285 556.83,-285 505.17,-285 505.17,-285 499.83,-285 494.5,-279.67 494.5,-274.33 494.5,-274.33 494.5,-263.67 494.5,-263.67 494.5,-258.33 499.83,-253 505.17,-253"/>
</a>
</g>
</g>
<!-- i64&#45;3 -->
<g id="node2" class="node">
<title>i64&#45;3</title>
<g id="a_node2"><a xlink:title="i64&#45;3: i64&#45;3">
<path fill="white" stroke="none" d="M539.67,-174C539.67,-174 550.33,-174 550.33,-174 555.67,-174 561,-179.33 561,-184.67 561,-184.67 561,-195.33 561,-195.33 561,-200.67 555.67,-206 550.33,-206 550.33,-206 539.67,-206 539.67,-206 534.33,-206 529,-200.67 529,-195.33 529,-195.33 529,-184.67 529,-184.67 529,-179.33 534.33,-174 539.67,-174"/>
<text text-anchor="start" x="541.25" y="-184.2" font-family="Helvetica,sans-Serif" font-size="14.00">3</text>
<path fill="none" stroke="black" d="M539.67,-174C539.67,-174 550.33,-174 550.33,-174 555.67,-174 561,-179.33 561,-184.67 561,-184.67 561,-195.33 561,-195.33 561,-200.67 555.67,-206 550.33,-206 550.33,-206 539.67,-206 539.67,-206 534.33,-206 529,-200.67 529,-195.33 529,-195.33 529,-184.67 529,-184.67 529,-179.33 534.33,-174 539.67,-174"/>
</a>
</g>
</g>
<!-- I64&#45;0 -->
<g id="node3" class="node">
<title>I64&#45;0</title>
<g id="a_node3"><a xlink:title="Type&#45;11: I64&#45;0">
<path fill="white" stroke="none" d="M473.67,-174C473.67,-174 484.33,-174 484.33,-174 489.67,-174 495,-179.33 495,-184.67 495,-184.67 495,-195.33 495,-195.33 495,-200.67 489.67,-206 484.33,-206 484.33,-206 473.67,-206 473.67,-206 468.33,-206 463,-200.67 463,-195.33 463,-195.33 463,-184.67 463,-184.67 463,-179.33 468.33,-174 473.67,-174"/>
<text text-anchor="start" x="469.62" y="-184.2" font-family="Helvetica,sans-Serif" font-size="14.00">I64</text>
<path fill="none" stroke="black" d="M473.67,-174C473.67,-174 484.33,-174 484.33,-174 489.67,-174 495,-179.33 495,-184.67 495,-184.67 495,-195.33 495,-195.33 495,-200.67 489.67,-206 484.33,-206 484.33,-206 473.67,-206 473.67,-206 468.33,-206 463,-200.67 463,-195.33 463,-195.33 463,-184.67 463,-184.67 463,-179.33 468.33,-174 473.67,-174"/>
</a>
</g>
</g>
<!-- arith_fastmath&#45;10080759905092916392 -->
<g id="node4" class="node">
<title>arith_fastmath&#45;10080759905092916392</title>
<g id="a_node4"><a xlink:title="Attr&#45;9: arith_fastmath&#45;10080759905092916392">
<path fill="white" stroke="none" d="M110.54,-95C110.54,-95 185.46,-95 185.46,-95 190.79,-95 196.12,-100.33 196.12,-105.67 196.12,-105.67 196.12,-116.33 196.12,-116.33 196.12,-121.67 190.79,-127 185.46,-127 185.46,-127 110.54,-127 110.54,-127 105.21,-127 99.88,-121.67 99.88,-116.33 99.88,-116.33 99.88,-105.67 99.88,-105.67 99.88,-100.33 105.21,-95 110.54,-95"/>
<text text-anchor="start" x="104.88" y="-105.2" font-family="Helvetica,sans-Serif" font-size="14.00">arith_fastmath</text>
<path fill="none" stroke="black" d="M110.54,-95C110.54,-95 185.46,-95 185.46,-95 190.79,-95 196.12,-100.33 196.12,-105.67 196.12,-105.67 196.12,-116.33 196.12,-116.33 196.12,-121.67 190.79,-127 185.46,-127 185.46,-127 110.54,-127 110.54,-127 105.21,-127 99.88,-121.67 99.88,-116.33 99.88,-116.33 99.88,-105.67 99.88,-105.67 99.88,-100.33 105.21,-95 110.54,-95"/>
</a>
</g>
</g>
<!-- none&#45;0 -->
<g id="node5" class="node">
<title>none&#45;0</title>
<g id="a_node5"><a xlink:title="FastMathFlags&#45;8: none&#45;0">
<path fill="white" stroke="none" d="M138.67,-16C138.67,-16 157.33,-16 157.33,-16 162.67,-16 168,-21.33 168,-26.67 168,-26.67 168,-37.33 168,-37.33 168,-42.67 162.67,-48 157.33,-48 157.33,-48 138.67,-48 138.67,-48 133.33,-48 128,-42.67 128,-37.33 128,-37.33 128,-26.67 128,-26.67 128,-21.33 133.33,-16 138.67,-16"/>
<text text-anchor="start" x="133" y="-26.2" font-family="Helvetica,sans-Serif" font-size="14.00">none</text>
<path fill="none" stroke="black" d="M138.67,-16C138.67,-16 157.33,-16 157.33,-16 162.67,-16 168,-21.33 168,-26.67 168,-26.67 168,-37.33 168,-37.33 168,-42.67 162.67,-48 157.33,-48 157.33,-48 138.67,-48 138.67,-48 133.33,-48 128,-42.67 128,-37.33 128,-37.33 128,-26.67 128,-26.67 128,-21.33 133.33,-16 138.67,-16"/>
</a>
</g>
</g>
<!-- FloatAttr&#45;5871781006564002453 -->
<g id="node6" class="node">
<title>FloatAttr&#45;5871781006564002453</title>
<g id="a_node6"><a xlink:title="Attr&#45;4: FloatAttr&#45;5871781006564002453">
<path fill="white" stroke="none" d="M389.17,-174C389.17,-174 428.83,-174 428.83,-174 434.17,-174 439.5,-179.33 439.5,-184.67 439.5,-184.67 439.5,-195.33 439.5,-195.33 439.5,-200.67 434.17,-206 428.83,-206 428.83,-206 389.17,-206 389.17,-206 383.83,-206 378.5,-200.67 378.5,-195.33 378.5,-195.33 378.5,-184.67 378.5,-184.67 378.5,-179.33 383.83,-174 389.17,-174"/>
<text text-anchor="start" x="383.5" y="-184.2" font-family="Helvetica,sans-Serif" font-size="14.00">FloatAttr</text>
<path fill="none" stroke="black" d="M389.17,-174C389.17,-174 428.83,-174 428.83,-174 434.17,-174 439.5,-179.33 439.5,-184.67 439.5,-184.67 439.5,-195.33 439.5,-195.33 439.5,-200.67 434.17,-206 428.83,-206 428.83,-206 389.17,-206 389.17,-206 383.83,-206 378.5,-200.67 378.5,-195.33 378.5,-195.33 378.5,-184.67 378.5,-184.67 378.5,-179.33 383.83,-174 389.17,-174"/>
</a>
</g>
</g>
<!-- f64&#45;0 -->
<g id="node7" class="node">
<title>f64&#45;0</title>
<g id="a_node7"><a xlink:title="f64&#45;0: f64&#45;0">
<path fill="white" stroke="none" d="M388.67,-95C388.67,-95 399.33,-95 399.33,-95 404.67,-95 410,-100.33 410,-105.67 410,-105.67 410,-116.33 410,-116.33 410,-121.67 404.67,-127 399.33,-127 399.33,-127 388.67,-127 388.67,-127 383.33,-127 378,-121.67 378,-116.33 378,-116.33 378,-105.67 378,-105.67 378,-100.33 383.33,-95 388.67,-95"/>
<text text-anchor="start" x="384.62" y="-105.2" font-family="Helvetica,sans-Serif" font-size="14.00">0.0</text>
<path fill="none" stroke="black" d="M388.67,-95C388.67,-95 399.33,-95 399.33,-95 404.67,-95 410,-100.33 410,-105.67 410,-105.67 410,-116.33 410,-116.33 410,-121.67 404.67,-127 399.33,-127 399.33,-127 388.67,-127 388.67,-127 383.33,-127 378,-121.67 378,-116.33 378,-116.33 378,-105.67 378,-105.67 378,-100.33 383.33,-95 388.67,-95"/>
</a>
</g>
</g>
<!-- F32&#45;0 -->
<g id="node8" class="node">
<title>F32&#45;0</title>
<g id="a_node8"><a xlink:title="Type&#45;1: F32&#45;0">
<path fill="white" stroke="none" d="M295.04,-95C295.04,-95 306.96,-95 306.96,-95 312.29,-95 317.62,-100.33 317.62,-105.67 317.62,-105.67 317.62,-116.33 317.62,-116.33 317.62,-121.67 312.29,-127 306.96,-127 306.96,-127 295.04,-127 295.04,-127 289.71,-127 284.38,-121.67 284.38,-116.33 284.38,-116.33 284.38,-105.67 284.38,-105.67 284.38,-100.33 289.71,-95 295.04,-95"/>
<text text-anchor="start" x="289.38" y="-105.2" font-family="Helvetica,sans-Serif" font-size="14.00">F32</text>
<path fill="none" stroke="black" d="M295.04,-95C295.04,-95 306.96,-95 306.96,-95 312.29,-95 317.62,-100.33 317.62,-105.67 317.62,-105.67 317.62,-116.33 317.62,-116.33 317.62,-121.67 312.29,-127 306.96,-127 306.96,-127 295.04,-127 295.04,-127 289.71,-127 284.38,-121.67 284.38,-116.33 284.38,-116.33 284.38,-105.67 284.38,-105.67 284.38,-100.33 289.71,-95 295.04,-95"/>
</a>
</g>
</g>
<!-- Blk&#45;0 -->
<g id="node9" class="node">
<title>Blk&#45;0</title>
<g id="a_node9"><a xlink:title="Block&#45;23: Blk&#45;0">
<path fill="white" stroke="none" d="M217.67,-411C217.67,-411 228.33,-411 228.33,-411 233.67,-411 239,-416.33 239,-421.67 239,-421.67 239,-432.33 239,-432.33 239,-437.67 233.67,-443 228.33,-443 228.33,-443 217.67,-443 217.67,-443 212.33,-443 207,-437.67 207,-432.33 207,-432.33 207,-421.67 207,-421.67 207,-416.33 212.33,-411 217.67,-411"/>
<text text-anchor="start" x="213.62" y="-421.2" font-family="Helvetica,sans-Serif" font-size="14.00">Blk</text>
<path fill="none" stroke="black" d="M217.67,-411C217.67,-411 228.33,-411 228.33,-411 233.67,-411 239,-416.33 239,-421.67 239,-421.67 239,-432.33 239,-432.33 239,-437.67 233.67,-443 228.33,-443 228.33,-443 217.67,-443 217.67,-443 212.33,-443 207,-437.67 207,-432.33 207,-432.33 207,-421.67 207,-421.67 207,-416.33 212.33,-411 217.67,-411"/>
</a>
</g>
</g>
<!-- OpVec&#45;0 -->
<g id="node10" class="node">
<title>OpVec&#45;0</title>
<g id="a_node10"><a xlink:title="OpVec&#45;0: OpVec&#45;0">
<path fill="white" stroke="none" d="M160.67,-332C160.67,-332 191.33,-332 191.33,-332 196.67,-332 202,-337.33 202,-342.67 202,-342.67 202,-353.33 202,-353.33 202,-358.67 196.67,-364 191.33,-364 191.33,-364 160.67,-364 160.67,-364 155.33,-364 150,-358.67 150,-353.33 150,-353.33 150,-342.67 150,-342.67 150,-337.33 155.33,-332 160.67,-332"/>
<text text-anchor="start" x="155" y="-342.2" font-family="Helvetica,sans-Serif" font-size="14.00">OpVec</text>
<path fill="none" stroke="black" d="M160.67,-332C160.67,-332 191.33,-332 191.33,-332 196.67,-332 202,-337.33 202,-342.67 202,-342.67 202,-353.33 202,-353.33 202,-358.67 196.67,-364 191.33,-364 191.33,-364 160.67,-364 160.67,-364 155.33,-364 150,-358.67 150,-353.33 150,-353.33 150,-342.67 150,-342.67 150,-337.33 155.33,-332 160.67,-332"/>
</a>
</g>
</g>
<!-- Blk&#45;5871781006564002453 -->
<g id="node11" class="node">
<title>Blk&#45;5871781006564002453</title>
<g id="a_node11"><a xlink:title="Block&#45;25: Blk&#45;5871781006564002453">
<path fill="white" stroke="none" d="M146.67,-490C146.67,-490 157.33,-490 157.33,-490 162.67,-490 168,-495.33 168,-500.67 168,-500.67 168,-511.33 168,-511.33 168,-516.67 162.67,-522 157.33,-522 157.33,-522 146.67,-522 146.67,-522 141.33,-522 136,-516.67 136,-511.33 136,-511.33 136,-500.67 136,-500.67 136,-495.33 141.33,-490 146.67,-490"/>
<text text-anchor="start" x="142.62" y="-500.2" font-family="Helvetica,sans-Serif" font-size="14.00">Blk</text>
<path fill="none" stroke="black" d="M146.67,-490C146.67,-490 157.33,-490 157.33,-490 162.67,-490 168,-495.33 168,-500.67 168,-500.67 168,-511.33 168,-511.33 168,-516.67 162.67,-522 157.33,-522 157.33,-522 146.67,-522 146.67,-522 141.33,-522 136,-516.67 136,-511.33 136,-511.33 136,-500.67 136,-500.67 136,-495.33 141.33,-490 146.67,-490"/>
</a>
</g>
</g>
<!-- OpVec&#45;1 -->
<g id="node12" class="node">
<title>OpVec&#45;1</title>
<g id="a_node12"><a xlink:title="OpVec&#45;1: OpVec&#45;1">
<path fill="white" stroke="none" d="M133.67,-411C133.67,-411 164.33,-411 164.33,-411 169.67,-411 175,-416.33 175,-421.67 175,-421.67 175,-432.33 175,-432.33 175,-437.67 169.67,-443 164.33,-443 164.33,-443 133.67,-443 133.67,-443 128.33,-443 123,-437.67 123,-432.33 123,-432.33 123,-421.67 123,-421.67 123,-416.33 128.33,-411 133.67,-411"/>
<text text-anchor="start" x="128" y="-421.2" font-family="Helvetica,sans-Serif" font-size="14.00">OpVec</text>
<path fill="none" stroke="black" d="M133.67,-411C133.67,-411 164.33,-411 164.33,-411 169.67,-411 175,-416.33 175,-421.67 175,-421.67 175,-432.33 175,-432.33 175,-437.67 169.67,-443 164.33,-443 164.33,-443 133.67,-443 133.67,-443 128.33,-443 123,-437.67 123,-432.33 123,-432.33 123,-421.67 123,-421.67 123,-416.33 128.33,-411 133.67,-411"/>
</a>
</g>
</g>
<!-- Reg&#45;5871781006564002453 -->
<g id="node13" class="node">
<title>Reg&#45;5871781006564002453</title>
<g id="a_node13"><a xlink:title="Region&#45;26: Reg&#45;5871781006564002453">
<path fill="white" stroke="none" d="M196.29,-648C196.29,-648 209.71,-648 209.71,-648 215.04,-648 220.38,-653.33 220.38,-658.67 220.38,-658.67 220.38,-669.33 220.38,-669.33 220.38,-674.67 215.04,-680 209.71,-680 209.71,-680 196.29,-680 196.29,-680 190.96,-680 185.62,-674.67 185.62,-669.33 185.62,-669.33 185.62,-658.67 185.62,-658.67 185.62,-653.33 190.96,-648 196.29,-648"/>
<text text-anchor="start" x="190.62" y="-658.2" font-family="Helvetica,sans-Serif" font-size="14.00">Reg</text>
<path fill="none" stroke="black" d="M196.29,-648C196.29,-648 209.71,-648 209.71,-648 215.04,-648 220.38,-653.33 220.38,-658.67 220.38,-658.67 220.38,-669.33 220.38,-669.33 220.38,-674.67 215.04,-680 209.71,-680 209.71,-680 196.29,-680 196.29,-680 190.96,-680 185.62,-674.67 185.62,-669.33 185.62,-669.33 185.62,-658.67 185.62,-658.67 185.62,-653.33 190.96,-648 196.29,-648"/>
</a>
</g>
</g>
<!-- BlockVec&#45;1 -->
<g id="node14" class="node">
<title>BlockVec&#45;1</title>
<g id="a_node14"><a xlink:title="BlockVec&#45;1: BlockVec&#45;1">
<path fill="white" stroke="none" d="M132.54,-569C132.54,-569 177.46,-569 177.46,-569 182.79,-569 188.12,-574.33 188.12,-579.67 188.12,-579.67 188.12,-590.33 188.12,-590.33 188.12,-595.67 182.79,-601 177.46,-601 177.46,-601 132.54,-601 132.54,-601 127.21,-601 121.88,-595.67 121.88,-590.33 121.88,-590.33 121.88,-579.67 121.88,-579.67 121.88,-574.33 127.21,-569 132.54,-569"/>
<text text-anchor="start" x="126.88" y="-579.2" font-family="Helvetica,sans-Serif" font-size="14.00">BlockVec</text>
<path fill="none" stroke="black" d="M132.54,-569C132.54,-569 177.46,-569 177.46,-569 182.79,-569 188.12,-574.33 188.12,-579.67 188.12,-579.67 188.12,-590.33 188.12,-590.33 188.12,-595.67 182.79,-601 177.46,-601 177.46,-601 132.54,-601 132.54,-601 127.21,-601 121.88,-595.67 121.88,-590.33 121.88,-590.33 121.88,-579.67 121.88,-579.67 121.88,-574.33 127.21,-569 132.54,-569"/>
</a>
</g>
</g>
<!-- Reg&#45;0 -->
<g id="node15" class="node">
<title>Reg&#45;0</title>
<g id="a_node15"><a xlink:title="Region&#45;24: Reg&#45;0">
<path fill="white" stroke="none" d="M238.29,-569C238.29,-569 251.71,-569 251.71,-569 257.04,-569 262.38,-574.33 262.38,-579.67 262.38,-579.67 262.38,-590.33 262.38,-590.33 262.38,-595.67 257.04,-601 251.71,-601 251.71,-601 238.29,-601 238.29,-601 232.96,-601 227.62,-595.67 227.62,-590.33 227.62,-590.33 227.62,-579.67 227.62,-579.67 227.62,-574.33 232.96,-569 238.29,-569"/>
<text text-anchor="start" x="232.62" y="-579.2" font-family="Helvetica,sans-Serif" font-size="14.00">Reg</text>
<path fill="none" stroke="black" d="M238.29,-569C238.29,-569 251.71,-569 251.71,-569 257.04,-569 262.38,-574.33 262.38,-579.67 262.38,-579.67 262.38,-590.33 262.38,-590.33 262.38,-595.67 257.04,-601 251.71,-601 251.71,-601 238.29,-601 238.29,-601 232.96,-601 227.62,-595.67 227.62,-590.33 227.62,-590.33 227.62,-579.67 227.62,-579.67 227.62,-574.33 232.96,-569 238.29,-569"/>
</a>
</g>
</g>
<!-- BlockVec&#45;0 -->
<g id="node16" class="node">
<title>BlockVec&#45;0</title>
<g id="a_node16"><a xlink:title="BlockVec&#45;0: BlockVec&#45;0">
<path fill="white" stroke="none" d="M215.54,-490C215.54,-490 260.46,-490 260.46,-490 265.79,-490 271.12,-495.33 271.12,-500.67 271.12,-500.67 271.12,-511.33 271.12,-511.33 271.12,-516.67 265.79,-522 260.46,-522 260.46,-522 215.54,-522 215.54,-522 210.21,-522 204.88,-516.67 204.88,-511.33 204.88,-511.33 204.88,-500.67 204.88,-500.67 204.88,-495.33 210.21,-490 215.54,-490"/>
<text text-anchor="start" x="209.88" y="-500.2" font-family="Helvetica,sans-Serif" font-size="14.00">BlockVec</text>
<path fill="none" stroke="black" d="M215.54,-490C215.54,-490 260.46,-490 260.46,-490 265.79,-490 271.12,-495.33 271.12,-500.67 271.12,-500.67 271.12,-511.33 271.12,-511.33 271.12,-516.67 265.79,-522 260.46,-522 260.46,-522 215.54,-522 215.54,-522 210.21,-522 204.88,-516.67 204.88,-511.33 204.88,-511.33 204.88,-500.67 204.88,-500.67 204.88,-495.33 210.21,-490 215.54,-490"/>
</a>
</g>
</g>
<!-- arith_constant&#45;7223664373682896047 -->
<g id="node17" class="node">
<title>arith_constant&#45;7223664373682896047</title>
<g id="a_node17"><a xlink:title="Op&#45;3: arith_constant&#45;7223664373682896047">
<path fill="white" stroke="none" d="M316.67,-332C316.67,-332 389.33,-332 389.33,-332 394.67,-332 400,-337.33 400,-342.67 400,-342.67 400,-353.33 400,-353.33 400,-358.67 394.67,-364 389.33,-364 389.33,-364 316.67,-364 316.67,-364 311.33,-364 306,-358.67 306,-353.33 306,-353.33 306,-342.67 306,-342.67 306,-337.33 311.33,-332 316.67,-332"/>
<text text-anchor="start" x="310.62" y="-342.2" font-family="Helvetica,sans-Serif" font-size="14.00">arith_constant</text>
<path fill="none" stroke="black" d="M316.67,-332C316.67,-332 389.33,-332 389.33,-332 394.67,-332 400,-337.33 400,-342.67 400,-342.67 400,-353.33 400,-353.33 400,-358.67 394.67,-364 389.33,-364 389.33,-364 316.67,-364 316.67,-364 311.33,-364 306,-358.67 306,-353.33 306,-353.33 306,-342.67 306,-342.67 306,-337.33 311.33,-332 316.67,-332"/>
</a>
</g>
</g>
<!-- NamedAttr&#45;1773198441008368060 -->
<g id="node18" class="node">
<title>NamedAttr&#45;1773198441008368060</title>
<g id="a_node18"><a xlink:title="AttrPair&#45;5: NamedAttr&#45;1773198441008368060">
<path fill="white" stroke="none" d="M329.17,-253C329.17,-253 382.83,-253 382.83,-253 388.17,-253 393.5,-258.33 393.5,-263.67 393.5,-263.67 393.5,-274.33 393.5,-274.33 393.5,-279.67 388.17,-285 382.83,-285 382.83,-285 329.17,-285 329.17,-285 323.83,-285 318.5,-279.67 318.5,-274.33 318.5,-274.33 318.5,-263.67 318.5,-263.67 318.5,-258.33 323.83,-253 329.17,-253"/>
<text text-anchor="start" x="323.38" y="-263.2" font-family="Helvetica,sans-Serif" font-size="14.00">NamedAttr</text>
<path fill="none" stroke="black" d="M329.17,-253C329.17,-253 382.83,-253 382.83,-253 388.17,-253 393.5,-258.33 393.5,-263.67 393.5,-263.67 393.5,-274.33 393.5,-274.33 393.5,-279.67 388.17,-285 382.83,-285 382.83,-285 329.17,-285 329.17,-285 323.83,-285 318.5,-279.67 318.5,-274.33 318.5,-274.33 318.5,-263.67 318.5,-263.67 318.5,-258.33 323.83,-253 329.17,-253"/>
</a>
</g>
</g>
<!-- arith_negf&#45;17720959334994776468 -->
<g id="node19" class="node">
<title>arith_negf&#45;17720959334994776468</title>
<g id="a_node19"><a xlink:title="Op&#45;18: arith_negf&#45;17720959334994776468">
<path fill="white" stroke="none" d="M128.67,-253C128.67,-253 177.33,-253 177.33,-253 182.67,-253 188,-258.33 188,-263.67 188,-263.67 188,-274.33 188,-274.33 188,-279.67 182.67,-285 177.33,-285 177.33,-285 128.67,-285 128.67,-285 123.33,-285 118,-279.67 118,-274.33 118,-274.33 118,-263.67 118,-263.67 118,-258.33 123.33,-253 128.67,-253"/>
<text text-anchor="start" x="123" y="-263.2" font-family="Helvetica,sans-Serif" font-size="14.00">arith_negf</text>
<path fill="none" stroke="black" d="M128.67,-253C128.67,-253 177.33,-253 177.33,-253 182.67,-253 188,-258.33 188,-263.67 188,-263.67 188,-274.33 188,-274.33 188,-279.67 182.67,-285 177.33,-285 177.33,-285 128.67,-285 128.67,-285 123.33,-285 118,-279.67 118,-274.33 118,-274.33 118,-263.67 118,-263.67 118,-258.33 123.33,-253 128.67,-253"/>
</a>
</g>
</g>
<!-- Value&#45;5871781006564002453 -->
<g id="node20" class="node">
<title>Value&#45;5871781006564002453</title>
<g id="a_node20"><a xlink:title="Op&#45;0: Value&#45;5871781006564002453">
<path fill="white" stroke="none" d="M233.67,-174C233.67,-174 256.33,-174 256.33,-174 261.67,-174 267,-179.33 267,-184.67 267,-184.67 267,-195.33 267,-195.33 267,-200.67 261.67,-206 256.33,-206 256.33,-206 233.67,-206 233.67,-206 228.33,-206 223,-200.67 223,-195.33 223,-195.33 223,-184.67 223,-184.67 223,-179.33 228.33,-174 233.67,-174"/>
<text text-anchor="start" x="227.75" y="-184.2" font-family="Helvetica,sans-Serif" font-size="14.00">Value</text>
<path fill="none" stroke="black" d="M233.67,-174C233.67,-174 256.33,-174 256.33,-174 261.67,-174 267,-179.33 267,-184.67 267,-184.67 267,-195.33 267,-195.33 267,-200.67 261.67,-206 256.33,-206 256.33,-206 233.67,-206 233.67,-206 228.33,-206 223,-200.67 223,-195.33 223,-195.33 223,-184.67 223,-184.67 223,-179.33 228.33,-174 233.67,-174"/>
</a>
</g>
</g>
<!-- NamedAttr&#45;10439477994750310197 -->
<g id="node21" class="node">
<title>NamedAttr&#45;10439477994750310197</title>
<g id="a_node21"><a xlink:title="AttrPair&#45;10: NamedAttr&#45;10439477994750310197">
<path fill="white" stroke="none" d="M129.17,-174C129.17,-174 182.83,-174 182.83,-174 188.17,-174 193.5,-179.33 193.5,-184.67 193.5,-184.67 193.5,-195.33 193.5,-195.33 193.5,-200.67 188.17,-206 182.83,-206 182.83,-206 129.17,-206 129.17,-206 123.83,-206 118.5,-200.67 118.5,-195.33 118.5,-195.33 118.5,-184.67 118.5,-184.67 118.5,-179.33 123.83,-174 129.17,-174"/>
<text text-anchor="start" x="123.38" y="-184.2" font-family="Helvetica,sans-Serif" font-size="14.00">NamedAttr</text>
<path fill="none" stroke="black" d="M129.17,-174C129.17,-174 182.83,-174 182.83,-174 188.17,-174 193.5,-179.33 193.5,-184.67 193.5,-184.67 193.5,-195.33 193.5,-195.33 193.5,-200.67 188.17,-206 182.83,-206 182.83,-206 129.17,-206 129.17,-206 123.83,-206 118.5,-200.67 118.5,-195.33 118.5,-195.33 118.5,-184.67 118.5,-184.67 118.5,-179.33 123.83,-174 129.17,-174"/>
</a>
</g>
</g>
<!-- math_sqrt&#45;17720959334994776468 -->
<g id="node22" class="node">
<title>math_sqrt&#45;17720959334994776468</title>
<g id="a_node22"><a xlink:title="Op&#45;16: math_sqrt&#45;17720959334994776468">
<path fill="white" stroke="none" d="M222.67,-253C222.67,-253 271.33,-253 271.33,-253 276.67,-253 282,-258.33 282,-263.67 282,-263.67 282,-274.33 282,-274.33 282,-279.67 276.67,-285 271.33,-285 271.33,-285 222.67,-285 222.67,-285 217.33,-285 212,-279.67 212,-274.33 212,-274.33 212,-263.67 212,-263.67 212,-258.33 217.33,-253 222.67,-253"/>
<text text-anchor="start" x="216.62" y="-263.2" font-family="Helvetica,sans-Serif" font-size="14.00">math_sqrt</text>
<path fill="none" stroke="black" d="M222.67,-253C222.67,-253 271.33,-253 271.33,-253 276.67,-253 282,-258.33 282,-263.67 282,-263.67 282,-274.33 282,-274.33 282,-279.67 276.67,-285 271.33,-285 271.33,-285 222.67,-285 222.67,-285 217.33,-285 212,-279.67 212,-274.33 212,-274.33 212,-263.67 212,-263.67 212,-258.33 217.33,-253 222.67,-253"/>
</a>
</g>
</g>
<!-- arith_cmpf&#45;444619395108343417 -->
<g id="node23" class="node">
<title>arith_cmpf&#45;444619395108343417</title>
<g id="a_node23"><a xlink:title="Op&#45;7: arith_cmpf&#45;444619395108343417">
<path fill="white" stroke="none" d="M280.17,-411C280.17,-411 331.83,-411 331.83,-411 337.17,-411 342.5,-416.33 342.5,-421.67 342.5,-421.67 342.5,-432.33 342.5,-432.33 342.5,-437.67 337.17,-443 331.83,-443 331.83,-443 280.17,-443 280.17,-443 274.83,-443 269.5,-437.67 269.5,-432.33 269.5,-432.33 269.5,-421.67 269.5,-421.67 269.5,-416.33 274.83,-411 280.17,-411"/>
<text text-anchor="start" x="274.12" y="-421.2" font-family="Helvetica,sans-Serif" font-size="14.00">arith_cmpf</text>
<path fill="none" stroke="black" d="M280.17,-411C280.17,-411 331.83,-411 331.83,-411 337.17,-411 342.5,-416.33 342.5,-421.67 342.5,-421.67 342.5,-432.33 342.5,-432.33 342.5,-437.67 337.17,-443 331.83,-443 331.83,-443 280.17,-443 280.17,-443 274.83,-443 269.5,-437.67 269.5,-432.33 269.5,-432.33 269.5,-421.67 269.5,-421.67 269.5,-416.33 274.83,-411 280.17,-411"/>
</a>
</g>
</g>
<!-- NamedAttr&#45;532458502365569988 -->
<g id="node24" class="node">
<title>NamedAttr&#45;532458502365569988</title>
<g id="a_node24"><a xlink:title="AttrPair&#45;13: NamedAttr&#45;532458502365569988">
<path fill="white" stroke="none" d="M435.17,-332C435.17,-332 488.83,-332 488.83,-332 494.17,-332 499.5,-337.33 499.5,-342.67 499.5,-342.67 499.5,-353.33 499.5,-353.33 499.5,-358.67 494.17,-364 488.83,-364 488.83,-364 435.17,-364 435.17,-364 429.83,-364 424.5,-358.67 424.5,-353.33 424.5,-353.33 424.5,-342.67 424.5,-342.67 424.5,-337.33 429.83,-332 435.17,-332"/>
<text text-anchor="start" x="429.38" y="-342.2" font-family="Helvetica,sans-Serif" font-size="14.00">NamedAttr</text>
<path fill="none" stroke="black" d="M435.17,-332C435.17,-332 488.83,-332 488.83,-332 494.17,-332 499.5,-337.33 499.5,-342.67 499.5,-342.67 499.5,-353.33 499.5,-353.33 499.5,-358.67 494.17,-364 488.83,-364 488.83,-364 435.17,-364 435.17,-364 429.83,-364 424.5,-358.67 424.5,-353.33 424.5,-353.33 424.5,-342.67 424.5,-342.67 424.5,-337.33 429.83,-332 435.17,-332"/>
</a>
</g>
</g>
<!-- I1&#45;0 -->
<g id="node25" class="node">
<title>I1&#45;0</title>
<g id="a_node25"><a xlink:title="Type&#45;14: I1&#45;0">
<path fill="white" stroke="none" d="M249.67,-332C249.67,-332 260.33,-332 260.33,-332 265.67,-332 271,-337.33 271,-342.67 271,-342.67 271,-353.33 271,-353.33 271,-358.67 265.67,-364 260.33,-364 260.33,-364 249.67,-364 249.67,-364 244.33,-364 239,-358.67 239,-353.33 239,-353.33 239,-342.67 239,-342.67 239,-337.33 244.33,-332 249.67,-332"/>
<text text-anchor="start" x="249.38" y="-342.2" font-family="Helvetica,sans-Serif" font-size="14.00">I1</text>
<path fill="none" stroke="black" d="M249.67,-332C249.67,-332 260.33,-332 260.33,-332 265.67,-332 271,-337.33 271,-342.67 271,-342.67 271,-353.33 271,-353.33 271,-358.67 265.67,-364 260.33,-364 260.33,-364 249.67,-364 249.67,-364 244.33,-364 239,-358.67 239,-353.33 239,-353.33 239,-342.67 239,-342.67 239,-337.33 244.33,-332 249.67,-332"/>
</a>
</g>
</g>
<!-- i64&#45;0 -->
<g id="node26" class="node">
<title>i64&#45;0</title>
<g id="a_node26"><a xlink:title="i64&#45;0: i64&#45;0">
<path fill="white" stroke="none" d="M229.67,-95C229.67,-95 240.33,-95 240.33,-95 245.67,-95 251,-100.33 251,-105.67 251,-105.67 251,-116.33 251,-116.33 251,-121.67 245.67,-127 240.33,-127 240.33,-127 229.67,-127 229.67,-127 224.33,-127 219,-121.67 219,-116.33 219,-116.33 219,-105.67 219,-105.67 219,-100.33 224.33,-95 229.67,-95"/>
<text text-anchor="start" x="231.25" y="-105.2" font-family="Helvetica,sans-Serif" font-size="14.00">0</text>
<path fill="none" stroke="black" d="M229.67,-95C229.67,-95 240.33,-95 240.33,-95 245.67,-95 251,-100.33 251,-105.67 251,-105.67 251,-116.33 251,-116.33 251,-121.67 245.67,-127 240.33,-127 240.33,-127 229.67,-127 229.67,-127 224.33,-127 219,-121.67 219,-116.33 219,-116.33 219,-105.67 219,-105.67 219,-100.33 224.33,-95 229.67,-95"/>
</a>
</g>
</g>
<!-- scf_if&#45;2950782419708476712 -->
<g id="node27" class="node">
<title>scf_if&#45;2950782419708476712</title>
<g id="a_node27"><a xlink:title="Op&#45;22: scf_if&#45;2950782419708476712">
<path fill="white" stroke="none" d="M290.17,-727C290.17,-727 309.83,-727 309.83,-727 315.17,-727 320.5,-732.33 320.5,-737.67 320.5,-737.67 320.5,-748.33 320.5,-748.33 320.5,-753.67 315.17,-759 309.83,-759 309.83,-759 290.17,-759 290.17,-759 284.83,-759 279.5,-753.67 279.5,-748.33 279.5,-748.33 279.5,-737.67 279.5,-737.67 279.5,-732.33 284.83,-727 290.17,-727"/>
<text text-anchor="start" x="284.25" y="-737.2" font-family="Helvetica,sans-Serif" font-size="14.00">scf_if</text>
<path fill="none" stroke="black" d="M290.17,-727C290.17,-727 309.83,-727 309.83,-727 315.17,-727 320.5,-732.33 320.5,-737.67 320.5,-737.67 320.5,-748.33 320.5,-748.33 320.5,-753.67 315.17,-759 309.83,-759 309.83,-759 290.17,-759 290.17,-759 284.83,-759 279.5,-753.67 279.5,-748.33 279.5,-748.33 279.5,-737.67 279.5,-737.67 279.5,-732.33 284.83,-727 290.17,-727"/>
</a>
</g>
</g>
<!-- math_sqrt&#45;28517649814821314 -->
<g id="node28" class="node">
<title>math_sqrt&#45;28517649814821314</title>
<g id="a_node28"><a xlink:title="Op&#45;20: math_sqrt&#45;28517649814821314">
<path fill="white" stroke="none" d="M64.67,-332C64.67,-332 113.33,-332 113.33,-332 118.67,-332 124,-337.33 124,-342.67 124,-342.67 124,-353.33 124,-353.33 124,-358.67 118.67,-364 113.33,-364 113.33,-364 64.67,-364 64.67,-364 59.33,-364 54,-358.67 54,-353.33 54,-353.33 54,-342.67 54,-342.67 54,-337.33 59.33,-332 64.67,-332"/>
<text text-anchor="start" x="58.62" y="-342.2" font-family="Helvetica,sans-Serif" font-size="14.00">math_sqrt</text>
<path fill="none" stroke="black" d="M64.67,-332C64.67,-332 113.33,-332 113.33,-332 118.67,-332 124,-337.33 124,-342.67 124,-342.67 124,-353.33 124,-353.33 124,-358.67 118.67,-364 113.33,-364 113.33,-364 64.67,-364 64.67,-364 59.33,-364 54,-358.67 54,-353.33 54,-353.33 54,-342.67 54,-342.67 54,-337.33 59.33,-332 64.67,-332"/>
</a>
</g>
</g>
<!-- String&#45;1879048205 -->
<g id="node29" class="node">
<title>String&#45;1879048205</title>
<g id="a_node29"><a xlink:title="String&#45;1879048205: String&#45;1879048205">
<path fill="white" stroke="none" d="M25.17,-95C25.17,-95 76.83,-95 76.83,-95 82.17,-95 87.5,-100.33 87.5,-105.67 87.5,-105.67 87.5,-116.33 87.5,-116.33 87.5,-121.67 82.17,-127 76.83,-127 76.83,-127 25.17,-127 25.17,-127 19.83,-127 14.5,-121.67 14.5,-116.33 14.5,-116.33 14.5,-105.67 14.5,-105.67 14.5,-100.33 19.83,-95 25.17,-95"/>
<text text-anchor="start" x="19.5" y="-105.2" font-family="Helvetica,sans-Serif" font-size="14.00">&quot;fastmath&quot;</text>
<path fill="none" stroke="black" d="M25.17,-95C25.17,-95 76.83,-95 76.83,-95 82.17,-95 87.5,-100.33 87.5,-105.67 87.5,-105.67 87.5,-116.33 87.5,-116.33 87.5,-121.67 82.17,-127 76.83,-127 76.83,-127 25.17,-127 25.17,-127 19.83,-127 14.5,-121.67 14.5,-116.33 14.5,-116.33 14.5,-105.67 14.5,-105.67 14.5,-100.33 19.83,-95 25.17,-95"/>
</a>
</g>
</g>
<!-- String&#45;536870921 -->
<g id="node30" class="node">
<title>String&#45;536870921</title>
<g id="a_node30"><a xlink:title="String&#45;536870921: String&#45;536870921">
<path fill="white" stroke="none" d="M416.67,-253C416.67,-253 471.33,-253 471.33,-253 476.67,-253 482,-258.33 482,-263.67 482,-263.67 482,-274.33 482,-274.33 482,-279.67 476.67,-285 471.33,-285 471.33,-285 416.67,-285 416.67,-285 411.33,-285 406,-279.67 406,-274.33 406,-274.33 406,-263.67 406,-263.67 406,-258.33 411.33,-253 416.67,-253"/>
<text text-anchor="start" x="411" y="-263.2" font-family="Helvetica,sans-Serif" font-size="14.00">&quot;predicate&quot;</text>
<path fill="none" stroke="black" d="M416.67,-253C416.67,-253 471.33,-253 471.33,-253 476.67,-253 482,-258.33 482,-263.67 482,-263.67 482,-274.33 482,-274.33 482,-279.67 476.67,-285 471.33,-285 471.33,-285 416.67,-285 416.67,-285 411.33,-285 406,-279.67 406,-274.33 406,-274.33 406,-263.67 406,-263.67 406,-258.33 411.33,-253 416.67,-253"/>
</a>
</g>
</g>
<!-- String&#45;3221225478 -->
<g id="node31" class="node">
<title>String&#45;3221225478</title>
<g id="a_node31"><a xlink:title="String&#45;3221225478: String&#45;3221225478">
<path fill="white" stroke="none" d="M323.29,-174C323.29,-174 354.71,-174 354.71,-174 360.04,-174 365.38,-179.33 365.38,-184.67 365.38,-184.67 365.38,-195.33 365.38,-195.33 365.38,-200.67 360.04,-206 354.71,-206 354.71,-206 323.29,-206 323.29,-206 317.96,-206 312.62,-200.67 312.62,-195.33 312.62,-195.33 312.62,-184.67 312.62,-184.67 312.62,-179.33 317.96,-174 323.29,-174"/>
<text text-anchor="start" x="317.62" y="-184.2" font-family="Helvetica,sans-Serif" font-size="14.00">&quot;value&quot;</text>
<path fill="none" stroke="black" d="M323.29,-174C323.29,-174 354.71,-174 354.71,-174 360.04,-174 365.38,-179.33 365.38,-184.67 365.38,-184.67 365.38,-195.33 365.38,-195.33 365.38,-200.67 360.04,-206 354.71,-206 354.71,-206 323.29,-206 323.29,-206 317.96,-206 312.62,-200.67 312.62,-195.33 312.62,-195.33 312.62,-184.67 312.62,-184.67 312.62,-179.33 317.96,-174 323.29,-174"/>
</a>
</g>
</g>
</g>
</svg>
