<?xml version="1.0" encoding="UTF-8" standalone="no"?>
<!DOCTYPE svg PUBLIC "-//W3C//DTD SVG 1.1//EN"
 "http://www.w3.org/Graphics/SVG/1.1/DTD/svg11.dtd">
<!-- Generated by graphviz version 12.0.0 (20240704.0754)
 -->
<!-- Pages: 1 -->
<svg width="1620pt" height="388pt"
 viewBox="0.00 0.00 1620.00 388.00" xmlns="http://www.w3.org/2000/svg" xmlns:xlink="http://www.w3.org/1999/xlink">
<g id="graph0" class="graph" transform="scale(1 1) rotate(0) translate(4 384)">
<polygon fill="white" stroke="none" points="-4,4 -4,-384 1616,-384 1616,4 -4,4"/>
<g id="clust1" class="cluster">
<title>outer_cluster_String&#45;3221225479</title>
</g>
<g id="clust2" class="cluster">
<title>cluster_String&#45;3221225479</title>
<path fill="#ffffb3" stroke="black" stroke-dasharray="5,2" d="M59,-169C59,-169 95,-169 95,-169 101,-169 107,-175 107,-181 107,-181 107,-199 107,-199 107,-205 101,-211 95,-211 95,-211 59,-211 59,-211 53,-211 47,-205 47,-199 47,-199 47,-181 47,-181 47,-175 53,-169 59,-169"/>
</g>
<g id="clust4" class="cluster">
<title>outer_cluster_IntVec&#45;0</title>
</g>
<g id="clust5" class="cluster">
<title>cluster_IntVec&#45;0</title>
<path fill="#bebada" stroke="black" stroke-dasharray="5,2" d="M881,-90C881,-90 917,-90 917,-90 923,-90 929,-96 929,-102 929,-102 929,-120 929,-120 929,-126 923,-132 917,-132 917,-132 881,-132 881,-132 875,-132 869,-126 869,-120 869,-120 869,-102 869,-102 869,-96 875,-90 881,-90"/>
</g>
<g id="clust7" class="cluster">
<title>outer_cluster_IntVec&#45;3</title>
</g>
<g id="clust8" class="cluster">
<title>cluster_IntVec&#45;3</title>
<path fill="#bebada" stroke="black" stroke-dasharray="5,2" d="M1079,-90C1079,-90 1115,-90 1115,-90 1121,-90 1127,-96 1127,-102 1127,-102 1127,-120 1127,-120 1127,-126 1121,-132 1115,-132 1115,-132 1079,-132 1079,-132 1073,-132 1067,-126 1067,-120 1067,-120 1067,-102 1067,-102 1067,-96 1073,-90 1079,-90"/>
</g>
<g id="clust10" class="cluster">
<title>outer_cluster_IntVec&#45;2</title>
</g>
<g id="clust11" class="cluster">
<title>cluster_IntVec&#45;2</title>
<path fill="#bebada" stroke="black" stroke-dasharray="5,2" d="M699,-90C699,-90 735,-90 735,-90 741,-90 747,-96 747,-102 747,-102 747,-120 747,-120 747,-126 741,-132 735,-132 735,-132 699,-132 699,-132 693,-132 687,-126 687,-120 687,-120 687,-102 687,-102 687,-96 693,-90 699,-90"/>
</g>
<g id="clust13" class="cluster">
<title>outer_cluster_IntVec&#45;1</title>
</g>
<g id="clust14" class="cluster">
<title>cluster_IntVec&#45;1</title>
<path fill="#bebada" stroke="black" stroke-dasharray="5,2" d="M1013,-90C1013,-90 1049,-90 1049,-90 1055,-90 1061,-96 1061,-102 1061,-102 1061,-120 1061,-120 1061,-126 1055,-132 1049,-132 1049,-132 1013,-132 1013,-132 1007,-132 1001,-126 1001,-120 1001,-120 1001,-102 1001,-102 1001,-96 1007,-90 1013,-90"/>
</g>
<g id="clust16" class="cluster">
<title>outer_cluster_IntVec&#45;4</title>
</g>
<g id="clust17" class="cluster">
<title>cluster_IntVec&#45;4</title>
<path fill="#bebada" stroke="black" stroke-dasharray="5,2" d="M633,-90C633,-90 669,-90 669,-90 675,-90 681,-96 681,-102 681,-102 681,-120 681,-120 681,-126 675,-132 669,-132 669,-132 633,-132 633,-132 627,-132 621,-126 621,-120 621,-120 621,-102 621,-102 621,-96 627,-90 633,-90"/>
</g>
<g id="clust19" class="cluster">
<title>outer_cluster_Type&#45;33</title>
</g>
<g id="clust20" class="cluster">
<title>cluster_Type&#45;33</title>
<path fill="#fb8072" stroke="black" stroke-dasharray="5,2" d="M78,-90C78,-90 114,-90 114,-90 120,-90 126,-96 126,-102 126,-102 126,-120 126,-120 126,-126 120,-132 114,-132 114,-132 78,-132 78,-132 72,-132 66,-126 66,-120 66,-120 66,-102 66,-102 66,-96 72,-90 78,-90"/>
</g>
<g id="clust22" class="cluster">
<title>outer_cluster_Type&#45;7</title>
</g>
<g id="clust23" class="cluster">
<title>cluster_Type&#45;7</title>
<path fill="#fb8072" stroke="black" stroke-dasharray="5,2" d="M1377,-169C1377,-169 1457,-169 1457,-169 1463,-169 1469,-175 1469,-181 1469,-181 1469,-199 1469,-199 1469,-205 1463,-211 1457,-211 1457,-211 1377,-211 1377,-211 1371,-211 1365,-205 1365,-199 1365,-199 1365,-181 1365,-181 1365,-175 1371,-169 1377,-169"/>
</g>
<g id="clust25" class="cluster">
<title>outer_cluster_Type&#45;12</title>
</g>
<g id="clust26" class="cluster">
<title>cluster_Type&#45;12</title>
<path fill="#fb8072" stroke="black" stroke-dasharray="5,2" d="M585,-169C585,-169 665,-169 665,-169 671,-169 677,-175 677,-181 677,-181 677,-199 677,-199 677,-205 671,-211 665,-211 665,-211 585,-211 585,-211 579,-211 573,-205 573,-199 573,-199 573,-181 573,-181 573,-175 579,-169 585,-169"/>
</g>
<g id="clust28" class="cluster">
<title>outer_cluster_Type&#45;15</title>
</g>
<g id="clust29" class="cluster">
<title>cluster_Type&#45;15</title>
<path fill="#fb8072" stroke="black" stroke-dasharray="5,2" d="M1201,-169C1201,-169 1281,-169 1281,-169 1287,-169 1293,-175 1293,-181 1293,-181 1293,-199 1293,-199 1293,-205 1287,-211 1281,-211 1281,-211 1201,-211 1201,-211 1195,-211 1189,-205 1189,-199 1189,-199 1189,-181 1189,-181 1189,-175 1195,-169 1201,-169"/>
</g>
<g id="clust31" class="cluster">
<title>outer_cluster_Type&#45;4</title>
</g>
<g id="clust32" class="cluster">
<title>cluster_Type&#45;4</title>
<path fill="#fb8072" stroke="black" stroke-dasharray="5,2" d="M893,-169C893,-169 973,-169 973,-169 979,-169 985,-175 985,-181 985,-181 985,-199 985,-199 985,-205 979,-211 973,-211 973,-211 893,-211 893,-211 887,-211 881,-205 881,-199 881,-199 881,-181 881,-181 881,-175 887,-169 893,-169"/>
</g>
<g id="clust34" class="cluster">
<title>outer_cluster_Type&#45;1</title>
</g>
<g id="clust35" class="cluster">
<title>cluster_Type&#45;1</title>
<path fill="#fb8072" stroke="black" stroke-dasharray="5,2" d="M947,-90C947,-90 983,-90 983,-90 989,-90 995,-96 995,-102 995,-102 995,-120 995,-120 995,-126 989,-132 983,-132 983,-132 947,-132 947,-132 941,-132 935,-126 935,-120 935,-120 935,-102 935,-102 935,-96 941,-90 947,-90"/>
</g>
<g id="clust37" class="cluster">
<title>outer_cluster_Type&#45;24</title>
</g>
<g id="clust38" class="cluster">
<title>cluster_Type&#45;24</title>
<path fill="#fb8072" stroke="black" stroke-dasharray="5,2" d="M409,-169C409,-169 489,-169 489,-169 495,-169 501,-175 501,-181 501,-181 501,-199 501,-199 501,-205 495,-211 489,-211 489,-211 409,-211 409,-211 403,-211 397,-205 397,-199 397,-199 397,-181 397,-181 397,-175 403,-169 409,-169"/>
</g>
<g id="clust40" class="cluster">
<title>outer_cluster_AttrPair&#45;35</title>
</g>
<g id="clust41" class="cluster">
<title>cluster_AttrPair&#45;35</title>
<path fill="#80b1d3" stroke="black" stroke-dasharray="5,2" d="M66,-248C66,-248 124,-248 124,-248 130,-248 136,-254 136,-260 136,-260 136,-278 136,-278 136,-284 130,-290 124,-290 124,-290 66,-290 66,-290 60,-290 54,-284 54,-278 54,-278 54,-260 54,-260 54,-254 60,-248 66,-248"/>
</g>
<g id="clust43" class="cluster">
<title>outer_cluster_Op&#45;3</title>
</g>
<g id="clust44" class="cluster">
<title>cluster_Op&#45;3</title>
<path fill="#fdb462" stroke="black" stroke-dasharray="5,2" d="M778,-248C778,-248 814,-248 814,-248 820,-248 826,-254 826,-260 826,-260 826,-278 826,-278 826,-284 820,-290 814,-290 814,-290 778,-290 778,-290 772,-290 766,-284 766,-278 766,-278 766,-260 766,-260 766,-254 772,-248 778,-248"/>
</g>
<g id="clust46" class="cluster">
<title>outer_cluster_Op&#45;0</title>
</g>
<g id="clust47" class="cluster">
<title>cluster_Op&#45;0</title>
<path fill="#fdb462" stroke="black" stroke-dasharray="5,2" d="M211,-169C211,-169 247,-169 247,-169 253,-169 259,-175 259,-181 259,-181 259,-199 259,-199 259,-205 253,-211 247,-211 247,-211 211,-211 211,-211 205,-211 199,-205 199,-199 199,-199 199,-181 199,-181 199,-175 205,-169 211,-169"/>
</g>
<g id="clust49" class="cluster">
<title>outer_cluster_Op&#45;17</title>
</g>
<g id="clust50" class="cluster">
<title>cluster_Op&#45;17</title>
<path fill="#fdb462" stroke="black" stroke-dasharray="5,2" d="M1146,-248C1146,-248 1182,-248 1182,-248 1188,-248 1194,-254 1194,-260 1194,-260 1194,-278 1194,-278 1194,-284 1188,-290 1182,-290 1182,-290 1146,-290 1146,-290 1140,-290 1134,-284 1134,-278 1134,-278 1134,-260 1134,-260 1134,-254 1140,-248 1146,-248"/>
</g>
<g id="clust52" class="cluster">
<title>outer_cluster_Op&#45;19</title>
</g>
<g id="clust53" class="cluster">
<title>cluster_Op&#45;19</title>
<path fill="#fdb462" stroke="black" stroke-dasharray="5,2" d="M851,-248C851,-248 887,-248 887,-248 893,-248 899,-254 899,-260 899,-260 899,-278 899,-278 899,-284 893,-290 887,-290 887,-290 851,-290 851,-290 845,-290 839,-284 839,-278 839,-278 839,-260 839,-260 839,-254 845,-248 851,-248"/>
</g>
<g id="clust55" class="cluster">
<title>outer_cluster_Op&#45;23</title>
</g>
<g id="clust56" class="cluster">
<title>cluster_Op&#45;23</title>
<path fill="#fdb462" stroke="black" stroke-dasharray="5,2" d="M314,-248C314,-248 350,-248 350,-248 356,-248 362,-254 362,-260 362,-260 362,-278 362,-278 362,-284 356,-290 350,-290 350,-290 314,-290 314,-290 308,-290 302,-284 302,-278 302,-278 302,-260 302,-260 302,-254 308,-248 314,-248"/>
</g>
<g id="clust58" class="cluster">
<title>outer_cluster_Op&#45;6</title>
</g>
<g id="clust59" class="cluster">
<title>cluster_Op&#45;6</title>
<path fill="#fdb462" stroke="black" stroke-dasharray="5,2" d="M1443,-248C1443,-248 1479,-248 1479,-248 1485,-248 1491,-254 1491,-260 1491,-260 1491,-278 1491,-278 1491,-284 1485,-290 1479,-290 1479,-290 1443,-290 1443,-290 1437,-290 1431,-284 1431,-278 1431,-278 1431,-260 1431,-260 1431,-254 1437,-248 1443,-248"/>
</g>
<g id="clust61" class="cluster">
<title>outer_cluster_Op&#45;26</title>
</g>
<g id="clust62" class="cluster">
<title>cluster_Op&#45;26</title>
<path fill="#fdb462" stroke="black" stroke-dasharray="5,2" d="M381,-248C381,-248 417,-248 417,-248 423,-248 429,-254 429,-260 429,-260 429,-278 429,-278 429,-284 423,-290 417,-290 417,-290 381,-290 381,-290 375,-290 369,-284 369,-278 369,-278 369,-260 369,-260 369,-254 375,-248 381,-248"/>
</g>
<g id="clust64" class="cluster">
<title>outer_cluster_Op&#45;28</title>
</g>
<g id="clust65" class="cluster">
<title>cluster_Op&#45;28</title>
<path fill="#fdb462" stroke="black" stroke-dasharray="5,2" d="M1553,-169C1553,-169 1589,-169 1589,-169 1595,-169 1601,-175 1601,-181 1601,-181 1601,-199 1601,-199 1601,-205 1595,-211 1589,-211 1589,-211 1553,-211 1553,-211 1547,-211 1541,-205 1541,-199 1541,-199 1541,-181 1541,-181 1541,-175 1547,-169 1553,-169"/>
</g>
<g id="clust67" class="cluster">
<title>outer_cluster_Op&#45;30</title>
</g>
<g id="clust68" class="cluster">
<title>cluster_Op&#45;30</title>
<path fill="#fdb462" stroke="black" stroke-dasharray="5,2" d="M475,-248C475,-248 511,-248 511,-248 517,-248 523,-254 523,-260 523,-260 523,-278 523,-278 523,-284 517,-290 511,-290 511,-290 475,-290 475,-290 469,-290 463,-284 463,-278 463,-278 463,-260 463,-260 463,-254 469,-248 475,-248"/>
</g>
<g id="clust70" class="cluster">
<title>outer_cluster_Op&#45;21</title>
</g>
<g id="clust71" class="cluster">
<title>cluster_Op&#45;21</title>
<path fill="#fdb462" stroke="black" stroke-dasharray="5,2" d="M932,-248C932,-248 968,-248 968,-248 974,-248 980,-254 980,-260 980,-260 980,-278 980,-278 980,-284 974,-290 968,-290 968,-290 932,-290 932,-290 926,-290 920,-284 920,-278 920,-278 920,-260 920,-260 920,-254 926,-248 932,-248"/>
</g>
<g id="clust73" class="cluster">
<title>outer_cluster_Op&#45;32</title>
</g>
<g id="clust74" class="cluster">
<title>cluster_Op&#45;32</title>
<path fill="#fdb462" stroke="black" stroke-dasharray="5,2" d="M23,-327C23,-327 99,-327 99,-327 105,-327 111,-333 111,-339 111,-339 111,-357 111,-357 111,-363 105,-369 99,-369 99,-369 23,-369 23,-369 17,-369 11,-363 11,-357 11,-357 11,-339 11,-339 11,-333 17,-327 23,-327"/>
</g>
<g id="clust76" class="cluster">
<title>outer_cluster_Op&#45;14</title>
</g>
<g id="clust77" class="cluster">
<title>cluster_Op&#45;14</title>
<path fill="#fdb462" stroke="black" stroke-dasharray="5,2" d="M1267,-248C1267,-248 1303,-248 1303,-248 1309,-248 1315,-254 1315,-260 1315,-260 1315,-278 1315,-278 1315,-284 1309,-290 1303,-290 1303,-290 1267,-290 1267,-290 1261,-290 1255,-284 1255,-278 1255,-278 1255,-260 1255,-260 1255,-254 1261,-248 1267,-248"/>
</g>
<g id="clust79" class="cluster">
<title>outer_cluster_Op&#45;9</title>
</g>
<g id="clust80" class="cluster">
<title>cluster_Op&#45;9</title>
<path fill="#fdb462" stroke="black" stroke-dasharray="5,2" d="M1026,-248C1026,-248 1062,-248 1062,-248 1068,-248 1074,-254 1074,-260 1074,-260 1074,-278 1074,-278 1074,-284 1068,-290 1062,-290 1062,-290 1026,-290 1026,-290 1020,-290 1014,-284 1014,-278 1014,-278 1014,-260 1014,-260 1014,-254 1020,-248 1026,-248"/>
</g>
<g id="clust82" class="cluster">
<title>outer_cluster_Op&#45;11</title>
</g>
<g id="clust83" class="cluster">
<title>cluster_Op&#45;11</title>
<path fill="#fdb462" stroke="black" stroke-dasharray="5,2" d="M651,-248C651,-248 687,-248 687,-248 693,-248 699,-254 699,-260 699,-260 699,-278 699,-278 699,-284 693,-290 687,-290 687,-290 651,-290 651,-290 645,-290 639,-284 639,-278 639,-278 639,-260 639,-260 639,-254 645,-248 651,-248"/>
</g>
<g id="clust85" class="cluster">
<title>outer_cluster_Attr&#45;34</title>
</g>
<g id="clust86" class="cluster">
<title>cluster_Attr&#45;34</title>
<path fill="#b3de69" stroke="black" stroke-dasharray="5,2" d="M125,-169C125,-169 181,-169 181,-169 187,-169 193,-175 193,-181 193,-181 193,-199 193,-199 193,-205 187,-211 181,-211 181,-211 125,-211 125,-211 119,-211 113,-205 113,-199 113,-199 113,-181 113,-181 113,-175 119,-169 125,-169"/>
</g>
<g id="clust88" class="cluster">
<title>outer_cluster_i64&#45;8</title>
</g>
<g id="clust89" class="cluster">
<title>cluster_i64&#45;8</title>
<path fill="#fccde5" stroke="black" stroke-dasharray="5,2" d="M1003,-169C1003,-169 1039,-169 1039,-169 1045,-169 1051,-175 1051,-181 1051,-181 1051,-199 1051,-199 1051,-205 1045,-211 1039,-211 1039,-211 1003,-211 1003,-211 997,-211 991,-205 991,-199 991,-199 991,-181 991,-181 991,-175 997,-169 1003,-169"/>
</g>
<g id="clust91" class="cluster">
<title>outer_cluster_i64&#45;3</title>
</g>
<g id="clust92" class="cluster">
<title>cluster_i64&#45;3</title>
<path fill="#fccde5" stroke="black" stroke-dasharray="5,2" d="M1069,-169C1069,-169 1105,-169 1105,-169 1111,-169 1117,-175 1117,-181 1117,-181 1117,-199 1117,-199 1117,-205 1111,-211 1105,-211 1105,-211 1069,-211 1069,-211 1063,-211 1057,-205 1057,-199 1057,-199 1057,-181 1057,-181 1057,-175 1063,-169 1069,-169"/>
</g>
<g id="clust94" class="cluster">
<title>outer_cluster_i64&#45;15</title>
</g>
<g id="clust95" class="cluster">
<title>cluster_i64&#45;15</title>
<path fill="#fccde5" stroke="black" stroke-dasharray="5,2" d="M677,-11C677,-11 713,-11 713,-11 719,-11 725,-17 725,-23 725,-23 725,-41 725,-41 725,-47 719,-53 713,-53 713,-53 677,-53 677,-53 671,-53 665,-47 665,-41 665,-41 665,-23 665,-23 665,-17 671,-11 677,-11"/>
</g>
<g id="clust97" class="cluster">
<title>outer_cluster_i64&#45;6</title>
</g>
<g id="clust98" class="cluster">
<title>cluster_i64&#45;6</title>
<path fill="#fccde5" stroke="black" stroke-dasharray="5,2" d="M1135,-169C1135,-169 1171,-169 1171,-169 1177,-169 1183,-175 1183,-181 1183,-181 1183,-199 1183,-199 1183,-205 1177,-211 1171,-211 1171,-211 1135,-211 1135,-211 1129,-211 1123,-205 1123,-199 1123,-199 1123,-181 1123,-181 1123,-175 1129,-169 1135,-169"/>
</g>
<g id="clust100" class="cluster">
<title>outer_cluster_i64&#45;2</title>
</g>
<g id="clust101" class="cluster">
<title>cluster_i64&#45;2</title>
<path fill="#fccde5" stroke="black" stroke-dasharray="5,2" d="M1487,-169C1487,-169 1523,-169 1523,-169 1529,-169 1535,-175 1535,-181 1535,-181 1535,-199 1535,-199 1535,-205 1529,-211 1523,-211 1523,-211 1487,-211 1487,-211 1481,-211 1475,-205 1475,-199 1475,-199 1475,-181 1475,-181 1475,-175 1481,-169 1487,-169"/>
</g>
<g id="clust103" class="cluster">
<title>outer_cluster_i64&#45;1</title>
</g>
<g id="clust104" class="cluster">
<title>cluster_i64&#45;1</title>
<path fill="#fccde5" stroke="black" stroke-dasharray="5,2" d="M761,-169C761,-169 797,-169 797,-169 803,-169 809,-175 809,-181 809,-181 809,-199 809,-199 809,-205 803,-211 797,-211 797,-211 761,-211 761,-211 755,-211 749,-205 749,-199 749,-199 749,-181 749,-181 749,-175 755,-169 761,-169"/>
</g>
<g id="clust106" class="cluster">
<title>outer_cluster_i64&#45;0</title>
</g>
<g id="clust107" class="cluster">
<title>cluster_i64&#45;0</title>
<path fill="#fccde5" stroke="black" stroke-dasharray="5,2" d="M182,-90C182,-90 218,-90 218,-90 224,-90 230,-96 230,-102 230,-102 230,-120 230,-120 230,-126 224,-132 218,-132 218,-132 182,-132 182,-132 176,-132 170,-126 170,-120 170,-120 170,-102 170,-102 170,-96 176,-90 182,-90"/>
</g>
<g id="clust109" class="cluster">
<title>outer_cluster_i64&#45;9</title>
</g>
<g id="clust110" class="cluster">
<title>cluster_i64&#45;9</title>
<path fill="#fccde5" stroke="black" stroke-dasharray="5,2" d="M277,-169C277,-169 313,-169 313,-169 319,-169 325,-175 325,-181 325,-181 325,-199 325,-199 325,-205 319,-211 313,-211 313,-211 277,-211 277,-211 271,-211 265,-205 265,-199 265,-199 265,-181 265,-181 265,-175 271,-169 277,-169"/>
</g>
<g id="clust112" class="cluster">
<title>outer_cluster_i64&#45;5</title>
</g>
<g id="clust113" class="cluster">
<title>cluster_i64&#45;5</title>
<path fill="#fccde5" stroke="black" stroke-dasharray="5,2" d="M1311,-169C1311,-169 1347,-169 1347,-169 1353,-169 1359,-175 1359,-181 1359,-181 1359,-199 1359,-199 1359,-205 1353,-211 1347,-211 1347,-211 1311,-211 1311,-211 1305,-211 1299,-205 1299,-199 1299,-199 1299,-181 1299,-181 1299,-175 1305,-169 1311,-169"/>
</g>
<g id="clust115" class="cluster">
<title>outer_cluster_i64&#45;11</title>
</g>
<g id="clust116" class="cluster">
<title>cluster_i64&#45;11</title>
<path fill="#fccde5" stroke="black" stroke-dasharray="5,2" d="M1543,-90C1543,-90 1579,-90 1579,-90 1585,-90 1591,-96 1591,-102 1591,-102 1591,-120 1591,-120 1591,-126 1585,-132 1579,-132 1579,-132 1543,-132 1543,-132 1537,-132 1531,-126 1531,-120 1531,-120 1531,-102 1531,-102 1531,-96 1537,-90 1543,-90"/>
</g>
<g id="clust118" class="cluster">
<title>outer_cluster_i64&#45;4</title>
</g>
<g id="clust119" class="cluster">
<title>cluster_i64&#45;4</title>
<path fill="#fccde5" stroke="black" stroke-dasharray="5,2" d="M695,-169C695,-169 731,-169 731,-169 737,-169 743,-175 743,-181 743,-181 743,-199 743,-199 743,-205 737,-211 731,-211 731,-211 695,-211 695,-211 689,-211 683,-205 683,-199 683,-199 683,-181 683,-181 683,-175 689,-169 695,-169"/>
</g>
<g id="clust121" class="cluster">
<title>outer_cluster_i64&#45;12</title>
</g>
<g id="clust122" class="cluster">
<title>cluster_i64&#45;12</title>
<path fill="#fccde5" stroke="black" stroke-dasharray="5,2" d="M519,-169C519,-169 555,-169 555,-169 561,-169 567,-175 567,-181 567,-181 567,-199 567,-199 567,-205 561,-211 555,-211 555,-211 519,-211 519,-211 513,-211 507,-205 507,-199 507,-199 507,-181 507,-181 507,-175 513,-169 519,-169"/>
</g>
<g id="clust124" class="cluster">
<title>outer_cluster_i64&#45;500</title>
</g>
<g id="clust125" class="cluster">
<title>cluster_i64&#45;500</title>
<path fill="#fccde5" stroke="black" stroke-dasharray="5,2" d="M1024,-11C1024,-11 1060,-11 1060,-11 1066,-11 1072,-17 1072,-23 1072,-23 1072,-41 1072,-41 1072,-47 1066,-53 1060,-53 1060,-53 1024,-53 1024,-53 1018,-53 1012,-47 1012,-41 1012,-41 1012,-23 1012,-23 1012,-17 1018,-11 1024,-11"/>
</g>
<g id="clust127" class="cluster">
<title>outer_cluster_i64&#45;7</title>
</g>
<g id="clust128" class="cluster">
<title>cluster_i64&#45;7</title>
<path fill="#fccde5" stroke="black" stroke-dasharray="5,2" d="M827,-169C827,-169 863,-169 863,-169 869,-169 875,-175 875,-181 875,-181 875,-199 875,-199 875,-205 869,-211 863,-211 863,-211 827,-211 827,-211 821,-211 815,-205 815,-199 815,-199 815,-181 815,-181 815,-175 821,-169 827,-169"/>
</g>
<g id="clust130" class="cluster">
<title>outer_cluster_i64&#45;10</title>
</g>
<g id="clust131" class="cluster">
<title>cluster_i64&#45;10</title>
<path fill="#fccde5" stroke="black" stroke-dasharray="5,2" d="M343,-169C343,-169 379,-169 379,-169 385,-169 391,-175 391,-181 391,-181 391,-199 391,-199 391,-205 385,-211 379,-211 379,-211 343,-211 343,-211 337,-211 331,-205 331,-199 331,-199 331,-181 331,-181 331,-175 337,-169 343,-169"/>
</g>
<g id="clust133" class="cluster">
<title>outer_cluster_i64&#45;50</title>
</g>
<g id="clust134" class="cluster">
<title>cluster_i64&#45;50</title>
<path fill="#fccde5" stroke="black" stroke-dasharray="5,2" d="M892,-11C892,-11 928,-11 928,-11 934,-11 940,-17 940,-23 940,-23 940,-41 940,-41 940,-47 934,-53 928,-53 928,-53 892,-53 892,-53 886,-53 880,-47 880,-41 880,-41 880,-23 880,-23 880,-17 886,-11 892,-11"/>
</g>
<!-- IntVec&#45;0&#45;&gt;i64&#45;500 -->
<g id="edge1" class="edge">
<title>IntVec&#45;0:s&#45;&gt;i64&#45;500</title>
<path fill="none" stroke="black" d="M887.5,-95C887.5,-69.05 963.5,-49 1008.9,-39.34"/>
<polygon fill="black" stroke="black" points="1006.66,-42.17 1010.6,-38.63 1005.31,-38.94 1006.66,-42.17"/>
</g>
<!-- IntVec&#45;0&#45;&gt;i64&#45;50 -->
<g id="edge2" class="edge">
<title>IntVec&#45;0:s&#45;&gt;i64&#45;50</title>
<path fill="none" stroke="black" d="M910.5,-95C910.5,-82.22 910.39,-67.96 910.28,-56.35"/>
<polygon fill="black" stroke="black" points="912.09,-59.48 910.24,-54.51 908.59,-59.55 912.09,-59.48"/>
</g>
<!-- IntVec&#45;3&#45;&gt;i64&#45;500 -->
<g id="edge3" class="edge">
<title>IntVec&#45;3:s&#45;&gt;i64&#45;500</title>
<path fill="none" stroke="black" d="M1085.5,-95C1085.5,-79.58 1076.37,-65.28 1066.48,-54.31"/>
<polygon fill="black" stroke="black" points="1071,-56.48 1066.27,-54.09 1068.48,-58.9 1071,-56.48"/>
</g>
<!-- IntVec&#45;3&#45;&gt;i64&#45;500 -->
<g id="edge4" class="edge">
<title>IntVec&#45;3:s&#45;&gt;i64&#45;500</title>
<path fill="none" stroke="black" d="M1108.5,-95C1108.5,-74.26 1090.98,-58.47 1073.92,-48.02"/>
<polygon fill="black" stroke="black" points="1077.71,-49.53 1073.03,-47.06 1075.15,-51.92 1077.71,-49.53"/>
</g>
<!-- IntVec&#45;2&#45;&gt;i64&#45;50 -->
<g id="edge5" class="edge">
<title>IntVec&#45;2:s&#45;&gt;i64&#45;50</title>
<path fill="none" stroke="black" d="M705.5,-95C705.5,-59.63 818.92,-42.56 876.83,-36.14"/>
<polygon fill="black" stroke="black" points="874.01,-38.55 878.52,-35.77 873.26,-35.13 874.01,-38.55"/>
</g>
<!-- IntVec&#45;2&#45;&gt;i64&#45;15 -->
<g id="edge6" class="edge">
<title>IntVec&#45;2:s&#45;&gt;i64&#45;15</title>
<path fill="none" stroke="black" d="M728.5,-95C728.5,-80.6 721.41,-66.33 713.76,-55.12"/>
<polygon fill="black" stroke="black" points="717.51,-56.87 712.96,-54.16 714.83,-59.12 717.51,-56.87"/>
</g>
<!-- IntVec&#45;1&#45;&gt;i64&#45;500 -->
<g id="edge8" class="edge">
<title>IntVec&#45;1:s&#45;&gt;i64&#45;500</title>
<path fill="none" stroke="black" d="M1042.5,-95C1042.5,-82.22 1042.39,-67.96 1042.28,-56.35"/>
<polygon fill="black" stroke="black" points="1044.09,-59.48 1042.24,-54.51 1040.59,-59.55 1044.09,-59.48"/>
</g>
<!-- IntVec&#45;1&#45;&gt;i64&#45;50 -->
<g id="edge7" class="edge">
<title>IntVec&#45;1:s&#45;&gt;i64&#45;50</title>
<path fill="none" stroke="black" d="M1019.5,-95C1019.5,-59.47 975.29,-44.06 943.06,-37.54"/>
<polygon fill="black" stroke="black" points="946.71,-37.08 941.41,-36.91 945.44,-40.35 946.71,-37.08"/>
</g>
<!-- IntVec&#45;4&#45;&gt;i64&#45;500 -->
<g id="edge9" class="edge">
<title>IntVec&#45;4:s&#45;&gt;i64&#45;500</title>
<path fill="none" stroke="black" d="M639.5,-95C639.5,-74.03 665.25,-90.04 686,-87 798.96,-70.43 828.53,-75.59 941,-56 963.86,-52.02 989.34,-46.21 1008.98,-41.42"/>
<polygon fill="black" stroke="black" points="1006.96,-44.39 1010.65,-40.59 1005.39,-41.26 1006.96,-44.39"/>
</g>
<!-- IntVec&#45;4&#45;&gt;i64&#45;15 -->
<g id="edge10" class="edge">
<title>IntVec&#45;4:s&#45;&gt;i64&#45;15</title>
<path fill="none" stroke="black" d="M662.5,-95C662.5,-80.69 669.37,-66.43 676.8,-55.2"/>
<polygon fill="black" stroke="black" points="675.93,-59.25 677.55,-54.21 673.14,-57.14 675.93,-59.25"/>
</g>
<!-- RankedTensor&#45;6828067974578293639&#45;&gt;IntVec&#45;1 -->
<g id="edge11" class="edge">
<title>RankedTensor&#45;6828067974578293639:s&#45;&gt;IntVec&#45;1</title>
<path fill="none" stroke="black" d="M1393,-174C1393,-100.82 1134.91,-159.63 1066,-135 1065.56,-134.84 1065.12,-134.68 1064.68,-134.51"/>
<polygon fill="black" stroke="black" points="1065.69,-133.04 1060.41,-132.61 1064.27,-136.24 1065.69,-133.04"/>
</g>
<!-- RankedTensor&#45;6828067974578293639&#45;&gt;I64&#45;0 -->
<g id="edge12" class="edge">
<title>RankedTensor&#45;6828067974578293639:s&#45;&gt;I64&#45;0</title>
<path fill="none" stroke="black" d="M1440.5,-174C1440.5,-138.05 1395.8,-169.32 1360,-166 1200.09,-151.17 1151.74,-187.59 1000,-135 999.55,-134.85 999.11,-134.68 998.66,-134.52"/>
<polygon fill="black" stroke="black" points="999.58,-133.01 994.29,-132.6 998.17,-136.21 999.58,-133.01"/>
</g>
<!-- RankedTensor&#45;7784354942592584825&#45;&gt;IntVec&#45;2 -->
<g id="edge13" class="edge">
<title>RankedTensor&#45;7784354942592584825:s&#45;&gt;IntVec&#45;2</title>
<path fill="none" stroke="black" d="M601,-174C601,-134.04 647.23,-154.68 682,-135 683.54,-134.13 685.11,-133.21 686.68,-132.27"/>
<polygon fill="black" stroke="black" points="683.24,-137.59 685.86,-132.99 680.94,-134.95 683.24,-137.59"/>
</g>
<!-- RankedTensor&#45;7784354942592584825&#45;&gt;I64&#45;0 -->
<g id="edge14" class="edge">
<title>RankedTensor&#45;7784354942592584825:s&#45;&gt;I64&#45;0</title>
<path fill="none" stroke="black" d="M648.5,-174C648.5,-110.85 870.74,-156.83 930,-135 930.43,-134.84 930.86,-134.68 931.29,-134.51"/>
<polygon fill="black" stroke="black" points="931.63,-136.27 935.47,-132.62 930.19,-133.08 931.63,-136.27"/>
</g>
<!-- RankedTensor&#45;8740641910606876011&#45;&gt;IntVec&#45;3 -->
<g id="edge15" class="edge">
<title>RankedTensor&#45;8740641910606876011:s&#45;&gt;IntVec&#45;3</title>
<path fill="none" stroke="black" d="M1217,-174C1217,-134.82 1165.87,-120.37 1130.36,-115.06"/>
<polygon fill="black" stroke="black" points="1133.74,-114.14 1128.46,-114.56 1132.85,-117.53 1133.74,-114.14"/>
</g>
<!-- RankedTensor&#45;8740641910606876011&#45;&gt;I64&#45;0 -->
<g id="edge16" class="edge">
<title>RankedTensor&#45;8740641910606876011:s&#45;&gt;I64&#45;0</title>
<path fill="none" stroke="black" d="M1264.5,-174C1264.5,-114.59 1055.52,-156.15 1000,-135 999.72,-134.89 999.44,-134.78 999.16,-134.67"/>
<polygon fill="black" stroke="black" points="999.93,-133.1 994.66,-132.62 998.48,-136.29 999.93,-133.1"/>
</g>
<!-- RankedTensor&#45;5871781006564002453&#45;&gt;IntVec&#45;0 -->
<g id="edge17" class="edge">
<title>RankedTensor&#45;5871781006564002453:s&#45;&gt;IntVec&#45;0</title>
<path fill="none" stroke="black" d="M909,-174C909,-161.03 906.84,-146.72 904.53,-135.13"/>
<polygon fill="black" stroke="black" points="907.34,-137.36 903.82,-133.4 904.1,-138.69 907.34,-137.36"/>
</g>
<!-- RankedTensor&#45;5871781006564002453&#45;&gt;I64&#45;0 -->
<g id="edge18" class="edge">
<title>RankedTensor&#45;5871781006564002453:s&#45;&gt;I64&#45;0</title>
<path fill="none" stroke="black" d="M956.5,-174C956.5,-160.98 958.36,-146.57 960.34,-134.92"/>
<polygon fill="black" stroke="black" points="960.78,-138.71 960.91,-133.42 957.51,-137.48 960.78,-138.71"/>
</g>
<!-- RankedTensor&#45;6267377405668604861&#45;&gt;IntVec&#45;4 -->
<g id="edge19" class="edge">
<title>RankedTensor&#45;6267377405668604861:s&#45;&gt;IntVec&#45;4</title>
<path fill="none" stroke="black" d="M425,-174C425,-134.47 555.22,-119.23 617.97,-114.18"/>
<polygon fill="black" stroke="black" points="614.84,-116.45 619.51,-113.93 614.29,-112.99 614.84,-116.45"/>
</g>
<!-- RankedTensor&#45;6267377405668604861&#45;&gt;I64&#45;0 -->
<g id="edge20" class="edge">
<title>RankedTensor&#45;6267377405668604861:s&#45;&gt;I64&#45;0</title>
<path fill="none" stroke="black" d="M472.5,-174C472.5,-122.98 881.69,-151.4 930,-135 930.45,-134.85 930.9,-134.69 931.36,-134.52"/>
<polygon fill="black" stroke="black" points="931.89,-136.19 935.79,-132.6 930.5,-132.98 931.89,-136.19"/>
</g>
<!-- NamedAttr&#45;962736044105185424&#45;&gt;String&#45;3221225479 -->
<g id="edge21" class="edge">
<title>NamedAttr&#45;962736044105185424:s&#45;&gt;String&#45;3221225479</title>
<path fill="none" stroke="black" d="M76.5,-253C76.5,-240.22 76.61,-225.96 76.72,-214.35"/>
<polygon fill="black" stroke="black" points="78.41,-217.55 76.76,-212.51 74.91,-217.48 78.41,-217.55"/>
</g>
<!-- NamedAttr&#45;962736044105185424&#45;&gt;IntegerAttr&#45;9301332479516564789 -->
<g id="edge22" class="edge">
<title>NamedAttr&#45;962736044105185424:s&#45;&gt;IntegerAttr&#45;9301332479516564789</title>
<path fill="none" stroke="black" d="M113,-253C113,-238 121.37,-223.76 130.44,-212.71"/>
<polygon fill="black" stroke="black" points="128.58,-216.39 131.45,-211.93 126.43,-213.62 128.58,-216.39"/>
</g>
<!-- IntegerAttr&#45;9301332479516564789&#45;&gt;I32&#45;0 -->
<g id="edge52" class="edge">
<title>IntegerAttr&#45;9301332479516564789:s&#45;&gt;I32&#45;0</title>
<path fill="none" stroke="black" d="M170.5,-174C170.5,-150.72 148.74,-134.5 128.74,-124.5"/>
<polygon fill="black" stroke="black" points="132.42,-124.79 127.27,-123.54 130.51,-127.73 132.42,-124.79"/>
</g>
<!-- IntegerAttr&#45;9301332479516564789&#45;&gt;i64&#45;0 -->
<g id="edge51" class="edge">
<title>IntegerAttr&#45;9301332479516564789:s&#45;&gt;i64&#45;0</title>
<path fill="none" stroke="black" d="M135,-174C135,-153.96 151.37,-138.42 167.68,-127.91"/>
<polygon fill="black" stroke="black" points="166.7,-131.42 168.94,-126.62 164.19,-128.97 166.7,-131.42"/>
</g>
<!-- Value&#45;5996666920560749382&#45;&gt;RankedTensor&#45;5871781006564002453 -->
<g id="edge24" class="edge">
<title>Value&#45;5996666920560749382:s&#45;&gt;RankedTensor&#45;5871781006564002453</title>
<path fill="none" stroke="black" d="M806.5,-253C806.5,-248.58 846.83,-229.39 881.94,-213.51"/>
<polygon fill="black" stroke="black" points="882.31,-215.27 886.14,-211.62 880.87,-212.08 882.31,-215.27"/>
</g>
<!-- Value&#45;5996666920560749382&#45;&gt;i64&#45;1 -->
<g id="edge23" class="edge">
<title>Value&#45;5996666920560749382:s&#45;&gt;i64&#45;1</title>
<path fill="none" stroke="black" d="M785.5,-253C785.5,-240.03 784.08,-225.62 782.56,-213.96"/>
<polygon fill="black" stroke="black" points="785.18,-216.79 782.13,-212.46 781.82,-217.74 785.18,-216.79"/>
</g>
<!-- Value&#45;5871781006564002453&#45;&gt;I64&#45;0 -->
<g id="edge26" class="edge">
<title>Value&#45;5871781006564002453:s&#45;&gt;I64&#45;0</title>
<path fill="none" stroke="black" d="M239.5,-174C239.5,-135.58 893.46,-146.87 930,-135 930.46,-134.85 930.93,-134.69 931.39,-134.53"/>
<polygon fill="black" stroke="black" points="932.04,-136.15 935.95,-132.59 930.67,-132.93 932.04,-136.15"/>
</g>
<!-- Value&#45;5871781006564002453&#45;&gt;i64&#45;0 -->
<g id="edge25" class="edge">
<title>Value&#45;5871781006564002453:s&#45;&gt;i64&#45;0</title>
<path fill="none" stroke="black" d="M218.5,-174C218.5,-160.73 214.56,-146.51 210.32,-135.03"/>
<polygon fill="black" stroke="black" points="213.22,-137.22 209.57,-133.38 210.03,-138.66 213.22,-137.22"/>
</g>
<!-- Value&#45;17377336564331366714&#45;&gt;RankedTensor&#45;8740641910606876011 -->
<g id="edge28" class="edge">
<title>Value&#45;17377336564331366714:s&#45;&gt;RankedTensor&#45;8740641910606876011</title>
<path fill="none" stroke="black" d="M1174.5,-253C1174.5,-235.57 1186.88,-221.64 1200.95,-211.43"/>
<polygon fill="black" stroke="black" points="1196.62,-214.79 1200.76,-211.5 1195.46,-211.49 1196.62,-214.79"/>
</g>
<!-- Value&#45;17377336564331366714&#45;&gt;i64&#45;6 -->
<g id="edge27" class="edge">
<title>Value&#45;17377336564331366714:s&#45;&gt;i64&#45;6</title>
<path fill="none" stroke="black" d="M1153.5,-253C1153.5,-240.22 1153.39,-225.96 1153.28,-214.35"/>
<polygon fill="black" stroke="black" points="1155.09,-217.48 1153.24,-212.51 1151.59,-217.55 1155.09,-217.48"/>
</g>
<!-- Value&#45;666306884212457887&#45;&gt;RankedTensor&#45;5871781006564002453 -->
<g id="edge30" class="edge">
<title>Value&#45;666306884212457887:s&#45;&gt;RankedTensor&#45;5871781006564002453</title>
<path fill="none" stroke="black" d="M879.5,-253C879.5,-236.68 890.25,-222.54 902.12,-211.89"/>
<polygon fill="black" stroke="black" points="898.86,-215.5 902.53,-211.68 897.28,-212.38 898.86,-215.5"/>
</g>
<!-- Value&#45;666306884212457887&#45;&gt;i64&#45;7 -->
<g id="edge29" class="edge">
<title>Value&#45;666306884212457887:s&#45;&gt;i64&#45;7</title>
<path fill="none" stroke="black" d="M858.5,-253C858.5,-239.89 855.58,-225.58 852.46,-214.01"/>
<polygon fill="black" stroke="black" points="855.5,-215.77 851.48,-212.31 852.47,-217.52 855.5,-215.77"/>
</g>
<!-- Value&#45;14270469204927852511&#45;&gt;RankedTensor&#45;6267377405668604861 -->
<g id="edge32" class="edge">
<title>Value&#45;14270469204927852511:s&#45;&gt;RankedTensor&#45;6267377405668604861</title>
<path fill="none" stroke="black" d="M342.5,-253C342.5,-245.65 373.19,-228.32 401.62,-213.85"/>
<polygon fill="black" stroke="black" points="402.25,-215.5 405.92,-211.68 400.67,-212.37 402.25,-215.5"/>
</g>
<!-- Value&#45;14270469204927852511&#45;&gt;i64&#45;9 -->
<g id="edge31" class="edge">
<title>Value&#45;14270469204927852511:s&#45;&gt;i64&#45;9</title>
<path fill="none" stroke="black" d="M321.5,-253C321.5,-239.14 315.83,-224.85 309.74,-213.48"/>
<polygon fill="black" stroke="black" points="313.18,-214.71 308.55,-212.13 310.56,-217.03 313.18,-214.71"/>
</g>
<!-- Value&#45;14487537003174131535&#45;&gt;RankedTensor&#45;6828067974578293639 -->
<g id="edge34" class="edge">
<title>Value&#45;14487537003174131535:s&#45;&gt;RankedTensor&#45;6828067974578293639</title>
<path fill="none" stroke="black" d="M1471.5,-253C1471.5,-236.68 1460.71,-222.61 1448.74,-212.02"/>
<polygon fill="black" stroke="black" points="1453.47,-212.67 1448.25,-211.74 1451.75,-215.72 1453.47,-212.67"/>
</g>
<!-- Value&#45;14487537003174131535&#45;&gt;i64&#45;2 -->
<g id="edge33" class="edge">
<title>Value&#45;14487537003174131535:s&#45;&gt;i64&#45;2</title>
<path fill="none" stroke="black" d="M1450.5,-253C1450.5,-236.68 1461.29,-222.61 1473.26,-212.02"/>
<polygon fill="black" stroke="black" points="1472.09,-216.07 1474.02,-211.14 1469.43,-213.8 1472.09,-216.07"/>
</g>
<!-- Value&#45;16941531909418424865&#45;&gt;RankedTensor&#45;6267377405668604861 -->
<g id="edge36" class="edge">
<title>Value&#45;16941531909418424865:s&#45;&gt;RankedTensor&#45;6267377405668604861</title>
<path fill="none" stroke="black" d="M409.5,-253C409.5,-238.06 417.76,-223.82 426.73,-212.76"/>
<polygon fill="black" stroke="black" points="424.95,-216.49 427.7,-211.96 422.72,-213.78 424.95,-216.49"/>
</g>
<!-- Value&#45;16941531909418424865&#45;&gt;i64&#45;10 -->
<g id="edge35" class="edge">
<title>Value&#45;16941531909418424865:s&#45;&gt;i64&#45;10</title>
<path fill="none" stroke="black" d="M388.5,-253C388.5,-238.93 382.51,-224.5 376.13,-213.1"/>
<polygon fill="black" stroke="black" points="379.86,-214.3 375.06,-212.06 377.42,-216.8 379.86,-214.3"/>
</g>
<!-- Value&#45;17845845248991523397&#45;&gt;I64&#45;0 -->
<g id="edge38" class="edge">
<title>Value&#45;17845845248991523397:s&#45;&gt;I64&#45;0</title>
<path fill="none" stroke="black" d="M1581.5,-174C1581.5,-153.47 1556.39,-168.37 1536,-166 1417.49,-152.2 1113.27,-172.48 1000,-135 999.54,-134.85 999.08,-134.69 998.63,-134.52"/>
<polygon fill="black" stroke="black" points="999.4,-132.95 994.12,-132.59 998.03,-136.17 999.4,-132.95"/>
</g>
<!-- Value&#45;17845845248991523397&#45;&gt;i64&#45;11 -->
<g id="edge37" class="edge">
<title>Value&#45;17845845248991523397:s&#45;&gt;i64&#45;11</title>
<path fill="none" stroke="black" d="M1560.5,-174C1560.5,-161.22 1560.61,-146.96 1560.72,-135.35"/>
<polygon fill="black" stroke="black" points="1562.41,-138.55 1560.76,-133.51 1558.91,-138.48 1562.41,-138.55"/>
</g>
<!-- Value&#45;1134815568872614570&#45;&gt;RankedTensor&#45;6267377405668604861 -->
<g id="edge40" class="edge">
<title>Value&#45;1134815568872614570:s&#45;&gt;RankedTensor&#45;6267377405668604861</title>
<path fill="none" stroke="black" d="M503.5,-253C503.5,-236.68 492.71,-222.61 480.74,-212.02"/>
<polygon fill="black" stroke="black" points="485.47,-212.67 480.25,-211.74 483.75,-215.72 485.47,-212.67"/>
</g>
<!-- Value&#45;1134815568872614570&#45;&gt;i64&#45;12 -->
<g id="edge39" class="edge">
<title>Value&#45;1134815568872614570:s&#45;&gt;i64&#45;12</title>
<path fill="none" stroke="black" d="M482.5,-253C482.5,-236.68 493.29,-222.61 505.26,-212.02"/>
<polygon fill="black" stroke="black" points="504.09,-216.07 506.02,-211.14 501.43,-213.8 504.09,-216.07"/>
</g>
<!-- Value&#45;11703353757319665465&#45;&gt;RankedTensor&#45;5871781006564002453 -->
<g id="edge42" class="edge">
<title>Value&#45;11703353757319665465:s&#45;&gt;RankedTensor&#45;5871781006564002453</title>
<path fill="none" stroke="black" d="M960.5,-253C960.5,-238.93 954.51,-224.5 948.13,-213.1"/>
<polygon fill="black" stroke="black" points="951.86,-214.3 947.06,-212.06 949.42,-216.8 951.86,-214.3"/>
</g>
<!-- Value&#45;11703353757319665465&#45;&gt;i64&#45;8 -->
<g id="edge41" class="edge">
<title>Value&#45;11703353757319665465:s&#45;&gt;i64&#45;8</title>
<path fill="none" stroke="black" d="M939.5,-253C939.5,-249.61 968.41,-228.27 991.79,-211.56"/>
<polygon fill="black" stroke="black" points="987.82,-215.34 991.62,-211.64 986.34,-212.16 987.82,-215.34"/>
</g>
<!-- arith_constant&#45;14971149177307909033&#45;&gt;I32&#45;0 -->
<g id="edge44" class="edge">
<title>arith_constant&#45;14971149177307909033:s&#45;&gt;I32&#45;0</title>
<path fill="none" stroke="black" d="M84,-332C84,-309.86 61.21,-313.56 53,-293 32.03,-240.5 25.37,-218.63 46,-166 50.89,-153.53 60.16,-142.21 69.4,-133.2"/>
<polygon fill="black" stroke="black" points="66.9,-137.42 69.73,-132.94 64.73,-134.68 66.9,-137.42"/>
</g>
<!-- arith_constant&#45;14971149177307909033&#45;&gt;NamedAttr&#45;962736044105185424 -->
<g id="edge43" class="edge">
<title>arith_constant&#45;14971149177307909033:s&#45;&gt;NamedAttr&#45;962736044105185424</title>
<path fill="none" stroke="black" d="M38,-332C38,-315.48 49.11,-301.46 61.51,-290.96"/>
<polygon fill="black" stroke="black" points="58.39,-294.41 62.14,-290.66 56.87,-291.25 58.39,-294.41"/>
</g>
<!-- Value&#45;10601242218194265729&#45;&gt;RankedTensor&#45;8740641910606876011 -->
<g id="edge46" class="edge">
<title>Value&#45;10601242218194265729:s&#45;&gt;RankedTensor&#45;8740641910606876011</title>
<path fill="none" stroke="black" d="M1295.5,-253C1295.5,-236.68 1284.71,-222.61 1272.74,-212.02"/>
<polygon fill="black" stroke="black" points="1277.47,-212.67 1272.25,-211.74 1275.75,-215.72 1277.47,-212.67"/>
</g>
<!-- Value&#45;10601242218194265729&#45;&gt;i64&#45;5 -->
<g id="edge45" class="edge">
<title>Value&#45;10601242218194265729:s&#45;&gt;i64&#45;5</title>
<path fill="none" stroke="black" d="M1274.5,-253C1274.5,-236.68 1285.29,-222.61 1297.26,-212.02"/>
<polygon fill="black" stroke="black" points="1296.09,-216.07 1298.02,-211.14 1293.43,-213.8 1296.09,-216.07"/>
</g>
<!-- Value&#45;16275225025205966978&#45;&gt;RankedTensor&#45;5871781006564002453 -->
<g id="edge48" class="edge">
<title>Value&#45;16275225025205966978:s&#45;&gt;RankedTensor&#45;5871781006564002453</title>
<path fill="none" stroke="black" d="M1054.5,-253C1054.5,-244.88 1019.63,-227.67 987.25,-213.43"/>
<polygon fill="black" stroke="black" points="988.34,-212 983.05,-211.6 986.94,-215.2 988.34,-212"/>
</g>
<!-- Value&#45;16275225025205966978&#45;&gt;i64&#45;3 -->
<g id="edge47" class="edge">
<title>Value&#45;16275225025205966978:s&#45;&gt;i64&#45;3</title>
<path fill="none" stroke="black" d="M1033.5,-253C1033.5,-236.68 1044.25,-222.54 1056.12,-211.89"/>
<polygon fill="black" stroke="black" points="1054.15,-216.95 1056.03,-212 1051.47,-214.7 1054.15,-216.95"/>
</g>
<!-- Value&#45;13801960520267695828&#45;&gt;RankedTensor&#45;7784354942592584825 -->
<g id="edge50" class="edge">
<title>Value&#45;13801960520267695828:s&#45;&gt;RankedTensor&#45;7784354942592584825</title>
<path fill="none" stroke="black" d="M679.5,-253C679.5,-236.68 668.71,-222.61 656.74,-212.02"/>
<polygon fill="black" stroke="black" points="661.47,-212.67 656.25,-211.74 659.75,-215.72 661.47,-212.67"/>
</g>
<!-- Value&#45;13801960520267695828&#45;&gt;i64&#45;4 -->
<g id="edge49" class="edge">
<title>Value&#45;13801960520267695828:s&#45;&gt;i64&#45;4</title>
<path fill="none" stroke="black" d="M658.5,-253C658.5,-236.68 669.29,-222.61 681.26,-212.02"/>
<polygon fill="black" stroke="black" points="680.09,-216.07 682.02,-211.14 677.43,-213.8 680.09,-216.07"/>
</g>
<!-- String&#45;3221225479 -->
<g id="node1" class="node">
<title>String&#45;3221225479</title>
<g id="a_node1"><a xlink:title="String&#45;3221225479: String&#45;3221225479">
<path fill="white" stroke="none" d="M61.29,-174C61.29,-174 92.71,-174 92.71,-174 98.04,-174 103.38,-179.33 103.38,-184.67 103.38,-184.67 103.38,-195.33 103.38,-195.33 103.38,-200.67 98.04,-206 92.71,-206 92.71,-206 61.29,-206 61.29,-206 55.96,-206 50.62,-200.67 50.62,-195.33 50.62,-195.33 50.62,-184.67 50.62,-184.67 50.62,-179.33 55.96,-174 61.29,-174"/>
<text text-anchor="start" x="55.62" y="-184.2" font-family="Helvetica,sans-Serif" font-size="14.00">&quot;value&quot;</text>
<path fill="none" stroke="black" d="M61.29,-174C61.29,-174 92.71,-174 92.71,-174 98.04,-174 103.38,-179.33 103.38,-184.67 103.38,-184.67 103.38,-195.33 103.38,-195.33 103.38,-200.67 98.04,-206 92.71,-206 92.71,-206 61.29,-206 61.29,-206 55.96,-206 50.62,-200.67 50.62,-195.33 50.62,-195.33 50.62,-184.67 50.62,-184.67 50.62,-179.33 55.96,-174 61.29,-174"/>
</a>
</g>
</g>
<!-- IntVec&#45;0 -->
<g id="node2" class="node">
<title>IntVec&#45;0</title>
<g id="a_node2"><a xlink:title="IntVec&#45;0: IntVec&#45;0">
<path fill="white" stroke="none" d="M885.67,-95C885.67,-95 912.33,-95 912.33,-95 917.67,-95 923,-100.33 923,-105.67 923,-105.67 923,-116.33 923,-116.33 923,-121.67 917.67,-127 912.33,-127 912.33,-127 885.67,-127 885.67,-127 880.33,-127 875,-121.67 875,-116.33 875,-116.33 875,-105.67 875,-105.67 875,-100.33 880.33,-95 885.67,-95"/>
<text text-anchor="start" x="879.88" y="-105.2" font-family="Helvetica,sans-Serif" font-size="14.00">IntVec</text>
<path fill="none" stroke="black" d="M885.67,-95C885.67,-95 912.33,-95 912.33,-95 917.67,-95 923,-100.33 923,-105.67 923,-105.67 923,-116.33 923,-116.33 923,-121.67 917.67,-127 912.33,-127 912.33,-127 885.67,-127 885.67,-127 880.33,-127 875,-121.67 875,-116.33 875,-116.33 875,-105.67 875,-105.67 875,-100.33 880.33,-95 885.67,-95"/>
</a>
</g>
</g>
<!-- i64&#45;500 -->
<g id="node3" class="node">
<title>i64&#45;500</title>
<g id="a_node3"><a xlink:title="i64&#45;500: i64&#45;500">
<path fill="white" stroke="none" d="M1036.42,-16C1036.42,-16 1047.58,-16 1047.58,-16 1052.92,-16 1058.25,-21.33 1058.25,-26.67 1058.25,-26.67 1058.25,-37.33 1058.25,-37.33 1058.25,-42.67 1052.92,-48 1047.58,-48 1047.58,-48 1036.42,-48 1036.42,-48 1031.08,-48 1025.75,-42.67 1025.75,-37.33 1025.75,-37.33 1025.75,-26.67 1025.75,-26.67 1025.75,-21.33 1031.08,-16 1036.42,-16"/>
<text text-anchor="start" x="1030.75" y="-26.2" font-family="Helvetica,sans-Serif" font-size="14.00">500</text>
<path fill="none" stroke="black" d="M1036.42,-16C1036.42,-16 1047.58,-16 1047.58,-16 1052.92,-16 1058.25,-21.33 1058.25,-26.67 1058.25,-26.67 1058.25,-37.33 1058.25,-37.33 1058.25,-42.67 1052.92,-48 1047.58,-48 1047.58,-48 1036.42,-48 1036.42,-48 1031.08,-48 1025.75,-42.67 1025.75,-37.33 1025.75,-37.33 1025.75,-26.67 1025.75,-26.67 1025.75,-21.33 1031.08,-16 1036.42,-16"/>
</a>
</g>
</g>
<!-- i64&#45;50 -->
<g id="node4" class="node">
<title>i64&#45;50</title>
<g id="a_node4"><a xlink:title="i64&#45;50: i64&#45;50">
<path fill="white" stroke="none" d="M904.67,-16C904.67,-16 915.33,-16 915.33,-16 920.67,-16 926,-21.33 926,-26.67 926,-26.67 926,-37.33 926,-37.33 926,-42.67 920.67,-48 915.33,-48 915.33,-48 904.67,-48 904.67,-48 899.33,-48 894,-42.67 894,-37.33 894,-37.33 894,-26.67 894,-26.67 894,-21.33 899.33,-16 904.67,-16"/>
<text text-anchor="start" x="902.5" y="-26.2" font-family="Helvetica,sans-Serif" font-size="14.00">50</text>
<path fill="none" stroke="black" d="M904.67,-16C904.67,-16 915.33,-16 915.33,-16 920.67,-16 926,-21.33 926,-26.67 926,-26.67 926,-37.33 926,-37.33 926,-42.67 920.67,-48 915.33,-48 915.33,-48 904.67,-48 904.67,-48 899.33,-48 894,-42.67 894,-37.33 894,-37.33 894,-26.67 894,-26.67 894,-21.33 899.33,-16 904.67,-16"/>
</a>
</g>
</g>
<!-- IntVec&#45;3 -->
<g id="node5" class="node">
<title>IntVec&#45;3</title>
<g id="a_node5"><a xlink:title="IntVec&#45;3: IntVec&#45;3">
<path fill="white" stroke="none" d="M1083.67,-95C1083.67,-95 1110.33,-95 1110.33,-95 1115.67,-95 1121,-100.33 1121,-105.67 1121,-105.67 1121,-116.33 1121,-116.33 1121,-121.67 1115.67,-127 1110.33,-127 1110.33,-127 1083.67,-127 1083.67,-127 1078.33,-127 1073,-121.67 1073,-116.33 1073,-116.33 1073,-105.67 1073,-105.67 1073,-100.33 1078.33,-95 1083.67,-95"/>
<text text-anchor="start" x="1077.88" y="-105.2" font-family="Helvetica,sans-Serif" font-size="14.00">IntVec</text>
<path fill="none" stroke="black" d="M1083.67,-95C1083.67,-95 1110.33,-95 1110.33,-95 1115.67,-95 1121,-100.33 1121,-105.67 1121,-105.67 1121,-116.33 1121,-116.33 1121,-121.67 1115.67,-127 1110.33,-127 1110.33,-127 1083.67,-127 1083.67,-127 1078.33,-127 1073,-121.67 1073,-116.33 1073,-116.33 1073,-105.67 1073,-105.67 1073,-100.33 1078.33,-95 1083.67,-95"/>
</a>
</g>
</g>
<!-- IntVec&#45;2 -->
<g id="node6" class="node">
<title>IntVec&#45;2</title>
<g id="a_node6"><a xlink:title="IntVec&#45;2: IntVec&#45;2">
<path fill="white" stroke="none" d="M703.67,-95C703.67,-95 730.33,-95 730.33,-95 735.67,-95 741,-100.33 741,-105.67 741,-105.67 741,-116.33 741,-116.33 741,-121.67 735.67,-127 730.33,-127 730.33,-127 703.67,-127 703.67,-127 698.33,-127 693,-121.67 693,-116.33 693,-116.33 693,-105.67 693,-105.67 693,-100.33 698.33,-95 703.67,-95"/>
<text text-anchor="start" x="697.88" y="-105.2" font-family="Helvetica,sans-Serif" font-size="14.00">IntVec</text>
<path fill="none" stroke="black" d="M703.67,-95C703.67,-95 730.33,-95 730.33,-95 735.67,-95 741,-100.33 741,-105.67 741,-105.67 741,-116.33 741,-116.33 741,-121.67 735.67,-127 730.33,-127 730.33,-127 703.67,-127 703.67,-127 698.33,-127 693,-121.67 693,-116.33 693,-116.33 693,-105.67 693,-105.67 693,-100.33 698.33,-95 703.67,-95"/>
</a>
</g>
</g>
<!-- i64&#45;15 -->
<g id="node7" class="node">
<title>i64&#45;15</title>
<g id="a_node7"><a xlink:title="i64&#45;15: i64&#45;15">
<path fill="white" stroke="none" d="M689.67,-16C689.67,-16 700.33,-16 700.33,-16 705.67,-16 711,-21.33 711,-26.67 711,-26.67 711,-37.33 711,-37.33 711,-42.67 705.67,-48 700.33,-48 700.33,-48 689.67,-48 689.67,-48 684.33,-48 679,-42.67 679,-37.33 679,-37.33 679,-26.67 679,-26.67 679,-21.33 684.33,-16 689.67,-16"/>
<text text-anchor="start" x="687.5" y="-26.2" font-family="Helvetica,sans-Serif" font-size="14.00">15</text>
<path fill="none" stroke="black" d="M689.67,-16C689.67,-16 700.33,-16 700.33,-16 705.67,-16 711,-21.33 711,-26.67 711,-26.67 711,-37.33 711,-37.33 711,-42.67 705.67,-48 700.33,-48 700.33,-48 689.67,-48 689.67,-48 684.33,-48 679,-42.67 679,-37.33 679,-37.33 679,-26.67 679,-26.67 679,-21.33 684.33,-16 689.67,-16"/>
</a>
</g>
</g>
<!-- IntVec&#45;1 -->
<g id="node8" class="node">
<title>IntVec&#45;1</title>
<g id="a_node8"><a xlink:title="IntVec&#45;1: IntVec&#45;1">
<path fill="white" stroke="none" d="M1017.67,-95C1017.67,-95 1044.33,-95 1044.33,-95 1049.67,-95 1055,-100.33 1055,-105.67 1055,-105.67 1055,-116.33 1055,-116.33 1055,-121.67 1049.67,-127 1044.33,-127 1044.33,-127 1017.67,-127 1017.67,-127 1012.33,-127 1007,-121.67 1007,-116.33 1007,-116.33 1007,-105.67 1007,-105.67 1007,-100.33 1012.33,-95 1017.67,-95"/>
<text text-anchor="start" x="1011.88" y="-105.2" font-family="Helvetica,sans-Serif" font-size="14.00">IntVec</text>
<path fill="none" stroke="black" d="M1017.67,-95C1017.67,-95 1044.33,-95 1044.33,-95 1049.67,-95 1055,-100.33 1055,-105.67 1055,-105.67 1055,-116.33 1055,-116.33 1055,-121.67 1049.67,-127 1044.33,-127 1044.33,-127 1017.67,-127 1017.67,-127 1012.33,-127 1007,-121.67 1007,-116.33 1007,-116.33 1007,-105.67 1007,-105.67 1007,-100.33 1012.33,-95 1017.67,-95"/>
</a>
</g>
</g>
<!-- IntVec&#45;4 -->
<g id="node9" class="node">
<title>IntVec&#45;4</title>
<g id="a_node9"><a xlink:title="IntVec&#45;4: IntVec&#45;4">
<path fill="white" stroke="none" d="M637.67,-95C637.67,-95 664.33,-95 664.33,-95 669.67,-95 675,-100.33 675,-105.67 675,-105.67 675,-116.33 675,-116.33 675,-121.67 669.67,-127 664.33,-127 664.33,-127 637.67,-127 637.67,-127 632.33,-127 627,-121.67 627,-116.33 627,-116.33 627,-105.67 627,-105.67 627,-100.33 632.33,-95 637.67,-95"/>
<text text-anchor="start" x="631.88" y="-105.2" font-family="Helvetica,sans-Serif" font-size="14.00">IntVec</text>
<path fill="none" stroke="black" d="M637.67,-95C637.67,-95 664.33,-95 664.33,-95 669.67,-95 675,-100.33 675,-105.67 675,-105.67 675,-116.33 675,-116.33 675,-121.67 669.67,-127 664.33,-127 664.33,-127 637.67,-127 637.67,-127 632.33,-127 627,-121.67 627,-116.33 627,-116.33 627,-105.67 627,-105.67 627,-100.33 632.33,-95 637.67,-95"/>
</a>
</g>
</g>
<!-- I32&#45;0 -->
<g id="node10" class="node">
<title>I32&#45;0</title>
<g id="a_node10"><a xlink:title="Type&#45;33: I32&#45;0">
<path fill="white" stroke="none" d="M90.67,-95C90.67,-95 101.33,-95 101.33,-95 106.67,-95 112,-100.33 112,-105.67 112,-105.67 112,-116.33 112,-116.33 112,-121.67 106.67,-127 101.33,-127 101.33,-127 90.67,-127 90.67,-127 85.33,-127 80,-121.67 80,-116.33 80,-116.33 80,-105.67 80,-105.67 80,-100.33 85.33,-95 90.67,-95"/>
<text text-anchor="start" x="86.62" y="-105.2" font-family="Helvetica,sans-Serif" font-size="14.00">I32</text>
<path fill="none" stroke="black" d="M90.67,-95C90.67,-95 101.33,-95 101.33,-95 106.67,-95 112,-100.33 112,-105.67 112,-105.67 112,-116.33 112,-116.33 112,-121.67 106.67,-127 101.33,-127 101.33,-127 90.67,-127 90.67,-127 85.33,-127 80,-121.67 80,-116.33 80,-116.33 80,-105.67 80,-105.67 80,-100.33 85.33,-95 90.67,-95"/>
</a>
</g>
</g>
<!-- RankedTensor&#45;6828067974578293639 -->
<g id="node11" class="node">
<title>RankedTensor&#45;6828067974578293639</title>
<g id="a_node11"><a xlink:title="Type&#45;7: RankedTensor&#45;6828067974578293639">
<path fill="white" stroke="none" d="M1379.17,-174C1379.17,-174 1454.83,-174 1454.83,-174 1460.17,-174 1465.5,-179.33 1465.5,-184.67 1465.5,-184.67 1465.5,-195.33 1465.5,-195.33 1465.5,-200.67 1460.17,-206 1454.83,-206 1454.83,-206 1379.17,-206 1379.17,-206 1373.83,-206 1368.5,-200.67 1368.5,-195.33 1368.5,-195.33 1368.5,-184.67 1368.5,-184.67 1368.5,-179.33 1373.83,-174 1379.17,-174"/>
<text text-anchor="start" x="1373.5" y="-184.2" font-family="Helvetica,sans-Serif" font-size="14.00">RankedTensor</text>
<path fill="none" stroke="black" d="M1379.17,-174C1379.17,-174 1454.83,-174 1454.83,-174 1460.17,-174 1465.5,-179.33 1465.5,-184.67 1465.5,-184.67 1465.5,-195.33 1465.5,-195.33 1465.5,-200.67 1460.17,-206 1454.83,-206 1454.83,-206 1379.17,-206 1379.17,-206 1373.83,-206 1368.5,-200.67 1368.5,-195.33 1368.5,-195.33 1368.5,-184.67 1368.5,-184.67 1368.5,-179.33 1373.83,-174 1379.17,-174"/>
</a>
</g>
</g>
<!-- I64&#45;0 -->
<g id="node12" class="node">
<title>I64&#45;0</title>
<g id="a_node12"><a xlink:title="Type&#45;1: I64&#45;0">
<path fill="white" stroke="none" d="M959.67,-95C959.67,-95 970.33,-95 970.33,-95 975.67,-95 981,-100.33 981,-105.67 981,-105.67 981,-116.33 981,-116.33 981,-121.67 975.67,-127 970.33,-127 970.33,-127 959.67,-127 959.67,-127 954.33,-127 949,-121.67 949,-116.33 949,-116.33 949,-105.67 949,-105.67 949,-100.33 954.33,-95 959.67,-95"/>
<text text-anchor="start" x="955.62" y="-105.2" font-family="Helvetica,sans-Serif" font-size="14.00">I64</text>
<path fill="none" stroke="black" d="M959.67,-95C959.67,-95 970.33,-95 970.33,-95 975.67,-95 981,-100.33 981,-105.67 981,-105.67 981,-116.33 981,-116.33 981,-121.67 975.67,-127 970.33,-127 970.33,-127 959.67,-127 959.67,-127 954.33,-127 949,-121.67 949,-116.33 949,-116.33 949,-105.67 949,-105.67 949,-100.33 954.33,-95 959.67,-95"/>
</a>
</g>
</g>
<!-- RankedTensor&#45;7784354942592584825 -->
<g id="node13" class="node">
<title>RankedTensor&#45;7784354942592584825</title>
<g id="a_node13"><a xlink:title="Type&#45;12: RankedTensor&#45;7784354942592584825">
<path fill="white" stroke="none" d="M587.17,-174C587.17,-174 662.83,-174 662.83,-174 668.17,-174 673.5,-179.33 673.5,-184.67 673.5,-184.67 673.5,-195.33 673.5,-195.33 673.5,-200.67 668.17,-206 662.83,-206 662.83,-206 587.17,-206 587.17,-206 581.83,-206 576.5,-200.67 576.5,-195.33 576.5,-195.33 576.5,-184.67 576.5,-184.67 576.5,-179.33 581.83,-174 587.17,-174"/>
<text text-anchor="start" x="581.5" y="-184.2" font-family="Helvetica,sans-Serif" font-size="14.00">RankedTensor</text>
<path fill="none" stroke="black" d="M587.17,-174C587.17,-174 662.83,-174 662.83,-174 668.17,-174 673.5,-179.33 673.5,-184.67 673.5,-184.67 673.5,-195.33 673.5,-195.33 673.5,-200.67 668.17,-206 662.83,-206 662.83,-206 587.17,-206 587.17,-206 581.83,-206 576.5,-200.67 576.5,-195.33 576.5,-195.33 576.5,-184.67 576.5,-184.67 576.5,-179.33 581.83,-174 587.17,-174"/>
</a>
</g>
</g>
<!-- RankedTensor&#45;8740641910606876011 -->
<g id="node14" class="node">
<title>RankedTensor&#45;8740641910606876011</title>
<g id="a_node14"><a xlink:title="Type&#45;15: RankedTensor&#45;8740641910606876011">
<path fill="white" stroke="none" d="M1203.17,-174C1203.17,-174 1278.83,-174 1278.83,-174 1284.17,-174 1289.5,-179.33 1289.5,-184.67 1289.5,-184.67 1289.5,-195.33 1289.5,-195.33 1289.5,-200.67 1284.17,-206 1278.83,-206 1278.83,-206 1203.17,-206 1203.17,-206 1197.83,-206 1192.5,-200.67 1192.5,-195.33 1192.5,-195.33 1192.5,-184.67 1192.5,-184.67 1192.5,-179.33 1197.83,-174 1203.17,-174"/>
<text text-anchor="start" x="1197.5" y="-184.2" font-family="Helvetica,sans-Serif" font-size="14.00">RankedTensor</text>
<path fill="none" stroke="black" d="M1203.17,-174C1203.17,-174 1278.83,-174 1278.83,-174 1284.17,-174 1289.5,-179.33 1289.5,-184.67 1289.5,-184.67 1289.5,-195.33 1289.5,-195.33 1289.5,-200.67 1284.17,-206 1278.83,-206 1278.83,-206 1203.17,-206 1203.17,-206 1197.83,-206 1192.5,-200.67 1192.5,-195.33 1192.5,-195.33 1192.5,-184.67 1192.5,-184.67 1192.5,-179.33 1197.83,-174 1203.17,-174"/>
</a>
</g>
</g>
<!-- RankedTensor&#45;5871781006564002453 -->
<g id="node15" class="node">
<title>RankedTensor&#45;5871781006564002453</title>
<g id="a_node15"><a xlink:title="Type&#45;4: RankedTensor&#45;5871781006564002453">
<path fill="white" stroke="none" d="M895.17,-174C895.17,-174 970.83,-174 970.83,-174 976.17,-174 981.5,-179.33 981.5,-184.67 981.5,-184.67 981.5,-195.33 981.5,-195.33 981.5,-200.67 976.17,-206 970.83,-206 970.83,-206 895.17,-206 895.17,-206 889.83,-206 884.5,-200.67 884.5,-195.33 884.5,-195.33 884.5,-184.67 884.5,-184.67 884.5,-179.33 889.83,-174 895.17,-174"/>
<text text-anchor="start" x="889.5" y="-184.2" font-family="Helvetica,sans-Serif" font-size="14.00">RankedTensor</text>
<path fill="none" stroke="black" d="M895.17,-174C895.17,-174 970.83,-174 970.83,-174 976.17,-174 981.5,-179.33 981.5,-184.67 981.5,-184.67 981.5,-195.33 981.5,-195.33 981.5,-200.67 976.17,-206 970.83,-206 970.83,-206 895.17,-206 895.17,-206 889.83,-206 884.5,-200.67 884.5,-195.33 884.5,-195.33 884.5,-184.67 884.5,-184.67 884.5,-179.33 889.83,-174 895.17,-174"/>
</a>
</g>
</g>
<!-- RankedTensor&#45;6267377405668604861 -->
<g id="node16" class="node">
<title>RankedTensor&#45;6267377405668604861</title>
<g id="a_node16"><a xlink:title="Type&#45;24: RankedTensor&#45;6267377405668604861">
<path fill="white" stroke="none" d="M411.17,-174C411.17,-174 486.83,-174 486.83,-174 492.17,-174 497.5,-179.33 497.5,-184.67 497.5,-184.67 497.5,-195.33 497.5,-195.33 497.5,-200.67 492.17,-206 486.83,-206 486.83,-206 411.17,-206 411.17,-206 405.83,-206 400.5,-200.67 400.5,-195.33 400.5,-195.33 400.5,-184.67 400.5,-184.67 400.5,-179.33 405.83,-174 411.17,-174"/>
<text text-anchor="start" x="405.5" y="-184.2" font-family="Helvetica,sans-Serif" font-size="14.00">RankedTensor</text>
<path fill="none" stroke="black" d="M411.17,-174C411.17,-174 486.83,-174 486.83,-174 492.17,-174 497.5,-179.33 497.5,-184.67 497.5,-184.67 497.5,-195.33 497.5,-195.33 497.5,-200.67 492.17,-206 486.83,-206 486.83,-206 411.17,-206 411.17,-206 405.83,-206 400.5,-200.67 400.5,-195.33 400.5,-195.33 400.5,-184.67 400.5,-184.67 400.5,-179.33 405.83,-174 411.17,-174"/>
</a>
</g>
</g>
<!-- NamedAttr&#45;962736044105185424 -->
<g id="node17" class="node">
<title>NamedAttr&#45;962736044105185424</title>
<g id="a_node17"><a xlink:title="AttrPair&#45;35: NamedAttr&#45;962736044105185424">
<path fill="white" stroke="none" d="M68.17,-253C68.17,-253 121.83,-253 121.83,-253 127.17,-253 132.5,-258.33 132.5,-263.67 132.5,-263.67 132.5,-274.33 132.5,-274.33 132.5,-279.67 127.17,-285 121.83,-285 121.83,-285 68.17,-285 68.17,-285 62.83,-285 57.5,-279.67 57.5,-274.33 57.5,-274.33 57.5,-263.67 57.5,-263.67 57.5,-258.33 62.83,-253 68.17,-253"/>
<text text-anchor="start" x="62.38" y="-263.2" font-family="Helvetica,sans-Serif" font-size="14.00">NamedAttr</text>
<path fill="none" stroke="black" d="M68.17,-253C68.17,-253 121.83,-253 121.83,-253 127.17,-253 132.5,-258.33 132.5,-263.67 132.5,-263.67 132.5,-274.33 132.5,-274.33 132.5,-279.67 127.17,-285 121.83,-285 121.83,-285 68.17,-285 68.17,-285 62.83,-285 57.5,-279.67 57.5,-274.33 57.5,-274.33 57.5,-263.67 57.5,-263.67 57.5,-258.33 62.83,-253 68.17,-253"/>
</a>
</g>
</g>
<!-- IntegerAttr&#45;9301332479516564789 -->
<g id="node18" class="node">
<title>IntegerAttr&#45;9301332479516564789</title>
<g id="a_node18"><a xlink:title="Attr&#45;34: IntegerAttr&#45;9301332479516564789">
<path fill="white" stroke="none" d="M127.17,-174C127.17,-174 178.83,-174 178.83,-174 184.17,-174 189.5,-179.33 189.5,-184.67 189.5,-184.67 189.5,-195.33 189.5,-195.33 189.5,-200.67 184.17,-206 178.83,-206 178.83,-206 127.17,-206 127.17,-206 121.83,-206 116.5,-200.67 116.5,-195.33 116.5,-195.33 116.5,-184.67 116.5,-184.67 116.5,-179.33 121.83,-174 127.17,-174"/>
<text text-anchor="start" x="121.5" y="-184.2" font-family="Helvetica,sans-Serif" font-size="14.00">IntegerAttr</text>
<path fill="none" stroke="black" d="M127.17,-174C127.17,-174 178.83,-174 178.83,-174 184.17,-174 189.5,-179.33 189.5,-184.67 189.5,-184.67 189.5,-195.33 189.5,-195.33 189.5,-200.67 184.17,-206 178.83,-206 178.83,-206 127.17,-206 127.17,-206 121.83,-206 116.5,-200.67 116.5,-195.33 116.5,-195.33 116.5,-184.67 116.5,-184.67 116.5,-179.33 121.83,-174 127.17,-174"/>
</a>
</g>
</g>
<!-- Value&#45;5996666920560749382 -->
<g id="node19" class="node">
<title>Value&#45;5996666920560749382</title>
<g id="a_node19"><a xlink:title="Op&#45;3: Value&#45;5996666920560749382">
<path fill="white" stroke="none" d="M784.67,-253C784.67,-253 807.33,-253 807.33,-253 812.67,-253 818,-258.33 818,-263.67 818,-263.67 818,-274.33 818,-274.33 818,-279.67 812.67,-285 807.33,-285 807.33,-285 784.67,-285 784.67,-285 779.33,-285 774,-279.67 774,-274.33 774,-274.33 774,-263.67 774,-263.67 774,-258.33 779.33,-253 784.67,-253"/>
<text text-anchor="start" x="778.75" y="-263.2" font-family="Helvetica,sans-Serif" font-size="14.00">Value</text>
<path fill="none" stroke="black" d="M784.67,-253C784.67,-253 807.33,-253 807.33,-253 812.67,-253 818,-258.33 818,-263.67 818,-263.67 818,-274.33 818,-274.33 818,-279.67 812.67,-285 807.33,-285 807.33,-285 784.67,-285 784.67,-285 779.33,-285 774,-279.67 774,-274.33 774,-274.33 774,-263.67 774,-263.67 774,-258.33 779.33,-253 784.67,-253"/>
</a>
</g>
</g>
<!-- i64&#45;1 -->
<g id="node20" class="node">
<title>i64&#45;1</title>
<g id="a_node20"><a xlink:title="i64&#45;1: i64&#45;1">
<path fill="white" stroke="none" d="M773.67,-174C773.67,-174 784.33,-174 784.33,-174 789.67,-174 795,-179.33 795,-184.67 795,-184.67 795,-195.33 795,-195.33 795,-200.67 789.67,-206 784.33,-206 784.33,-206 773.67,-206 773.67,-206 768.33,-206 763,-200.67 763,-195.33 763,-195.33 763,-184.67 763,-184.67 763,-179.33 768.33,-174 773.67,-174"/>
<text text-anchor="start" x="775.25" y="-184.2" font-family="Helvetica,sans-Serif" font-size="14.00">1</text>
<path fill="none" stroke="black" d="M773.67,-174C773.67,-174 784.33,-174 784.33,-174 789.67,-174 795,-179.33 795,-184.67 795,-184.67 795,-195.33 795,-195.33 795,-200.67 789.67,-206 784.33,-206 784.33,-206 773.67,-206 773.67,-206 768.33,-206 763,-200.67 763,-195.33 763,-195.33 763,-184.67 763,-184.67 763,-179.33 768.33,-174 773.67,-174"/>
</a>
</g>
</g>
<!-- Value&#45;5871781006564002453 -->
<g id="node21" class="node">
<title>Value&#45;5871781006564002453</title>
<g id="a_node21"><a xlink:title="Op&#45;0: Value&#45;5871781006564002453">
<path fill="white" stroke="none" d="M217.67,-174C217.67,-174 240.33,-174 240.33,-174 245.67,-174 251,-179.33 251,-184.67 251,-184.67 251,-195.33 251,-195.33 251,-200.67 245.67,-206 240.33,-206 240.33,-206 217.67,-206 217.67,-206 212.33,-206 207,-200.67 207,-195.33 207,-195.33 207,-184.67 207,-184.67 207,-179.33 212.33,-174 217.67,-174"/>
<text text-anchor="start" x="211.75" y="-184.2" font-family="Helvetica,sans-Serif" font-size="14.00">Value</text>
<path fill="none" stroke="black" d="M217.67,-174C217.67,-174 240.33,-174 240.33,-174 245.67,-174 251,-179.33 251,-184.67 251,-184.67 251,-195.33 251,-195.33 251,-200.67 245.67,-206 240.33,-206 240.33,-206 217.67,-206 217.67,-206 212.33,-206 207,-200.67 207,-195.33 207,-195.33 207,-184.67 207,-184.67 207,-179.33 212.33,-174 217.67,-174"/>
</a>
</g>
</g>
<!-- i64&#45;0 -->
<g id="node22" class="node">
<title>i64&#45;0</title>
<g id="a_node22"><a xlink:title="i64&#45;0: i64&#45;0">
<path fill="white" stroke="none" d="M194.67,-95C194.67,-95 205.33,-95 205.33,-95 210.67,-95 216,-100.33 216,-105.67 216,-105.67 216,-116.33 216,-116.33 216,-121.67 210.67,-127 205.33,-127 205.33,-127 194.67,-127 194.67,-127 189.33,-127 184,-121.67 184,-116.33 184,-116.33 184,-105.67 184,-105.67 184,-100.33 189.33,-95 194.67,-95"/>
<text text-anchor="start" x="196.25" y="-105.2" font-family="Helvetica,sans-Serif" font-size="14.00">0</text>
<path fill="none" stroke="black" d="M194.67,-95C194.67,-95 205.33,-95 205.33,-95 210.67,-95 216,-100.33 216,-105.67 216,-105.67 216,-116.33 216,-116.33 216,-121.67 210.67,-127 205.33,-127 205.33,-127 194.67,-127 194.67,-127 189.33,-127 184,-121.67 184,-116.33 184,-116.33 184,-105.67 184,-105.67 184,-100.33 189.33,-95 194.67,-95"/>
</a>
</g>
</g>
<!-- Value&#45;17377336564331366714 -->
<g id="node23" class="node">
<title>Value&#45;17377336564331366714</title>
<g id="a_node23"><a xlink:title="Op&#45;17: Value&#45;17377336564331366714">
<path fill="white" stroke="none" d="M1152.67,-253C1152.67,-253 1175.33,-253 1175.33,-253 1180.67,-253 1186,-258.33 1186,-263.67 1186,-263.67 1186,-274.33 1186,-274.33 1186,-279.67 1180.67,-285 1175.33,-285 1175.33,-285 1152.67,-285 1152.67,-285 1147.33,-285 1142,-279.67 1142,-274.33 1142,-274.33 1142,-263.67 1142,-263.67 1142,-258.33 1147.33,-253 1152.67,-253"/>
<text text-anchor="start" x="1146.75" y="-263.2" font-family="Helvetica,sans-Serif" font-size="14.00">Value</text>
<path fill="none" stroke="black" d="M1152.67,-253C1152.67,-253 1175.33,-253 1175.33,-253 1180.67,-253 1186,-258.33 1186,-263.67 1186,-263.67 1186,-274.33 1186,-274.33 1186,-279.67 1180.67,-285 1175.33,-285 1175.33,-285 1152.67,-285 1152.67,-285 1147.33,-285 1142,-279.67 1142,-274.33 1142,-274.33 1142,-263.67 1142,-263.67 1142,-258.33 1147.33,-253 1152.67,-253"/>
</a>
</g>
</g>
<!-- i64&#45;6 -->
<g id="node24" class="node">
<title>i64&#45;6</title>
<g id="a_node24"><a xlink:title="i64&#45;6: i64&#45;6">
<path fill="white" stroke="none" d="M1147.67,-174C1147.67,-174 1158.33,-174 1158.33,-174 1163.67,-174 1169,-179.33 1169,-184.67 1169,-184.67 1169,-195.33 1169,-195.33 1169,-200.67 1163.67,-206 1158.33,-206 1158.33,-206 1147.67,-206 1147.67,-206 1142.33,-206 1137,-200.67 1137,-195.33 1137,-195.33 1137,-184.67 1137,-184.67 1137,-179.33 1142.33,-174 1147.67,-174"/>
<text text-anchor="start" x="1149.25" y="-184.2" font-family="Helvetica,sans-Serif" font-size="14.00">6</text>
<path fill="none" stroke="black" d="M1147.67,-174C1147.67,-174 1158.33,-174 1158.33,-174 1163.67,-174 1169,-179.33 1169,-184.67 1169,-184.67 1169,-195.33 1169,-195.33 1169,-200.67 1163.67,-206 1158.33,-206 1158.33,-206 1147.67,-206 1147.67,-206 1142.33,-206 1137,-200.67 1137,-195.33 1137,-195.33 1137,-184.67 1137,-184.67 1137,-179.33 1142.33,-174 1147.67,-174"/>
</a>
</g>
</g>
<!-- Value&#45;666306884212457887 -->
<g id="node25" class="node">
<title>Value&#45;666306884212457887</title>
<g id="a_node25"><a xlink:title="Op&#45;19: Value&#45;666306884212457887">
<path fill="white" stroke="none" d="M857.67,-253C857.67,-253 880.33,-253 880.33,-253 885.67,-253 891,-258.33 891,-263.67 891,-263.67 891,-274.33 891,-274.33 891,-279.67 885.67,-285 880.33,-285 880.33,-285 857.67,-285 857.67,-285 852.33,-285 847,-279.67 847,-274.33 847,-274.33 847,-263.67 847,-263.67 847,-258.33 852.33,-253 857.67,-253"/>
<text text-anchor="start" x="851.75" y="-263.2" font-family="Helvetica,sans-Serif" font-size="14.00">Value</text>
<path fill="none" stroke="black" d="M857.67,-253C857.67,-253 880.33,-253 880.33,-253 885.67,-253 891,-258.33 891,-263.67 891,-263.67 891,-274.33 891,-274.33 891,-279.67 885.67,-285 880.33,-285 880.33,-285 857.67,-285 857.67,-285 852.33,-285 847,-279.67 847,-274.33 847,-274.33 847,-263.67 847,-263.67 847,-258.33 852.33,-253 857.67,-253"/>
</a>
</g>
</g>
<!-- i64&#45;7 -->
<g id="node26" class="node">
<title>i64&#45;7</title>
<g id="a_node26"><a xlink:title="i64&#45;7: i64&#45;7">
<path fill="white" stroke="none" d="M839.67,-174C839.67,-174 850.33,-174 850.33,-174 855.67,-174 861,-179.33 861,-184.67 861,-184.67 861,-195.33 861,-195.33 861,-200.67 855.67,-206 850.33,-206 850.33,-206 839.67,-206 839.67,-206 834.33,-206 829,-200.67 829,-195.33 829,-195.33 829,-184.67 829,-184.67 829,-179.33 834.33,-174 839.67,-174"/>
<text text-anchor="start" x="841.25" y="-184.2" font-family="Helvetica,sans-Serif" font-size="14.00">7</text>
<path fill="none" stroke="black" d="M839.67,-174C839.67,-174 850.33,-174 850.33,-174 855.67,-174 861,-179.33 861,-184.67 861,-184.67 861,-195.33 861,-195.33 861,-200.67 855.67,-206 850.33,-206 850.33,-206 839.67,-206 839.67,-206 834.33,-206 829,-200.67 829,-195.33 829,-195.33 829,-184.67 829,-184.67 829,-179.33 834.33,-174 839.67,-174"/>
</a>
</g>
</g>
<!-- Value&#45;14270469204927852511 -->
<g id="node27" class="node">
<title>Value&#45;14270469204927852511</title>
<g id="a_node27"><a xlink:title="Op&#45;23: Value&#45;14270469204927852511">
<path fill="white" stroke="none" d="M320.67,-253C320.67,-253 343.33,-253 343.33,-253 348.67,-253 354,-258.33 354,-263.67 354,-263.67 354,-274.33 354,-274.33 354,-279.67 348.67,-285 343.33,-285 343.33,-285 320.67,-285 320.67,-285 315.33,-285 310,-279.67 310,-274.33 310,-274.33 310,-263.67 310,-263.67 310,-258.33 315.33,-253 320.67,-253"/>
<text text-anchor="start" x="314.75" y="-263.2" font-family="Helvetica,sans-Serif" font-size="14.00">Value</text>
<path fill="none" stroke="black" d="M320.67,-253C320.67,-253 343.33,-253 343.33,-253 348.67,-253 354,-258.33 354,-263.67 354,-263.67 354,-274.33 354,-274.33 354,-279.67 348.67,-285 343.33,-285 343.33,-285 320.67,-285 320.67,-285 315.33,-285 310,-279.67 310,-274.33 310,-274.33 310,-263.67 310,-263.67 310,-258.33 315.33,-253 320.67,-253"/>
</a>
</g>
</g>
<!-- i64&#45;9 -->
<g id="node28" class="node">
<title>i64&#45;9</title>
<g id="a_node28"><a xlink:title="i64&#45;9: i64&#45;9">
<path fill="white" stroke="none" d="M289.67,-174C289.67,-174 300.33,-174 300.33,-174 305.67,-174 311,-179.33 311,-184.67 311,-184.67 311,-195.33 311,-195.33 311,-200.67 305.67,-206 300.33,-206 300.33,-206 289.67,-206 289.67,-206 284.33,-206 279,-200.67 279,-195.33 279,-195.33 279,-184.67 279,-184.67 279,-179.33 284.33,-174 289.67,-174"/>
<text text-anchor="start" x="291.25" y="-184.2" font-family="Helvetica,sans-Serif" font-size="14.00">9</text>
<path fill="none" stroke="black" d="M289.67,-174C289.67,-174 300.33,-174 300.33,-174 305.67,-174 311,-179.33 311,-184.67 311,-184.67 311,-195.33 311,-195.33 311,-200.67 305.67,-206 300.33,-206 300.33,-206 289.67,-206 289.67,-206 284.33,-206 279,-200.67 279,-195.33 279,-195.33 279,-184.67 279,-184.67 279,-179.33 284.33,-174 289.67,-174"/>
</a>
</g>
</g>
<!-- Value&#45;14487537003174131535 -->
<g id="node29" class="node">
<title>Value&#45;14487537003174131535</title>
<g id="a_node29"><a xlink:title="Op&#45;6: Value&#45;14487537003174131535">
<path fill="white" stroke="none" d="M1449.67,-253C1449.67,-253 1472.33,-253 1472.33,-253 1477.67,-253 1483,-258.33 1483,-263.67 1483,-263.67 1483,-274.33 1483,-274.33 1483,-279.67 1477.67,-285 1472.33,-285 1472.33,-285 1449.67,-285 1449.67,-285 1444.33,-285 1439,-279.67 1439,-274.33 1439,-274.33 1439,-263.67 1439,-263.67 1439,-258.33 1444.33,-253 1449.67,-253"/>
<text text-anchor="start" x="1443.75" y="-263.2" font-family="Helvetica,sans-Serif" font-size="14.00">Value</text>
<path fill="none" stroke="black" d="M1449.67,-253C1449.67,-253 1472.33,-253 1472.33,-253 1477.67,-253 1483,-258.33 1483,-263.67 1483,-263.67 1483,-274.33 1483,-274.33 1483,-279.67 1477.67,-285 1472.33,-285 1472.33,-285 1449.67,-285 1449.67,-285 1444.33,-285 1439,-279.67 1439,-274.33 1439,-274.33 1439,-263.67 1439,-263.67 1439,-258.33 1444.33,-253 1449.67,-253"/>
</a>
</g>
</g>
<!-- i64&#45;2 -->
<g id="node30" class="node">
<title>i64&#45;2</title>
<g id="a_node30"><a xlink:title="i64&#45;2: i64&#45;2">
<path fill="white" stroke="none" d="M1499.67,-174C1499.67,-174 1510.33,-174 1510.33,-174 1515.67,-174 1521,-179.33 1521,-184.67 1521,-184.67 1521,-195.33 1521,-195.33 1521,-200.67 1515.67,-206 1510.33,-206 1510.33,-206 1499.67,-206 1499.67,-206 1494.33,-206 1489,-200.67 1489,-195.33 1489,-195.33 1489,-184.67 1489,-184.67 1489,-179.33 1494.33,-174 1499.67,-174"/>
<text text-anchor="start" x="1501.25" y="-184.2" font-family="Helvetica,sans-Serif" font-size="14.00">2</text>
<path fill="none" stroke="black" d="M1499.67,-174C1499.67,-174 1510.33,-174 1510.33,-174 1515.67,-174 1521,-179.33 1521,-184.67 1521,-184.67 1521,-195.33 1521,-195.33 1521,-200.67 1515.67,-206 1510.33,-206 1510.33,-206 1499.67,-206 1499.67,-206 1494.33,-206 1489,-200.67 1489,-195.33 1489,-195.33 1489,-184.67 1489,-184.67 1489,-179.33 1494.33,-174 1499.67,-174"/>
</a>
</g>
</g>
<!-- Value&#45;16941531909418424865 -->
<g id="node31" class="node">
<title>Value&#45;16941531909418424865</title>
<g id="a_node31"><a xlink:title="Op&#45;26: Value&#45;16941531909418424865">
<path fill="white" stroke="none" d="M387.67,-253C387.67,-253 410.33,-253 410.33,-253 415.67,-253 421,-258.33 421,-263.67 421,-263.67 421,-274.33 421,-274.33 421,-279.67 415.67,-285 410.33,-285 410.33,-285 387.67,-285 387.67,-285 382.33,-285 377,-279.67 377,-274.33 377,-274.33 377,-263.67 377,-263.67 377,-258.33 382.33,-253 387.67,-253"/>
<text text-anchor="start" x="381.75" y="-263.2" font-family="Helvetica,sans-Serif" font-size="14.00">Value</text>
<path fill="none" stroke="black" d="M387.67,-253C387.67,-253 410.33,-253 410.33,-253 415.67,-253 421,-258.33 421,-263.67 421,-263.67 421,-274.33 421,-274.33 421,-279.67 415.67,-285 410.33,-285 410.33,-285 387.67,-285 387.67,-285 382.33,-285 377,-279.67 377,-274.33 377,-274.33 377,-263.67 377,-263.67 377,-258.33 382.33,-253 387.67,-253"/>
</a>
</g>
</g>
<!-- i64&#45;10 -->
<g id="node32" class="node">
<title>i64&#45;10</title>
<g id="a_node32"><a xlink:title="i64&#45;10: i64&#45;10">
<path fill="white" stroke="none" d="M355.67,-174C355.67,-174 366.33,-174 366.33,-174 371.67,-174 377,-179.33 377,-184.67 377,-184.67 377,-195.33 377,-195.33 377,-200.67 371.67,-206 366.33,-206 366.33,-206 355.67,-206 355.67,-206 350.33,-206 345,-200.67 345,-195.33 345,-195.33 345,-184.67 345,-184.67 345,-179.33 350.33,-174 355.67,-174"/>
<text text-anchor="start" x="353.5" y="-184.2" font-family="Helvetica,sans-Serif" font-size="14.00">10</text>
<path fill="none" stroke="black" d="M355.67,-174C355.67,-174 366.33,-174 366.33,-174 371.67,-174 377,-179.33 377,-184.67 377,-184.67 377,-195.33 377,-195.33 377,-200.67 371.67,-206 366.33,-206 366.33,-206 355.67,-206 355.67,-206 350.33,-206 345,-200.67 345,-195.33 345,-195.33 345,-184.67 345,-184.67 345,-179.33 350.33,-174 355.67,-174"/>
</a>
</g>
</g>
<!-- Value&#45;17845845248991523397 -->
<g id="node33" class="node">
<title>Value&#45;17845845248991523397</title>
<g id="a_node33"><a xlink:title="Op&#45;28: Value&#45;17845845248991523397">
<path fill="white" stroke="none" d="M1559.67,-174C1559.67,-174 1582.33,-174 1582.33,-174 1587.67,-174 1593,-179.33 1593,-184.67 1593,-184.67 1593,-195.33 1593,-195.33 1593,-200.67 1587.67,-206 1582.33,-206 1582.33,-206 1559.67,-206 1559.67,-206 1554.33,-206 1549,-200.67 1549,-195.33 1549,-195.33 1549,-184.67 1549,-184.67 1549,-179.33 1554.33,-174 1559.67,-174"/>
<text text-anchor="start" x="1553.75" y="-184.2" font-family="Helvetica,sans-Serif" font-size="14.00">Value</text>
<path fill="none" stroke="black" d="M1559.67,-174C1559.67,-174 1582.33,-174 1582.33,-174 1587.67,-174 1593,-179.33 1593,-184.67 1593,-184.67 1593,-195.33 1593,-195.33 1593,-200.67 1587.67,-206 1582.33,-206 1582.33,-206 1559.67,-206 1559.67,-206 1554.33,-206 1549,-200.67 1549,-195.33 1549,-195.33 1549,-184.67 1549,-184.67 1549,-179.33 1554.33,-174 1559.67,-174"/>
</a>
</g>
</g>
<!-- i64&#45;11 -->
<g id="node34" class="node">
<title>i64&#45;11</title>
<g id="a_node34"><a xlink:title="i64&#45;11: i64&#45;11">
<path fill="white" stroke="none" d="M1555.67,-95C1555.67,-95 1566.33,-95 1566.33,-95 1571.67,-95 1577,-100.33 1577,-105.67 1577,-105.67 1577,-116.33 1577,-116.33 1577,-121.67 1571.67,-127 1566.33,-127 1566.33,-127 1555.67,-127 1555.67,-127 1550.33,-127 1545,-121.67 1545,-116.33 1545,-116.33 1545,-105.67 1545,-105.67 1545,-100.33 1550.33,-95 1555.67,-95"/>
<text text-anchor="start" x="1553.5" y="-105.2" font-family="Helvetica,sans-Serif" font-size="14.00">11</text>
<path fill="none" stroke="black" d="M1555.67,-95C1555.67,-95 1566.33,-95 1566.33,-95 1571.67,-95 1577,-100.33 1577,-105.67 1577,-105.67 1577,-116.33 1577,-116.33 1577,-121.67 1571.67,-127 1566.33,-127 1566.33,-127 1555.67,-127 1555.67,-127 1550.33,-127 1545,-121.67 1545,-116.33 1545,-116.33 1545,-105.67 1545,-105.67 1545,-100.33 1550.33,-95 1555.67,-95"/>
</a>
</g>
</g>
<!-- Value&#45;1134815568872614570 -->
<g id="node35" class="node">
<title>Value&#45;1134815568872614570</title>
<g id="a_node35"><a xlink:title="Op&#45;30: Value&#45;1134815568872614570">
<path fill="white" stroke="none" d="M481.67,-253C481.67,-253 504.33,-253 504.33,-253 509.67,-253 515,-258.33 515,-263.67 515,-263.67 515,-274.33 515,-274.33 515,-279.67 509.67,-285 504.33,-285 504.33,-285 481.67,-285 481.67,-285 476.33,-285 471,-279.67 471,-274.33 471,-274.33 471,-263.67 471,-263.67 471,-258.33 476.33,-253 481.67,-253"/>
<text text-anchor="start" x="475.75" y="-263.2" font-family="Helvetica,sans-Serif" font-size="14.00">Value</text>
<path fill="none" stroke="black" d="M481.67,-253C481.67,-253 504.33,-253 504.33,-253 509.67,-253 515,-258.33 515,-263.67 515,-263.67 515,-274.33 515,-274.33 515,-279.67 509.67,-285 504.33,-285 504.33,-285 481.67,-285 481.67,-285 476.33,-285 471,-279.67 471,-274.33 471,-274.33 471,-263.67 471,-263.67 471,-258.33 476.33,-253 481.67,-253"/>
</a>
</g>
</g>
<!-- i64&#45;12 -->
<g id="node36" class="node">
<title>i64&#45;12</title>
<g id="a_node36"><a xlink:title="i64&#45;12: i64&#45;12">
<path fill="white" stroke="none" d="M531.67,-174C531.67,-174 542.33,-174 542.33,-174 547.67,-174 553,-179.33 553,-184.67 553,-184.67 553,-195.33 553,-195.33 553,-200.67 547.67,-206 542.33,-206 542.33,-206 531.67,-206 531.67,-206 526.33,-206 521,-200.67 521,-195.33 521,-195.33 521,-184.67 521,-184.67 521,-179.33 526.33,-174 531.67,-174"/>
<text text-anchor="start" x="529.5" y="-184.2" font-family="Helvetica,sans-Serif" font-size="14.00">12</text>
<path fill="none" stroke="black" d="M531.67,-174C531.67,-174 542.33,-174 542.33,-174 547.67,-174 553,-179.33 553,-184.67 553,-184.67 553,-195.33 553,-195.33 553,-200.67 547.67,-206 542.33,-206 542.33,-206 531.67,-206 531.67,-206 526.33,-206 521,-200.67 521,-195.33 521,-195.33 521,-184.67 521,-184.67 521,-179.33 526.33,-174 531.67,-174"/>
</a>
</g>
</g>
<!-- Value&#45;11703353757319665465 -->
<g id="node37" class="node">
<title>Value&#45;11703353757319665465</title>
<g id="a_node37"><a xlink:title="Op&#45;21: Value&#45;11703353757319665465">
<path fill="white" stroke="none" d="M938.67,-253C938.67,-253 961.33,-253 961.33,-253 966.67,-253 972,-258.33 972,-263.67 972,-263.67 972,-274.33 972,-274.33 972,-279.67 966.67,-285 961.33,-285 961.33,-285 938.67,-285 938.67,-285 933.33,-285 928,-279.67 928,-274.33 928,-274.33 928,-263.67 928,-263.67 928,-258.33 933.33,-253 938.67,-253"/>
<text text-anchor="start" x="932.75" y="-263.2" font-family="Helvetica,sans-Serif" font-size="14.00">Value</text>
<path fill="none" stroke="black" d="M938.67,-253C938.67,-253 961.33,-253 961.33,-253 966.67,-253 972,-258.33 972,-263.67 972,-263.67 972,-274.33 972,-274.33 972,-279.67 966.67,-285 961.33,-285 961.33,-285 938.67,-285 938.67,-285 933.33,-285 928,-279.67 928,-274.33 928,-274.33 928,-263.67 928,-263.67 928,-258.33 933.33,-253 938.67,-253"/>
</a>
</g>
</g>
<!-- i64&#45;8 -->
<g id="node38" class="node">
<title>i64&#45;8</title>
<g id="a_node38"><a xlink:title="i64&#45;8: i64&#45;8">
<path fill="white" stroke="none" d="M1015.67,-174C1015.67,-174 1026.33,-174 1026.33,-174 1031.67,-174 1037,-179.33 1037,-184.67 1037,-184.67 1037,-195.33 1037,-195.33 1037,-200.67 1031.67,-206 1026.33,-206 1026.33,-206 1015.67,-206 1015.67,-206 1010.33,-206 1005,-200.67 1005,-195.33 1005,-195.33 1005,-184.67 1005,-184.67 1005,-179.33 1010.33,-174 1015.67,-174"/>
<text text-anchor="start" x="1017.25" y="-184.2" font-family="Helvetica,sans-Serif" font-size="14.00">8</text>
<path fill="none" stroke="black" d="M1015.67,-174C1015.67,-174 1026.33,-174 1026.33,-174 1031.67,-174 1037,-179.33 1037,-184.67 1037,-184.67 1037,-195.33 1037,-195.33 1037,-200.67 1031.67,-206 1026.33,-206 1026.33,-206 1015.67,-206 1015.67,-206 1010.33,-206 1005,-200.67 1005,-195.33 1005,-195.33 1005,-184.67 1005,-184.67 1005,-179.33 1010.33,-174 1015.67,-174"/>
</a>
</g>
</g>
<!-- arith_constant&#45;14971149177307909033 -->
<g id="node39" class="node">
<title>arith_constant&#45;14971149177307909033</title>
<g id="a_node39"><a xlink:title="Op&#45;32: arith_constant&#45;14971149177307909033">
<path fill="white" stroke="none" d="M24.67,-332C24.67,-332 97.33,-332 97.33,-332 102.67,-332 108,-337.33 108,-342.67 108,-342.67 108,-353.33 108,-353.33 108,-358.67 102.67,-364 97.33,-364 97.33,-364 24.67,-364 24.67,-364 19.33,-364 14,-358.67 14,-353.33 14,-353.33 14,-342.67 14,-342.67 14,-337.33 19.33,-332 24.67,-332"/>
<text text-anchor="start" x="18.62" y="-342.2" font-family="Helvetica,sans-Serif" font-size="14.00">arith_constant</text>
<path fill="none" stroke="black" d="M24.67,-332C24.67,-332 97.33,-332 97.33,-332 102.67,-332 108,-337.33 108,-342.67 108,-342.67 108,-353.33 108,-353.33 108,-358.67 102.67,-364 97.33,-364 97.33,-364 24.67,-364 24.67,-364 19.33,-364 14,-358.67 14,-353.33 14,-353.33 14,-342.67 14,-342.67 14,-337.33 19.33,-332 24.67,-332"/>
</a>
</g>
</g>
<!-- Value&#45;10601242218194265729 -->
<g id="node40" class="node">
<title>Value&#45;10601242218194265729</title>
<g id="a_node40"><a xlink:title="Op&#45;14: Value&#45;10601242218194265729">
<path fill="white" stroke="none" d="M1273.67,-253C1273.67,-253 1296.33,-253 1296.33,-253 1301.67,-253 1307,-258.33 1307,-263.67 1307,-263.67 1307,-274.33 1307,-274.33 1307,-279.67 1301.67,-285 1296.33,-285 1296.33,-285 1273.67,-285 1273.67,-285 1268.33,-285 1263,-279.67 1263,-274.33 1263,-274.33 1263,-263.67 1263,-263.67 1263,-258.33 1268.33,-253 1273.67,-253"/>
<text text-anchor="start" x="1267.75" y="-263.2" font-family="Helvetica,sans-Serif" font-size="14.00">Value</text>
<path fill="none" stroke="black" d="M1273.67,-253C1273.67,-253 1296.33,-253 1296.33,-253 1301.67,-253 1307,-258.33 1307,-263.67 1307,-263.67 1307,-274.33 1307,-274.33 1307,-279.67 1301.67,-285 1296.33,-285 1296.33,-285 1273.67,-285 1273.67,-285 1268.33,-285 1263,-279.67 1263,-274.33 1263,-274.33 1263,-263.67 1263,-263.67 1263,-258.33 1268.33,-253 1273.67,-253"/>
</a>
</g>
</g>
<!-- i64&#45;5 -->
<g id="node41" class="node">
<title>i64&#45;5</title>
<g id="a_node41"><a xlink:title="i64&#45;5: i64&#45;5">
<path fill="white" stroke="none" d="M1323.67,-174C1323.67,-174 1334.33,-174 1334.33,-174 1339.67,-174 1345,-179.33 1345,-184.67 1345,-184.67 1345,-195.33 1345,-195.33 1345,-200.67 1339.67,-206 1334.33,-206 1334.33,-206 1323.67,-206 1323.67,-206 1318.33,-206 1313,-200.67 1313,-195.33 1313,-195.33 1313,-184.67 1313,-184.67 1313,-179.33 1318.33,-174 1323.67,-174"/>
<text text-anchor="start" x="1325.25" y="-184.2" font-family="Helvetica,sans-Serif" font-size="14.00">5</text>
<path fill="none" stroke="black" d="M1323.67,-174C1323.67,-174 1334.33,-174 1334.33,-174 1339.67,-174 1345,-179.33 1345,-184.67 1345,-184.67 1345,-195.33 1345,-195.33 1345,-200.67 1339.67,-206 1334.33,-206 1334.33,-206 1323.67,-206 1323.67,-206 1318.33,-206 1313,-200.67 1313,-195.33 1313,-195.33 1313,-184.67 1313,-184.67 1313,-179.33 1318.33,-174 1323.67,-174"/>
</a>
</g>
</g>
<!-- Value&#45;16275225025205966978 -->
<g id="node42" class="node">
<title>Value&#45;16275225025205966978</title>
<g id="a_node42"><a xlink:title="Op&#45;9: Value&#45;16275225025205966978">
<path fill="white" stroke="none" d="M1032.67,-253C1032.67,-253 1055.33,-253 1055.33,-253 1060.67,-253 1066,-258.33 1066,-263.67 1066,-263.67 1066,-274.33 1066,-274.33 1066,-279.67 1060.67,-285 1055.33,-285 1055.33,-285 1032.67,-285 1032.67,-285 1027.33,-285 1022,-279.67 1022,-274.33 1022,-274.33 1022,-263.67 1022,-263.67 1022,-258.33 1027.33,-253 1032.67,-253"/>
<text text-anchor="start" x="1026.75" y="-263.2" font-family="Helvetica,sans-Serif" font-size="14.00">Value</text>
<path fill="none" stroke="black" d="M1032.67,-253C1032.67,-253 1055.33,-253 1055.33,-253 1060.67,-253 1066,-258.33 1066,-263.67 1066,-263.67 1066,-274.33 1066,-274.33 1066,-279.67 1060.67,-285 1055.33,-285 1055.33,-285 1032.67,-285 1032.67,-285 1027.33,-285 1022,-279.67 1022,-274.33 1022,-274.33 1022,-263.67 1022,-263.67 1022,-258.33 1027.33,-253 1032.67,-253"/>
</a>
</g>
</g>
<!-- i64&#45;3 -->
<g id="node43" class="node">
<title>i64&#45;3</title>
<g id="a_node43"><a xlink:title="i64&#45;3: i64&#45;3">
<path fill="white" stroke="none" d="M1081.67,-174C1081.67,-174 1092.33,-174 1092.33,-174 1097.67,-174 1103,-179.33 1103,-184.67 1103,-184.67 1103,-195.33 1103,-195.33 1103,-200.67 1097.67,-206 1092.33,-206 1092.33,-206 1081.67,-206 1081.67,-206 1076.33,-206 1071,-200.67 1071,-195.33 1071,-195.33 1071,-184.67 1071,-184.67 1071,-179.33 1076.33,-174 1081.67,-174"/>
<text text-anchor="start" x="1083.25" y="-184.2" font-family="Helvetica,sans-Serif" font-size="14.00">3</text>
<path fill="none" stroke="black" d="M1081.67,-174C1081.67,-174 1092.33,-174 1092.33,-174 1097.67,-174 1103,-179.33 1103,-184.67 1103,-184.67 1103,-195.33 1103,-195.33 1103,-200.67 1097.67,-206 1092.33,-206 1092.33,-206 1081.67,-206 1081.67,-206 1076.33,-206 1071,-200.67 1071,-195.33 1071,-195.33 1071,-184.67 1071,-184.67 1071,-179.33 1076.33,-174 1081.67,-174"/>
</a>
</g>
</g>
<!-- Value&#45;13801960520267695828 -->
<g id="node44" class="node">
<title>Value&#45;13801960520267695828</title>
<g id="a_node44"><a xlink:title="Op&#45;11: Value&#45;13801960520267695828">
<path fill="white" stroke="none" d="M657.67,-253C657.67,-253 680.33,-253 680.33,-253 685.67,-253 691,-258.33 691,-263.67 691,-263.67 691,-274.33 691,-274.33 691,-279.67 685.67,-285 680.33,-285 680.33,-285 657.67,-285 657.67,-285 652.33,-285 647,-279.67 647,-274.33 647,-274.33 647,-263.67 647,-263.67 647,-258.33 652.33,-253 657.67,-253"/>
<text text-anchor="start" x="651.75" y="-263.2" font-family="Helvetica,sans-Serif" font-size="14.00">Value</text>
<path fill="none" stroke="black" d="M657.67,-253C657.67,-253 680.33,-253 680.33,-253 685.67,-253 691,-258.33 691,-263.67 691,-263.67 691,-274.33 691,-274.33 691,-279.67 685.67,-285 680.33,-285 680.33,-285 657.67,-285 657.67,-285 652.33,-285 647,-279.67 647,-274.33 647,-274.33 647,-263.67 647,-263.67 647,-258.33 652.33,-253 657.67,-253"/>
</a>
</g>
</g>
<!-- i64&#45;4 -->
<g id="node45" class="node">
<title>i64&#45;4</title>
<g id="a_node45"><a xlink:title="i64&#45;4: i64&#45;4">
<path fill="white" stroke="none" d="M707.67,-174C707.67,-174 718.33,-174 718.33,-174 723.67,-174 729,-179.33 729,-184.67 729,-184.67 729,-195.33 729,-195.33 729,-200.67 723.67,-206 718.33,-206 718.33,-206 707.67,-206 707.67,-206 702.33,-206 697,-200.67 697,-195.33 697,-195.33 697,-184.67 697,-184.67 697,-179.33 702.33,-174 707.67,-174"/>
<text text-anchor="start" x="709.25" y="-184.2" font-family="Helvetica,sans-Serif" font-size="14.00">4</text>
<path fill="none" stroke="black" d="M707.67,-174C707.67,-174 718.33,-174 718.33,-174 723.67,-174 729,-179.33 729,-184.67 729,-184.67 729,-195.33 729,-195.33 729,-200.67 723.67,-206 718.33,-206 718.33,-206 707.67,-206 707.67,-206 702.33,-206 697,-200.67 697,-195.33 697,-195.33 697,-184.67 697,-184.67 697,-179.33 702.33,-174 707.67,-174"/>
</a>
</g>
</g>
</g>
</svg>
