<?xml version="1.0" encoding="UTF-8" standalone="no"?>
<!DOCTYPE svg PUBLIC "-//W3C//DTD SVG 1.1//EN"
 "http://www.w3.org/Graphics/SVG/1.1/DTD/svg11.dtd">
<!-- Generated by graphviz version 12.0.0 (20240704.0754)
 -->
<!-- Pages: 1 -->
<svg width="746pt" height="388pt"
 viewBox="0.00 0.00 745.85 388.00" xmlns="http://www.w3.org/2000/svg" xmlns:xlink="http://www.w3.org/1999/xlink">
<g id="graph0" class="graph" transform="scale(1 1) rotate(0) translate(4 384)">
<polygon fill="white" stroke="none" points="-4,4 -4,-384 741.85,-384 741.85,4 -4,4"/>
<g id="clust1" class="cluster">
<title>outer_cluster_f64&#45;0</title>
</g>
<g id="clust2" class="cluster">
<title>cluster_f64&#45;0</title>
<path fill="#ffffb3" stroke="black" stroke-dasharray="5,2" d="M99.85,-11C99.85,-11 135.85,-11 135.85,-11 141.85,-11 147.85,-17 147.85,-23 147.85,-23 147.85,-41 147.85,-41 147.85,-47 141.85,-53 135.85,-53 135.85,-53 99.85,-53 99.85,-53 93.85,-53 87.85,-47 87.85,-41 87.85,-41 87.85,-23 87.85,-23 87.85,-17 93.85,-11 99.85,-11"/>
</g>
<g id="clust4" class="cluster">
<title>outer_cluster_f64&#45;16958304396863602688</title>
</g>
<g id="clust5" class="cluster">
<title>cluster_f64&#45;16958304396863602688</title>
<path fill="#ffffb3" stroke="black" stroke-dasharray="5,2" d="M249.85,-11C249.85,-11 285.85,-11 285.85,-11 291.85,-11 297.85,-17 297.85,-23 297.85,-23 297.85,-41 297.85,-41 297.85,-47 291.85,-53 285.85,-53 285.85,-53 249.85,-53 249.85,-53 243.85,-53 237.85,-47 237.85,-41 237.85,-41 237.85,-23 237.85,-23 237.85,-17 243.85,-11 249.85,-11"/>
</g>
<g id="clust7" class="cluster">
<title>outer_cluster_f64&#45;4611686018427387904</title>
</g>
<g id="clust8" class="cluster">
<title>cluster_f64&#45;4611686018427387904</title>
<path fill="#ffffb3" stroke="black" stroke-dasharray="5,2" d="M421.85,-11C421.85,-11 457.85,-11 457.85,-11 463.85,-11 469.85,-17 469.85,-23 469.85,-23 469.85,-41 469.85,-41 469.85,-47 463.85,-53 457.85,-53 457.85,-53 421.85,-53 421.85,-53 415.85,-53 409.85,-47 409.85,-41 409.85,-41 409.85,-23 409.85,-23 409.85,-17 415.85,-11 421.85,-11"/>
</g>
<g id="clust10" class="cluster">
<title>outer_cluster_11</title>
</g>
<g id="clust11" class="cluster">
<title>cluster_11</title>
<path fill="#bebada" stroke="black" stroke-dasharray="5,2" d="M550.85,-248C550.85,-248 608.85,-248 608.85,-248 614.85,-248 620.85,-254 620.85,-260 620.85,-260 620.85,-278 620.85,-278 620.85,-284 614.85,-290 608.85,-290 608.85,-290 550.85,-290 550.85,-290 544.85,-290 538.85,-284 538.85,-278 538.85,-278 538.85,-260 538.85,-260 538.85,-254 544.85,-248 550.85,-248"/>
</g>
<g id="clust13" class="cluster">
<title>outer_cluster_6</title>
</g>
<g id="clust14" class="cluster">
<title>cluster_6</title>
<path fill="#bebada" stroke="black" stroke-dasharray="5,2" d="M422.85,-169C422.85,-169 480.85,-169 480.85,-169 486.85,-169 492.85,-175 492.85,-181 492.85,-181 492.85,-199 492.85,-199 492.85,-205 486.85,-211 480.85,-211 480.85,-211 422.85,-211 422.85,-211 416.85,-211 410.85,-205 410.85,-199 410.85,-199 410.85,-181 410.85,-181 410.85,-175 416.85,-169 422.85,-169"/>
</g>
<g id="clust16" class="cluster">
<title>outer_cluster_2</title>
</g>
<g id="clust17" class="cluster">
<title>cluster_2</title>
<path fill="#bebada" stroke="black" stroke-dasharray="5,2" d="M246.85,-169C246.85,-169 304.85,-169 304.85,-169 310.85,-169 316.85,-175 316.85,-181 316.85,-181 316.85,-199 316.85,-199 316.85,-205 310.85,-211 304.85,-211 304.85,-211 246.85,-211 246.85,-211 240.85,-211 234.85,-205 234.85,-199 234.85,-199 234.85,-181 234.85,-181 234.85,-175 240.85,-169 246.85,-169"/>
</g>
<g id="clust19" class="cluster">
<title>outer_cluster_17</title>
</g>
<g id="clust20" class="cluster">
<title>cluster_17</title>
<path fill="#bebada" stroke="black" stroke-dasharray="5,2" d="M92.85,-169C92.85,-169 150.85,-169 150.85,-169 156.85,-169 162.85,-175 162.85,-181 162.85,-181 162.85,-199 162.85,-199 162.85,-205 156.85,-211 150.85,-211 150.85,-211 92.85,-211 92.85,-211 86.85,-211 80.85,-205 80.85,-199 80.85,-199 80.85,-181 80.85,-181 80.85,-175 86.85,-169 92.85,-169"/>
</g>
<g id="clust22" class="cluster">
<title>outer_cluster_16</title>
</g>
<g id="clust23" class="cluster">
<title>cluster_16</title>
<path fill="#fb8072" stroke="black" stroke-dasharray="5,2" d="M110.85,-90C110.85,-90 154.85,-90 154.85,-90 160.85,-90 166.85,-96 166.85,-102 166.85,-102 166.85,-120 166.85,-120 166.85,-126 160.85,-132 154.85,-132 154.85,-132 110.85,-132 110.85,-132 104.85,-132 98.85,-126 98.85,-120 98.85,-120 98.85,-102 98.85,-102 98.85,-96 104.85,-90 110.85,-90"/>
</g>
<g id="clust25" class="cluster">
<title>outer_cluster_1</title>
</g>
<g id="clust26" class="cluster">
<title>cluster_1</title>
<path fill="#fb8072" stroke="black" stroke-dasharray="5,2" d="M260.85,-90C260.85,-90 304.85,-90 304.85,-90 310.85,-90 316.85,-96 316.85,-102 316.85,-102 316.85,-120 316.85,-120 316.85,-126 310.85,-132 304.85,-132 304.85,-132 260.85,-132 260.85,-132 254.85,-132 248.85,-126 248.85,-120 248.85,-120 248.85,-102 248.85,-102 248.85,-96 254.85,-90 260.85,-90"/>
</g>
<g id="clust28" class="cluster">
<title>outer_cluster_5</title>
</g>
<g id="clust29" class="cluster">
<title>cluster_5</title>
<path fill="#fb8072" stroke="black" stroke-dasharray="5,2" d="M440.85,-90C440.85,-90 484.85,-90 484.85,-90 490.85,-90 496.85,-96 496.85,-102 496.85,-102 496.85,-120 496.85,-120 496.85,-126 490.85,-132 484.85,-132 484.85,-132 440.85,-132 440.85,-132 434.85,-132 428.85,-126 428.85,-120 428.85,-120 428.85,-102 428.85,-102 428.85,-96 434.85,-90 440.85,-90"/>
</g>
<g id="clust31" class="cluster">
<title>outer_cluster_10</title>
</g>
<g id="clust32" class="cluster">
<title>cluster_10</title>
<path fill="#fb8072" stroke="black" stroke-dasharray="5,2" d="M550.85,-169C550.85,-169 628.85,-169 628.85,-169 634.85,-169 640.85,-175 640.85,-181 640.85,-181 640.85,-199 640.85,-199 640.85,-205 634.85,-211 628.85,-211 628.85,-211 550.85,-211 550.85,-211 544.85,-211 538.85,-205 538.85,-199 538.85,-199 538.85,-181 538.85,-181 538.85,-175 544.85,-169 550.85,-169"/>
</g>
<g id="clust34" class="cluster">
<title>outer_cluster_i64&#45;5871781006564002453</title>
</g>
<g id="clust35" class="cluster">
<title>cluster_i64&#45;5871781006564002453</title>
<path fill="#80b1d3" stroke="black" stroke-dasharray="5,2" d="M356.85,-169C356.85,-169 392.85,-169 392.85,-169 398.85,-169 404.85,-175 404.85,-181 404.85,-181 404.85,-199 404.85,-199 404.85,-205 398.85,-211 392.85,-211 392.85,-211 356.85,-211 356.85,-211 350.85,-211 344.85,-205 344.85,-199 344.85,-199 344.85,-181 344.85,-181 344.85,-175 350.85,-169 356.85,-169"/>
</g>
<g id="clust37" class="cluster">
<title>outer_cluster_i64&#45;11743562013128004906</title>
</g>
<g id="clust38" class="cluster">
<title>cluster_i64&#45;11743562013128004906</title>
<path fill="#80b1d3" stroke="black" stroke-dasharray="5,2" d="M172.85,-248C172.85,-248 208.85,-248 208.85,-248 214.85,-248 220.85,-254 220.85,-260 220.85,-260 220.85,-278 220.85,-278 220.85,-284 214.85,-290 208.85,-290 208.85,-290 172.85,-290 172.85,-290 166.85,-290 160.85,-284 160.85,-278 160.85,-278 160.85,-260 160.85,-260 160.85,-254 166.85,-248 172.85,-248"/>
</g>
<g id="clust40" class="cluster">
<title>outer_cluster_i64&#45;0</title>
</g>
<g id="clust41" class="cluster">
<title>cluster_i64&#45;0</title>
<path fill="#80b1d3" stroke="black" stroke-dasharray="5,2" d="M180.85,-169C180.85,-169 216.85,-169 216.85,-169 222.85,-169 228.85,-175 228.85,-181 228.85,-181 228.85,-199 228.85,-199 228.85,-205 222.85,-211 216.85,-211 216.85,-211 180.85,-211 180.85,-211 174.85,-211 168.85,-205 168.85,-199 168.85,-199 168.85,-181 168.85,-181 168.85,-175 174.85,-169 180.85,-169"/>
</g>
<g id="clust43" class="cluster">
<title>outer_cluster_i64&#45;5040379952546458196</title>
</g>
<g id="clust44" class="cluster">
<title>cluster_i64&#45;5040379952546458196</title>
<path fill="#80b1d3" stroke="black" stroke-dasharray="5,2" d="M26.85,-169C26.85,-169 62.85,-169 62.85,-169 68.85,-169 74.85,-175 74.85,-181 74.85,-181 74.85,-199 74.85,-199 74.85,-205 68.85,-211 62.85,-211 62.85,-211 26.85,-211 26.85,-211 20.85,-211 14.85,-205 14.85,-199 14.85,-199 14.85,-181 14.85,-181 14.85,-175 20.85,-169 26.85,-169"/>
</g>
<g id="clust46" class="cluster">
<title>outer_cluster_i64&#45;17615343019692007359</title>
</g>
<g id="clust47" class="cluster">
<title>cluster_i64&#45;17615343019692007359</title>
<path fill="#80b1d3" stroke="black" stroke-dasharray="5,2" d="M621.85,-11C621.85,-11 657.85,-11 657.85,-11 663.85,-11 669.85,-17 669.85,-23 669.85,-23 669.85,-41 669.85,-41 669.85,-47 663.85,-53 657.85,-53 657.85,-53 621.85,-53 621.85,-53 615.85,-53 609.85,-47 609.85,-41 609.85,-41 609.85,-23 609.85,-23 609.85,-17 615.85,-11 621.85,-11"/>
</g>
<g id="clust49" class="cluster">
<title>outer_cluster_i64&#45;12574963067145549163</title>
</g>
<g id="clust50" class="cluster">
<title>cluster_i64&#45;12574963067145549163</title>
<path fill="#80b1d3" stroke="black" stroke-dasharray="5,2" d="M462.85,-248C462.85,-248 498.85,-248 498.85,-248 504.85,-248 510.85,-254 510.85,-260 510.85,-260 510.85,-278 510.85,-278 510.85,-284 504.85,-290 498.85,-290 498.85,-290 462.85,-290 462.85,-290 456.85,-290 450.85,-284 450.85,-278 450.85,-278 450.85,-260 450.85,-260 450.85,-254 456.85,-248 462.85,-248"/>
</g>
<g id="clust52" class="cluster">
<title>outer_cluster_String&#45;5764174078010485202</title>
</g>
<g id="clust53" class="cluster">
<title>cluster_String&#45;5764174078010485202</title>
<path fill="#fdb462" stroke="black" stroke-dasharray="5,2" d="M658.85,-169C658.85,-169 714.85,-169 714.85,-169 720.85,-169 726.85,-175 726.85,-181 726.85,-181 726.85,-199 726.85,-199 726.85,-205 720.85,-211 714.85,-211 714.85,-211 658.85,-211 658.85,-211 652.85,-211 646.85,-205 646.85,-199 646.85,-199 646.85,-181 646.85,-181 646.85,-175 652.85,-169 658.85,-169"/>
</g>
<g id="clust55" class="cluster">
<title>outer_cluster_String&#45;5063754874207616894</title>
</g>
<g id="clust56" class="cluster">
<title>cluster_String&#45;5063754874207616894</title>
<path fill="#fdb462" stroke="black" stroke-dasharray="5,2" d="M194.85,-90C194.85,-90 230.85,-90 230.85,-90 236.85,-90 242.85,-96 242.85,-102 242.85,-102 242.85,-120 242.85,-120 242.85,-126 236.85,-132 230.85,-132 230.85,-132 194.85,-132 194.85,-132 188.85,-132 182.85,-126 182.85,-120 182.85,-120 182.85,-102 182.85,-102 182.85,-96 188.85,-90 194.85,-90"/>
</g>
<g id="clust58" class="cluster">
<title>outer_cluster_String&#45;1857445047521536466</title>
</g>
<g id="clust59" class="cluster">
<title>cluster_String&#45;1857445047521536466</title>
<path fill="#fdb462" stroke="black" stroke-dasharray="5,2" d="M30.85,-11C30.85,-11 66.85,-11 66.85,-11 72.85,-11 78.85,-17 78.85,-23 78.85,-23 78.85,-41 78.85,-41 78.85,-47 72.85,-53 66.85,-53 66.85,-53 30.85,-53 30.85,-53 24.85,-53 18.85,-47 18.85,-41 18.85,-41 18.85,-23 18.85,-23 18.85,-17 24.85,-11 30.85,-11"/>
</g>
<g id="clust61" class="cluster">
<title>outer_cluster_String&#45;18036887277116069162</title>
</g>
<g id="clust62" class="cluster">
<title>cluster_String&#45;18036887277116069162</title>
<path fill="#fdb462" stroke="black" stroke-dasharray="5,2" d="M487.85,-11C487.85,-11 523.85,-11 523.85,-11 529.85,-11 535.85,-17 535.85,-23 535.85,-23 535.85,-41 535.85,-41 535.85,-47 529.85,-53 523.85,-53 523.85,-53 487.85,-53 487.85,-53 481.85,-53 475.85,-47 475.85,-41 475.85,-41 475.85,-23 475.85,-23 475.85,-17 481.85,-11 487.85,-11"/>
</g>
<g id="clust64" class="cluster">
<title>outer_cluster_0</title>
</g>
<g id="clust65" class="cluster">
<title>cluster_0</title>
<path fill="#b3de69" stroke="black" stroke-dasharray="5,2" d="M238.85,-248C238.85,-248 314.85,-248 314.85,-248 320.85,-248 326.85,-254 326.85,-260 326.85,-260 326.85,-278 326.85,-278 326.85,-284 320.85,-290 314.85,-290 314.85,-290 238.85,-290 238.85,-290 232.85,-290 226.85,-284 226.85,-278 226.85,-278 226.85,-260 226.85,-260 226.85,-254 232.85,-248 238.85,-248"/>
</g>
<g id="clust67" class="cluster">
<title>outer_cluster_13</title>
</g>
<g id="clust68" class="cluster">
<title>cluster_13</title>
<path fill="#b3de69" stroke="black" stroke-dasharray="5,2" d="M629.85,-90C629.85,-90 685.85,-90 685.85,-90 691.85,-90 697.85,-96 697.85,-102 697.85,-102 697.85,-120 697.85,-120 697.85,-126 691.85,-132 685.85,-132 685.85,-132 629.85,-132 629.85,-132 623.85,-132 617.85,-126 617.85,-120 617.85,-120 617.85,-102 617.85,-102 617.85,-96 623.85,-90 629.85,-90"/>
</g>
<g id="clust70" class="cluster">
<title>outer_cluster_8</title>
</g>
<g id="clust71" class="cluster">
<title>cluster_8</title>
<path fill="#b3de69" stroke="black" stroke-dasharray="5,2" d="M323.85,-327C323.85,-327 523.85,-327 523.85,-327 529.85,-327 535.85,-333 535.85,-339 535.85,-339 535.85,-357 535.85,-357 535.85,-363 529.85,-369 523.85,-369 523.85,-369 323.85,-369 323.85,-369 317.85,-369 311.85,-363 311.85,-357 311.85,-357 311.85,-339 311.85,-339 311.85,-333 317.85,-327 323.85,-327"/>
</g>
<g id="clust73" class="cluster">
<title>outer_cluster_4</title>
</g>
<g id="clust74" class="cluster">
<title>cluster_4</title>
<path fill="#b3de69" stroke="black" stroke-dasharray="5,2" d="M356.85,-248C356.85,-248 432.85,-248 432.85,-248 438.85,-248 444.85,-254 444.85,-260 444.85,-260 444.85,-278 444.85,-278 444.85,-284 438.85,-290 432.85,-290 432.85,-290 356.85,-290 356.85,-290 350.85,-290 344.85,-284 344.85,-278 344.85,-278 344.85,-260 344.85,-260 344.85,-254 350.85,-248 356.85,-248"/>
</g>
<g id="clust76" class="cluster">
<title>outer_cluster_15</title>
</g>
<g id="clust77" class="cluster">
<title>cluster_15</title>
<path fill="#b3de69" stroke="black" stroke-dasharray="5,2" d="M29.85,-248C29.85,-248 105.85,-248 105.85,-248 111.85,-248 117.85,-254 117.85,-260 117.85,-260 117.85,-278 117.85,-278 117.85,-284 111.85,-290 105.85,-290 105.85,-290 29.85,-290 29.85,-290 23.85,-290 17.85,-284 17.85,-278 17.85,-278 17.85,-260 17.85,-260 17.85,-254 23.85,-248 29.85,-248"/>
</g>
<g id="clust79" class="cluster">
<title>outer_cluster_9</title>
</g>
<g id="clust80" class="cluster">
<title>cluster_9</title>
<path fill="#fccde5" stroke="black" stroke-dasharray="5,2" d="M559.85,-90C559.85,-90 599.85,-90 599.85,-90 605.85,-90 611.85,-96 611.85,-102 611.85,-102 611.85,-120 611.85,-120 611.85,-126 605.85,-132 599.85,-132 599.85,-132 559.85,-132 559.85,-132 553.85,-132 547.85,-126 547.85,-120 547.85,-120 547.85,-102 547.85,-102 547.85,-96 553.85,-90 559.85,-90"/>
</g>
<!-- NamedAttr&#45;11000168563659998975&#45;&gt;String&#45;5764174078010485202 -->
<g id="edge1" class="edge">
<title>NamedAttr&#45;11000168563659998975:s&#45;&gt;String&#45;5764174078010485202</title>
<path fill="none" stroke="black" d="M561.35,-253C561.35,-213.24 606.26,-231.71 641.85,-214 641.98,-213.94 642.1,-213.88 642.22,-213.82"/>
<polygon fill="black" stroke="black" points="642.81,-215.48 646.5,-211.67 641.25,-212.35 642.81,-215.48"/>
</g>
<!-- NamedAttr&#45;11000168563659998975&#45;&gt;arith_fastmath&#45;15952540911656918845 -->
<g id="edge2" class="edge">
<title>NamedAttr&#45;11000168563659998975:s&#45;&gt;arith_fastmath&#45;15952540911656918845</title>
<path fill="none" stroke="black" d="M597.85,-253C597.85,-240 596.1,-225.58 594.24,-213.93"/>
<polygon fill="black" stroke="black" points="597.02,-216.56 593.71,-212.43 593.72,-217.72 597.02,-216.56"/>
</g>
<!-- arith_fastmath&#45;15952540911656918845&#45;&gt;reassoc&#45;0 -->
<g id="edge15" class="edge">
<title>arith_fastmath&#45;15952540911656918845:s&#45;&gt;reassoc&#45;0</title>
<path fill="none" stroke="black" d="M589.85,-174C589.85,-161.03 587.69,-146.72 585.38,-135.13"/>
<polygon fill="black" stroke="black" points="588.19,-137.36 584.67,-133.4 584.96,-138.69 588.19,-137.36"/>
</g>
<!-- NamedAttr&#45;7644979447572370513&#45;&gt;String&#45;5063754874207616894 -->
<g id="edge3" class="edge">
<title>NamedAttr&#45;7644979447572370513:s&#45;&gt;String&#45;5063754874207616894</title>
<path fill="none" stroke="black" d="M433.35,-174C433.35,-131.88 286.85,-150.92 247.85,-135 245.71,-134.12 243.55,-133.11 241.43,-132"/>
<polygon fill="black" stroke="black" points="247.41,-130.31 242.4,-132.01 247.38,-133.81 247.41,-130.31"/>
</g>
<!-- NamedAttr&#45;7644979447572370513&#45;&gt;FloatAttr&#45;9670903108499433938 -->
<g id="edge4" class="edge">
<title>NamedAttr&#45;7644979447572370513:s&#45;&gt;FloatAttr&#45;9670903108499433938</title>
<path fill="none" stroke="black" d="M469.85,-174C469.85,-161.02 468.32,-146.61 466.69,-134.95"/>
<polygon fill="black" stroke="black" points="469.37,-137.71 466.23,-133.45 466.02,-138.74 469.37,-137.71"/>
</g>
<!-- FloatAttr&#45;9670903108499433938&#45;&gt;f64&#45;4611686018427387904 -->
<g id="edge13" class="edge">
<title>FloatAttr&#45;9670903108499433938:s&#45;&gt;f64&#45;4611686018427387904</title>
<path fill="none" stroke="black" d="M447.85,-95C447.85,-82 446.1,-67.58 444.24,-55.93"/>
<polygon fill="black" stroke="black" points="447.02,-58.56 443.71,-54.43 443.72,-59.72 447.02,-58.56"/>
</g>
<!-- FloatAttr&#45;9670903108499433938&#45;&gt;String&#45;18036887277116069162 -->
<g id="edge14" class="edge">
<title>FloatAttr&#45;9670903108499433938:s&#45;&gt;String&#45;18036887277116069162</title>
<path fill="none" stroke="black" d="M477.35,-95C477.35,-80.95 483.47,-66.61 490.04,-55.27"/>
<polygon fill="black" stroke="black" points="488.95,-58.87 491.21,-54.08 486.45,-56.41 488.95,-58.87"/>
</g>
<!-- NamedAttr&#45;2604599495025912317&#45;&gt;String&#45;5063754874207616894 -->
<g id="edge5" class="edge">
<title>NamedAttr&#45;2604599495025912317:s&#45;&gt;String&#45;5063754874207616894</title>
<path fill="none" stroke="black" d="M257.35,-174C257.35,-158.58 248.16,-144.37 238.13,-133.45"/>
<polygon fill="black" stroke="black" points="242.25,-133.96 237.09,-132.8 240.4,-136.93 242.25,-133.96"/>
</g>
<!-- NamedAttr&#45;2604599495025912317&#45;&gt;FloatAttr&#45;8967184907069507595 -->
<g id="edge6" class="edge">
<title>NamedAttr&#45;2604599495025912317:s&#45;&gt;FloatAttr&#45;8967184907069507595</title>
<path fill="none" stroke="black" d="M293.85,-174C293.85,-160.99 291.48,-146.69 288.94,-135.1"/>
<polygon fill="black" stroke="black" points="291.82,-137.2 288.15,-133.38 288.64,-138.65 291.82,-137.2"/>
</g>
<!-- FloatAttr&#45;8967184907069507595&#45;&gt;f64&#45;16958304396863602688 -->
<g id="edge11" class="edge">
<title>FloatAttr&#45;8967184907069507595:s&#45;&gt;f64&#45;16958304396863602688</title>
<path fill="none" stroke="black" d="M267.85,-95C267.85,-82.22 267.85,-67.96 267.85,-56.35"/>
<polygon fill="black" stroke="black" points="269.6,-59.51 267.85,-54.51 266.1,-59.51 269.6,-59.51"/>
</g>
<!-- FloatAttr&#45;8967184907069507595&#45;&gt;String&#45;18036887277116069162 -->
<g id="edge12" class="edge">
<title>FloatAttr&#45;8967184907069507595:s&#45;&gt;String&#45;18036887277116069162</title>
<path fill="none" stroke="black" d="M297.35,-95C297.35,-55.48 434.35,-71.14 470.85,-56 471.12,-55.89 471.39,-55.78 471.65,-55.66"/>
<polygon fill="black" stroke="black" points="472.11,-57.38 475.87,-53.65 470.6,-54.23 472.11,-57.38"/>
</g>
<!-- NamedAttr&#45;16894338298647742648&#45;&gt;String&#45;5063754874207616894 -->
<g id="edge7" class="edge">
<title>NamedAttr&#45;16894338298647742648:s&#45;&gt;String&#45;5063754874207616894</title>
<path fill="none" stroke="black" d="M103.35,-174C103.35,-169.52 148.3,-145.33 180.6,-128.53"/>
<polygon fill="black" stroke="black" points="178.91,-132.16 181.68,-127.65 176.7,-129.45 178.91,-132.16"/>
</g>
<!-- NamedAttr&#45;16894338298647742648&#45;&gt;FloatAttr&#45;1857445047521536466 -->
<g id="edge8" class="edge">
<title>NamedAttr&#45;16894338298647742648:s&#45;&gt;FloatAttr&#45;1857445047521536466</title>
<path fill="none" stroke="black" d="M139.85,-174C139.85,-161.02 138.32,-146.61 136.69,-134.95"/>
<polygon fill="black" stroke="black" points="139.37,-137.71 136.23,-133.45 136.02,-138.74 139.37,-137.71"/>
</g>
<!-- FloatAttr&#45;1857445047521536466&#45;&gt;f64&#45;0 -->
<g id="edge9" class="edge">
<title>FloatAttr&#45;1857445047521536466:s&#45;&gt;f64&#45;0</title>
<path fill="none" stroke="black" d="M117.85,-95C117.85,-82.22 117.85,-67.96 117.85,-56.35"/>
<polygon fill="black" stroke="black" points="119.6,-59.51 117.85,-54.51 116.1,-59.51 119.6,-59.51"/>
</g>
<!-- FloatAttr&#45;1857445047521536466&#45;&gt;String&#45;1857445047521536466 -->
<g id="edge10" class="edge">
<title>FloatAttr&#45;1857445047521536466:s&#45;&gt;String&#45;1857445047521536466</title>
<path fill="none" stroke="black" d="M147.35,-95C147.35,-94 109.76,-70.57 81.02,-52.81"/>
<polygon fill="black" stroke="black" points="84.64,-54.04 79.91,-51.65 82.12,-56.47 84.64,-54.04"/>
</g>
<!-- arith_constant&#45;1502717139435099918&#45;&gt;NamedAttr&#45;2604599495025912317 -->
<g id="edge17" class="edge">
<title>arith_constant&#45;1502717139435099918:s&#45;&gt;NamedAttr&#45;2604599495025912317</title>
<path fill="none" stroke="black" d="M288.35,-253C288.35,-239.94 285.65,-225.63 282.76,-214.05"/>
<polygon fill="black" stroke="black" points="285.75,-215.94 281.86,-212.34 282.65,-217.58 285.75,-215.94"/>
</g>
<!-- arith_constant&#45;1502717139435099918&#45;&gt;String&#45;18036887277116069162 -->
<g id="edge18" class="edge">
<title>arith_constant&#45;1502717139435099918:s&#45;&gt;String&#45;18036887277116069162</title>
<path fill="none" stroke="black" d="M311.35,-253C311.35,-235.43 315.38,-231.4 317.85,-214 321.86,-185.87 313.82,-108.11 332.85,-87 374.95,-40.31 412.98,-80.55 470.85,-56 471.12,-55.89 471.38,-55.78 471.64,-55.66"/>
<polygon fill="black" stroke="black" points="472.04,-57.41 475.78,-53.66 470.52,-54.26 472.04,-57.41"/>
</g>
<!-- arith_constant&#45;1502717139435099918&#45;&gt;i64&#45;0 -->
<g id="edge16" class="edge">
<title>arith_constant&#45;1502717139435099918:s&#45;&gt;i64&#45;0</title>
<path fill="none" stroke="black" d="M253.85,-253C253.85,-236.49 242.8,-222.32 230.6,-211.71"/>
<polygon fill="black" stroke="black" points="234.43,-213.47 229.84,-210.83 231.78,-215.76 234.43,-213.47"/>
</g>
<!-- NamedOp&#45;1325353185391881644&#45;&gt;String&#45;18036887277116069162 -->
<g id="edge20" class="edge">
<title>NamedOp&#45;1325353185391881644:s&#45;&gt;String&#45;18036887277116069162</title>
<path fill="none" stroke="black" d="M675.35,-95C675.35,-80.61 588.13,-54.96 538.82,-41.61"/>
<polygon fill="black" stroke="black" points="542.4,-41.59 537.18,-40.7 540.7,-44.66 542.4,-41.59"/>
</g>
<!-- NamedOp&#45;1325353185391881644&#45;&gt;i64&#45;17615343019692007359 -->
<g id="edge19" class="edge">
<title>NamedOp&#45;1325353185391881644:s&#45;&gt;i64&#45;17615343019692007359</title>
<path fill="none" stroke="black" d="M639.85,-95C639.85,-82.22 639.85,-67.96 639.85,-56.35"/>
<polygon fill="black" stroke="black" points="641.6,-59.51 639.85,-54.51 638.1,-59.51 641.6,-59.51"/>
</g>
<!-- arith_addf&#45;12577652034720723020&#45;&gt;NamedAttr&#45;11000168563659998975 -->
<g id="edge24" class="edge">
<title>arith_addf&#45;12577652034720723020:s&#45;&gt;NamedAttr&#45;11000168563659998975</title>
<path fill="none" stroke="black" d="M376.85,-332C376.85,-325.59 382.97,-326.54 388.85,-324 445.39,-299.64 465.18,-311.65 523.85,-293 528.06,-291.66 532.38,-290.15 536.68,-288.55"/>
<polygon fill="black" stroke="black" points="534.04,-292.05 537.54,-288.07 532.32,-289 534.04,-292.05"/>
</g>
<!-- arith_addf&#45;12577652034720723020&#45;&gt;String&#45;18036887277116069162 -->
<g id="edge25" class="edge">
<title>arith_addf&#45;12577652034720723020:s&#45;&gt;String&#45;18036887277116069162</title>
<path fill="none" stroke="black" d="M381.35,-332C381.35,-327.13 384.65,-326.47 388.85,-324 437.43,-295.39 477.2,-337.47 511.85,-293 540.25,-256.56 519.42,-112.27 509.91,-55.82"/>
<polygon fill="black" stroke="black" points="512.78,-58.5 509.4,-54.42 509.49,-59.72 512.78,-58.5"/>
</g>
<!-- arith_addf&#45;12577652034720723020&#45;&gt;i64&#45;11743562013128004906 -->
<g id="edge21" class="edge">
<title>arith_addf&#45;12577652034720723020:s&#45;&gt;i64&#45;11743562013128004906</title>
<path fill="none" stroke="black" d="M332.85,-332C332.85,-281.38 271.09,-315.72 225.85,-293 224.04,-292.09 222.2,-291.1 220.36,-290.06"/>
<polygon fill="black" stroke="black" points="226.59,-289.11 221.4,-290.2 226.13,-292.58 226.59,-289.11"/>
</g>
<!-- arith_addf&#45;12577652034720723020&#45;&gt;arith_constant&#45;1502717139435099918 -->
<g id="edge23" class="edge">
<title>arith_addf&#45;12577652034720723020:s&#45;&gt;arith_constant&#45;1502717139435099918</title>
<path fill="none" stroke="black" d="M370.85,-332C370.85,-319.96 349.08,-305.14 326.49,-293.02"/>
<polygon fill="black" stroke="black" points="327.32,-291.48 322.08,-290.7 325.69,-294.58 327.32,-291.48"/>
</g>
<!-- arith_addf&#45;12577652034720723020&#45;&gt;arith_constant&#45;13233112731155930404 -->
<g id="edge22" class="edge">
<title>arith_addf&#45;12577652034720723020:s&#45;&gt;arith_constant&#45;13233112731155930404</title>
<path fill="none" stroke="black" d="M358.35,-332C358.35,-317.27 366.1,-302.95 374.46,-291.79"/>
<polygon fill="black" stroke="black" points="372.85,-295.79 375.22,-291.05 370.41,-293.27 372.85,-295.79"/>
</g>
<!-- arith_constant&#45;13233112731155930404&#45;&gt;NamedAttr&#45;7644979447572370513 -->
<g id="edge37" class="edge">
<title>arith_constant&#45;13233112731155930404:s&#45;&gt;NamedAttr&#45;7644979447572370513</title>
<path fill="none" stroke="black" d="M406.35,-253C406.35,-237.46 415.76,-223.24 426.01,-212.35"/>
<polygon fill="black" stroke="black" points="423.91,-216.75 426.34,-212.04 421.5,-214.2 423.91,-216.75"/>
</g>
<!-- arith_constant&#45;13233112731155930404&#45;&gt;String&#45;18036887277116069162 -->
<g id="edge38" class="edge">
<title>arith_constant&#45;13233112731155930404:s&#45;&gt;String&#45;18036887277116069162</title>
<path fill="none" stroke="black" d="M429.35,-253C429.35,-219.5 476.44,-242.62 493.85,-214 509.59,-188.14 508.46,-99.07 506.92,-56.29"/>
<polygon fill="black" stroke="black" points="508.91,-59.36 506.79,-54.51 505.42,-59.63 508.91,-59.36"/>
</g>
<!-- arith_constant&#45;13233112731155930404&#45;&gt;i64&#45;5871781006564002453 -->
<g id="edge36" class="edge">
<title>arith_constant&#45;13233112731155930404:s&#45;&gt;i64&#45;5871781006564002453</title>
<path fill="none" stroke="black" d="M371.85,-253C371.85,-240.09 372.51,-225.68 373.21,-214.01"/>
<polygon fill="black" stroke="black" points="374.5,-217.68 373.41,-212.5 371.03,-217.24 374.5,-217.68"/>
</g>
<!-- arith_addf&#45;1653007366095736369&#45;&gt;NamedAttr&#45;11000168563659998975 -->
<g id="edge29" class="edge">
<title>arith_addf&#45;1653007366095736369:s&#45;&gt;NamedAttr&#45;11000168563659998975</title>
<path fill="none" stroke="black" d="M524.85,-332C524.85,-315.61 535.74,-301.54 547.82,-290.96"/>
<polygon fill="black" stroke="black" points="544.69,-294.54 548.33,-290.69 543.09,-291.44 544.69,-294.54"/>
</g>
<!-- arith_addf&#45;1653007366095736369&#45;&gt;String&#45;18036887277116069162 -->
<g id="edge30" class="edge">
<title>arith_addf&#45;1653007366095736369:s&#45;&gt;String&#45;18036887277116069162</title>
<path fill="none" stroke="black" d="M529.35,-332C529.35,-223.07 540.83,-194.43 522.85,-87 521.1,-76.5 517.79,-65.23 514.55,-55.7"/>
<polygon fill="black" stroke="black" points="517.52,-58.37 514.02,-54.4 514.28,-59.69 517.52,-58.37"/>
</g>
<!-- arith_addf&#45;1653007366095736369&#45;&gt;i64&#45;12574963067145549163 -->
<g id="edge26" class="edge">
<title>arith_addf&#45;1653007366095736369:s&#45;&gt;i64&#45;12574963067145549163</title>
<path fill="none" stroke="black" d="M480.85,-332C480.85,-319.22 480.85,-304.96 480.85,-293.35"/>
<polygon fill="black" stroke="black" points="482.6,-296.51 480.85,-291.51 479.1,-296.51 482.6,-296.51"/>
</g>
<!-- arith_addf&#45;1653007366095736369&#45;&gt;arith_constant&#45;1502717139435099918 -->
<g id="edge27" class="edge">
<title>arith_addf&#45;1653007366095736369:s&#45;&gt;arith_constant&#45;1502717139435099918</title>
<path fill="none" stroke="black" d="M506.35,-332C506.35,-294.86 379.51,-303.37 343.85,-293 339.2,-291.65 334.4,-290.17 329.6,-288.63"/>
<polygon fill="black" stroke="black" points="333.58,-288.18 328.28,-288.16 332.41,-291.48 333.58,-288.18"/>
</g>
<!-- arith_addf&#45;1653007366095736369&#45;&gt;arith_constant&#45;13233112731155930404 -->
<g id="edge28" class="edge">
<title>arith_addf&#45;1653007366095736369:s&#45;&gt;arith_constant&#45;13233112731155930404</title>
<path fill="none" stroke="black" d="M518.85,-332C518.85,-327.67 479.59,-308.58 445.25,-292.71"/>
<polygon fill="black" stroke="black" points="446,-291.13 440.73,-290.63 444.54,-294.31 446,-291.13"/>
</g>
<!-- arith_addf&#45;12177527415320149565&#45;&gt;NamedAttr&#45;11000168563659998975 -->
<g id="edge34" class="edge">
<title>arith_addf&#45;12177527415320149565:s&#45;&gt;NamedAttr&#45;11000168563659998975</title>
<path fill="none" stroke="black" d="M450.85,-332C450.85,-327.14 499.14,-305.02 536.63,-288.58"/>
<polygon fill="black" stroke="black" points="534.56,-292.19 537.62,-287.87 532.53,-289.34 534.56,-292.19"/>
</g>
<!-- arith_addf&#45;12177527415320149565&#45;&gt;String&#45;18036887277116069162 -->
<g id="edge35" class="edge">
<title>arith_addf&#45;12177527415320149565:s&#45;&gt;String&#45;18036887277116069162</title>
<path fill="none" stroke="black" d="M455.35,-332C455.35,-279.5 374.24,-335.81 343.85,-293 327.52,-269.98 332.66,-191.91 343.85,-166 356.8,-136.05 431.1,-82.8 474.45,-53.58"/>
<polygon fill="black" stroke="black" points="472.9,-58.03 474.86,-53.11 470.26,-55.73 472.9,-58.03"/>
</g>
<!-- arith_addf&#45;12177527415320149565&#45;&gt;i64&#45;12574963067145549163 -->
<g id="edge31" class="edge">
<title>arith_addf&#45;12177527415320149565:s&#45;&gt;i64&#45;12574963067145549163</title>
<path fill="none" stroke="black" d="M406.85,-332C406.85,-325.82 431.42,-306.18 452.24,-290.64"/>
<polygon fill="black" stroke="black" points="448.52,-294.62 452.11,-290.71 446.87,-291.53 448.52,-294.62"/>
</g>
<!-- arith_addf&#45;12177527415320149565&#45;&gt;arith_constant&#45;1502717139435099918 -->
<g id="edge33" class="edge">
<title>arith_addf&#45;12177527415320149565:s&#45;&gt;arith_constant&#45;1502717139435099918</title>
<path fill="none" stroke="black" d="M444.85,-332C444.85,-278.87 381.5,-311.93 331.85,-293 331.22,-292.76 330.59,-292.52 329.95,-292.27"/>
<polygon fill="black" stroke="black" points="330.84,-290.74 325.54,-290.55 329.56,-294 330.84,-290.74"/>
</g>
<!-- arith_addf&#45;12177527415320149565&#45;&gt;arith_constant&#45;13233112731155930404 -->
<g id="edge32" class="edge">
<title>arith_addf&#45;12177527415320149565:s&#45;&gt;arith_constant&#45;13233112731155930404</title>
<path fill="none" stroke="black" d="M432.35,-332C432.35,-317.16 424.4,-302.84 415.81,-291.7"/>
<polygon fill="black" stroke="black" points="419.92,-292.95 414.99,-290.99 417.62,-295.59 419.92,-292.95"/>
</g>
<!-- arith_constant&#45;957003200669981747&#45;&gt;NamedAttr&#45;16894338298647742648 -->
<g id="edge40" class="edge">
<title>arith_constant&#45;957003200669981747:s&#45;&gt;NamedAttr&#45;16894338298647742648</title>
<path fill="none" stroke="black" d="M79.35,-253C79.35,-237.7 88.27,-223.41 97.93,-212.41"/>
<polygon fill="black" stroke="black" points="95.6,-216.02 98.83,-211.83 93.69,-213.09 95.6,-216.02"/>
</g>
<!-- arith_constant&#45;957003200669981747&#45;&gt;String&#45;1857445047521536466 -->
<g id="edge41" class="edge">
<title>arith_constant&#45;957003200669981747:s&#45;&gt;String&#45;1857445047521536466</title>
<path fill="none" stroke="black" d="M102.35,-253C102.35,-210.02 37.33,-250 13.85,-214 -18.59,-164.25 14.4,-91.52 35,-55.26"/>
<polygon fill="black" stroke="black" points="33.92,-58.9 36.14,-54.09 31.4,-56.47 33.92,-58.9"/>
</g>
<!-- arith_constant&#45;957003200669981747&#45;&gt;i64&#45;5040379952546458196 -->
<g id="edge39" class="edge">
<title>arith_constant&#45;957003200669981747:s&#45;&gt;i64&#45;5040379952546458196</title>
<path fill="none" stroke="black" d="M44.85,-253C44.85,-240.22 44.85,-225.96 44.85,-214.35"/>
<polygon fill="black" stroke="black" points="46.6,-217.51 44.85,-212.51 43.1,-217.51 46.6,-217.51"/>
</g>
<!-- f64&#45;0 -->
<g id="node1" class="node">
<title>f64&#45;0</title>
<g id="a_node1"><a xlink:title="f64&#45;0: f64&#45;0">
<path fill="white" stroke="none" d="M112.52,-16C112.52,-16 123.19,-16 123.19,-16 128.52,-16 133.85,-21.33 133.85,-26.67 133.85,-26.67 133.85,-37.33 133.85,-37.33 133.85,-42.67 128.52,-48 123.19,-48 123.19,-48 112.52,-48 112.52,-48 107.19,-48 101.85,-42.67 101.85,-37.33 101.85,-37.33 101.85,-26.67 101.85,-26.67 101.85,-21.33 107.19,-16 112.52,-16"/>
<text text-anchor="start" x="108.48" y="-26.2" font-family="Helvetica,sans-Serif" font-size="14.00">0.0</text>
<path fill="none" stroke="black" d="M112.52,-16C112.52,-16 123.19,-16 123.19,-16 128.52,-16 133.85,-21.33 133.85,-26.67 133.85,-26.67 133.85,-37.33 133.85,-37.33 133.85,-42.67 128.52,-48 123.19,-48 123.19,-48 112.52,-48 112.52,-48 107.19,-48 101.85,-42.67 101.85,-37.33 101.85,-37.33 101.85,-26.67 101.85,-26.67 101.85,-21.33 107.19,-16 112.52,-16"/>
</a>
</g>
</g>
<!-- f64&#45;16958304396863602688 -->
<g id="node2" class="node">
<title>f64&#45;16958304396863602688</title>
<g id="a_node2"><a xlink:title="f64&#45;16958304396863602688: f64&#45;16958304396863602688">
<path fill="white" stroke="none" d="M262.52,-16C262.52,-16 273.19,-16 273.19,-16 278.52,-16 283.85,-21.33 283.85,-26.67 283.85,-26.67 283.85,-37.33 283.85,-37.33 283.85,-42.67 278.52,-48 273.19,-48 273.19,-48 262.52,-48 262.52,-48 257.19,-48 251.85,-42.67 251.85,-37.33 251.85,-37.33 251.85,-26.67 251.85,-26.67 251.85,-21.33 257.19,-16 262.52,-16"/>
<text text-anchor="start" x="258.48" y="-26.2" font-family="Helvetica,sans-Serif" font-size="14.00">1.5</text>
<path fill="none" stroke="black" d="M262.52,-16C262.52,-16 273.19,-16 273.19,-16 278.52,-16 283.85,-21.33 283.85,-26.67 283.85,-26.67 283.85,-37.33 283.85,-37.33 283.85,-42.67 278.52,-48 273.19,-48 273.19,-48 262.52,-48 262.52,-48 257.19,-48 251.85,-42.67 251.85,-37.33 251.85,-37.33 251.85,-26.67 251.85,-26.67 251.85,-21.33 257.19,-16 262.52,-16"/>
</a>
</g>
</g>
<!-- f64&#45;4611686018427387904 -->
<g id="node3" class="node">
<title>f64&#45;4611686018427387904</title>
<g id="a_node3"><a xlink:title="f64&#45;4611686018427387904: f64&#45;4611686018427387904">
<path fill="white" stroke="none" d="M434.52,-16C434.52,-16 445.19,-16 445.19,-16 450.52,-16 455.85,-21.33 455.85,-26.67 455.85,-26.67 455.85,-37.33 455.85,-37.33 455.85,-42.67 450.52,-48 445.19,-48 445.19,-48 434.52,-48 434.52,-48 429.19,-48 423.85,-42.67 423.85,-37.33 423.85,-37.33 423.85,-26.67 423.85,-26.67 423.85,-21.33 429.19,-16 434.52,-16"/>
<text text-anchor="start" x="430.48" y="-26.2" font-family="Helvetica,sans-Serif" font-size="14.00">2.0</text>
<path fill="none" stroke="black" d="M434.52,-16C434.52,-16 445.19,-16 445.19,-16 450.52,-16 455.85,-21.33 455.85,-26.67 455.85,-26.67 455.85,-37.33 455.85,-37.33 455.85,-42.67 450.52,-48 445.19,-48 445.19,-48 434.52,-48 434.52,-48 429.19,-48 423.85,-42.67 423.85,-37.33 423.85,-37.33 423.85,-26.67 423.85,-26.67 423.85,-21.33 429.19,-16 434.52,-16"/>
</a>
</g>
</g>
<!-- NamedAttr&#45;11000168563659998975 -->
<g id="node4" class="node">
<title>NamedAttr&#45;11000168563659998975</title>
<g id="a_node4"><a xlink:title="11: NamedAttr&#45;11000168563659998975">
<path fill="white" stroke="none" d="M553.02,-253C553.02,-253 606.69,-253 606.69,-253 612.02,-253 617.35,-258.33 617.35,-263.67 617.35,-263.67 617.35,-274.33 617.35,-274.33 617.35,-279.67 612.02,-285 606.69,-285 606.69,-285 553.02,-285 553.02,-285 547.69,-285 542.35,-279.67 542.35,-274.33 542.35,-274.33 542.35,-263.67 542.35,-263.67 542.35,-258.33 547.69,-253 553.02,-253"/>
<text text-anchor="start" x="547.23" y="-263.2" font-family="Helvetica,sans-Serif" font-size="14.00">NamedAttr</text>
<path fill="none" stroke="black" d="M553.02,-253C553.02,-253 606.69,-253 606.69,-253 612.02,-253 617.35,-258.33 617.35,-263.67 617.35,-263.67 617.35,-274.33 617.35,-274.33 617.35,-279.67 612.02,-285 606.69,-285 606.69,-285 553.02,-285 553.02,-285 547.69,-285 542.35,-279.67 542.35,-274.33 542.35,-274.33 542.35,-263.67 542.35,-263.67 542.35,-258.33 547.69,-253 553.02,-253"/>
</a>
</g>
</g>
<!-- String&#45;5764174078010485202 -->
<g id="node5" class="node">
<title>String&#45;5764174078010485202</title>
<g id="a_node5"><a xlink:title="String&#45;5764174078010485202: String&#45;5764174078010485202">
<path fill="white" stroke="none" d="M661.02,-174C661.02,-174 712.69,-174 712.69,-174 718.02,-174 723.35,-179.33 723.35,-184.67 723.35,-184.67 723.35,-195.33 723.35,-195.33 723.35,-200.67 718.02,-206 712.69,-206 712.69,-206 661.02,-206 661.02,-206 655.69,-206 650.35,-200.67 650.35,-195.33 650.35,-195.33 650.35,-184.67 650.35,-184.67 650.35,-179.33 655.69,-174 661.02,-174"/>
<text text-anchor="start" x="655.35" y="-184.2" font-family="Helvetica,sans-Serif" font-size="14.00">&quot;fastmath&quot;</text>
<path fill="none" stroke="black" d="M661.02,-174C661.02,-174 712.69,-174 712.69,-174 718.02,-174 723.35,-179.33 723.35,-184.67 723.35,-184.67 723.35,-195.33 723.35,-195.33 723.35,-200.67 718.02,-206 712.69,-206 712.69,-206 661.02,-206 661.02,-206 655.69,-206 650.35,-200.67 650.35,-195.33 650.35,-195.33 650.35,-184.67 650.35,-184.67 650.35,-179.33 655.69,-174 661.02,-174"/>
</a>
</g>
</g>
<!-- arith_fastmath&#45;15952540911656918845 -->
<g id="node6" class="node">
<title>arith_fastmath&#45;15952540911656918845</title>
<g id="a_node6"><a xlink:title="10: arith_fastmath&#45;15952540911656918845">
<path fill="white" stroke="none" d="M552.4,-174C552.4,-174 627.31,-174 627.31,-174 632.65,-174 637.98,-179.33 637.98,-184.67 637.98,-184.67 637.98,-195.33 637.98,-195.33 637.98,-200.67 632.65,-206 627.31,-206 627.31,-206 552.4,-206 552.4,-206 547.06,-206 541.73,-200.67 541.73,-195.33 541.73,-195.33 541.73,-184.67 541.73,-184.67 541.73,-179.33 547.06,-174 552.4,-174"/>
<text text-anchor="start" x="546.73" y="-184.2" font-family="Helvetica,sans-Serif" font-size="14.00">arith_fastmath</text>
<path fill="none" stroke="black" d="M552.4,-174C552.4,-174 627.31,-174 627.31,-174 632.65,-174 637.98,-179.33 637.98,-184.67 637.98,-184.67 637.98,-195.33 637.98,-195.33 637.98,-200.67 632.65,-206 627.31,-206 627.31,-206 552.4,-206 552.4,-206 547.06,-206 541.73,-200.67 541.73,-195.33 541.73,-195.33 541.73,-184.67 541.73,-184.67 541.73,-179.33 547.06,-174 552.4,-174"/>
</a>
</g>
</g>
<!-- NamedAttr&#45;7644979447572370513 -->
<g id="node7" class="node">
<title>NamedAttr&#45;7644979447572370513</title>
<g id="a_node7"><a xlink:title="6: NamedAttr&#45;7644979447572370513">
<path fill="white" stroke="none" d="M425.02,-174C425.02,-174 478.69,-174 478.69,-174 484.02,-174 489.35,-179.33 489.35,-184.67 489.35,-184.67 489.35,-195.33 489.35,-195.33 489.35,-200.67 484.02,-206 478.69,-206 478.69,-206 425.02,-206 425.02,-206 419.69,-206 414.35,-200.67 414.35,-195.33 414.35,-195.33 414.35,-184.67 414.35,-184.67 414.35,-179.33 419.69,-174 425.02,-174"/>
<text text-anchor="start" x="419.23" y="-184.2" font-family="Helvetica,sans-Serif" font-size="14.00">NamedAttr</text>
<path fill="none" stroke="black" d="M425.02,-174C425.02,-174 478.69,-174 478.69,-174 484.02,-174 489.35,-179.33 489.35,-184.67 489.35,-184.67 489.35,-195.33 489.35,-195.33 489.35,-200.67 484.02,-206 478.69,-206 478.69,-206 425.02,-206 425.02,-206 419.69,-206 414.35,-200.67 414.35,-195.33 414.35,-195.33 414.35,-184.67 414.35,-184.67 414.35,-179.33 419.69,-174 425.02,-174"/>
</a>
</g>
</g>
<!-- String&#45;5063754874207616894 -->
<g id="node8" class="node">
<title>String&#45;5063754874207616894</title>
<g id="a_node8"><a xlink:title="String&#45;5063754874207616894: String&#45;5063754874207616894">
<path fill="white" stroke="none" d="M197.15,-95C197.15,-95 228.56,-95 228.56,-95 233.9,-95 239.23,-100.33 239.23,-105.67 239.23,-105.67 239.23,-116.33 239.23,-116.33 239.23,-121.67 233.9,-127 228.56,-127 228.56,-127 197.15,-127 197.15,-127 191.81,-127 186.48,-121.67 186.48,-116.33 186.48,-116.33 186.48,-105.67 186.48,-105.67 186.48,-100.33 191.81,-95 197.15,-95"/>
<text text-anchor="start" x="191.48" y="-105.2" font-family="Helvetica,sans-Serif" font-size="14.00">&quot;value&quot;</text>
<path fill="none" stroke="black" d="M197.15,-95C197.15,-95 228.56,-95 228.56,-95 233.9,-95 239.23,-100.33 239.23,-105.67 239.23,-105.67 239.23,-116.33 239.23,-116.33 239.23,-121.67 233.9,-127 228.56,-127 228.56,-127 197.15,-127 197.15,-127 191.81,-127 186.48,-121.67 186.48,-116.33 186.48,-116.33 186.48,-105.67 186.48,-105.67 186.48,-100.33 191.81,-95 197.15,-95"/>
</a>
</g>
</g>
<!-- FloatAttr&#45;9670903108499433938 -->
<g id="node9" class="node">
<title>FloatAttr&#45;9670903108499433938</title>
<g id="a_node9"><a xlink:title="5: FloatAttr&#45;9670903108499433938">
<path fill="white" stroke="none" d="M443.02,-95C443.02,-95 482.69,-95 482.69,-95 488.02,-95 493.35,-100.33 493.35,-105.67 493.35,-105.67 493.35,-116.33 493.35,-116.33 493.35,-121.67 488.02,-127 482.69,-127 482.69,-127 443.02,-127 443.02,-127 437.69,-127 432.35,-121.67 432.35,-116.33 432.35,-116.33 432.35,-105.67 432.35,-105.67 432.35,-100.33 437.69,-95 443.02,-95"/>
<text text-anchor="start" x="437.35" y="-105.2" font-family="Helvetica,sans-Serif" font-size="14.00">FloatAttr</text>
<path fill="none" stroke="black" d="M443.02,-95C443.02,-95 482.69,-95 482.69,-95 488.02,-95 493.35,-100.33 493.35,-105.67 493.35,-105.67 493.35,-116.33 493.35,-116.33 493.35,-121.67 488.02,-127 482.69,-127 482.69,-127 443.02,-127 443.02,-127 437.69,-127 432.35,-121.67 432.35,-116.33 432.35,-116.33 432.35,-105.67 432.35,-105.67 432.35,-100.33 437.69,-95 443.02,-95"/>
</a>
</g>
</g>
<!-- NamedAttr&#45;2604599495025912317 -->
<g id="node10" class="node">
<title>NamedAttr&#45;2604599495025912317</title>
<g id="a_node10"><a xlink:title="2: NamedAttr&#45;2604599495025912317">
<path fill="white" stroke="none" d="M249.02,-174C249.02,-174 302.69,-174 302.69,-174 308.02,-174 313.35,-179.33 313.35,-184.67 313.35,-184.67 313.35,-195.33 313.35,-195.33 313.35,-200.67 308.02,-206 302.69,-206 302.69,-206 249.02,-206 249.02,-206 243.69,-206 238.35,-200.67 238.35,-195.33 238.35,-195.33 238.35,-184.67 238.35,-184.67 238.35,-179.33 243.69,-174 249.02,-174"/>
<text text-anchor="start" x="243.23" y="-184.2" font-family="Helvetica,sans-Serif" font-size="14.00">NamedAttr</text>
<path fill="none" stroke="black" d="M249.02,-174C249.02,-174 302.69,-174 302.69,-174 308.02,-174 313.35,-179.33 313.35,-184.67 313.35,-184.67 313.35,-195.33 313.35,-195.33 313.35,-200.67 308.02,-206 302.69,-206 302.69,-206 249.02,-206 249.02,-206 243.69,-206 238.35,-200.67 238.35,-195.33 238.35,-195.33 238.35,-184.67 238.35,-184.67 238.35,-179.33 243.69,-174 249.02,-174"/>
</a>
</g>
</g>
<!-- FloatAttr&#45;8967184907069507595 -->
<g id="node11" class="node">
<title>FloatAttr&#45;8967184907069507595</title>
<g id="a_node11"><a xlink:title="1: FloatAttr&#45;8967184907069507595">
<path fill="white" stroke="none" d="M263.02,-95C263.02,-95 302.69,-95 302.69,-95 308.02,-95 313.35,-100.33 313.35,-105.67 313.35,-105.67 313.35,-116.33 313.35,-116.33 313.35,-121.67 308.02,-127 302.69,-127 302.69,-127 263.02,-127 263.02,-127 257.69,-127 252.35,-121.67 252.35,-116.33 252.35,-116.33 252.35,-105.67 252.35,-105.67 252.35,-100.33 257.69,-95 263.02,-95"/>
<text text-anchor="start" x="257.35" y="-105.2" font-family="Helvetica,sans-Serif" font-size="14.00">FloatAttr</text>
<path fill="none" stroke="black" d="M263.02,-95C263.02,-95 302.69,-95 302.69,-95 308.02,-95 313.35,-100.33 313.35,-105.67 313.35,-105.67 313.35,-116.33 313.35,-116.33 313.35,-121.67 308.02,-127 302.69,-127 302.69,-127 263.02,-127 263.02,-127 257.69,-127 252.35,-121.67 252.35,-116.33 252.35,-116.33 252.35,-105.67 252.35,-105.67 252.35,-100.33 257.69,-95 263.02,-95"/>
</a>
</g>
</g>
<!-- NamedAttr&#45;16894338298647742648 -->
<g id="node12" class="node">
<title>NamedAttr&#45;16894338298647742648</title>
<g id="a_node12"><a xlink:title="17: NamedAttr&#45;16894338298647742648">
<path fill="white" stroke="none" d="M95.02,-174C95.02,-174 148.69,-174 148.69,-174 154.02,-174 159.35,-179.33 159.35,-184.67 159.35,-184.67 159.35,-195.33 159.35,-195.33 159.35,-200.67 154.02,-206 148.69,-206 148.69,-206 95.02,-206 95.02,-206 89.69,-206 84.35,-200.67 84.35,-195.33 84.35,-195.33 84.35,-184.67 84.35,-184.67 84.35,-179.33 89.69,-174 95.02,-174"/>
<text text-anchor="start" x="89.23" y="-184.2" font-family="Helvetica,sans-Serif" font-size="14.00">NamedAttr</text>
<path fill="none" stroke="black" d="M95.02,-174C95.02,-174 148.69,-174 148.69,-174 154.02,-174 159.35,-179.33 159.35,-184.67 159.35,-184.67 159.35,-195.33 159.35,-195.33 159.35,-200.67 154.02,-206 148.69,-206 148.69,-206 95.02,-206 95.02,-206 89.69,-206 84.35,-200.67 84.35,-195.33 84.35,-195.33 84.35,-184.67 84.35,-184.67 84.35,-179.33 89.69,-174 95.02,-174"/>
</a>
</g>
</g>
<!-- FloatAttr&#45;1857445047521536466 -->
<g id="node13" class="node">
<title>FloatAttr&#45;1857445047521536466</title>
<g id="a_node13"><a xlink:title="16: FloatAttr&#45;1857445047521536466">
<path fill="white" stroke="none" d="M113.02,-95C113.02,-95 152.69,-95 152.69,-95 158.02,-95 163.35,-100.33 163.35,-105.67 163.35,-105.67 163.35,-116.33 163.35,-116.33 163.35,-121.67 158.02,-127 152.69,-127 152.69,-127 113.02,-127 113.02,-127 107.69,-127 102.35,-121.67 102.35,-116.33 102.35,-116.33 102.35,-105.67 102.35,-105.67 102.35,-100.33 107.69,-95 113.02,-95"/>
<text text-anchor="start" x="107.35" y="-105.2" font-family="Helvetica,sans-Serif" font-size="14.00">FloatAttr</text>
<path fill="none" stroke="black" d="M113.02,-95C113.02,-95 152.69,-95 152.69,-95 158.02,-95 163.35,-100.33 163.35,-105.67 163.35,-105.67 163.35,-116.33 163.35,-116.33 163.35,-121.67 158.02,-127 152.69,-127 152.69,-127 113.02,-127 113.02,-127 107.69,-127 102.35,-121.67 102.35,-116.33 102.35,-116.33 102.35,-105.67 102.35,-105.67 102.35,-100.33 107.69,-95 113.02,-95"/>
</a>
</g>
</g>
<!-- String&#45;1857445047521536466 -->
<g id="node14" class="node">
<title>String&#45;1857445047521536466</title>
<g id="a_node14"><a xlink:title="String&#45;1857445047521536466: String&#45;1857445047521536466">
<path fill="white" stroke="none" d="M39.9,-16C39.9,-16 57.81,-16 57.81,-16 63.15,-16 68.48,-21.33 68.48,-26.67 68.48,-26.67 68.48,-37.33 68.48,-37.33 68.48,-42.67 63.15,-48 57.81,-48 57.81,-48 39.9,-48 39.9,-48 34.56,-48 29.23,-42.67 29.23,-37.33 29.23,-37.33 29.23,-26.67 29.23,-26.67 29.23,-21.33 34.56,-16 39.9,-16"/>
<text text-anchor="start" x="34.23" y="-26.2" font-family="Helvetica,sans-Serif" font-size="14.00">&quot;f32&quot;</text>
<path fill="none" stroke="black" d="M39.9,-16C39.9,-16 57.81,-16 57.81,-16 63.15,-16 68.48,-21.33 68.48,-26.67 68.48,-26.67 68.48,-37.33 68.48,-37.33 68.48,-42.67 63.15,-48 57.81,-48 57.81,-48 39.9,-48 39.9,-48 34.56,-48 29.23,-42.67 29.23,-37.33 29.23,-37.33 29.23,-26.67 29.23,-26.67 29.23,-21.33 34.56,-16 39.9,-16"/>
</a>
</g>
</g>
<!-- String&#45;18036887277116069162 -->
<g id="node15" class="node">
<title>String&#45;18036887277116069162</title>
<g id="a_node15"><a xlink:title="String&#45;18036887277116069162: String&#45;18036887277116069162">
<path fill="white" stroke="none" d="M496.9,-16C496.9,-16 514.81,-16 514.81,-16 520.15,-16 525.48,-21.33 525.48,-26.67 525.48,-26.67 525.48,-37.33 525.48,-37.33 525.48,-42.67 520.15,-48 514.81,-48 514.81,-48 496.9,-48 496.9,-48 491.56,-48 486.23,-42.67 486.23,-37.33 486.23,-37.33 486.23,-26.67 486.23,-26.67 486.23,-21.33 491.56,-16 496.9,-16"/>
<text text-anchor="start" x="491.23" y="-26.2" font-family="Helvetica,sans-Serif" font-size="14.00">&quot;f64&quot;</text>
<path fill="none" stroke="black" d="M496.9,-16C496.9,-16 514.81,-16 514.81,-16 520.15,-16 525.48,-21.33 525.48,-26.67 525.48,-26.67 525.48,-37.33 525.48,-37.33 525.48,-42.67 520.15,-48 514.81,-48 514.81,-48 496.9,-48 496.9,-48 491.56,-48 486.23,-42.67 486.23,-37.33 486.23,-37.33 486.23,-26.67 486.23,-26.67 486.23,-21.33 491.56,-16 496.9,-16"/>
</a>
</g>
</g>
<!-- reassoc&#45;0 -->
<g id="node16" class="node">
<title>reassoc&#45;0</title>
<g id="a_node16"><a xlink:title="9: reassoc&#45;0">
<path fill="white" stroke="none" d="M561.9,-95C561.9,-95 597.81,-95 597.81,-95 603.15,-95 608.48,-100.33 608.48,-105.67 608.48,-105.67 608.48,-116.33 608.48,-116.33 608.48,-121.67 603.15,-127 597.81,-127 597.81,-127 561.9,-127 561.9,-127 556.56,-127 551.23,-121.67 551.23,-116.33 551.23,-116.33 551.23,-105.67 551.23,-105.67 551.23,-100.33 556.56,-95 561.9,-95"/>
<text text-anchor="start" x="556.23" y="-105.2" font-family="Helvetica,sans-Serif" font-size="14.00">reassoc</text>
<path fill="none" stroke="black" d="M561.9,-95C561.9,-95 597.81,-95 597.81,-95 603.15,-95 608.48,-100.33 608.48,-105.67 608.48,-105.67 608.48,-116.33 608.48,-116.33 608.48,-121.67 603.15,-127 597.81,-127 597.81,-127 561.9,-127 561.9,-127 556.56,-127 551.23,-121.67 551.23,-116.33 551.23,-116.33 551.23,-105.67 551.23,-105.67 551.23,-100.33 556.56,-95 561.9,-95"/>
</a>
</g>
</g>
<!-- i64&#45;5871781006564002453 -->
<g id="node17" class="node">
<title>i64&#45;5871781006564002453</title>
<g id="a_node17"><a xlink:title="i64&#45;5871781006564002453: i64&#45;5871781006564002453">
<path fill="white" stroke="none" d="M369.52,-174C369.52,-174 380.19,-174 380.19,-174 385.52,-174 390.85,-179.33 390.85,-184.67 390.85,-184.67 390.85,-195.33 390.85,-195.33 390.85,-200.67 385.52,-206 380.19,-206 380.19,-206 369.52,-206 369.52,-206 364.19,-206 358.85,-200.67 358.85,-195.33 358.85,-195.33 358.85,-184.67 358.85,-184.67 358.85,-179.33 364.19,-174 369.52,-174"/>
<text text-anchor="start" x="371.1" y="-184.2" font-family="Helvetica,sans-Serif" font-size="14.00">1</text>
<path fill="none" stroke="black" d="M369.52,-174C369.52,-174 380.19,-174 380.19,-174 385.52,-174 390.85,-179.33 390.85,-184.67 390.85,-184.67 390.85,-195.33 390.85,-195.33 390.85,-200.67 385.52,-206 380.19,-206 380.19,-206 369.52,-206 369.52,-206 364.19,-206 358.85,-200.67 358.85,-195.33 358.85,-195.33 358.85,-184.67 358.85,-184.67 358.85,-179.33 364.19,-174 369.52,-174"/>
</a>
</g>
</g>
<!-- i64&#45;11743562013128004906 -->
<g id="node18" class="node">
<title>i64&#45;11743562013128004906</title>
<g id="a_node18"><a xlink:title="i64&#45;11743562013128004906: i64&#45;11743562013128004906">
<path fill="white" stroke="none" d="M185.52,-253C185.52,-253 196.19,-253 196.19,-253 201.52,-253 206.85,-258.33 206.85,-263.67 206.85,-263.67 206.85,-274.33 206.85,-274.33 206.85,-279.67 201.52,-285 196.19,-285 196.19,-285 185.52,-285 185.52,-285 180.19,-285 174.85,-279.67 174.85,-274.33 174.85,-274.33 174.85,-263.67 174.85,-263.67 174.85,-258.33 180.19,-253 185.52,-253"/>
<text text-anchor="start" x="187.1" y="-263.2" font-family="Helvetica,sans-Serif" font-size="14.00">2</text>
<path fill="none" stroke="black" d="M185.52,-253C185.52,-253 196.19,-253 196.19,-253 201.52,-253 206.85,-258.33 206.85,-263.67 206.85,-263.67 206.85,-274.33 206.85,-274.33 206.85,-279.67 201.52,-285 196.19,-285 196.19,-285 185.52,-285 185.52,-285 180.19,-285 174.85,-279.67 174.85,-274.33 174.85,-274.33 174.85,-263.67 174.85,-263.67 174.85,-258.33 180.19,-253 185.52,-253"/>
</a>
</g>
</g>
<!-- i64&#45;0 -->
<g id="node19" class="node">
<title>i64&#45;0</title>
<g id="a_node19"><a xlink:title="i64&#45;0: i64&#45;0">
<path fill="white" stroke="none" d="M193.52,-174C193.52,-174 204.19,-174 204.19,-174 209.52,-174 214.85,-179.33 214.85,-184.67 214.85,-184.67 214.85,-195.33 214.85,-195.33 214.85,-200.67 209.52,-206 204.19,-206 204.19,-206 193.52,-206 193.52,-206 188.19,-206 182.85,-200.67 182.85,-195.33 182.85,-195.33 182.85,-184.67 182.85,-184.67 182.85,-179.33 188.19,-174 193.52,-174"/>
<text text-anchor="start" x="195.1" y="-184.2" font-family="Helvetica,sans-Serif" font-size="14.00">0</text>
<path fill="none" stroke="black" d="M193.52,-174C193.52,-174 204.19,-174 204.19,-174 209.52,-174 214.85,-179.33 214.85,-184.67 214.85,-184.67 214.85,-195.33 214.85,-195.33 214.85,-200.67 209.52,-206 204.19,-206 204.19,-206 193.52,-206 193.52,-206 188.19,-206 182.85,-200.67 182.85,-195.33 182.85,-195.33 182.85,-184.67 182.85,-184.67 182.85,-179.33 188.19,-174 193.52,-174"/>
</a>
</g>
</g>
<!-- i64&#45;5040379952546458196 -->
<g id="node20" class="node">
<title>i64&#45;5040379952546458196</title>
<g id="a_node20"><a xlink:title="i64&#45;5040379952546458196: i64&#45;5040379952546458196">
<path fill="white" stroke="none" d="M39.52,-174C39.52,-174 50.19,-174 50.19,-174 55.52,-174 60.85,-179.33 60.85,-184.67 60.85,-184.67 60.85,-195.33 60.85,-195.33 60.85,-200.67 55.52,-206 50.19,-206 50.19,-206 39.52,-206 39.52,-206 34.19,-206 28.85,-200.67 28.85,-195.33 28.85,-195.33 28.85,-184.67 28.85,-184.67 28.85,-179.33 34.19,-174 39.52,-174"/>
<text text-anchor="start" x="41.1" y="-184.2" font-family="Helvetica,sans-Serif" font-size="14.00">4</text>
<path fill="none" stroke="black" d="M39.52,-174C39.52,-174 50.19,-174 50.19,-174 55.52,-174 60.85,-179.33 60.85,-184.67 60.85,-184.67 60.85,-195.33 60.85,-195.33 60.85,-200.67 55.52,-206 50.19,-206 50.19,-206 39.52,-206 39.52,-206 34.19,-206 28.85,-200.67 28.85,-195.33 28.85,-195.33 28.85,-184.67 28.85,-184.67 28.85,-179.33 34.19,-174 39.52,-174"/>
</a>
</g>
</g>
<!-- i64&#45;17615343019692007359 -->
<g id="node21" class="node">
<title>i64&#45;17615343019692007359</title>
<g id="a_node21"><a xlink:title="i64&#45;17615343019692007359: i64&#45;17615343019692007359">
<path fill="white" stroke="none" d="M634.52,-16C634.52,-16 645.19,-16 645.19,-16 650.52,-16 655.85,-21.33 655.85,-26.67 655.85,-26.67 655.85,-37.33 655.85,-37.33 655.85,-42.67 650.52,-48 645.19,-48 645.19,-48 634.52,-48 634.52,-48 629.19,-48 623.85,-42.67 623.85,-37.33 623.85,-37.33 623.85,-26.67 623.85,-26.67 623.85,-21.33 629.19,-16 634.52,-16"/>
<text text-anchor="start" x="636.1" y="-26.2" font-family="Helvetica,sans-Serif" font-size="14.00">3</text>
<path fill="none" stroke="black" d="M634.52,-16C634.52,-16 645.19,-16 645.19,-16 650.52,-16 655.85,-21.33 655.85,-26.67 655.85,-26.67 655.85,-37.33 655.85,-37.33 655.85,-42.67 650.52,-48 645.19,-48 645.19,-48 634.52,-48 634.52,-48 629.19,-48 623.85,-42.67 623.85,-37.33 623.85,-37.33 623.85,-26.67 623.85,-26.67 623.85,-21.33 629.19,-16 634.52,-16"/>
</a>
</g>
</g>
<!-- i64&#45;12574963067145549163 -->
<g id="node22" class="node">
<title>i64&#45;12574963067145549163</title>
<g id="a_node22"><a xlink:title="i64&#45;12574963067145549163: i64&#45;12574963067145549163">
<path fill="white" stroke="none" d="M475.52,-253C475.52,-253 486.19,-253 486.19,-253 491.52,-253 496.85,-258.33 496.85,-263.67 496.85,-263.67 496.85,-274.33 496.85,-274.33 496.85,-279.67 491.52,-285 486.19,-285 486.19,-285 475.52,-285 475.52,-285 470.19,-285 464.85,-279.67 464.85,-274.33 464.85,-274.33 464.85,-263.67 464.85,-263.67 464.85,-258.33 470.19,-253 475.52,-253"/>
<text text-anchor="start" x="474.85" y="-263.2" font-family="Helvetica,sans-Serif" font-size="14.00">&#45;1</text>
<path fill="none" stroke="black" d="M475.52,-253C475.52,-253 486.19,-253 486.19,-253 491.52,-253 496.85,-258.33 496.85,-263.67 496.85,-263.67 496.85,-274.33 496.85,-274.33 496.85,-279.67 491.52,-285 486.19,-285 486.19,-285 475.52,-285 475.52,-285 470.19,-285 464.85,-279.67 464.85,-274.33 464.85,-274.33 464.85,-263.67 464.85,-263.67 464.85,-258.33 470.19,-253 475.52,-253"/>
</a>
</g>
</g>
<!-- arith_constant&#45;1502717139435099918 -->
<g id="node23" class="node">
<title>arith_constant&#45;1502717139435099918</title>
<g id="a_node23"><a xlink:title="0: arith_constant&#45;1502717139435099918">
<path fill="white" stroke="none" d="M240.52,-253C240.52,-253 313.19,-253 313.19,-253 318.52,-253 323.85,-258.33 323.85,-263.67 323.85,-263.67 323.85,-274.33 323.85,-274.33 323.85,-279.67 318.52,-285 313.19,-285 313.19,-285 240.52,-285 240.52,-285 235.19,-285 229.85,-279.67 229.85,-274.33 229.85,-274.33 229.85,-263.67 229.85,-263.67 229.85,-258.33 235.19,-253 240.52,-253"/>
<text text-anchor="start" x="234.48" y="-263.2" font-family="Helvetica,sans-Serif" font-size="14.00">arith_constant</text>
<path fill="none" stroke="black" d="M240.52,-253C240.52,-253 313.19,-253 313.19,-253 318.52,-253 323.85,-258.33 323.85,-263.67 323.85,-263.67 323.85,-274.33 323.85,-274.33 323.85,-279.67 318.52,-285 313.19,-285 313.19,-285 240.52,-285 240.52,-285 235.19,-285 229.85,-279.67 229.85,-274.33 229.85,-274.33 229.85,-263.67 229.85,-263.67 229.85,-258.33 235.19,-253 240.52,-253"/>
</a>
</g>
</g>
<!-- NamedOp&#45;1325353185391881644 -->
<g id="node24" class="node">
<title>NamedOp&#45;1325353185391881644</title>
<g id="a_node24"><a xlink:title="13: NamedOp&#45;1325353185391881644">
<path fill="white" stroke="none" d="M632.02,-95C632.02,-95 683.69,-95 683.69,-95 689.02,-95 694.35,-100.33 694.35,-105.67 694.35,-105.67 694.35,-116.33 694.35,-116.33 694.35,-121.67 689.02,-127 683.69,-127 683.69,-127 632.02,-127 632.02,-127 626.69,-127 621.35,-121.67 621.35,-116.33 621.35,-116.33 621.35,-105.67 621.35,-105.67 621.35,-100.33 626.69,-95 632.02,-95"/>
<text text-anchor="start" x="626.35" y="-105.2" font-family="Helvetica,sans-Serif" font-size="14.00">NamedOp</text>
<path fill="none" stroke="black" d="M632.02,-95C632.02,-95 683.69,-95 683.69,-95 689.02,-95 694.35,-100.33 694.35,-105.67 694.35,-105.67 694.35,-116.33 694.35,-116.33 694.35,-121.67 689.02,-127 683.69,-127 683.69,-127 632.02,-127 632.02,-127 626.69,-127 621.35,-121.67 621.35,-116.33 621.35,-116.33 621.35,-105.67 621.35,-105.67 621.35,-100.33 626.69,-95 632.02,-95"/>
</a>
</g>
</g>
<!-- arith_addf&#45;12577652034720723020 -->
<g id="node25" class="node">
<title>arith_addf&#45;12577652034720723020</title>
<g id="a_node25"><a xlink:title="8: arith_addf&#45;12577652034720723020">
<path fill="white" stroke="none" d="M325.52,-332C325.52,-332 374.19,-332 374.19,-332 379.52,-332 384.85,-337.33 384.85,-342.67 384.85,-342.67 384.85,-353.33 384.85,-353.33 384.85,-358.67 379.52,-364 374.19,-364 374.19,-364 325.52,-364 325.52,-364 320.19,-364 314.85,-358.67 314.85,-353.33 314.85,-353.33 314.85,-342.67 314.85,-342.67 314.85,-337.33 320.19,-332 325.52,-332"/>
<text text-anchor="start" x="319.85" y="-342.2" font-family="Helvetica,sans-Serif" font-size="14.00">arith_addf</text>
<path fill="none" stroke="black" d="M325.52,-332C325.52,-332 374.19,-332 374.19,-332 379.52,-332 384.85,-337.33 384.85,-342.67 384.85,-342.67 384.85,-353.33 384.85,-353.33 384.85,-358.67 379.52,-364 374.19,-364 374.19,-364 325.52,-364 325.52,-364 320.19,-364 314.85,-358.67 314.85,-353.33 314.85,-353.33 314.85,-342.67 314.85,-342.67 314.85,-337.33 320.19,-332 325.52,-332"/>
</a>
</g>
</g>
<!-- arith_constant&#45;13233112731155930404 -->
<g id="node26" class="node">
<title>arith_constant&#45;13233112731155930404</title>
<g id="a_node26"><a xlink:title="4: arith_constant&#45;13233112731155930404">
<path fill="white" stroke="none" d="M358.52,-253C358.52,-253 431.19,-253 431.19,-253 436.52,-253 441.85,-258.33 441.85,-263.67 441.85,-263.67 441.85,-274.33 441.85,-274.33 441.85,-279.67 436.52,-285 431.19,-285 431.19,-285 358.52,-285 358.52,-285 353.19,-285 347.85,-279.67 347.85,-274.33 347.85,-274.33 347.85,-263.67 347.85,-263.67 347.85,-258.33 353.19,-253 358.52,-253"/>
<text text-anchor="start" x="352.48" y="-263.2" font-family="Helvetica,sans-Serif" font-size="14.00">arith_constant</text>
<path fill="none" stroke="black" d="M358.52,-253C358.52,-253 431.19,-253 431.19,-253 436.52,-253 441.85,-258.33 441.85,-263.67 441.85,-263.67 441.85,-274.33 441.85,-274.33 441.85,-279.67 436.52,-285 431.19,-285 431.19,-285 358.52,-285 358.52,-285 353.19,-285 347.85,-279.67 347.85,-274.33 347.85,-274.33 347.85,-263.67 347.85,-263.67 347.85,-258.33 353.19,-253 358.52,-253"/>
</a>
</g>
</g>
<!-- arith_addf&#45;1653007366095736369 -->
<g id="node27" class="node">
<title>arith_addf&#45;1653007366095736369</title>
<g id="a_node27"><a xlink:title="8: arith_addf&#45;1653007366095736369">
<path fill="white" stroke="none" d="M473.52,-332C473.52,-332 522.19,-332 522.19,-332 527.52,-332 532.85,-337.33 532.85,-342.67 532.85,-342.67 532.85,-353.33 532.85,-353.33 532.85,-358.67 527.52,-364 522.19,-364 522.19,-364 473.52,-364 473.52,-364 468.19,-364 462.85,-358.67 462.85,-353.33 462.85,-353.33 462.85,-342.67 462.85,-342.67 462.85,-337.33 468.19,-332 473.52,-332"/>
<text text-anchor="start" x="467.85" y="-342.2" font-family="Helvetica,sans-Serif" font-size="14.00">arith_addf</text>
<path fill="none" stroke="black" d="M473.52,-332C473.52,-332 522.19,-332 522.19,-332 527.52,-332 532.85,-337.33 532.85,-342.67 532.85,-342.67 532.85,-353.33 532.85,-353.33 532.85,-358.67 527.52,-364 522.19,-364 522.19,-364 473.52,-364 473.52,-364 468.19,-364 462.85,-358.67 462.85,-353.33 462.85,-353.33 462.85,-342.67 462.85,-342.67 462.85,-337.33 468.19,-332 473.52,-332"/>
</a>
</g>
</g>
<!-- arith_addf&#45;12177527415320149565 -->
<g id="node28" class="node">
<title>arith_addf&#45;12177527415320149565</title>
<g id="a_node28"><a xlink:title="8: arith_addf&#45;12177527415320149565">
<path fill="white" stroke="none" d="M399.52,-332C399.52,-332 448.19,-332 448.19,-332 453.52,-332 458.85,-337.33 458.85,-342.67 458.85,-342.67 458.85,-353.33 458.85,-353.33 458.85,-358.67 453.52,-364 448.19,-364 448.19,-364 399.52,-364 399.52,-364 394.19,-364 388.85,-358.67 388.85,-353.33 388.85,-353.33 388.85,-342.67 388.85,-342.67 388.85,-337.33 394.19,-332 399.52,-332"/>
<text text-anchor="start" x="393.85" y="-342.2" font-family="Helvetica,sans-Serif" font-size="14.00">arith_addf</text>
<path fill="none" stroke="black" d="M399.52,-332C399.52,-332 448.19,-332 448.19,-332 453.52,-332 458.85,-337.33 458.85,-342.67 458.85,-342.67 458.85,-353.33 458.85,-353.33 458.85,-358.67 453.52,-364 448.19,-364 448.19,-364 399.52,-364 399.52,-364 394.19,-364 388.85,-358.67 388.85,-353.33 388.85,-353.33 388.85,-342.67 388.85,-342.67 388.85,-337.33 394.19,-332 399.52,-332"/>
</a>
</g>
</g>
<!-- arith_constant&#45;957003200669981747 -->
<g id="node29" class="node">
<title>arith_constant&#45;957003200669981747</title>
<g id="a_node29"><a xlink:title="15: arith_constant&#45;957003200669981747">
<path fill="white" stroke="none" d="M31.52,-253C31.52,-253 104.19,-253 104.19,-253 109.52,-253 114.85,-258.33 114.85,-263.67 114.85,-263.67 114.85,-274.33 114.85,-274.33 114.85,-279.67 109.52,-285 104.19,-285 104.19,-285 31.52,-285 31.52,-285 26.19,-285 20.85,-279.67 20.85,-274.33 20.85,-274.33 20.85,-263.67 20.85,-263.67 20.85,-258.33 26.19,-253 31.52,-253"/>
<text text-anchor="start" x="25.48" y="-263.2" font-family="Helvetica,sans-Serif" font-size="14.00">arith_constant</text>
<path fill="none" stroke="black" d="M31.52,-253C31.52,-253 104.19,-253 104.19,-253 109.52,-253 114.85,-258.33 114.85,-263.67 114.85,-263.67 114.85,-274.33 114.85,-274.33 114.85,-279.67 109.52,-285 104.19,-285 104.19,-285 31.52,-285 31.52,-285 26.19,-285 20.85,-279.67 20.85,-274.33 20.85,-274.33 20.85,-263.67 20.85,-263.67 20.85,-258.33 26.19,-253 31.52,-253"/>
</a>
</g>
</g>
</g>
</svg>
