<?xml version="1.0" encoding="UTF-8" standalone="no"?>
<!DOCTYPE svg PUBLIC "-//W3C//DTD SVG 1.1//EN"
 "http://www.w3.org/Graphics/SVG/1.1/DTD/svg11.dtd">
<!-- Generated by graphviz version 12.0.0 (20240704.0754)
 -->
<!-- Pages: 1 -->
<svg width="764pt" height="309pt"
 viewBox="0.00 0.00 764.00 309.00" xmlns="http://www.w3.org/2000/svg" xmlns:xlink="http://www.w3.org/1999/xlink">
<g id="graph0" class="graph" transform="scale(1 1) rotate(0) translate(4 305)">
<polygon fill="white" stroke="none" points="-4,4 -4,-305 760,-305 760,4 -4,4"/>
<g id="clust1" class="cluster">
<title>outer_cluster_String&#45;5764174078010485202</title>
</g>
<g id="clust2" class="cluster">
<title>cluster_String&#45;5764174078010485202</title>
<path fill="#ffffb3" stroke="black" stroke-dasharray="5,2" d="M23,-11C23,-11 363,-11 363,-11 369,-11 375,-17 375,-23 375,-23 375,-41 375,-41 375,-47 369,-53 363,-53 363,-53 23,-53 23,-53 17,-53 11,-47 11,-41 11,-41 11,-23 11,-23 11,-17 17,-11 23,-11"/>
</g>
<g id="clust4" class="cluster">
<title>outer_cluster_String&#45;9670903108499433938</title>
</g>
<g id="clust5" class="cluster">
<title>cluster_String&#45;9670903108499433938</title>
<path fill="#ffffb3" stroke="black" stroke-dasharray="5,2" d="M393,-11C393,-11 733,-11 733,-11 739,-11 745,-17 745,-23 745,-23 745,-41 745,-41 745,-47 739,-53 733,-53 733,-53 393,-53 393,-53 387,-53 381,-47 381,-41 381,-41 381,-23 381,-23 381,-17 387,-11 393,-11"/>
</g>
<g id="clust7" class="cluster">
<title>outer_cluster_String&#45;18350824605986613714</title>
</g>
<g id="clust8" class="cluster">
<title>cluster_String&#45;18350824605986613714</title>
<path fill="#ffffb3" stroke="black" stroke-dasharray="5,2" d="M347,-90C347,-90 451,-90 451,-90 457,-90 463,-96 463,-102 463,-102 463,-120 463,-120 463,-126 457,-132 451,-132 451,-132 347,-132 347,-132 341,-132 335,-126 335,-120 335,-120 335,-102 335,-102 335,-96 341,-90 347,-90"/>
</g>
<g id="clust10" class="cluster">
<title>outer_cluster_String&#45;15542684115063436391</title>
</g>
<g id="clust11" class="cluster">
<title>cluster_String&#45;15542684115063436391</title>
<path fill="#ffffb3" stroke="black" stroke-dasharray="5,2" d="M559,-90C559,-90 699,-90 699,-90 705,-90 711,-96 711,-102 711,-102 711,-120 711,-120 711,-126 705,-132 699,-132 699,-132 559,-132 559,-132 553,-132 547,-126 547,-120 547,-120 547,-102 547,-102 547,-96 553,-90 559,-90"/>
</g>
<g id="clust13" class="cluster">
<title>outer_cluster_0</title>
</g>
<g id="clust14" class="cluster">
<title>cluster_0</title>
<path fill="#bebada" stroke="black" stroke-dasharray="5,2" d="M302,-169C302,-169 378,-169 378,-169 384,-169 390,-175 390,-181 390,-181 390,-199 390,-199 390,-205 384,-211 378,-211 378,-211 302,-211 302,-211 296,-211 290,-205 290,-199 290,-199 290,-181 290,-181 290,-175 296,-169 302,-169"/>
</g>
<g id="clust16" class="cluster">
<title>outer_cluster_3</title>
</g>
<g id="clust17" class="cluster">
<title>cluster_3</title>
<path fill="#bebada" stroke="black" stroke-dasharray="5,2" d="M430,-169C430,-169 506,-169 506,-169 512,-169 518,-175 518,-181 518,-181 518,-199 518,-199 518,-205 512,-211 506,-211 506,-211 430,-211 430,-211 424,-211 418,-205 418,-199 418,-199 418,-181 418,-181 418,-175 424,-169 430,-169"/>
</g>
<g id="clust19" class="cluster">
<title>outer_cluster_6</title>
</g>
<g id="clust20" class="cluster">
<title>cluster_6</title>
<path fill="#bebada" stroke="black" stroke-dasharray="5,2" d="M364,-248C364,-248 490,-248 490,-248 496,-248 502,-254 502,-260 502,-260 502,-278 502,-278 502,-284 496,-290 490,-290 490,-290 364,-290 364,-290 358,-290 352,-284 352,-278 352,-278 352,-260 352,-260 352,-254 358,-248 364,-248"/>
</g>
<g id="clust22" class="cluster">
<title>outer_cluster_7</title>
</g>
<g id="clust23" class="cluster">
<title>cluster_7</title>
<path fill="#fb8072" stroke="black" stroke-dasharray="5,2" d="M536,-169C536,-169 584,-169 584,-169 590,-169 596,-175 596,-181 596,-181 596,-199 596,-199 596,-205 590,-211 584,-211 584,-211 536,-211 536,-211 530,-211 524,-205 524,-199 524,-199 524,-181 524,-181 524,-175 530,-169 536,-169"/>
</g>
<g id="clust25" class="cluster">
<title>outer_cluster_4</title>
</g>
<g id="clust26" class="cluster">
<title>cluster_4</title>
<path fill="#fb8072" stroke="black" stroke-dasharray="5,2" d="M481,-90C481,-90 529,-90 529,-90 535,-90 541,-96 541,-102 541,-102 541,-120 541,-120 541,-126 535,-132 529,-132 529,-132 481,-132 481,-132 475,-132 469,-126 469,-120 469,-120 469,-102 469,-102 469,-96 475,-90 481,-90"/>
</g>
<g id="clust28" class="cluster">
<title>outer_cluster_1</title>
</g>
<g id="clust29" class="cluster">
<title>cluster_1</title>
<path fill="#fb8072" stroke="black" stroke-dasharray="5,2" d="M202,-90C202,-90 250,-90 250,-90 256,-90 262,-96 262,-102 262,-102 262,-120 262,-120 262,-126 256,-132 250,-132 250,-132 202,-132 202,-132 196,-132 190,-126 190,-120 190,-120 190,-102 190,-102 190,-96 196,-90 202,-90"/>
</g>
<!-- arith_constant&#45;17545585994202306336&#45;&gt;String&#45;18350824605986613714 -->
<g id="edge2" class="edge">
<title>arith_constant&#45;17545585994202306336:s&#45;&gt;String&#45;18350824605986613714</title>
<path fill="none" stroke="black" d="M363,-174C363,-159.32 370.64,-145.01 378.88,-133.84"/>
<polygon fill="black" stroke="black" points="377.37,-137.88 379.63,-133.08 374.88,-135.43 377.37,-137.88"/>
</g>
<!-- arith_constant&#45;17545585994202306336&#45;&gt;OtherAttr&#45;5764174078010485202 -->
<g id="edge1" class="edge">
<title>arith_constant&#45;17545585994202306336:s&#45;&gt;OtherAttr&#45;5764174078010485202</title>
<path fill="none" stroke="black" d="M317,-174C317,-147.01 289.32,-130.93 264.5,-121.94"/>
<polygon fill="black" stroke="black" points="268.69,-121.77 263.4,-121.49 267.36,-125.01 268.69,-121.77"/>
</g>
<!-- OtherAttr&#45;5764174078010485202&#45;&gt;String&#45;5764174078010485202 -->
<g id="edge15" class="edge">
<title>OtherAttr&#45;5764174078010485202:s&#45;&gt;String&#45;5764174078010485202</title>
<path fill="none" stroke="black" d="M226,-95C226,-80.64 219.02,-66.38 211.48,-55.16"/>
<polygon fill="black" stroke="black" points="215.19,-57.01 210.71,-54.18 212.45,-59.19 215.19,-57.01"/>
</g>
<!-- arith_constant&#45;16165181832105652650&#45;&gt;String&#45;18350824605986613714 -->
<g id="edge4" class="edge">
<title>arith_constant&#45;16165181832105652650:s&#45;&gt;String&#45;18350824605986613714</title>
<path fill="none" stroke="black" d="M491,-174C491,-157.11 480.21,-144.52 466.01,-135.26"/>
<polygon fill="black" stroke="black" points="467.12,-133.88 461.94,-132.78 465.3,-136.87 467.12,-133.88"/>
</g>
<!-- arith_constant&#45;16165181832105652650&#45;&gt;OtherAttr&#45;9670903108499433938 -->
<g id="edge3" class="edge">
<title>arith_constant&#45;16165181832105652650:s&#45;&gt;OtherAttr&#45;9670903108499433938</title>
<path fill="none" stroke="black" d="M445,-174C445,-157.06 456.71,-142.98 469.79,-132.55"/>
<polygon fill="black" stroke="black" points="466.1,-136.98 469.37,-132.82 464.22,-134.03 466.1,-136.98"/>
</g>
<!-- OtherAttr&#45;9670903108499433938&#45;&gt;String&#45;9670903108499433938 -->
<g id="edge14" class="edge">
<title>OtherAttr&#45;9670903108499433938:s&#45;&gt;String&#45;9670903108499433938</title>
<path fill="none" stroke="black" d="M505,-95C505,-78.34 516.3,-64.31 528.93,-53.83"/>
<polygon fill="black" stroke="black" points="525.93,-58.37 528.8,-53.93 523.78,-55.61 525.93,-58.37"/>
</g>
<!-- arith_addf&#45;8383467734041402392&#45;&gt;String&#45;18350824605986613714 -->
<g id="edge8" class="edge">
<title>arith_addf&#45;8383467734041402392:s&#45;&gt;String&#45;18350824605986613714</title>
<path fill="none" stroke="black" d="M419.5,-253C419.5,-234.66 409.66,-231.97 406,-214 400.57,-187.32 399.13,-155.99 398.85,-135.16"/>
<polygon fill="black" stroke="black" points="400.66,-138.48 398.83,-133.51 397.16,-138.54 400.66,-138.48"/>
</g>
<!-- arith_addf&#45;8383467734041402392&#45;&gt;arith_constant&#45;17545585994202306336 -->
<g id="edge5" class="edge">
<title>arith_addf&#45;8383467734041402392:s&#45;&gt;arith_constant&#45;17545585994202306336</title>
<path fill="none" stroke="black" d="M373,-253C373,-238.64 366.02,-224.38 358.48,-213.16"/>
<polygon fill="black" stroke="black" points="362.19,-215.01 357.71,-212.18 359.45,-217.19 362.19,-215.01"/>
</g>
<!-- arith_addf&#45;8383467734041402392&#45;&gt;arith_constant&#45;16165181832105652650 -->
<g id="edge6" class="edge">
<title>arith_addf&#45;8383467734041402392:s&#45;&gt;arith_constant&#45;16165181832105652650</title>
<path fill="none" stroke="black" d="M398.5,-253C398.5,-235.43 411.02,-221.61 425.43,-211.51"/>
<polygon fill="black" stroke="black" points="421.32,-214.92 425.39,-211.53 420.09,-211.64 421.32,-214.92"/>
</g>
<!-- arith_addf&#45;8383467734041402392&#45;&gt;OtherAttr&#45;15542684115063436391 -->
<g id="edge7" class="edge">
<title>arith_addf&#45;8383467734041402392:s&#45;&gt;OtherAttr&#45;15542684115063436391</title>
<path fill="none" stroke="black" d="M411,-253C411,-244.25 420.85,-248.21 429,-245 468.37,-229.51 480.4,-231.31 519,-214 519.26,-213.88 519.52,-213.76 519.79,-213.64"/>
<polygon fill="black" stroke="black" points="520.23,-215.37 523.99,-211.65 518.72,-212.21 520.23,-215.37"/>
</g>
<!-- OtherAttr&#45;15542684115063436391&#45;&gt;String&#45;15542684115063436391 -->
<g id="edge13" class="edge">
<title>OtherAttr&#45;15542684115063436391:s&#45;&gt;String&#45;15542684115063436391</title>
<path fill="none" stroke="black" d="M560,-174C560,-156.36 572.63,-142.46 587.09,-132.34"/>
<polygon fill="black" stroke="black" points="582.56,-135.23 587.01,-132.36 581.74,-131.83 582.56,-135.23"/>
</g>
<!-- arith_addf&#45;17922090101610208218&#45;&gt;String&#45;18350824605986613714 -->
<g id="edge12" class="edge">
<title>arith_addf&#45;17922090101610208218:s&#45;&gt;String&#45;18350824605986613714</title>
<path fill="none" stroke="black" d="M493.5,-253C493.5,-214.84 439.7,-244.68 417,-214 407.98,-201.81 403.03,-161.39 400.7,-135.24"/>
<polygon fill="black" stroke="black" points="402.96,-138.14 400.42,-133.49 399.5,-138.71 402.96,-138.14"/>
</g>
<!-- arith_addf&#45;17922090101610208218&#45;&gt;arith_constant&#45;17545585994202306336 -->
<g id="edge10" class="edge">
<title>arith_addf&#45;17922090101610208218:s&#45;&gt;arith_constant&#45;17545585994202306336</title>
<path fill="none" stroke="black" d="M472.5,-253C472.5,-243.69 429.02,-224.7 391.87,-210.17"/>
<polygon fill="black" stroke="black" points="396.35,-211.14 391.25,-209.74 394.37,-214.02 396.35,-211.14"/>
</g>
<!-- arith_addf&#45;17922090101610208218&#45;&gt;arith_constant&#45;16165181832105652650 -->
<g id="edge9" class="edge">
<title>arith_addf&#45;17922090101610208218:s&#45;&gt;arith_constant&#45;16165181832105652650</title>
<path fill="none" stroke="black" d="M447,-253C447,-239.45 451.55,-225.08 456.42,-213.58"/>
<polygon fill="black" stroke="black" points="456.12,-217.48 457.19,-212.3 453.12,-215.68 456.12,-217.48"/>
</g>
<!-- arith_addf&#45;17922090101610208218&#45;&gt;OtherAttr&#45;15542684115063436391 -->
<g id="edge11" class="edge">
<title>arith_addf&#45;17922090101610208218:s&#45;&gt;OtherAttr&#45;15542684115063436391</title>
<path fill="none" stroke="black" d="M485,-253C485,-241.45 506.41,-224.54 526.35,-211.3"/>
<polygon fill="black" stroke="black" points="521.69,-214.17 526.17,-211.34 520.91,-210.76 521.69,-214.17"/>
</g>
<!-- String&#45;5764174078010485202 -->
<g id="node1" class="node">
<title>String&#45;5764174078010485202</title>
<g id="a_node1"><a xlink:title="String&#45;5764174078010485202: String&#45;5764174078010485202">
<path fill="white" stroke="none" d="M24.29,-16C24.29,-16 361.71,-16 361.71,-16 367.04,-16 372.38,-21.33 372.38,-26.67 372.38,-26.67 372.38,-37.33 372.38,-37.33 372.38,-42.67 367.04,-48 361.71,-48 361.71,-48 24.29,-48 24.29,-48 18.96,-48 13.62,-42.67 13.62,-37.33 13.62,-37.33 13.62,-26.67 13.62,-26.67 13.62,-21.33 18.96,-16 24.29,-16"/>
<text text-anchor="start" x="18.62" y="-26.2" font-family="Helvetica,sans-Serif" font-size="14.00">&quot;dense&lt;[[1.0, 2.0, 3.0], [4.0, 5.0, 6.0]]&gt; : tensor&lt;2x3xf64&gt;&quot;</text>
<path fill="none" stroke="black" d="M24.29,-16C24.29,-16 361.71,-16 361.71,-16 367.04,-16 372.38,-21.33 372.38,-26.67 372.38,-26.67 372.38,-37.33 372.38,-37.33 372.38,-42.67 367.04,-48 361.71,-48 361.71,-48 24.29,-48 24.29,-48 18.96,-48 13.62,-42.67 13.62,-37.33 13.62,-37.33 13.62,-26.67 13.62,-26.67 13.62,-21.33 18.96,-16 24.29,-16"/>
</a>
</g>
</g>
<!-- String&#45;9670903108499433938 -->
<g id="node2" class="node">
<title>String&#45;9670903108499433938</title>
<g id="a_node2"><a xlink:title="String&#45;9670903108499433938: String&#45;9670903108499433938">
<path fill="white" stroke="none" d="M394.29,-16C394.29,-16 731.71,-16 731.71,-16 737.04,-16 742.38,-21.33 742.38,-26.67 742.38,-26.67 742.38,-37.33 742.38,-37.33 742.38,-42.67 737.04,-48 731.71,-48 731.71,-48 394.29,-48 394.29,-48 388.96,-48 383.62,-42.67 383.62,-37.33 383.62,-37.33 383.62,-26.67 383.62,-26.67 383.62,-21.33 388.96,-16 394.29,-16"/>
<text text-anchor="start" x="388.62" y="-26.2" font-family="Helvetica,sans-Serif" font-size="14.00">&quot;dense&lt;[[2.0, 3.0, 4.0], [5.0, 6.0, 7.0]]&gt; : tensor&lt;2x3xf64&gt;&quot;</text>
<path fill="none" stroke="black" d="M394.29,-16C394.29,-16 731.71,-16 731.71,-16 737.04,-16 742.38,-21.33 742.38,-26.67 742.38,-26.67 742.38,-37.33 742.38,-37.33 742.38,-42.67 737.04,-48 731.71,-48 731.71,-48 394.29,-48 394.29,-48 388.96,-48 383.62,-42.67 383.62,-37.33 383.62,-37.33 383.62,-26.67 383.62,-26.67 383.62,-21.33 388.96,-16 394.29,-16"/>
</a>
</g>
</g>
<!-- String&#45;18350824605986613714 -->
<g id="node3" class="node">
<title>String&#45;18350824605986613714</title>
<g id="a_node3"><a xlink:title="String&#45;18350824605986613714: String&#45;18350824605986613714">
<path fill="white" stroke="none" d="M348.79,-95C348.79,-95 449.21,-95 449.21,-95 454.54,-95 459.88,-100.33 459.88,-105.67 459.88,-105.67 459.88,-116.33 459.88,-116.33 459.88,-121.67 454.54,-127 449.21,-127 449.21,-127 348.79,-127 348.79,-127 343.46,-127 338.12,-121.67 338.12,-116.33 338.12,-116.33 338.12,-105.67 338.12,-105.67 338.12,-100.33 343.46,-95 348.79,-95"/>
<text text-anchor="start" x="343.12" y="-105.2" font-family="Helvetica,sans-Serif" font-size="14.00">&quot;tensor&lt;2x3xf64&gt;&quot;</text>
<path fill="none" stroke="black" d="M348.79,-95C348.79,-95 449.21,-95 449.21,-95 454.54,-95 459.88,-100.33 459.88,-105.67 459.88,-105.67 459.88,-116.33 459.88,-116.33 459.88,-121.67 454.54,-127 449.21,-127 449.21,-127 348.79,-127 348.79,-127 343.46,-127 338.12,-121.67 338.12,-116.33 338.12,-116.33 338.12,-105.67 338.12,-105.67 338.12,-100.33 343.46,-95 348.79,-95"/>
</a>
</g>
</g>
<!-- String&#45;15542684115063436391 -->
<g id="node4" class="node">
<title>String&#45;15542684115063436391</title>
<g id="a_node4"><a xlink:title="String&#45;15542684115063436391: String&#45;15542684115063436391">
<path fill="white" stroke="none" d="M561.17,-95C561.17,-95 696.83,-95 696.83,-95 702.17,-95 707.5,-100.33 707.5,-105.67 707.5,-105.67 707.5,-116.33 707.5,-116.33 707.5,-121.67 702.17,-127 696.83,-127 696.83,-127 561.17,-127 561.17,-127 555.83,-127 550.5,-121.67 550.5,-116.33 550.5,-116.33 550.5,-105.67 550.5,-105.67 550.5,-100.33 555.83,-95 561.17,-95"/>
<text text-anchor="start" x="555.5" y="-105.2" font-family="Helvetica,sans-Serif" font-size="14.00">&quot;#arith.fastmath&lt;none&gt;&quot;</text>
<path fill="none" stroke="black" d="M561.17,-95C561.17,-95 696.83,-95 696.83,-95 702.17,-95 707.5,-100.33 707.5,-105.67 707.5,-105.67 707.5,-116.33 707.5,-116.33 707.5,-121.67 702.17,-127 696.83,-127 696.83,-127 561.17,-127 561.17,-127 555.83,-127 550.5,-121.67 550.5,-116.33 550.5,-116.33 550.5,-105.67 550.5,-105.67 550.5,-100.33 555.83,-95 561.17,-95"/>
</a>
</g>
</g>
<!-- arith_constant&#45;17545585994202306336 -->
<g id="node5" class="node">
<title>arith_constant&#45;17545585994202306336</title>
<g id="a_node5"><a xlink:title="0: arith_constant&#45;17545585994202306336">
<path fill="white" stroke="none" d="M303.67,-174C303.67,-174 376.33,-174 376.33,-174 381.67,-174 387,-179.33 387,-184.67 387,-184.67 387,-195.33 387,-195.33 387,-200.67 381.67,-206 376.33,-206 376.33,-206 303.67,-206 303.67,-206 298.33,-206 293,-200.67 293,-195.33 293,-195.33 293,-184.67 293,-184.67 293,-179.33 298.33,-174 303.67,-174"/>
<text text-anchor="start" x="297.62" y="-184.2" font-family="Helvetica,sans-Serif" font-size="14.00">arith_constant</text>
<path fill="none" stroke="black" d="M303.67,-174C303.67,-174 376.33,-174 376.33,-174 381.67,-174 387,-179.33 387,-184.67 387,-184.67 387,-195.33 387,-195.33 387,-200.67 381.67,-206 376.33,-206 376.33,-206 303.67,-206 303.67,-206 298.33,-206 293,-200.67 293,-195.33 293,-195.33 293,-184.67 293,-184.67 293,-179.33 298.33,-174 303.67,-174"/>
</a>
</g>
</g>
<!-- OtherAttr&#45;5764174078010485202 -->
<g id="node6" class="node">
<title>OtherAttr&#45;5764174078010485202</title>
<g id="a_node6"><a xlink:title="1: OtherAttr&#45;5764174078010485202">
<path fill="white" stroke="none" d="M203.92,-95C203.92,-95 248.08,-95 248.08,-95 253.42,-95 258.75,-100.33 258.75,-105.67 258.75,-105.67 258.75,-116.33 258.75,-116.33 258.75,-121.67 253.42,-127 248.08,-127 248.08,-127 203.92,-127 203.92,-127 198.58,-127 193.25,-121.67 193.25,-116.33 193.25,-116.33 193.25,-105.67 193.25,-105.67 193.25,-100.33 198.58,-95 203.92,-95"/>
<text text-anchor="start" x="198.25" y="-105.2" font-family="Helvetica,sans-Serif" font-size="14.00">OtherAttr</text>
<path fill="none" stroke="black" d="M203.92,-95C203.92,-95 248.08,-95 248.08,-95 253.42,-95 258.75,-100.33 258.75,-105.67 258.75,-105.67 258.75,-116.33 258.75,-116.33 258.75,-121.67 253.42,-127 248.08,-127 248.08,-127 203.92,-127 203.92,-127 198.58,-127 193.25,-121.67 193.25,-116.33 193.25,-116.33 193.25,-105.67 193.25,-105.67 193.25,-100.33 198.58,-95 203.92,-95"/>
</a>
</g>
</g>
<!-- arith_constant&#45;16165181832105652650 -->
<g id="node7" class="node">
<title>arith_constant&#45;16165181832105652650</title>
<g id="a_node7"><a xlink:title="3: arith_constant&#45;16165181832105652650">
<path fill="white" stroke="none" d="M431.67,-174C431.67,-174 504.33,-174 504.33,-174 509.67,-174 515,-179.33 515,-184.67 515,-184.67 515,-195.33 515,-195.33 515,-200.67 509.67,-206 504.33,-206 504.33,-206 431.67,-206 431.67,-206 426.33,-206 421,-200.67 421,-195.33 421,-195.33 421,-184.67 421,-184.67 421,-179.33 426.33,-174 431.67,-174"/>
<text text-anchor="start" x="425.62" y="-184.2" font-family="Helvetica,sans-Serif" font-size="14.00">arith_constant</text>
<path fill="none" stroke="black" d="M431.67,-174C431.67,-174 504.33,-174 504.33,-174 509.67,-174 515,-179.33 515,-184.67 515,-184.67 515,-195.33 515,-195.33 515,-200.67 509.67,-206 504.33,-206 504.33,-206 431.67,-206 431.67,-206 426.33,-206 421,-200.67 421,-195.33 421,-195.33 421,-184.67 421,-184.67 421,-179.33 426.33,-174 431.67,-174"/>
</a>
</g>
</g>
<!-- OtherAttr&#45;9670903108499433938 -->
<g id="node8" class="node">
<title>OtherAttr&#45;9670903108499433938</title>
<g id="a_node8"><a xlink:title="4: OtherAttr&#45;9670903108499433938">
<path fill="white" stroke="none" d="M482.92,-95C482.92,-95 527.08,-95 527.08,-95 532.42,-95 537.75,-100.33 537.75,-105.67 537.75,-105.67 537.75,-116.33 537.75,-116.33 537.75,-121.67 532.42,-127 527.08,-127 527.08,-127 482.92,-127 482.92,-127 477.58,-127 472.25,-121.67 472.25,-116.33 472.25,-116.33 472.25,-105.67 472.25,-105.67 472.25,-100.33 477.58,-95 482.92,-95"/>
<text text-anchor="start" x="477.25" y="-105.2" font-family="Helvetica,sans-Serif" font-size="14.00">OtherAttr</text>
<path fill="none" stroke="black" d="M482.92,-95C482.92,-95 527.08,-95 527.08,-95 532.42,-95 537.75,-100.33 537.75,-105.67 537.75,-105.67 537.75,-116.33 537.75,-116.33 537.75,-121.67 532.42,-127 527.08,-127 527.08,-127 482.92,-127 482.92,-127 477.58,-127 472.25,-121.67 472.25,-116.33 472.25,-116.33 472.25,-105.67 472.25,-105.67 472.25,-100.33 477.58,-95 482.92,-95"/>
</a>
</g>
</g>
<!-- arith_addf&#45;8383467734041402392 -->
<g id="node9" class="node">
<title>arith_addf&#45;8383467734041402392</title>
<g id="a_node9"><a xlink:title="6: arith_addf&#45;8383467734041402392">
<path fill="white" stroke="none" d="M365.67,-253C365.67,-253 414.33,-253 414.33,-253 419.67,-253 425,-258.33 425,-263.67 425,-263.67 425,-274.33 425,-274.33 425,-279.67 419.67,-285 414.33,-285 414.33,-285 365.67,-285 365.67,-285 360.33,-285 355,-279.67 355,-274.33 355,-274.33 355,-263.67 355,-263.67 355,-258.33 360.33,-253 365.67,-253"/>
<text text-anchor="start" x="360" y="-263.2" font-family="Helvetica,sans-Serif" font-size="14.00">arith_addf</text>
<path fill="none" stroke="black" d="M365.67,-253C365.67,-253 414.33,-253 414.33,-253 419.67,-253 425,-258.33 425,-263.67 425,-263.67 425,-274.33 425,-274.33 425,-279.67 419.67,-285 414.33,-285 414.33,-285 365.67,-285 365.67,-285 360.33,-285 355,-279.67 355,-274.33 355,-274.33 355,-263.67 355,-263.67 355,-258.33 360.33,-253 365.67,-253"/>
</a>
</g>
</g>
<!-- OtherAttr&#45;15542684115063436391 -->
<g id="node10" class="node">
<title>OtherAttr&#45;15542684115063436391</title>
<g id="a_node10"><a xlink:title="7: OtherAttr&#45;15542684115063436391">
<path fill="white" stroke="none" d="M537.92,-174C537.92,-174 582.08,-174 582.08,-174 587.42,-174 592.75,-179.33 592.75,-184.67 592.75,-184.67 592.75,-195.33 592.75,-195.33 592.75,-200.67 587.42,-206 582.08,-206 582.08,-206 537.92,-206 537.92,-206 532.58,-206 527.25,-200.67 527.25,-195.33 527.25,-195.33 527.25,-184.67 527.25,-184.67 527.25,-179.33 532.58,-174 537.92,-174"/>
<text text-anchor="start" x="532.25" y="-184.2" font-family="Helvetica,sans-Serif" font-size="14.00">OtherAttr</text>
<path fill="none" stroke="black" d="M537.92,-174C537.92,-174 582.08,-174 582.08,-174 587.42,-174 592.75,-179.33 592.75,-184.67 592.75,-184.67 592.75,-195.33 592.75,-195.33 592.75,-200.67 587.42,-206 582.08,-206 582.08,-206 537.92,-206 537.92,-206 532.58,-206 527.25,-200.67 527.25,-195.33 527.25,-195.33 527.25,-184.67 527.25,-184.67 527.25,-179.33 532.58,-174 537.92,-174"/>
</a>
</g>
</g>
<!-- arith_addf&#45;17922090101610208218 -->
<g id="node11" class="node">
<title>arith_addf&#45;17922090101610208218</title>
<g id="a_node11"><a xlink:title="6: arith_addf&#45;17922090101610208218">
<path fill="white" stroke="none" d="M439.67,-253C439.67,-253 488.33,-253 488.33,-253 493.67,-253 499,-258.33 499,-263.67 499,-263.67 499,-274.33 499,-274.33 499,-279.67 493.67,-285 488.33,-285 488.33,-285 439.67,-285 439.67,-285 434.33,-285 429,-279.67 429,-274.33 429,-274.33 429,-263.67 429,-263.67 429,-258.33 434.33,-253 439.67,-253"/>
<text text-anchor="start" x="434" y="-263.2" font-family="Helvetica,sans-Serif" font-size="14.00">arith_addf</text>
<path fill="none" stroke="black" d="M439.67,-253C439.67,-253 488.33,-253 488.33,-253 493.67,-253 499,-258.33 499,-263.67 499,-263.67 499,-274.33 499,-274.33 499,-279.67 493.67,-285 488.33,-285 488.33,-285 439.67,-285 439.67,-285 434.33,-285 429,-279.67 429,-274.33 429,-274.33 429,-263.67 429,-263.67 429,-258.33 434.33,-253 439.67,-253"/>
</a>
</g>
</g>
</g>
</svg>
