<?xml version="1.0" encoding="UTF-8" standalone="no"?>
<!DOCTYPE svg PUBLIC "-//W3C//DTD SVG 1.1//EN"
 "http://www.w3.org/Graphics/SVG/1.1/DTD/svg11.dtd">
<!-- Generated by graphviz version 12.0.0 (20240704.0754)
 -->
<!-- Pages: 1 -->
<svg width="695pt" height="309pt"
 viewBox="0.00 0.00 695.00 309.00" xmlns="http://www.w3.org/2000/svg" xmlns:xlink="http://www.w3.org/1999/xlink">
<g id="graph0" class="graph" transform="scale(1 1) rotate(0) translate(4 305)">
<polygon fill="white" stroke="none" points="-4,4 -4,-305 691,-305 691,4 -4,4"/>
<g id="clust1" class="cluster">
<title>outer_cluster_Op&#45;9</title>
</g>
<g id="clust2" class="cluster">
<title>cluster_Op&#45;9</title>
<path fill="#ffffb3" stroke="black" stroke-dasharray="5,2" d="M93,-11C93,-11 167,-11 167,-11 173,-11 179,-17 179,-23 179,-23 179,-41 179,-41 179,-47 173,-53 167,-53 167,-53 93,-53 93,-53 87,-53 81,-47 81,-41 81,-41 81,-23 81,-23 81,-17 87,-11 93,-11"/>
</g>
<g id="clust4" class="cluster">
<title>outer_cluster_Op&#45;14</title>
</g>
<g id="clust5" class="cluster">
<title>cluster_Op&#45;14</title>
<path fill="#ffffb3" stroke="black" stroke-dasharray="5,2" d="M455,-90C455,-90 491,-90 491,-90 497,-90 503,-96 503,-102 503,-102 503,-120 503,-120 503,-126 497,-132 491,-132 491,-132 455,-132 455,-132 449,-132 443,-126 443,-120 443,-120 443,-102 443,-102 443,-96 449,-90 455,-90"/>
</g>
<g id="clust7" class="cluster">
<title>outer_cluster_Op&#45;7</title>
</g>
<g id="clust8" class="cluster">
<title>cluster_Op&#45;7</title>
<path fill="#ffffb3" stroke="black" stroke-dasharray="5,2" d="M23,-90C23,-90 99,-90 99,-90 105,-90 111,-96 111,-102 111,-102 111,-120 111,-120 111,-126 105,-132 99,-132 99,-132 23,-132 23,-132 17,-132 11,-126 11,-120 11,-120 11,-102 11,-102 11,-96 17,-90 23,-90"/>
</g>
<g id="clust10" class="cluster">
<title>outer_cluster_Op&#45;12</title>
</g>
<g id="clust11" class="cluster">
<title>cluster_Op&#45;12</title>
<path fill="#ffffb3" stroke="black" stroke-dasharray="5,2" d="M496,-169C496,-169 532,-169 532,-169 538,-169 544,-175 544,-181 544,-181 544,-199 544,-199 544,-205 538,-211 532,-211 532,-211 496,-211 496,-211 490,-211 484,-205 484,-199 484,-199 484,-181 484,-181 484,-175 490,-169 496,-169"/>
</g>
<g id="clust13" class="cluster">
<title>outer_cluster_Op&#45;16</title>
</g>
<g id="clust14" class="cluster">
<title>cluster_Op&#45;16</title>
<path fill="#ffffb3" stroke="black" stroke-dasharray="5,2" d="M595,-248C595,-248 631,-248 631,-248 637,-248 643,-254 643,-260 643,-260 643,-278 643,-278 643,-284 637,-290 631,-290 631,-290 595,-290 595,-290 589,-290 583,-284 583,-278 583,-278 583,-260 583,-260 583,-254 589,-248 595,-248"/>
</g>
<g id="clust16" class="cluster">
<title>outer_cluster_Op&#45;10</title>
</g>
<g id="clust17" class="cluster">
<title>cluster_Op&#45;10</title>
<path fill="#ffffb3" stroke="black" stroke-dasharray="5,2" d="M55,-169C55,-169 229,-169 229,-169 235,-169 241,-175 241,-181 241,-181 241,-199 241,-199 241,-205 235,-211 229,-211 229,-211 55,-211 55,-211 49,-211 43,-205 43,-199 43,-199 43,-181 43,-181 43,-175 49,-169 55,-169"/>
</g>
<g id="clust19" class="cluster">
<title>outer_cluster_Type&#45;2</title>
</g>
<g id="clust20" class="cluster">
<title>cluster_Type&#45;2</title>
<path fill="#bebada" stroke="black" stroke-dasharray="5,2" d="M171,-90C171,-90 425,-90 425,-90 431,-90 437,-96 437,-102 437,-102 437,-120 437,-120 437,-126 431,-132 425,-132 425,-132 171,-132 171,-132 165,-132 159,-126 159,-120 159,-120 159,-102 159,-102 159,-96 165,-90 171,-90"/>
</g>
<g id="clust22" class="cluster">
<title>outer_cluster_Type&#45;1</title>
</g>
<g id="clust23" class="cluster">
<title>cluster_Type&#45;1</title>
<path fill="#bebada" stroke="black" stroke-dasharray="5,2" d="M390,-11C390,-11 426,-11 426,-11 432,-11 438,-17 438,-23 438,-23 438,-41 438,-41 438,-47 432,-53 426,-53 426,-53 390,-53 390,-53 384,-53 378,-47 378,-41 378,-41 378,-23 378,-23 378,-17 384,-11 390,-11"/>
</g>
<g id="clust25" class="cluster">
<title>outer_cluster_Type&#45;17</title>
</g>
<g id="clust26" class="cluster">
<title>cluster_Type&#45;17</title>
<path fill="#bebada" stroke="black" stroke-dasharray="5,2" d="M628,-169C628,-169 664,-169 664,-169 670,-169 676,-175 676,-181 676,-181 676,-199 676,-199 676,-205 670,-211 664,-211 664,-211 628,-211 628,-211 622,-211 616,-205 616,-199 616,-199 616,-181 616,-181 616,-175 622,-169 628,-169"/>
</g>
<g id="clust28" class="cluster">
<title>outer_cluster_IntVec&#45;0</title>
</g>
<g id="clust29" class="cluster">
<title>cluster_IntVec&#45;0</title>
<path fill="#fb8072" stroke="black" stroke-dasharray="5,2" d="M260,-248C260,-248 296,-248 296,-248 302,-248 308,-254 308,-260 308,-260 308,-278 308,-278 308,-284 302,-290 296,-290 296,-290 260,-290 260,-290 254,-290 248,-284 248,-278 248,-278 248,-260 248,-260 248,-254 254,-248 260,-248"/>
</g>
<g id="clust31" class="cluster">
<title>outer_cluster_i64&#45;100</title>
</g>
<g id="clust32" class="cluster">
<title>cluster_i64&#45;100</title>
<path fill="#80b1d3" stroke="black" stroke-dasharray="5,2" d="M271,-169C271,-169 423,-169 423,-169 429,-169 435,-175 435,-181 435,-181 435,-199 435,-199 435,-205 429,-211 423,-211 423,-211 271,-211 271,-211 265,-211 259,-205 259,-199 259,-199 259,-181 259,-181 259,-175 265,-169 271,-169"/>
</g>
<g id="clust34" class="cluster">
<title>outer_cluster_i64&#45;7</title>
</g>
<g id="clust35" class="cluster">
<title>cluster_i64&#45;7</title>
<path fill="#80b1d3" stroke="black" stroke-dasharray="5,2" d="M521,-90C521,-90 557,-90 557,-90 563,-90 569,-96 569,-102 569,-102 569,-120 569,-120 569,-126 563,-132 557,-132 557,-132 521,-132 521,-132 515,-132 509,-126 509,-120 509,-120 509,-102 509,-102 509,-96 515,-90 521,-90"/>
</g>
<g id="clust37" class="cluster">
<title>outer_cluster_i64&#45;8</title>
</g>
<g id="clust38" class="cluster">
<title>cluster_i64&#45;8</title>
<path fill="#80b1d3" stroke="black" stroke-dasharray="5,2" d="M456,-11C456,-11 492,-11 492,-11 498,-11 504,-17 504,-23 504,-23 504,-41 504,-41 504,-47 498,-53 492,-53 492,-53 456,-53 456,-53 450,-53 444,-47 444,-41 444,-41 444,-23 444,-23 444,-17 450,-11 456,-11"/>
</g>
<g id="clust40" class="cluster">
<title>outer_cluster_i64&#45;9</title>
</g>
<g id="clust41" class="cluster">
<title>cluster_i64&#45;9</title>
<path fill="#80b1d3" stroke="black" stroke-dasharray="5,2" d="M562,-169C562,-169 598,-169 598,-169 604,-169 610,-175 610,-181 610,-181 610,-199 610,-199 610,-205 604,-211 598,-211 598,-211 562,-211 562,-211 556,-211 550,-205 550,-199 550,-199 550,-181 550,-181 550,-175 556,-169 562,-169"/>
</g>
<!-- tensor_empty&#45;11743562013128004906&#45;&gt;type&#45;of&#45;3377577844511369682 -->
<g id="edge1" class="edge">
<title>tensor_empty&#45;11743562013128004906:s&#45;&gt;type&#45;of&#45;3377577844511369682</title>
<path fill="none" stroke="black" d="M130,-16C130,4.56 157.93,-7.67 176.25,-17 205.46,-31.87 225.98,-65.02 237.14,-87.44"/>
<polygon fill="black" stroke="black" points="233.77,-85.64 238.05,-88.76 236.65,-83.65 233.77,-85.64"/>
</g>
<!-- type&#45;of&#45;3377577844511369682&#45;&gt;linalg_matmul&#45;6554517236414981438 -->
<g id="edge24" class="edge">
<title>type&#45;of&#45;3377577844511369682:s&#45;&gt;linalg_matmul&#45;6554517236414981438</title>
<path fill="none" stroke="black" d="M247,-95C247,-82.99 265.67,-87.35 274,-96 279.09,-101.28 277.34,-122.47 274,-129 265.35,-145.93 249.45,-159.18 233.86,-168.88"/>
<polygon fill="black" stroke="black" points="238.76,-164.66 234.97,-168.36 240.24,-167.83 238.76,-164.66"/>
</g>
<!-- Value&#45;791192798209204816&#45;&gt;i64&#45;8 -->
<g id="edge2" class="edge">
<title>Value&#45;791192798209204816:s&#45;&gt;i64&#45;8</title>
<path fill="none" stroke="black" d="M462.5,-95C462.5,-81.98 464.98,-67.67 467.64,-56.08"/>
<polygon fill="black" stroke="black" points="467.88,-59.63 468.47,-54.36 464.72,-58.11 467.88,-59.63"/>
</g>
<!-- Value&#45;791192798209204816&#45;&gt;I32&#45;0 -->
<g id="edge3" class="edge">
<title>Value&#45;791192798209204816:s&#45;&gt;I32&#45;0</title>
<path fill="none" stroke="black" d="M483.5,-95C483.5,-88.72 458.22,-68.95 436.92,-53.4"/>
<polygon fill="black" stroke="black" points="442.59,-53.74 437.3,-53.55 441.32,-57 442.59,-53.74"/>
</g>
<!-- linalg_matmul&#45;7928377430433864719&#45;&gt;tensor_empty&#45;11743562013128004906 -->
<g id="edge4" class="edge">
<title>linalg_matmul&#45;7928377430433864719:s&#45;&gt;tensor_empty&#45;11743562013128004906</title>
<path fill="none" stroke="black" d="M38,-95C38,-72.47 57.22,-57.58 78.08,-48.06"/>
<polygon fill="black" stroke="black" points="76.07,-51.11 79.66,-47.22 74.43,-48.01 76.07,-51.11"/>
</g>
<!-- linalg_matmul&#45;7928377430433864719&#45;&gt;tensor_empty&#45;11743562013128004906 -->
<g id="edge5" class="edge">
<title>linalg_matmul&#45;7928377430433864719:s&#45;&gt;tensor_empty&#45;11743562013128004906</title>
<path fill="none" stroke="black" d="M72.5,-95C72.5,-78.41 83.7,-64.39 96.22,-53.9"/>
<polygon fill="black" stroke="black" points="93,-57.23 96.87,-53.61 91.58,-54.03 93,-57.23"/>
</g>
<!-- linalg_matmul&#45;7928377430433864719&#45;&gt;tensor_empty&#45;11743562013128004906 -->
<g id="edge6" class="edge">
<title>linalg_matmul&#45;7928377430433864719:s&#45;&gt;tensor_empty&#45;11743562013128004906</title>
<path fill="none" stroke="black" d="M89.5,-95C89.5,-79.95 97.97,-65.7 107.16,-54.66"/>
<polygon fill="black" stroke="black" points="105.21,-58.28 108.19,-53.9 103.13,-55.47 105.21,-58.28"/>
</g>
<!-- linalg_matmul&#45;7928377430433864719&#45;&gt;type&#45;of&#45;15952540911656918845 -->
<g id="edge7" class="edge">
<title>linalg_matmul&#45;7928377430433864719:s&#45;&gt;type&#45;of&#45;15952540911656918845</title>
<path fill="none" stroke="black" d="M101,-95C101,-24.24 241.49,-49.94 272,-65.5 281.5,-70.35 288.91,-79.35 294.27,-88.08"/>
<polygon fill="black" stroke="black" points="290.38,-86.86 295.24,-88.97 292.76,-84.29 290.38,-86.86"/>
</g>
<!-- type&#45;of&#45;15952540911656918845&#45;&gt;tensor_empty&#45;11743562013128004906 -->
<g id="edge22" class="edge">
<title>type&#45;of&#45;15952540911656918845:s&#45;&gt;tensor_empty&#45;11743562013128004906</title>
<path fill="none" stroke="black" d="M305,-95C305,-68.67 233.74,-50.7 182.17,-41.14"/>
<polygon fill="black" stroke="black" points="185.72,-40.55 180.43,-40.52 184.55,-43.84 185.72,-40.55"/>
</g>
<!-- Value&#45;12409868897340462793&#45;&gt;type&#45;of&#45;3377577844511369682 -->
<g id="edge9" class="edge">
<title>Value&#45;12409868897340462793:s&#45;&gt;type&#45;of&#45;3377577844511369682</title>
<path fill="none" stroke="black" d="M524.5,-174C524.5,-118.54 329.13,-156.48 278,-135 276.08,-134.2 274.18,-133.25 272.31,-132.21"/>
<polygon fill="black" stroke="black" points="278.5,-132.95 273.22,-132.59 277.13,-136.17 278.5,-132.95"/>
</g>
<!-- Value&#45;12409868897340462793&#45;&gt;i64&#45;7 -->
<g id="edge8" class="edge">
<title>Value&#45;12409868897340462793:s&#45;&gt;i64&#45;7</title>
<path fill="none" stroke="black" d="M503.5,-174C503.5,-159.37 511.03,-145.06 519.16,-133.88"/>
<polygon fill="black" stroke="black" points="517.76,-137.96 519.88,-133.11 515.2,-135.58 517.76,-137.96"/>
</g>
<!-- Value&#45;32704029747214834&#45;&gt;i64&#45;9 -->
<g id="edge10" class="edge">
<title>Value&#45;32704029747214834:s&#45;&gt;i64&#45;9</title>
<path fill="none" stroke="black" d="M602.5,-253C602.5,-239.35 597.62,-224.97 592.41,-213.49"/>
<polygon fill="black" stroke="black" points="595.83,-215.35 591.54,-212.24 592.95,-217.35 595.83,-215.35"/>
</g>
<!-- Value&#45;32704029747214834&#45;&gt;None&#45;0 -->
<g id="edge11" class="edge">
<title>Value&#45;32704029747214834:s&#45;&gt;None&#45;0</title>
<path fill="none" stroke="black" d="M623.5,-253C623.5,-239.35 628.38,-224.97 633.59,-213.49"/>
<polygon fill="black" stroke="black" points="633.05,-217.35 634.46,-212.24 630.17,-215.35 633.05,-217.35"/>
</g>
<!-- linalg_matmul&#45;10897181695623479414&#45;&gt;tensor_empty&#45;11743562013128004906 -->
<g id="edge13" class="edge">
<title>linalg_matmul&#45;10897181695623479414:s&#45;&gt;tensor_empty&#45;11743562013128004906</title>
<path fill="none" stroke="black" d="M104.5,-174C104.5,-156.35 108.8,-152.36 112,-135 116.97,-108.03 122.41,-77 125.99,-56.31"/>
<polygon fill="black" stroke="black" points="126.7,-59.73 126.61,-54.44 123.38,-58.64 126.7,-59.73"/>
</g>
<!-- linalg_matmul&#45;10897181695623479414&#45;&gt;tensor_empty&#45;11743562013128004906 -->
<g id="edge14" class="edge">
<title>linalg_matmul&#45;10897181695623479414:s&#45;&gt;tensor_empty&#45;11743562013128004906</title>
<path fill="none" stroke="black" d="M121.5,-174C121.5,-132.45 125.22,-84.14 127.74,-56.22"/>
<polygon fill="black" stroke="black" points="128.89,-59.72 128.05,-54.49 125.44,-59.1 128.89,-59.72"/>
</g>
<!-- linalg_matmul&#45;10897181695623479414&#45;&gt;linalg_matmul&#45;7928377430433864719 -->
<g id="edge12" class="edge">
<title>linalg_matmul&#45;10897181695623479414:s&#45;&gt;linalg_matmul&#45;7928377430433864719</title>
<path fill="none" stroke="black" d="M70,-174C70,-160.97 68.03,-146.55 65.93,-134.91"/>
<polygon fill="black" stroke="black" points="68.82,-137.39 65.33,-133.4 65.57,-138.7 68.82,-137.39"/>
</g>
<!-- linalg_matmul&#45;10897181695623479414&#45;&gt;type&#45;of&#45;4208978898528913939 -->
<g id="edge15" class="edge">
<title>linalg_matmul&#45;10897181695623479414:s&#45;&gt;type&#45;of&#45;4208978898528913939</title>
<path fill="none" stroke="black" d="M133,-174C133,-157.1 144.6,-142.74 157.25,-132.11"/>
<polygon fill="black" stroke="black" points="156.07,-136.15 158.01,-131.22 153.42,-133.86 156.07,-136.15"/>
</g>
<!-- type&#45;of&#45;4208978898528913939&#45;&gt;linalg_matmul&#45;7928377430433864719 -->
<g id="edge23" class="edge">
<title>type&#45;of&#45;4208978898528913939:s&#45;&gt;linalg_matmul&#45;7928377430433864719</title>
<path fill="none" stroke="black" d="M189,-95C189,-61.89 145.99,-72.74 110.03,-87.59"/>
<polygon fill="black" stroke="black" points="109.64,-85.85 105.72,-89.41 111,-89.08 109.64,-85.85"/>
</g>
<!-- linalg_matmul&#45;6554517236414981438&#45;&gt;tensor_empty&#45;11743562013128004906 -->
<g id="edge16" class="edge">
<title>linalg_matmul&#45;6554517236414981438:s&#45;&gt;tensor_empty&#45;11743562013128004906</title>
<path fill="none" stroke="black" d="M168,-174C168,-154.31 153.37,-153.63 147,-135 138.04,-108.79 133.7,-77.12 131.67,-56.09"/>
<polygon fill="black" stroke="black" points="134.01,-59.08 131.37,-54.49 130.57,-59.72 134.01,-59.08"/>
</g>
<!-- linalg_matmul&#45;6554517236414981438&#45;&gt;tensor_empty&#45;11743562013128004906 -->
<g id="edge18" class="edge">
<title>linalg_matmul&#45;6554517236414981438:s&#45;&gt;tensor_empty&#45;11743562013128004906</title>
<path fill="none" stroke="black" d="M219.5,-174C219.5,-141.63 177.25,-161.02 158,-135 153.25,-128.58 142.04,-83.84 135.33,-55.79"/>
<polygon fill="black" stroke="black" points="138.44,-57.98 134.59,-54.34 135.33,-59.59 138.44,-57.98"/>
</g>
<!-- linalg_matmul&#45;6554517236414981438&#45;&gt;type&#45;of&#45;3377577844511369682 -->
<g id="edge19" class="edge">
<title>linalg_matmul&#45;6554517236414981438:s&#45;&gt;type&#45;of&#45;3377577844511369682</title>
<path fill="none" stroke="black" d="M231,-174C231,-160.77 234.46,-146.45 238.15,-134.91"/>
<polygon fill="black" stroke="black" points="238.63,-138.72 238.7,-133.42 235.34,-137.52 238.63,-138.72"/>
</g>
<!-- linalg_matmul&#45;6554517236414981438&#45;&gt;linalg_matmul&#45;7928377430433864719 -->
<g id="edge17" class="edge">
<title>linalg_matmul&#45;6554517236414981438:s&#45;&gt;linalg_matmul&#45;7928377430433864719</title>
<path fill="none" stroke="black" d="M202.5,-174C202.5,-163.93 153.84,-144.35 113.6,-129.88"/>
<polygon fill="black" stroke="black" points="117.68,-129.71 112.39,-129.37 116.32,-132.93 117.68,-129.71"/>
</g>
<!-- RankedTensor&#45;5871781006564002453&#45;&gt;I32&#45;0 -->
<g id="edge21" class="edge">
<title>RankedTensor&#45;5871781006564002453:s&#45;&gt;I32&#45;0</title>
<path fill="none" stroke="black" d="M408.5,-95C408.5,-82.22 408.39,-67.96 408.28,-56.35"/>
<polygon fill="black" stroke="black" points="410.09,-59.48 408.24,-54.51 406.59,-59.55 410.09,-59.48"/>
</g>
<!-- RankedTensor&#45;5871781006564002453&#45;&gt;IntVec&#45;0 -->
<g id="edge20" class="edge">
<title>RankedTensor&#45;5871781006564002453:s&#45;&gt;IntVec&#45;0</title>
<path fill="none" stroke="black" d="M361,-95C361,-84.1 344.39,-88.48 336.5,-96 323.9,-108 343.31,-120.98 333,-135 311.63,-164.06 278.05,-136.02 258,-166 241.98,-189.96 253.73,-223.73 264.84,-245.74"/>
<polygon fill="black" stroke="black" points="261.21,-244.2 265.8,-246.85 263.87,-241.92 261.21,-244.2"/>
</g>
<!-- IntVec&#45;0&#45;&gt;i64&#45;100 -->
<g id="edge25" class="edge">
<title>IntVec&#45;0:s&#45;&gt;i64&#45;100</title>
<path fill="none" stroke="black" d="M266.5,-253C266.5,-239.35 271.38,-224.97 276.59,-213.49"/>
<polygon fill="black" stroke="black" points="276.05,-217.35 277.46,-212.24 273.17,-215.35 276.05,-217.35"/>
</g>
<!-- IntVec&#45;0&#45;&gt;i64&#45;100 -->
<g id="edge26" class="edge">
<title>IntVec&#45;0:s&#45;&gt;i64&#45;100</title>
<path fill="none" stroke="black" d="M289.5,-253C289.5,-240.22 289.39,-225.96 289.28,-214.35"/>
<polygon fill="black" stroke="black" points="291.09,-217.48 289.24,-212.51 287.59,-217.55 291.09,-217.48"/>
</g>
<!-- nrows&#45;11743562013128004906&#45;&gt;RankedTensor&#45;5871781006564002453 -->
<g id="edge27" class="edge">
<title>nrows&#45;11743562013128004906:s&#45;&gt;RankedTensor&#45;5871781006564002453</title>
<path fill="none" stroke="black" d="M405,-174C405,-160.52 400.66,-146.15 396.03,-134.64"/>
<polygon fill="black" stroke="black" points="399.24,-136.89 395.32,-133.33 396.16,-138.56 399.24,-136.89"/>
</g>
<!-- ncols&#45;11743562013128004906&#45;&gt;type&#45;of&#45;15952540911656918845 -->
<g id="edge28" class="edge">
<title>ncols&#45;11743562013128004906:s&#45;&gt;type&#45;of&#45;15952540911656918845</title>
<path fill="none" stroke="black" d="M347,-174C347,-158.89 338.35,-144.73 328.89,-133.76"/>
<polygon fill="black" stroke="black" points="332.8,-134.47 327.74,-132.9 330.71,-137.29 332.8,-134.47"/>
</g>
<!-- tensor_empty&#45;11743562013128004906 -->
<g id="node1" class="node">
<title>tensor_empty&#45;11743562013128004906</title>
<g id="a_node1"><a xlink:title="Op&#45;9: tensor_empty&#45;11743562013128004906">
<path fill="white" stroke="none" d="M94.42,-16C94.42,-16 165.58,-16 165.58,-16 170.92,-16 176.25,-21.33 176.25,-26.67 176.25,-26.67 176.25,-37.33 176.25,-37.33 176.25,-42.67 170.92,-48 165.58,-48 165.58,-48 94.42,-48 94.42,-48 89.08,-48 83.75,-42.67 83.75,-37.33 83.75,-37.33 83.75,-26.67 83.75,-26.67 83.75,-21.33 89.08,-16 94.42,-16"/>
<text text-anchor="start" x="88.75" y="-26.2" font-family="Helvetica,sans-Serif" font-size="14.00">tensor_empty</text>
<path fill="none" stroke="black" d="M94.42,-16C94.42,-16 165.58,-16 165.58,-16 170.92,-16 176.25,-21.33 176.25,-26.67 176.25,-26.67 176.25,-37.33 176.25,-37.33 176.25,-42.67 170.92,-48 165.58,-48 165.58,-48 94.42,-48 94.42,-48 89.08,-48 83.75,-42.67 83.75,-37.33 83.75,-37.33 83.75,-26.67 83.75,-26.67 83.75,-21.33 89.08,-16 94.42,-16"/>
</a>
</g>
</g>
<!-- type&#45;of&#45;3377577844511369682 -->
<g id="node2" class="node">
<title>type&#45;of&#45;3377577844511369682</title>
<g id="a_node2"><a xlink:title="Type&#45;2: type&#45;of&#45;3377577844511369682">
<path fill="white" stroke="none" d="M232.04,-95C232.04,-95 261.96,-95 261.96,-95 267.29,-95 272.62,-100.33 272.62,-105.67 272.62,-105.67 272.62,-116.33 272.62,-116.33 272.62,-121.67 267.29,-127 261.96,-127 261.96,-127 232.04,-127 232.04,-127 226.71,-127 221.38,-121.67 221.38,-116.33 221.38,-116.33 221.38,-105.67 221.38,-105.67 221.38,-100.33 226.71,-95 232.04,-95"/>
<text text-anchor="start" x="226.38" y="-105.2" font-family="Helvetica,sans-Serif" font-size="14.00">type&#45;of</text>
<path fill="none" stroke="black" d="M232.04,-95C232.04,-95 261.96,-95 261.96,-95 267.29,-95 272.62,-100.33 272.62,-105.67 272.62,-105.67 272.62,-116.33 272.62,-116.33 272.62,-121.67 267.29,-127 261.96,-127 261.96,-127 232.04,-127 232.04,-127 226.71,-127 221.38,-121.67 221.38,-116.33 221.38,-116.33 221.38,-105.67 221.38,-105.67 221.38,-100.33 226.71,-95 232.04,-95"/>
</a>
</g>
</g>
<!-- Value&#45;791192798209204816 -->
<g id="node3" class="node">
<title>Value&#45;791192798209204816</title>
<g id="a_node3"><a xlink:title="Op&#45;14: Value&#45;791192798209204816">
<path fill="white" stroke="none" d="M461.67,-95C461.67,-95 484.33,-95 484.33,-95 489.67,-95 495,-100.33 495,-105.67 495,-105.67 495,-116.33 495,-116.33 495,-121.67 489.67,-127 484.33,-127 484.33,-127 461.67,-127 461.67,-127 456.33,-127 451,-121.67 451,-116.33 451,-116.33 451,-105.67 451,-105.67 451,-100.33 456.33,-95 461.67,-95"/>
<text text-anchor="start" x="455.75" y="-105.2" font-family="Helvetica,sans-Serif" font-size="14.00">Value</text>
<path fill="none" stroke="black" d="M461.67,-95C461.67,-95 484.33,-95 484.33,-95 489.67,-95 495,-100.33 495,-105.67 495,-105.67 495,-116.33 495,-116.33 495,-121.67 489.67,-127 484.33,-127 484.33,-127 461.67,-127 461.67,-127 456.33,-127 451,-121.67 451,-116.33 451,-116.33 451,-105.67 451,-105.67 451,-100.33 456.33,-95 461.67,-95"/>
</a>
</g>
</g>
<!-- i64&#45;8 -->
<g id="node4" class="node">
<title>i64&#45;8</title>
<g id="a_node4"><a xlink:title="i64&#45;8: i64&#45;8">
<path fill="white" stroke="none" d="M468.67,-16C468.67,-16 479.33,-16 479.33,-16 484.67,-16 490,-21.33 490,-26.67 490,-26.67 490,-37.33 490,-37.33 490,-42.67 484.67,-48 479.33,-48 479.33,-48 468.67,-48 468.67,-48 463.33,-48 458,-42.67 458,-37.33 458,-37.33 458,-26.67 458,-26.67 458,-21.33 463.33,-16 468.67,-16"/>
<text text-anchor="start" x="470.25" y="-26.2" font-family="Helvetica,sans-Serif" font-size="14.00">8</text>
<path fill="none" stroke="black" d="M468.67,-16C468.67,-16 479.33,-16 479.33,-16 484.67,-16 490,-21.33 490,-26.67 490,-26.67 490,-37.33 490,-37.33 490,-42.67 484.67,-48 479.33,-48 479.33,-48 468.67,-48 468.67,-48 463.33,-48 458,-42.67 458,-37.33 458,-37.33 458,-26.67 458,-26.67 458,-21.33 463.33,-16 468.67,-16"/>
</a>
</g>
</g>
<!-- I32&#45;0 -->
<g id="node5" class="node">
<title>I32&#45;0</title>
<g id="a_node5"><a xlink:title="Type&#45;1: I32&#45;0">
<path fill="white" stroke="none" d="M402.67,-16C402.67,-16 413.33,-16 413.33,-16 418.67,-16 424,-21.33 424,-26.67 424,-26.67 424,-37.33 424,-37.33 424,-42.67 418.67,-48 413.33,-48 413.33,-48 402.67,-48 402.67,-48 397.33,-48 392,-42.67 392,-37.33 392,-37.33 392,-26.67 392,-26.67 392,-21.33 397.33,-16 402.67,-16"/>
<text text-anchor="start" x="398.62" y="-26.2" font-family="Helvetica,sans-Serif" font-size="14.00">I32</text>
<path fill="none" stroke="black" d="M402.67,-16C402.67,-16 413.33,-16 413.33,-16 418.67,-16 424,-21.33 424,-26.67 424,-26.67 424,-37.33 424,-37.33 424,-42.67 418.67,-48 413.33,-48 413.33,-48 402.67,-48 402.67,-48 397.33,-48 392,-42.67 392,-37.33 392,-37.33 392,-26.67 392,-26.67 392,-21.33 397.33,-16 402.67,-16"/>
</a>
</g>
</g>
<!-- linalg_matmul&#45;7928377430433864719 -->
<g id="node6" class="node">
<title>linalg_matmul&#45;7928377430433864719</title>
<g id="a_node6"><a xlink:title="Op&#45;7: linalg_matmul&#45;7928377430433864719">
<path fill="white" stroke="none" d="M24.67,-95C24.67,-95 97.33,-95 97.33,-95 102.67,-95 108,-100.33 108,-105.67 108,-105.67 108,-116.33 108,-116.33 108,-121.67 102.67,-127 97.33,-127 97.33,-127 24.67,-127 24.67,-127 19.33,-127 14,-121.67 14,-116.33 14,-116.33 14,-105.67 14,-105.67 14,-100.33 19.33,-95 24.67,-95"/>
<text text-anchor="start" x="18.62" y="-105.2" font-family="Helvetica,sans-Serif" font-size="14.00">linalg_matmul</text>
<path fill="none" stroke="black" d="M24.67,-95C24.67,-95 97.33,-95 97.33,-95 102.67,-95 108,-100.33 108,-105.67 108,-105.67 108,-116.33 108,-116.33 108,-121.67 102.67,-127 97.33,-127 97.33,-127 24.67,-127 24.67,-127 19.33,-127 14,-121.67 14,-116.33 14,-116.33 14,-105.67 14,-105.67 14,-100.33 19.33,-95 24.67,-95"/>
</a>
</g>
</g>
<!-- type&#45;of&#45;15952540911656918845 -->
<g id="node7" class="node">
<title>type&#45;of&#45;15952540911656918845</title>
<g id="a_node7"><a xlink:title="Type&#45;2: type&#45;of&#45;15952540911656918845">
<path fill="white" stroke="none" d="M290.04,-95C290.04,-95 319.96,-95 319.96,-95 325.29,-95 330.62,-100.33 330.62,-105.67 330.62,-105.67 330.62,-116.33 330.62,-116.33 330.62,-121.67 325.29,-127 319.96,-127 319.96,-127 290.04,-127 290.04,-127 284.71,-127 279.38,-121.67 279.38,-116.33 279.38,-116.33 279.38,-105.67 279.38,-105.67 279.38,-100.33 284.71,-95 290.04,-95"/>
<text text-anchor="start" x="284.38" y="-105.2" font-family="Helvetica,sans-Serif" font-size="14.00">type&#45;of</text>
<path fill="none" stroke="black" d="M290.04,-95C290.04,-95 319.96,-95 319.96,-95 325.29,-95 330.62,-100.33 330.62,-105.67 330.62,-105.67 330.62,-116.33 330.62,-116.33 330.62,-121.67 325.29,-127 319.96,-127 319.96,-127 290.04,-127 290.04,-127 284.71,-127 279.38,-121.67 279.38,-116.33 279.38,-116.33 279.38,-105.67 279.38,-105.67 279.38,-100.33 284.71,-95 290.04,-95"/>
</a>
</g>
</g>
<!-- Value&#45;12409868897340462793 -->
<g id="node8" class="node">
<title>Value&#45;12409868897340462793</title>
<g id="a_node8"><a xlink:title="Op&#45;12: Value&#45;12409868897340462793">
<path fill="white" stroke="none" d="M502.67,-174C502.67,-174 525.33,-174 525.33,-174 530.67,-174 536,-179.33 536,-184.67 536,-184.67 536,-195.33 536,-195.33 536,-200.67 530.67,-206 525.33,-206 525.33,-206 502.67,-206 502.67,-206 497.33,-206 492,-200.67 492,-195.33 492,-195.33 492,-184.67 492,-184.67 492,-179.33 497.33,-174 502.67,-174"/>
<text text-anchor="start" x="496.75" y="-184.2" font-family="Helvetica,sans-Serif" font-size="14.00">Value</text>
<path fill="none" stroke="black" d="M502.67,-174C502.67,-174 525.33,-174 525.33,-174 530.67,-174 536,-179.33 536,-184.67 536,-184.67 536,-195.33 536,-195.33 536,-200.67 530.67,-206 525.33,-206 525.33,-206 502.67,-206 502.67,-206 497.33,-206 492,-200.67 492,-195.33 492,-195.33 492,-184.67 492,-184.67 492,-179.33 497.33,-174 502.67,-174"/>
</a>
</g>
</g>
<!-- i64&#45;7 -->
<g id="node9" class="node">
<title>i64&#45;7</title>
<g id="a_node9"><a xlink:title="i64&#45;7: i64&#45;7">
<path fill="white" stroke="none" d="M533.67,-95C533.67,-95 544.33,-95 544.33,-95 549.67,-95 555,-100.33 555,-105.67 555,-105.67 555,-116.33 555,-116.33 555,-121.67 549.67,-127 544.33,-127 544.33,-127 533.67,-127 533.67,-127 528.33,-127 523,-121.67 523,-116.33 523,-116.33 523,-105.67 523,-105.67 523,-100.33 528.33,-95 533.67,-95"/>
<text text-anchor="start" x="535.25" y="-105.2" font-family="Helvetica,sans-Serif" font-size="14.00">7</text>
<path fill="none" stroke="black" d="M533.67,-95C533.67,-95 544.33,-95 544.33,-95 549.67,-95 555,-100.33 555,-105.67 555,-105.67 555,-116.33 555,-116.33 555,-121.67 549.67,-127 544.33,-127 544.33,-127 533.67,-127 533.67,-127 528.33,-127 523,-121.67 523,-116.33 523,-116.33 523,-105.67 523,-105.67 523,-100.33 528.33,-95 533.67,-95"/>
</a>
</g>
</g>
<!-- Value&#45;32704029747214834 -->
<g id="node10" class="node">
<title>Value&#45;32704029747214834</title>
<g id="a_node10"><a xlink:title="Op&#45;16: Value&#45;32704029747214834">
<path fill="white" stroke="none" d="M601.67,-253C601.67,-253 624.33,-253 624.33,-253 629.67,-253 635,-258.33 635,-263.67 635,-263.67 635,-274.33 635,-274.33 635,-279.67 629.67,-285 624.33,-285 624.33,-285 601.67,-285 601.67,-285 596.33,-285 591,-279.67 591,-274.33 591,-274.33 591,-263.67 591,-263.67 591,-258.33 596.33,-253 601.67,-253"/>
<text text-anchor="start" x="595.75" y="-263.2" font-family="Helvetica,sans-Serif" font-size="14.00">Value</text>
<path fill="none" stroke="black" d="M601.67,-253C601.67,-253 624.33,-253 624.33,-253 629.67,-253 635,-258.33 635,-263.67 635,-263.67 635,-274.33 635,-274.33 635,-279.67 629.67,-285 624.33,-285 624.33,-285 601.67,-285 601.67,-285 596.33,-285 591,-279.67 591,-274.33 591,-274.33 591,-263.67 591,-263.67 591,-258.33 596.33,-253 601.67,-253"/>
</a>
</g>
</g>
<!-- i64&#45;9 -->
<g id="node11" class="node">
<title>i64&#45;9</title>
<g id="a_node11"><a xlink:title="i64&#45;9: i64&#45;9">
<path fill="white" stroke="none" d="M574.67,-174C574.67,-174 585.33,-174 585.33,-174 590.67,-174 596,-179.33 596,-184.67 596,-184.67 596,-195.33 596,-195.33 596,-200.67 590.67,-206 585.33,-206 585.33,-206 574.67,-206 574.67,-206 569.33,-206 564,-200.67 564,-195.33 564,-195.33 564,-184.67 564,-184.67 564,-179.33 569.33,-174 574.67,-174"/>
<text text-anchor="start" x="576.25" y="-184.2" font-family="Helvetica,sans-Serif" font-size="14.00">9</text>
<path fill="none" stroke="black" d="M574.67,-174C574.67,-174 585.33,-174 585.33,-174 590.67,-174 596,-179.33 596,-184.67 596,-184.67 596,-195.33 596,-195.33 596,-200.67 590.67,-206 585.33,-206 585.33,-206 574.67,-206 574.67,-206 569.33,-206 564,-200.67 564,-195.33 564,-195.33 564,-184.67 564,-184.67 564,-179.33 569.33,-174 574.67,-174"/>
</a>
</g>
</g>
<!-- None&#45;0 -->
<g id="node12" class="node">
<title>None&#45;0</title>
<g id="a_node12"><a xlink:title="Type&#45;17: None&#45;0">
<path fill="white" stroke="none" d="M635.54,-174C635.54,-174 656.46,-174 656.46,-174 661.79,-174 667.12,-179.33 667.12,-184.67 667.12,-184.67 667.12,-195.33 667.12,-195.33 667.12,-200.67 661.79,-206 656.46,-206 656.46,-206 635.54,-206 635.54,-206 630.21,-206 624.88,-200.67 624.88,-195.33 624.88,-195.33 624.88,-184.67 624.88,-184.67 624.88,-179.33 630.21,-174 635.54,-174"/>
<text text-anchor="start" x="629.88" y="-184.2" font-family="Helvetica,sans-Serif" font-size="14.00">None</text>
<path fill="none" stroke="black" d="M635.54,-174C635.54,-174 656.46,-174 656.46,-174 661.79,-174 667.12,-179.33 667.12,-184.67 667.12,-184.67 667.12,-195.33 667.12,-195.33 667.12,-200.67 661.79,-206 656.46,-206 656.46,-206 635.54,-206 635.54,-206 630.21,-206 624.88,-200.67 624.88,-195.33 624.88,-195.33 624.88,-184.67 624.88,-184.67 624.88,-179.33 630.21,-174 635.54,-174"/>
</a>
</g>
</g>
<!-- linalg_matmul&#45;10897181695623479414 -->
<g id="node13" class="node">
<title>linalg_matmul&#45;10897181695623479414</title>
<g id="a_node13"><a xlink:title="Op&#45;10: linalg_matmul&#45;10897181695623479414">
<path fill="white" stroke="none" d="M56.67,-174C56.67,-174 129.33,-174 129.33,-174 134.67,-174 140,-179.33 140,-184.67 140,-184.67 140,-195.33 140,-195.33 140,-200.67 134.67,-206 129.33,-206 129.33,-206 56.67,-206 56.67,-206 51.33,-206 46,-200.67 46,-195.33 46,-195.33 46,-184.67 46,-184.67 46,-179.33 51.33,-174 56.67,-174"/>
<text text-anchor="start" x="50.62" y="-184.2" font-family="Helvetica,sans-Serif" font-size="14.00">linalg_matmul</text>
<path fill="none" stroke="black" d="M56.67,-174C56.67,-174 129.33,-174 129.33,-174 134.67,-174 140,-179.33 140,-184.67 140,-184.67 140,-195.33 140,-195.33 140,-200.67 134.67,-206 129.33,-206 129.33,-206 56.67,-206 56.67,-206 51.33,-206 46,-200.67 46,-195.33 46,-195.33 46,-184.67 46,-184.67 46,-179.33 51.33,-174 56.67,-174"/>
</a>
</g>
</g>
<!-- type&#45;of&#45;4208978898528913939 -->
<g id="node14" class="node">
<title>type&#45;of&#45;4208978898528913939</title>
<g id="a_node14"><a xlink:title="Type&#45;2: type&#45;of&#45;4208978898528913939">
<path fill="white" stroke="none" d="M174.04,-95C174.04,-95 203.96,-95 203.96,-95 209.29,-95 214.62,-100.33 214.62,-105.67 214.62,-105.67 214.62,-116.33 214.62,-116.33 214.62,-121.67 209.29,-127 203.96,-127 203.96,-127 174.04,-127 174.04,-127 168.71,-127 163.38,-121.67 163.38,-116.33 163.38,-116.33 163.38,-105.67 163.38,-105.67 163.38,-100.33 168.71,-95 174.04,-95"/>
<text text-anchor="start" x="168.38" y="-105.2" font-family="Helvetica,sans-Serif" font-size="14.00">type&#45;of</text>
<path fill="none" stroke="black" d="M174.04,-95C174.04,-95 203.96,-95 203.96,-95 209.29,-95 214.62,-100.33 214.62,-105.67 214.62,-105.67 214.62,-116.33 214.62,-116.33 214.62,-121.67 209.29,-127 203.96,-127 203.96,-127 174.04,-127 174.04,-127 168.71,-127 163.38,-121.67 163.38,-116.33 163.38,-116.33 163.38,-105.67 163.38,-105.67 163.38,-100.33 168.71,-95 174.04,-95"/>
</a>
</g>
</g>
<!-- linalg_matmul&#45;6554517236414981438 -->
<g id="node15" class="node">
<title>linalg_matmul&#45;6554517236414981438</title>
<g id="a_node15"><a xlink:title="Op&#45;10: linalg_matmul&#45;6554517236414981438">
<path fill="white" stroke="none" d="M154.67,-174C154.67,-174 227.33,-174 227.33,-174 232.67,-174 238,-179.33 238,-184.67 238,-184.67 238,-195.33 238,-195.33 238,-200.67 232.67,-206 227.33,-206 227.33,-206 154.67,-206 154.67,-206 149.33,-206 144,-200.67 144,-195.33 144,-195.33 144,-184.67 144,-184.67 144,-179.33 149.33,-174 154.67,-174"/>
<text text-anchor="start" x="148.62" y="-184.2" font-family="Helvetica,sans-Serif" font-size="14.00">linalg_matmul</text>
<path fill="none" stroke="black" d="M154.67,-174C154.67,-174 227.33,-174 227.33,-174 232.67,-174 238,-179.33 238,-184.67 238,-184.67 238,-195.33 238,-195.33 238,-200.67 232.67,-206 227.33,-206 227.33,-206 154.67,-206 154.67,-206 149.33,-206 144,-200.67 144,-195.33 144,-195.33 144,-184.67 144,-184.67 144,-179.33 149.33,-174 154.67,-174"/>
</a>
</g>
</g>
<!-- RankedTensor&#45;5871781006564002453 -->
<g id="node16" class="node">
<title>RankedTensor&#45;5871781006564002453</title>
<g id="a_node16"><a xlink:title="Type&#45;2: RankedTensor&#45;5871781006564002453">
<path fill="white" stroke="none" d="M347.17,-95C347.17,-95 422.83,-95 422.83,-95 428.17,-95 433.5,-100.33 433.5,-105.67 433.5,-105.67 433.5,-116.33 433.5,-116.33 433.5,-121.67 428.17,-127 422.83,-127 422.83,-127 347.17,-127 347.17,-127 341.83,-127 336.5,-121.67 336.5,-116.33 336.5,-116.33 336.5,-105.67 336.5,-105.67 336.5,-100.33 341.83,-95 347.17,-95"/>
<text text-anchor="start" x="341.5" y="-105.2" font-family="Helvetica,sans-Serif" font-size="14.00">RankedTensor</text>
<path fill="none" stroke="black" d="M347.17,-95C347.17,-95 422.83,-95 422.83,-95 428.17,-95 433.5,-100.33 433.5,-105.67 433.5,-105.67 433.5,-116.33 433.5,-116.33 433.5,-121.67 428.17,-127 422.83,-127 422.83,-127 347.17,-127 347.17,-127 341.83,-127 336.5,-121.67 336.5,-116.33 336.5,-116.33 336.5,-105.67 336.5,-105.67 336.5,-100.33 341.83,-95 347.17,-95"/>
</a>
</g>
</g>
<!-- IntVec&#45;0 -->
<g id="node17" class="node">
<title>IntVec&#45;0</title>
<g id="a_node17"><a xlink:title="IntVec&#45;0: IntVec&#45;0">
<path fill="white" stroke="none" d="M264.67,-253C264.67,-253 291.33,-253 291.33,-253 296.67,-253 302,-258.33 302,-263.67 302,-263.67 302,-274.33 302,-274.33 302,-279.67 296.67,-285 291.33,-285 291.33,-285 264.67,-285 264.67,-285 259.33,-285 254,-279.67 254,-274.33 254,-274.33 254,-263.67 254,-263.67 254,-258.33 259.33,-253 264.67,-253"/>
<text text-anchor="start" x="258.88" y="-263.2" font-family="Helvetica,sans-Serif" font-size="14.00">IntVec</text>
<path fill="none" stroke="black" d="M264.67,-253C264.67,-253 291.33,-253 291.33,-253 296.67,-253 302,-258.33 302,-263.67 302,-263.67 302,-274.33 302,-274.33 302,-279.67 296.67,-285 291.33,-285 291.33,-285 264.67,-285 264.67,-285 259.33,-285 254,-279.67 254,-274.33 254,-274.33 254,-263.67 254,-263.67 254,-258.33 259.33,-253 264.67,-253"/>
</a>
</g>
</g>
<!-- i64&#45;100 -->
<g id="node18" class="node">
<title>i64&#45;100</title>
<g id="a_node18"><a xlink:title="i64&#45;100: i64&#45;100">
<path fill="white" stroke="none" d="M283.42,-174C283.42,-174 294.58,-174 294.58,-174 299.92,-174 305.25,-179.33 305.25,-184.67 305.25,-184.67 305.25,-195.33 305.25,-195.33 305.25,-200.67 299.92,-206 294.58,-206 294.58,-206 283.42,-206 283.42,-206 278.08,-206 272.75,-200.67 272.75,-195.33 272.75,-195.33 272.75,-184.67 272.75,-184.67 272.75,-179.33 278.08,-174 283.42,-174"/>
<text text-anchor="start" x="277.75" y="-184.2" font-family="Helvetica,sans-Serif" font-size="14.00">100</text>
<path fill="none" stroke="black" d="M283.42,-174C283.42,-174 294.58,-174 294.58,-174 299.92,-174 305.25,-179.33 305.25,-184.67 305.25,-184.67 305.25,-195.33 305.25,-195.33 305.25,-200.67 299.92,-206 294.58,-206 294.58,-206 283.42,-206 283.42,-206 278.08,-206 272.75,-200.67 272.75,-195.33 272.75,-195.33 272.75,-184.67 272.75,-184.67 272.75,-179.33 278.08,-174 283.42,-174"/>
</a>
</g>
</g>
<!-- nrows&#45;11743562013128004906 -->
<g id="node19" class="node">
<title>nrows&#45;11743562013128004906</title>
<g id="a_node19"><a xlink:title="i64&#45;100: nrows&#45;11743562013128004906">
<path fill="white" stroke="none" d="M392.67,-174C392.67,-174 417.33,-174 417.33,-174 422.67,-174 428,-179.33 428,-184.67 428,-184.67 428,-195.33 428,-195.33 428,-200.67 422.67,-206 417.33,-206 417.33,-206 392.67,-206 392.67,-206 387.33,-206 382,-200.67 382,-195.33 382,-195.33 382,-184.67 382,-184.67 382,-179.33 387.33,-174 392.67,-174"/>
<text text-anchor="start" x="387" y="-184.2" font-family="Helvetica,sans-Serif" font-size="14.00">nrows</text>
<path fill="none" stroke="black" d="M392.67,-174C392.67,-174 417.33,-174 417.33,-174 422.67,-174 428,-179.33 428,-184.67 428,-184.67 428,-195.33 428,-195.33 428,-200.67 422.67,-206 417.33,-206 417.33,-206 392.67,-206 392.67,-206 387.33,-206 382,-200.67 382,-195.33 382,-195.33 382,-184.67 382,-184.67 382,-179.33 387.33,-174 392.67,-174"/>
</a>
</g>
</g>
<!-- ncols&#45;11743562013128004906 -->
<g id="node20" class="node">
<title>ncols&#45;11743562013128004906</title>
<g id="a_node20"><a xlink:title="i64&#45;100: ncols&#45;11743562013128004906">
<path fill="white" stroke="none" d="M336.92,-174C336.92,-174 357.08,-174 357.08,-174 362.42,-174 367.75,-179.33 367.75,-184.67 367.75,-184.67 367.75,-195.33 367.75,-195.33 367.75,-200.67 362.42,-206 357.08,-206 357.08,-206 336.92,-206 336.92,-206 331.58,-206 326.25,-200.67 326.25,-195.33 326.25,-195.33 326.25,-184.67 326.25,-184.67 326.25,-179.33 331.58,-174 336.92,-174"/>
<text text-anchor="start" x="331.25" y="-184.2" font-family="Helvetica,sans-Serif" font-size="14.00">ncols</text>
<path fill="none" stroke="black" d="M336.92,-174C336.92,-174 357.08,-174 357.08,-174 362.42,-174 367.75,-179.33 367.75,-184.67 367.75,-184.67 367.75,-195.33 367.75,-195.33 367.75,-200.67 362.42,-206 357.08,-206 357.08,-206 336.92,-206 336.92,-206 331.58,-206 326.25,-200.67 326.25,-195.33 326.25,-195.33 326.25,-184.67 326.25,-184.67 326.25,-179.33 331.58,-174 336.92,-174"/>
</a>
</g>
</g>
</g>
</svg>
