<?xml version="1.0" encoding="UTF-8" standalone="no"?>
<!DOCTYPE svg PUBLIC "-//W3C//DTD SVG 1.1//EN"
 "http://www.w3.org/Graphics/SVG/1.1/DTD/svg11.dtd">
<!-- Generated by graphviz version 12.0.0 (20240704.0754)
 -->
<!-- Pages: 1 -->
<svg width="1058pt" height="467pt"
 viewBox="0.00 0.00 1058.00 467.00" xmlns="http://www.w3.org/2000/svg" xmlns:xlink="http://www.w3.org/1999/xlink">
<g id="graph0" class="graph" transform="scale(1 1) rotate(0) translate(4 463)">
<polygon fill="white" stroke="none" points="-4,4 -4,-463 1054,-463 1054,4 -4,4"/>
<g id="clust1" class="cluster">
<title>outer_cluster_String&#45;3221225479</title>
</g>
<g id="clust2" class="cluster">
<title>cluster_String&#45;3221225479</title>
<path fill="#ffffb3" stroke="black" stroke-dasharray="5,2" d="M59,-248C59,-248 95,-248 95,-248 101,-248 107,-254 107,-260 107,-260 107,-278 107,-278 107,-284 101,-290 95,-290 95,-290 59,-290 59,-290 53,-290 47,-284 47,-278 47,-278 47,-260 47,-260 47,-254 53,-248 59,-248"/>
</g>
<g id="clust4" class="cluster">
<title>outer_cluster_String&#45;8</title>
</g>
<g id="clust5" class="cluster">
<title>cluster_String&#45;8</title>
<path fill="#ffffb3" stroke="black" stroke-dasharray="5,2" d="M559,-169C559,-169 597,-169 597,-169 603,-169 609,-175 609,-181 609,-181 609,-199 609,-199 609,-205 603,-211 597,-211 597,-211 559,-211 559,-211 553,-211 547,-205 547,-199 547,-199 547,-181 547,-181 547,-175 553,-169 559,-169"/>
</g>
<g id="clust7" class="cluster">
<title>outer_cluster_String&#45;268435462</title>
</g>
<g id="clust8" class="cluster">
<title>cluster_String&#45;268435462</title>
<path fill="#ffffb3" stroke="black" stroke-dasharray="5,2" d="M582,-90C582,-90 752,-90 752,-90 758,-90 764,-96 764,-102 764,-102 764,-120 764,-120 764,-126 758,-132 752,-132 752,-132 582,-132 582,-132 576,-132 570,-126 570,-120 570,-120 570,-102 570,-102 570,-96 576,-90 582,-90"/>
</g>
<g id="clust10" class="cluster">
<title>outer_cluster_String&#45;1073741829</title>
</g>
<g id="clust11" class="cluster">
<title>cluster_String&#45;1073741829</title>
<path fill="#ffffb3" stroke="black" stroke-dasharray="5,2" d="M310,-90C310,-90 458,-90 458,-90 464,-90 470,-96 470,-102 470,-102 470,-120 470,-120 470,-126 464,-132 458,-132 458,-132 310,-132 310,-132 304,-132 298,-126 298,-120 298,-120 298,-102 298,-102 298,-96 304,-90 310,-90"/>
</g>
<g id="clust13" class="cluster">
<title>outer_cluster_String&#45;3221225478</title>
</g>
<g id="clust14" class="cluster">
<title>cluster_String&#45;3221225478</title>
<path fill="#ffffb3" stroke="black" stroke-dasharray="5,2" d="M488,-90C488,-90 548,-90 548,-90 554,-90 560,-96 560,-102 560,-102 560,-120 560,-120 560,-126 554,-132 548,-132 548,-132 488,-132 488,-132 482,-132 476,-126 476,-120 476,-120 476,-102 476,-102 476,-96 482,-90 488,-90"/>
</g>
<g id="clust16" class="cluster">
<title>outer_cluster_Type&#45;29</title>
</g>
<g id="clust17" class="cluster">
<title>cluster_Type&#45;29</title>
<path fill="#bebada" stroke="black" stroke-dasharray="5,2" d="M25,-169C25,-169 61,-169 61,-169 67,-169 73,-175 73,-181 73,-181 73,-199 73,-199 73,-205 67,-211 61,-211 61,-211 25,-211 25,-211 19,-211 13,-205 13,-199 13,-199 13,-181 13,-181 13,-175 19,-169 25,-169"/>
</g>
<g id="clust19" class="cluster">
<title>outer_cluster_Type&#45;10</title>
</g>
<g id="clust20" class="cluster">
<title>cluster_Type&#45;10</title>
<path fill="#bebada" stroke="black" stroke-dasharray="5,2" d="M803,-169C803,-169 883,-169 883,-169 889,-169 895,-175 895,-181 895,-181 895,-199 895,-199 895,-205 889,-211 883,-211 883,-211 803,-211 803,-211 797,-211 791,-205 791,-199 791,-199 791,-181 791,-181 791,-175 797,-169 803,-169"/>
</g>
<g id="clust22" class="cluster">
<title>outer_cluster_Type&#45;13</title>
</g>
<g id="clust23" class="cluster">
<title>cluster_Type&#45;13</title>
<path fill="#bebada" stroke="black" stroke-dasharray="5,2" d="M163,-11C163,-11 199,-11 199,-11 205,-11 211,-17 211,-23 211,-23 211,-41 211,-41 211,-47 205,-53 199,-53 199,-53 163,-53 163,-53 157,-53 151,-47 151,-41 151,-41 151,-23 151,-23 151,-17 157,-11 163,-11"/>
</g>
<g id="clust25" class="cluster">
<title>outer_cluster_Type&#45;2</title>
</g>
<g id="clust26" class="cluster">
<title>cluster_Type&#45;2</title>
<path fill="#bebada" stroke="black" stroke-dasharray="5,2" d="M199,-169C199,-169 279,-169 279,-169 285,-169 291,-175 291,-181 291,-181 291,-199 291,-199 291,-205 285,-211 279,-211 279,-211 199,-211 199,-211 193,-211 187,-205 187,-199 187,-199 187,-181 187,-181 187,-175 193,-169 199,-169"/>
</g>
<g id="clust28" class="cluster">
<title>outer_cluster_Type&#45;9</title>
</g>
<g id="clust29" class="cluster">
<title>cluster_Type&#45;9</title>
<path fill="#bebada" stroke="black" stroke-dasharray="5,2" d="M848,-90C848,-90 884,-90 884,-90 890,-90 896,-96 896,-102 896,-102 896,-120 896,-120 896,-126 890,-132 884,-132 884,-132 848,-132 848,-132 842,-132 836,-126 836,-120 836,-120 836,-102 836,-102 836,-96 842,-90 848,-90"/>
</g>
<g id="clust31" class="cluster">
<title>outer_cluster_Type&#45;26</title>
</g>
<g id="clust32" class="cluster">
<title>cluster_Type&#45;26</title>
<path fill="#bebada" stroke="black" stroke-dasharray="5,2" d="M925,-327C925,-327 961,-327 961,-327 967,-327 973,-333 973,-339 973,-339 973,-357 973,-357 973,-363 967,-369 961,-369 961,-369 925,-369 925,-369 919,-369 913,-363 913,-357 913,-357 913,-339 913,-339 913,-333 919,-327 925,-327"/>
</g>
<g id="clust34" class="cluster">
<title>outer_cluster_Type&#45;1</title>
</g>
<g id="clust35" class="cluster">
<title>cluster_Type&#45;1</title>
<path fill="#bebada" stroke="black" stroke-dasharray="5,2" d="M244,-90C244,-90 280,-90 280,-90 286,-90 292,-96 292,-102 292,-102 292,-120 292,-120 292,-126 286,-132 280,-132 280,-132 244,-132 244,-132 238,-132 232,-126 232,-120 232,-120 232,-102 232,-102 232,-96 238,-90 244,-90"/>
</g>
<g id="clust37" class="cluster">
<title>outer_cluster_i64&#45;9</title>
</g>
<g id="clust38" class="cluster">
<title>cluster_i64&#45;9</title>
<path fill="#fb8072" stroke="black" stroke-dasharray="5,2" d="M859,-327C859,-327 895,-327 895,-327 901,-327 907,-333 907,-339 907,-339 907,-357 907,-357 907,-363 901,-369 895,-369 895,-369 859,-369 859,-369 853,-369 847,-363 847,-357 847,-357 847,-339 847,-339 847,-333 853,-327 859,-327"/>
</g>
<g id="clust40" class="cluster">
<title>outer_cluster_i64&#45;1000000</title>
</g>
<g id="clust41" class="cluster">
<title>cluster_i64&#45;1000000</title>
<path fill="#fb8072" stroke="black" stroke-dasharray="5,2" d="M23,-11C23,-11 67,-11 67,-11 73,-11 79,-17 79,-23 79,-23 79,-41 79,-41 79,-47 73,-53 67,-53 67,-53 23,-53 23,-53 17,-53 11,-47 11,-41 11,-41 11,-23 11,-23 11,-17 17,-11 23,-11"/>
</g>
<g id="clust43" class="cluster">
<title>outer_cluster_i64&#45;3</title>
</g>
<g id="clust44" class="cluster">
<title>cluster_i64&#45;3</title>
<path fill="#fb8072" stroke="black" stroke-dasharray="5,2" d="M97,-11C97,-11 133,-11 133,-11 139,-11 145,-17 145,-23 145,-23 145,-41 145,-41 145,-47 139,-53 133,-53 133,-53 97,-53 97,-53 91,-53 85,-47 85,-41 85,-41 85,-23 85,-23 85,-17 91,-11 97,-11"/>
</g>
<g id="clust46" class="cluster">
<title>outer_cluster_i64&#45;5</title>
</g>
<g id="clust47" class="cluster">
<title>cluster_i64&#45;5</title>
<path fill="#fb8072" stroke="black" stroke-dasharray="5,2" d="M229,-11C229,-11 265,-11 265,-11 271,-11 277,-17 277,-23 277,-23 277,-41 277,-41 277,-47 271,-53 265,-53 265,-53 229,-53 229,-53 223,-53 217,-47 217,-41 217,-41 217,-23 217,-23 217,-17 223,-11 229,-11"/>
</g>
<g id="clust49" class="cluster">
<title>outer_cluster_i64&#45;2</title>
</g>
<g id="clust50" class="cluster">
<title>cluster_i64&#45;2</title>
<path fill="#fb8072" stroke="black" stroke-dasharray="5,2" d="M737,-169C737,-169 773,-169 773,-169 779,-169 785,-175 785,-181 785,-181 785,-199 785,-199 785,-205 779,-211 773,-211 773,-211 737,-211 737,-211 731,-211 725,-205 725,-199 725,-199 725,-181 725,-181 725,-175 731,-169 737,-169"/>
</g>
<g id="clust52" class="cluster">
<title>outer_cluster_i64&#45;0</title>
</g>
<g id="clust53" class="cluster">
<title>cluster_i64&#45;0</title>
<path fill="#fb8072" stroke="black" stroke-dasharray="5,2" d="M125,-169C125,-169 161,-169 161,-169 167,-169 173,-175 173,-181 173,-181 173,-199 173,-199 173,-205 167,-211 161,-211 161,-211 125,-211 125,-211 119,-211 113,-205 113,-199 113,-199 113,-181 113,-181 113,-175 119,-169 125,-169"/>
</g>
<g id="clust55" class="cluster">
<title>outer_cluster_i64&#45;7</title>
</g>
<g id="clust56" class="cluster">
<title>cluster_i64&#45;7</title>
<path fill="#fb8072" stroke="black" stroke-dasharray="5,2" d="M991,-327C991,-327 1027,-327 1027,-327 1033,-327 1039,-333 1039,-339 1039,-339 1039,-357 1039,-357 1039,-363 1033,-369 1027,-369 1027,-369 991,-369 991,-369 985,-369 979,-363 979,-357 979,-357 979,-339 979,-339 979,-333 985,-327 991,-327"/>
</g>
<g id="clust58" class="cluster">
<title>outer_cluster_AttrPair&#45;17</title>
</g>
<g id="clust59" class="cluster">
<title>cluster_AttrPair&#45;17</title>
<path fill="#80b1d3" stroke="black" stroke-dasharray="5,2" d="M637,-248C637,-248 695,-248 695,-248 701,-248 707,-254 707,-260 707,-260 707,-278 707,-278 707,-284 701,-290 695,-290 695,-290 637,-290 637,-290 631,-290 625,-284 625,-278 625,-278 625,-260 625,-260 625,-254 631,-248 637,-248"/>
</g>
<g id="clust61" class="cluster">
<title>outer_cluster_AttrPair&#45;31</title>
</g>
<g id="clust62" class="cluster">
<title>cluster_AttrPair&#45;31</title>
<path fill="#80b1d3" stroke="black" stroke-dasharray="5,2" d="M66,-327C66,-327 124,-327 124,-327 130,-327 136,-333 136,-339 136,-339 136,-357 136,-357 136,-363 130,-369 124,-369 124,-369 66,-369 66,-369 60,-369 54,-363 54,-357 54,-357 54,-339 54,-339 54,-333 60,-327 66,-327"/>
</g>
<g id="clust64" class="cluster">
<title>outer_cluster_AttrPair&#45;6</title>
</g>
<g id="clust65" class="cluster">
<title>cluster_AttrPair&#45;6</title>
<path fill="#80b1d3" stroke="black" stroke-dasharray="5,2" d="M332,-248C332,-248 390,-248 390,-248 396,-248 402,-254 402,-260 402,-260 402,-278 402,-278 402,-284 396,-290 390,-290 390,-290 332,-290 332,-290 326,-290 320,-284 320,-278 320,-278 320,-260 320,-260 320,-254 326,-248 332,-248"/>
</g>
<g id="clust67" class="cluster">
<title>outer_cluster_AttrPair&#45;23</title>
</g>
<g id="clust68" class="cluster">
<title>cluster_AttrPair&#45;23</title>
<path fill="#80b1d3" stroke="black" stroke-dasharray="5,2" d="M549,-248C549,-248 607,-248 607,-248 613,-248 619,-254 619,-260 619,-260 619,-278 619,-278 619,-284 613,-290 607,-290 607,-290 549,-290 549,-290 543,-290 537,-284 537,-278 537,-278 537,-260 537,-260 537,-254 543,-248 549,-248"/>
</g>
<g id="clust70" class="cluster">
<title>outer_cluster_Attr&#45;16</title>
</g>
<g id="clust71" class="cluster">
<title>cluster_Attr&#45;16</title>
<path fill="#fdb462" stroke="black" stroke-dasharray="5,2" d="M627,-169C627,-169 707,-169 707,-169 713,-169 719,-175 719,-181 719,-181 719,-199 719,-199 719,-205 713,-211 707,-211 707,-211 627,-211 627,-211 621,-211 615,-205 615,-199 615,-199 615,-181 615,-181 615,-175 621,-169 627,-169"/>
</g>
<g id="clust73" class="cluster">
<title>outer_cluster_Attr&#45;5</title>
</g>
<g id="clust74" class="cluster">
<title>cluster_Attr&#45;5</title>
<path fill="#fdb462" stroke="black" stroke-dasharray="5,2" d="M339,-169C339,-169 419,-169 419,-169 425,-169 431,-175 431,-181 431,-181 431,-199 431,-199 431,-205 425,-211 419,-211 419,-211 339,-211 339,-211 333,-211 327,-205 327,-199 327,-199 327,-181 327,-181 327,-175 333,-169 339,-169"/>
</g>
<g id="clust76" class="cluster">
<title>outer_cluster_Attr&#45;30</title>
</g>
<g id="clust77" class="cluster">
<title>cluster_Attr&#45;30</title>
<path fill="#fdb462" stroke="black" stroke-dasharray="5,2" d="M125,-248C125,-248 181,-248 181,-248 187,-248 193,-254 193,-260 193,-260 193,-278 193,-278 193,-284 187,-290 181,-290 181,-290 125,-290 125,-290 119,-290 113,-284 113,-278 113,-278 113,-260 113,-260 113,-254 119,-248 125,-248"/>
</g>
<g id="clust79" class="cluster">
<title>outer_cluster_Attr&#45;22</title>
</g>
<g id="clust80" class="cluster">
<title>cluster_Attr&#45;22</title>
<path fill="#fdb462" stroke="black" stroke-dasharray="5,2" d="M449,-169C449,-169 529,-169 529,-169 535,-169 541,-175 541,-181 541,-181 541,-199 541,-199 541,-205 535,-211 529,-211 529,-211 449,-211 449,-211 443,-211 437,-205 437,-199 437,-199 437,-181 437,-181 437,-175 443,-169 449,-169"/>
</g>
<g id="clust82" class="cluster">
<title>outer_cluster_Op&#45;8</title>
</g>
<g id="clust83" class="cluster">
<title>cluster_Op&#45;8</title>
<path fill="#b3de69" stroke="black" stroke-dasharray="5,2" d="M752,-248C752,-248 788,-248 788,-248 794,-248 800,-254 800,-260 800,-260 800,-278 800,-278 800,-284 794,-290 788,-290 788,-290 752,-290 752,-290 746,-290 740,-284 740,-278 740,-278 740,-260 740,-260 740,-254 746,-248 752,-248"/>
</g>
<g id="clust85" class="cluster">
<title>outer_cluster_Op&#45;0</title>
</g>
<g id="clust86" class="cluster">
<title>cluster_Op&#45;0</title>
<path fill="#b3de69" stroke="black" stroke-dasharray="5,2" d="M211,-248C211,-248 247,-248 247,-248 253,-248 259,-254 259,-260 259,-260 259,-278 259,-278 259,-284 253,-290 247,-290 247,-290 211,-290 211,-290 205,-290 199,-284 199,-278 199,-278 199,-260 199,-260 199,-254 205,-248 211,-248"/>
</g>
<g id="clust88" class="cluster">
<title>outer_cluster_Op&#45;33</title>
</g>
<g id="clust89" class="cluster">
<title>cluster_Op&#45;33</title>
<path fill="#b3de69" stroke="black" stroke-dasharray="5,2" d="M883,-406C883,-406 919,-406 919,-406 925,-406 931,-412 931,-418 931,-418 931,-436 931,-436 931,-442 925,-448 919,-448 919,-448 883,-448 883,-448 877,-448 871,-442 871,-436 871,-436 871,-418 871,-418 871,-412 877,-406 883,-406"/>
</g>
<g id="clust91" class="cluster">
<title>outer_cluster_Op&#45;19</title>
</g>
<g id="clust92" class="cluster">
<title>cluster_Op&#45;19</title>
<path fill="#b3de69" stroke="black" stroke-dasharray="5,2" d="M178,-90C178,-90 214,-90 214,-90 220,-90 226,-96 226,-102 226,-102 226,-120 226,-120 226,-126 220,-132 214,-132 214,-132 178,-132 178,-132 172,-132 166,-126 166,-120 166,-120 166,-102 166,-102 166,-96 172,-90 178,-90"/>
</g>
<g id="clust94" class="cluster">
<title>outer_cluster_Op&#45;25</title>
</g>
<g id="clust95" class="cluster">
<title>cluster_Op&#45;25</title>
<path fill="#b3de69" stroke="black" stroke-dasharray="5,2" d="M977,-406C977,-406 1013,-406 1013,-406 1019,-406 1025,-412 1025,-418 1025,-418 1025,-436 1025,-436 1025,-442 1019,-448 1013,-448 1013,-448 977,-448 977,-448 971,-448 965,-442 965,-436 965,-436 965,-418 965,-418 965,-412 971,-406 977,-406"/>
</g>
<g id="clust97" class="cluster">
<title>outer_cluster_Op&#45;12</title>
</g>
<g id="clust98" class="cluster">
<title>cluster_Op&#45;12</title>
<path fill="#b3de69" stroke="black" stroke-dasharray="5,2" d="M112,-90C112,-90 148,-90 148,-90 154,-90 160,-96 160,-102 160,-102 160,-120 160,-120 160,-126 154,-132 148,-132 148,-132 112,-132 112,-132 106,-132 100,-126 100,-120 100,-120 100,-102 100,-102 100,-96 106,-90 112,-90"/>
</g>
<g id="clust100" class="cluster">
<title>outer_cluster_Op&#45;21</title>
</g>
<g id="clust101" class="cluster">
<title>cluster_Op&#45;21</title>
<path fill="#b3de69" stroke="black" stroke-dasharray="5,2" d="M777,-406C777,-406 823,-406 823,-406 829,-406 835,-412 835,-418 835,-418 835,-436 835,-436 835,-442 829,-448 823,-448 823,-448 777,-448 777,-448 771,-448 765,-442 765,-436 765,-436 765,-418 765,-418 765,-412 771,-406 777,-406"/>
</g>
<g id="clust103" class="cluster">
<title>outer_cluster_Op&#45;28</title>
</g>
<g id="clust104" class="cluster">
<title>cluster_Op&#45;28</title>
<path fill="#b3de69" stroke="black" stroke-dasharray="5,2" d="M50,-406C50,-406 126,-406 126,-406 132,-406 138,-412 138,-418 138,-418 138,-436 138,-436 138,-442 132,-448 126,-448 126,-448 50,-448 50,-448 44,-448 38,-442 38,-436 38,-436 38,-418 38,-418 38,-412 44,-406 50,-406"/>
</g>
<g id="clust106" class="cluster">
<title>outer_cluster_Op&#45;4</title>
</g>
<g id="clust107" class="cluster">
<title>cluster_Op&#45;4</title>
<path fill="#b3de69" stroke="black" stroke-dasharray="5,2" d="M223,-327C223,-327 269,-327 269,-327 275,-327 281,-333 281,-339 281,-339 281,-357 281,-357 281,-363 275,-369 269,-369 269,-369 223,-369 223,-369 217,-369 211,-363 211,-357 211,-357 211,-339 211,-339 211,-333 217,-327 223,-327"/>
</g>
<g id="clust109" class="cluster">
<title>outer_cluster_Op&#45;15</title>
</g>
<g id="clust110" class="cluster">
<title>cluster_Op&#45;15</title>
<path fill="#b3de69" stroke="black" stroke-dasharray="5,2" d="M762,-327C762,-327 808,-327 808,-327 814,-327 820,-333 820,-339 820,-339 820,-357 820,-357 820,-363 814,-369 808,-369 808,-369 762,-369 762,-369 756,-369 750,-363 750,-357 750,-357 750,-339 750,-339 750,-333 756,-327 762,-327"/>
</g>
<g id="clust112" class="cluster">
<title>outer_cluster_IntVec&#45;0</title>
</g>
<g id="clust113" class="cluster">
<title>cluster_IntVec&#45;0</title>
<path fill="#fccde5" stroke="black" stroke-dasharray="5,2" d="M46,-90C46,-90 82,-90 82,-90 88,-90 94,-96 94,-102 94,-102 94,-120 94,-120 94,-126 88,-132 82,-132 82,-132 46,-132 46,-132 40,-132 34,-126 34,-120 34,-120 34,-102 34,-102 34,-96 40,-90 46,-90"/>
</g>
<!-- RankedTensor&#45;15952540911656918845&#45;&gt;IntVec&#45;0 -->
<g id="edge1" class="edge">
<title>RankedTensor&#45;15952540911656918845:s&#45;&gt;IntVec&#45;0</title>
<path fill="none" stroke="black" d="M819,-174C819,-133.94 137.11,-147.34 99,-135 98.54,-134.85 98.07,-134.69 97.61,-134.53"/>
<polygon fill="black" stroke="black" points="98.32,-132.93 93.04,-132.59 96.96,-136.15 98.32,-132.93"/>
</g>
<!-- RankedTensor&#45;15952540911656918845&#45;&gt;F32&#45;0 -->
<g id="edge2" class="edge">
<title>RankedTensor&#45;15952540911656918845:s&#45;&gt;F32&#45;0</title>
<path fill="none" stroke="black" d="M866.5,-174C866.5,-161.22 866.39,-146.96 866.28,-135.35"/>
<polygon fill="black" stroke="black" points="868.09,-138.48 866.24,-133.51 864.59,-138.55 868.09,-138.48"/>
</g>
<!-- IntVec&#45;0&#45;&gt;i64&#45;1000000 -->
<g id="edge41" class="edge">
<title>IntVec&#45;0:s&#45;&gt;i64&#45;1000000</title>
<path fill="none" stroke="black" d="M52.5,-95C52.5,-82.01 50.86,-67.6 49.11,-55.94"/>
<polygon fill="black" stroke="black" points="51.84,-58.64 48.61,-54.44 48.52,-59.73 51.84,-58.64"/>
</g>
<!-- IntVec&#45;0&#45;&gt;i64&#45;3 -->
<g id="edge42" class="edge">
<title>IntVec&#45;0:s&#45;&gt;i64&#45;3</title>
<path fill="none" stroke="black" d="M75.5,-95C75.5,-80.06 83.76,-65.82 92.73,-54.76"/>
<polygon fill="black" stroke="black" points="90.95,-58.49 93.7,-53.96 88.72,-55.78 90.95,-58.49"/>
</g>
<!-- RankedTensor&#45;5871781006564002453&#45;&gt;IntVec&#45;0 -->
<g id="edge3" class="edge">
<title>RankedTensor&#45;5871781006564002453:s&#45;&gt;IntVec&#45;0</title>
<path fill="none" stroke="black" d="M215,-174C215,-119.61 147.91,-158.8 99,-135 97.17,-134.11 95.32,-133.14 93.48,-132.12"/>
<polygon fill="black" stroke="black" points="99.75,-131.83 94.48,-132.36 98.92,-135.24 99.75,-131.83"/>
</g>
<!-- RankedTensor&#45;5871781006564002453&#45;&gt;F64&#45;0 -->
<g id="edge4" class="edge">
<title>RankedTensor&#45;5871781006564002453:s&#45;&gt;F64&#45;0</title>
<path fill="none" stroke="black" d="M262.5,-174C262.5,-161.22 262.39,-146.96 262.28,-135.35"/>
<polygon fill="black" stroke="black" points="264.09,-138.48 262.24,-133.51 260.59,-138.55 264.09,-138.48"/>
</g>
<!-- NamedAttr&#45;4948198068296926101&#45;&gt;String&#45;8 -->
<g id="edge5" class="edge">
<title>NamedAttr&#45;4948198068296926101:s&#45;&gt;String&#45;8</title>
<path fill="none" stroke="black" d="M647.5,-253C647.5,-241.92 627.56,-224.92 609.05,-211.52"/>
<polygon fill="black" stroke="black" points="611.2,-217.23 609.1,-212.36 607.7,-217.47 611.2,-217.23"/>
</g>
<!-- NamedAttr&#45;4948198068296926101&#45;&gt;SymbolRefAttr&#45;6583887671197450110 -->
<g id="edge6" class="edge">
<title>NamedAttr&#45;4948198068296926101:s&#45;&gt;SymbolRefAttr&#45;6583887671197450110</title>
<path fill="none" stroke="black" d="M684,-253C684,-239.72 680.33,-225.39 676.4,-213.86"/>
<polygon fill="black" stroke="black" points="679.32,-216.34 675.79,-212.4 676.09,-217.69 679.32,-216.34"/>
</g>
<!-- SymbolRefAttr&#45;6583887671197450110&#45;&gt;String&#45;268435462 -->
<g id="edge13" class="edge">
<title>SymbolRefAttr&#45;6583887671197450110:s&#45;&gt;String&#45;268435462</title>
<path fill="none" stroke="black" d="M667,-174C667,-161.22 667,-146.96 667,-135.35"/>
<polygon fill="black" stroke="black" points="668.75,-138.51 667,-133.51 665.25,-138.51 668.75,-138.51"/>
</g>
<!-- NamedAttr&#45;17798651638220841180&#45;&gt;String&#45;3221225479 -->
<g id="edge7" class="edge">
<title>NamedAttr&#45;17798651638220841180:s&#45;&gt;String&#45;3221225479</title>
<path fill="none" stroke="black" d="M76.5,-332C76.5,-319.22 76.61,-304.96 76.72,-293.35"/>
<polygon fill="black" stroke="black" points="78.41,-296.55 76.76,-291.51 74.91,-296.48 78.41,-296.55"/>
</g>
<!-- NamedAttr&#45;17798651638220841180&#45;&gt;IntegerAttr&#45;4260952526970106593 -->
<g id="edge8" class="edge">
<title>NamedAttr&#45;17798651638220841180:s&#45;&gt;IntegerAttr&#45;4260952526970106593</title>
<path fill="none" stroke="black" d="M113,-332C113,-317 121.37,-302.76 130.44,-291.71"/>
<polygon fill="black" stroke="black" points="128.58,-295.39 131.45,-290.93 126.43,-292.62 128.58,-295.39"/>
</g>
<!-- IntegerAttr&#45;4260952526970106593&#45;&gt;I32&#45;0 -->
<g id="edge16" class="edge">
<title>IntegerAttr&#45;4260952526970106593:s&#45;&gt;I32&#45;0</title>
<path fill="none" stroke="black" d="M170.5,-253C170.5,-242.46 113.39,-218.25 75.61,-203.4"/>
<polygon fill="black" stroke="black" points="79.61,-203.43 74.36,-202.77 78.05,-206.57 79.61,-203.43"/>
</g>
<!-- IntegerAttr&#45;4260952526970106593&#45;&gt;i64&#45;0 -->
<g id="edge15" class="edge">
<title>IntegerAttr&#45;4260952526970106593:s&#45;&gt;i64&#45;0</title>
<path fill="none" stroke="black" d="M135,-253C135,-240 136.75,-225.58 138.62,-213.93"/>
<polygon fill="black" stroke="black" points="139.13,-217.72 139.15,-212.43 135.83,-216.56 139.13,-217.72"/>
</g>
<!-- NamedAttr&#45;5831572750755663012&#45;&gt;String&#45;8 -->
<g id="edge9" class="edge">
<title>NamedAttr&#45;5831572750755663012:s&#45;&gt;String&#45;8</title>
<path fill="none" stroke="black" d="M342.5,-253C342.5,-207.83 500.06,-230.79 542,-214 542.27,-213.89 542.55,-213.78 542.82,-213.66"/>
<polygon fill="black" stroke="black" points="543.41,-215.32 547.21,-211.63 541.94,-212.15 543.41,-215.32"/>
</g>
<!-- NamedAttr&#45;5831572750755663012&#45;&gt;SymbolRefAttr&#45;7005431928621511913 -->
<g id="edge10" class="edge">
<title>NamedAttr&#45;5831572750755663012:s&#45;&gt;SymbolRefAttr&#45;7005431928621511913</title>
<path fill="none" stroke="black" d="M379,-253C379,-240.22 379,-225.96 379,-214.35"/>
<polygon fill="black" stroke="black" points="380.75,-217.51 379,-212.51 377.25,-217.51 380.75,-217.51"/>
</g>
<!-- SymbolRefAttr&#45;7005431928621511913&#45;&gt;String&#45;1073741829 -->
<g id="edge14" class="edge">
<title>SymbolRefAttr&#45;7005431928621511913:s&#45;&gt;String&#45;1073741829</title>
<path fill="none" stroke="black" d="M379,-174C379,-161.06 380.1,-146.65 381.26,-134.99"/>
<polygon fill="black" stroke="black" points="382.24,-138.74 381.59,-133.48 378.82,-137.99 382.24,-138.74"/>
</g>
<!-- NamedAttr&#45;3285395960261837587&#45;&gt;String&#45;8 -->
<g id="edge11" class="edge">
<title>NamedAttr&#45;3285395960261837587:s&#45;&gt;String&#45;8</title>
<path fill="none" stroke="black" d="M559.5,-253C559.5,-239.73 563.44,-225.51 567.68,-214.03"/>
<polygon fill="black" stroke="black" points="567.97,-217.66 568.43,-212.38 564.78,-216.22 567.97,-217.66"/>
</g>
<!-- NamedAttr&#45;3285395960261837587&#45;&gt;SymbolRefAttr&#45;5063754874207616894 -->
<g id="edge12" class="edge">
<title>NamedAttr&#45;3285395960261837587:s&#45;&gt;SymbolRefAttr&#45;5063754874207616894</title>
<path fill="none" stroke="black" d="M596,-253C596,-245.63 565.19,-228.31 536.63,-213.85"/>
<polygon fill="black" stroke="black" points="537.56,-212.36 532.31,-211.68 535.99,-215.49 537.56,-212.36"/>
</g>
<!-- SymbolRefAttr&#45;5063754874207616894&#45;&gt;String&#45;3221225478 -->
<g id="edge17" class="edge">
<title>SymbolRefAttr&#45;5063754874207616894:s&#45;&gt;String&#45;3221225478</title>
<path fill="none" stroke="black" d="M489,-174C489,-159.91 495.22,-145.57 501.9,-134.23"/>
<polygon fill="black" stroke="black" points="500.75,-137.8 503.11,-133.06 498.31,-135.29 500.75,-137.8"/>
</g>
<!-- Value&#45;5290151780539952054&#45;&gt;RankedTensor&#45;15952540911656918845 -->
<g id="edge19" class="edge">
<title>Value&#45;5290151780539952054:s&#45;&gt;RankedTensor&#45;15952540911656918845</title>
<path fill="none" stroke="black" d="M780.5,-253C780.5,-235.85 792.51,-221.82 806,-211.47"/>
<polygon fill="black" stroke="black" points="801.85,-215.33 805.65,-211.64 800.37,-212.16 801.85,-215.33"/>
</g>
<!-- Value&#45;5290151780539952054&#45;&gt;i64&#45;2 -->
<g id="edge18" class="edge">
<title>Value&#45;5290151780539952054:s&#45;&gt;i64&#45;2</title>
<path fill="none" stroke="black" d="M759.5,-253C759.5,-240.07 758.51,-225.66 757.47,-213.99"/>
<polygon fill="black" stroke="black" points="759.85,-217.06 757.17,-212.49 756.41,-217.73 759.85,-217.06"/>
</g>
<!-- Value&#45;11743562013128004906&#45;&gt;RankedTensor&#45;5871781006564002453 -->
<g id="edge21" class="edge">
<title>Value&#45;11743562013128004906:s&#45;&gt;RankedTensor&#45;5871781006564002453</title>
<path fill="none" stroke="black" d="M239.5,-253C239.5,-240.22 239.39,-225.96 239.28,-214.35"/>
<polygon fill="black" stroke="black" points="241.09,-217.48 239.24,-212.51 237.59,-217.55 241.09,-217.48"/>
</g>
<!-- Value&#45;11743562013128004906&#45;&gt;i64&#45;0 -->
<g id="edge20" class="edge">
<title>Value&#45;11743562013128004906:s&#45;&gt;i64&#45;0</title>
<path fill="none" stroke="black" d="M218.5,-253C218.5,-241.09 195.77,-223.59 175.26,-210.21"/>
<polygon fill="black" stroke="black" points="179.41,-210.84 174.27,-209.56 177.49,-213.76 179.41,-210.84"/>
</g>
<!-- Value&#45;2526907191799847605&#45;&gt;None&#45;0 -->
<g id="edge23" class="edge">
<title>Value&#45;2526907191799847605:s&#45;&gt;None&#45;0</title>
<path fill="none" stroke="black" d="M911.5,-411C911.5,-396.68 918.26,-382.32 925.52,-371.04"/>
<polygon fill="black" stroke="black" points="924.49,-375.22 926.17,-370.2 921.72,-373.08 924.49,-375.22"/>
</g>
<!-- Value&#45;2526907191799847605&#45;&gt;i64&#45;9 -->
<g id="edge22" class="edge">
<title>Value&#45;2526907191799847605:s&#45;&gt;i64&#45;9</title>
<path fill="none" stroke="black" d="M890.5,-411C890.5,-397.89 887.58,-383.58 884.46,-372.01"/>
<polygon fill="black" stroke="black" points="887.5,-373.77 883.48,-370.31 884.47,-375.52 887.5,-373.77"/>
</g>
<!-- Value&#45;3898060157612719019&#45;&gt;I64&#45;0 -->
<g id="edge25" class="edge">
<title>Value&#45;3898060157612719019:s&#45;&gt;I64&#45;0</title>
<path fill="none" stroke="black" d="M206.5,-95C206.5,-81.22 201.05,-66.93 195.19,-55.55"/>
<polygon fill="black" stroke="black" points="198.58,-56.94 194.07,-54.17 195.87,-59.15 198.58,-56.94"/>
</g>
<!-- Value&#45;3898060157612719019&#45;&gt;i64&#45;5 -->
<g id="edge24" class="edge">
<title>Value&#45;3898060157612719019:s&#45;&gt;i64&#45;5</title>
<path fill="none" stroke="black" d="M185.5,-95C185.5,-84.63 203.07,-67.63 219.43,-54.05"/>
<polygon fill="black" stroke="black" points="216.48,-57.56 220.11,-53.7 214.86,-54.46 216.48,-57.56"/>
</g>
<!-- Value&#45;5758660465200108737&#45;&gt;None&#45;0 -->
<g id="edge27" class="edge">
<title>Value&#45;5758660465200108737:s&#45;&gt;None&#45;0</title>
<path fill="none" stroke="black" d="M1005.5,-411C1005.5,-400.45 987.33,-383.26 970.59,-369.65"/>
<polygon fill="black" stroke="black" points="975.62,-369.72 970.33,-369.55 974.36,-372.98 975.62,-369.72"/>
</g>
<!-- Value&#45;5758660465200108737&#45;&gt;i64&#45;7 -->
<g id="edge26" class="edge">
<title>Value&#45;5758660465200108737:s&#45;&gt;i64&#45;7</title>
<path fill="none" stroke="black" d="M984.5,-411C984.5,-397.3 989.74,-383.01 995.37,-371.61"/>
<polygon fill="black" stroke="black" points="994.82,-375.26 996.42,-370.21 992.02,-373.17 994.82,-375.26"/>
</g>
<!-- Value&#45;12066246126677053039&#45;&gt;I64&#45;0 -->
<g id="edge29" class="edge">
<title>Value&#45;12066246126677053039:s&#45;&gt;I64&#45;0</title>
<path fill="none" stroke="black" d="M140.5,-95C140.5,-79.95 148.97,-65.7 158.16,-54.66"/>
<polygon fill="black" stroke="black" points="156.21,-58.28 159.19,-53.9 154.13,-55.47 156.21,-58.28"/>
</g>
<!-- Value&#45;12066246126677053039&#45;&gt;i64&#45;3 -->
<g id="edge28" class="edge">
<title>Value&#45;12066246126677053039:s&#45;&gt;i64&#45;3</title>
<path fill="none" stroke="black" d="M119.5,-95C119.5,-82.07 118.51,-67.66 117.47,-55.99"/>
<polygon fill="black" stroke="black" points="119.85,-59.06 117.17,-54.49 116.41,-59.73 119.85,-59.06"/>
</g>
<!-- func_call&#45;15784220428753006575&#45;&gt;RankedTensor&#45;15952540911656918845 -->
<g id="edge32" class="edge">
<title>func_call&#45;15784220428753006575:s&#45;&gt;RankedTensor&#45;15952540911656918845</title>
<path fill="none" stroke="black" d="M822.5,-411C822.5,-338.72 833.61,-253.66 839.47,-213.79"/>
<polygon fill="black" stroke="black" points="840.04,-217.74 839.9,-212.44 836.71,-216.67 840.04,-217.74"/>
</g>
<!-- func_call&#45;15784220428753006575&#45;&gt;NamedAttr&#45;3285395960261837587 -->
<g id="edge31" class="edge">
<title>func_call&#45;15784220428753006575:s&#45;&gt;NamedAttr&#45;3285395960261837587</title>
<path fill="none" stroke="black" d="M807,-411C807,-408.17 675.3,-328.54 611.65,-290.22"/>
<polygon fill="black" stroke="black" points="617.78,-290.74 612.49,-290.55 616.51,-294 617.78,-290.74"/>
</g>
<!-- func_call&#45;15784220428753006575&#45;&gt;func_call&#45;868461099679118244 -->
<g id="edge30" class="edge">
<title>func_call&#45;15784220428753006575:s&#45;&gt;func_call&#45;868461099679118244</title>
<path fill="none" stroke="black" d="M784.5,-411C784.5,-398.22 784.61,-383.96 784.72,-372.35"/>
<polygon fill="black" stroke="black" points="786.41,-375.55 784.76,-370.51 782.91,-375.48 786.41,-375.55"/>
</g>
<!-- func_call&#45;868461099679118244&#45;&gt;RankedTensor&#45;15952540911656918845 -->
<g id="edge40" class="edge">
<title>func_call&#45;868461099679118244:s&#45;&gt;RankedTensor&#45;15952540911656918845</title>
<path fill="none" stroke="black" d="M807.5,-332C807.5,-289.05 823.18,-240.91 833.7,-213.45"/>
<polygon fill="black" stroke="black" points="833.51,-217.58 834.28,-212.34 830.41,-215.95 833.51,-217.58"/>
</g>
<!-- func_call&#45;868461099679118244&#45;&gt;NamedAttr&#45;4948198068296926101 -->
<g id="edge39" class="edge">
<title>func_call&#45;868461099679118244:s&#45;&gt;NamedAttr&#45;4948198068296926101</title>
<path fill="none" stroke="black" d="M792,-332C792,-313.08 745.69,-294.31 709.22,-282.47"/>
<polygon fill="black" stroke="black" points="713.71,-282.3 708.42,-282.16 712.47,-285.57 713.71,-282.3"/>
</g>
<!-- func_call&#45;868461099679118244&#45;&gt;Value&#45;5290151780539952054 -->
<g id="edge38" class="edge">
<title>func_call&#45;868461099679118244:s&#45;&gt;Value&#45;5290151780539952054</title>
<path fill="none" stroke="black" d="M769.5,-332C769.5,-319.22 769.61,-304.96 769.72,-293.35"/>
<polygon fill="black" stroke="black" points="771.41,-296.55 769.76,-291.51 767.91,-296.48 771.41,-296.55"/>
</g>
<!-- arith_constant&#45;15510901089103236190&#45;&gt;I32&#45;0 -->
<g id="edge34" class="edge">
<title>arith_constant&#45;15510901089103236190:s&#45;&gt;I32&#45;0</title>
<path fill="none" stroke="black" d="M111,-411C111,-379.94 68.8,-398.75 53,-372 23.61,-322.26 31.23,-250.78 37.89,-214.32"/>
<polygon fill="black" stroke="black" points="38.51,-217.72 38.59,-212.42 35.22,-216.51 38.51,-217.72"/>
</g>
<!-- arith_constant&#45;15510901089103236190&#45;&gt;NamedAttr&#45;17798651638220841180 -->
<g id="edge33" class="edge">
<title>arith_constant&#45;15510901089103236190:s&#45;&gt;NamedAttr&#45;17798651638220841180</title>
<path fill="none" stroke="black" d="M65,-411C65,-396.82 71.44,-382.47 78.35,-371.15"/>
<polygon fill="black" stroke="black" points="77.66,-375.41 78.93,-370.27 74.73,-373.5 77.66,-375.41"/>
</g>
<!-- func_call&#45;1476769281115640523&#45;&gt;RankedTensor&#45;5871781006564002453 -->
<g id="edge37" class="edge">
<title>func_call&#45;1476769281115640523:s&#45;&gt;RankedTensor&#45;5871781006564002453</title>
<path fill="none" stroke="black" d="M268.5,-332C268.5,-293.15 269.01,-282.79 260,-245 257.47,-234.41 253.33,-223.11 249.38,-213.61"/>
<polygon fill="black" stroke="black" points="252.66,-215.71 248.61,-212.3 249.65,-217.5 252.66,-215.71"/>
</g>
<!-- func_call&#45;1476769281115640523&#45;&gt;NamedAttr&#45;5831572750755663012 -->
<g id="edge36" class="edge">
<title>func_call&#45;1476769281115640523:s&#45;&gt;NamedAttr&#45;5831572750755663012</title>
<path fill="none" stroke="black" d="M253,-332C253,-300.82 287.29,-285.09 317.22,-277.3"/>
<polygon fill="black" stroke="black" points="315.16,-280.45 318.68,-276.49 313.46,-277.39 315.16,-280.45"/>
</g>
<!-- func_call&#45;1476769281115640523&#45;&gt;Value&#45;11743562013128004906 -->
<g id="edge35" class="edge">
<title>func_call&#45;1476769281115640523:s&#45;&gt;Value&#45;11743562013128004906</title>
<path fill="none" stroke="black" d="M230.5,-332C230.5,-319.22 230.18,-304.96 229.83,-293.34"/>
<polygon fill="black" stroke="black" points="231.77,-296.39 229.72,-291.51 228.28,-296.61 231.77,-296.39"/>
</g>
<!-- String&#45;3221225479 -->
<g id="node1" class="node">
<title>String&#45;3221225479</title>
<g id="a_node1"><a xlink:title="String&#45;3221225479: String&#45;3221225479">
<path fill="white" stroke="none" d="M61.29,-253C61.29,-253 92.71,-253 92.71,-253 98.04,-253 103.38,-258.33 103.38,-263.67 103.38,-263.67 103.38,-274.33 103.38,-274.33 103.38,-279.67 98.04,-285 92.71,-285 92.71,-285 61.29,-285 61.29,-285 55.96,-285 50.62,-279.67 50.62,-274.33 50.62,-274.33 50.62,-263.67 50.62,-263.67 50.62,-258.33 55.96,-253 61.29,-253"/>
<text text-anchor="start" x="55.62" y="-263.2" font-family="Helvetica,sans-Serif" font-size="14.00">&quot;value&quot;</text>
<path fill="none" stroke="black" d="M61.29,-253C61.29,-253 92.71,-253 92.71,-253 98.04,-253 103.38,-258.33 103.38,-263.67 103.38,-263.67 103.38,-274.33 103.38,-274.33 103.38,-279.67 98.04,-285 92.71,-285 92.71,-285 61.29,-285 61.29,-285 55.96,-285 50.62,-279.67 50.62,-274.33 50.62,-274.33 50.62,-263.67 50.62,-263.67 50.62,-258.33 55.96,-253 61.29,-253"/>
</a>
</g>
</g>
<!-- String&#45;8 -->
<g id="node2" class="node">
<title>String&#45;8</title>
<g id="a_node2"><a xlink:title="String&#45;8: String&#45;8">
<path fill="white" stroke="none" d="M560.79,-174C560.79,-174 595.21,-174 595.21,-174 600.54,-174 605.88,-179.33 605.88,-184.67 605.88,-184.67 605.88,-195.33 605.88,-195.33 605.88,-200.67 600.54,-206 595.21,-206 595.21,-206 560.79,-206 560.79,-206 555.46,-206 550.12,-200.67 550.12,-195.33 550.12,-195.33 550.12,-184.67 550.12,-184.67 550.12,-179.33 555.46,-174 560.79,-174"/>
<text text-anchor="start" x="555.12" y="-184.2" font-family="Helvetica,sans-Serif" font-size="14.00">&quot;callee&quot;</text>
<path fill="none" stroke="black" d="M560.79,-174C560.79,-174 595.21,-174 595.21,-174 600.54,-174 605.88,-179.33 605.88,-184.67 605.88,-184.67 605.88,-195.33 605.88,-195.33 605.88,-200.67 600.54,-206 595.21,-206 595.21,-206 560.79,-206 560.79,-206 555.46,-206 550.12,-200.67 550.12,-195.33 550.12,-195.33 550.12,-184.67 550.12,-184.67 550.12,-179.33 555.46,-174 560.79,-174"/>
</a>
</g>
</g>
<!-- String&#45;268435462 -->
<g id="node3" class="node">
<title>String&#45;268435462</title>
<g id="a_node3"><a xlink:title="String&#45;268435462: String&#45;268435462">
<path fill="white" stroke="none" d="M583.42,-95C583.42,-95 750.58,-95 750.58,-95 755.92,-95 761.25,-100.33 761.25,-105.67 761.25,-105.67 761.25,-116.33 761.25,-116.33 761.25,-121.67 755.92,-127 750.58,-127 750.58,-127 583.42,-127 583.42,-127 578.08,-127 572.75,-121.67 572.75,-116.33 572.75,-116.33 572.75,-105.67 572.75,-105.67 572.75,-100.33 578.08,-95 583.42,-95"/>
<text text-anchor="start" x="577.75" y="-105.2" font-family="Helvetica,sans-Serif" font-size="14.00">&quot;normalize_distance_vectors&quot;</text>
<path fill="none" stroke="black" d="M583.42,-95C583.42,-95 750.58,-95 750.58,-95 755.92,-95 761.25,-100.33 761.25,-105.67 761.25,-105.67 761.25,-116.33 761.25,-116.33 761.25,-121.67 755.92,-127 750.58,-127 750.58,-127 583.42,-127 583.42,-127 578.08,-127 572.75,-121.67 572.75,-116.33 572.75,-116.33 572.75,-105.67 572.75,-105.67 572.75,-100.33 578.08,-95 583.42,-95"/>
</a>
</g>
</g>
<!-- String&#45;1073741829 -->
<g id="node4" class="node">
<title>String&#45;1073741829</title>
<g id="a_node4"><a xlink:title="String&#45;1073741829: String&#45;1073741829">
<path fill="white" stroke="none" d="M311.67,-95C311.67,-95 456.33,-95 456.33,-95 461.67,-95 467,-100.33 467,-105.67 467,-105.67 467,-116.33 467,-116.33 467,-121.67 461.67,-127 456.33,-127 456.33,-127 311.67,-127 311.67,-127 306.33,-127 301,-121.67 301,-116.33 301,-116.33 301,-105.67 301,-105.67 301,-100.33 306.33,-95 311.67,-95"/>
<text text-anchor="start" x="306" y="-105.2" font-family="Helvetica,sans-Serif" font-size="14.00">&quot;fillRandomF64Tensor2D&quot;</text>
<path fill="none" stroke="black" d="M311.67,-95C311.67,-95 456.33,-95 456.33,-95 461.67,-95 467,-100.33 467,-105.67 467,-105.67 467,-116.33 467,-116.33 467,-121.67 461.67,-127 456.33,-127 456.33,-127 311.67,-127 311.67,-127 306.33,-127 301,-121.67 301,-116.33 301,-116.33 301,-105.67 301,-105.67 301,-100.33 306.33,-95 311.67,-95"/>
</a>
</g>
</g>
<!-- String&#45;3221225478 -->
<g id="node5" class="node">
<title>String&#45;3221225478</title>
<g id="a_node5"><a xlink:title="String&#45;3221225478: String&#45;3221225478">
<path fill="white" stroke="none" d="M489.92,-95C489.92,-95 546.08,-95 546.08,-95 551.42,-95 556.75,-100.33 556.75,-105.67 556.75,-105.67 556.75,-116.33 556.75,-116.33 556.75,-121.67 551.42,-127 546.08,-127 546.08,-127 489.92,-127 489.92,-127 484.58,-127 479.25,-121.67 479.25,-116.33 479.25,-116.33 479.25,-105.67 479.25,-105.67 479.25,-100.33 484.58,-95 489.92,-95"/>
<text text-anchor="start" x="484.25" y="-105.2" font-family="Helvetica,sans-Serif" font-size="14.00">&quot;blackhole&quot;</text>
<path fill="none" stroke="black" d="M489.92,-95C489.92,-95 546.08,-95 546.08,-95 551.42,-95 556.75,-100.33 556.75,-105.67 556.75,-105.67 556.75,-116.33 556.75,-116.33 556.75,-121.67 551.42,-127 546.08,-127 546.08,-127 489.92,-127 489.92,-127 484.58,-127 479.25,-121.67 479.25,-116.33 479.25,-116.33 479.25,-105.67 479.25,-105.67 479.25,-100.33 484.58,-95 489.92,-95"/>
</a>
</g>
</g>
<!-- I32&#45;0 -->
<g id="node6" class="node">
<title>I32&#45;0</title>
<g id="a_node6"><a xlink:title="Type&#45;29: I32&#45;0">
<path fill="white" stroke="none" d="M37.67,-174C37.67,-174 48.33,-174 48.33,-174 53.67,-174 59,-179.33 59,-184.67 59,-184.67 59,-195.33 59,-195.33 59,-200.67 53.67,-206 48.33,-206 48.33,-206 37.67,-206 37.67,-206 32.33,-206 27,-200.67 27,-195.33 27,-195.33 27,-184.67 27,-184.67 27,-179.33 32.33,-174 37.67,-174"/>
<text text-anchor="start" x="33.62" y="-184.2" font-family="Helvetica,sans-Serif" font-size="14.00">I32</text>
<path fill="none" stroke="black" d="M37.67,-174C37.67,-174 48.33,-174 48.33,-174 53.67,-174 59,-179.33 59,-184.67 59,-184.67 59,-195.33 59,-195.33 59,-200.67 53.67,-206 48.33,-206 48.33,-206 37.67,-206 37.67,-206 32.33,-206 27,-200.67 27,-195.33 27,-195.33 27,-184.67 27,-184.67 27,-179.33 32.33,-174 37.67,-174"/>
</a>
</g>
</g>
<!-- RankedTensor&#45;15952540911656918845 -->
<g id="node7" class="node">
<title>RankedTensor&#45;15952540911656918845</title>
<g id="a_node7"><a xlink:title="Type&#45;10: RankedTensor&#45;15952540911656918845">
<path fill="white" stroke="none" d="M805.17,-174C805.17,-174 880.83,-174 880.83,-174 886.17,-174 891.5,-179.33 891.5,-184.67 891.5,-184.67 891.5,-195.33 891.5,-195.33 891.5,-200.67 886.17,-206 880.83,-206 880.83,-206 805.17,-206 805.17,-206 799.83,-206 794.5,-200.67 794.5,-195.33 794.5,-195.33 794.5,-184.67 794.5,-184.67 794.5,-179.33 799.83,-174 805.17,-174"/>
<text text-anchor="start" x="799.5" y="-184.2" font-family="Helvetica,sans-Serif" font-size="14.00">RankedTensor</text>
<path fill="none" stroke="black" d="M805.17,-174C805.17,-174 880.83,-174 880.83,-174 886.17,-174 891.5,-179.33 891.5,-184.67 891.5,-184.67 891.5,-195.33 891.5,-195.33 891.5,-200.67 886.17,-206 880.83,-206 880.83,-206 805.17,-206 805.17,-206 799.83,-206 794.5,-200.67 794.5,-195.33 794.5,-195.33 794.5,-184.67 794.5,-184.67 794.5,-179.33 799.83,-174 805.17,-174"/>
</a>
</g>
</g>
<!-- IntVec&#45;0 -->
<g id="node8" class="node">
<title>IntVec&#45;0</title>
<g id="a_node8"><a xlink:title="IntVec&#45;0: IntVec&#45;0">
<path fill="white" stroke="none" d="M50.67,-95C50.67,-95 77.33,-95 77.33,-95 82.67,-95 88,-100.33 88,-105.67 88,-105.67 88,-116.33 88,-116.33 88,-121.67 82.67,-127 77.33,-127 77.33,-127 50.67,-127 50.67,-127 45.33,-127 40,-121.67 40,-116.33 40,-116.33 40,-105.67 40,-105.67 40,-100.33 45.33,-95 50.67,-95"/>
<text text-anchor="start" x="44.88" y="-105.2" font-family="Helvetica,sans-Serif" font-size="14.00">IntVec</text>
<path fill="none" stroke="black" d="M50.67,-95C50.67,-95 77.33,-95 77.33,-95 82.67,-95 88,-100.33 88,-105.67 88,-105.67 88,-116.33 88,-116.33 88,-121.67 82.67,-127 77.33,-127 77.33,-127 50.67,-127 50.67,-127 45.33,-127 40,-121.67 40,-116.33 40,-116.33 40,-105.67 40,-105.67 40,-100.33 45.33,-95 50.67,-95"/>
</a>
</g>
</g>
<!-- F32&#45;0 -->
<g id="node9" class="node">
<title>F32&#45;0</title>
<g id="a_node9"><a xlink:title="Type&#45;9: F32&#45;0">
<path fill="white" stroke="none" d="M860.04,-95C860.04,-95 871.96,-95 871.96,-95 877.29,-95 882.62,-100.33 882.62,-105.67 882.62,-105.67 882.62,-116.33 882.62,-116.33 882.62,-121.67 877.29,-127 871.96,-127 871.96,-127 860.04,-127 860.04,-127 854.71,-127 849.38,-121.67 849.38,-116.33 849.38,-116.33 849.38,-105.67 849.38,-105.67 849.38,-100.33 854.71,-95 860.04,-95"/>
<text text-anchor="start" x="854.38" y="-105.2" font-family="Helvetica,sans-Serif" font-size="14.00">F32</text>
<path fill="none" stroke="black" d="M860.04,-95C860.04,-95 871.96,-95 871.96,-95 877.29,-95 882.62,-100.33 882.62,-105.67 882.62,-105.67 882.62,-116.33 882.62,-116.33 882.62,-121.67 877.29,-127 871.96,-127 871.96,-127 860.04,-127 860.04,-127 854.71,-127 849.38,-121.67 849.38,-116.33 849.38,-116.33 849.38,-105.67 849.38,-105.67 849.38,-100.33 854.71,-95 860.04,-95"/>
</a>
</g>
</g>
<!-- I64&#45;0 -->
<g id="node10" class="node">
<title>I64&#45;0</title>
<g id="a_node10"><a xlink:title="Type&#45;13: I64&#45;0">
<path fill="white" stroke="none" d="M175.67,-16C175.67,-16 186.33,-16 186.33,-16 191.67,-16 197,-21.33 197,-26.67 197,-26.67 197,-37.33 197,-37.33 197,-42.67 191.67,-48 186.33,-48 186.33,-48 175.67,-48 175.67,-48 170.33,-48 165,-42.67 165,-37.33 165,-37.33 165,-26.67 165,-26.67 165,-21.33 170.33,-16 175.67,-16"/>
<text text-anchor="start" x="171.62" y="-26.2" font-family="Helvetica,sans-Serif" font-size="14.00">I64</text>
<path fill="none" stroke="black" d="M175.67,-16C175.67,-16 186.33,-16 186.33,-16 191.67,-16 197,-21.33 197,-26.67 197,-26.67 197,-37.33 197,-37.33 197,-42.67 191.67,-48 186.33,-48 186.33,-48 175.67,-48 175.67,-48 170.33,-48 165,-42.67 165,-37.33 165,-37.33 165,-26.67 165,-26.67 165,-21.33 170.33,-16 175.67,-16"/>
</a>
</g>
</g>
<!-- RankedTensor&#45;5871781006564002453 -->
<g id="node11" class="node">
<title>RankedTensor&#45;5871781006564002453</title>
<g id="a_node11"><a xlink:title="Type&#45;2: RankedTensor&#45;5871781006564002453">
<path fill="white" stroke="none" d="M201.17,-174C201.17,-174 276.83,-174 276.83,-174 282.17,-174 287.5,-179.33 287.5,-184.67 287.5,-184.67 287.5,-195.33 287.5,-195.33 287.5,-200.67 282.17,-206 276.83,-206 276.83,-206 201.17,-206 201.17,-206 195.83,-206 190.5,-200.67 190.5,-195.33 190.5,-195.33 190.5,-184.67 190.5,-184.67 190.5,-179.33 195.83,-174 201.17,-174"/>
<text text-anchor="start" x="195.5" y="-184.2" font-family="Helvetica,sans-Serif" font-size="14.00">RankedTensor</text>
<path fill="none" stroke="black" d="M201.17,-174C201.17,-174 276.83,-174 276.83,-174 282.17,-174 287.5,-179.33 287.5,-184.67 287.5,-184.67 287.5,-195.33 287.5,-195.33 287.5,-200.67 282.17,-206 276.83,-206 276.83,-206 201.17,-206 201.17,-206 195.83,-206 190.5,-200.67 190.5,-195.33 190.5,-195.33 190.5,-184.67 190.5,-184.67 190.5,-179.33 195.83,-174 201.17,-174"/>
</a>
</g>
</g>
<!-- F64&#45;0 -->
<g id="node12" class="node">
<title>F64&#45;0</title>
<g id="a_node12"><a xlink:title="Type&#45;1: F64&#45;0">
<path fill="white" stroke="none" d="M256.04,-95C256.04,-95 267.96,-95 267.96,-95 273.29,-95 278.62,-100.33 278.62,-105.67 278.62,-105.67 278.62,-116.33 278.62,-116.33 278.62,-121.67 273.29,-127 267.96,-127 267.96,-127 256.04,-127 256.04,-127 250.71,-127 245.38,-121.67 245.38,-116.33 245.38,-116.33 245.38,-105.67 245.38,-105.67 245.38,-100.33 250.71,-95 256.04,-95"/>
<text text-anchor="start" x="250.38" y="-105.2" font-family="Helvetica,sans-Serif" font-size="14.00">F64</text>
<path fill="none" stroke="black" d="M256.04,-95C256.04,-95 267.96,-95 267.96,-95 273.29,-95 278.62,-100.33 278.62,-105.67 278.62,-105.67 278.62,-116.33 278.62,-116.33 278.62,-121.67 273.29,-127 267.96,-127 267.96,-127 256.04,-127 256.04,-127 250.71,-127 245.38,-121.67 245.38,-116.33 245.38,-116.33 245.38,-105.67 245.38,-105.67 245.38,-100.33 250.71,-95 256.04,-95"/>
</a>
</g>
</g>
<!-- None&#45;0 -->
<g id="node13" class="node">
<title>None&#45;0</title>
<g id="a_node13"><a xlink:title="Type&#45;26: None&#45;0">
<path fill="white" stroke="none" d="M932.54,-332C932.54,-332 953.46,-332 953.46,-332 958.79,-332 964.12,-337.33 964.12,-342.67 964.12,-342.67 964.12,-353.33 964.12,-353.33 964.12,-358.67 958.79,-364 953.46,-364 953.46,-364 932.54,-364 932.54,-364 927.21,-364 921.88,-358.67 921.88,-353.33 921.88,-353.33 921.88,-342.67 921.88,-342.67 921.88,-337.33 927.21,-332 932.54,-332"/>
<text text-anchor="start" x="926.88" y="-342.2" font-family="Helvetica,sans-Serif" font-size="14.00">None</text>
<path fill="none" stroke="black" d="M932.54,-332C932.54,-332 953.46,-332 953.46,-332 958.79,-332 964.12,-337.33 964.12,-342.67 964.12,-342.67 964.12,-353.33 964.12,-353.33 964.12,-358.67 958.79,-364 953.46,-364 953.46,-364 932.54,-364 932.54,-364 927.21,-364 921.88,-358.67 921.88,-353.33 921.88,-353.33 921.88,-342.67 921.88,-342.67 921.88,-337.33 927.21,-332 932.54,-332"/>
</a>
</g>
</g>
<!-- i64&#45;9 -->
<g id="node14" class="node">
<title>i64&#45;9</title>
<g id="a_node14"><a xlink:title="i64&#45;9: i64&#45;9">
<path fill="white" stroke="none" d="M871.67,-332C871.67,-332 882.33,-332 882.33,-332 887.67,-332 893,-337.33 893,-342.67 893,-342.67 893,-353.33 893,-353.33 893,-358.67 887.67,-364 882.33,-364 882.33,-364 871.67,-364 871.67,-364 866.33,-364 861,-358.67 861,-353.33 861,-353.33 861,-342.67 861,-342.67 861,-337.33 866.33,-332 871.67,-332"/>
<text text-anchor="start" x="873.25" y="-342.2" font-family="Helvetica,sans-Serif" font-size="14.00">9</text>
<path fill="none" stroke="black" d="M871.67,-332C871.67,-332 882.33,-332 882.33,-332 887.67,-332 893,-337.33 893,-342.67 893,-342.67 893,-353.33 893,-353.33 893,-358.67 887.67,-364 882.33,-364 882.33,-364 871.67,-364 871.67,-364 866.33,-364 861,-358.67 861,-353.33 861,-353.33 861,-342.67 861,-342.67 861,-337.33 866.33,-332 871.67,-332"/>
</a>
</g>
</g>
<!-- i64&#45;1000000 -->
<g id="node15" class="node">
<title>i64&#45;1000000</title>
<g id="a_node15"><a xlink:title="i64&#45;1000000: i64&#45;1000000">
<path fill="white" stroke="none" d="M24.42,-16C24.42,-16 65.58,-16 65.58,-16 70.92,-16 76.25,-21.33 76.25,-26.67 76.25,-26.67 76.25,-37.33 76.25,-37.33 76.25,-42.67 70.92,-48 65.58,-48 65.58,-48 24.42,-48 24.42,-48 19.08,-48 13.75,-42.67 13.75,-37.33 13.75,-37.33 13.75,-26.67 13.75,-26.67 13.75,-21.33 19.08,-16 24.42,-16"/>
<text text-anchor="start" x="18.75" y="-26.2" font-family="Helvetica,sans-Serif" font-size="14.00">1000000</text>
<path fill="none" stroke="black" d="M24.42,-16C24.42,-16 65.58,-16 65.58,-16 70.92,-16 76.25,-21.33 76.25,-26.67 76.25,-26.67 76.25,-37.33 76.25,-37.33 76.25,-42.67 70.92,-48 65.58,-48 65.58,-48 24.42,-48 24.42,-48 19.08,-48 13.75,-42.67 13.75,-37.33 13.75,-37.33 13.75,-26.67 13.75,-26.67 13.75,-21.33 19.08,-16 24.42,-16"/>
</a>
</g>
</g>
<!-- i64&#45;3 -->
<g id="node16" class="node">
<title>i64&#45;3</title>
<g id="a_node16"><a xlink:title="i64&#45;3: i64&#45;3">
<path fill="white" stroke="none" d="M109.67,-16C109.67,-16 120.33,-16 120.33,-16 125.67,-16 131,-21.33 131,-26.67 131,-26.67 131,-37.33 131,-37.33 131,-42.67 125.67,-48 120.33,-48 120.33,-48 109.67,-48 109.67,-48 104.33,-48 99,-42.67 99,-37.33 99,-37.33 99,-26.67 99,-26.67 99,-21.33 104.33,-16 109.67,-16"/>
<text text-anchor="start" x="111.25" y="-26.2" font-family="Helvetica,sans-Serif" font-size="14.00">3</text>
<path fill="none" stroke="black" d="M109.67,-16C109.67,-16 120.33,-16 120.33,-16 125.67,-16 131,-21.33 131,-26.67 131,-26.67 131,-37.33 131,-37.33 131,-42.67 125.67,-48 120.33,-48 120.33,-48 109.67,-48 109.67,-48 104.33,-48 99,-42.67 99,-37.33 99,-37.33 99,-26.67 99,-26.67 99,-21.33 104.33,-16 109.67,-16"/>
</a>
</g>
</g>
<!-- i64&#45;5 -->
<g id="node17" class="node">
<title>i64&#45;5</title>
<g id="a_node17"><a xlink:title="i64&#45;5: i64&#45;5">
<path fill="white" stroke="none" d="M241.67,-16C241.67,-16 252.33,-16 252.33,-16 257.67,-16 263,-21.33 263,-26.67 263,-26.67 263,-37.33 263,-37.33 263,-42.67 257.67,-48 252.33,-48 252.33,-48 241.67,-48 241.67,-48 236.33,-48 231,-42.67 231,-37.33 231,-37.33 231,-26.67 231,-26.67 231,-21.33 236.33,-16 241.67,-16"/>
<text text-anchor="start" x="243.25" y="-26.2" font-family="Helvetica,sans-Serif" font-size="14.00">5</text>
<path fill="none" stroke="black" d="M241.67,-16C241.67,-16 252.33,-16 252.33,-16 257.67,-16 263,-21.33 263,-26.67 263,-26.67 263,-37.33 263,-37.33 263,-42.67 257.67,-48 252.33,-48 252.33,-48 241.67,-48 241.67,-48 236.33,-48 231,-42.67 231,-37.33 231,-37.33 231,-26.67 231,-26.67 231,-21.33 236.33,-16 241.67,-16"/>
</a>
</g>
</g>
<!-- i64&#45;2 -->
<g id="node18" class="node">
<title>i64&#45;2</title>
<g id="a_node18"><a xlink:title="i64&#45;2: i64&#45;2">
<path fill="white" stroke="none" d="M749.67,-174C749.67,-174 760.33,-174 760.33,-174 765.67,-174 771,-179.33 771,-184.67 771,-184.67 771,-195.33 771,-195.33 771,-200.67 765.67,-206 760.33,-206 760.33,-206 749.67,-206 749.67,-206 744.33,-206 739,-200.67 739,-195.33 739,-195.33 739,-184.67 739,-184.67 739,-179.33 744.33,-174 749.67,-174"/>
<text text-anchor="start" x="751.25" y="-184.2" font-family="Helvetica,sans-Serif" font-size="14.00">2</text>
<path fill="none" stroke="black" d="M749.67,-174C749.67,-174 760.33,-174 760.33,-174 765.67,-174 771,-179.33 771,-184.67 771,-184.67 771,-195.33 771,-195.33 771,-200.67 765.67,-206 760.33,-206 760.33,-206 749.67,-206 749.67,-206 744.33,-206 739,-200.67 739,-195.33 739,-195.33 739,-184.67 739,-184.67 739,-179.33 744.33,-174 749.67,-174"/>
</a>
</g>
</g>
<!-- i64&#45;0 -->
<g id="node19" class="node">
<title>i64&#45;0</title>
<g id="a_node19"><a xlink:title="i64&#45;0: i64&#45;0">
<path fill="white" stroke="none" d="M137.67,-174C137.67,-174 148.33,-174 148.33,-174 153.67,-174 159,-179.33 159,-184.67 159,-184.67 159,-195.33 159,-195.33 159,-200.67 153.67,-206 148.33,-206 148.33,-206 137.67,-206 137.67,-206 132.33,-206 127,-200.67 127,-195.33 127,-195.33 127,-184.67 127,-184.67 127,-179.33 132.33,-174 137.67,-174"/>
<text text-anchor="start" x="139.25" y="-184.2" font-family="Helvetica,sans-Serif" font-size="14.00">0</text>
<path fill="none" stroke="black" d="M137.67,-174C137.67,-174 148.33,-174 148.33,-174 153.67,-174 159,-179.33 159,-184.67 159,-184.67 159,-195.33 159,-195.33 159,-200.67 153.67,-206 148.33,-206 148.33,-206 137.67,-206 137.67,-206 132.33,-206 127,-200.67 127,-195.33 127,-195.33 127,-184.67 127,-184.67 127,-179.33 132.33,-174 137.67,-174"/>
</a>
</g>
</g>
<!-- i64&#45;7 -->
<g id="node20" class="node">
<title>i64&#45;7</title>
<g id="a_node20"><a xlink:title="i64&#45;7: i64&#45;7">
<path fill="white" stroke="none" d="M1003.67,-332C1003.67,-332 1014.33,-332 1014.33,-332 1019.67,-332 1025,-337.33 1025,-342.67 1025,-342.67 1025,-353.33 1025,-353.33 1025,-358.67 1019.67,-364 1014.33,-364 1014.33,-364 1003.67,-364 1003.67,-364 998.33,-364 993,-358.67 993,-353.33 993,-353.33 993,-342.67 993,-342.67 993,-337.33 998.33,-332 1003.67,-332"/>
<text text-anchor="start" x="1005.25" y="-342.2" font-family="Helvetica,sans-Serif" font-size="14.00">7</text>
<path fill="none" stroke="black" d="M1003.67,-332C1003.67,-332 1014.33,-332 1014.33,-332 1019.67,-332 1025,-337.33 1025,-342.67 1025,-342.67 1025,-353.33 1025,-353.33 1025,-358.67 1019.67,-364 1014.33,-364 1014.33,-364 1003.67,-364 1003.67,-364 998.33,-364 993,-358.67 993,-353.33 993,-353.33 993,-342.67 993,-342.67 993,-337.33 998.33,-332 1003.67,-332"/>
</a>
</g>
</g>
<!-- NamedAttr&#45;4948198068296926101 -->
<g id="node21" class="node">
<title>NamedAttr&#45;4948198068296926101</title>
<g id="a_node21"><a xlink:title="AttrPair&#45;17: NamedAttr&#45;4948198068296926101">
<path fill="white" stroke="none" d="M639.17,-253C639.17,-253 692.83,-253 692.83,-253 698.17,-253 703.5,-258.33 703.5,-263.67 703.5,-263.67 703.5,-274.33 703.5,-274.33 703.5,-279.67 698.17,-285 692.83,-285 692.83,-285 639.17,-285 639.17,-285 633.83,-285 628.5,-279.67 628.5,-274.33 628.5,-274.33 628.5,-263.67 628.5,-263.67 628.5,-258.33 633.83,-253 639.17,-253"/>
<text text-anchor="start" x="633.38" y="-263.2" font-family="Helvetica,sans-Serif" font-size="14.00">NamedAttr</text>
<path fill="none" stroke="black" d="M639.17,-253C639.17,-253 692.83,-253 692.83,-253 698.17,-253 703.5,-258.33 703.5,-263.67 703.5,-263.67 703.5,-274.33 703.5,-274.33 703.5,-279.67 698.17,-285 692.83,-285 692.83,-285 639.17,-285 639.17,-285 633.83,-285 628.5,-279.67 628.5,-274.33 628.5,-274.33 628.5,-263.67 628.5,-263.67 628.5,-258.33 633.83,-253 639.17,-253"/>
</a>
</g>
</g>
<!-- SymbolRefAttr&#45;6583887671197450110 -->
<g id="node22" class="node">
<title>SymbolRefAttr&#45;6583887671197450110</title>
<g id="a_node22"><a xlink:title="Attr&#45;16: SymbolRefAttr&#45;6583887671197450110">
<path fill="white" stroke="none" d="M628.79,-174C628.79,-174 705.21,-174 705.21,-174 710.54,-174 715.88,-179.33 715.88,-184.67 715.88,-184.67 715.88,-195.33 715.88,-195.33 715.88,-200.67 710.54,-206 705.21,-206 705.21,-206 628.79,-206 628.79,-206 623.46,-206 618.12,-200.67 618.12,-195.33 618.12,-195.33 618.12,-184.67 618.12,-184.67 618.12,-179.33 623.46,-174 628.79,-174"/>
<text text-anchor="start" x="623.12" y="-184.2" font-family="Helvetica,sans-Serif" font-size="14.00">SymbolRefAttr</text>
<path fill="none" stroke="black" d="M628.79,-174C628.79,-174 705.21,-174 705.21,-174 710.54,-174 715.88,-179.33 715.88,-184.67 715.88,-184.67 715.88,-195.33 715.88,-195.33 715.88,-200.67 710.54,-206 705.21,-206 705.21,-206 628.79,-206 628.79,-206 623.46,-206 618.12,-200.67 618.12,-195.33 618.12,-195.33 618.12,-184.67 618.12,-184.67 618.12,-179.33 623.46,-174 628.79,-174"/>
</a>
</g>
</g>
<!-- NamedAttr&#45;17798651638220841180 -->
<g id="node23" class="node">
<title>NamedAttr&#45;17798651638220841180</title>
<g id="a_node23"><a xlink:title="AttrPair&#45;31: NamedAttr&#45;17798651638220841180">
<path fill="white" stroke="none" d="M68.17,-332C68.17,-332 121.83,-332 121.83,-332 127.17,-332 132.5,-337.33 132.5,-342.67 132.5,-342.67 132.5,-353.33 132.5,-353.33 132.5,-358.67 127.17,-364 121.83,-364 121.83,-364 68.17,-364 68.17,-364 62.83,-364 57.5,-358.67 57.5,-353.33 57.5,-353.33 57.5,-342.67 57.5,-342.67 57.5,-337.33 62.83,-332 68.17,-332"/>
<text text-anchor="start" x="62.38" y="-342.2" font-family="Helvetica,sans-Serif" font-size="14.00">NamedAttr</text>
<path fill="none" stroke="black" d="M68.17,-332C68.17,-332 121.83,-332 121.83,-332 127.17,-332 132.5,-337.33 132.5,-342.67 132.5,-342.67 132.5,-353.33 132.5,-353.33 132.5,-358.67 127.17,-364 121.83,-364 121.83,-364 68.17,-364 68.17,-364 62.83,-364 57.5,-358.67 57.5,-353.33 57.5,-353.33 57.5,-342.67 57.5,-342.67 57.5,-337.33 62.83,-332 68.17,-332"/>
</a>
</g>
</g>
<!-- IntegerAttr&#45;4260952526970106593 -->
<g id="node24" class="node">
<title>IntegerAttr&#45;4260952526970106593</title>
<g id="a_node24"><a xlink:title="Attr&#45;30: IntegerAttr&#45;4260952526970106593">
<path fill="white" stroke="none" d="M127.17,-253C127.17,-253 178.83,-253 178.83,-253 184.17,-253 189.5,-258.33 189.5,-263.67 189.5,-263.67 189.5,-274.33 189.5,-274.33 189.5,-279.67 184.17,-285 178.83,-285 178.83,-285 127.17,-285 127.17,-285 121.83,-285 116.5,-279.67 116.5,-274.33 116.5,-274.33 116.5,-263.67 116.5,-263.67 116.5,-258.33 121.83,-253 127.17,-253"/>
<text text-anchor="start" x="121.5" y="-263.2" font-family="Helvetica,sans-Serif" font-size="14.00">IntegerAttr</text>
<path fill="none" stroke="black" d="M127.17,-253C127.17,-253 178.83,-253 178.83,-253 184.17,-253 189.5,-258.33 189.5,-263.67 189.5,-263.67 189.5,-274.33 189.5,-274.33 189.5,-279.67 184.17,-285 178.83,-285 178.83,-285 127.17,-285 127.17,-285 121.83,-285 116.5,-279.67 116.5,-274.33 116.5,-274.33 116.5,-263.67 116.5,-263.67 116.5,-258.33 121.83,-253 127.17,-253"/>
</a>
</g>
</g>
<!-- NamedAttr&#45;5831572750755663012 -->
<g id="node25" class="node">
<title>NamedAttr&#45;5831572750755663012</title>
<g id="a_node25"><a xlink:title="AttrPair&#45;6: NamedAttr&#45;5831572750755663012">
<path fill="white" stroke="none" d="M334.17,-253C334.17,-253 387.83,-253 387.83,-253 393.17,-253 398.5,-258.33 398.5,-263.67 398.5,-263.67 398.5,-274.33 398.5,-274.33 398.5,-279.67 393.17,-285 387.83,-285 387.83,-285 334.17,-285 334.17,-285 328.83,-285 323.5,-279.67 323.5,-274.33 323.5,-274.33 323.5,-263.67 323.5,-263.67 323.5,-258.33 328.83,-253 334.17,-253"/>
<text text-anchor="start" x="328.38" y="-263.2" font-family="Helvetica,sans-Serif" font-size="14.00">NamedAttr</text>
<path fill="none" stroke="black" d="M334.17,-253C334.17,-253 387.83,-253 387.83,-253 393.17,-253 398.5,-258.33 398.5,-263.67 398.5,-263.67 398.5,-274.33 398.5,-274.33 398.5,-279.67 393.17,-285 387.83,-285 387.83,-285 334.17,-285 334.17,-285 328.83,-285 323.5,-279.67 323.5,-274.33 323.5,-274.33 323.5,-263.67 323.5,-263.67 323.5,-258.33 328.83,-253 334.17,-253"/>
</a>
</g>
</g>
<!-- SymbolRefAttr&#45;7005431928621511913 -->
<g id="node26" class="node">
<title>SymbolRefAttr&#45;7005431928621511913</title>
<g id="a_node26"><a xlink:title="Attr&#45;5: SymbolRefAttr&#45;7005431928621511913">
<path fill="white" stroke="none" d="M340.79,-174C340.79,-174 417.21,-174 417.21,-174 422.54,-174 427.88,-179.33 427.88,-184.67 427.88,-184.67 427.88,-195.33 427.88,-195.33 427.88,-200.67 422.54,-206 417.21,-206 417.21,-206 340.79,-206 340.79,-206 335.46,-206 330.12,-200.67 330.12,-195.33 330.12,-195.33 330.12,-184.67 330.12,-184.67 330.12,-179.33 335.46,-174 340.79,-174"/>
<text text-anchor="start" x="335.12" y="-184.2" font-family="Helvetica,sans-Serif" font-size="14.00">SymbolRefAttr</text>
<path fill="none" stroke="black" d="M340.79,-174C340.79,-174 417.21,-174 417.21,-174 422.54,-174 427.88,-179.33 427.88,-184.67 427.88,-184.67 427.88,-195.33 427.88,-195.33 427.88,-200.67 422.54,-206 417.21,-206 417.21,-206 340.79,-206 340.79,-206 335.46,-206 330.12,-200.67 330.12,-195.33 330.12,-195.33 330.12,-184.67 330.12,-184.67 330.12,-179.33 335.46,-174 340.79,-174"/>
</a>
</g>
</g>
<!-- NamedAttr&#45;3285395960261837587 -->
<g id="node27" class="node">
<title>NamedAttr&#45;3285395960261837587</title>
<g id="a_node27"><a xlink:title="AttrPair&#45;23: NamedAttr&#45;3285395960261837587">
<path fill="white" stroke="none" d="M551.17,-253C551.17,-253 604.83,-253 604.83,-253 610.17,-253 615.5,-258.33 615.5,-263.67 615.5,-263.67 615.5,-274.33 615.5,-274.33 615.5,-279.67 610.17,-285 604.83,-285 604.83,-285 551.17,-285 551.17,-285 545.83,-285 540.5,-279.67 540.5,-274.33 540.5,-274.33 540.5,-263.67 540.5,-263.67 540.5,-258.33 545.83,-253 551.17,-253"/>
<text text-anchor="start" x="545.38" y="-263.2" font-family="Helvetica,sans-Serif" font-size="14.00">NamedAttr</text>
<path fill="none" stroke="black" d="M551.17,-253C551.17,-253 604.83,-253 604.83,-253 610.17,-253 615.5,-258.33 615.5,-263.67 615.5,-263.67 615.5,-274.33 615.5,-274.33 615.5,-279.67 610.17,-285 604.83,-285 604.83,-285 551.17,-285 551.17,-285 545.83,-285 540.5,-279.67 540.5,-274.33 540.5,-274.33 540.5,-263.67 540.5,-263.67 540.5,-258.33 545.83,-253 551.17,-253"/>
</a>
</g>
</g>
<!-- SymbolRefAttr&#45;5063754874207616894 -->
<g id="node28" class="node">
<title>SymbolRefAttr&#45;5063754874207616894</title>
<g id="a_node28"><a xlink:title="Attr&#45;22: SymbolRefAttr&#45;5063754874207616894">
<path fill="white" stroke="none" d="M450.79,-174C450.79,-174 527.21,-174 527.21,-174 532.54,-174 537.88,-179.33 537.88,-184.67 537.88,-184.67 537.88,-195.33 537.88,-195.33 537.88,-200.67 532.54,-206 527.21,-206 527.21,-206 450.79,-206 450.79,-206 445.46,-206 440.12,-200.67 440.12,-195.33 440.12,-195.33 440.12,-184.67 440.12,-184.67 440.12,-179.33 445.46,-174 450.79,-174"/>
<text text-anchor="start" x="445.12" y="-184.2" font-family="Helvetica,sans-Serif" font-size="14.00">SymbolRefAttr</text>
<path fill="none" stroke="black" d="M450.79,-174C450.79,-174 527.21,-174 527.21,-174 532.54,-174 537.88,-179.33 537.88,-184.67 537.88,-184.67 537.88,-195.33 537.88,-195.33 537.88,-200.67 532.54,-206 527.21,-206 527.21,-206 450.79,-206 450.79,-206 445.46,-206 440.12,-200.67 440.12,-195.33 440.12,-195.33 440.12,-184.67 440.12,-184.67 440.12,-179.33 445.46,-174 450.79,-174"/>
</a>
</g>
</g>
<!-- Value&#45;5290151780539952054 -->
<g id="node29" class="node">
<title>Value&#45;5290151780539952054</title>
<g id="a_node29"><a xlink:title="Op&#45;8: Value&#45;5290151780539952054">
<path fill="white" stroke="none" d="M758.67,-253C758.67,-253 781.33,-253 781.33,-253 786.67,-253 792,-258.33 792,-263.67 792,-263.67 792,-274.33 792,-274.33 792,-279.67 786.67,-285 781.33,-285 781.33,-285 758.67,-285 758.67,-285 753.33,-285 748,-279.67 748,-274.33 748,-274.33 748,-263.67 748,-263.67 748,-258.33 753.33,-253 758.67,-253"/>
<text text-anchor="start" x="752.75" y="-263.2" font-family="Helvetica,sans-Serif" font-size="14.00">Value</text>
<path fill="none" stroke="black" d="M758.67,-253C758.67,-253 781.33,-253 781.33,-253 786.67,-253 792,-258.33 792,-263.67 792,-263.67 792,-274.33 792,-274.33 792,-279.67 786.67,-285 781.33,-285 781.33,-285 758.67,-285 758.67,-285 753.33,-285 748,-279.67 748,-274.33 748,-274.33 748,-263.67 748,-263.67 748,-258.33 753.33,-253 758.67,-253"/>
</a>
</g>
</g>
<!-- Value&#45;11743562013128004906 -->
<g id="node30" class="node">
<title>Value&#45;11743562013128004906</title>
<g id="a_node30"><a xlink:title="Op&#45;0: Value&#45;11743562013128004906">
<path fill="white" stroke="none" d="M217.67,-253C217.67,-253 240.33,-253 240.33,-253 245.67,-253 251,-258.33 251,-263.67 251,-263.67 251,-274.33 251,-274.33 251,-279.67 245.67,-285 240.33,-285 240.33,-285 217.67,-285 217.67,-285 212.33,-285 207,-279.67 207,-274.33 207,-274.33 207,-263.67 207,-263.67 207,-258.33 212.33,-253 217.67,-253"/>
<text text-anchor="start" x="211.75" y="-263.2" font-family="Helvetica,sans-Serif" font-size="14.00">Value</text>
<path fill="none" stroke="black" d="M217.67,-253C217.67,-253 240.33,-253 240.33,-253 245.67,-253 251,-258.33 251,-263.67 251,-263.67 251,-274.33 251,-274.33 251,-279.67 245.67,-285 240.33,-285 240.33,-285 217.67,-285 217.67,-285 212.33,-285 207,-279.67 207,-274.33 207,-274.33 207,-263.67 207,-263.67 207,-258.33 212.33,-253 217.67,-253"/>
</a>
</g>
</g>
<!-- Value&#45;2526907191799847605 -->
<g id="node31" class="node">
<title>Value&#45;2526907191799847605</title>
<g id="a_node31"><a xlink:title="Op&#45;33: Value&#45;2526907191799847605">
<path fill="white" stroke="none" d="M889.67,-411C889.67,-411 912.33,-411 912.33,-411 917.67,-411 923,-416.33 923,-421.67 923,-421.67 923,-432.33 923,-432.33 923,-437.67 917.67,-443 912.33,-443 912.33,-443 889.67,-443 889.67,-443 884.33,-443 879,-437.67 879,-432.33 879,-432.33 879,-421.67 879,-421.67 879,-416.33 884.33,-411 889.67,-411"/>
<text text-anchor="start" x="883.75" y="-421.2" font-family="Helvetica,sans-Serif" font-size="14.00">Value</text>
<path fill="none" stroke="black" d="M889.67,-411C889.67,-411 912.33,-411 912.33,-411 917.67,-411 923,-416.33 923,-421.67 923,-421.67 923,-432.33 923,-432.33 923,-437.67 917.67,-443 912.33,-443 912.33,-443 889.67,-443 889.67,-443 884.33,-443 879,-437.67 879,-432.33 879,-432.33 879,-421.67 879,-421.67 879,-416.33 884.33,-411 889.67,-411"/>
</a>
</g>
</g>
<!-- Value&#45;3898060157612719019 -->
<g id="node32" class="node">
<title>Value&#45;3898060157612719019</title>
<g id="a_node32"><a xlink:title="Op&#45;19: Value&#45;3898060157612719019">
<path fill="white" stroke="none" d="M184.67,-95C184.67,-95 207.33,-95 207.33,-95 212.67,-95 218,-100.33 218,-105.67 218,-105.67 218,-116.33 218,-116.33 218,-121.67 212.67,-127 207.33,-127 207.33,-127 184.67,-127 184.67,-127 179.33,-127 174,-121.67 174,-116.33 174,-116.33 174,-105.67 174,-105.67 174,-100.33 179.33,-95 184.67,-95"/>
<text text-anchor="start" x="178.75" y="-105.2" font-family="Helvetica,sans-Serif" font-size="14.00">Value</text>
<path fill="none" stroke="black" d="M184.67,-95C184.67,-95 207.33,-95 207.33,-95 212.67,-95 218,-100.33 218,-105.67 218,-105.67 218,-116.33 218,-116.33 218,-121.67 212.67,-127 207.33,-127 207.33,-127 184.67,-127 184.67,-127 179.33,-127 174,-121.67 174,-116.33 174,-116.33 174,-105.67 174,-105.67 174,-100.33 179.33,-95 184.67,-95"/>
</a>
</g>
</g>
<!-- Value&#45;5758660465200108737 -->
<g id="node33" class="node">
<title>Value&#45;5758660465200108737</title>
<g id="a_node33"><a xlink:title="Op&#45;25: Value&#45;5758660465200108737">
<path fill="white" stroke="none" d="M983.67,-411C983.67,-411 1006.33,-411 1006.33,-411 1011.67,-411 1017,-416.33 1017,-421.67 1017,-421.67 1017,-432.33 1017,-432.33 1017,-437.67 1011.67,-443 1006.33,-443 1006.33,-443 983.67,-443 983.67,-443 978.33,-443 973,-437.67 973,-432.33 973,-432.33 973,-421.67 973,-421.67 973,-416.33 978.33,-411 983.67,-411"/>
<text text-anchor="start" x="977.75" y="-421.2" font-family="Helvetica,sans-Serif" font-size="14.00">Value</text>
<path fill="none" stroke="black" d="M983.67,-411C983.67,-411 1006.33,-411 1006.33,-411 1011.67,-411 1017,-416.33 1017,-421.67 1017,-421.67 1017,-432.33 1017,-432.33 1017,-437.67 1011.67,-443 1006.33,-443 1006.33,-443 983.67,-443 983.67,-443 978.33,-443 973,-437.67 973,-432.33 973,-432.33 973,-421.67 973,-421.67 973,-416.33 978.33,-411 983.67,-411"/>
</a>
</g>
</g>
<!-- Value&#45;12066246126677053039 -->
<g id="node34" class="node">
<title>Value&#45;12066246126677053039</title>
<g id="a_node34"><a xlink:title="Op&#45;12: Value&#45;12066246126677053039">
<path fill="white" stroke="none" d="M118.67,-95C118.67,-95 141.33,-95 141.33,-95 146.67,-95 152,-100.33 152,-105.67 152,-105.67 152,-116.33 152,-116.33 152,-121.67 146.67,-127 141.33,-127 141.33,-127 118.67,-127 118.67,-127 113.33,-127 108,-121.67 108,-116.33 108,-116.33 108,-105.67 108,-105.67 108,-100.33 113.33,-95 118.67,-95"/>
<text text-anchor="start" x="112.75" y="-105.2" font-family="Helvetica,sans-Serif" font-size="14.00">Value</text>
<path fill="none" stroke="black" d="M118.67,-95C118.67,-95 141.33,-95 141.33,-95 146.67,-95 152,-100.33 152,-105.67 152,-105.67 152,-116.33 152,-116.33 152,-121.67 146.67,-127 141.33,-127 141.33,-127 118.67,-127 118.67,-127 113.33,-127 108,-121.67 108,-116.33 108,-116.33 108,-105.67 108,-105.67 108,-100.33 113.33,-95 118.67,-95"/>
</a>
</g>
</g>
<!-- func_call&#45;15784220428753006575 -->
<g id="node35" class="node">
<title>func_call&#45;15784220428753006575</title>
<g id="a_node35"><a xlink:title="Op&#45;21: func_call&#45;15784220428753006575">
<path fill="white" stroke="none" d="M779.17,-411C779.17,-411 820.83,-411 820.83,-411 826.17,-411 831.5,-416.33 831.5,-421.67 831.5,-421.67 831.5,-432.33 831.5,-432.33 831.5,-437.67 826.17,-443 820.83,-443 820.83,-443 779.17,-443 779.17,-443 773.83,-443 768.5,-437.67 768.5,-432.33 768.5,-432.33 768.5,-421.67 768.5,-421.67 768.5,-416.33 773.83,-411 779.17,-411"/>
<text text-anchor="start" x="773.38" y="-421.2" font-family="Helvetica,sans-Serif" font-size="14.00">func_call</text>
<path fill="none" stroke="black" d="M779.17,-411C779.17,-411 820.83,-411 820.83,-411 826.17,-411 831.5,-416.33 831.5,-421.67 831.5,-421.67 831.5,-432.33 831.5,-432.33 831.5,-437.67 826.17,-443 820.83,-443 820.83,-443 779.17,-443 779.17,-443 773.83,-443 768.5,-437.67 768.5,-432.33 768.5,-432.33 768.5,-421.67 768.5,-421.67 768.5,-416.33 773.83,-411 779.17,-411"/>
</a>
</g>
</g>
<!-- func_call&#45;868461099679118244 -->
<g id="node36" class="node">
<title>func_call&#45;868461099679118244</title>
<g id="a_node36"><a xlink:title="Op&#45;15: func_call&#45;868461099679118244">
<path fill="white" stroke="none" d="M764.17,-332C764.17,-332 805.83,-332 805.83,-332 811.17,-332 816.5,-337.33 816.5,-342.67 816.5,-342.67 816.5,-353.33 816.5,-353.33 816.5,-358.67 811.17,-364 805.83,-364 805.83,-364 764.17,-364 764.17,-364 758.83,-364 753.5,-358.67 753.5,-353.33 753.5,-353.33 753.5,-342.67 753.5,-342.67 753.5,-337.33 758.83,-332 764.17,-332"/>
<text text-anchor="start" x="758.38" y="-342.2" font-family="Helvetica,sans-Serif" font-size="14.00">func_call</text>
<path fill="none" stroke="black" d="M764.17,-332C764.17,-332 805.83,-332 805.83,-332 811.17,-332 816.5,-337.33 816.5,-342.67 816.5,-342.67 816.5,-353.33 816.5,-353.33 816.5,-358.67 811.17,-364 805.83,-364 805.83,-364 764.17,-364 764.17,-364 758.83,-364 753.5,-358.67 753.5,-353.33 753.5,-353.33 753.5,-342.67 753.5,-342.67 753.5,-337.33 758.83,-332 764.17,-332"/>
</a>
</g>
</g>
<!-- arith_constant&#45;15510901089103236190 -->
<g id="node37" class="node">
<title>arith_constant&#45;15510901089103236190</title>
<g id="a_node37"><a xlink:title="Op&#45;28: arith_constant&#45;15510901089103236190">
<path fill="white" stroke="none" d="M51.67,-411C51.67,-411 124.33,-411 124.33,-411 129.67,-411 135,-416.33 135,-421.67 135,-421.67 135,-432.33 135,-432.33 135,-437.67 129.67,-443 124.33,-443 124.33,-443 51.67,-443 51.67,-443 46.33,-443 41,-437.67 41,-432.33 41,-432.33 41,-421.67 41,-421.67 41,-416.33 46.33,-411 51.67,-411"/>
<text text-anchor="start" x="45.62" y="-421.2" font-family="Helvetica,sans-Serif" font-size="14.00">arith_constant</text>
<path fill="none" stroke="black" d="M51.67,-411C51.67,-411 124.33,-411 124.33,-411 129.67,-411 135,-416.33 135,-421.67 135,-421.67 135,-432.33 135,-432.33 135,-437.67 129.67,-443 124.33,-443 124.33,-443 51.67,-443 51.67,-443 46.33,-443 41,-437.67 41,-432.33 41,-432.33 41,-421.67 41,-421.67 41,-416.33 46.33,-411 51.67,-411"/>
</a>
</g>
</g>
<!-- func_call&#45;1476769281115640523 -->
<g id="node38" class="node">
<title>func_call&#45;1476769281115640523</title>
<g id="a_node38"><a xlink:title="Op&#45;4: func_call&#45;1476769281115640523">
<path fill="white" stroke="none" d="M225.17,-332C225.17,-332 266.83,-332 266.83,-332 272.17,-332 277.5,-337.33 277.5,-342.67 277.5,-342.67 277.5,-353.33 277.5,-353.33 277.5,-358.67 272.17,-364 266.83,-364 266.83,-364 225.17,-364 225.17,-364 219.83,-364 214.5,-358.67 214.5,-353.33 214.5,-353.33 214.5,-342.67 214.5,-342.67 214.5,-337.33 219.83,-332 225.17,-332"/>
<text text-anchor="start" x="219.38" y="-342.2" font-family="Helvetica,sans-Serif" font-size="14.00">func_call</text>
<path fill="none" stroke="black" d="M225.17,-332C225.17,-332 266.83,-332 266.83,-332 272.17,-332 277.5,-337.33 277.5,-342.67 277.5,-342.67 277.5,-353.33 277.5,-353.33 277.5,-358.67 272.17,-364 266.83,-364 266.83,-364 225.17,-364 225.17,-364 219.83,-364 214.5,-358.67 214.5,-353.33 214.5,-353.33 214.5,-342.67 214.5,-342.67 214.5,-337.33 219.83,-332 225.17,-332"/>
</a>
</g>
</g>
</g>
</svg>
