<?xml version="1.0" encoding="UTF-8" standalone="no"?>
<!DOCTYPE svg PUBLIC "-//W3C//DTD SVG 1.1//EN"
 "http://www.w3.org/Graphics/SVG/1.1/DTD/svg11.dtd">
<!-- Generated by graphviz version 12.0.0 (20240704.0754)
 -->
<!-- Pages: 1 -->
<svg width="1176pt" height="467pt"
 viewBox="0.00 0.00 1176.00 467.00" xmlns="http://www.w3.org/2000/svg" xmlns:xlink="http://www.w3.org/1999/xlink">
<g id="graph0" class="graph" transform="scale(1 1) rotate(0) translate(4 463)">
<polygon fill="white" stroke="none" points="-4,4 -4,-463 1172,-463 1172,4 -4,4"/>
<g id="clust1" class="cluster">
<title>outer_cluster_IntVec&#45;0</title>
</g>
<g id="clust2" class="cluster">
<title>cluster_IntVec&#45;0</title>
<path fill="#ffffb3" stroke="black" stroke-dasharray="5,2" d="M474,-90C474,-90 510,-90 510,-90 516,-90 522,-96 522,-102 522,-102 522,-120 522,-120 522,-126 516,-132 510,-132 510,-132 474,-132 474,-132 468,-132 462,-126 462,-120 462,-120 462,-102 462,-102 462,-96 468,-90 474,-90"/>
</g>
<g id="clust4" class="cluster">
<title>outer_cluster_Attr&#45;26</title>
</g>
<g id="clust5" class="cluster">
<title>cluster_Attr&#45;26</title>
<path fill="#bebada" stroke="black" stroke-dasharray="5,2" d="M610,-248C610,-248 666,-248 666,-248 672,-248 678,-254 678,-260 678,-260 678,-278 678,-278 678,-284 672,-290 666,-290 666,-290 610,-290 610,-290 604,-290 598,-284 598,-278 598,-278 598,-260 598,-260 598,-254 604,-248 610,-248"/>
</g>
<g id="clust7" class="cluster">
<title>outer_cluster_Attr&#45;18</title>
</g>
<g id="clust8" class="cluster">
<title>cluster_Attr&#45;18</title>
<path fill="#bebada" stroke="black" stroke-dasharray="5,2" d="M377,-169C377,-169 457,-169 457,-169 463,-169 469,-175 469,-181 469,-181 469,-199 469,-199 469,-205 463,-211 457,-211 457,-211 377,-211 377,-211 371,-211 365,-205 365,-199 365,-199 365,-181 365,-181 365,-175 371,-169 377,-169"/>
</g>
<g id="clust10" class="cluster">
<title>outer_cluster_Attr&#45;12</title>
</g>
<g id="clust11" class="cluster">
<title>cluster_Attr&#45;12</title>
<path fill="#bebada" stroke="black" stroke-dasharray="5,2" d="M199,-169C199,-169 279,-169 279,-169 285,-169 291,-175 291,-181 291,-181 291,-199 291,-199 291,-205 285,-211 279,-211 279,-211 199,-211 199,-211 193,-211 187,-205 187,-199 187,-199 187,-181 187,-181 187,-175 193,-169 199,-169"/>
</g>
<g id="clust13" class="cluster">
<title>outer_cluster_Type&#45;5</title>
</g>
<g id="clust14" class="cluster">
<title>cluster_Type&#45;5</title>
<path fill="#fb8072" stroke="black" stroke-dasharray="5,2" d="M68,-90C68,-90 104,-90 104,-90 110,-90 116,-96 116,-102 116,-102 116,-120 116,-120 116,-126 110,-132 104,-132 104,-132 68,-132 68,-132 62,-132 56,-126 56,-120 56,-120 56,-102 56,-102 56,-96 62,-90 68,-90"/>
</g>
<g id="clust16" class="cluster">
<title>outer_cluster_Type&#45;9</title>
</g>
<g id="clust17" class="cluster">
<title>cluster_Type&#45;9</title>
<path fill="#fb8072" stroke="black" stroke-dasharray="5,2" d="M840,-327C840,-327 876,-327 876,-327 882,-327 888,-333 888,-339 888,-339 888,-357 888,-357 888,-363 882,-369 876,-369 876,-369 840,-369 840,-369 834,-369 828,-363 828,-357 828,-357 828,-339 828,-339 828,-333 834,-327 840,-327"/>
</g>
<g id="clust19" class="cluster">
<title>outer_cluster_Type&#45;1</title>
</g>
<g id="clust20" class="cluster">
<title>cluster_Type&#45;1</title>
<path fill="#fb8072" stroke="black" stroke-dasharray="5,2" d="M540,-90C540,-90 576,-90 576,-90 582,-90 588,-96 588,-102 588,-102 588,-120 588,-120 588,-126 582,-132 576,-132 576,-132 540,-132 540,-132 534,-132 528,-126 528,-120 528,-120 528,-102 528,-102 528,-96 534,-90 540,-90"/>
</g>
<g id="clust22" class="cluster">
<title>outer_cluster_Type&#45;22</title>
</g>
<g id="clust23" class="cluster">
<title>cluster_Type&#45;22</title>
<path fill="#fb8072" stroke="black" stroke-dasharray="5,2" d="M1043,-327C1043,-327 1079,-327 1079,-327 1085,-327 1091,-333 1091,-339 1091,-339 1091,-357 1091,-357 1091,-363 1085,-369 1079,-369 1079,-369 1043,-369 1043,-369 1037,-369 1031,-363 1031,-357 1031,-357 1031,-339 1031,-339 1031,-333 1037,-327 1043,-327"/>
</g>
<g id="clust25" class="cluster">
<title>outer_cluster_Type&#45;6</title>
</g>
<g id="clust26" class="cluster">
<title>cluster_Type&#45;6</title>
<path fill="#fb8072" stroke="black" stroke-dasharray="5,2" d="M23,-169C23,-169 103,-169 103,-169 109,-169 115,-175 115,-181 115,-181 115,-199 115,-199 115,-205 109,-211 103,-211 103,-211 23,-211 23,-211 17,-211 11,-205 11,-199 11,-199 11,-181 11,-181 11,-175 17,-169 23,-169"/>
</g>
<g id="clust28" class="cluster">
<title>outer_cluster_Type&#45;25</title>
</g>
<g id="clust29" class="cluster">
<title>cluster_Type&#45;25</title>
<path fill="#fb8072" stroke="black" stroke-dasharray="5,2" d="M702,-169C702,-169 738,-169 738,-169 744,-169 750,-175 750,-181 750,-181 750,-199 750,-199 750,-205 744,-211 738,-211 738,-211 702,-211 702,-211 696,-211 690,-205 690,-199 690,-199 690,-181 690,-181 690,-175 696,-169 702,-169"/>
</g>
<g id="clust31" class="cluster">
<title>outer_cluster_Type&#45;2</title>
</g>
<g id="clust32" class="cluster">
<title>cluster_Type&#45;2</title>
<path fill="#fb8072" stroke="black" stroke-dasharray="5,2" d="M492,-169C492,-169 572,-169 572,-169 578,-169 584,-175 584,-181 584,-181 584,-199 584,-199 584,-205 578,-211 572,-211 572,-211 492,-211 492,-211 486,-211 480,-205 480,-199 480,-199 480,-181 480,-181 480,-175 486,-169 492,-169"/>
</g>
<g id="clust34" class="cluster">
<title>outer_cluster_Op&#45;8</title>
</g>
<g id="clust35" class="cluster">
<title>cluster_Op&#45;8</title>
<path fill="#80b1d3" stroke="black" stroke-dasharray="5,2" d="M813,-406C813,-406 849,-406 849,-406 855,-406 861,-412 861,-418 861,-418 861,-436 861,-436 861,-442 855,-448 849,-448 849,-448 813,-448 813,-448 807,-448 801,-442 801,-436 801,-436 801,-418 801,-418 801,-412 807,-406 813,-406"/>
</g>
<g id="clust37" class="cluster">
<title>outer_cluster_Op&#45;29</title>
</g>
<g id="clust38" class="cluster">
<title>cluster_Op&#45;29</title>
<path fill="#80b1d3" stroke="black" stroke-dasharray="5,2" d="M989,-406C989,-406 1025,-406 1025,-406 1031,-406 1037,-412 1037,-418 1037,-418 1037,-436 1037,-436 1037,-442 1031,-448 1025,-448 1025,-448 989,-448 989,-448 983,-448 977,-442 977,-436 977,-436 977,-418 977,-418 977,-412 983,-406 989,-406"/>
</g>
<g id="clust40" class="cluster">
<title>outer_cluster_Op&#45;15</title>
</g>
<g id="clust41" class="cluster">
<title>cluster_Op&#45;15</title>
<path fill="#80b1d3" stroke="black" stroke-dasharray="5,2" d="M913,-406C913,-406 949,-406 949,-406 955,-406 961,-412 961,-418 961,-418 961,-436 961,-436 961,-442 955,-448 949,-448 949,-448 913,-448 913,-448 907,-448 901,-442 901,-436 901,-436 901,-418 901,-418 901,-412 907,-406 913,-406"/>
</g>
<g id="clust43" class="cluster">
<title>outer_cluster_Op&#45;21</title>
</g>
<g id="clust44" class="cluster">
<title>cluster_Op&#45;21</title>
<path fill="#80b1d3" stroke="black" stroke-dasharray="5,2" d="M1083,-406C1083,-406 1119,-406 1119,-406 1125,-406 1131,-412 1131,-418 1131,-418 1131,-436 1131,-436 1131,-442 1125,-448 1119,-448 1119,-448 1083,-448 1083,-448 1077,-448 1071,-442 1071,-436 1071,-436 1071,-418 1071,-418 1071,-412 1077,-406 1083,-406"/>
</g>
<g id="clust46" class="cluster">
<title>outer_cluster_Op&#45;11</title>
</g>
<g id="clust47" class="cluster">
<title>cluster_Op&#45;11</title>
<path fill="#80b1d3" stroke="black" stroke-dasharray="5,2" d="M120,-327C120,-327 166,-327 166,-327 172,-327 178,-333 178,-339 178,-339 178,-357 178,-357 178,-363 172,-369 166,-369 166,-369 120,-369 120,-369 114,-369 108,-363 108,-357 108,-357 108,-339 108,-339 108,-333 114,-327 120,-327"/>
</g>
<g id="clust49" class="cluster">
<title>outer_cluster_Op&#45;24</title>
</g>
<g id="clust50" class="cluster">
<title>cluster_Op&#45;24</title>
<path fill="#80b1d3" stroke="black" stroke-dasharray="5,2" d="M690,-406C690,-406 766,-406 766,-406 772,-406 778,-412 778,-418 778,-418 778,-436 778,-436 778,-442 772,-448 766,-448 766,-448 690,-448 690,-448 684,-448 678,-442 678,-436 678,-436 678,-418 678,-418 678,-412 684,-406 690,-406"/>
</g>
<g id="clust52" class="cluster">
<title>outer_cluster_Op&#45;0</title>
</g>
<g id="clust53" class="cluster">
<title>cluster_Op&#45;0</title>
<path fill="#80b1d3" stroke="black" stroke-dasharray="5,2" d="M524,-248C524,-248 560,-248 560,-248 566,-248 572,-254 572,-260 572,-260 572,-278 572,-278 572,-284 566,-290 560,-290 560,-290 524,-290 524,-290 518,-290 512,-284 512,-278 512,-278 512,-260 512,-260 512,-254 518,-248 524,-248"/>
</g>
<g id="clust55" class="cluster">
<title>outer_cluster_Op&#45;17</title>
</g>
<g id="clust56" class="cluster">
<title>cluster_Op&#45;17</title>
<path fill="#80b1d3" stroke="black" stroke-dasharray="5,2" d="M135,-406C135,-406 181,-406 181,-406 187,-406 193,-412 193,-418 193,-418 193,-436 193,-436 193,-442 187,-448 181,-448 181,-448 135,-448 135,-448 129,-448 123,-442 123,-436 123,-436 123,-418 123,-418 123,-412 129,-406 135,-406"/>
</g>
<g id="clust58" class="cluster">
<title>outer_cluster_Op&#45;4</title>
</g>
<g id="clust59" class="cluster">
<title>cluster_Op&#45;4</title>
<path fill="#80b1d3" stroke="black" stroke-dasharray="5,2" d="M110,-248C110,-248 146,-248 146,-248 152,-248 158,-254 158,-260 158,-260 158,-278 158,-278 158,-284 152,-290 146,-290 146,-290 110,-290 110,-290 104,-290 98,-284 98,-278 98,-278 98,-260 98,-260 98,-254 104,-248 110,-248"/>
</g>
<g id="clust61" class="cluster">
<title>outer_cluster_String&#45;8</title>
</g>
<g id="clust62" class="cluster">
<title>cluster_String&#45;8</title>
<path fill="#fdb462" stroke="black" stroke-dasharray="5,2" d="M309,-169C309,-169 347,-169 347,-169 353,-169 359,-175 359,-181 359,-181 359,-199 359,-199 359,-205 353,-211 347,-211 347,-211 309,-211 309,-211 303,-211 297,-205 297,-199 297,-199 297,-181 297,-181 297,-175 303,-169 309,-169"/>
</g>
<g id="clust64" class="cluster">
<title>outer_cluster_String&#45;268435462</title>
</g>
<g id="clust65" class="cluster">
<title>cluster_String&#45;268435462</title>
<path fill="#fdb462" stroke="black" stroke-dasharray="5,2" d="M154,-90C154,-90 324,-90 324,-90 330,-90 336,-96 336,-102 336,-102 336,-120 336,-120 336,-126 330,-132 324,-132 324,-132 154,-132 154,-132 148,-132 142,-126 142,-120 142,-120 142,-102 142,-102 142,-96 148,-90 154,-90"/>
</g>
<g id="clust67" class="cluster">
<title>outer_cluster_String&#45;3221225478</title>
</g>
<g id="clust68" class="cluster">
<title>cluster_String&#45;3221225478</title>
<path fill="#fdb462" stroke="black" stroke-dasharray="5,2" d="M384,-90C384,-90 444,-90 444,-90 450,-90 456,-96 456,-102 456,-102 456,-120 456,-120 456,-126 450,-132 444,-132 444,-132 384,-132 384,-132 378,-132 372,-126 372,-120 372,-120 372,-102 372,-102 372,-96 378,-90 384,-90"/>
</g>
<g id="clust70" class="cluster">
<title>outer_cluster_String&#45;3221225479</title>
</g>
<g id="clust71" class="cluster">
<title>cluster_String&#45;3221225479</title>
<path fill="#fdb462" stroke="black" stroke-dasharray="5,2" d="M696,-248C696,-248 732,-248 732,-248 738,-248 744,-254 744,-260 744,-260 744,-278 744,-278 744,-284 738,-290 732,-290 732,-290 696,-290 696,-290 690,-290 684,-284 684,-278 684,-278 684,-260 684,-260 684,-254 690,-248 696,-248"/>
</g>
<g id="clust73" class="cluster">
<title>outer_cluster_i64&#45;8</title>
</g>
<g id="clust74" class="cluster">
<title>cluster_i64&#45;8</title>
<path fill="#b3de69" stroke="black" stroke-dasharray="5,2" d="M977,-327C977,-327 1013,-327 1013,-327 1019,-327 1025,-333 1025,-339 1025,-339 1025,-357 1025,-357 1025,-363 1019,-369 1013,-369 1013,-369 977,-369 977,-369 971,-369 965,-363 965,-357 965,-357 965,-339 965,-339 965,-333 971,-327 977,-327"/>
</g>
<g id="clust76" class="cluster">
<title>outer_cluster_i64&#45;4</title>
</g>
<g id="clust77" class="cluster">
<title>cluster_i64&#45;4</title>
<path fill="#b3de69" stroke="black" stroke-dasharray="5,2" d="M906,-327C906,-327 942,-327 942,-327 948,-327 954,-333 954,-339 954,-339 954,-357 954,-357 954,-363 948,-369 942,-369 942,-369 906,-369 906,-369 900,-369 894,-363 894,-357 894,-357 894,-339 894,-339 894,-333 900,-327 906,-327"/>
</g>
<g id="clust79" class="cluster">
<title>outer_cluster_i64&#45;1</title>
</g>
<g id="clust80" class="cluster">
<title>cluster_i64&#45;1</title>
<path fill="#b3de69" stroke="black" stroke-dasharray="5,2" d="M133,-169C133,-169 169,-169 169,-169 175,-169 181,-175 181,-181 181,-181 181,-199 181,-199 181,-205 175,-211 169,-211 169,-211 133,-211 133,-211 127,-211 121,-205 121,-199 121,-199 121,-181 121,-181 121,-175 127,-169 133,-169"/>
</g>
<g id="clust82" class="cluster">
<title>outer_cluster_i64&#45;1000000</title>
</g>
<g id="clust83" class="cluster">
<title>cluster_i64&#45;1000000</title>
<path fill="#b3de69" stroke="black" stroke-dasharray="5,2" d="M435,-11C435,-11 479,-11 479,-11 485,-11 491,-17 491,-23 491,-23 491,-41 491,-41 491,-47 485,-53 479,-53 479,-53 435,-53 435,-53 429,-53 423,-47 423,-41 423,-41 423,-23 423,-23 423,-17 429,-11 435,-11"/>
</g>
<g id="clust85" class="cluster">
<title>outer_cluster_i64&#45;2</title>
</g>
<g id="clust86" class="cluster">
<title>cluster_i64&#45;2</title>
<path fill="#b3de69" stroke="black" stroke-dasharray="5,2" d="M774,-327C774,-327 810,-327 810,-327 816,-327 822,-333 822,-339 822,-339 822,-357 822,-357 822,-363 816,-369 810,-369 810,-369 774,-369 774,-369 768,-369 762,-363 762,-357 762,-357 762,-339 762,-339 762,-333 768,-327 774,-327"/>
</g>
<g id="clust88" class="cluster">
<title>outer_cluster_i64&#45;0</title>
</g>
<g id="clust89" class="cluster">
<title>cluster_i64&#45;0</title>
<path fill="#b3de69" stroke="black" stroke-dasharray="5,2" d="M602,-169C602,-169 638,-169 638,-169 644,-169 650,-175 650,-181 650,-181 650,-199 650,-199 650,-205 644,-211 638,-211 638,-211 602,-211 602,-211 596,-211 590,-205 590,-199 590,-199 590,-181 590,-181 590,-175 596,-169 602,-169"/>
</g>
<g id="clust91" class="cluster">
<title>outer_cluster_i64&#45;6</title>
</g>
<g id="clust92" class="cluster">
<title>cluster_i64&#45;6</title>
<path fill="#b3de69" stroke="black" stroke-dasharray="5,2" d="M1109,-327C1109,-327 1145,-327 1145,-327 1151,-327 1157,-333 1157,-339 1157,-339 1157,-357 1157,-357 1157,-363 1151,-369 1145,-369 1145,-369 1109,-369 1109,-369 1103,-369 1097,-363 1097,-357 1097,-357 1097,-339 1097,-339 1097,-333 1103,-327 1109,-327"/>
</g>
<g id="clust94" class="cluster">
<title>outer_cluster_i64&#45;3</title>
</g>
<g id="clust95" class="cluster">
<title>cluster_i64&#45;3</title>
<path fill="#b3de69" stroke="black" stroke-dasharray="5,2" d="M509,-11C509,-11 545,-11 545,-11 551,-11 557,-17 557,-23 557,-23 557,-41 557,-41 557,-47 551,-53 545,-53 545,-53 509,-53 509,-53 503,-53 497,-47 497,-41 497,-41 497,-23 497,-23 497,-17 503,-11 509,-11"/>
</g>
<g id="clust97" class="cluster">
<title>outer_cluster_AttrPair&#45;19</title>
</g>
<g id="clust98" class="cluster">
<title>cluster_AttrPair&#45;19</title>
<path fill="#fccde5" stroke="black" stroke-dasharray="5,2" d="M317,-248C317,-248 375,-248 375,-248 381,-248 387,-254 387,-260 387,-260 387,-278 387,-278 387,-284 381,-290 375,-290 375,-290 317,-290 317,-290 311,-290 305,-284 305,-278 305,-278 305,-260 305,-260 305,-254 311,-248 317,-248"/>
</g>
<g id="clust100" class="cluster">
<title>outer_cluster_AttrPair&#45;27</title>
</g>
<g id="clust101" class="cluster">
<title>cluster_AttrPair&#45;27</title>
<path fill="#fccde5" stroke="black" stroke-dasharray="5,2" d="M674,-327C674,-327 732,-327 732,-327 738,-327 744,-333 744,-339 744,-339 744,-357 744,-357 744,-363 738,-369 732,-369 732,-369 674,-369 674,-369 668,-369 662,-363 662,-357 662,-357 662,-339 662,-339 662,-333 668,-327 674,-327"/>
</g>
<g id="clust103" class="cluster">
<title>outer_cluster_AttrPair&#45;13</title>
</g>
<g id="clust104" class="cluster">
<title>cluster_AttrPair&#45;13</title>
<path fill="#fccde5" stroke="black" stroke-dasharray="5,2" d="M192,-248C192,-248 250,-248 250,-248 256,-248 262,-254 262,-260 262,-260 262,-278 262,-278 262,-284 256,-290 250,-290 250,-290 192,-290 192,-290 186,-290 180,-284 180,-278 180,-278 180,-260 180,-260 180,-254 186,-248 192,-248"/>
</g>
<!-- IntVec&#45;0&#45;&gt;i64&#45;1000000 -->
<g id="edge1" class="edge">
<title>IntVec&#45;0:s&#45;&gt;i64&#45;1000000</title>
<path fill="none" stroke="black" d="M480.5,-95C480.5,-81.37 475.48,-67.09 470.07,-55.68"/>
<polygon fill="black" stroke="black" points="473.36,-57.38 469.09,-54.25 470.48,-59.36 473.36,-57.38"/>
</g>
<!-- IntVec&#45;0&#45;&gt;i64&#45;3 -->
<g id="edge2" class="edge">
<title>IntVec&#45;0:s&#45;&gt;i64&#45;3</title>
<path fill="none" stroke="black" d="M503.5,-95C503.5,-81.37 508.52,-67.09 513.93,-55.68"/>
<polygon fill="black" stroke="black" points="513.52,-59.36 514.91,-54.25 510.64,-57.38 513.52,-59.36"/>
</g>
<!-- IntegerAttr&#45;17667316648133200013&#45;&gt;i64&#45;0 -->
<g id="edge3" class="edge">
<title>IntegerAttr&#45;17667316648133200013:s&#45;&gt;i64&#45;0</title>
<path fill="none" stroke="black" d="M620,-253C620,-240.22 620,-225.96 620,-214.35"/>
<polygon fill="black" stroke="black" points="621.75,-217.51 620,-212.51 618.25,-217.51 621.75,-217.51"/>
</g>
<!-- IntegerAttr&#45;17667316648133200013&#45;&gt;I32&#45;0 -->
<g id="edge4" class="edge">
<title>IntegerAttr&#45;17667316648133200013:s&#45;&gt;I32&#45;0</title>
<path fill="none" stroke="black" d="M655.5,-253C655.5,-233.18 671.52,-217.72 687.59,-207.19"/>
<polygon fill="black" stroke="black" points="686.6,-210.64 688.92,-205.88 684.14,-208.15 686.6,-210.64"/>
</g>
<!-- SymbolRefAttr&#45;5063754874207616894&#45;&gt;String&#45;3221225478 -->
<g id="edge5" class="edge">
<title>SymbolRefAttr&#45;5063754874207616894:s&#45;&gt;String&#45;3221225478</title>
<path fill="none" stroke="black" d="M417,-174C417,-161.09 416.34,-146.68 415.64,-135.01"/>
<polygon fill="black" stroke="black" points="417.83,-138.24 415.45,-133.5 414.35,-138.68 417.83,-138.24"/>
</g>
<!-- SymbolRefAttr&#45;6583887671197450110&#45;&gt;String&#45;268435462 -->
<g id="edge6" class="edge">
<title>SymbolRefAttr&#45;6583887671197450110:s&#45;&gt;String&#45;268435462</title>
<path fill="none" stroke="black" d="M239,-174C239,-161.22 239,-146.96 239,-135.35"/>
<polygon fill="black" stroke="black" points="240.75,-138.51 239,-133.51 237.25,-138.51 240.75,-138.51"/>
</g>
<!-- RankedTensor&#45;10912160959110460649&#45;&gt;IntVec&#45;0 -->
<g id="edge7" class="edge">
<title>RankedTensor&#45;10912160959110460649:s&#45;&gt;IntVec&#45;0</title>
<path fill="none" stroke="black" d="M39,-174C39,-137.82 83.99,-169.43 120,-166 269.73,-151.72 315.03,-184.67 457,-135 457.44,-134.84 457.89,-134.68 458.33,-134.51"/>
<polygon fill="black" stroke="black" points="458.8,-136.22 462.67,-132.61 457.39,-133.02 458.8,-136.22"/>
</g>
<!-- RankedTensor&#45;10912160959110460649&#45;&gt;F32&#45;0 -->
<g id="edge8" class="edge">
<title>RankedTensor&#45;10912160959110460649:s&#45;&gt;F32&#45;0</title>
<path fill="none" stroke="black" d="M86.5,-174C86.5,-161.22 86.39,-146.96 86.28,-135.35"/>
<polygon fill="black" stroke="black" points="88.09,-138.48 86.24,-133.51 84.59,-138.55 88.09,-138.48"/>
</g>
<!-- RankedTensor&#45;5871781006564002453&#45;&gt;IntVec&#45;0 -->
<g id="edge9" class="edge">
<title>RankedTensor&#45;5871781006564002453:s&#45;&gt;IntVec&#45;0</title>
<path fill="none" stroke="black" d="M508,-174C508,-160.77 504.54,-146.45 500.85,-134.91"/>
<polygon fill="black" stroke="black" points="503.66,-137.52 500.3,-133.42 500.37,-138.72 503.66,-137.52"/>
</g>
<!-- RankedTensor&#45;5871781006564002453&#45;&gt;F64&#45;0 -->
<g id="edge10" class="edge">
<title>RankedTensor&#45;5871781006564002453:s&#45;&gt;F64&#45;0</title>
<path fill="none" stroke="black" d="M555.5,-174C555.5,-161.21 556.04,-146.95 556.61,-135.34"/>
<polygon fill="black" stroke="black" points="558.03,-138.66 556.8,-133.51 554.55,-138.3 558.03,-138.66"/>
</g>
<!-- Value&#45;17865114847685501217&#45;&gt;I64&#45;0 -->
<g id="edge12" class="edge">
<title>Value&#45;17865114847685501217:s&#45;&gt;I64&#45;0</title>
<path fill="none" stroke="black" d="M841.5,-411C841.5,-397.75 845.06,-383.42 848.88,-371.88"/>
<polygon fill="black" stroke="black" points="849.27,-375.7 849.45,-370.41 846.01,-374.43 849.27,-375.7"/>
</g>
<!-- Value&#45;17865114847685501217&#45;&gt;i64&#45;2 -->
<g id="edge11" class="edge">
<title>Value&#45;17865114847685501217:s&#45;&gt;i64&#45;2</title>
<path fill="none" stroke="black" d="M820.5,-411C820.5,-396.95 814.38,-382.61 807.82,-371.27"/>
<polygon fill="black" stroke="black" points="811.4,-372.41 806.65,-370.08 808.91,-374.87 811.4,-372.41"/>
</g>
<!-- Value&#45;3285395960261837587&#45;&gt;None&#45;0 -->
<g id="edge14" class="edge">
<title>Value&#45;3285395960261837587:s&#45;&gt;None&#45;0</title>
<path fill="none" stroke="black" d="M1017.5,-411C1017.5,-395.58 1026.63,-381.28 1036.52,-370.31"/>
<polygon fill="black" stroke="black" points="1034.52,-374.9 1036.73,-370.09 1032,-372.48 1034.52,-374.9"/>
</g>
<!-- Value&#45;3285395960261837587&#45;&gt;i64&#45;8 -->
<g id="edge13" class="edge">
<title>Value&#45;3285395960261837587:s&#45;&gt;i64&#45;8</title>
<path fill="none" stroke="black" d="M996.5,-411C996.5,-398.22 996.18,-383.96 995.83,-372.34"/>
<polygon fill="black" stroke="black" points="997.77,-375.39 995.72,-370.51 994.28,-375.61 997.77,-375.39"/>
</g>
<!-- Value&#45;14633361574285240085&#45;&gt;I64&#45;0 -->
<g id="edge16" class="edge">
<title>Value&#45;14633361574285240085:s&#45;&gt;I64&#45;0</title>
<path fill="none" stroke="black" d="M941.5,-411C941.5,-407.56 911.88,-386.22 887.92,-369.53"/>
<polygon fill="black" stroke="black" points="893.3,-369.8 888.01,-369.56 891.99,-373.05 893.3,-369.8"/>
</g>
<!-- Value&#45;14633361574285240085&#45;&gt;i64&#45;4 -->
<g id="edge15" class="edge">
<title>Value&#45;14633361574285240085:s&#45;&gt;i64&#45;4</title>
<path fill="none" stroke="black" d="M920.5,-411C920.5,-398.08 921.27,-383.68 922.08,-372"/>
<polygon fill="black" stroke="black" points="923.29,-375.7 922.31,-370.5 919.83,-375.18 923.29,-375.7"/>
</g>
<!-- Value&#45;13168357665802452775&#45;&gt;None&#45;0 -->
<g id="edge18" class="edge">
<title>Value&#45;13168357665802452775:s&#45;&gt;None&#45;0</title>
<path fill="none" stroke="black" d="M1111.5,-411C1111.5,-394.94 1101.19,-380.74 1089.89,-370"/>
<polygon fill="black" stroke="black" points="1094.78,-371.08 1089.63,-369.83 1092.87,-374.02 1094.78,-371.08"/>
</g>
<!-- Value&#45;13168357665802452775&#45;&gt;i64&#45;6 -->
<g id="edge17" class="edge">
<title>Value&#45;13168357665802452775:s&#45;&gt;i64&#45;6</title>
<path fill="none" stroke="black" d="M1090.5,-411C1090.5,-396.27 1098.25,-381.95 1106.6,-370.79"/>
<polygon fill="black" stroke="black" points="1104.99,-374.79 1107.37,-370.05 1102.56,-372.27 1104.99,-374.79"/>
</g>
<!-- func_call&#45;17660694385953582580&#45;&gt;RankedTensor&#45;10912160959110460649 -->
<g id="edge21" class="edge">
<title>func_call&#45;17660694385953582580:s&#45;&gt;RankedTensor&#45;10912160959110460649</title>
<path fill="none" stroke="black" d="M165.5,-332C165.5,-296.97 119.23,-320.07 97,-293 78.24,-270.15 69.68,-236.54 65.88,-214.22"/>
<polygon fill="black" stroke="black" points="68.48,-216.71 65.33,-212.45 65.13,-217.74 68.48,-216.71"/>
</g>
<!-- func_call&#45;17660694385953582580&#45;&gt;Value&#45;12699848981142296092 -->
<g id="edge19" class="edge">
<title>func_call&#45;17660694385953582580:s&#45;&gt;Value&#45;12699848981142296092</title>
<path fill="none" stroke="black" d="M127.5,-332C127.5,-319.22 127.61,-304.96 127.72,-293.35"/>
<polygon fill="black" stroke="black" points="129.41,-296.55 127.76,-291.51 125.91,-296.48 129.41,-296.55"/>
</g>
<!-- func_call&#45;17660694385953582580&#45;&gt;NamedAttr&#45;3337369588703030241 -->
<g id="edge20" class="edge">
<title>func_call&#45;17660694385953582580:s&#45;&gt;NamedAttr&#45;3337369588703030241</title>
<path fill="none" stroke="black" d="M150,-332C150,-313.77 163.45,-299.66 178.64,-289.55"/>
<polygon fill="black" stroke="black" points="176.44,-294 178.9,-289.3 174.05,-291.44 176.44,-294"/>
</g>
<!-- Value&#45;12699848981142296092&#45;&gt;RankedTensor&#45;10912160959110460649 -->
<g id="edge30" class="edge">
<title>Value&#45;12699848981142296092:s&#45;&gt;RankedTensor&#45;10912160959110460649</title>
<path fill="none" stroke="black" d="M138.5,-253C138.5,-234.87 125.33,-221.07 109.99,-211.14"/>
<polygon fill="black" stroke="black" points="116.31,-212.47 111.07,-211.7 114.68,-215.57 116.31,-212.47"/>
</g>
<!-- Value&#45;12699848981142296092&#45;&gt;i64&#45;1 -->
<g id="edge29" class="edge">
<title>Value&#45;12699848981142296092:s&#45;&gt;i64&#45;1</title>
<path fill="none" stroke="black" d="M117.5,-253C117.5,-238.6 124.59,-224.33 132.24,-213.12"/>
<polygon fill="black" stroke="black" points="131.17,-217.12 133.04,-212.16 128.49,-214.87 131.17,-217.12"/>
</g>
<!-- NamedAttr&#45;3337369588703030241&#45;&gt;SymbolRefAttr&#45;6583887671197450110 -->
<g id="edge36" class="edge">
<title>NamedAttr&#45;3337369588703030241:s&#45;&gt;SymbolRefAttr&#45;6583887671197450110</title>
<path fill="none" stroke="black" d="M239,-253C239,-240.22 239,-225.96 239,-214.35"/>
<polygon fill="black" stroke="black" points="240.75,-217.51 239,-212.51 237.25,-217.51 240.75,-217.51"/>
</g>
<!-- NamedAttr&#45;3337369588703030241&#45;&gt;String&#45;8 -->
<g id="edge35" class="edge">
<title>NamedAttr&#45;3337369588703030241:s&#45;&gt;String&#45;8</title>
<path fill="none" stroke="black" d="M202.5,-253C202.5,-209.61 253.71,-234.41 292,-214 293.77,-213.06 295.56,-212.06 297.36,-211.03"/>
<polygon fill="black" stroke="black" points="291.35,-213.19 296.22,-211.1 291.11,-209.7 291.35,-213.19"/>
</g>
<!-- arith_constant&#45;11789700473928456754&#45;&gt;I32&#45;0 -->
<g id="edge23" class="edge">
<title>arith_constant&#45;11789700473928456754:s&#45;&gt;I32&#45;0</title>
<path fill="none" stroke="black" d="M751,-411C751,-337.17 762.18,-316.8 745,-245 742.41,-234.18 737.58,-222.91 732.85,-213.49"/>
<polygon fill="black" stroke="black" points="736.29,-215.1 731.86,-212.2 733.52,-217.23 736.29,-215.1"/>
</g>
<!-- arith_constant&#45;11789700473928456754&#45;&gt;NamedAttr&#45;12758271685674382984 -->
<g id="edge22" class="edge">
<title>arith_constant&#45;11789700473928456754:s&#45;&gt;NamedAttr&#45;12758271685674382984</title>
<path fill="none" stroke="black" d="M705,-411C705,-398.22 704.57,-383.96 704.11,-372.34"/>
<polygon fill="black" stroke="black" points="706.11,-375.35 703.96,-370.51 702.62,-375.63 706.11,-375.35"/>
</g>
<!-- NamedAttr&#45;12758271685674382984&#45;&gt;IntegerAttr&#45;17667316648133200013 -->
<g id="edge34" class="edge">
<title>NamedAttr&#45;12758271685674382984:s&#45;&gt;IntegerAttr&#45;17667316648133200013</title>
<path fill="none" stroke="black" d="M721,-332C721,-319.81 697.74,-303.15 675.85,-290.17"/>
<polygon fill="black" stroke="black" points="682.06,-290.41 676.76,-290.48 680.95,-293.73 682.06,-290.41"/>
</g>
<!-- NamedAttr&#45;12758271685674382984&#45;&gt;String&#45;3221225479 -->
<g id="edge33" class="edge">
<title>NamedAttr&#45;12758271685674382984:s&#45;&gt;String&#45;3221225479</title>
<path fill="none" stroke="black" d="M684.5,-332C684.5,-317.86 690.83,-303.52 697.63,-292.19"/>
<polygon fill="black" stroke="black" points="696.41,-295.72 698.87,-291.03 694.02,-293.17 696.41,-295.72"/>
</g>
<!-- Value&#45;11743562013128004906&#45;&gt;i64&#45;0 -->
<g id="edge24" class="edge">
<title>Value&#45;11743562013128004906:s&#45;&gt;i64&#45;0</title>
<path fill="none" stroke="black" d="M531.5,-253C531.5,-251.18 563.93,-228.84 589.53,-211.5"/>
<polygon fill="black" stroke="black" points="587.46,-217.13 589.08,-212.08 584.67,-215.01 587.46,-217.13"/>
</g>
<!-- Value&#45;11743562013128004906&#45;&gt;RankedTensor&#45;5871781006564002453 -->
<g id="edge25" class="edge">
<title>Value&#45;11743562013128004906:s&#45;&gt;RankedTensor&#45;5871781006564002453</title>
<path fill="none" stroke="black" d="M552.5,-253C552.5,-239.48 548.05,-225.11 543.3,-213.61"/>
<polygon fill="black" stroke="black" points="546.56,-215.79 542.56,-212.31 543.52,-217.52 546.56,-215.79"/>
</g>
<!-- func_call&#45;834797003098335790&#45;&gt;RankedTensor&#45;10912160959110460649 -->
<g id="edge28" class="edge">
<title>func_call&#45;834797003098335790:s&#45;&gt;RankedTensor&#45;10912160959110460649</title>
<path fill="none" stroke="black" d="M180.5,-411C180.5,-374.02 131.92,-399.33 107,-372 66.42,-327.5 61.6,-251.96 61.98,-214.09"/>
<polygon fill="black" stroke="black" points="63.6,-217.57 62.04,-212.51 60.11,-217.45 63.6,-217.57"/>
</g>
<!-- func_call&#45;834797003098335790&#45;&gt;func_call&#45;17660694385953582580 -->
<g id="edge26" class="edge">
<title>func_call&#45;834797003098335790:s&#45;&gt;func_call&#45;17660694385953582580</title>
<path fill="none" stroke="black" d="M142.5,-411C142.5,-398.22 142.61,-383.96 142.72,-372.35"/>
<polygon fill="black" stroke="black" points="144.41,-375.55 142.76,-370.51 140.91,-375.48 144.41,-375.55"/>
</g>
<!-- func_call&#45;834797003098335790&#45;&gt;NamedAttr&#45;16691760081424931007 -->
<g id="edge27" class="edge">
<title>func_call&#45;834797003098335790:s&#45;&gt;NamedAttr&#45;16691760081424931007</title>
<path fill="none" stroke="black" d="M165,-411C165,-376.17 249.44,-323.14 302.98,-293.02"/>
<polygon fill="black" stroke="black" points="303.55,-294.71 307.06,-290.74 301.84,-291.65 303.55,-294.71"/>
</g>
<!-- NamedAttr&#45;16691760081424931007&#45;&gt;SymbolRefAttr&#45;5063754874207616894 -->
<g id="edge32" class="edge">
<title>NamedAttr&#45;16691760081424931007:s&#45;&gt;SymbolRefAttr&#45;5063754874207616894</title>
<path fill="none" stroke="black" d="M364,-253C364,-236.75 374.65,-222.61 386.4,-211.95"/>
<polygon fill="black" stroke="black" points="383.27,-215.69 386.8,-211.73 381.58,-212.63 383.27,-215.69"/>
</g>
<!-- NamedAttr&#45;16691760081424931007&#45;&gt;String&#45;8 -->
<g id="edge31" class="edge">
<title>NamedAttr&#45;16691760081424931007:s&#45;&gt;String&#45;8</title>
<path fill="none" stroke="black" d="M327.5,-253C327.5,-240.22 327.61,-225.96 327.72,-214.35"/>
<polygon fill="black" stroke="black" points="329.41,-217.55 327.76,-212.51 325.91,-217.48 329.41,-217.55"/>
</g>
<!-- IntVec&#45;0 -->
<g id="node1" class="node">
<title>IntVec&#45;0</title>
<g id="a_node1"><a xlink:title="IntVec&#45;0: IntVec&#45;0">
<path fill="white" stroke="none" d="M478.67,-95C478.67,-95 505.33,-95 505.33,-95 510.67,-95 516,-100.33 516,-105.67 516,-105.67 516,-116.33 516,-116.33 516,-121.67 510.67,-127 505.33,-127 505.33,-127 478.67,-127 478.67,-127 473.33,-127 468,-121.67 468,-116.33 468,-116.33 468,-105.67 468,-105.67 468,-100.33 473.33,-95 478.67,-95"/>
<text text-anchor="start" x="472.88" y="-105.2" font-family="Helvetica,sans-Serif" font-size="14.00">IntVec</text>
<path fill="none" stroke="black" d="M478.67,-95C478.67,-95 505.33,-95 505.33,-95 510.67,-95 516,-100.33 516,-105.67 516,-105.67 516,-116.33 516,-116.33 516,-121.67 510.67,-127 505.33,-127 505.33,-127 478.67,-127 478.67,-127 473.33,-127 468,-121.67 468,-116.33 468,-116.33 468,-105.67 468,-105.67 468,-100.33 473.33,-95 478.67,-95"/>
</a>
</g>
</g>
<!-- i64&#45;1000000 -->
<g id="node2" class="node">
<title>i64&#45;1000000</title>
<g id="a_node2"><a xlink:title="i64&#45;1000000: i64&#45;1000000">
<path fill="white" stroke="none" d="M436.42,-16C436.42,-16 477.58,-16 477.58,-16 482.92,-16 488.25,-21.33 488.25,-26.67 488.25,-26.67 488.25,-37.33 488.25,-37.33 488.25,-42.67 482.92,-48 477.58,-48 477.58,-48 436.42,-48 436.42,-48 431.08,-48 425.75,-42.67 425.75,-37.33 425.75,-37.33 425.75,-26.67 425.75,-26.67 425.75,-21.33 431.08,-16 436.42,-16"/>
<text text-anchor="start" x="430.75" y="-26.2" font-family="Helvetica,sans-Serif" font-size="14.00">1000000</text>
<path fill="none" stroke="black" d="M436.42,-16C436.42,-16 477.58,-16 477.58,-16 482.92,-16 488.25,-21.33 488.25,-26.67 488.25,-26.67 488.25,-37.33 488.25,-37.33 488.25,-42.67 482.92,-48 477.58,-48 477.58,-48 436.42,-48 436.42,-48 431.08,-48 425.75,-42.67 425.75,-37.33 425.75,-37.33 425.75,-26.67 425.75,-26.67 425.75,-21.33 431.08,-16 436.42,-16"/>
</a>
</g>
</g>
<!-- i64&#45;3 -->
<g id="node3" class="node">
<title>i64&#45;3</title>
<g id="a_node3"><a xlink:title="i64&#45;3: i64&#45;3">
<path fill="white" stroke="none" d="M521.67,-16C521.67,-16 532.33,-16 532.33,-16 537.67,-16 543,-21.33 543,-26.67 543,-26.67 543,-37.33 543,-37.33 543,-42.67 537.67,-48 532.33,-48 532.33,-48 521.67,-48 521.67,-48 516.33,-48 511,-42.67 511,-37.33 511,-37.33 511,-26.67 511,-26.67 511,-21.33 516.33,-16 521.67,-16"/>
<text text-anchor="start" x="523.25" y="-26.2" font-family="Helvetica,sans-Serif" font-size="14.00">3</text>
<path fill="none" stroke="black" d="M521.67,-16C521.67,-16 532.33,-16 532.33,-16 537.67,-16 543,-21.33 543,-26.67 543,-26.67 543,-37.33 543,-37.33 543,-42.67 537.67,-48 532.33,-48 532.33,-48 521.67,-48 521.67,-48 516.33,-48 511,-42.67 511,-37.33 511,-37.33 511,-26.67 511,-26.67 511,-21.33 516.33,-16 521.67,-16"/>
</a>
</g>
</g>
<!-- IntegerAttr&#45;17667316648133200013 -->
<g id="node4" class="node">
<title>IntegerAttr&#45;17667316648133200013</title>
<g id="a_node4"><a xlink:title="Attr&#45;26: IntegerAttr&#45;17667316648133200013">
<path fill="white" stroke="none" d="M612.17,-253C612.17,-253 663.83,-253 663.83,-253 669.17,-253 674.5,-258.33 674.5,-263.67 674.5,-263.67 674.5,-274.33 674.5,-274.33 674.5,-279.67 669.17,-285 663.83,-285 663.83,-285 612.17,-285 612.17,-285 606.83,-285 601.5,-279.67 601.5,-274.33 601.5,-274.33 601.5,-263.67 601.5,-263.67 601.5,-258.33 606.83,-253 612.17,-253"/>
<text text-anchor="start" x="606.5" y="-263.2" font-family="Helvetica,sans-Serif" font-size="14.00">IntegerAttr</text>
<path fill="none" stroke="black" d="M612.17,-253C612.17,-253 663.83,-253 663.83,-253 669.17,-253 674.5,-258.33 674.5,-263.67 674.5,-263.67 674.5,-274.33 674.5,-274.33 674.5,-279.67 669.17,-285 663.83,-285 663.83,-285 612.17,-285 612.17,-285 606.83,-285 601.5,-279.67 601.5,-274.33 601.5,-274.33 601.5,-263.67 601.5,-263.67 601.5,-258.33 606.83,-253 612.17,-253"/>
</a>
</g>
</g>
<!-- i64&#45;0 -->
<g id="node5" class="node">
<title>i64&#45;0</title>
<g id="a_node5"><a xlink:title="i64&#45;0: i64&#45;0">
<path fill="white" stroke="none" d="M614.67,-174C614.67,-174 625.33,-174 625.33,-174 630.67,-174 636,-179.33 636,-184.67 636,-184.67 636,-195.33 636,-195.33 636,-200.67 630.67,-206 625.33,-206 625.33,-206 614.67,-206 614.67,-206 609.33,-206 604,-200.67 604,-195.33 604,-195.33 604,-184.67 604,-184.67 604,-179.33 609.33,-174 614.67,-174"/>
<text text-anchor="start" x="616.25" y="-184.2" font-family="Helvetica,sans-Serif" font-size="14.00">0</text>
<path fill="none" stroke="black" d="M614.67,-174C614.67,-174 625.33,-174 625.33,-174 630.67,-174 636,-179.33 636,-184.67 636,-184.67 636,-195.33 636,-195.33 636,-200.67 630.67,-206 625.33,-206 625.33,-206 614.67,-206 614.67,-206 609.33,-206 604,-200.67 604,-195.33 604,-195.33 604,-184.67 604,-184.67 604,-179.33 609.33,-174 614.67,-174"/>
</a>
</g>
</g>
<!-- I32&#45;0 -->
<g id="node6" class="node">
<title>I32&#45;0</title>
<g id="a_node6"><a xlink:title="Type&#45;25: I32&#45;0">
<path fill="white" stroke="none" d="M714.67,-174C714.67,-174 725.33,-174 725.33,-174 730.67,-174 736,-179.33 736,-184.67 736,-184.67 736,-195.33 736,-195.33 736,-200.67 730.67,-206 725.33,-206 725.33,-206 714.67,-206 714.67,-206 709.33,-206 704,-200.67 704,-195.33 704,-195.33 704,-184.67 704,-184.67 704,-179.33 709.33,-174 714.67,-174"/>
<text text-anchor="start" x="710.62" y="-184.2" font-family="Helvetica,sans-Serif" font-size="14.00">I32</text>
<path fill="none" stroke="black" d="M714.67,-174C714.67,-174 725.33,-174 725.33,-174 730.67,-174 736,-179.33 736,-184.67 736,-184.67 736,-195.33 736,-195.33 736,-200.67 730.67,-206 725.33,-206 725.33,-206 714.67,-206 714.67,-206 709.33,-206 704,-200.67 704,-195.33 704,-195.33 704,-184.67 704,-184.67 704,-179.33 709.33,-174 714.67,-174"/>
</a>
</g>
</g>
<!-- SymbolRefAttr&#45;5063754874207616894 -->
<g id="node7" class="node">
<title>SymbolRefAttr&#45;5063754874207616894</title>
<g id="a_node7"><a xlink:title="Attr&#45;18: SymbolRefAttr&#45;5063754874207616894">
<path fill="white" stroke="none" d="M378.79,-174C378.79,-174 455.21,-174 455.21,-174 460.54,-174 465.88,-179.33 465.88,-184.67 465.88,-184.67 465.88,-195.33 465.88,-195.33 465.88,-200.67 460.54,-206 455.21,-206 455.21,-206 378.79,-206 378.79,-206 373.46,-206 368.12,-200.67 368.12,-195.33 368.12,-195.33 368.12,-184.67 368.12,-184.67 368.12,-179.33 373.46,-174 378.79,-174"/>
<text text-anchor="start" x="373.12" y="-184.2" font-family="Helvetica,sans-Serif" font-size="14.00">SymbolRefAttr</text>
<path fill="none" stroke="black" d="M378.79,-174C378.79,-174 455.21,-174 455.21,-174 460.54,-174 465.88,-179.33 465.88,-184.67 465.88,-184.67 465.88,-195.33 465.88,-195.33 465.88,-200.67 460.54,-206 455.21,-206 455.21,-206 378.79,-206 378.79,-206 373.46,-206 368.12,-200.67 368.12,-195.33 368.12,-195.33 368.12,-184.67 368.12,-184.67 368.12,-179.33 373.46,-174 378.79,-174"/>
</a>
</g>
</g>
<!-- String&#45;3221225478 -->
<g id="node8" class="node">
<title>String&#45;3221225478</title>
<g id="a_node8"><a xlink:title="String&#45;3221225478: String&#45;3221225478">
<path fill="white" stroke="none" d="M385.92,-95C385.92,-95 442.08,-95 442.08,-95 447.42,-95 452.75,-100.33 452.75,-105.67 452.75,-105.67 452.75,-116.33 452.75,-116.33 452.75,-121.67 447.42,-127 442.08,-127 442.08,-127 385.92,-127 385.92,-127 380.58,-127 375.25,-121.67 375.25,-116.33 375.25,-116.33 375.25,-105.67 375.25,-105.67 375.25,-100.33 380.58,-95 385.92,-95"/>
<text text-anchor="start" x="380.25" y="-105.2" font-family="Helvetica,sans-Serif" font-size="14.00">&quot;blackhole&quot;</text>
<path fill="none" stroke="black" d="M385.92,-95C385.92,-95 442.08,-95 442.08,-95 447.42,-95 452.75,-100.33 452.75,-105.67 452.75,-105.67 452.75,-116.33 452.75,-116.33 452.75,-121.67 447.42,-127 442.08,-127 442.08,-127 385.92,-127 385.92,-127 380.58,-127 375.25,-121.67 375.25,-116.33 375.25,-116.33 375.25,-105.67 375.25,-105.67 375.25,-100.33 380.58,-95 385.92,-95"/>
</a>
</g>
</g>
<!-- SymbolRefAttr&#45;6583887671197450110 -->
<g id="node9" class="node">
<title>SymbolRefAttr&#45;6583887671197450110</title>
<g id="a_node9"><a xlink:title="Attr&#45;12: SymbolRefAttr&#45;6583887671197450110">
<path fill="white" stroke="none" d="M200.79,-174C200.79,-174 277.21,-174 277.21,-174 282.54,-174 287.88,-179.33 287.88,-184.67 287.88,-184.67 287.88,-195.33 287.88,-195.33 287.88,-200.67 282.54,-206 277.21,-206 277.21,-206 200.79,-206 200.79,-206 195.46,-206 190.12,-200.67 190.12,-195.33 190.12,-195.33 190.12,-184.67 190.12,-184.67 190.12,-179.33 195.46,-174 200.79,-174"/>
<text text-anchor="start" x="195.12" y="-184.2" font-family="Helvetica,sans-Serif" font-size="14.00">SymbolRefAttr</text>
<path fill="none" stroke="black" d="M200.79,-174C200.79,-174 277.21,-174 277.21,-174 282.54,-174 287.88,-179.33 287.88,-184.67 287.88,-184.67 287.88,-195.33 287.88,-195.33 287.88,-200.67 282.54,-206 277.21,-206 277.21,-206 200.79,-206 200.79,-206 195.46,-206 190.12,-200.67 190.12,-195.33 190.12,-195.33 190.12,-184.67 190.12,-184.67 190.12,-179.33 195.46,-174 200.79,-174"/>
</a>
</g>
</g>
<!-- String&#45;268435462 -->
<g id="node10" class="node">
<title>String&#45;268435462</title>
<g id="a_node10"><a xlink:title="String&#45;268435462: String&#45;268435462">
<path fill="white" stroke="none" d="M155.42,-95C155.42,-95 322.58,-95 322.58,-95 327.92,-95 333.25,-100.33 333.25,-105.67 333.25,-105.67 333.25,-116.33 333.25,-116.33 333.25,-121.67 327.92,-127 322.58,-127 322.58,-127 155.42,-127 155.42,-127 150.08,-127 144.75,-121.67 144.75,-116.33 144.75,-116.33 144.75,-105.67 144.75,-105.67 144.75,-100.33 150.08,-95 155.42,-95"/>
<text text-anchor="start" x="149.75" y="-105.2" font-family="Helvetica,sans-Serif" font-size="14.00">&quot;normalize_distance_vectors&quot;</text>
<path fill="none" stroke="black" d="M155.42,-95C155.42,-95 322.58,-95 322.58,-95 327.92,-95 333.25,-100.33 333.25,-105.67 333.25,-105.67 333.25,-116.33 333.25,-116.33 333.25,-121.67 327.92,-127 322.58,-127 322.58,-127 155.42,-127 155.42,-127 150.08,-127 144.75,-121.67 144.75,-116.33 144.75,-116.33 144.75,-105.67 144.75,-105.67 144.75,-100.33 150.08,-95 155.42,-95"/>
</a>
</g>
</g>
<!-- F32&#45;0 -->
<g id="node11" class="node">
<title>F32&#45;0</title>
<g id="a_node11"><a xlink:title="Type&#45;5: F32&#45;0">
<path fill="white" stroke="none" d="M80.04,-95C80.04,-95 91.96,-95 91.96,-95 97.29,-95 102.62,-100.33 102.62,-105.67 102.62,-105.67 102.62,-116.33 102.62,-116.33 102.62,-121.67 97.29,-127 91.96,-127 91.96,-127 80.04,-127 80.04,-127 74.71,-127 69.38,-121.67 69.38,-116.33 69.38,-116.33 69.38,-105.67 69.38,-105.67 69.38,-100.33 74.71,-95 80.04,-95"/>
<text text-anchor="start" x="74.38" y="-105.2" font-family="Helvetica,sans-Serif" font-size="14.00">F32</text>
<path fill="none" stroke="black" d="M80.04,-95C80.04,-95 91.96,-95 91.96,-95 97.29,-95 102.62,-100.33 102.62,-105.67 102.62,-105.67 102.62,-116.33 102.62,-116.33 102.62,-121.67 97.29,-127 91.96,-127 91.96,-127 80.04,-127 80.04,-127 74.71,-127 69.38,-121.67 69.38,-116.33 69.38,-116.33 69.38,-105.67 69.38,-105.67 69.38,-100.33 74.71,-95 80.04,-95"/>
</a>
</g>
</g>
<!-- I64&#45;0 -->
<g id="node12" class="node">
<title>I64&#45;0</title>
<g id="a_node12"><a xlink:title="Type&#45;9: I64&#45;0">
<path fill="white" stroke="none" d="M852.67,-332C852.67,-332 863.33,-332 863.33,-332 868.67,-332 874,-337.33 874,-342.67 874,-342.67 874,-353.33 874,-353.33 874,-358.67 868.67,-364 863.33,-364 863.33,-364 852.67,-364 852.67,-364 847.33,-364 842,-358.67 842,-353.33 842,-353.33 842,-342.67 842,-342.67 842,-337.33 847.33,-332 852.67,-332"/>
<text text-anchor="start" x="848.62" y="-342.2" font-family="Helvetica,sans-Serif" font-size="14.00">I64</text>
<path fill="none" stroke="black" d="M852.67,-332C852.67,-332 863.33,-332 863.33,-332 868.67,-332 874,-337.33 874,-342.67 874,-342.67 874,-353.33 874,-353.33 874,-358.67 868.67,-364 863.33,-364 863.33,-364 852.67,-364 852.67,-364 847.33,-364 842,-358.67 842,-353.33 842,-353.33 842,-342.67 842,-342.67 842,-337.33 847.33,-332 852.67,-332"/>
</a>
</g>
</g>
<!-- F64&#45;0 -->
<g id="node13" class="node">
<title>F64&#45;0</title>
<g id="a_node13"><a xlink:title="Type&#45;1: F64&#45;0">
<path fill="white" stroke="none" d="M552.04,-95C552.04,-95 563.96,-95 563.96,-95 569.29,-95 574.62,-100.33 574.62,-105.67 574.62,-105.67 574.62,-116.33 574.62,-116.33 574.62,-121.67 569.29,-127 563.96,-127 563.96,-127 552.04,-127 552.04,-127 546.71,-127 541.38,-121.67 541.38,-116.33 541.38,-116.33 541.38,-105.67 541.38,-105.67 541.38,-100.33 546.71,-95 552.04,-95"/>
<text text-anchor="start" x="546.38" y="-105.2" font-family="Helvetica,sans-Serif" font-size="14.00">F64</text>
<path fill="none" stroke="black" d="M552.04,-95C552.04,-95 563.96,-95 563.96,-95 569.29,-95 574.62,-100.33 574.62,-105.67 574.62,-105.67 574.62,-116.33 574.62,-116.33 574.62,-121.67 569.29,-127 563.96,-127 563.96,-127 552.04,-127 552.04,-127 546.71,-127 541.38,-121.67 541.38,-116.33 541.38,-116.33 541.38,-105.67 541.38,-105.67 541.38,-100.33 546.71,-95 552.04,-95"/>
</a>
</g>
</g>
<!-- None&#45;0 -->
<g id="node14" class="node">
<title>None&#45;0</title>
<g id="a_node14"><a xlink:title="Type&#45;22: None&#45;0">
<path fill="white" stroke="none" d="M1050.54,-332C1050.54,-332 1071.46,-332 1071.46,-332 1076.79,-332 1082.12,-337.33 1082.12,-342.67 1082.12,-342.67 1082.12,-353.33 1082.12,-353.33 1082.12,-358.67 1076.79,-364 1071.46,-364 1071.46,-364 1050.54,-364 1050.54,-364 1045.21,-364 1039.88,-358.67 1039.88,-353.33 1039.88,-353.33 1039.88,-342.67 1039.88,-342.67 1039.88,-337.33 1045.21,-332 1050.54,-332"/>
<text text-anchor="start" x="1044.88" y="-342.2" font-family="Helvetica,sans-Serif" font-size="14.00">None</text>
<path fill="none" stroke="black" d="M1050.54,-332C1050.54,-332 1071.46,-332 1071.46,-332 1076.79,-332 1082.12,-337.33 1082.12,-342.67 1082.12,-342.67 1082.12,-353.33 1082.12,-353.33 1082.12,-358.67 1076.79,-364 1071.46,-364 1071.46,-364 1050.54,-364 1050.54,-364 1045.21,-364 1039.88,-358.67 1039.88,-353.33 1039.88,-353.33 1039.88,-342.67 1039.88,-342.67 1039.88,-337.33 1045.21,-332 1050.54,-332"/>
</a>
</g>
</g>
<!-- RankedTensor&#45;10912160959110460649 -->
<g id="node15" class="node">
<title>RankedTensor&#45;10912160959110460649</title>
<g id="a_node15"><a xlink:title="Type&#45;6: RankedTensor&#45;10912160959110460649">
<path fill="white" stroke="none" d="M25.17,-174C25.17,-174 100.83,-174 100.83,-174 106.17,-174 111.5,-179.33 111.5,-184.67 111.5,-184.67 111.5,-195.33 111.5,-195.33 111.5,-200.67 106.17,-206 100.83,-206 100.83,-206 25.17,-206 25.17,-206 19.83,-206 14.5,-200.67 14.5,-195.33 14.5,-195.33 14.5,-184.67 14.5,-184.67 14.5,-179.33 19.83,-174 25.17,-174"/>
<text text-anchor="start" x="19.5" y="-184.2" font-family="Helvetica,sans-Serif" font-size="14.00">RankedTensor</text>
<path fill="none" stroke="black" d="M25.17,-174C25.17,-174 100.83,-174 100.83,-174 106.17,-174 111.5,-179.33 111.5,-184.67 111.5,-184.67 111.5,-195.33 111.5,-195.33 111.5,-200.67 106.17,-206 100.83,-206 100.83,-206 25.17,-206 25.17,-206 19.83,-206 14.5,-200.67 14.5,-195.33 14.5,-195.33 14.5,-184.67 14.5,-184.67 14.5,-179.33 19.83,-174 25.17,-174"/>
</a>
</g>
</g>
<!-- RankedTensor&#45;5871781006564002453 -->
<g id="node16" class="node">
<title>RankedTensor&#45;5871781006564002453</title>
<g id="a_node16"><a xlink:title="Type&#45;2: RankedTensor&#45;5871781006564002453">
<path fill="white" stroke="none" d="M494.17,-174C494.17,-174 569.83,-174 569.83,-174 575.17,-174 580.5,-179.33 580.5,-184.67 580.5,-184.67 580.5,-195.33 580.5,-195.33 580.5,-200.67 575.17,-206 569.83,-206 569.83,-206 494.17,-206 494.17,-206 488.83,-206 483.5,-200.67 483.5,-195.33 483.5,-195.33 483.5,-184.67 483.5,-184.67 483.5,-179.33 488.83,-174 494.17,-174"/>
<text text-anchor="start" x="488.5" y="-184.2" font-family="Helvetica,sans-Serif" font-size="14.00">RankedTensor</text>
<path fill="none" stroke="black" d="M494.17,-174C494.17,-174 569.83,-174 569.83,-174 575.17,-174 580.5,-179.33 580.5,-184.67 580.5,-184.67 580.5,-195.33 580.5,-195.33 580.5,-200.67 575.17,-206 569.83,-206 569.83,-206 494.17,-206 494.17,-206 488.83,-206 483.5,-200.67 483.5,-195.33 483.5,-195.33 483.5,-184.67 483.5,-184.67 483.5,-179.33 488.83,-174 494.17,-174"/>
</a>
</g>
</g>
<!-- Value&#45;17865114847685501217 -->
<g id="node17" class="node">
<title>Value&#45;17865114847685501217</title>
<g id="a_node17"><a xlink:title="Op&#45;8: Value&#45;17865114847685501217">
<path fill="white" stroke="none" d="M819.67,-411C819.67,-411 842.33,-411 842.33,-411 847.67,-411 853,-416.33 853,-421.67 853,-421.67 853,-432.33 853,-432.33 853,-437.67 847.67,-443 842.33,-443 842.33,-443 819.67,-443 819.67,-443 814.33,-443 809,-437.67 809,-432.33 809,-432.33 809,-421.67 809,-421.67 809,-416.33 814.33,-411 819.67,-411"/>
<text text-anchor="start" x="813.75" y="-421.2" font-family="Helvetica,sans-Serif" font-size="14.00">Value</text>
<path fill="none" stroke="black" d="M819.67,-411C819.67,-411 842.33,-411 842.33,-411 847.67,-411 853,-416.33 853,-421.67 853,-421.67 853,-432.33 853,-432.33 853,-437.67 847.67,-443 842.33,-443 842.33,-443 819.67,-443 819.67,-443 814.33,-443 809,-437.67 809,-432.33 809,-432.33 809,-421.67 809,-421.67 809,-416.33 814.33,-411 819.67,-411"/>
</a>
</g>
</g>
<!-- i64&#45;2 -->
<g id="node18" class="node">
<title>i64&#45;2</title>
<g id="a_node18"><a xlink:title="i64&#45;2: i64&#45;2">
<path fill="white" stroke="none" d="M786.67,-332C786.67,-332 797.33,-332 797.33,-332 802.67,-332 808,-337.33 808,-342.67 808,-342.67 808,-353.33 808,-353.33 808,-358.67 802.67,-364 797.33,-364 797.33,-364 786.67,-364 786.67,-364 781.33,-364 776,-358.67 776,-353.33 776,-353.33 776,-342.67 776,-342.67 776,-337.33 781.33,-332 786.67,-332"/>
<text text-anchor="start" x="788.25" y="-342.2" font-family="Helvetica,sans-Serif" font-size="14.00">2</text>
<path fill="none" stroke="black" d="M786.67,-332C786.67,-332 797.33,-332 797.33,-332 802.67,-332 808,-337.33 808,-342.67 808,-342.67 808,-353.33 808,-353.33 808,-358.67 802.67,-364 797.33,-364 797.33,-364 786.67,-364 786.67,-364 781.33,-364 776,-358.67 776,-353.33 776,-353.33 776,-342.67 776,-342.67 776,-337.33 781.33,-332 786.67,-332"/>
</a>
</g>
</g>
<!-- Value&#45;3285395960261837587 -->
<g id="node19" class="node">
<title>Value&#45;3285395960261837587</title>
<g id="a_node19"><a xlink:title="Op&#45;29: Value&#45;3285395960261837587">
<path fill="white" stroke="none" d="M995.67,-411C995.67,-411 1018.33,-411 1018.33,-411 1023.67,-411 1029,-416.33 1029,-421.67 1029,-421.67 1029,-432.33 1029,-432.33 1029,-437.67 1023.67,-443 1018.33,-443 1018.33,-443 995.67,-443 995.67,-443 990.33,-443 985,-437.67 985,-432.33 985,-432.33 985,-421.67 985,-421.67 985,-416.33 990.33,-411 995.67,-411"/>
<text text-anchor="start" x="989.75" y="-421.2" font-family="Helvetica,sans-Serif" font-size="14.00">Value</text>
<path fill="none" stroke="black" d="M995.67,-411C995.67,-411 1018.33,-411 1018.33,-411 1023.67,-411 1029,-416.33 1029,-421.67 1029,-421.67 1029,-432.33 1029,-432.33 1029,-437.67 1023.67,-443 1018.33,-443 1018.33,-443 995.67,-443 995.67,-443 990.33,-443 985,-437.67 985,-432.33 985,-432.33 985,-421.67 985,-421.67 985,-416.33 990.33,-411 995.67,-411"/>
</a>
</g>
</g>
<!-- i64&#45;8 -->
<g id="node20" class="node">
<title>i64&#45;8</title>
<g id="a_node20"><a xlink:title="i64&#45;8: i64&#45;8">
<path fill="white" stroke="none" d="M989.67,-332C989.67,-332 1000.33,-332 1000.33,-332 1005.67,-332 1011,-337.33 1011,-342.67 1011,-342.67 1011,-353.33 1011,-353.33 1011,-358.67 1005.67,-364 1000.33,-364 1000.33,-364 989.67,-364 989.67,-364 984.33,-364 979,-358.67 979,-353.33 979,-353.33 979,-342.67 979,-342.67 979,-337.33 984.33,-332 989.67,-332"/>
<text text-anchor="start" x="991.25" y="-342.2" font-family="Helvetica,sans-Serif" font-size="14.00">8</text>
<path fill="none" stroke="black" d="M989.67,-332C989.67,-332 1000.33,-332 1000.33,-332 1005.67,-332 1011,-337.33 1011,-342.67 1011,-342.67 1011,-353.33 1011,-353.33 1011,-358.67 1005.67,-364 1000.33,-364 1000.33,-364 989.67,-364 989.67,-364 984.33,-364 979,-358.67 979,-353.33 979,-353.33 979,-342.67 979,-342.67 979,-337.33 984.33,-332 989.67,-332"/>
</a>
</g>
</g>
<!-- Value&#45;14633361574285240085 -->
<g id="node21" class="node">
<title>Value&#45;14633361574285240085</title>
<g id="a_node21"><a xlink:title="Op&#45;15: Value&#45;14633361574285240085">
<path fill="white" stroke="none" d="M919.67,-411C919.67,-411 942.33,-411 942.33,-411 947.67,-411 953,-416.33 953,-421.67 953,-421.67 953,-432.33 953,-432.33 953,-437.67 947.67,-443 942.33,-443 942.33,-443 919.67,-443 919.67,-443 914.33,-443 909,-437.67 909,-432.33 909,-432.33 909,-421.67 909,-421.67 909,-416.33 914.33,-411 919.67,-411"/>
<text text-anchor="start" x="913.75" y="-421.2" font-family="Helvetica,sans-Serif" font-size="14.00">Value</text>
<path fill="none" stroke="black" d="M919.67,-411C919.67,-411 942.33,-411 942.33,-411 947.67,-411 953,-416.33 953,-421.67 953,-421.67 953,-432.33 953,-432.33 953,-437.67 947.67,-443 942.33,-443 942.33,-443 919.67,-443 919.67,-443 914.33,-443 909,-437.67 909,-432.33 909,-432.33 909,-421.67 909,-421.67 909,-416.33 914.33,-411 919.67,-411"/>
</a>
</g>
</g>
<!-- i64&#45;4 -->
<g id="node22" class="node">
<title>i64&#45;4</title>
<g id="a_node22"><a xlink:title="i64&#45;4: i64&#45;4">
<path fill="white" stroke="none" d="M918.67,-332C918.67,-332 929.33,-332 929.33,-332 934.67,-332 940,-337.33 940,-342.67 940,-342.67 940,-353.33 940,-353.33 940,-358.67 934.67,-364 929.33,-364 929.33,-364 918.67,-364 918.67,-364 913.33,-364 908,-358.67 908,-353.33 908,-353.33 908,-342.67 908,-342.67 908,-337.33 913.33,-332 918.67,-332"/>
<text text-anchor="start" x="920.25" y="-342.2" font-family="Helvetica,sans-Serif" font-size="14.00">4</text>
<path fill="none" stroke="black" d="M918.67,-332C918.67,-332 929.33,-332 929.33,-332 934.67,-332 940,-337.33 940,-342.67 940,-342.67 940,-353.33 940,-353.33 940,-358.67 934.67,-364 929.33,-364 929.33,-364 918.67,-364 918.67,-364 913.33,-364 908,-358.67 908,-353.33 908,-353.33 908,-342.67 908,-342.67 908,-337.33 913.33,-332 918.67,-332"/>
</a>
</g>
</g>
<!-- Value&#45;13168357665802452775 -->
<g id="node23" class="node">
<title>Value&#45;13168357665802452775</title>
<g id="a_node23"><a xlink:title="Op&#45;21: Value&#45;13168357665802452775">
<path fill="white" stroke="none" d="M1089.67,-411C1089.67,-411 1112.33,-411 1112.33,-411 1117.67,-411 1123,-416.33 1123,-421.67 1123,-421.67 1123,-432.33 1123,-432.33 1123,-437.67 1117.67,-443 1112.33,-443 1112.33,-443 1089.67,-443 1089.67,-443 1084.33,-443 1079,-437.67 1079,-432.33 1079,-432.33 1079,-421.67 1079,-421.67 1079,-416.33 1084.33,-411 1089.67,-411"/>
<text text-anchor="start" x="1083.75" y="-421.2" font-family="Helvetica,sans-Serif" font-size="14.00">Value</text>
<path fill="none" stroke="black" d="M1089.67,-411C1089.67,-411 1112.33,-411 1112.33,-411 1117.67,-411 1123,-416.33 1123,-421.67 1123,-421.67 1123,-432.33 1123,-432.33 1123,-437.67 1117.67,-443 1112.33,-443 1112.33,-443 1089.67,-443 1089.67,-443 1084.33,-443 1079,-437.67 1079,-432.33 1079,-432.33 1079,-421.67 1079,-421.67 1079,-416.33 1084.33,-411 1089.67,-411"/>
</a>
</g>
</g>
<!-- i64&#45;6 -->
<g id="node24" class="node">
<title>i64&#45;6</title>
<g id="a_node24"><a xlink:title="i64&#45;6: i64&#45;6">
<path fill="white" stroke="none" d="M1121.67,-332C1121.67,-332 1132.33,-332 1132.33,-332 1137.67,-332 1143,-337.33 1143,-342.67 1143,-342.67 1143,-353.33 1143,-353.33 1143,-358.67 1137.67,-364 1132.33,-364 1132.33,-364 1121.67,-364 1121.67,-364 1116.33,-364 1111,-358.67 1111,-353.33 1111,-353.33 1111,-342.67 1111,-342.67 1111,-337.33 1116.33,-332 1121.67,-332"/>
<text text-anchor="start" x="1123.25" y="-342.2" font-family="Helvetica,sans-Serif" font-size="14.00">6</text>
<path fill="none" stroke="black" d="M1121.67,-332C1121.67,-332 1132.33,-332 1132.33,-332 1137.67,-332 1143,-337.33 1143,-342.67 1143,-342.67 1143,-353.33 1143,-353.33 1143,-358.67 1137.67,-364 1132.33,-364 1132.33,-364 1121.67,-364 1121.67,-364 1116.33,-364 1111,-358.67 1111,-353.33 1111,-353.33 1111,-342.67 1111,-342.67 1111,-337.33 1116.33,-332 1121.67,-332"/>
</a>
</g>
</g>
<!-- func_call&#45;17660694385953582580 -->
<g id="node25" class="node">
<title>func_call&#45;17660694385953582580</title>
<g id="a_node25"><a xlink:title="Op&#45;11: func_call&#45;17660694385953582580">
<path fill="white" stroke="none" d="M122.17,-332C122.17,-332 163.83,-332 163.83,-332 169.17,-332 174.5,-337.33 174.5,-342.67 174.5,-342.67 174.5,-353.33 174.5,-353.33 174.5,-358.67 169.17,-364 163.83,-364 163.83,-364 122.17,-364 122.17,-364 116.83,-364 111.5,-358.67 111.5,-353.33 111.5,-353.33 111.5,-342.67 111.5,-342.67 111.5,-337.33 116.83,-332 122.17,-332"/>
<text text-anchor="start" x="116.38" y="-342.2" font-family="Helvetica,sans-Serif" font-size="14.00">func_call</text>
<path fill="none" stroke="black" d="M122.17,-332C122.17,-332 163.83,-332 163.83,-332 169.17,-332 174.5,-337.33 174.5,-342.67 174.5,-342.67 174.5,-353.33 174.5,-353.33 174.5,-358.67 169.17,-364 163.83,-364 163.83,-364 122.17,-364 122.17,-364 116.83,-364 111.5,-358.67 111.5,-353.33 111.5,-353.33 111.5,-342.67 111.5,-342.67 111.5,-337.33 116.83,-332 122.17,-332"/>
</a>
</g>
</g>
<!-- Value&#45;12699848981142296092 -->
<g id="node26" class="node">
<title>Value&#45;12699848981142296092</title>
<g id="a_node26"><a xlink:title="Op&#45;4: Value&#45;12699848981142296092">
<path fill="white" stroke="none" d="M116.67,-253C116.67,-253 139.33,-253 139.33,-253 144.67,-253 150,-258.33 150,-263.67 150,-263.67 150,-274.33 150,-274.33 150,-279.67 144.67,-285 139.33,-285 139.33,-285 116.67,-285 116.67,-285 111.33,-285 106,-279.67 106,-274.33 106,-274.33 106,-263.67 106,-263.67 106,-258.33 111.33,-253 116.67,-253"/>
<text text-anchor="start" x="110.75" y="-263.2" font-family="Helvetica,sans-Serif" font-size="14.00">Value</text>
<path fill="none" stroke="black" d="M116.67,-253C116.67,-253 139.33,-253 139.33,-253 144.67,-253 150,-258.33 150,-263.67 150,-263.67 150,-274.33 150,-274.33 150,-279.67 144.67,-285 139.33,-285 139.33,-285 116.67,-285 116.67,-285 111.33,-285 106,-279.67 106,-274.33 106,-274.33 106,-263.67 106,-263.67 106,-258.33 111.33,-253 116.67,-253"/>
</a>
</g>
</g>
<!-- NamedAttr&#45;3337369588703030241 -->
<g id="node27" class="node">
<title>NamedAttr&#45;3337369588703030241</title>
<g id="a_node27"><a xlink:title="AttrPair&#45;13: NamedAttr&#45;3337369588703030241">
<path fill="white" stroke="none" d="M194.17,-253C194.17,-253 247.83,-253 247.83,-253 253.17,-253 258.5,-258.33 258.5,-263.67 258.5,-263.67 258.5,-274.33 258.5,-274.33 258.5,-279.67 253.17,-285 247.83,-285 247.83,-285 194.17,-285 194.17,-285 188.83,-285 183.5,-279.67 183.5,-274.33 183.5,-274.33 183.5,-263.67 183.5,-263.67 183.5,-258.33 188.83,-253 194.17,-253"/>
<text text-anchor="start" x="188.38" y="-263.2" font-family="Helvetica,sans-Serif" font-size="14.00">NamedAttr</text>
<path fill="none" stroke="black" d="M194.17,-253C194.17,-253 247.83,-253 247.83,-253 253.17,-253 258.5,-258.33 258.5,-263.67 258.5,-263.67 258.5,-274.33 258.5,-274.33 258.5,-279.67 253.17,-285 247.83,-285 247.83,-285 194.17,-285 194.17,-285 188.83,-285 183.5,-279.67 183.5,-274.33 183.5,-274.33 183.5,-263.67 183.5,-263.67 183.5,-258.33 188.83,-253 194.17,-253"/>
</a>
</g>
</g>
<!-- arith_constant&#45;11789700473928456754 -->
<g id="node28" class="node">
<title>arith_constant&#45;11789700473928456754</title>
<g id="a_node28"><a xlink:title="Op&#45;24: arith_constant&#45;11789700473928456754">
<path fill="white" stroke="none" d="M691.67,-411C691.67,-411 764.33,-411 764.33,-411 769.67,-411 775,-416.33 775,-421.67 775,-421.67 775,-432.33 775,-432.33 775,-437.67 769.67,-443 764.33,-443 764.33,-443 691.67,-443 691.67,-443 686.33,-443 681,-437.67 681,-432.33 681,-432.33 681,-421.67 681,-421.67 681,-416.33 686.33,-411 691.67,-411"/>
<text text-anchor="start" x="685.62" y="-421.2" font-family="Helvetica,sans-Serif" font-size="14.00">arith_constant</text>
<path fill="none" stroke="black" d="M691.67,-411C691.67,-411 764.33,-411 764.33,-411 769.67,-411 775,-416.33 775,-421.67 775,-421.67 775,-432.33 775,-432.33 775,-437.67 769.67,-443 764.33,-443 764.33,-443 691.67,-443 691.67,-443 686.33,-443 681,-437.67 681,-432.33 681,-432.33 681,-421.67 681,-421.67 681,-416.33 686.33,-411 691.67,-411"/>
</a>
</g>
</g>
<!-- NamedAttr&#45;12758271685674382984 -->
<g id="node29" class="node">
<title>NamedAttr&#45;12758271685674382984</title>
<g id="a_node29"><a xlink:title="AttrPair&#45;27: NamedAttr&#45;12758271685674382984">
<path fill="white" stroke="none" d="M676.17,-332C676.17,-332 729.83,-332 729.83,-332 735.17,-332 740.5,-337.33 740.5,-342.67 740.5,-342.67 740.5,-353.33 740.5,-353.33 740.5,-358.67 735.17,-364 729.83,-364 729.83,-364 676.17,-364 676.17,-364 670.83,-364 665.5,-358.67 665.5,-353.33 665.5,-353.33 665.5,-342.67 665.5,-342.67 665.5,-337.33 670.83,-332 676.17,-332"/>
<text text-anchor="start" x="670.38" y="-342.2" font-family="Helvetica,sans-Serif" font-size="14.00">NamedAttr</text>
<path fill="none" stroke="black" d="M676.17,-332C676.17,-332 729.83,-332 729.83,-332 735.17,-332 740.5,-337.33 740.5,-342.67 740.5,-342.67 740.5,-353.33 740.5,-353.33 740.5,-358.67 735.17,-364 729.83,-364 729.83,-364 676.17,-364 676.17,-364 670.83,-364 665.5,-358.67 665.5,-353.33 665.5,-353.33 665.5,-342.67 665.5,-342.67 665.5,-337.33 670.83,-332 676.17,-332"/>
</a>
</g>
</g>
<!-- Value&#45;11743562013128004906 -->
<g id="node30" class="node">
<title>Value&#45;11743562013128004906</title>
<g id="a_node30"><a xlink:title="Op&#45;0: Value&#45;11743562013128004906">
<path fill="white" stroke="none" d="M530.67,-253C530.67,-253 553.33,-253 553.33,-253 558.67,-253 564,-258.33 564,-263.67 564,-263.67 564,-274.33 564,-274.33 564,-279.67 558.67,-285 553.33,-285 553.33,-285 530.67,-285 530.67,-285 525.33,-285 520,-279.67 520,-274.33 520,-274.33 520,-263.67 520,-263.67 520,-258.33 525.33,-253 530.67,-253"/>
<text text-anchor="start" x="524.75" y="-263.2" font-family="Helvetica,sans-Serif" font-size="14.00">Value</text>
<path fill="none" stroke="black" d="M530.67,-253C530.67,-253 553.33,-253 553.33,-253 558.67,-253 564,-258.33 564,-263.67 564,-263.67 564,-274.33 564,-274.33 564,-279.67 558.67,-285 553.33,-285 553.33,-285 530.67,-285 530.67,-285 525.33,-285 520,-279.67 520,-274.33 520,-274.33 520,-263.67 520,-263.67 520,-258.33 525.33,-253 530.67,-253"/>
</a>
</g>
</g>
<!-- func_call&#45;834797003098335790 -->
<g id="node31" class="node">
<title>func_call&#45;834797003098335790</title>
<g id="a_node31"><a xlink:title="Op&#45;17: func_call&#45;834797003098335790">
<path fill="white" stroke="none" d="M137.17,-411C137.17,-411 178.83,-411 178.83,-411 184.17,-411 189.5,-416.33 189.5,-421.67 189.5,-421.67 189.5,-432.33 189.5,-432.33 189.5,-437.67 184.17,-443 178.83,-443 178.83,-443 137.17,-443 137.17,-443 131.83,-443 126.5,-437.67 126.5,-432.33 126.5,-432.33 126.5,-421.67 126.5,-421.67 126.5,-416.33 131.83,-411 137.17,-411"/>
<text text-anchor="start" x="131.38" y="-421.2" font-family="Helvetica,sans-Serif" font-size="14.00">func_call</text>
<path fill="none" stroke="black" d="M137.17,-411C137.17,-411 178.83,-411 178.83,-411 184.17,-411 189.5,-416.33 189.5,-421.67 189.5,-421.67 189.5,-432.33 189.5,-432.33 189.5,-437.67 184.17,-443 178.83,-443 178.83,-443 137.17,-443 137.17,-443 131.83,-443 126.5,-437.67 126.5,-432.33 126.5,-432.33 126.5,-421.67 126.5,-421.67 126.5,-416.33 131.83,-411 137.17,-411"/>
</a>
</g>
</g>
<!-- NamedAttr&#45;16691760081424931007 -->
<g id="node32" class="node">
<title>NamedAttr&#45;16691760081424931007</title>
<g id="a_node32"><a xlink:title="AttrPair&#45;19: NamedAttr&#45;16691760081424931007">
<path fill="white" stroke="none" d="M319.17,-253C319.17,-253 372.83,-253 372.83,-253 378.17,-253 383.5,-258.33 383.5,-263.67 383.5,-263.67 383.5,-274.33 383.5,-274.33 383.5,-279.67 378.17,-285 372.83,-285 372.83,-285 319.17,-285 319.17,-285 313.83,-285 308.5,-279.67 308.5,-274.33 308.5,-274.33 308.5,-263.67 308.5,-263.67 308.5,-258.33 313.83,-253 319.17,-253"/>
<text text-anchor="start" x="313.38" y="-263.2" font-family="Helvetica,sans-Serif" font-size="14.00">NamedAttr</text>
<path fill="none" stroke="black" d="M319.17,-253C319.17,-253 372.83,-253 372.83,-253 378.17,-253 383.5,-258.33 383.5,-263.67 383.5,-263.67 383.5,-274.33 383.5,-274.33 383.5,-279.67 378.17,-285 372.83,-285 372.83,-285 319.17,-285 319.17,-285 313.83,-285 308.5,-279.67 308.5,-274.33 308.5,-274.33 308.5,-263.67 308.5,-263.67 308.5,-258.33 313.83,-253 319.17,-253"/>
</a>
</g>
</g>
<!-- i64&#45;1 -->
<g id="node33" class="node">
<title>i64&#45;1</title>
<g id="a_node33"><a xlink:title="i64&#45;1: i64&#45;1">
<path fill="white" stroke="none" d="M145.67,-174C145.67,-174 156.33,-174 156.33,-174 161.67,-174 167,-179.33 167,-184.67 167,-184.67 167,-195.33 167,-195.33 167,-200.67 161.67,-206 156.33,-206 156.33,-206 145.67,-206 145.67,-206 140.33,-206 135,-200.67 135,-195.33 135,-195.33 135,-184.67 135,-184.67 135,-179.33 140.33,-174 145.67,-174"/>
<text text-anchor="start" x="147.25" y="-184.2" font-family="Helvetica,sans-Serif" font-size="14.00">1</text>
<path fill="none" stroke="black" d="M145.67,-174C145.67,-174 156.33,-174 156.33,-174 161.67,-174 167,-179.33 167,-184.67 167,-184.67 167,-195.33 167,-195.33 167,-200.67 161.67,-206 156.33,-206 156.33,-206 145.67,-206 145.67,-206 140.33,-206 135,-200.67 135,-195.33 135,-195.33 135,-184.67 135,-184.67 135,-179.33 140.33,-174 145.67,-174"/>
</a>
</g>
</g>
<!-- String&#45;8 -->
<g id="node34" class="node">
<title>String&#45;8</title>
<g id="a_node34"><a xlink:title="String&#45;8: String&#45;8">
<path fill="white" stroke="none" d="M310.79,-174C310.79,-174 345.21,-174 345.21,-174 350.54,-174 355.88,-179.33 355.88,-184.67 355.88,-184.67 355.88,-195.33 355.88,-195.33 355.88,-200.67 350.54,-206 345.21,-206 345.21,-206 310.79,-206 310.79,-206 305.46,-206 300.12,-200.67 300.12,-195.33 300.12,-195.33 300.12,-184.67 300.12,-184.67 300.12,-179.33 305.46,-174 310.79,-174"/>
<text text-anchor="start" x="305.12" y="-184.2" font-family="Helvetica,sans-Serif" font-size="14.00">&quot;callee&quot;</text>
<path fill="none" stroke="black" d="M310.79,-174C310.79,-174 345.21,-174 345.21,-174 350.54,-174 355.88,-179.33 355.88,-184.67 355.88,-184.67 355.88,-195.33 355.88,-195.33 355.88,-200.67 350.54,-206 345.21,-206 345.21,-206 310.79,-206 310.79,-206 305.46,-206 300.12,-200.67 300.12,-195.33 300.12,-195.33 300.12,-184.67 300.12,-184.67 300.12,-179.33 305.46,-174 310.79,-174"/>
</a>
</g>
</g>
<!-- String&#45;3221225479 -->
<g id="node35" class="node">
<title>String&#45;3221225479</title>
<g id="a_node35"><a xlink:title="String&#45;3221225479: String&#45;3221225479">
<path fill="white" stroke="none" d="M698.29,-253C698.29,-253 729.71,-253 729.71,-253 735.04,-253 740.38,-258.33 740.38,-263.67 740.38,-263.67 740.38,-274.33 740.38,-274.33 740.38,-279.67 735.04,-285 729.71,-285 729.71,-285 698.29,-285 698.29,-285 692.96,-285 687.62,-279.67 687.62,-274.33 687.62,-274.33 687.62,-263.67 687.62,-263.67 687.62,-258.33 692.96,-253 698.29,-253"/>
<text text-anchor="start" x="692.62" y="-263.2" font-family="Helvetica,sans-Serif" font-size="14.00">&quot;value&quot;</text>
<path fill="none" stroke="black" d="M698.29,-253C698.29,-253 729.71,-253 729.71,-253 735.04,-253 740.38,-258.33 740.38,-263.67 740.38,-263.67 740.38,-274.33 740.38,-274.33 740.38,-279.67 735.04,-285 729.71,-285 729.71,-285 698.29,-285 698.29,-285 692.96,-285 687.62,-279.67 687.62,-274.33 687.62,-274.33 687.62,-263.67 687.62,-263.67 687.62,-258.33 692.96,-253 698.29,-253"/>
</a>
</g>
</g>
</g>
</svg>
