<?xml version="1.0" encoding="UTF-8" standalone="no"?>
<!DOCTYPE svg PUBLIC "-//W3C//DTD SVG 1.1//EN"
 "http://www.w3.org/Graphics/SVG/1.1/DTD/svg11.dtd">
<!-- Generated by graphviz version 12.0.0 (20240704.0754)
 -->
<!-- Pages: 1 -->
<svg width="1065pt" height="467pt"
 viewBox="0.00 0.00 1065.00 467.00" xmlns="http://www.w3.org/2000/svg" xmlns:xlink="http://www.w3.org/1999/xlink">
<g id="graph0" class="graph" transform="scale(1 1) rotate(0) translate(4 463)">
<polygon fill="white" stroke="none" points="-4,4 -4,-463 1061,-463 1061,4 -4,4"/>
<g id="clust1" class="cluster">
<title>outer_cluster_Type&#45;1</title>
</g>
<g id="clust2" class="cluster">
<title>cluster_Type&#45;1</title>
<path fill="#ffffb3" stroke="black" stroke-dasharray="5,2" d="M165,-90C165,-90 201,-90 201,-90 207,-90 213,-96 213,-102 213,-102 213,-120 213,-120 213,-126 207,-132 201,-132 201,-132 165,-132 165,-132 159,-132 153,-126 153,-120 153,-120 153,-102 153,-102 153,-96 159,-90 165,-90"/>
</g>
<g id="clust4" class="cluster">
<title>outer_cluster_Type&#45;26</title>
</g>
<g id="clust5" class="cluster">
<title>cluster_Type&#45;26</title>
<path fill="#ffffb3" stroke="black" stroke-dasharray="5,2" d="M932,-327C932,-327 968,-327 968,-327 974,-327 980,-333 980,-339 980,-339 980,-357 980,-357 980,-363 974,-369 968,-369 968,-369 932,-369 932,-369 926,-369 920,-363 920,-357 920,-357 920,-339 920,-339 920,-333 926,-327 932,-327"/>
</g>
<g id="clust7" class="cluster">
<title>outer_cluster_Type&#45;29</title>
</g>
<g id="clust8" class="cluster">
<title>cluster_Type&#45;29</title>
<path fill="#ffffb3" stroke="black" stroke-dasharray="5,2" d="M390,-169C390,-169 426,-169 426,-169 432,-169 438,-175 438,-181 438,-181 438,-199 438,-199 438,-205 432,-211 426,-211 426,-211 390,-211 390,-211 384,-211 378,-205 378,-199 378,-199 378,-181 378,-181 378,-175 384,-169 390,-169"/>
</g>
<g id="clust10" class="cluster">
<title>outer_cluster_Type&#45;2</title>
</g>
<g id="clust11" class="cluster">
<title>cluster_Type&#45;2</title>
<path fill="#ffffb3" stroke="black" stroke-dasharray="5,2" d="M104,-169C104,-169 184,-169 184,-169 190,-169 196,-175 196,-181 196,-181 196,-199 196,-199 196,-205 190,-211 184,-211 184,-211 104,-211 104,-211 98,-211 92,-205 92,-199 92,-199 92,-181 92,-181 92,-175 98,-169 104,-169"/>
</g>
<g id="clust13" class="cluster">
<title>outer_cluster_Type&#45;10</title>
</g>
<g id="clust14" class="cluster">
<title>cluster_Type&#45;10</title>
<path fill="#ffffb3" stroke="black" stroke-dasharray="5,2" d="M810,-169C810,-169 890,-169 890,-169 896,-169 902,-175 902,-181 902,-181 902,-199 902,-199 902,-205 896,-211 890,-211 890,-211 810,-211 810,-211 804,-211 798,-205 798,-199 798,-199 798,-181 798,-181 798,-175 804,-169 810,-169"/>
</g>
<g id="clust16" class="cluster">
<title>outer_cluster_Type&#45;9</title>
</g>
<g id="clust17" class="cluster">
<title>cluster_Type&#45;9</title>
<path fill="#ffffb3" stroke="black" stroke-dasharray="5,2" d="M855,-90C855,-90 891,-90 891,-90 897,-90 903,-96 903,-102 903,-102 903,-120 903,-120 903,-126 897,-132 891,-132 891,-132 855,-132 855,-132 849,-132 843,-126 843,-120 843,-120 843,-102 843,-102 843,-96 849,-90 855,-90"/>
</g>
<g id="clust19" class="cluster">
<title>outer_cluster_Type&#45;13</title>
</g>
<g id="clust20" class="cluster">
<title>cluster_Type&#45;13</title>
<path fill="#ffffb3" stroke="black" stroke-dasharray="5,2" d="M99,-11C99,-11 135,-11 135,-11 141,-11 147,-17 147,-23 147,-23 147,-41 147,-41 147,-47 141,-53 135,-53 135,-53 99,-53 99,-53 93,-53 87,-47 87,-41 87,-41 87,-23 87,-23 87,-17 93,-11 99,-11"/>
</g>
<g id="clust22" class="cluster">
<title>outer_cluster_Attr&#45;30</title>
</g>
<g id="clust23" class="cluster">
<title>cluster_Attr&#45;30</title>
<path fill="#bebada" stroke="black" stroke-dasharray="5,2" d="M429,-248C429,-248 485,-248 485,-248 491,-248 497,-254 497,-260 497,-260 497,-278 497,-278 497,-284 491,-290 485,-290 485,-290 429,-290 429,-290 423,-290 417,-284 417,-278 417,-278 417,-260 417,-260 417,-254 423,-248 429,-248"/>
</g>
<g id="clust25" class="cluster">
<title>outer_cluster_Attr&#45;22</title>
</g>
<g id="clust26" class="cluster">
<title>cluster_Attr&#45;22</title>
<path fill="#bebada" stroke="black" stroke-dasharray="5,2" d="M456,-169C456,-169 536,-169 536,-169 542,-169 548,-175 548,-181 548,-181 548,-199 548,-199 548,-205 542,-211 536,-211 536,-211 456,-211 456,-211 450,-211 444,-205 444,-199 444,-199 444,-181 444,-181 444,-175 450,-169 456,-169"/>
</g>
<g id="clust28" class="cluster">
<title>outer_cluster_Attr&#45;16</title>
</g>
<g id="clust29" class="cluster">
<title>cluster_Attr&#45;16</title>
<path fill="#bebada" stroke="black" stroke-dasharray="5,2" d="M634,-169C634,-169 714,-169 714,-169 720,-169 726,-175 726,-181 726,-181 726,-199 726,-199 726,-205 720,-211 714,-211 714,-211 634,-211 634,-211 628,-211 622,-205 622,-199 622,-199 622,-181 622,-181 622,-175 628,-169 634,-169"/>
</g>
<g id="clust31" class="cluster">
<title>outer_cluster_Attr&#45;5</title>
</g>
<g id="clust32" class="cluster">
<title>cluster_Attr&#45;5</title>
<path fill="#bebada" stroke="black" stroke-dasharray="5,2" d="M280,-169C280,-169 360,-169 360,-169 366,-169 372,-175 372,-181 372,-181 372,-199 372,-199 372,-205 366,-211 360,-211 360,-211 280,-211 280,-211 274,-211 268,-205 268,-199 268,-199 268,-181 268,-181 268,-175 274,-169 280,-169"/>
</g>
<g id="clust34" class="cluster">
<title>outer_cluster_IntVec&#45;0</title>
</g>
<g id="clust35" class="cluster">
<title>cluster_IntVec&#45;0</title>
<path fill="#fb8072" stroke="black" stroke-dasharray="5,2" d="M519,-90C519,-90 555,-90 555,-90 561,-90 567,-96 567,-102 567,-102 567,-120 567,-120 567,-126 561,-132 555,-132 555,-132 519,-132 519,-132 513,-132 507,-126 507,-120 507,-120 507,-102 507,-102 507,-96 513,-90 519,-90"/>
</g>
<g id="clust37" class="cluster">
<title>outer_cluster_i64&#45;5</title>
</g>
<g id="clust38" class="cluster">
<title>cluster_i64&#45;5</title>
<path fill="#80b1d3" stroke="black" stroke-dasharray="5,2" d="M23,-11C23,-11 59,-11 59,-11 65,-11 71,-17 71,-23 71,-23 71,-41 71,-41 71,-47 65,-53 59,-53 59,-53 23,-53 23,-53 17,-53 11,-47 11,-41 11,-41 11,-23 11,-23 11,-17 17,-11 23,-11"/>
</g>
<g id="clust40" class="cluster">
<title>outer_cluster_i64&#45;2</title>
</g>
<g id="clust41" class="cluster">
<title>cluster_i64&#45;2</title>
<path fill="#80b1d3" stroke="black" stroke-dasharray="5,2" d="M744,-169C744,-169 780,-169 780,-169 786,-169 792,-175 792,-181 792,-181 792,-199 792,-199 792,-205 786,-211 780,-211 780,-211 744,-211 744,-211 738,-211 732,-205 732,-199 732,-199 732,-181 732,-181 732,-175 738,-169 744,-169"/>
</g>
<g id="clust43" class="cluster">
<title>outer_cluster_i64&#45;7</title>
</g>
<g id="clust44" class="cluster">
<title>cluster_i64&#45;7</title>
<path fill="#80b1d3" stroke="black" stroke-dasharray="5,2" d="M998,-327C998,-327 1034,-327 1034,-327 1040,-327 1046,-333 1046,-339 1046,-339 1046,-357 1046,-357 1046,-363 1040,-369 1034,-369 1034,-369 998,-369 998,-369 992,-369 986,-363 986,-357 986,-357 986,-339 986,-339 986,-333 992,-327 998,-327"/>
</g>
<g id="clust46" class="cluster">
<title>outer_cluster_i64&#45;1000000</title>
</g>
<g id="clust47" class="cluster">
<title>cluster_i64&#45;1000000</title>
<path fill="#80b1d3" stroke="black" stroke-dasharray="5,2" d="M504,-11C504,-11 548,-11 548,-11 554,-11 560,-17 560,-23 560,-23 560,-41 560,-41 560,-47 554,-53 548,-53 548,-53 504,-53 504,-53 498,-53 492,-47 492,-41 492,-41 492,-23 492,-23 492,-17 498,-11 504,-11"/>
</g>
<g id="clust49" class="cluster">
<title>outer_cluster_i64&#45;9</title>
</g>
<g id="clust50" class="cluster">
<title>cluster_i64&#45;9</title>
<path fill="#80b1d3" stroke="black" stroke-dasharray="5,2" d="M866,-327C866,-327 902,-327 902,-327 908,-327 914,-333 914,-339 914,-339 914,-357 914,-357 914,-363 908,-369 902,-369 902,-369 866,-369 866,-369 860,-369 854,-363 854,-357 854,-357 854,-339 854,-339 854,-333 860,-327 866,-327"/>
</g>
<g id="clust52" class="cluster">
<title>outer_cluster_i64&#45;3</title>
</g>
<g id="clust53" class="cluster">
<title>cluster_i64&#45;3</title>
<path fill="#80b1d3" stroke="black" stroke-dasharray="5,2" d="M307,-11C307,-11 343,-11 343,-11 349,-11 355,-17 355,-23 355,-23 355,-41 355,-41 355,-47 349,-53 343,-53 343,-53 307,-53 307,-53 301,-53 295,-47 295,-41 295,-41 295,-23 295,-23 295,-17 301,-11 307,-11"/>
</g>
<g id="clust55" class="cluster">
<title>outer_cluster_i64&#45;0</title>
</g>
<g id="clust56" class="cluster">
<title>cluster_i64&#45;0</title>
<path fill="#80b1d3" stroke="black" stroke-dasharray="5,2" d="M214,-169C214,-169 250,-169 250,-169 256,-169 262,-175 262,-181 262,-181 262,-199 262,-199 262,-205 256,-211 250,-211 250,-211 214,-211 214,-211 208,-211 202,-205 202,-199 202,-199 202,-181 202,-181 202,-175 208,-169 214,-169"/>
</g>
<g id="clust58" class="cluster">
<title>outer_cluster_Op&#45;19</title>
</g>
<g id="clust59" class="cluster">
<title>cluster_Op&#45;19</title>
<path fill="#fdb462" stroke="black" stroke-dasharray="5,2" d="M33,-90C33,-90 69,-90 69,-90 75,-90 81,-96 81,-102 81,-102 81,-120 81,-120 81,-126 75,-132 69,-132 69,-132 33,-132 33,-132 27,-132 21,-126 21,-120 21,-120 21,-102 21,-102 21,-96 27,-90 33,-90"/>
</g>
<g id="clust61" class="cluster">
<title>outer_cluster_Op&#45;8</title>
</g>
<g id="clust62" class="cluster">
<title>cluster_Op&#45;8</title>
<path fill="#fdb462" stroke="black" stroke-dasharray="5,2" d="M759,-248C759,-248 795,-248 795,-248 801,-248 807,-254 807,-260 807,-260 807,-278 807,-278 807,-284 801,-290 795,-290 795,-290 759,-290 759,-290 753,-290 747,-284 747,-278 747,-278 747,-260 747,-260 747,-254 753,-248 759,-248"/>
</g>
<g id="clust64" class="cluster">
<title>outer_cluster_Op&#45;12</title>
</g>
<g id="clust65" class="cluster">
<title>cluster_Op&#45;12</title>
<path fill="#fdb462" stroke="black" stroke-dasharray="5,2" d="M99,-90C99,-90 135,-90 135,-90 141,-90 147,-96 147,-102 147,-102 147,-120 147,-120 147,-126 141,-132 135,-132 135,-132 99,-132 99,-132 93,-132 87,-126 87,-120 87,-120 87,-102 87,-102 87,-96 93,-90 99,-90"/>
</g>
<g id="clust67" class="cluster">
<title>outer_cluster_Op&#45;15</title>
</g>
<g id="clust68" class="cluster">
<title>cluster_Op&#45;15</title>
<path fill="#fdb462" stroke="black" stroke-dasharray="5,2" d="M769,-327C769,-327 815,-327 815,-327 821,-327 827,-333 827,-339 827,-339 827,-357 827,-357 827,-363 821,-369 815,-369 815,-369 769,-369 769,-369 763,-369 757,-363 757,-357 757,-357 757,-339 757,-339 757,-333 763,-327 769,-327"/>
</g>
<g id="clust70" class="cluster">
<title>outer_cluster_Op&#45;28</title>
</g>
<g id="clust71" class="cluster">
<title>cluster_Op&#45;28</title>
<path fill="#fdb462" stroke="black" stroke-dasharray="5,2" d="M332,-406C332,-406 408,-406 408,-406 414,-406 420,-412 420,-418 420,-418 420,-436 420,-436 420,-442 414,-448 408,-448 408,-448 332,-448 332,-448 326,-448 320,-442 320,-436 320,-436 320,-418 320,-418 320,-412 326,-406 332,-406"/>
</g>
<g id="clust73" class="cluster">
<title>outer_cluster_Op&#45;4</title>
</g>
<g id="clust74" class="cluster">
<title>cluster_Op&#45;4</title>
<path fill="#fdb462" stroke="black" stroke-dasharray="5,2" d="M201,-327C201,-327 247,-327 247,-327 253,-327 259,-333 259,-339 259,-339 259,-357 259,-357 259,-363 253,-369 247,-369 247,-369 201,-369 201,-369 195,-369 189,-363 189,-357 189,-357 189,-339 189,-339 189,-333 195,-327 201,-327"/>
</g>
<g id="clust76" class="cluster">
<title>outer_cluster_Op&#45;0</title>
</g>
<g id="clust77" class="cluster">
<title>cluster_Op&#45;0</title>
<path fill="#fdb462" stroke="black" stroke-dasharray="5,2" d="M191,-248C191,-248 227,-248 227,-248 233,-248 239,-254 239,-260 239,-260 239,-278 239,-278 239,-284 233,-290 227,-290 227,-290 191,-290 191,-290 185,-290 179,-284 179,-278 179,-278 179,-260 179,-260 179,-254 185,-248 191,-248"/>
</g>
<g id="clust79" class="cluster">
<title>outer_cluster_Op&#45;33</title>
</g>
<g id="clust80" class="cluster">
<title>cluster_Op&#45;33</title>
<path fill="#fdb462" stroke="black" stroke-dasharray="5,2" d="M890,-406C890,-406 926,-406 926,-406 932,-406 938,-412 938,-418 938,-418 938,-436 938,-436 938,-442 932,-448 926,-448 926,-448 890,-448 890,-448 884,-448 878,-442 878,-436 878,-436 878,-418 878,-418 878,-412 884,-406 890,-406"/>
</g>
<g id="clust82" class="cluster">
<title>outer_cluster_Op&#45;25</title>
</g>
<g id="clust83" class="cluster">
<title>cluster_Op&#45;25</title>
<path fill="#fdb462" stroke="black" stroke-dasharray="5,2" d="M984,-406C984,-406 1020,-406 1020,-406 1026,-406 1032,-412 1032,-418 1032,-418 1032,-436 1032,-436 1032,-442 1026,-448 1020,-448 1020,-448 984,-448 984,-448 978,-448 972,-442 972,-436 972,-436 972,-418 972,-418 972,-412 978,-406 984,-406"/>
</g>
<g id="clust85" class="cluster">
<title>outer_cluster_Op&#45;21</title>
</g>
<g id="clust86" class="cluster">
<title>cluster_Op&#45;21</title>
<path fill="#fdb462" stroke="black" stroke-dasharray="5,2" d="M784,-406C784,-406 830,-406 830,-406 836,-406 842,-412 842,-418 842,-418 842,-436 842,-436 842,-442 836,-448 830,-448 830,-448 784,-448 784,-448 778,-448 772,-442 772,-436 772,-436 772,-418 772,-418 772,-412 778,-406 784,-406"/>
</g>
<g id="clust88" class="cluster">
<title>outer_cluster_String&#45;3221225478</title>
</g>
<g id="clust89" class="cluster">
<title>cluster_String&#45;3221225478</title>
<path fill="#b3de69" stroke="black" stroke-dasharray="5,2" d="M429,-90C429,-90 489,-90 489,-90 495,-90 501,-96 501,-102 501,-102 501,-120 501,-120 501,-126 495,-132 489,-132 489,-132 429,-132 429,-132 423,-132 417,-126 417,-120 417,-120 417,-102 417,-102 417,-96 423,-90 429,-90"/>
</g>
<g id="clust91" class="cluster">
<title>outer_cluster_String&#45;8</title>
</g>
<g id="clust92" class="cluster">
<title>cluster_String&#45;8</title>
<path fill="#b3de69" stroke="black" stroke-dasharray="5,2" d="M566,-169C566,-169 604,-169 604,-169 610,-169 616,-175 616,-181 616,-181 616,-199 616,-199 616,-205 610,-211 604,-211 604,-211 566,-211 566,-211 560,-211 554,-205 554,-199 554,-199 554,-181 554,-181 554,-175 560,-169 566,-169"/>
</g>
<g id="clust94" class="cluster">
<title>outer_cluster_String&#45;3221225479</title>
</g>
<g id="clust95" class="cluster">
<title>cluster_String&#45;3221225479</title>
<path fill="#b3de69" stroke="black" stroke-dasharray="5,2" d="M363,-248C363,-248 399,-248 399,-248 405,-248 411,-254 411,-260 411,-260 411,-278 411,-278 411,-284 405,-290 399,-290 399,-290 363,-290 363,-290 357,-290 351,-284 351,-278 351,-278 351,-260 351,-260 351,-254 357,-248 363,-248"/>
</g>
<g id="clust97" class="cluster">
<title>outer_cluster_String&#45;1073741829</title>
</g>
<g id="clust98" class="cluster">
<title>cluster_String&#45;1073741829</title>
<path fill="#b3de69" stroke="black" stroke-dasharray="5,2" d="M246,-90C246,-90 394,-90 394,-90 400,-90 406,-96 406,-102 406,-102 406,-120 406,-120 406,-126 400,-132 394,-132 394,-132 246,-132 246,-132 240,-132 234,-126 234,-120 234,-120 234,-102 234,-102 234,-96 240,-90 246,-90"/>
</g>
<g id="clust100" class="cluster">
<title>outer_cluster_String&#45;268435462</title>
</g>
<g id="clust101" class="cluster">
<title>cluster_String&#45;268435462</title>
<path fill="#b3de69" stroke="black" stroke-dasharray="5,2" d="M589,-90C589,-90 759,-90 759,-90 765,-90 771,-96 771,-102 771,-102 771,-120 771,-120 771,-126 765,-132 759,-132 759,-132 589,-132 589,-132 583,-132 577,-126 577,-120 577,-120 577,-102 577,-102 577,-96 583,-90 589,-90"/>
</g>
<g id="clust103" class="cluster">
<title>outer_cluster_AttrPair&#45;17</title>
</g>
<g id="clust104" class="cluster">
<title>cluster_AttrPair&#45;17</title>
<path fill="#fccde5" stroke="black" stroke-dasharray="5,2" d="M644,-248C644,-248 702,-248 702,-248 708,-248 714,-254 714,-260 714,-260 714,-278 714,-278 714,-284 708,-290 702,-290 702,-290 644,-290 644,-290 638,-290 632,-284 632,-278 632,-278 632,-260 632,-260 632,-254 638,-248 644,-248"/>
</g>
<g id="clust106" class="cluster">
<title>outer_cluster_AttrPair&#45;23</title>
</g>
<g id="clust107" class="cluster">
<title>cluster_AttrPair&#45;23</title>
<path fill="#fccde5" stroke="black" stroke-dasharray="5,2" d="M556,-248C556,-248 614,-248 614,-248 620,-248 626,-254 626,-260 626,-260 626,-278 626,-278 626,-284 620,-290 614,-290 614,-290 556,-290 556,-290 550,-290 544,-284 544,-278 544,-278 544,-260 544,-260 544,-254 550,-248 556,-248"/>
</g>
<g id="clust109" class="cluster">
<title>outer_cluster_AttrPair&#45;31</title>
</g>
<g id="clust110" class="cluster">
<title>cluster_AttrPair&#45;31</title>
<path fill="#fccde5" stroke="black" stroke-dasharray="5,2" d="M370,-327C370,-327 428,-327 428,-327 434,-327 440,-333 440,-339 440,-339 440,-357 440,-357 440,-363 434,-369 428,-369 428,-369 370,-369 370,-369 364,-369 358,-363 358,-357 358,-357 358,-339 358,-339 358,-333 364,-327 370,-327"/>
</g>
<g id="clust112" class="cluster">
<title>outer_cluster_AttrPair&#45;6</title>
</g>
<g id="clust113" class="cluster">
<title>cluster_AttrPair&#45;6</title>
<path fill="#fccde5" stroke="black" stroke-dasharray="5,2" d="M263,-248C263,-248 321,-248 321,-248 327,-248 333,-254 333,-260 333,-260 333,-278 333,-278 333,-284 327,-290 321,-290 321,-290 263,-290 263,-290 257,-290 251,-284 251,-278 251,-278 251,-260 251,-260 251,-254 257,-248 263,-248"/>
</g>
<!-- RankedTensor&#45;5871781006564002453&#45;&gt;F64&#45;0 -->
<g id="edge2" class="edge">
<title>RankedTensor&#45;5871781006564002453:s&#45;&gt;F64&#45;0</title>
<path fill="none" stroke="black" d="M167.5,-174C167.5,-160.8 170.85,-146.48 174.43,-134.93"/>
<polygon fill="black" stroke="black" points="174.99,-138.73 174.94,-133.43 171.67,-137.6 174.99,-138.73"/>
</g>
<!-- RankedTensor&#45;5871781006564002453&#45;&gt;IntVec&#45;0 -->
<g id="edge1" class="edge">
<title>RankedTensor&#45;5871781006564002453:s&#45;&gt;IntVec&#45;0</title>
<path fill="none" stroke="black" d="M120,-174C120,-131.33 461.8,-149.29 502,-135 502.44,-134.84 502.88,-134.68 503.32,-134.51"/>
<polygon fill="black" stroke="black" points="503.75,-136.24 507.61,-132.61 502.33,-133.04 503.75,-136.24"/>
</g>
<!-- IntVec&#45;0&#45;&gt;i64&#45;1000000 -->
<g id="edge10" class="edge">
<title>IntVec&#45;0:s&#45;&gt;i64&#45;1000000</title>
<path fill="none" stroke="black" d="M525.5,-95C525.5,-82.22 525.61,-67.96 525.72,-56.35"/>
<polygon fill="black" stroke="black" points="527.41,-59.55 525.76,-54.51 523.91,-59.48 527.41,-59.55"/>
</g>
<!-- IntVec&#45;0&#45;&gt;i64&#45;3 -->
<g id="edge11" class="edge">
<title>IntVec&#45;0:s&#45;&gt;i64&#45;3</title>
<path fill="none" stroke="black" d="M548.5,-95C548.5,-55.97 420.36,-40.5 358.13,-35.29"/>
<polygon fill="black" stroke="black" points="361.71,-34.09 356.49,-35.03 361.15,-37.54 361.71,-34.09"/>
</g>
<!-- RankedTensor&#45;15952540911656918845&#45;&gt;IntVec&#45;0 -->
<g id="edge3" class="edge">
<title>RankedTensor&#45;15952540911656918845:s&#45;&gt;IntVec&#45;0</title>
<path fill="none" stroke="black" d="M826,-174C826,-117.77 629.06,-153.61 576,-135 573.27,-134.04 570.52,-132.88 567.81,-131.6"/>
<polygon fill="black" stroke="black" points="572.91,-134.08 568.09,-131.88 570.48,-136.6 572.91,-134.08"/>
</g>
<!-- RankedTensor&#45;15952540911656918845&#45;&gt;F32&#45;0 -->
<g id="edge4" class="edge">
<title>RankedTensor&#45;15952540911656918845:s&#45;&gt;F32&#45;0</title>
<path fill="none" stroke="black" d="M873.5,-174C873.5,-161.22 873.39,-146.96 873.28,-135.35"/>
<polygon fill="black" stroke="black" points="875.09,-138.48 873.24,-133.51 871.59,-138.55 875.09,-138.48"/>
</g>
<!-- IntegerAttr&#45;4260952526970106593&#45;&gt;I32&#45;0 -->
<g id="edge6" class="edge">
<title>IntegerAttr&#45;4260952526970106593:s&#45;&gt;I32&#45;0</title>
<path fill="none" stroke="black" d="M474.5,-253C474.5,-242.18 455.42,-225.16 437.71,-211.69"/>
<polygon fill="black" stroke="black" points="443.05,-213.45 437.98,-211.9 440.97,-216.27 443.05,-213.45"/>
</g>
<!-- IntegerAttr&#45;4260952526970106593&#45;&gt;i64&#45;0 -->
<g id="edge5" class="edge">
<title>IntegerAttr&#45;4260952526970106593:s&#45;&gt;i64&#45;0</title>
<path fill="none" stroke="black" d="M439,-253C439,-174.62 339.32,-244.24 267,-214 266.74,-213.89 266.47,-213.78 266.21,-213.66"/>
<polygon fill="black" stroke="black" points="267.28,-212.24 262.02,-211.65 265.77,-215.39 267.28,-212.24"/>
</g>
<!-- SymbolRefAttr&#45;5063754874207616894&#45;&gt;String&#45;3221225478 -->
<g id="edge7" class="edge">
<title>SymbolRefAttr&#45;5063754874207616894:s&#45;&gt;String&#45;3221225478</title>
<path fill="none" stroke="black" d="M496,-174C496,-159.22 488.15,-144.9 479.68,-133.75"/>
<polygon fill="black" stroke="black" points="483.75,-135.11 478.88,-133.02 481.39,-137.69 483.75,-135.11"/>
</g>
<!-- SymbolRefAttr&#45;6583887671197450110&#45;&gt;String&#45;268435462 -->
<g id="edge8" class="edge">
<title>SymbolRefAttr&#45;6583887671197450110:s&#45;&gt;String&#45;268435462</title>
<path fill="none" stroke="black" d="M674,-174C674,-161.22 674,-146.96 674,-135.35"/>
<polygon fill="black" stroke="black" points="675.75,-138.51 674,-133.51 672.25,-138.51 675.75,-138.51"/>
</g>
<!-- SymbolRefAttr&#45;7005431928621511913&#45;&gt;String&#45;1073741829 -->
<g id="edge9" class="edge">
<title>SymbolRefAttr&#45;7005431928621511913:s&#45;&gt;String&#45;1073741829</title>
<path fill="none" stroke="black" d="M320,-174C320,-161.22 320,-146.96 320,-135.35"/>
<polygon fill="black" stroke="black" points="321.75,-138.51 320,-133.51 318.25,-138.51 321.75,-138.51"/>
</g>
<!-- Value&#45;3898060157612719019&#45;&gt;I64&#45;0 -->
<g id="edge13" class="edge">
<title>Value&#45;3898060157612719019:s&#45;&gt;I64&#45;0</title>
<path fill="none" stroke="black" d="M61.5,-95C61.5,-78.29 72.83,-64.03 85.25,-53.41"/>
<polygon fill="black" stroke="black" points="84.07,-57.45 86.01,-52.52 81.42,-55.16 84.07,-57.45"/>
</g>
<!-- Value&#45;3898060157612719019&#45;&gt;i64&#45;5 -->
<g id="edge12" class="edge">
<title>Value&#45;3898060157612719019:s&#45;&gt;i64&#45;5</title>
<path fill="none" stroke="black" d="M40.5,-95C40.5,-82.22 40.61,-67.96 40.72,-56.35"/>
<polygon fill="black" stroke="black" points="42.41,-59.55 40.76,-54.51 38.91,-59.48 42.41,-59.55"/>
</g>
<!-- Value&#45;5290151780539952054&#45;&gt;RankedTensor&#45;15952540911656918845 -->
<g id="edge15" class="edge">
<title>Value&#45;5290151780539952054:s&#45;&gt;RankedTensor&#45;15952540911656918845</title>
<path fill="none" stroke="black" d="M787.5,-253C787.5,-235.85 799.51,-221.82 813,-211.47"/>
<polygon fill="black" stroke="black" points="808.85,-215.33 812.65,-211.64 807.37,-212.16 808.85,-215.33"/>
</g>
<!-- Value&#45;5290151780539952054&#45;&gt;i64&#45;2 -->
<g id="edge14" class="edge">
<title>Value&#45;5290151780539952054:s&#45;&gt;i64&#45;2</title>
<path fill="none" stroke="black" d="M766.5,-253C766.5,-240.07 765.51,-225.66 764.47,-213.99"/>
<polygon fill="black" stroke="black" points="766.85,-217.06 764.17,-212.49 763.41,-217.73 766.85,-217.06"/>
</g>
<!-- Value&#45;12066246126677053039&#45;&gt;I64&#45;0 -->
<g id="edge17" class="edge">
<title>Value&#45;12066246126677053039:s&#45;&gt;I64&#45;0</title>
<path fill="none" stroke="black" d="M127.5,-95C127.5,-82.01 125.23,-67.71 122.8,-56.11"/>
<polygon fill="black" stroke="black" points="125.65,-58.28 122.06,-54.39 122.44,-59.67 125.65,-58.28"/>
</g>
<!-- Value&#45;12066246126677053039&#45;&gt;i64&#45;3 -->
<g id="edge16" class="edge">
<title>Value&#45;12066246126677053039:s&#45;&gt;i64&#45;3</title>
<path fill="none" stroke="black" d="M106.5,-95C106.5,-56.95 230.65,-41.04 291.78,-35.51"/>
<polygon fill="black" stroke="black" points="288.89,-37.79 293.51,-35.2 288.28,-34.34 288.89,-37.79"/>
</g>
<!-- func_call&#45;868461099679118244&#45;&gt;RankedTensor&#45;15952540911656918845 -->
<g id="edge20" class="edge">
<title>func_call&#45;868461099679118244:s&#45;&gt;RankedTensor&#45;15952540911656918845</title>
<path fill="none" stroke="black" d="M814.5,-332C814.5,-289.05 830.18,-240.91 840.7,-213.45"/>
<polygon fill="black" stroke="black" points="840.51,-217.58 841.28,-212.34 837.41,-215.95 840.51,-217.58"/>
</g>
<!-- func_call&#45;868461099679118244&#45;&gt;Value&#45;5290151780539952054 -->
<g id="edge18" class="edge">
<title>func_call&#45;868461099679118244:s&#45;&gt;Value&#45;5290151780539952054</title>
<path fill="none" stroke="black" d="M776.5,-332C776.5,-319.22 776.61,-304.96 776.72,-293.35"/>
<polygon fill="black" stroke="black" points="778.41,-296.55 776.76,-291.51 774.91,-296.48 778.41,-296.55"/>
</g>
<!-- func_call&#45;868461099679118244&#45;&gt;NamedAttr&#45;4948198068296926101 -->
<g id="edge19" class="edge">
<title>func_call&#45;868461099679118244:s&#45;&gt;NamedAttr&#45;4948198068296926101</title>
<path fill="none" stroke="black" d="M799,-332C799,-313.08 752.69,-294.31 716.22,-282.47"/>
<polygon fill="black" stroke="black" points="720.71,-282.3 715.42,-282.16 719.47,-285.57 720.71,-282.3"/>
</g>
<!-- NamedAttr&#45;4948198068296926101&#45;&gt;SymbolRefAttr&#45;6583887671197450110 -->
<g id="edge36" class="edge">
<title>NamedAttr&#45;4948198068296926101:s&#45;&gt;SymbolRefAttr&#45;6583887671197450110</title>
<path fill="none" stroke="black" d="M691,-253C691,-239.72 687.33,-225.39 683.4,-213.86"/>
<polygon fill="black" stroke="black" points="686.32,-216.34 682.79,-212.4 683.09,-217.69 686.32,-216.34"/>
</g>
<!-- NamedAttr&#45;4948198068296926101&#45;&gt;String&#45;8 -->
<g id="edge35" class="edge">
<title>NamedAttr&#45;4948198068296926101:s&#45;&gt;String&#45;8</title>
<path fill="none" stroke="black" d="M654.5,-253C654.5,-241.92 634.56,-224.92 616.05,-211.52"/>
<polygon fill="black" stroke="black" points="618.2,-217.23 616.1,-212.36 614.7,-217.47 618.2,-217.23"/>
</g>
<!-- arith_constant&#45;15510901089103236190&#45;&gt;I32&#45;0 -->
<g id="edge22" class="edge">
<title>arith_constant&#45;15510901089103236190:s&#45;&gt;I32&#45;0</title>
<path fill="none" stroke="black" d="M393,-411C393,-387.41 366.55,-393.57 357,-372 334.11,-320.31 327.44,-296.83 350,-245 355.67,-231.98 366.19,-220.68 376.73,-211.84"/>
<polygon fill="black" stroke="black" points="375.83,-216.33 377.16,-211.2 372.92,-214.38 375.83,-216.33"/>
</g>
<!-- arith_constant&#45;15510901089103236190&#45;&gt;NamedAttr&#45;17798651638220841180 -->
<g id="edge21" class="edge">
<title>arith_constant&#45;15510901089103236190:s&#45;&gt;NamedAttr&#45;17798651638220841180</title>
<path fill="none" stroke="black" d="M347,-411C347,-394.75 357.61,-380.53 369.25,-369.82"/>
<polygon fill="black" stroke="black" points="365.85,-373.45 369.56,-369.67 364.3,-370.32 365.85,-373.45"/>
</g>
<!-- NamedAttr&#45;17798651638220841180&#45;&gt;IntegerAttr&#45;4260952526970106593 -->
<g id="edge40" class="edge">
<title>NamedAttr&#45;17798651638220841180:s&#45;&gt;IntegerAttr&#45;4260952526970106593</title>
<path fill="none" stroke="black" d="M417,-332C417,-317 425.37,-302.76 434.44,-291.71"/>
<polygon fill="black" stroke="black" points="432.58,-295.39 435.45,-290.93 430.43,-292.62 432.58,-295.39"/>
</g>
<!-- NamedAttr&#45;17798651638220841180&#45;&gt;String&#45;3221225479 -->
<g id="edge39" class="edge">
<title>NamedAttr&#45;17798651638220841180:s&#45;&gt;String&#45;3221225479</title>
<path fill="none" stroke="black" d="M380.5,-332C380.5,-319.22 380.61,-304.96 380.72,-293.35"/>
<polygon fill="black" stroke="black" points="382.41,-296.55 380.76,-291.51 378.91,-296.48 382.41,-296.55"/>
</g>
<!-- func_call&#45;1476769281115640523&#45;&gt;RankedTensor&#45;5871781006564002453 -->
<g id="edge25" class="edge">
<title>func_call&#45;1476769281115640523:s&#45;&gt;RankedTensor&#45;5871781006564002453</title>
<path fill="none" stroke="black" d="M246.5,-332C246.5,-296.97 200.23,-320.07 178,-293 159.24,-270.15 150.68,-236.54 146.88,-214.22"/>
<polygon fill="black" stroke="black" points="149.48,-216.71 146.33,-212.45 146.13,-217.74 149.48,-216.71"/>
</g>
<!-- func_call&#45;1476769281115640523&#45;&gt;Value&#45;11743562013128004906 -->
<g id="edge23" class="edge">
<title>func_call&#45;1476769281115640523:s&#45;&gt;Value&#45;11743562013128004906</title>
<path fill="none" stroke="black" d="M208.5,-332C208.5,-319.22 208.61,-304.96 208.72,-293.35"/>
<polygon fill="black" stroke="black" points="210.41,-296.55 208.76,-291.51 206.91,-296.48 210.41,-296.55"/>
</g>
<!-- func_call&#45;1476769281115640523&#45;&gt;NamedAttr&#45;5831572750755663012 -->
<g id="edge24" class="edge">
<title>func_call&#45;1476769281115640523:s&#45;&gt;NamedAttr&#45;5831572750755663012</title>
<path fill="none" stroke="black" d="M231,-332C231,-314.92 242.91,-300.83 256.2,-290.42"/>
<polygon fill="black" stroke="black" points="251.91,-294.26 255.76,-290.62 250.48,-291.07 251.91,-294.26"/>
</g>
<!-- Value&#45;11743562013128004906&#45;&gt;RankedTensor&#45;5871781006564002453 -->
<g id="edge27" class="edge">
<title>Value&#45;11743562013128004906:s&#45;&gt;RankedTensor&#45;5871781006564002453</title>
<path fill="none" stroke="black" d="M219.5,-253C219.5,-234.87 206.33,-221.07 190.99,-211.14"/>
<polygon fill="black" stroke="black" points="197.31,-212.47 192.07,-211.7 195.68,-215.57 197.31,-212.47"/>
</g>
<!-- Value&#45;11743562013128004906&#45;&gt;i64&#45;0 -->
<g id="edge26" class="edge">
<title>Value&#45;11743562013128004906:s&#45;&gt;i64&#45;0</title>
<path fill="none" stroke="black" d="M198.5,-253C198.5,-238.6 205.59,-224.33 213.24,-213.12"/>
<polygon fill="black" stroke="black" points="212.17,-217.12 214.04,-212.16 209.49,-214.87 212.17,-217.12"/>
</g>
<!-- NamedAttr&#45;5831572750755663012&#45;&gt;SymbolRefAttr&#45;7005431928621511913 -->
<g id="edge42" class="edge">
<title>NamedAttr&#45;5831572750755663012:s&#45;&gt;SymbolRefAttr&#45;7005431928621511913</title>
<path fill="none" stroke="black" d="M310,-253C310,-240.03 312.16,-225.72 314.47,-214.13"/>
<polygon fill="black" stroke="black" points="314.9,-217.69 315.18,-212.4 311.66,-216.36 314.9,-217.69"/>
</g>
<!-- NamedAttr&#45;5831572750755663012&#45;&gt;String&#45;8 -->
<g id="edge41" class="edge">
<title>NamedAttr&#45;5831572750755663012:s&#45;&gt;String&#45;8</title>
<path fill="none" stroke="black" d="M273.5,-253C273.5,-191.17 491.01,-235.47 549,-214 549.43,-213.84 549.87,-213.67 550.3,-213.5"/>
<polygon fill="black" stroke="black" points="550.67,-215.25 554.53,-211.61 549.25,-212.06 550.67,-215.25"/>
</g>
<!-- Value&#45;2526907191799847605&#45;&gt;None&#45;0 -->
<g id="edge29" class="edge">
<title>Value&#45;2526907191799847605:s&#45;&gt;None&#45;0</title>
<path fill="none" stroke="black" d="M918.5,-411C918.5,-396.68 925.26,-382.32 932.52,-371.04"/>
<polygon fill="black" stroke="black" points="931.49,-375.22 933.17,-370.2 928.72,-373.08 931.49,-375.22"/>
</g>
<!-- Value&#45;2526907191799847605&#45;&gt;i64&#45;9 -->
<g id="edge28" class="edge">
<title>Value&#45;2526907191799847605:s&#45;&gt;i64&#45;9</title>
<path fill="none" stroke="black" d="M897.5,-411C897.5,-397.89 894.58,-383.58 891.46,-372.01"/>
<polygon fill="black" stroke="black" points="894.5,-373.77 890.48,-370.31 891.47,-375.52 894.5,-373.77"/>
</g>
<!-- Value&#45;5758660465200108737&#45;&gt;None&#45;0 -->
<g id="edge31" class="edge">
<title>Value&#45;5758660465200108737:s&#45;&gt;None&#45;0</title>
<path fill="none" stroke="black" d="M1012.5,-411C1012.5,-400.45 994.33,-383.26 977.59,-369.65"/>
<polygon fill="black" stroke="black" points="982.62,-369.72 977.33,-369.55 981.36,-372.98 982.62,-369.72"/>
</g>
<!-- Value&#45;5758660465200108737&#45;&gt;i64&#45;7 -->
<g id="edge30" class="edge">
<title>Value&#45;5758660465200108737:s&#45;&gt;i64&#45;7</title>
<path fill="none" stroke="black" d="M991.5,-411C991.5,-397.3 996.74,-383.01 1002.37,-371.61"/>
<polygon fill="black" stroke="black" points="1001.82,-375.26 1003.42,-370.21 999.02,-373.17 1001.82,-375.26"/>
</g>
<!-- func_call&#45;15784220428753006575&#45;&gt;RankedTensor&#45;15952540911656918845 -->
<g id="edge34" class="edge">
<title>func_call&#45;15784220428753006575:s&#45;&gt;RankedTensor&#45;15952540911656918845</title>
<path fill="none" stroke="black" d="M829.5,-411C829.5,-338.72 840.61,-253.66 846.47,-213.79"/>
<polygon fill="black" stroke="black" points="847.04,-217.74 846.9,-212.44 843.71,-216.67 847.04,-217.74"/>
</g>
<!-- func_call&#45;15784220428753006575&#45;&gt;func_call&#45;868461099679118244 -->
<g id="edge32" class="edge">
<title>func_call&#45;15784220428753006575:s&#45;&gt;func_call&#45;868461099679118244</title>
<path fill="none" stroke="black" d="M791.5,-411C791.5,-398.22 791.61,-383.96 791.72,-372.35"/>
<polygon fill="black" stroke="black" points="793.41,-375.55 791.76,-370.51 789.91,-375.48 793.41,-375.55"/>
</g>
<!-- func_call&#45;15784220428753006575&#45;&gt;NamedAttr&#45;3285395960261837587 -->
<g id="edge33" class="edge">
<title>func_call&#45;15784220428753006575:s&#45;&gt;NamedAttr&#45;3285395960261837587</title>
<path fill="none" stroke="black" d="M814,-411C814,-408.17 682.3,-328.54 618.65,-290.22"/>
<polygon fill="black" stroke="black" points="624.78,-290.74 619.49,-290.55 623.51,-294 624.78,-290.74"/>
</g>
<!-- NamedAttr&#45;3285395960261837587&#45;&gt;SymbolRefAttr&#45;5063754874207616894 -->
<g id="edge38" class="edge">
<title>NamedAttr&#45;3285395960261837587:s&#45;&gt;SymbolRefAttr&#45;5063754874207616894</title>
<path fill="none" stroke="black" d="M603,-253C603,-245.63 572.19,-228.31 543.63,-213.85"/>
<polygon fill="black" stroke="black" points="544.56,-212.36 539.31,-211.68 542.99,-215.49 544.56,-212.36"/>
</g>
<!-- NamedAttr&#45;3285395960261837587&#45;&gt;String&#45;8 -->
<g id="edge37" class="edge">
<title>NamedAttr&#45;3285395960261837587:s&#45;&gt;String&#45;8</title>
<path fill="none" stroke="black" d="M566.5,-253C566.5,-239.73 570.44,-225.51 574.68,-214.03"/>
<polygon fill="black" stroke="black" points="574.97,-217.66 575.43,-212.38 571.78,-216.22 574.97,-217.66"/>
</g>
<!-- F64&#45;0 -->
<g id="node1" class="node">
<title>F64&#45;0</title>
<g id="a_node1"><a xlink:title="Type&#45;1: F64&#45;0">
<path fill="white" stroke="none" d="M177.04,-95C177.04,-95 188.96,-95 188.96,-95 194.29,-95 199.62,-100.33 199.62,-105.67 199.62,-105.67 199.62,-116.33 199.62,-116.33 199.62,-121.67 194.29,-127 188.96,-127 188.96,-127 177.04,-127 177.04,-127 171.71,-127 166.38,-121.67 166.38,-116.33 166.38,-116.33 166.38,-105.67 166.38,-105.67 166.38,-100.33 171.71,-95 177.04,-95"/>
<text text-anchor="start" x="171.38" y="-105.2" font-family="Helvetica,sans-Serif" font-size="14.00">F64</text>
<path fill="none" stroke="black" d="M177.04,-95C177.04,-95 188.96,-95 188.96,-95 194.29,-95 199.62,-100.33 199.62,-105.67 199.62,-105.67 199.62,-116.33 199.62,-116.33 199.62,-121.67 194.29,-127 188.96,-127 188.96,-127 177.04,-127 177.04,-127 171.71,-127 166.38,-121.67 166.38,-116.33 166.38,-116.33 166.38,-105.67 166.38,-105.67 166.38,-100.33 171.71,-95 177.04,-95"/>
</a>
</g>
</g>
<!-- None&#45;0 -->
<g id="node2" class="node">
<title>None&#45;0</title>
<g id="a_node2"><a xlink:title="Type&#45;26: None&#45;0">
<path fill="white" stroke="none" d="M939.54,-332C939.54,-332 960.46,-332 960.46,-332 965.79,-332 971.12,-337.33 971.12,-342.67 971.12,-342.67 971.12,-353.33 971.12,-353.33 971.12,-358.67 965.79,-364 960.46,-364 960.46,-364 939.54,-364 939.54,-364 934.21,-364 928.88,-358.67 928.88,-353.33 928.88,-353.33 928.88,-342.67 928.88,-342.67 928.88,-337.33 934.21,-332 939.54,-332"/>
<text text-anchor="start" x="933.88" y="-342.2" font-family="Helvetica,sans-Serif" font-size="14.00">None</text>
<path fill="none" stroke="black" d="M939.54,-332C939.54,-332 960.46,-332 960.46,-332 965.79,-332 971.12,-337.33 971.12,-342.67 971.12,-342.67 971.12,-353.33 971.12,-353.33 971.12,-358.67 965.79,-364 960.46,-364 960.46,-364 939.54,-364 939.54,-364 934.21,-364 928.88,-358.67 928.88,-353.33 928.88,-353.33 928.88,-342.67 928.88,-342.67 928.88,-337.33 934.21,-332 939.54,-332"/>
</a>
</g>
</g>
<!-- I32&#45;0 -->
<g id="node3" class="node">
<title>I32&#45;0</title>
<g id="a_node3"><a xlink:title="Type&#45;29: I32&#45;0">
<path fill="white" stroke="none" d="M402.67,-174C402.67,-174 413.33,-174 413.33,-174 418.67,-174 424,-179.33 424,-184.67 424,-184.67 424,-195.33 424,-195.33 424,-200.67 418.67,-206 413.33,-206 413.33,-206 402.67,-206 402.67,-206 397.33,-206 392,-200.67 392,-195.33 392,-195.33 392,-184.67 392,-184.67 392,-179.33 397.33,-174 402.67,-174"/>
<text text-anchor="start" x="398.62" y="-184.2" font-family="Helvetica,sans-Serif" font-size="14.00">I32</text>
<path fill="none" stroke="black" d="M402.67,-174C402.67,-174 413.33,-174 413.33,-174 418.67,-174 424,-179.33 424,-184.67 424,-184.67 424,-195.33 424,-195.33 424,-200.67 418.67,-206 413.33,-206 413.33,-206 402.67,-206 402.67,-206 397.33,-206 392,-200.67 392,-195.33 392,-195.33 392,-184.67 392,-184.67 392,-179.33 397.33,-174 402.67,-174"/>
</a>
</g>
</g>
<!-- RankedTensor&#45;5871781006564002453 -->
<g id="node4" class="node">
<title>RankedTensor&#45;5871781006564002453</title>
<g id="a_node4"><a xlink:title="Type&#45;2: RankedTensor&#45;5871781006564002453">
<path fill="white" stroke="none" d="M106.17,-174C106.17,-174 181.83,-174 181.83,-174 187.17,-174 192.5,-179.33 192.5,-184.67 192.5,-184.67 192.5,-195.33 192.5,-195.33 192.5,-200.67 187.17,-206 181.83,-206 181.83,-206 106.17,-206 106.17,-206 100.83,-206 95.5,-200.67 95.5,-195.33 95.5,-195.33 95.5,-184.67 95.5,-184.67 95.5,-179.33 100.83,-174 106.17,-174"/>
<text text-anchor="start" x="100.5" y="-184.2" font-family="Helvetica,sans-Serif" font-size="14.00">RankedTensor</text>
<path fill="none" stroke="black" d="M106.17,-174C106.17,-174 181.83,-174 181.83,-174 187.17,-174 192.5,-179.33 192.5,-184.67 192.5,-184.67 192.5,-195.33 192.5,-195.33 192.5,-200.67 187.17,-206 181.83,-206 181.83,-206 106.17,-206 106.17,-206 100.83,-206 95.5,-200.67 95.5,-195.33 95.5,-195.33 95.5,-184.67 95.5,-184.67 95.5,-179.33 100.83,-174 106.17,-174"/>
</a>
</g>
</g>
<!-- IntVec&#45;0 -->
<g id="node5" class="node">
<title>IntVec&#45;0</title>
<g id="a_node5"><a xlink:title="IntVec&#45;0: IntVec&#45;0">
<path fill="white" stroke="none" d="M523.67,-95C523.67,-95 550.33,-95 550.33,-95 555.67,-95 561,-100.33 561,-105.67 561,-105.67 561,-116.33 561,-116.33 561,-121.67 555.67,-127 550.33,-127 550.33,-127 523.67,-127 523.67,-127 518.33,-127 513,-121.67 513,-116.33 513,-116.33 513,-105.67 513,-105.67 513,-100.33 518.33,-95 523.67,-95"/>
<text text-anchor="start" x="517.88" y="-105.2" font-family="Helvetica,sans-Serif" font-size="14.00">IntVec</text>
<path fill="none" stroke="black" d="M523.67,-95C523.67,-95 550.33,-95 550.33,-95 555.67,-95 561,-100.33 561,-105.67 561,-105.67 561,-116.33 561,-116.33 561,-121.67 555.67,-127 550.33,-127 550.33,-127 523.67,-127 523.67,-127 518.33,-127 513,-121.67 513,-116.33 513,-116.33 513,-105.67 513,-105.67 513,-100.33 518.33,-95 523.67,-95"/>
</a>
</g>
</g>
<!-- RankedTensor&#45;15952540911656918845 -->
<g id="node6" class="node">
<title>RankedTensor&#45;15952540911656918845</title>
<g id="a_node6"><a xlink:title="Type&#45;10: RankedTensor&#45;15952540911656918845">
<path fill="white" stroke="none" d="M812.17,-174C812.17,-174 887.83,-174 887.83,-174 893.17,-174 898.5,-179.33 898.5,-184.67 898.5,-184.67 898.5,-195.33 898.5,-195.33 898.5,-200.67 893.17,-206 887.83,-206 887.83,-206 812.17,-206 812.17,-206 806.83,-206 801.5,-200.67 801.5,-195.33 801.5,-195.33 801.5,-184.67 801.5,-184.67 801.5,-179.33 806.83,-174 812.17,-174"/>
<text text-anchor="start" x="806.5" y="-184.2" font-family="Helvetica,sans-Serif" font-size="14.00">RankedTensor</text>
<path fill="none" stroke="black" d="M812.17,-174C812.17,-174 887.83,-174 887.83,-174 893.17,-174 898.5,-179.33 898.5,-184.67 898.5,-184.67 898.5,-195.33 898.5,-195.33 898.5,-200.67 893.17,-206 887.83,-206 887.83,-206 812.17,-206 812.17,-206 806.83,-206 801.5,-200.67 801.5,-195.33 801.5,-195.33 801.5,-184.67 801.5,-184.67 801.5,-179.33 806.83,-174 812.17,-174"/>
</a>
</g>
</g>
<!-- F32&#45;0 -->
<g id="node7" class="node">
<title>F32&#45;0</title>
<g id="a_node7"><a xlink:title="Type&#45;9: F32&#45;0">
<path fill="white" stroke="none" d="M867.04,-95C867.04,-95 878.96,-95 878.96,-95 884.29,-95 889.62,-100.33 889.62,-105.67 889.62,-105.67 889.62,-116.33 889.62,-116.33 889.62,-121.67 884.29,-127 878.96,-127 878.96,-127 867.04,-127 867.04,-127 861.71,-127 856.38,-121.67 856.38,-116.33 856.38,-116.33 856.38,-105.67 856.38,-105.67 856.38,-100.33 861.71,-95 867.04,-95"/>
<text text-anchor="start" x="861.38" y="-105.2" font-family="Helvetica,sans-Serif" font-size="14.00">F32</text>
<path fill="none" stroke="black" d="M867.04,-95C867.04,-95 878.96,-95 878.96,-95 884.29,-95 889.62,-100.33 889.62,-105.67 889.62,-105.67 889.62,-116.33 889.62,-116.33 889.62,-121.67 884.29,-127 878.96,-127 878.96,-127 867.04,-127 867.04,-127 861.71,-127 856.38,-121.67 856.38,-116.33 856.38,-116.33 856.38,-105.67 856.38,-105.67 856.38,-100.33 861.71,-95 867.04,-95"/>
</a>
</g>
</g>
<!-- I64&#45;0 -->
<g id="node8" class="node">
<title>I64&#45;0</title>
<g id="a_node8"><a xlink:title="Type&#45;13: I64&#45;0">
<path fill="white" stroke="none" d="M111.67,-16C111.67,-16 122.33,-16 122.33,-16 127.67,-16 133,-21.33 133,-26.67 133,-26.67 133,-37.33 133,-37.33 133,-42.67 127.67,-48 122.33,-48 122.33,-48 111.67,-48 111.67,-48 106.33,-48 101,-42.67 101,-37.33 101,-37.33 101,-26.67 101,-26.67 101,-21.33 106.33,-16 111.67,-16"/>
<text text-anchor="start" x="107.62" y="-26.2" font-family="Helvetica,sans-Serif" font-size="14.00">I64</text>
<path fill="none" stroke="black" d="M111.67,-16C111.67,-16 122.33,-16 122.33,-16 127.67,-16 133,-21.33 133,-26.67 133,-26.67 133,-37.33 133,-37.33 133,-42.67 127.67,-48 122.33,-48 122.33,-48 111.67,-48 111.67,-48 106.33,-48 101,-42.67 101,-37.33 101,-37.33 101,-26.67 101,-26.67 101,-21.33 106.33,-16 111.67,-16"/>
</a>
</g>
</g>
<!-- IntegerAttr&#45;4260952526970106593 -->
<g id="node9" class="node">
<title>IntegerAttr&#45;4260952526970106593</title>
<g id="a_node9"><a xlink:title="Attr&#45;30: IntegerAttr&#45;4260952526970106593">
<path fill="white" stroke="none" d="M431.17,-253C431.17,-253 482.83,-253 482.83,-253 488.17,-253 493.5,-258.33 493.5,-263.67 493.5,-263.67 493.5,-274.33 493.5,-274.33 493.5,-279.67 488.17,-285 482.83,-285 482.83,-285 431.17,-285 431.17,-285 425.83,-285 420.5,-279.67 420.5,-274.33 420.5,-274.33 420.5,-263.67 420.5,-263.67 420.5,-258.33 425.83,-253 431.17,-253"/>
<text text-anchor="start" x="425.5" y="-263.2" font-family="Helvetica,sans-Serif" font-size="14.00">IntegerAttr</text>
<path fill="none" stroke="black" d="M431.17,-253C431.17,-253 482.83,-253 482.83,-253 488.17,-253 493.5,-258.33 493.5,-263.67 493.5,-263.67 493.5,-274.33 493.5,-274.33 493.5,-279.67 488.17,-285 482.83,-285 482.83,-285 431.17,-285 431.17,-285 425.83,-285 420.5,-279.67 420.5,-274.33 420.5,-274.33 420.5,-263.67 420.5,-263.67 420.5,-258.33 425.83,-253 431.17,-253"/>
</a>
</g>
</g>
<!-- i64&#45;0 -->
<g id="node10" class="node">
<title>i64&#45;0</title>
<g id="a_node10"><a xlink:title="i64&#45;0: i64&#45;0">
<path fill="white" stroke="none" d="M226.67,-174C226.67,-174 237.33,-174 237.33,-174 242.67,-174 248,-179.33 248,-184.67 248,-184.67 248,-195.33 248,-195.33 248,-200.67 242.67,-206 237.33,-206 237.33,-206 226.67,-206 226.67,-206 221.33,-206 216,-200.67 216,-195.33 216,-195.33 216,-184.67 216,-184.67 216,-179.33 221.33,-174 226.67,-174"/>
<text text-anchor="start" x="228.25" y="-184.2" font-family="Helvetica,sans-Serif" font-size="14.00">0</text>
<path fill="none" stroke="black" d="M226.67,-174C226.67,-174 237.33,-174 237.33,-174 242.67,-174 248,-179.33 248,-184.67 248,-184.67 248,-195.33 248,-195.33 248,-200.67 242.67,-206 237.33,-206 237.33,-206 226.67,-206 226.67,-206 221.33,-206 216,-200.67 216,-195.33 216,-195.33 216,-184.67 216,-184.67 216,-179.33 221.33,-174 226.67,-174"/>
</a>
</g>
</g>
<!-- SymbolRefAttr&#45;5063754874207616894 -->
<g id="node11" class="node">
<title>SymbolRefAttr&#45;5063754874207616894</title>
<g id="a_node11"><a xlink:title="Attr&#45;22: SymbolRefAttr&#45;5063754874207616894">
<path fill="white" stroke="none" d="M457.79,-174C457.79,-174 534.21,-174 534.21,-174 539.54,-174 544.88,-179.33 544.88,-184.67 544.88,-184.67 544.88,-195.33 544.88,-195.33 544.88,-200.67 539.54,-206 534.21,-206 534.21,-206 457.79,-206 457.79,-206 452.46,-206 447.12,-200.67 447.12,-195.33 447.12,-195.33 447.12,-184.67 447.12,-184.67 447.12,-179.33 452.46,-174 457.79,-174"/>
<text text-anchor="start" x="452.12" y="-184.2" font-family="Helvetica,sans-Serif" font-size="14.00">SymbolRefAttr</text>
<path fill="none" stroke="black" d="M457.79,-174C457.79,-174 534.21,-174 534.21,-174 539.54,-174 544.88,-179.33 544.88,-184.67 544.88,-184.67 544.88,-195.33 544.88,-195.33 544.88,-200.67 539.54,-206 534.21,-206 534.21,-206 457.79,-206 457.79,-206 452.46,-206 447.12,-200.67 447.12,-195.33 447.12,-195.33 447.12,-184.67 447.12,-184.67 447.12,-179.33 452.46,-174 457.79,-174"/>
</a>
</g>
</g>
<!-- String&#45;3221225478 -->
<g id="node12" class="node">
<title>String&#45;3221225478</title>
<g id="a_node12"><a xlink:title="String&#45;3221225478: String&#45;3221225478">
<path fill="white" stroke="none" d="M430.92,-95C430.92,-95 487.08,-95 487.08,-95 492.42,-95 497.75,-100.33 497.75,-105.67 497.75,-105.67 497.75,-116.33 497.75,-116.33 497.75,-121.67 492.42,-127 487.08,-127 487.08,-127 430.92,-127 430.92,-127 425.58,-127 420.25,-121.67 420.25,-116.33 420.25,-116.33 420.25,-105.67 420.25,-105.67 420.25,-100.33 425.58,-95 430.92,-95"/>
<text text-anchor="start" x="425.25" y="-105.2" font-family="Helvetica,sans-Serif" font-size="14.00">&quot;blackhole&quot;</text>
<path fill="none" stroke="black" d="M430.92,-95C430.92,-95 487.08,-95 487.08,-95 492.42,-95 497.75,-100.33 497.75,-105.67 497.75,-105.67 497.75,-116.33 497.75,-116.33 497.75,-121.67 492.42,-127 487.08,-127 487.08,-127 430.92,-127 430.92,-127 425.58,-127 420.25,-121.67 420.25,-116.33 420.25,-116.33 420.25,-105.67 420.25,-105.67 420.25,-100.33 425.58,-95 430.92,-95"/>
</a>
</g>
</g>
<!-- SymbolRefAttr&#45;6583887671197450110 -->
<g id="node13" class="node">
<title>SymbolRefAttr&#45;6583887671197450110</title>
<g id="a_node13"><a xlink:title="Attr&#45;16: SymbolRefAttr&#45;6583887671197450110">
<path fill="white" stroke="none" d="M635.79,-174C635.79,-174 712.21,-174 712.21,-174 717.54,-174 722.88,-179.33 722.88,-184.67 722.88,-184.67 722.88,-195.33 722.88,-195.33 722.88,-200.67 717.54,-206 712.21,-206 712.21,-206 635.79,-206 635.79,-206 630.46,-206 625.12,-200.67 625.12,-195.33 625.12,-195.33 625.12,-184.67 625.12,-184.67 625.12,-179.33 630.46,-174 635.79,-174"/>
<text text-anchor="start" x="630.12" y="-184.2" font-family="Helvetica,sans-Serif" font-size="14.00">SymbolRefAttr</text>
<path fill="none" stroke="black" d="M635.79,-174C635.79,-174 712.21,-174 712.21,-174 717.54,-174 722.88,-179.33 722.88,-184.67 722.88,-184.67 722.88,-195.33 722.88,-195.33 722.88,-200.67 717.54,-206 712.21,-206 712.21,-206 635.79,-206 635.79,-206 630.46,-206 625.12,-200.67 625.12,-195.33 625.12,-195.33 625.12,-184.67 625.12,-184.67 625.12,-179.33 630.46,-174 635.79,-174"/>
</a>
</g>
</g>
<!-- String&#45;268435462 -->
<g id="node14" class="node">
<title>String&#45;268435462</title>
<g id="a_node14"><a xlink:title="String&#45;268435462: String&#45;268435462">
<path fill="white" stroke="none" d="M590.42,-95C590.42,-95 757.58,-95 757.58,-95 762.92,-95 768.25,-100.33 768.25,-105.67 768.25,-105.67 768.25,-116.33 768.25,-116.33 768.25,-121.67 762.92,-127 757.58,-127 757.58,-127 590.42,-127 590.42,-127 585.08,-127 579.75,-121.67 579.75,-116.33 579.75,-116.33 579.75,-105.67 579.75,-105.67 579.75,-100.33 585.08,-95 590.42,-95"/>
<text text-anchor="start" x="584.75" y="-105.2" font-family="Helvetica,sans-Serif" font-size="14.00">&quot;normalize_distance_vectors&quot;</text>
<path fill="none" stroke="black" d="M590.42,-95C590.42,-95 757.58,-95 757.58,-95 762.92,-95 768.25,-100.33 768.25,-105.67 768.25,-105.67 768.25,-116.33 768.25,-116.33 768.25,-121.67 762.92,-127 757.58,-127 757.58,-127 590.42,-127 590.42,-127 585.08,-127 579.75,-121.67 579.75,-116.33 579.75,-116.33 579.75,-105.67 579.75,-105.67 579.75,-100.33 585.08,-95 590.42,-95"/>
</a>
</g>
</g>
<!-- SymbolRefAttr&#45;7005431928621511913 -->
<g id="node15" class="node">
<title>SymbolRefAttr&#45;7005431928621511913</title>
<g id="a_node15"><a xlink:title="Attr&#45;5: SymbolRefAttr&#45;7005431928621511913">
<path fill="white" stroke="none" d="M281.79,-174C281.79,-174 358.21,-174 358.21,-174 363.54,-174 368.88,-179.33 368.88,-184.67 368.88,-184.67 368.88,-195.33 368.88,-195.33 368.88,-200.67 363.54,-206 358.21,-206 358.21,-206 281.79,-206 281.79,-206 276.46,-206 271.12,-200.67 271.12,-195.33 271.12,-195.33 271.12,-184.67 271.12,-184.67 271.12,-179.33 276.46,-174 281.79,-174"/>
<text text-anchor="start" x="276.12" y="-184.2" font-family="Helvetica,sans-Serif" font-size="14.00">SymbolRefAttr</text>
<path fill="none" stroke="black" d="M281.79,-174C281.79,-174 358.21,-174 358.21,-174 363.54,-174 368.88,-179.33 368.88,-184.67 368.88,-184.67 368.88,-195.33 368.88,-195.33 368.88,-200.67 363.54,-206 358.21,-206 358.21,-206 281.79,-206 281.79,-206 276.46,-206 271.12,-200.67 271.12,-195.33 271.12,-195.33 271.12,-184.67 271.12,-184.67 271.12,-179.33 276.46,-174 281.79,-174"/>
</a>
</g>
</g>
<!-- String&#45;1073741829 -->
<g id="node16" class="node">
<title>String&#45;1073741829</title>
<g id="a_node16"><a xlink:title="String&#45;1073741829: String&#45;1073741829">
<path fill="white" stroke="none" d="M247.67,-95C247.67,-95 392.33,-95 392.33,-95 397.67,-95 403,-100.33 403,-105.67 403,-105.67 403,-116.33 403,-116.33 403,-121.67 397.67,-127 392.33,-127 392.33,-127 247.67,-127 247.67,-127 242.33,-127 237,-121.67 237,-116.33 237,-116.33 237,-105.67 237,-105.67 237,-100.33 242.33,-95 247.67,-95"/>
<text text-anchor="start" x="242" y="-105.2" font-family="Helvetica,sans-Serif" font-size="14.00">&quot;fillRandomF64Tensor2D&quot;</text>
<path fill="none" stroke="black" d="M247.67,-95C247.67,-95 392.33,-95 392.33,-95 397.67,-95 403,-100.33 403,-105.67 403,-105.67 403,-116.33 403,-116.33 403,-121.67 397.67,-127 392.33,-127 392.33,-127 247.67,-127 247.67,-127 242.33,-127 237,-121.67 237,-116.33 237,-116.33 237,-105.67 237,-105.67 237,-100.33 242.33,-95 247.67,-95"/>
</a>
</g>
</g>
<!-- i64&#45;1000000 -->
<g id="node17" class="node">
<title>i64&#45;1000000</title>
<g id="a_node17"><a xlink:title="i64&#45;1000000: i64&#45;1000000">
<path fill="white" stroke="none" d="M505.42,-16C505.42,-16 546.58,-16 546.58,-16 551.92,-16 557.25,-21.33 557.25,-26.67 557.25,-26.67 557.25,-37.33 557.25,-37.33 557.25,-42.67 551.92,-48 546.58,-48 546.58,-48 505.42,-48 505.42,-48 500.08,-48 494.75,-42.67 494.75,-37.33 494.75,-37.33 494.75,-26.67 494.75,-26.67 494.75,-21.33 500.08,-16 505.42,-16"/>
<text text-anchor="start" x="499.75" y="-26.2" font-family="Helvetica,sans-Serif" font-size="14.00">1000000</text>
<path fill="none" stroke="black" d="M505.42,-16C505.42,-16 546.58,-16 546.58,-16 551.92,-16 557.25,-21.33 557.25,-26.67 557.25,-26.67 557.25,-37.33 557.25,-37.33 557.25,-42.67 551.92,-48 546.58,-48 546.58,-48 505.42,-48 505.42,-48 500.08,-48 494.75,-42.67 494.75,-37.33 494.75,-37.33 494.75,-26.67 494.75,-26.67 494.75,-21.33 500.08,-16 505.42,-16"/>
</a>
</g>
</g>
<!-- i64&#45;3 -->
<g id="node18" class="node">
<title>i64&#45;3</title>
<g id="a_node18"><a xlink:title="i64&#45;3: i64&#45;3">
<path fill="white" stroke="none" d="M319.67,-16C319.67,-16 330.33,-16 330.33,-16 335.67,-16 341,-21.33 341,-26.67 341,-26.67 341,-37.33 341,-37.33 341,-42.67 335.67,-48 330.33,-48 330.33,-48 319.67,-48 319.67,-48 314.33,-48 309,-42.67 309,-37.33 309,-37.33 309,-26.67 309,-26.67 309,-21.33 314.33,-16 319.67,-16"/>
<text text-anchor="start" x="321.25" y="-26.2" font-family="Helvetica,sans-Serif" font-size="14.00">3</text>
<path fill="none" stroke="black" d="M319.67,-16C319.67,-16 330.33,-16 330.33,-16 335.67,-16 341,-21.33 341,-26.67 341,-26.67 341,-37.33 341,-37.33 341,-42.67 335.67,-48 330.33,-48 330.33,-48 319.67,-48 319.67,-48 314.33,-48 309,-42.67 309,-37.33 309,-37.33 309,-26.67 309,-26.67 309,-21.33 314.33,-16 319.67,-16"/>
</a>
</g>
</g>
<!-- i64&#45;5 -->
<g id="node19" class="node">
<title>i64&#45;5</title>
<g id="a_node19"><a xlink:title="i64&#45;5: i64&#45;5">
<path fill="white" stroke="none" d="M35.67,-16C35.67,-16 46.33,-16 46.33,-16 51.67,-16 57,-21.33 57,-26.67 57,-26.67 57,-37.33 57,-37.33 57,-42.67 51.67,-48 46.33,-48 46.33,-48 35.67,-48 35.67,-48 30.33,-48 25,-42.67 25,-37.33 25,-37.33 25,-26.67 25,-26.67 25,-21.33 30.33,-16 35.67,-16"/>
<text text-anchor="start" x="37.25" y="-26.2" font-family="Helvetica,sans-Serif" font-size="14.00">5</text>
<path fill="none" stroke="black" d="M35.67,-16C35.67,-16 46.33,-16 46.33,-16 51.67,-16 57,-21.33 57,-26.67 57,-26.67 57,-37.33 57,-37.33 57,-42.67 51.67,-48 46.33,-48 46.33,-48 35.67,-48 35.67,-48 30.33,-48 25,-42.67 25,-37.33 25,-37.33 25,-26.67 25,-26.67 25,-21.33 30.33,-16 35.67,-16"/>
</a>
</g>
</g>
<!-- i64&#45;2 -->
<g id="node20" class="node">
<title>i64&#45;2</title>
<g id="a_node20"><a xlink:title="i64&#45;2: i64&#45;2">
<path fill="white" stroke="none" d="M756.67,-174C756.67,-174 767.33,-174 767.33,-174 772.67,-174 778,-179.33 778,-184.67 778,-184.67 778,-195.33 778,-195.33 778,-200.67 772.67,-206 767.33,-206 767.33,-206 756.67,-206 756.67,-206 751.33,-206 746,-200.67 746,-195.33 746,-195.33 746,-184.67 746,-184.67 746,-179.33 751.33,-174 756.67,-174"/>
<text text-anchor="start" x="758.25" y="-184.2" font-family="Helvetica,sans-Serif" font-size="14.00">2</text>
<path fill="none" stroke="black" d="M756.67,-174C756.67,-174 767.33,-174 767.33,-174 772.67,-174 778,-179.33 778,-184.67 778,-184.67 778,-195.33 778,-195.33 778,-200.67 772.67,-206 767.33,-206 767.33,-206 756.67,-206 756.67,-206 751.33,-206 746,-200.67 746,-195.33 746,-195.33 746,-184.67 746,-184.67 746,-179.33 751.33,-174 756.67,-174"/>
</a>
</g>
</g>
<!-- i64&#45;7 -->
<g id="node21" class="node">
<title>i64&#45;7</title>
<g id="a_node21"><a xlink:title="i64&#45;7: i64&#45;7">
<path fill="white" stroke="none" d="M1010.67,-332C1010.67,-332 1021.33,-332 1021.33,-332 1026.67,-332 1032,-337.33 1032,-342.67 1032,-342.67 1032,-353.33 1032,-353.33 1032,-358.67 1026.67,-364 1021.33,-364 1021.33,-364 1010.67,-364 1010.67,-364 1005.33,-364 1000,-358.67 1000,-353.33 1000,-353.33 1000,-342.67 1000,-342.67 1000,-337.33 1005.33,-332 1010.67,-332"/>
<text text-anchor="start" x="1012.25" y="-342.2" font-family="Helvetica,sans-Serif" font-size="14.00">7</text>
<path fill="none" stroke="black" d="M1010.67,-332C1010.67,-332 1021.33,-332 1021.33,-332 1026.67,-332 1032,-337.33 1032,-342.67 1032,-342.67 1032,-353.33 1032,-353.33 1032,-358.67 1026.67,-364 1021.33,-364 1021.33,-364 1010.67,-364 1010.67,-364 1005.33,-364 1000,-358.67 1000,-353.33 1000,-353.33 1000,-342.67 1000,-342.67 1000,-337.33 1005.33,-332 1010.67,-332"/>
</a>
</g>
</g>
<!-- i64&#45;9 -->
<g id="node22" class="node">
<title>i64&#45;9</title>
<g id="a_node22"><a xlink:title="i64&#45;9: i64&#45;9">
<path fill="white" stroke="none" d="M878.67,-332C878.67,-332 889.33,-332 889.33,-332 894.67,-332 900,-337.33 900,-342.67 900,-342.67 900,-353.33 900,-353.33 900,-358.67 894.67,-364 889.33,-364 889.33,-364 878.67,-364 878.67,-364 873.33,-364 868,-358.67 868,-353.33 868,-353.33 868,-342.67 868,-342.67 868,-337.33 873.33,-332 878.67,-332"/>
<text text-anchor="start" x="880.25" y="-342.2" font-family="Helvetica,sans-Serif" font-size="14.00">9</text>
<path fill="none" stroke="black" d="M878.67,-332C878.67,-332 889.33,-332 889.33,-332 894.67,-332 900,-337.33 900,-342.67 900,-342.67 900,-353.33 900,-353.33 900,-358.67 894.67,-364 889.33,-364 889.33,-364 878.67,-364 878.67,-364 873.33,-364 868,-358.67 868,-353.33 868,-353.33 868,-342.67 868,-342.67 868,-337.33 873.33,-332 878.67,-332"/>
</a>
</g>
</g>
<!-- Value&#45;3898060157612719019 -->
<g id="node23" class="node">
<title>Value&#45;3898060157612719019</title>
<g id="a_node23"><a xlink:title="Op&#45;19: Value&#45;3898060157612719019">
<path fill="white" stroke="none" d="M39.67,-95C39.67,-95 62.33,-95 62.33,-95 67.67,-95 73,-100.33 73,-105.67 73,-105.67 73,-116.33 73,-116.33 73,-121.67 67.67,-127 62.33,-127 62.33,-127 39.67,-127 39.67,-127 34.33,-127 29,-121.67 29,-116.33 29,-116.33 29,-105.67 29,-105.67 29,-100.33 34.33,-95 39.67,-95"/>
<text text-anchor="start" x="33.75" y="-105.2" font-family="Helvetica,sans-Serif" font-size="14.00">Value</text>
<path fill="none" stroke="black" d="M39.67,-95C39.67,-95 62.33,-95 62.33,-95 67.67,-95 73,-100.33 73,-105.67 73,-105.67 73,-116.33 73,-116.33 73,-121.67 67.67,-127 62.33,-127 62.33,-127 39.67,-127 39.67,-127 34.33,-127 29,-121.67 29,-116.33 29,-116.33 29,-105.67 29,-105.67 29,-100.33 34.33,-95 39.67,-95"/>
</a>
</g>
</g>
<!-- Value&#45;5290151780539952054 -->
<g id="node24" class="node">
<title>Value&#45;5290151780539952054</title>
<g id="a_node24"><a xlink:title="Op&#45;8: Value&#45;5290151780539952054">
<path fill="white" stroke="none" d="M765.67,-253C765.67,-253 788.33,-253 788.33,-253 793.67,-253 799,-258.33 799,-263.67 799,-263.67 799,-274.33 799,-274.33 799,-279.67 793.67,-285 788.33,-285 788.33,-285 765.67,-285 765.67,-285 760.33,-285 755,-279.67 755,-274.33 755,-274.33 755,-263.67 755,-263.67 755,-258.33 760.33,-253 765.67,-253"/>
<text text-anchor="start" x="759.75" y="-263.2" font-family="Helvetica,sans-Serif" font-size="14.00">Value</text>
<path fill="none" stroke="black" d="M765.67,-253C765.67,-253 788.33,-253 788.33,-253 793.67,-253 799,-258.33 799,-263.67 799,-263.67 799,-274.33 799,-274.33 799,-279.67 793.67,-285 788.33,-285 788.33,-285 765.67,-285 765.67,-285 760.33,-285 755,-279.67 755,-274.33 755,-274.33 755,-263.67 755,-263.67 755,-258.33 760.33,-253 765.67,-253"/>
</a>
</g>
</g>
<!-- Value&#45;12066246126677053039 -->
<g id="node25" class="node">
<title>Value&#45;12066246126677053039</title>
<g id="a_node25"><a xlink:title="Op&#45;12: Value&#45;12066246126677053039">
<path fill="white" stroke="none" d="M105.67,-95C105.67,-95 128.33,-95 128.33,-95 133.67,-95 139,-100.33 139,-105.67 139,-105.67 139,-116.33 139,-116.33 139,-121.67 133.67,-127 128.33,-127 128.33,-127 105.67,-127 105.67,-127 100.33,-127 95,-121.67 95,-116.33 95,-116.33 95,-105.67 95,-105.67 95,-100.33 100.33,-95 105.67,-95"/>
<text text-anchor="start" x="99.75" y="-105.2" font-family="Helvetica,sans-Serif" font-size="14.00">Value</text>
<path fill="none" stroke="black" d="M105.67,-95C105.67,-95 128.33,-95 128.33,-95 133.67,-95 139,-100.33 139,-105.67 139,-105.67 139,-116.33 139,-116.33 139,-121.67 133.67,-127 128.33,-127 128.33,-127 105.67,-127 105.67,-127 100.33,-127 95,-121.67 95,-116.33 95,-116.33 95,-105.67 95,-105.67 95,-100.33 100.33,-95 105.67,-95"/>
</a>
</g>
</g>
<!-- func_call&#45;868461099679118244 -->
<g id="node26" class="node">
<title>func_call&#45;868461099679118244</title>
<g id="a_node26"><a xlink:title="Op&#45;15: func_call&#45;868461099679118244">
<path fill="white" stroke="none" d="M771.17,-332C771.17,-332 812.83,-332 812.83,-332 818.17,-332 823.5,-337.33 823.5,-342.67 823.5,-342.67 823.5,-353.33 823.5,-353.33 823.5,-358.67 818.17,-364 812.83,-364 812.83,-364 771.17,-364 771.17,-364 765.83,-364 760.5,-358.67 760.5,-353.33 760.5,-353.33 760.5,-342.67 760.5,-342.67 760.5,-337.33 765.83,-332 771.17,-332"/>
<text text-anchor="start" x="765.38" y="-342.2" font-family="Helvetica,sans-Serif" font-size="14.00">func_call</text>
<path fill="none" stroke="black" d="M771.17,-332C771.17,-332 812.83,-332 812.83,-332 818.17,-332 823.5,-337.33 823.5,-342.67 823.5,-342.67 823.5,-353.33 823.5,-353.33 823.5,-358.67 818.17,-364 812.83,-364 812.83,-364 771.17,-364 771.17,-364 765.83,-364 760.5,-358.67 760.5,-353.33 760.5,-353.33 760.5,-342.67 760.5,-342.67 760.5,-337.33 765.83,-332 771.17,-332"/>
</a>
</g>
</g>
<!-- NamedAttr&#45;4948198068296926101 -->
<g id="node27" class="node">
<title>NamedAttr&#45;4948198068296926101</title>
<g id="a_node27"><a xlink:title="AttrPair&#45;17: NamedAttr&#45;4948198068296926101">
<path fill="white" stroke="none" d="M646.17,-253C646.17,-253 699.83,-253 699.83,-253 705.17,-253 710.5,-258.33 710.5,-263.67 710.5,-263.67 710.5,-274.33 710.5,-274.33 710.5,-279.67 705.17,-285 699.83,-285 699.83,-285 646.17,-285 646.17,-285 640.83,-285 635.5,-279.67 635.5,-274.33 635.5,-274.33 635.5,-263.67 635.5,-263.67 635.5,-258.33 640.83,-253 646.17,-253"/>
<text text-anchor="start" x="640.38" y="-263.2" font-family="Helvetica,sans-Serif" font-size="14.00">NamedAttr</text>
<path fill="none" stroke="black" d="M646.17,-253C646.17,-253 699.83,-253 699.83,-253 705.17,-253 710.5,-258.33 710.5,-263.67 710.5,-263.67 710.5,-274.33 710.5,-274.33 710.5,-279.67 705.17,-285 699.83,-285 699.83,-285 646.17,-285 646.17,-285 640.83,-285 635.5,-279.67 635.5,-274.33 635.5,-274.33 635.5,-263.67 635.5,-263.67 635.5,-258.33 640.83,-253 646.17,-253"/>
</a>
</g>
</g>
<!-- arith_constant&#45;15510901089103236190 -->
<g id="node28" class="node">
<title>arith_constant&#45;15510901089103236190</title>
<g id="a_node28"><a xlink:title="Op&#45;28: arith_constant&#45;15510901089103236190">
<path fill="white" stroke="none" d="M333.67,-411C333.67,-411 406.33,-411 406.33,-411 411.67,-411 417,-416.33 417,-421.67 417,-421.67 417,-432.33 417,-432.33 417,-437.67 411.67,-443 406.33,-443 406.33,-443 333.67,-443 333.67,-443 328.33,-443 323,-437.67 323,-432.33 323,-432.33 323,-421.67 323,-421.67 323,-416.33 328.33,-411 333.67,-411"/>
<text text-anchor="start" x="327.62" y="-421.2" font-family="Helvetica,sans-Serif" font-size="14.00">arith_constant</text>
<path fill="none" stroke="black" d="M333.67,-411C333.67,-411 406.33,-411 406.33,-411 411.67,-411 417,-416.33 417,-421.67 417,-421.67 417,-432.33 417,-432.33 417,-437.67 411.67,-443 406.33,-443 406.33,-443 333.67,-443 333.67,-443 328.33,-443 323,-437.67 323,-432.33 323,-432.33 323,-421.67 323,-421.67 323,-416.33 328.33,-411 333.67,-411"/>
</a>
</g>
</g>
<!-- NamedAttr&#45;17798651638220841180 -->
<g id="node29" class="node">
<title>NamedAttr&#45;17798651638220841180</title>
<g id="a_node29"><a xlink:title="AttrPair&#45;31: NamedAttr&#45;17798651638220841180">
<path fill="white" stroke="none" d="M372.17,-332C372.17,-332 425.83,-332 425.83,-332 431.17,-332 436.5,-337.33 436.5,-342.67 436.5,-342.67 436.5,-353.33 436.5,-353.33 436.5,-358.67 431.17,-364 425.83,-364 425.83,-364 372.17,-364 372.17,-364 366.83,-364 361.5,-358.67 361.5,-353.33 361.5,-353.33 361.5,-342.67 361.5,-342.67 361.5,-337.33 366.83,-332 372.17,-332"/>
<text text-anchor="start" x="366.38" y="-342.2" font-family="Helvetica,sans-Serif" font-size="14.00">NamedAttr</text>
<path fill="none" stroke="black" d="M372.17,-332C372.17,-332 425.83,-332 425.83,-332 431.17,-332 436.5,-337.33 436.5,-342.67 436.5,-342.67 436.5,-353.33 436.5,-353.33 436.5,-358.67 431.17,-364 425.83,-364 425.83,-364 372.17,-364 372.17,-364 366.83,-364 361.5,-358.67 361.5,-353.33 361.5,-353.33 361.5,-342.67 361.5,-342.67 361.5,-337.33 366.83,-332 372.17,-332"/>
</a>
</g>
</g>
<!-- func_call&#45;1476769281115640523 -->
<g id="node30" class="node">
<title>func_call&#45;1476769281115640523</title>
<g id="a_node30"><a xlink:title="Op&#45;4: func_call&#45;1476769281115640523">
<path fill="white" stroke="none" d="M203.17,-332C203.17,-332 244.83,-332 244.83,-332 250.17,-332 255.5,-337.33 255.5,-342.67 255.5,-342.67 255.5,-353.33 255.5,-353.33 255.5,-358.67 250.17,-364 244.83,-364 244.83,-364 203.17,-364 203.17,-364 197.83,-364 192.5,-358.67 192.5,-353.33 192.5,-353.33 192.5,-342.67 192.5,-342.67 192.5,-337.33 197.83,-332 203.17,-332"/>
<text text-anchor="start" x="197.38" y="-342.2" font-family="Helvetica,sans-Serif" font-size="14.00">func_call</text>
<path fill="none" stroke="black" d="M203.17,-332C203.17,-332 244.83,-332 244.83,-332 250.17,-332 255.5,-337.33 255.5,-342.67 255.5,-342.67 255.5,-353.33 255.5,-353.33 255.5,-358.67 250.17,-364 244.83,-364 244.83,-364 203.17,-364 203.17,-364 197.83,-364 192.5,-358.67 192.5,-353.33 192.5,-353.33 192.5,-342.67 192.5,-342.67 192.5,-337.33 197.83,-332 203.17,-332"/>
</a>
</g>
</g>
<!-- Value&#45;11743562013128004906 -->
<g id="node31" class="node">
<title>Value&#45;11743562013128004906</title>
<g id="a_node31"><a xlink:title="Op&#45;0: Value&#45;11743562013128004906">
<path fill="white" stroke="none" d="M197.67,-253C197.67,-253 220.33,-253 220.33,-253 225.67,-253 231,-258.33 231,-263.67 231,-263.67 231,-274.33 231,-274.33 231,-279.67 225.67,-285 220.33,-285 220.33,-285 197.67,-285 197.67,-285 192.33,-285 187,-279.67 187,-274.33 187,-274.33 187,-263.67 187,-263.67 187,-258.33 192.33,-253 197.67,-253"/>
<text text-anchor="start" x="191.75" y="-263.2" font-family="Helvetica,sans-Serif" font-size="14.00">Value</text>
<path fill="none" stroke="black" d="M197.67,-253C197.67,-253 220.33,-253 220.33,-253 225.67,-253 231,-258.33 231,-263.67 231,-263.67 231,-274.33 231,-274.33 231,-279.67 225.67,-285 220.33,-285 220.33,-285 197.67,-285 197.67,-285 192.33,-285 187,-279.67 187,-274.33 187,-274.33 187,-263.67 187,-263.67 187,-258.33 192.33,-253 197.67,-253"/>
</a>
</g>
</g>
<!-- NamedAttr&#45;5831572750755663012 -->
<g id="node32" class="node">
<title>NamedAttr&#45;5831572750755663012</title>
<g id="a_node32"><a xlink:title="AttrPair&#45;6: NamedAttr&#45;5831572750755663012">
<path fill="white" stroke="none" d="M265.17,-253C265.17,-253 318.83,-253 318.83,-253 324.17,-253 329.5,-258.33 329.5,-263.67 329.5,-263.67 329.5,-274.33 329.5,-274.33 329.5,-279.67 324.17,-285 318.83,-285 318.83,-285 265.17,-285 265.17,-285 259.83,-285 254.5,-279.67 254.5,-274.33 254.5,-274.33 254.5,-263.67 254.5,-263.67 254.5,-258.33 259.83,-253 265.17,-253"/>
<text text-anchor="start" x="259.38" y="-263.2" font-family="Helvetica,sans-Serif" font-size="14.00">NamedAttr</text>
<path fill="none" stroke="black" d="M265.17,-253C265.17,-253 318.83,-253 318.83,-253 324.17,-253 329.5,-258.33 329.5,-263.67 329.5,-263.67 329.5,-274.33 329.5,-274.33 329.5,-279.67 324.17,-285 318.83,-285 318.83,-285 265.17,-285 265.17,-285 259.83,-285 254.5,-279.67 254.5,-274.33 254.5,-274.33 254.5,-263.67 254.5,-263.67 254.5,-258.33 259.83,-253 265.17,-253"/>
</a>
</g>
</g>
<!-- Value&#45;2526907191799847605 -->
<g id="node33" class="node">
<title>Value&#45;2526907191799847605</title>
<g id="a_node33"><a xlink:title="Op&#45;33: Value&#45;2526907191799847605">
<path fill="white" stroke="none" d="M896.67,-411C896.67,-411 919.33,-411 919.33,-411 924.67,-411 930,-416.33 930,-421.67 930,-421.67 930,-432.33 930,-432.33 930,-437.67 924.67,-443 919.33,-443 919.33,-443 896.67,-443 896.67,-443 891.33,-443 886,-437.67 886,-432.33 886,-432.33 886,-421.67 886,-421.67 886,-416.33 891.33,-411 896.67,-411"/>
<text text-anchor="start" x="890.75" y="-421.2" font-family="Helvetica,sans-Serif" font-size="14.00">Value</text>
<path fill="none" stroke="black" d="M896.67,-411C896.67,-411 919.33,-411 919.33,-411 924.67,-411 930,-416.33 930,-421.67 930,-421.67 930,-432.33 930,-432.33 930,-437.67 924.67,-443 919.33,-443 919.33,-443 896.67,-443 896.67,-443 891.33,-443 886,-437.67 886,-432.33 886,-432.33 886,-421.67 886,-421.67 886,-416.33 891.33,-411 896.67,-411"/>
</a>
</g>
</g>
<!-- Value&#45;5758660465200108737 -->
<g id="node34" class="node">
<title>Value&#45;5758660465200108737</title>
<g id="a_node34"><a xlink:title="Op&#45;25: Value&#45;5758660465200108737">
<path fill="white" stroke="none" d="M990.67,-411C990.67,-411 1013.33,-411 1013.33,-411 1018.67,-411 1024,-416.33 1024,-421.67 1024,-421.67 1024,-432.33 1024,-432.33 1024,-437.67 1018.67,-443 1013.33,-443 1013.33,-443 990.67,-443 990.67,-443 985.33,-443 980,-437.67 980,-432.33 980,-432.33 980,-421.67 980,-421.67 980,-416.33 985.33,-411 990.67,-411"/>
<text text-anchor="start" x="984.75" y="-421.2" font-family="Helvetica,sans-Serif" font-size="14.00">Value</text>
<path fill="none" stroke="black" d="M990.67,-411C990.67,-411 1013.33,-411 1013.33,-411 1018.67,-411 1024,-416.33 1024,-421.67 1024,-421.67 1024,-432.33 1024,-432.33 1024,-437.67 1018.67,-443 1013.33,-443 1013.33,-443 990.67,-443 990.67,-443 985.33,-443 980,-437.67 980,-432.33 980,-432.33 980,-421.67 980,-421.67 980,-416.33 985.33,-411 990.67,-411"/>
</a>
</g>
</g>
<!-- func_call&#45;15784220428753006575 -->
<g id="node35" class="node">
<title>func_call&#45;15784220428753006575</title>
<g id="a_node35"><a xlink:title="Op&#45;21: func_call&#45;15784220428753006575">
<path fill="white" stroke="none" d="M786.17,-411C786.17,-411 827.83,-411 827.83,-411 833.17,-411 838.5,-416.33 838.5,-421.67 838.5,-421.67 838.5,-432.33 838.5,-432.33 838.5,-437.67 833.17,-443 827.83,-443 827.83,-443 786.17,-443 786.17,-443 780.83,-443 775.5,-437.67 775.5,-432.33 775.5,-432.33 775.5,-421.67 775.5,-421.67 775.5,-416.33 780.83,-411 786.17,-411"/>
<text text-anchor="start" x="780.38" y="-421.2" font-family="Helvetica,sans-Serif" font-size="14.00">func_call</text>
<path fill="none" stroke="black" d="M786.17,-411C786.17,-411 827.83,-411 827.83,-411 833.17,-411 838.5,-416.33 838.5,-421.67 838.5,-421.67 838.5,-432.33 838.5,-432.33 838.5,-437.67 833.17,-443 827.83,-443 827.83,-443 786.17,-443 786.17,-443 780.83,-443 775.5,-437.67 775.5,-432.33 775.5,-432.33 775.5,-421.67 775.5,-421.67 775.5,-416.33 780.83,-411 786.17,-411"/>
</a>
</g>
</g>
<!-- NamedAttr&#45;3285395960261837587 -->
<g id="node36" class="node">
<title>NamedAttr&#45;3285395960261837587</title>
<g id="a_node36"><a xlink:title="AttrPair&#45;23: NamedAttr&#45;3285395960261837587">
<path fill="white" stroke="none" d="M558.17,-253C558.17,-253 611.83,-253 611.83,-253 617.17,-253 622.5,-258.33 622.5,-263.67 622.5,-263.67 622.5,-274.33 622.5,-274.33 622.5,-279.67 617.17,-285 611.83,-285 611.83,-285 558.17,-285 558.17,-285 552.83,-285 547.5,-279.67 547.5,-274.33 547.5,-274.33 547.5,-263.67 547.5,-263.67 547.5,-258.33 552.83,-253 558.17,-253"/>
<text text-anchor="start" x="552.38" y="-263.2" font-family="Helvetica,sans-Serif" font-size="14.00">NamedAttr</text>
<path fill="none" stroke="black" d="M558.17,-253C558.17,-253 611.83,-253 611.83,-253 617.17,-253 622.5,-258.33 622.5,-263.67 622.5,-263.67 622.5,-274.33 622.5,-274.33 622.5,-279.67 617.17,-285 611.83,-285 611.83,-285 558.17,-285 558.17,-285 552.83,-285 547.5,-279.67 547.5,-274.33 547.5,-274.33 547.5,-263.67 547.5,-263.67 547.5,-258.33 552.83,-253 558.17,-253"/>
</a>
</g>
</g>
<!-- String&#45;8 -->
<g id="node37" class="node">
<title>String&#45;8</title>
<g id="a_node37"><a xlink:title="String&#45;8: String&#45;8">
<path fill="white" stroke="none" d="M567.79,-174C567.79,-174 602.21,-174 602.21,-174 607.54,-174 612.88,-179.33 612.88,-184.67 612.88,-184.67 612.88,-195.33 612.88,-195.33 612.88,-200.67 607.54,-206 602.21,-206 602.21,-206 567.79,-206 567.79,-206 562.46,-206 557.12,-200.67 557.12,-195.33 557.12,-195.33 557.12,-184.67 557.12,-184.67 557.12,-179.33 562.46,-174 567.79,-174"/>
<text text-anchor="start" x="562.12" y="-184.2" font-family="Helvetica,sans-Serif" font-size="14.00">&quot;callee&quot;</text>
<path fill="none" stroke="black" d="M567.79,-174C567.79,-174 602.21,-174 602.21,-174 607.54,-174 612.88,-179.33 612.88,-184.67 612.88,-184.67 612.88,-195.33 612.88,-195.33 612.88,-200.67 607.54,-206 602.21,-206 602.21,-206 567.79,-206 567.79,-206 562.46,-206 557.12,-200.67 557.12,-195.33 557.12,-195.33 557.12,-184.67 557.12,-184.67 557.12,-179.33 562.46,-174 567.79,-174"/>
</a>
</g>
</g>
<!-- String&#45;3221225479 -->
<g id="node38" class="node">
<title>String&#45;3221225479</title>
<g id="a_node38"><a xlink:title="String&#45;3221225479: String&#45;3221225479">
<path fill="white" stroke="none" d="M365.29,-253C365.29,-253 396.71,-253 396.71,-253 402.04,-253 407.38,-258.33 407.38,-263.67 407.38,-263.67 407.38,-274.33 407.38,-274.33 407.38,-279.67 402.04,-285 396.71,-285 396.71,-285 365.29,-285 365.29,-285 359.96,-285 354.62,-279.67 354.62,-274.33 354.62,-274.33 354.62,-263.67 354.62,-263.67 354.62,-258.33 359.96,-253 365.29,-253"/>
<text text-anchor="start" x="359.62" y="-263.2" font-family="Helvetica,sans-Serif" font-size="14.00">&quot;value&quot;</text>
<path fill="none" stroke="black" d="M365.29,-253C365.29,-253 396.71,-253 396.71,-253 402.04,-253 407.38,-258.33 407.38,-263.67 407.38,-263.67 407.38,-274.33 407.38,-274.33 407.38,-279.67 402.04,-285 396.71,-285 396.71,-285 365.29,-285 365.29,-285 359.96,-285 354.62,-279.67 354.62,-274.33 354.62,-274.33 354.62,-263.67 354.62,-263.67 354.62,-258.33 359.96,-253 365.29,-253"/>
</a>
</g>
</g>
</g>
</svg>
