<?xml version="1.0" encoding="UTF-8" standalone="no"?>
<!DOCTYPE svg PUBLIC "-//W3C//DTD SVG 1.1//EN"
 "http://www.w3.org/Graphics/SVG/1.1/DTD/svg11.dtd">
<!-- Generated by graphviz version 12.0.0 (20240704.0754)
 -->
<!-- Pages: 1 -->
<svg width="701pt" height="388pt"
 viewBox="0.00 0.00 701.00 388.00" xmlns="http://www.w3.org/2000/svg" xmlns:xlink="http://www.w3.org/1999/xlink">
<g id="graph0" class="graph" transform="scale(1 1) rotate(0) translate(4 384)">
<polygon fill="white" stroke="none" points="-4,4 -4,-384 697,-384 697,4 -4,4"/>
<g id="clust1" class="cluster">
<title>outer_cluster_5</title>
</g>
<g id="clust2" class="cluster">
<title>cluster_5</title>
<path fill="#ffffb3" stroke="black" stroke-dasharray="5,2" d="M34,-90C34,-90 78,-90 78,-90 84,-90 90,-96 90,-102 90,-102 90,-120 90,-120 90,-126 84,-132 78,-132 78,-132 34,-132 34,-132 28,-132 22,-126 22,-120 22,-120 22,-102 22,-102 22,-96 28,-90 34,-90"/>
</g>
<g id="clust4" class="cluster">
<title>outer_cluster_8</title>
</g>
<g id="clust5" class="cluster">
<title>cluster_8</title>
<path fill="#ffffb3" stroke="black" stroke-dasharray="5,2" d="M378,-90C378,-90 426,-90 426,-90 432,-90 438,-96 438,-102 438,-102 438,-120 438,-120 438,-126 432,-132 426,-132 426,-132 378,-132 378,-132 372,-132 366,-126 366,-120 366,-120 366,-102 366,-102 366,-96 372,-90 378,-90"/>
</g>
<g id="clust7" class="cluster">
<title>outer_cluster_1</title>
</g>
<g id="clust8" class="cluster">
<title>cluster_1</title>
<path fill="#ffffb3" stroke="black" stroke-dasharray="5,2" d="M278,-90C278,-90 322,-90 322,-90 328,-90 334,-96 334,-102 334,-102 334,-120 334,-120 334,-126 328,-132 322,-132 322,-132 278,-132 278,-132 272,-132 266,-126 266,-120 266,-120 266,-102 266,-102 266,-96 272,-90 278,-90"/>
</g>
<g id="clust10" class="cluster">
<title>outer_cluster_19</title>
</g>
<g id="clust11" class="cluster">
<title>cluster_19</title>
<path fill="#ffffb3" stroke="black" stroke-dasharray="5,2" d="M584,-248C584,-248 628,-248 628,-248 634,-248 640,-254 640,-260 640,-260 640,-278 640,-278 640,-284 634,-290 628,-290 628,-290 584,-290 584,-290 578,-290 572,-284 572,-278 572,-278 572,-260 572,-260 572,-254 578,-248 584,-248"/>
</g>
<g id="clust13" class="cluster">
<title>outer_cluster_23</title>
</g>
<g id="clust14" class="cluster">
<title>cluster_23</title>
<path fill="#ffffb3" stroke="black" stroke-dasharray="5,2" d="M465,-248C465,-248 509,-248 509,-248 515,-248 521,-254 521,-260 521,-260 521,-278 521,-278 521,-284 515,-290 509,-290 509,-290 465,-290 465,-290 459,-290 453,-284 453,-278 453,-278 453,-260 453,-260 453,-254 459,-248 465,-248"/>
</g>
<g id="clust16" class="cluster">
<title>outer_cluster_String&#45;2967721047917887228</title>
</g>
<g id="clust17" class="cluster">
<title>cluster_String&#45;2967721047917887228</title>
<path fill="#bebada" stroke="black" stroke-dasharray="5,2" d="M333,-11C333,-11 473,-11 473,-11 479,-11 485,-17 485,-23 485,-23 485,-41 485,-41 485,-47 479,-53 473,-53 473,-53 333,-53 333,-53 327,-53 321,-47 321,-41 321,-41 321,-23 321,-23 321,-17 327,-11 333,-11"/>
</g>
<g id="clust19" class="cluster">
<title>outer_cluster_String&#45;18036887277116069162</title>
</g>
<g id="clust20" class="cluster">
<title>cluster_String&#45;18036887277116069162</title>
<path fill="#bebada" stroke="black" stroke-dasharray="5,2" d="M201,-11C201,-11 237,-11 237,-11 243,-11 249,-17 249,-23 249,-23 249,-41 249,-41 249,-47 243,-53 237,-53 237,-53 201,-53 201,-53 195,-53 189,-47 189,-41 189,-41 189,-23 189,-23 189,-17 195,-11 201,-11"/>
</g>
<g id="clust22" class="cluster">
<title>outer_cluster_String&#45;1026043993503992209</title>
</g>
<g id="clust23" class="cluster">
<title>cluster_String&#45;1026043993503992209</title>
<path fill="#bebada" stroke="black" stroke-dasharray="5,2" d="M634,-169C634,-169 670,-169 670,-169 676,-169 682,-175 682,-181 682,-181 682,-199 682,-199 682,-205 676,-211 670,-211 670,-211 634,-211 634,-211 628,-211 622,-205 622,-199 622,-199 622,-181 622,-181 622,-175 628,-169 634,-169"/>
</g>
<g id="clust25" class="cluster">
<title>outer_cluster_7</title>
</g>
<g id="clust26" class="cluster">
<title>cluster_7</title>
<path fill="#fb8072" stroke="black" stroke-dasharray="5,2" d="M150,-169C150,-169 198,-169 198,-169 204,-169 210,-175 210,-181 210,-181 210,-199 210,-199 210,-205 204,-211 198,-211 198,-211 150,-211 150,-211 144,-211 138,-205 138,-199 138,-199 138,-181 138,-181 138,-175 144,-169 150,-169"/>
</g>
<g id="clust28" class="cluster">
<title>outer_cluster_3</title>
</g>
<g id="clust29" class="cluster">
<title>cluster_3</title>
<path fill="#fb8072" stroke="black" stroke-dasharray="5,2" d="M228,-169C228,-169 304,-169 304,-169 310,-169 316,-175 316,-181 316,-181 316,-199 316,-199 316,-205 310,-211 304,-211 304,-211 228,-211 228,-211 222,-211 216,-205 216,-199 216,-199 216,-181 216,-181 216,-175 222,-169 228,-169"/>
</g>
<g id="clust31" class="cluster">
<title>outer_cluster_16</title>
</g>
<g id="clust32" class="cluster">
<title>cluster_16</title>
<path fill="#fb8072" stroke="black" stroke-dasharray="5,2" d="M168,-327C168,-327 318,-327 318,-327 324,-327 330,-333 330,-339 330,-339 330,-357 330,-357 330,-363 324,-369 318,-369 318,-369 168,-369 168,-369 162,-369 156,-363 156,-357 156,-357 156,-339 156,-339 156,-333 162,-327 168,-327"/>
</g>
<g id="clust34" class="cluster">
<title>outer_cluster_10</title>
</g>
<g id="clust35" class="cluster">
<title>cluster_10</title>
<path fill="#fb8072" stroke="black" stroke-dasharray="5,2" d="M366,-169C366,-169 418,-169 418,-169 424,-169 430,-175 430,-181 430,-181 430,-199 430,-199 430,-205 424,-211 418,-211 418,-211 366,-211 366,-211 360,-211 354,-205 354,-199 354,-199 354,-181 354,-181 354,-175 360,-169 366,-169"/>
</g>
<g id="clust37" class="cluster">
<title>outer_cluster_18</title>
</g>
<g id="clust38" class="cluster">
<title>cluster_18</title>
<path fill="#fb8072" stroke="black" stroke-dasharray="5,2" d="M591,-327C591,-327 667,-327 667,-327 673,-327 679,-333 679,-339 679,-339 679,-357 679,-357 679,-363 673,-369 667,-369 667,-369 591,-369 591,-369 585,-369 579,-363 579,-357 579,-357 579,-339 579,-339 579,-333 585,-327 591,-327"/>
</g>
<g id="clust40" class="cluster">
<title>outer_cluster_4</title>
</g>
<g id="clust41" class="cluster">
<title>cluster_4</title>
<path fill="#fb8072" stroke="black" stroke-dasharray="5,2" d="M160,-90C160,-90 236,-90 236,-90 242,-90 248,-96 248,-102 248,-102 248,-120 248,-120 248,-126 242,-132 236,-132 236,-132 160,-132 160,-132 154,-132 148,-126 148,-120 148,-120 148,-102 148,-102 148,-96 154,-90 160,-90"/>
</g>
<g id="clust43" class="cluster">
<title>outer_cluster_12</title>
</g>
<g id="clust44" class="cluster">
<title>cluster_12</title>
<path fill="#fb8072" stroke="black" stroke-dasharray="5,2" d="M141,-248C141,-248 273,-248 273,-248 279,-248 285,-254 285,-260 285,-260 285,-278 285,-278 285,-284 279,-290 273,-290 273,-290 141,-290 141,-290 135,-290 129,-284 129,-278 129,-278 129,-260 129,-260 129,-254 135,-248 141,-248"/>
</g>
<g id="clust46" class="cluster">
<title>outer_cluster_14</title>
</g>
<g id="clust47" class="cluster">
<title>cluster_14</title>
<path fill="#fb8072" stroke="black" stroke-dasharray="5,2" d="M303,-248C303,-248 435,-248 435,-248 441,-248 447,-254 447,-260 447,-260 447,-278 447,-278 447,-284 441,-290 435,-290 435,-290 303,-290 303,-290 297,-290 291,-284 291,-278 291,-278 291,-260 291,-260 291,-254 297,-248 303,-248"/>
</g>
<g id="clust49" class="cluster">
<title>outer_cluster_f64&#45;10858178701590265856</title>
</g>
<g id="clust50" class="cluster">
<title>cluster_f64&#45;10858178701590265856</title>
<path fill="#80b1d3" stroke="black" stroke-dasharray="5,2" d="M490,-169C490,-169 526,-169 526,-169 532,-169 538,-175 538,-181 538,-181 538,-199 538,-199 538,-205 532,-211 526,-211 526,-211 490,-211 490,-211 484,-211 478,-205 478,-199 478,-199 478,-181 478,-181 478,-175 484,-169 490,-169"/>
</g>
<g id="clust52" class="cluster">
<title>outer_cluster_f64&#45;10711811713700724736</title>
</g>
<g id="clust53" class="cluster">
<title>cluster_f64&#45;10711811713700724736</title>
<path fill="#80b1d3" stroke="black" stroke-dasharray="5,2" d="M23,-11C23,-11 59,-11 59,-11 65,-11 71,-17 71,-23 71,-23 71,-41 71,-41 71,-47 65,-53 59,-53 59,-53 23,-53 23,-53 17,-53 11,-47 11,-41 11,-41 11,-23 11,-23 11,-17 17,-11 23,-11"/>
</g>
<g id="clust55" class="cluster">
<title>outer_cluster_f64&#45;4611686018427387904</title>
</g>
<g id="clust56" class="cluster">
<title>cluster_f64&#45;4611686018427387904</title>
<path fill="#80b1d3" stroke="black" stroke-dasharray="5,2" d="M267,-11C267,-11 303,-11 303,-11 309,-11 315,-17 315,-23 315,-23 315,-41 315,-41 315,-47 309,-53 303,-53 303,-53 267,-53 267,-53 261,-53 255,-47 255,-41 255,-41 255,-23 255,-23 255,-17 261,-11 267,-11"/>
</g>
<g id="clust58" class="cluster">
<title>outer_cluster_f64&#45;0</title>
</g>
<g id="clust59" class="cluster">
<title>cluster_f64&#45;0</title>
<path fill="#80b1d3" stroke="black" stroke-dasharray="5,2" d="M568,-169C568,-169 604,-169 604,-169 610,-169 616,-175 616,-181 616,-181 616,-199 616,-199 616,-205 610,-211 604,-211 604,-211 568,-211 568,-211 562,-211 556,-205 556,-199 556,-199 556,-181 556,-181 556,-175 562,-169 568,-169"/>
</g>
<!-- FloatAttr&#45;2892011823771461968&#45;&gt;f64&#45;10711811713700724736 -->
<g id="edge1" class="edge">
<title>FloatAttr&#45;2892011823771461968:s&#45;&gt;f64&#45;10711811713700724736</title>
<path fill="none" stroke="black" d="M41,-95C41,-82.22 41,-67.96 41,-56.35"/>
<polygon fill="black" stroke="black" points="42.75,-59.51 41,-54.51 39.25,-59.51 42.75,-59.51"/>
</g>
<!-- FloatAttr&#45;2892011823771461968&#45;&gt;String&#45;18036887277116069162 -->
<g id="edge2" class="edge">
<title>FloatAttr&#45;2892011823771461968:s&#45;&gt;String&#45;18036887277116069162</title>
<path fill="none" stroke="black" d="M70.5,-95C70.5,-45.34 142.1,-34.75 185.86,-32.92"/>
<polygon fill="black" stroke="black" points="182.62,-34.89 187.49,-32.81 182.38,-31.4 182.62,-34.89"/>
</g>
<!-- OtherAttr&#45;2967721047917887228&#45;&gt;String&#45;2967721047917887228 -->
<g id="edge3" class="edge">
<title>OtherAttr&#45;2967721047917887228:s&#45;&gt;String&#45;2967721047917887228</title>
<path fill="none" stroke="black" d="M402,-95C402,-82.22 402.22,-67.96 402.45,-56.34"/>
<polygon fill="black" stroke="black" points="404.07,-59.58 402.52,-54.51 400.57,-59.44 404.07,-59.58"/>
</g>
<!-- FloatAttr&#45;9670903108499433938&#45;&gt;String&#45;18036887277116069162 -->
<g id="edge5" class="edge">
<title>FloatAttr&#45;9670903108499433938:s&#45;&gt;String&#45;18036887277116069162</title>
<path fill="none" stroke="black" d="M314.5,-95C314.5,-63.01 280.81,-73.45 254,-56 252.67,-55.13 251.31,-54.25 249.93,-53.35"/>
<polygon fill="black" stroke="black" points="253.94,-56.45 249.8,-53.14 250.97,-58.31 253.94,-56.45"/>
</g>
<!-- FloatAttr&#45;9670903108499433938&#45;&gt;f64&#45;4611686018427387904 -->
<g id="edge4" class="edge">
<title>FloatAttr&#45;9670903108499433938:s&#45;&gt;f64&#45;4611686018427387904</title>
<path fill="none" stroke="black" d="M285,-95C285,-82.22 285,-67.96 285,-56.35"/>
<polygon fill="black" stroke="black" points="286.75,-59.51 285,-54.51 283.25,-59.51 286.75,-59.51"/>
</g>
<!-- FloatAttr&#45;1026043993503992209&#45;&gt;f64&#45;0 -->
<g id="edge6" class="edge">
<title>FloatAttr&#45;1026043993503992209:s&#45;&gt;f64&#45;0</title>
<path fill="none" stroke="black" d="M591,-253C591,-240.06 589.9,-225.65 588.74,-213.99"/>
<polygon fill="black" stroke="black" points="591.18,-216.99 588.41,-212.48 587.76,-217.74 591.18,-216.99"/>
</g>
<!-- FloatAttr&#45;1026043993503992209&#45;&gt;String&#45;1026043993503992209 -->
<g id="edge7" class="edge">
<title>FloatAttr&#45;1026043993503992209:s&#45;&gt;String&#45;1026043993503992209</title>
<path fill="none" stroke="black" d="M620.5,-253C620.5,-238.68 627.26,-224.32 634.52,-213.04"/>
<polygon fill="black" stroke="black" points="633.49,-217.22 635.17,-212.2 630.72,-215.08 633.49,-217.22"/>
</g>
<!-- FloatAttr&#45;18240279353850112336&#45;&gt;String&#45;18036887277116069162 -->
<g id="edge9" class="edge">
<title>FloatAttr&#45;18240279353850112336:s&#45;&gt;String&#45;18036887277116069162</title>
<path fill="none" stroke="black" d="M501.5,-253C501.5,-232.53 484.48,-233.06 477,-214 456.02,-160.52 494.27,-126.96 453,-87 388.69,-24.73 337.52,-88.2 254,-56 253.72,-55.89 253.44,-55.78 253.16,-55.67"/>
<polygon fill="black" stroke="black" points="253.98,-54.12 248.7,-53.63 252.52,-57.3 253.98,-54.12"/>
</g>
<!-- FloatAttr&#45;18240279353850112336&#45;&gt;f64&#45;10858178701590265856 -->
<g id="edge8" class="edge">
<title>FloatAttr&#45;18240279353850112336:s&#45;&gt;f64&#45;10858178701590265856</title>
<path fill="none" stroke="black" d="M472,-253C472,-238.32 479.64,-224.01 487.88,-212.84"/>
<polygon fill="black" stroke="black" points="486.37,-216.88 488.63,-212.08 483.88,-214.43 486.37,-216.88"/>
</g>
<!-- math_sin&#45;2532876268688726417&#45;&gt;String&#45;18036887277116069162 -->
<g id="edge12" class="edge">
<title>math_sin&#45;2532876268688726417:s&#45;&gt;String&#45;18036887277116069162</title>
<path fill="none" stroke="black" d="M197.5,-174C197.5,-145.64 159.5,-160.45 147,-135 137.59,-115.85 137.46,-106.08 147,-87 155.4,-70.2 171.79,-57.27 186.82,-48.28"/>
<polygon fill="black" stroke="black" points="185.56,-51.95 187.92,-47.2 183.12,-49.44 185.56,-51.95"/>
</g>
<!-- math_sin&#45;2532876268688726417&#45;&gt;OtherAttr&#45;2967721047917887228 -->
<g id="edge11" class="edge">
<title>math_sin&#45;2532876268688726417:s&#45;&gt;OtherAttr&#45;2967721047917887228</title>
<path fill="none" stroke="black" d="M181.5,-174C181.5,-103.61 267.54,-155.11 335,-135 344.28,-132.23 354.19,-128.99 363.47,-125.83"/>
<polygon fill="black" stroke="black" points="360.67,-128.9 364.6,-125.35 359.32,-125.67 360.67,-128.9"/>
</g>
<!-- math_sin&#45;2532876268688726417&#45;&gt;arith_constant&#45;1761740163712376048 -->
<g id="edge10" class="edge">
<title>math_sin&#45;2532876268688726417:s&#45;&gt;arith_constant&#45;1761740163712376048</title>
<path fill="none" stroke="black" d="M158,-174C158,-159 166.37,-144.76 175.44,-133.71"/>
<polygon fill="black" stroke="black" points="173.58,-137.39 176.45,-132.93 171.43,-134.62 173.58,-137.39"/>
</g>
<!-- arith_constant&#45;1761740163712376048&#45;&gt;FloatAttr&#45;2892011823771461968 -->
<g id="edge26" class="edge">
<title>arith_constant&#45;1761740163712376048:s&#45;&gt;FloatAttr&#45;2892011823771461968</title>
<path fill="none" stroke="black" d="M175,-95C175,-61.29 127.12,-77.02 92.36,-92.88"/>
<polygon fill="black" stroke="black" points="94.2,-89.34 91.22,-93.72 96.28,-92.16 94.2,-89.34"/>
</g>
<!-- arith_constant&#45;1761740163712376048&#45;&gt;String&#45;18036887277116069162 -->
<g id="edge27" class="edge">
<title>arith_constant&#45;1761740163712376048:s&#45;&gt;String&#45;18036887277116069162</title>
<path fill="none" stroke="black" d="M221,-95C221,-82.22 220.57,-67.96 220.11,-56.34"/>
<polygon fill="black" stroke="black" points="222.11,-59.35 219.96,-54.51 218.62,-59.63 222.11,-59.35"/>
</g>
<!-- arith_constant&#45;17859523323072850888&#45;&gt;String&#45;18036887277116069162 -->
<g id="edge14" class="edge">
<title>arith_constant&#45;17859523323072850888:s&#45;&gt;String&#45;18036887277116069162</title>
<path fill="none" stroke="black" d="M289,-174C289,-153.65 273.61,-153.44 265,-135 255.49,-114.62 258.05,-107.58 249,-87 244.23,-76.17 238,-64.64 232.46,-55.03"/>
<polygon fill="black" stroke="black" points="236.24,-56.17 231.39,-54.03 233.85,-58.73 236.24,-56.17"/>
</g>
<!-- arith_constant&#45;17859523323072850888&#45;&gt;FloatAttr&#45;9670903108499433938 -->
<g id="edge13" class="edge">
<title>arith_constant&#45;17859523323072850888:s&#45;&gt;FloatAttr&#45;9670903108499433938</title>
<path fill="none" stroke="black" d="M243,-174C243,-157.48 254.11,-143.46 266.51,-132.96"/>
<polygon fill="black" stroke="black" points="263.39,-136.41 267.14,-132.66 261.87,-133.25 263.39,-136.41"/>
</g>
<!-- arith_constant&#45;16024627230776830088&#45;&gt;String&#45;18036887277116069162 -->
<g id="edge16" class="edge">
<title>arith_constant&#45;16024627230776830088:s&#45;&gt;String&#45;18036887277116069162</title>
<path fill="none" stroke="black" d="M229,-332C229,-274.65 139.87,-339.28 106,-293 78.96,-256.06 81.59,-125.72 106,-87 123.39,-59.41 159.19,-45.62 185.86,-38.92"/>
<polygon fill="black" stroke="black" points="183.85,-41.8 187.63,-38.09 182.36,-38.63 183.85,-41.8"/>
</g>
<!-- arith_constant&#45;16024627230776830088&#45;&gt;FloatAttr&#45;18240279353850112336 -->
<g id="edge15" class="edge">
<title>arith_constant&#45;16024627230776830088:s&#45;&gt;FloatAttr&#45;18240279353850112336</title>
<path fill="none" stroke="black" d="M183,-332C183,-272.48 391.87,-312.82 448,-293 448.46,-292.84 448.91,-292.67 449.37,-292.5"/>
<polygon fill="black" stroke="black" points="450,-294.14 453.93,-290.58 448.64,-290.91 450,-294.14"/>
</g>
<!-- arith_addf&#45;9452182239465436887&#45;&gt;String&#45;18036887277116069162 -->
<g id="edge20" class="edge">
<title>arith_addf&#45;9452182239465436887:s&#45;&gt;String&#45;18036887277116069162</title>
<path fill="none" stroke="black" d="M321.5,-332C321.5,-244.27 187.73,-357.26 128,-293 103.57,-266.72 111.61,-97.66 118,-87 132.64,-62.58 162.5,-48.58 185.98,-40.99"/>
<polygon fill="black" stroke="black" points="184.4,-44.04 187.72,-39.9 182.55,-41.07 184.4,-44.04"/>
</g>
<!-- arith_addf&#45;9452182239465436887&#45;&gt;OtherAttr&#45;2967721047917887228 -->
<g id="edge19" class="edge">
<title>arith_addf&#45;9452182239465436887:s&#45;&gt;OtherAttr&#45;2967721047917887228</title>
<path fill="none" stroke="black" d="M313,-332C313,-237.51 454.27,-358.89 522,-293 542.41,-273.14 555.02,-189.54 539,-166 517.22,-134 473.28,-120.96 441.01,-115.65"/>
<polygon fill="black" stroke="black" points="444.74,-115.01 439.44,-115.15 443.67,-118.34 444.74,-115.01"/>
</g>
<!-- arith_addf&#45;9452182239465436887&#45;&gt;math_powf&#45;6183019051267724250 -->
<g id="edge17" class="edge">
<title>arith_addf&#45;9452182239465436887:s&#45;&gt;math_powf&#45;6183019051267724250</title>
<path fill="none" stroke="black" d="M275,-332C275,-317.73 268.35,-303.37 261.21,-292.08"/>
<polygon fill="black" stroke="black" points="264.94,-294.22 260.58,-291.22 262.12,-296.29 264.94,-294.22"/>
</g>
<!-- arith_addf&#45;9452182239465436887&#45;&gt;math_powf&#45;17465238332222626755 -->
<g id="edge18" class="edge">
<title>arith_addf&#45;9452182239465436887:s&#45;&gt;math_powf&#45;17465238332222626755</title>
<path fill="none" stroke="black" d="M300.5,-332C300.5,-317.68 307.26,-303.32 314.52,-292.04"/>
<polygon fill="black" stroke="black" points="313.49,-296.22 315.17,-291.2 310.72,-294.08 313.49,-296.22"/>
</g>
<!-- math_powf&#45;6183019051267724250&#45;&gt;String&#45;18036887277116069162 -->
<g id="edge31" class="edge">
<title>math_powf&#45;6183019051267724250:s&#45;&gt;String&#45;18036887277116069162</title>
<path fill="none" stroke="black" d="M276,-253C276,-188.84 175.76,-265.13 137,-214 129.42,-204 127.13,-107.01 138,-87 148.37,-67.92 168.73,-54.39 186.44,-45.65"/>
<polygon fill="black" stroke="black" points="184.66,-49.02 187.76,-44.73 182.66,-46.15 184.66,-49.02"/>
</g>
<!-- math_powf&#45;6183019051267724250&#45;&gt;OtherAttr&#45;2967721047917887228 -->
<g id="edge30" class="edge">
<title>math_powf&#45;6183019051267724250:s&#45;&gt;OtherAttr&#45;2967721047917887228</title>
<path fill="none" stroke="black" d="M266.5,-253C266.5,-220.63 306.11,-237.84 328,-214 344.27,-196.28 339.25,-185.74 353,-166 361.08,-154.4 371.45,-142.64 380.56,-133.07"/>
<polygon fill="black" stroke="black" points="377.87,-137.4 380.72,-132.94 375.71,-134.65 377.87,-137.4"/>
</g>
<!-- math_powf&#45;6183019051267724250&#45;&gt;math_sin&#45;2532876268688726417 -->
<g id="edge28" class="edge">
<title>math_powf&#45;6183019051267724250:s&#45;&gt;math_sin&#45;2532876268688726417</title>
<path fill="none" stroke="black" d="M225.5,-253C225.5,-236.82 214.99,-222.6 203.47,-211.88"/>
<polygon fill="black" stroke="black" points="208.4,-212.57 203.17,-211.72 206.73,-215.65 208.4,-212.57"/>
</g>
<!-- math_powf&#45;6183019051267724250&#45;&gt;arith_constant&#45;17859523323072850888 -->
<g id="edge29" class="edge">
<title>math_powf&#45;6183019051267724250:s&#45;&gt;arith_constant&#45;17859523323072850888</title>
<path fill="none" stroke="black" d="M253,-253C253,-239.92 255.81,-225.6 258.81,-214.03"/>
<polygon fill="black" stroke="black" points="258.87,-217.55 259.75,-212.32 255.8,-215.85 258.87,-217.55"/>
</g>
<!-- math_powf&#45;17465238332222626755&#45;&gt;String&#45;18036887277116069162 -->
<g id="edge39" class="edge">
<title>math_powf&#45;17465238332222626755:s&#45;&gt;String&#45;18036887277116069162</title>
<path fill="none" stroke="black" d="M364,-253C364,-234.99 356.72,-231.62 353,-214 347.12,-186.11 352.77,-109.29 335,-87 310.97,-56.86 288.31,-73.58 254,-56 252.19,-55.07 250.35,-54.07 248.52,-53.03"/>
<polygon fill="black" stroke="black" points="254.68,-51.63 249.58,-53.09 254.48,-55.12 254.68,-51.63"/>
</g>
<!-- math_powf&#45;17465238332222626755&#45;&gt;OtherAttr&#45;2967721047917887228 -->
<g id="edge38" class="edge">
<title>math_powf&#45;17465238332222626755:s&#45;&gt;OtherAttr&#45;2967721047917887228</title>
<path fill="none" stroke="black" d="M354.5,-253C354.5,-214.84 411.06,-246.54 431,-214 446.34,-188.96 431.31,-155.53 417.8,-133.89"/>
<polygon fill="black" stroke="black" points="421.68,-136.22 417.31,-133.22 418.86,-138.29 421.68,-136.22"/>
</g>
<!-- math_powf&#45;17465238332222626755&#45;&gt;arith_constant&#45;17859523323072850888 -->
<g id="edge37" class="edge">
<title>math_powf&#45;17465238332222626755:s&#45;&gt;arith_constant&#45;17859523323072850888</title>
<path fill="none" stroke="black" d="M341,-253C341,-234.94 327.92,-221.15 312.68,-211.21"/>
<polygon fill="black" stroke="black" points="318.17,-210.39 312.94,-211.26 317.57,-213.84 318.17,-210.39"/>
</g>
<!-- math_powf&#45;17465238332222626755&#45;&gt;math_cos&#45;2532876268688726417 -->
<g id="edge36" class="edge">
<title>math_powf&#45;17465238332222626755:s&#45;&gt;math_cos&#45;2532876268688726417</title>
<path fill="none" stroke="black" d="M313.5,-253C313.5,-241.2 335.61,-224.47 356.36,-211.35"/>
<polygon fill="black" stroke="black" points="351.93,-214.19 356.4,-211.34 351.13,-210.78 351.93,-214.19"/>
</g>
<!-- math_cos&#45;2532876268688726417&#45;&gt;String&#45;18036887277116069162 -->
<g id="edge23" class="edge">
<title>math_cos&#45;2532876268688726417:s&#45;&gt;String&#45;18036887277116069162</title>
<path fill="none" stroke="black" d="M417,-174C417,-145.11 381.89,-158.44 365,-135 351.85,-116.76 364.95,-102.85 349,-87 317.5,-55.69 294.02,-75.25 254,-56 252.17,-55.12 250.31,-54.15 248.47,-53.13"/>
<polygon fill="black" stroke="black" points="254.73,-53.07 249.45,-53.41 253.79,-56.44 254.73,-53.07"/>
</g>
<!-- math_cos&#45;2532876268688726417&#45;&gt;OtherAttr&#45;2967721047917887228 -->
<g id="edge22" class="edge">
<title>math_cos&#45;2532876268688726417:s&#45;&gt;OtherAttr&#45;2967721047917887228</title>
<path fill="none" stroke="black" d="M400,-174C400,-161.22 400.43,-146.96 400.89,-135.34"/>
<polygon fill="black" stroke="black" points="402.38,-138.63 401.04,-133.51 398.89,-138.35 402.38,-138.63"/>
</g>
<!-- math_cos&#45;2532876268688726417&#45;&gt;arith_constant&#45;1761740163712376048 -->
<g id="edge21" class="edge">
<title>math_cos&#45;2532876268688726417:s&#45;&gt;arith_constant&#45;1761740163712376048</title>
<path fill="none" stroke="black" d="M375,-174C375,-173.17 303.06,-148.2 250.9,-130.2"/>
<polygon fill="black" stroke="black" points="254.72,-129.72 249.42,-129.67 253.53,-133.01 254.72,-129.72"/>
</g>
<!-- arith_constant&#45;7530234148603819612&#45;&gt;FloatAttr&#45;1026043993503992209 -->
<g id="edge24" class="edge">
<title>arith_constant&#45;7530234148603819612:s&#45;&gt;FloatAttr&#45;1026043993503992209</title>
<path fill="none" stroke="black" d="M606,-332C606,-319.22 606,-304.96 606,-293.35"/>
<polygon fill="black" stroke="black" points="607.75,-296.51 606,-291.51 604.25,-296.51 607.75,-296.51"/>
</g>
<!-- arith_constant&#45;7530234148603819612&#45;&gt;String&#45;1026043993503992209 -->
<g id="edge25" class="edge">
<title>arith_constant&#45;7530234148603819612:s&#45;&gt;String&#45;1026043993503992209</title>
<path fill="none" stroke="black" d="M652,-332C652,-290.53 652,-242.19 652,-214.24"/>
<polygon fill="black" stroke="black" points="653.75,-217.51 652,-212.51 650.25,-217.51 653.75,-217.51"/>
</g>
<!-- arith_mulf&#45;9766686415931396370&#45;&gt;String&#45;18036887277116069162 -->
<g id="edge35" class="edge">
<title>arith_mulf&#45;9766686415931396370:s&#45;&gt;String&#45;18036887277116069162</title>
<path fill="none" stroke="black" d="M196.5,-253C196.5,-218.35 146.32,-244.01 129,-214 114.89,-189.56 115.09,-111.56 129,-87 141.26,-65.35 166.04,-51.44 186.5,-43.16"/>
<polygon fill="black" stroke="black" points="184.01,-46.41 187.65,-42.57 182.41,-43.3 184.01,-46.41"/>
</g>
<!-- arith_mulf&#45;9766686415931396370&#45;&gt;OtherAttr&#45;2967721047917887228 -->
<g id="edge34" class="edge">
<title>arith_mulf&#45;9766686415931396370:s&#45;&gt;OtherAttr&#45;2967721047917887228</title>
<path fill="none" stroke="black" d="M188,-253C188,-193.1 274.01,-255.7 317,-214 333.04,-198.44 319.23,-184.34 332,-166 341.13,-152.89 354.42,-141.51 366.96,-132.62"/>
<polygon fill="black" stroke="black" points="363.13,-136.35 366.91,-132.64 361.64,-133.18 363.13,-136.35"/>
</g>
<!-- arith_mulf&#45;9766686415931396370&#45;&gt;math_sin&#45;2532876268688726417 -->
<g id="edge32" class="edge">
<title>arith_mulf&#45;9766686415931396370:s&#45;&gt;math_sin&#45;2532876268688726417</title>
<path fill="none" stroke="black" d="M150,-253C150,-239.34 155.13,-225.05 160.65,-213.65"/>
<polygon fill="black" stroke="black" points="160.17,-217.31 161.66,-212.23 157.33,-215.28 160.17,-217.31"/>
</g>
<!-- arith_mulf&#45;9766686415931396370&#45;&gt;math_sin&#45;2532876268688726417 -->
<g id="edge33" class="edge">
<title>arith_mulf&#45;9766686415931396370:s&#45;&gt;math_sin&#45;2532876268688726417</title>
<path fill="none" stroke="black" d="M175.5,-253C175.5,-240.22 175.18,-225.96 174.83,-214.34"/>
<polygon fill="black" stroke="black" points="176.77,-217.39 174.72,-212.51 173.28,-217.61 176.77,-217.39"/>
</g>
<!-- arith_mulf&#45;17059084557402551415&#45;&gt;String&#45;18036887277116069162 -->
<g id="edge43" class="edge">
<title>arith_mulf&#45;17059084557402551415:s&#45;&gt;String&#45;18036887277116069162</title>
<path fill="none" stroke="black" d="M438.5,-253C438.5,-235.26 445.1,-231.64 447,-214 453.06,-157.77 477.67,-128.27 439,-87 382,-26.16 331.61,-86.43 254,-56 253.72,-55.89 253.45,-55.78 253.17,-55.67"/>
<polygon fill="black" stroke="black" points="254.04,-54.14 248.77,-53.63 252.57,-57.32 254.04,-54.14"/>
</g>
<!-- arith_mulf&#45;17059084557402551415&#45;&gt;OtherAttr&#45;2967721047917887228 -->
<g id="edge42" class="edge">
<title>arith_mulf&#45;17059084557402551415:s&#45;&gt;OtherAttr&#45;2967721047917887228</title>
<path fill="none" stroke="black" d="M430,-253C430,-234.86 439.3,-231.93 442,-214 445.17,-192.9 448.69,-186.26 442,-166 438.11,-154.22 430.56,-142.91 423.05,-133.72"/>
<polygon fill="black" stroke="black" points="427.08,-134.7 422.09,-132.95 424.9,-137.44 427.08,-134.7"/>
</g>
<!-- arith_mulf&#45;17059084557402551415&#45;&gt;math_cos&#45;2532876268688726417 -->
<g id="edge40" class="edge">
<title>arith_mulf&#45;17059084557402551415:s&#45;&gt;math_cos&#45;2532876268688726417</title>
<path fill="none" stroke="black" d="M392,-253C392,-240.22 392,-225.96 392,-214.35"/>
<polygon fill="black" stroke="black" points="393.75,-217.51 392,-212.51 390.25,-217.51 393.75,-217.51"/>
</g>
<!-- arith_mulf&#45;17059084557402551415&#45;&gt;math_cos&#45;2532876268688726417 -->
<g id="edge41" class="edge">
<title>arith_mulf&#45;17059084557402551415:s&#45;&gt;math_cos&#45;2532876268688726417</title>
<path fill="none" stroke="black" d="M417.5,-253C417.5,-239.22 412.05,-224.93 406.19,-213.55"/>
<polygon fill="black" stroke="black" points="409.58,-214.94 405.07,-212.17 406.87,-217.15 409.58,-214.94"/>
</g>
<!-- FloatAttr&#45;2892011823771461968 -->
<g id="node1" class="node">
<title>FloatAttr&#45;2892011823771461968</title>
<g id="a_node1"><a xlink:title="5: FloatAttr&#45;2892011823771461968">
<path fill="white" stroke="none" d="M36.17,-95C36.17,-95 75.83,-95 75.83,-95 81.17,-95 86.5,-100.33 86.5,-105.67 86.5,-105.67 86.5,-116.33 86.5,-116.33 86.5,-121.67 81.17,-127 75.83,-127 75.83,-127 36.17,-127 36.17,-127 30.83,-127 25.5,-121.67 25.5,-116.33 25.5,-116.33 25.5,-105.67 25.5,-105.67 25.5,-100.33 30.83,-95 36.17,-95"/>
<text text-anchor="start" x="30.5" y="-105.2" font-family="Helvetica,sans-Serif" font-size="14.00">FloatAttr</text>
<path fill="none" stroke="black" d="M36.17,-95C36.17,-95 75.83,-95 75.83,-95 81.17,-95 86.5,-100.33 86.5,-105.67 86.5,-105.67 86.5,-116.33 86.5,-116.33 86.5,-121.67 81.17,-127 75.83,-127 75.83,-127 36.17,-127 36.17,-127 30.83,-127 25.5,-121.67 25.5,-116.33 25.5,-116.33 25.5,-105.67 25.5,-105.67 25.5,-100.33 30.83,-95 36.17,-95"/>
</a>
</g>
</g>
<!-- f64&#45;10711811713700724736 -->
<g id="node2" class="node">
<title>f64&#45;10711811713700724736</title>
<g id="a_node2"><a xlink:title="f64&#45;10711811713700724736: f64&#45;10711811713700724736">
<path fill="white" stroke="none" d="M35.67,-16C35.67,-16 46.33,-16 46.33,-16 51.67,-16 57,-21.33 57,-26.67 57,-26.67 57,-37.33 57,-37.33 57,-42.67 51.67,-48 46.33,-48 46.33,-48 35.67,-48 35.67,-48 30.33,-48 25,-42.67 25,-37.33 25,-37.33 25,-26.67 25,-26.67 25,-21.33 30.33,-16 35.67,-16"/>
<text text-anchor="start" x="31.62" y="-26.2" font-family="Helvetica,sans-Serif" font-size="14.00">3.0</text>
<path fill="none" stroke="black" d="M35.67,-16C35.67,-16 46.33,-16 46.33,-16 51.67,-16 57,-21.33 57,-26.67 57,-26.67 57,-37.33 57,-37.33 57,-42.67 51.67,-48 46.33,-48 46.33,-48 35.67,-48 35.67,-48 30.33,-48 25,-42.67 25,-37.33 25,-37.33 25,-26.67 25,-26.67 25,-21.33 30.33,-16 35.67,-16"/>
</a>
</g>
</g>
<!-- String&#45;18036887277116069162 -->
<g id="node3" class="node">
<title>String&#45;18036887277116069162</title>
<g id="a_node3"><a xlink:title="String&#45;18036887277116069162: String&#45;18036887277116069162">
<path fill="white" stroke="none" d="M210.04,-16C210.04,-16 227.96,-16 227.96,-16 233.29,-16 238.62,-21.33 238.62,-26.67 238.62,-26.67 238.62,-37.33 238.62,-37.33 238.62,-42.67 233.29,-48 227.96,-48 227.96,-48 210.04,-48 210.04,-48 204.71,-48 199.38,-42.67 199.38,-37.33 199.38,-37.33 199.38,-26.67 199.38,-26.67 199.38,-21.33 204.71,-16 210.04,-16"/>
<text text-anchor="start" x="204.38" y="-26.2" font-family="Helvetica,sans-Serif" font-size="14.00">&quot;f64&quot;</text>
<path fill="none" stroke="black" d="M210.04,-16C210.04,-16 227.96,-16 227.96,-16 233.29,-16 238.62,-21.33 238.62,-26.67 238.62,-26.67 238.62,-37.33 238.62,-37.33 238.62,-42.67 233.29,-48 227.96,-48 227.96,-48 210.04,-48 210.04,-48 204.71,-48 199.38,-42.67 199.38,-37.33 199.38,-37.33 199.38,-26.67 199.38,-26.67 199.38,-21.33 204.71,-16 210.04,-16"/>
</a>
</g>
</g>
<!-- OtherAttr&#45;2967721047917887228 -->
<g id="node4" class="node">
<title>OtherAttr&#45;2967721047917887228</title>
<g id="a_node4"><a xlink:title="8: OtherAttr&#45;2967721047917887228">
<path fill="white" stroke="none" d="M379.92,-95C379.92,-95 424.08,-95 424.08,-95 429.42,-95 434.75,-100.33 434.75,-105.67 434.75,-105.67 434.75,-116.33 434.75,-116.33 434.75,-121.67 429.42,-127 424.08,-127 424.08,-127 379.92,-127 379.92,-127 374.58,-127 369.25,-121.67 369.25,-116.33 369.25,-116.33 369.25,-105.67 369.25,-105.67 369.25,-100.33 374.58,-95 379.92,-95"/>
<text text-anchor="start" x="374.25" y="-105.2" font-family="Helvetica,sans-Serif" font-size="14.00">OtherAttr</text>
<path fill="none" stroke="black" d="M379.92,-95C379.92,-95 424.08,-95 424.08,-95 429.42,-95 434.75,-100.33 434.75,-105.67 434.75,-105.67 434.75,-116.33 434.75,-116.33 434.75,-121.67 429.42,-127 424.08,-127 424.08,-127 379.92,-127 379.92,-127 374.58,-127 369.25,-121.67 369.25,-116.33 369.25,-116.33 369.25,-105.67 369.25,-105.67 369.25,-100.33 374.58,-95 379.92,-95"/>
</a>
</g>
</g>
<!-- String&#45;2967721047917887228 -->
<g id="node5" class="node">
<title>String&#45;2967721047917887228</title>
<g id="a_node5"><a xlink:title="String&#45;2967721047917887228: String&#45;2967721047917887228">
<path fill="white" stroke="none" d="M335.17,-16C335.17,-16 470.83,-16 470.83,-16 476.17,-16 481.5,-21.33 481.5,-26.67 481.5,-26.67 481.5,-37.33 481.5,-37.33 481.5,-42.67 476.17,-48 470.83,-48 470.83,-48 335.17,-48 335.17,-48 329.83,-48 324.5,-42.67 324.5,-37.33 324.5,-37.33 324.5,-26.67 324.5,-26.67 324.5,-21.33 329.83,-16 335.17,-16"/>
<text text-anchor="start" x="329.5" y="-26.2" font-family="Helvetica,sans-Serif" font-size="14.00">&quot;#arith.fastmath&lt;none&gt;&quot;</text>
<path fill="none" stroke="black" d="M335.17,-16C335.17,-16 470.83,-16 470.83,-16 476.17,-16 481.5,-21.33 481.5,-26.67 481.5,-26.67 481.5,-37.33 481.5,-37.33 481.5,-42.67 476.17,-48 470.83,-48 470.83,-48 335.17,-48 335.17,-48 329.83,-48 324.5,-42.67 324.5,-37.33 324.5,-37.33 324.5,-26.67 324.5,-26.67 324.5,-21.33 329.83,-16 335.17,-16"/>
</a>
</g>
</g>
<!-- FloatAttr&#45;9670903108499433938 -->
<g id="node6" class="node">
<title>FloatAttr&#45;9670903108499433938</title>
<g id="a_node6"><a xlink:title="1: FloatAttr&#45;9670903108499433938">
<path fill="white" stroke="none" d="M280.17,-95C280.17,-95 319.83,-95 319.83,-95 325.17,-95 330.5,-100.33 330.5,-105.67 330.5,-105.67 330.5,-116.33 330.5,-116.33 330.5,-121.67 325.17,-127 319.83,-127 319.83,-127 280.17,-127 280.17,-127 274.83,-127 269.5,-121.67 269.5,-116.33 269.5,-116.33 269.5,-105.67 269.5,-105.67 269.5,-100.33 274.83,-95 280.17,-95"/>
<text text-anchor="start" x="274.5" y="-105.2" font-family="Helvetica,sans-Serif" font-size="14.00">FloatAttr</text>
<path fill="none" stroke="black" d="M280.17,-95C280.17,-95 319.83,-95 319.83,-95 325.17,-95 330.5,-100.33 330.5,-105.67 330.5,-105.67 330.5,-116.33 330.5,-116.33 330.5,-121.67 325.17,-127 319.83,-127 319.83,-127 280.17,-127 280.17,-127 274.83,-127 269.5,-121.67 269.5,-116.33 269.5,-116.33 269.5,-105.67 269.5,-105.67 269.5,-100.33 274.83,-95 280.17,-95"/>
</a>
</g>
</g>
<!-- f64&#45;4611686018427387904 -->
<g id="node7" class="node">
<title>f64&#45;4611686018427387904</title>
<g id="a_node7"><a xlink:title="f64&#45;4611686018427387904: f64&#45;4611686018427387904">
<path fill="white" stroke="none" d="M279.67,-16C279.67,-16 290.33,-16 290.33,-16 295.67,-16 301,-21.33 301,-26.67 301,-26.67 301,-37.33 301,-37.33 301,-42.67 295.67,-48 290.33,-48 290.33,-48 279.67,-48 279.67,-48 274.33,-48 269,-42.67 269,-37.33 269,-37.33 269,-26.67 269,-26.67 269,-21.33 274.33,-16 279.67,-16"/>
<text text-anchor="start" x="275.62" y="-26.2" font-family="Helvetica,sans-Serif" font-size="14.00">2.0</text>
<path fill="none" stroke="black" d="M279.67,-16C279.67,-16 290.33,-16 290.33,-16 295.67,-16 301,-21.33 301,-26.67 301,-26.67 301,-37.33 301,-37.33 301,-42.67 295.67,-48 290.33,-48 290.33,-48 279.67,-48 279.67,-48 274.33,-48 269,-42.67 269,-37.33 269,-37.33 269,-26.67 269,-26.67 269,-21.33 274.33,-16 279.67,-16"/>
</a>
</g>
</g>
<!-- FloatAttr&#45;1026043993503992209 -->
<g id="node8" class="node">
<title>FloatAttr&#45;1026043993503992209</title>
<g id="a_node8"><a xlink:title="19: FloatAttr&#45;1026043993503992209">
<path fill="white" stroke="none" d="M586.17,-253C586.17,-253 625.83,-253 625.83,-253 631.17,-253 636.5,-258.33 636.5,-263.67 636.5,-263.67 636.5,-274.33 636.5,-274.33 636.5,-279.67 631.17,-285 625.83,-285 625.83,-285 586.17,-285 586.17,-285 580.83,-285 575.5,-279.67 575.5,-274.33 575.5,-274.33 575.5,-263.67 575.5,-263.67 575.5,-258.33 580.83,-253 586.17,-253"/>
<text text-anchor="start" x="580.5" y="-263.2" font-family="Helvetica,sans-Serif" font-size="14.00">FloatAttr</text>
<path fill="none" stroke="black" d="M586.17,-253C586.17,-253 625.83,-253 625.83,-253 631.17,-253 636.5,-258.33 636.5,-263.67 636.5,-263.67 636.5,-274.33 636.5,-274.33 636.5,-279.67 631.17,-285 625.83,-285 625.83,-285 586.17,-285 586.17,-285 580.83,-285 575.5,-279.67 575.5,-274.33 575.5,-274.33 575.5,-263.67 575.5,-263.67 575.5,-258.33 580.83,-253 586.17,-253"/>
</a>
</g>
</g>
<!-- f64&#45;0 -->
<g id="node9" class="node">
<title>f64&#45;0</title>
<g id="a_node9"><a xlink:title="f64&#45;0: f64&#45;0">
<path fill="white" stroke="none" d="M580.67,-174C580.67,-174 591.33,-174 591.33,-174 596.67,-174 602,-179.33 602,-184.67 602,-184.67 602,-195.33 602,-195.33 602,-200.67 596.67,-206 591.33,-206 591.33,-206 580.67,-206 580.67,-206 575.33,-206 570,-200.67 570,-195.33 570,-195.33 570,-184.67 570,-184.67 570,-179.33 575.33,-174 580.67,-174"/>
<text text-anchor="start" x="576.62" y="-184.2" font-family="Helvetica,sans-Serif" font-size="14.00">0.0</text>
<path fill="none" stroke="black" d="M580.67,-174C580.67,-174 591.33,-174 591.33,-174 596.67,-174 602,-179.33 602,-184.67 602,-184.67 602,-195.33 602,-195.33 602,-200.67 596.67,-206 591.33,-206 591.33,-206 580.67,-206 580.67,-206 575.33,-206 570,-200.67 570,-195.33 570,-195.33 570,-184.67 570,-184.67 570,-179.33 575.33,-174 580.67,-174"/>
</a>
</g>
</g>
<!-- String&#45;1026043993503992209 -->
<g id="node10" class="node">
<title>String&#45;1026043993503992209</title>
<g id="a_node10"><a xlink:title="String&#45;1026043993503992209: String&#45;1026043993503992209">
<path fill="white" stroke="none" d="M643.04,-174C643.04,-174 660.96,-174 660.96,-174 666.29,-174 671.62,-179.33 671.62,-184.67 671.62,-184.67 671.62,-195.33 671.62,-195.33 671.62,-200.67 666.29,-206 660.96,-206 660.96,-206 643.04,-206 643.04,-206 637.71,-206 632.38,-200.67 632.38,-195.33 632.38,-195.33 632.38,-184.67 632.38,-184.67 632.38,-179.33 637.71,-174 643.04,-174"/>
<text text-anchor="start" x="637.38" y="-184.2" font-family="Helvetica,sans-Serif" font-size="14.00">&quot;f32&quot;</text>
<path fill="none" stroke="black" d="M643.04,-174C643.04,-174 660.96,-174 660.96,-174 666.29,-174 671.62,-179.33 671.62,-184.67 671.62,-184.67 671.62,-195.33 671.62,-195.33 671.62,-200.67 666.29,-206 660.96,-206 660.96,-206 643.04,-206 643.04,-206 637.71,-206 632.38,-200.67 632.38,-195.33 632.38,-195.33 632.38,-184.67 632.38,-184.67 632.38,-179.33 637.71,-174 643.04,-174"/>
</a>
</g>
</g>
<!-- FloatAttr&#45;18240279353850112336 -->
<g id="node11" class="node">
<title>FloatAttr&#45;18240279353850112336</title>
<g id="a_node11"><a xlink:title="23: FloatAttr&#45;18240279353850112336">
<path fill="white" stroke="none" d="M467.17,-253C467.17,-253 506.83,-253 506.83,-253 512.17,-253 517.5,-258.33 517.5,-263.67 517.5,-263.67 517.5,-274.33 517.5,-274.33 517.5,-279.67 512.17,-285 506.83,-285 506.83,-285 467.17,-285 467.17,-285 461.83,-285 456.5,-279.67 456.5,-274.33 456.5,-274.33 456.5,-263.67 456.5,-263.67 456.5,-258.33 461.83,-253 467.17,-253"/>
<text text-anchor="start" x="461.5" y="-263.2" font-family="Helvetica,sans-Serif" font-size="14.00">FloatAttr</text>
<path fill="none" stroke="black" d="M467.17,-253C467.17,-253 506.83,-253 506.83,-253 512.17,-253 517.5,-258.33 517.5,-263.67 517.5,-263.67 517.5,-274.33 517.5,-274.33 517.5,-279.67 512.17,-285 506.83,-285 506.83,-285 467.17,-285 467.17,-285 461.83,-285 456.5,-279.67 456.5,-274.33 456.5,-274.33 456.5,-263.67 456.5,-263.67 456.5,-258.33 461.83,-253 467.17,-253"/>
</a>
</g>
</g>
<!-- f64&#45;10858178701590265856 -->
<g id="node12" class="node">
<title>f64&#45;10858178701590265856</title>
<g id="a_node12"><a xlink:title="f64&#45;10858178701590265856: f64&#45;10858178701590265856">
<path fill="white" stroke="none" d="M502.67,-174C502.67,-174 513.33,-174 513.33,-174 518.67,-174 524,-179.33 524,-184.67 524,-184.67 524,-195.33 524,-195.33 524,-200.67 518.67,-206 513.33,-206 513.33,-206 502.67,-206 502.67,-206 497.33,-206 492,-200.67 492,-195.33 492,-195.33 492,-184.67 492,-184.67 492,-179.33 497.33,-174 502.67,-174"/>
<text text-anchor="start" x="498.62" y="-184.2" font-family="Helvetica,sans-Serif" font-size="14.00">1.0</text>
<path fill="none" stroke="black" d="M502.67,-174C502.67,-174 513.33,-174 513.33,-174 518.67,-174 524,-179.33 524,-184.67 524,-184.67 524,-195.33 524,-195.33 524,-200.67 518.67,-206 513.33,-206 513.33,-206 502.67,-206 502.67,-206 497.33,-206 492,-200.67 492,-195.33 492,-195.33 492,-184.67 492,-184.67 492,-179.33 497.33,-174 502.67,-174"/>
</a>
</g>
</g>
<!-- math_sin&#45;2532876268688726417 -->
<g id="node13" class="node">
<title>math_sin&#45;2532876268688726417</title>
<g id="a_node13"><a xlink:title="7: math_sin&#45;2532876268688726417">
<path fill="white" stroke="none" d="M152.17,-174C152.17,-174 195.83,-174 195.83,-174 201.17,-174 206.5,-179.33 206.5,-184.67 206.5,-184.67 206.5,-195.33 206.5,-195.33 206.5,-200.67 201.17,-206 195.83,-206 195.83,-206 152.17,-206 152.17,-206 146.83,-206 141.5,-200.67 141.5,-195.33 141.5,-195.33 141.5,-184.67 141.5,-184.67 141.5,-179.33 146.83,-174 152.17,-174"/>
<text text-anchor="start" x="146.25" y="-184.2" font-family="Helvetica,sans-Serif" font-size="14.00">math_sin</text>
<path fill="none" stroke="black" d="M152.17,-174C152.17,-174 195.83,-174 195.83,-174 201.17,-174 206.5,-179.33 206.5,-184.67 206.5,-184.67 206.5,-195.33 206.5,-195.33 206.5,-200.67 201.17,-206 195.83,-206 195.83,-206 152.17,-206 152.17,-206 146.83,-206 141.5,-200.67 141.5,-195.33 141.5,-195.33 141.5,-184.67 141.5,-184.67 141.5,-179.33 146.83,-174 152.17,-174"/>
</a>
</g>
</g>
<!-- arith_constant&#45;1761740163712376048 -->
<g id="node14" class="node">
<title>arith_constant&#45;1761740163712376048</title>
<g id="a_node14"><a xlink:title="4: arith_constant&#45;1761740163712376048">
<path fill="white" stroke="none" d="M161.67,-95C161.67,-95 234.33,-95 234.33,-95 239.67,-95 245,-100.33 245,-105.67 245,-105.67 245,-116.33 245,-116.33 245,-121.67 239.67,-127 234.33,-127 234.33,-127 161.67,-127 161.67,-127 156.33,-127 151,-121.67 151,-116.33 151,-116.33 151,-105.67 151,-105.67 151,-100.33 156.33,-95 161.67,-95"/>
<text text-anchor="start" x="155.62" y="-105.2" font-family="Helvetica,sans-Serif" font-size="14.00">arith_constant</text>
<path fill="none" stroke="black" d="M161.67,-95C161.67,-95 234.33,-95 234.33,-95 239.67,-95 245,-100.33 245,-105.67 245,-105.67 245,-116.33 245,-116.33 245,-121.67 239.67,-127 234.33,-127 234.33,-127 161.67,-127 161.67,-127 156.33,-127 151,-121.67 151,-116.33 151,-116.33 151,-105.67 151,-105.67 151,-100.33 156.33,-95 161.67,-95"/>
</a>
</g>
</g>
<!-- arith_constant&#45;17859523323072850888 -->
<g id="node15" class="node">
<title>arith_constant&#45;17859523323072850888</title>
<g id="a_node15"><a xlink:title="3: arith_constant&#45;17859523323072850888">
<path fill="white" stroke="none" d="M229.67,-174C229.67,-174 302.33,-174 302.33,-174 307.67,-174 313,-179.33 313,-184.67 313,-184.67 313,-195.33 313,-195.33 313,-200.67 307.67,-206 302.33,-206 302.33,-206 229.67,-206 229.67,-206 224.33,-206 219,-200.67 219,-195.33 219,-195.33 219,-184.67 219,-184.67 219,-179.33 224.33,-174 229.67,-174"/>
<text text-anchor="start" x="223.62" y="-184.2" font-family="Helvetica,sans-Serif" font-size="14.00">arith_constant</text>
<path fill="none" stroke="black" d="M229.67,-174C229.67,-174 302.33,-174 302.33,-174 307.67,-174 313,-179.33 313,-184.67 313,-184.67 313,-195.33 313,-195.33 313,-200.67 307.67,-206 302.33,-206 302.33,-206 229.67,-206 229.67,-206 224.33,-206 219,-200.67 219,-195.33 219,-195.33 219,-184.67 219,-184.67 219,-179.33 224.33,-174 229.67,-174"/>
</a>
</g>
</g>
<!-- arith_constant&#45;16024627230776830088 -->
<g id="node16" class="node">
<title>arith_constant&#45;16024627230776830088</title>
<g id="a_node16"><a xlink:title="16: arith_constant&#45;16024627230776830088">
<path fill="white" stroke="none" d="M169.67,-332C169.67,-332 242.33,-332 242.33,-332 247.67,-332 253,-337.33 253,-342.67 253,-342.67 253,-353.33 253,-353.33 253,-358.67 247.67,-364 242.33,-364 242.33,-364 169.67,-364 169.67,-364 164.33,-364 159,-358.67 159,-353.33 159,-353.33 159,-342.67 159,-342.67 159,-337.33 164.33,-332 169.67,-332"/>
<text text-anchor="start" x="163.62" y="-342.2" font-family="Helvetica,sans-Serif" font-size="14.00">arith_constant</text>
<path fill="none" stroke="black" d="M169.67,-332C169.67,-332 242.33,-332 242.33,-332 247.67,-332 253,-337.33 253,-342.67 253,-342.67 253,-353.33 253,-353.33 253,-358.67 247.67,-364 242.33,-364 242.33,-364 169.67,-364 169.67,-364 164.33,-364 159,-358.67 159,-353.33 159,-353.33 159,-342.67 159,-342.67 159,-337.33 164.33,-332 169.67,-332"/>
</a>
</g>
</g>
<!-- arith_addf&#45;9452182239465436887 -->
<g id="node17" class="node">
<title>arith_addf&#45;9452182239465436887</title>
<g id="a_node17"><a xlink:title="16: arith_addf&#45;9452182239465436887">
<path fill="white" stroke="none" d="M267.67,-332C267.67,-332 316.33,-332 316.33,-332 321.67,-332 327,-337.33 327,-342.67 327,-342.67 327,-353.33 327,-353.33 327,-358.67 321.67,-364 316.33,-364 316.33,-364 267.67,-364 267.67,-364 262.33,-364 257,-358.67 257,-353.33 257,-353.33 257,-342.67 257,-342.67 257,-337.33 262.33,-332 267.67,-332"/>
<text text-anchor="start" x="262" y="-342.2" font-family="Helvetica,sans-Serif" font-size="14.00">arith_addf</text>
<path fill="none" stroke="black" d="M267.67,-332C267.67,-332 316.33,-332 316.33,-332 321.67,-332 327,-337.33 327,-342.67 327,-342.67 327,-353.33 327,-353.33 327,-358.67 321.67,-364 316.33,-364 316.33,-364 267.67,-364 267.67,-364 262.33,-364 257,-358.67 257,-353.33 257,-353.33 257,-342.67 257,-342.67 257,-337.33 262.33,-332 267.67,-332"/>
</a>
</g>
</g>
<!-- math_powf&#45;6183019051267724250 -->
<g id="node18" class="node">
<title>math_powf&#45;6183019051267724250</title>
<g id="a_node18"><a xlink:title="12: math_powf&#45;6183019051267724250">
<path fill="white" stroke="none" d="M216.67,-253C216.67,-253 271.33,-253 271.33,-253 276.67,-253 282,-258.33 282,-263.67 282,-263.67 282,-274.33 282,-274.33 282,-279.67 276.67,-285 271.33,-285 271.33,-285 216.67,-285 216.67,-285 211.33,-285 206,-279.67 206,-274.33 206,-274.33 206,-263.67 206,-263.67 206,-258.33 211.33,-253 216.67,-253"/>
<text text-anchor="start" x="210.62" y="-263.2" font-family="Helvetica,sans-Serif" font-size="14.00">math_powf</text>
<path fill="none" stroke="black" d="M216.67,-253C216.67,-253 271.33,-253 271.33,-253 276.67,-253 282,-258.33 282,-263.67 282,-263.67 282,-274.33 282,-274.33 282,-279.67 276.67,-285 271.33,-285 271.33,-285 216.67,-285 216.67,-285 211.33,-285 206,-279.67 206,-274.33 206,-274.33 206,-263.67 206,-263.67 206,-258.33 211.33,-253 216.67,-253"/>
</a>
</g>
</g>
<!-- math_powf&#45;17465238332222626755 -->
<g id="node19" class="node">
<title>math_powf&#45;17465238332222626755</title>
<g id="a_node19"><a xlink:title="14: math_powf&#45;17465238332222626755">
<path fill="white" stroke="none" d="M304.67,-253C304.67,-253 359.33,-253 359.33,-253 364.67,-253 370,-258.33 370,-263.67 370,-263.67 370,-274.33 370,-274.33 370,-279.67 364.67,-285 359.33,-285 359.33,-285 304.67,-285 304.67,-285 299.33,-285 294,-279.67 294,-274.33 294,-274.33 294,-263.67 294,-263.67 294,-258.33 299.33,-253 304.67,-253"/>
<text text-anchor="start" x="298.62" y="-263.2" font-family="Helvetica,sans-Serif" font-size="14.00">math_powf</text>
<path fill="none" stroke="black" d="M304.67,-253C304.67,-253 359.33,-253 359.33,-253 364.67,-253 370,-258.33 370,-263.67 370,-263.67 370,-274.33 370,-274.33 370,-279.67 364.67,-285 359.33,-285 359.33,-285 304.67,-285 304.67,-285 299.33,-285 294,-279.67 294,-274.33 294,-274.33 294,-263.67 294,-263.67 294,-258.33 299.33,-253 304.67,-253"/>
</a>
</g>
</g>
<!-- math_cos&#45;2532876268688726417 -->
<g id="node20" class="node">
<title>math_cos&#45;2532876268688726417</title>
<g id="a_node20"><a xlink:title="10: math_cos&#45;2532876268688726417">
<path fill="white" stroke="none" d="M368.17,-174C368.17,-174 415.83,-174 415.83,-174 421.17,-174 426.5,-179.33 426.5,-184.67 426.5,-184.67 426.5,-195.33 426.5,-195.33 426.5,-200.67 421.17,-206 415.83,-206 415.83,-206 368.17,-206 368.17,-206 362.83,-206 357.5,-200.67 357.5,-195.33 357.5,-195.33 357.5,-184.67 357.5,-184.67 357.5,-179.33 362.83,-174 368.17,-174"/>
<text text-anchor="start" x="362.38" y="-184.2" font-family="Helvetica,sans-Serif" font-size="14.00">math_cos</text>
<path fill="none" stroke="black" d="M368.17,-174C368.17,-174 415.83,-174 415.83,-174 421.17,-174 426.5,-179.33 426.5,-184.67 426.5,-184.67 426.5,-195.33 426.5,-195.33 426.5,-200.67 421.17,-206 415.83,-206 415.83,-206 368.17,-206 368.17,-206 362.83,-206 357.5,-200.67 357.5,-195.33 357.5,-195.33 357.5,-184.67 357.5,-184.67 357.5,-179.33 362.83,-174 368.17,-174"/>
</a>
</g>
</g>
<!-- arith_constant&#45;7530234148603819612 -->
<g id="node21" class="node">
<title>arith_constant&#45;7530234148603819612</title>
<g id="a_node21"><a xlink:title="18: arith_constant&#45;7530234148603819612">
<path fill="white" stroke="none" d="M592.67,-332C592.67,-332 665.33,-332 665.33,-332 670.67,-332 676,-337.33 676,-342.67 676,-342.67 676,-353.33 676,-353.33 676,-358.67 670.67,-364 665.33,-364 665.33,-364 592.67,-364 592.67,-364 587.33,-364 582,-358.67 582,-353.33 582,-353.33 582,-342.67 582,-342.67 582,-337.33 587.33,-332 592.67,-332"/>
<text text-anchor="start" x="586.62" y="-342.2" font-family="Helvetica,sans-Serif" font-size="14.00">arith_constant</text>
<path fill="none" stroke="black" d="M592.67,-332C592.67,-332 665.33,-332 665.33,-332 670.67,-332 676,-337.33 676,-342.67 676,-342.67 676,-353.33 676,-353.33 676,-358.67 670.67,-364 665.33,-364 665.33,-364 592.67,-364 592.67,-364 587.33,-364 582,-358.67 582,-353.33 582,-353.33 582,-342.67 582,-342.67 582,-337.33 587.33,-332 592.67,-332"/>
</a>
</g>
</g>
<!-- arith_mulf&#45;9766686415931396370 -->
<g id="node22" class="node">
<title>arith_mulf&#45;9766686415931396370</title>
<g id="a_node22"><a xlink:title="12: arith_mulf&#45;9766686415931396370">
<path fill="white" stroke="none" d="M142.67,-253C142.67,-253 191.33,-253 191.33,-253 196.67,-253 202,-258.33 202,-263.67 202,-263.67 202,-274.33 202,-274.33 202,-279.67 196.67,-285 191.33,-285 191.33,-285 142.67,-285 142.67,-285 137.33,-285 132,-279.67 132,-274.33 132,-274.33 132,-263.67 132,-263.67 132,-258.33 137.33,-253 142.67,-253"/>
<text text-anchor="start" x="137" y="-263.2" font-family="Helvetica,sans-Serif" font-size="14.00">arith_mulf</text>
<path fill="none" stroke="black" d="M142.67,-253C142.67,-253 191.33,-253 191.33,-253 196.67,-253 202,-258.33 202,-263.67 202,-263.67 202,-274.33 202,-274.33 202,-279.67 196.67,-285 191.33,-285 191.33,-285 142.67,-285 142.67,-285 137.33,-285 132,-279.67 132,-274.33 132,-274.33 132,-263.67 132,-263.67 132,-258.33 137.33,-253 142.67,-253"/>
</a>
</g>
</g>
<!-- arith_mulf&#45;17059084557402551415 -->
<g id="node23" class="node">
<title>arith_mulf&#45;17059084557402551415</title>
<g id="a_node23"><a xlink:title="14: arith_mulf&#45;17059084557402551415">
<path fill="white" stroke="none" d="M384.67,-253C384.67,-253 433.33,-253 433.33,-253 438.67,-253 444,-258.33 444,-263.67 444,-263.67 444,-274.33 444,-274.33 444,-279.67 438.67,-285 433.33,-285 433.33,-285 384.67,-285 384.67,-285 379.33,-285 374,-279.67 374,-274.33 374,-274.33 374,-263.67 374,-263.67 374,-258.33 379.33,-253 384.67,-253"/>
<text text-anchor="start" x="379" y="-263.2" font-family="Helvetica,sans-Serif" font-size="14.00">arith_mulf</text>
<path fill="none" stroke="black" d="M384.67,-253C384.67,-253 433.33,-253 433.33,-253 438.67,-253 444,-258.33 444,-263.67 444,-263.67 444,-274.33 444,-274.33 444,-279.67 438.67,-285 433.33,-285 433.33,-285 384.67,-285 384.67,-285 379.33,-285 374,-279.67 374,-274.33 374,-274.33 374,-263.67 374,-263.67 374,-258.33 379.33,-253 384.67,-253"/>
</a>
</g>
</g>
</g>
</svg>
