<?xml version="1.0" encoding="UTF-8" standalone="no"?>
<!DOCTYPE svg PUBLIC "-//W3C//DTD SVG 1.1//EN"
 "http://www.w3.org/Graphics/SVG/1.1/DTD/svg11.dtd">
<!-- Generated by graphviz version 12.0.0 (20240704.0754)
 -->
<!-- Pages: 1 -->
<svg width="968pt" height="309pt"
 viewBox="0.00 0.00 968.00 309.00" xmlns="http://www.w3.org/2000/svg" xmlns:xlink="http://www.w3.org/1999/xlink">
<g id="graph0" class="graph" transform="scale(1 1) rotate(0) translate(4 305)">
<polygon fill="white" stroke="none" points="-4,4 -4,-305 964,-305 964,4 -4,4"/>
<g id="clust1" class="cluster">
<title>outer_cluster_String&#45;1845757586690957117</title>
</g>
<g id="clust2" class="cluster">
<title>cluster_String&#45;1845757586690957117</title>
<path fill="#ffffb3" stroke="black" stroke-dasharray="5,2" d="M301,-90C301,-90 597,-90 597,-90 603,-90 609,-96 609,-102 609,-102 609,-120 609,-120 609,-126 603,-132 597,-132 597,-132 301,-132 301,-132 295,-132 289,-126 289,-120 289,-120 289,-102 289,-102 289,-96 295,-90 301,-90"/>
</g>
<g id="clust4" class="cluster">
<title>outer_cluster_String&#45;15542684115063436391</title>
</g>
<g id="clust5" class="cluster">
<title>cluster_String&#45;15542684115063436391</title>
<path fill="#ffffb3" stroke="black" stroke-dasharray="5,2" d="M689,-11C689,-11 869,-11 869,-11 875,-11 881,-17 881,-23 881,-23 881,-41 881,-41 881,-47 875,-53 869,-53 869,-53 689,-53 689,-53 683,-53 677,-47 677,-41 677,-41 677,-23 677,-23 677,-17 683,-11 689,-11"/>
</g>
<g id="clust7" class="cluster">
<title>outer_cluster_String&#45;6583887671197450110</title>
</g>
<g id="clust8" class="cluster">
<title>cluster_String&#45;6583887671197450110</title>
<path fill="#ffffb3" stroke="black" stroke-dasharray="5,2" d="M627,-90C627,-90 725,-90 725,-90 731,-90 737,-96 737,-102 737,-102 737,-120 737,-120 737,-126 731,-132 725,-132 725,-132 627,-132 627,-132 621,-132 615,-126 615,-120 615,-120 615,-102 615,-102 615,-96 621,-90 627,-90"/>
</g>
<g id="clust10" class="cluster">
<title>outer_cluster_String&#45;5764174078010485202</title>
</g>
<g id="clust11" class="cluster">
<title>cluster_String&#45;5764174078010485202</title>
<path fill="#ffffb3" stroke="black" stroke-dasharray="5,2" d="M833,-90C833,-90 937,-90 937,-90 943,-90 949,-96 949,-102 949,-102 949,-120 949,-120 949,-126 943,-132 937,-132 937,-132 833,-132 833,-132 827,-132 821,-126 821,-120 821,-120 821,-102 821,-102 821,-96 827,-90 833,-90"/>
</g>
<g id="clust13" class="cluster">
<title>outer_cluster_String&#45;12455668677761452563</title>
</g>
<g id="clust14" class="cluster">
<title>cluster_String&#45;12455668677761452563</title>
<path fill="#ffffb3" stroke="black" stroke-dasharray="5,2" d="M23,-11C23,-11 203,-11 203,-11 209,-11 215,-17 215,-23 215,-23 215,-41 215,-41 215,-47 209,-53 203,-53 203,-53 23,-53 23,-53 17,-53 11,-47 11,-41 11,-41 11,-23 11,-23 11,-17 17,-11 23,-11"/>
</g>
<g id="clust16" class="cluster">
<title>outer_cluster_String&#45;18350824605986613714</title>
</g>
<g id="clust17" class="cluster">
<title>cluster_String&#45;18350824605986613714</title>
<path fill="#ffffb3" stroke="black" stroke-dasharray="5,2" d="M167,-90C167,-90 271,-90 271,-90 277,-90 283,-96 283,-102 283,-102 283,-120 283,-120 283,-126 277,-132 271,-132 271,-132 167,-132 167,-132 161,-132 155,-126 155,-120 155,-120 155,-102 155,-102 155,-96 161,-90 167,-90"/>
</g>
<g id="clust19" class="cluster">
<title>outer_cluster_12</title>
</g>
<g id="clust20" class="cluster">
<title>cluster_12</title>
<path fill="#bebada" stroke="black" stroke-dasharray="5,2" d="M190,-248C190,-248 378,-248 378,-248 384,-248 390,-254 390,-260 390,-260 390,-278 390,-278 390,-284 384,-290 378,-290 378,-290 190,-290 190,-290 184,-290 178,-284 178,-278 178,-278 178,-260 178,-260 178,-254 184,-248 190,-248"/>
</g>
<g id="clust22" class="cluster">
<title>outer_cluster_6</title>
</g>
<g id="clust23" class="cluster">
<title>cluster_6</title>
<path fill="#bebada" stroke="black" stroke-dasharray="5,2" d="M158,-169C158,-169 234,-169 234,-169 240,-169 246,-175 246,-181 246,-181 246,-199 246,-199 246,-205 240,-211 234,-211 234,-211 158,-211 158,-211 152,-211 146,-205 146,-199 146,-199 146,-181 146,-181 146,-175 152,-169 158,-169"/>
</g>
<g id="clust25" class="cluster">
<title>outer_cluster_3</title>
</g>
<g id="clust26" class="cluster">
<title>cluster_3</title>
<path fill="#bebada" stroke="black" stroke-dasharray="5,2" d="M764,-169C764,-169 840,-169 840,-169 846,-169 852,-175 852,-181 852,-181 852,-199 852,-199 852,-205 846,-211 840,-211 840,-211 764,-211 764,-211 758,-211 752,-205 752,-199 752,-199 752,-181 752,-181 752,-175 758,-169 764,-169"/>
</g>
<g id="clust28" class="cluster">
<title>outer_cluster_9</title>
</g>
<g id="clust29" class="cluster">
<title>cluster_9</title>
<path fill="#bebada" stroke="black" stroke-dasharray="5,2" d="M671,-248C671,-248 761,-248 761,-248 767,-248 773,-254 773,-260 773,-260 773,-278 773,-278 773,-284 767,-290 761,-290 761,-290 671,-290 671,-290 665,-290 659,-284 659,-278 659,-278 659,-260 659,-260 659,-254 665,-248 671,-248"/>
</g>
<g id="clust31" class="cluster">
<title>outer_cluster_1</title>
</g>
<g id="clust32" class="cluster">
<title>cluster_1</title>
<path fill="#fb8072" stroke="black" stroke-dasharray="5,2" d="M374,-169C374,-169 422,-169 422,-169 428,-169 434,-175 434,-181 434,-181 434,-199 434,-199 434,-205 428,-211 422,-211 422,-211 374,-211 374,-211 368,-211 362,-205 362,-199 362,-199 362,-181 362,-181 362,-175 368,-169 374,-169"/>
</g>
<g id="clust34" class="cluster">
<title>outer_cluster_10</title>
</g>
<g id="clust35" class="cluster">
<title>cluster_10</title>
<path fill="#fb8072" stroke="black" stroke-dasharray="5,2" d="M652,-169C652,-169 700,-169 700,-169 706,-169 712,-175 712,-181 712,-181 712,-199 712,-199 712,-205 706,-211 700,-211 700,-211 652,-211 652,-211 646,-211 640,-205 640,-199 640,-199 640,-181 640,-181 640,-175 646,-169 652,-169"/>
</g>
<g id="clust37" class="cluster">
<title>outer_cluster_7</title>
</g>
<g id="clust38" class="cluster">
<title>cluster_7</title>
<path fill="#fb8072" stroke="black" stroke-dasharray="5,2" d="M89,-90C89,-90 137,-90 137,-90 143,-90 149,-96 149,-102 149,-102 149,-120 149,-120 149,-126 143,-132 137,-132 137,-132 89,-132 89,-132 83,-132 77,-126 77,-120 77,-120 77,-102 77,-102 77,-96 83,-90 89,-90"/>
</g>
<g id="clust40" class="cluster">
<title>outer_cluster_4</title>
</g>
<g id="clust41" class="cluster">
<title>cluster_4</title>
<path fill="#fb8072" stroke="black" stroke-dasharray="5,2" d="M755,-90C755,-90 803,-90 803,-90 809,-90 815,-96 815,-102 815,-102 815,-120 815,-120 815,-126 809,-132 803,-132 803,-132 755,-132 755,-132 749,-132 743,-126 743,-120 743,-120 743,-102 743,-102 743,-96 749,-90 755,-90"/>
</g>
<!-- arith_constant&#45;17545585994202306336&#45;&gt;String&#45;18350824605986613714 -->
<g id="edge2" class="edge">
<title>arith_constant&#45;17545585994202306336:s&#45;&gt;String&#45;18350824605986613714</title>
<path fill="none" stroke="black" d="M363,-253C363,-198.64 309.96,-158.32 268.26,-135.03"/>
<polygon fill="black" stroke="black" points="269.27,-133.59 264.04,-132.72 267.59,-136.66 269.27,-133.59"/>
</g>
<!-- arith_constant&#45;17545585994202306336&#45;&gt;OtherAttr&#45;1845757586690957117 -->
<g id="edge1" class="edge">
<title>arith_constant&#45;17545585994202306336:s&#45;&gt;OtherAttr&#45;1845757586690957117</title>
<path fill="none" stroke="black" d="M317,-253C317,-229.53 338.71,-213.74 359.65,-203.97"/>
<polygon fill="black" stroke="black" points="357.6,-207.49 360.75,-203.23 355.63,-204.6 357.6,-207.49"/>
</g>
<!-- OtherAttr&#45;1845757586690957117&#45;&gt;String&#45;1845757586690957117 -->
<g id="edge15" class="edge">
<title>OtherAttr&#45;1845757586690957117:s&#45;&gt;String&#45;1845757586690957117</title>
<path fill="none" stroke="black" d="M398,-174C398,-157.88 408.41,-143.67 419.82,-132.94"/>
<polygon fill="black" stroke="black" points="416.7,-136.84 420.1,-132.77 414.9,-133.83 416.7,-136.84"/>
</g>
<!-- linalg_transpose&#45;2323364363223201284&#45;&gt;String&#45;18350824605986613714 -->
<g id="edge6" class="edge">
<title>linalg_transpose&#45;2323364363223201284:s&#45;&gt;String&#45;18350824605986613714</title>
<path fill="none" stroke="black" d="M281,-253C281,-207.62 253.76,-160.45 235.39,-133.8"/>
<polygon fill="black" stroke="black" points="239.41,-135.81 234.83,-133.15 236.76,-138.08 239.41,-135.81"/>
</g>
<!-- linalg_transpose&#45;2323364363223201284&#45;&gt;linalg_transpose&#45;894880600859532342 -->
<g id="edge3" class="edge">
<title>linalg_transpose&#45;2323364363223201284:s&#45;&gt;linalg_transpose&#45;894880600859532342</title>
<path fill="none" stroke="black" d="M208.5,-253C208.5,-164.38 521.54,-224.83 655.91,-254.86"/>
<polygon fill="black" stroke="black" points="652.35,-255.16 657.62,-255.64 653.8,-251.98 652.35,-255.16"/>
</g>
<!-- linalg_transpose&#45;2323364363223201284&#45;&gt;arith_constant&#45;2523751931733994353 -->
<g id="edge4" class="edge">
<title>linalg_transpose&#45;2323364363223201284:s&#45;&gt;arith_constant&#45;2523751931733994353</title>
<path fill="none" stroke="black" d="M248,-253C248,-236.75 237.39,-222.53 225.75,-211.82"/>
<polygon fill="black" stroke="black" points="230.7,-212.32 225.44,-211.67 229.15,-215.45 230.7,-212.32"/>
</g>
<!-- linalg_transpose&#45;2323364363223201284&#45;&gt;OtherAttr&#45;6583887671197450110 -->
<g id="edge5" class="edge">
<title>linalg_transpose&#45;2323364363223201284:s&#45;&gt;OtherAttr&#45;6583887671197450110</title>
<path fill="none" stroke="black" d="M267.5,-253C267.5,-234.42 535.01,-205.31 637.07,-194.88"/>
<polygon fill="black" stroke="black" points="634,-197.33 638.52,-194.57 633.26,-193.91 634,-197.33"/>
</g>
<!-- linalg_transpose&#45;894880600859532342&#45;&gt;String&#45;5764174078010485202 -->
<g id="edge14" class="edge">
<title>linalg_transpose&#45;894880600859532342:s&#45;&gt;String&#45;5764174078010485202</title>
<path fill="none" stroke="black" d="M762,-253C762,-209 823.49,-246.64 853,-214 872.82,-192.07 880.37,-157.94 883.24,-135.29"/>
<polygon fill="black" stroke="black" points="884.27,-138.74 883.63,-133.48 880.85,-137.99 884.27,-138.74"/>
</g>
<!-- linalg_transpose&#45;894880600859532342&#45;&gt;linalg_transpose&#45;2323364363223201284 -->
<g id="edge11" class="edge">
<title>linalg_transpose&#45;894880600859532342:s&#45;&gt;linalg_transpose&#45;2323364363223201284</title>
<path fill="none" stroke="black" d="M689.5,-253C689.5,-208.89 355.93,-203.01 295,-223.5 280.82,-228.27 267.32,-237.87 256.73,-247.03"/>
<polygon fill="black" stroke="black" points="259.81,-243.19 256.39,-247.23 261.58,-246.21 259.81,-243.19"/>
</g>
<!-- linalg_transpose&#45;894880600859532342&#45;&gt;OtherAttr&#45;6583887671197450110 -->
<g id="edge13" class="edge">
<title>linalg_transpose&#45;894880600859532342:s&#45;&gt;OtherAttr&#45;6583887671197450110</title>
<path fill="none" stroke="black" d="M748.5,-253C748.5,-232.44 731.45,-217.24 713.88,-207.03"/>
<polygon fill="black" stroke="black" points="717.73,-208.58 713.04,-206.13 715.18,-210.98 717.73,-208.58"/>
</g>
<!-- linalg_transpose&#45;894880600859532342&#45;&gt;arith_constant&#45;6398359255883280810 -->
<g id="edge12" class="edge">
<title>linalg_transpose&#45;894880600859532342:s&#45;&gt;arith_constant&#45;6398359255883280810</title>
<path fill="none" stroke="black" d="M729,-253C729,-234.92 742.16,-221.02 757.31,-211"/>
<polygon fill="black" stroke="black" points="751.03,-212.86 756,-211.03 750.97,-209.36 751.03,-212.86"/>
</g>
<!-- arith_constant&#45;2523751931733994353&#45;&gt;String&#45;18350824605986613714 -->
<g id="edge8" class="edge">
<title>arith_constant&#45;2523751931733994353:s&#45;&gt;String&#45;18350824605986613714</title>
<path fill="none" stroke="black" d="M219,-174C219,-161.22 219,-146.96 219,-135.35"/>
<polygon fill="black" stroke="black" points="220.75,-138.51 219,-133.51 217.25,-138.51 220.75,-138.51"/>
</g>
<!-- arith_constant&#45;2523751931733994353&#45;&gt;OtherAttr&#45;12455668677761452563 -->
<g id="edge7" class="edge">
<title>arith_constant&#45;2523751931733994353:s&#45;&gt;OtherAttr&#45;12455668677761452563</title>
<path fill="none" stroke="black" d="M173,-174C173,-157.06 161.29,-142.98 148.21,-132.55"/>
<polygon fill="black" stroke="black" points="153.78,-134.03 148.63,-132.82 151.9,-136.98 153.78,-134.03"/>
</g>
<!-- OtherAttr&#45;6583887671197450110&#45;&gt;String&#45;6583887671197450110 -->
<g id="edge16" class="edge">
<title>OtherAttr&#45;6583887671197450110:s&#45;&gt;String&#45;6583887671197450110</title>
<path fill="none" stroke="black" d="M676,-174C676,-161.22 676,-146.96 676,-135.35"/>
<polygon fill="black" stroke="black" points="677.75,-138.51 676,-133.51 674.25,-138.51 677.75,-138.51"/>
</g>
<!-- OtherAttr&#45;12455668677761452563&#45;&gt;String&#45;12455668677761452563 -->
<g id="edge17" class="edge">
<title>OtherAttr&#45;12455668677761452563:s&#45;&gt;String&#45;12455668677761452563</title>
<path fill="none" stroke="black" d="M113,-95C113,-82.22 113,-67.96 113,-56.35"/>
<polygon fill="black" stroke="black" points="114.75,-59.51 113,-54.51 111.25,-59.51 114.75,-59.51"/>
</g>
<!-- arith_constant&#45;6398359255883280810&#45;&gt;String&#45;5764174078010485202 -->
<g id="edge10" class="edge">
<title>arith_constant&#45;6398359255883280810:s&#45;&gt;String&#45;5764174078010485202</title>
<path fill="none" stroke="black" d="M825,-174C825,-157.06 836.71,-142.98 849.79,-132.55"/>
<polygon fill="black" stroke="black" points="846.1,-136.98 849.37,-132.82 844.22,-134.03 846.1,-136.98"/>
</g>
<!-- arith_constant&#45;6398359255883280810&#45;&gt;OtherAttr&#45;15542684115063436391 -->
<g id="edge9" class="edge">
<title>arith_constant&#45;6398359255883280810:s&#45;&gt;OtherAttr&#45;15542684115063436391</title>
<path fill="none" stroke="black" d="M779,-174C779,-161.22 779,-146.96 779,-135.35"/>
<polygon fill="black" stroke="black" points="780.75,-138.51 779,-133.51 777.25,-138.51 780.75,-138.51"/>
</g>
<!-- OtherAttr&#45;15542684115063436391&#45;&gt;String&#45;15542684115063436391 -->
<g id="edge18" class="edge">
<title>OtherAttr&#45;15542684115063436391:s&#45;&gt;String&#45;15542684115063436391</title>
<path fill="none" stroke="black" d="M779,-95C779,-82.22 779,-67.96 779,-56.35"/>
<polygon fill="black" stroke="black" points="780.75,-59.51 779,-54.51 777.25,-59.51 780.75,-59.51"/>
</g>
<!-- String&#45;1845757586690957117 -->
<g id="node1" class="node">
<title>String&#45;1845757586690957117</title>
<g id="a_node1"><a xlink:title="String&#45;1845757586690957117: String&#45;1845757586690957117">
<path fill="white" stroke="none" d="M302.79,-95C302.79,-95 595.21,-95 595.21,-95 600.54,-95 605.88,-100.33 605.88,-105.67 605.88,-105.67 605.88,-116.33 605.88,-116.33 605.88,-121.67 600.54,-127 595.21,-127 595.21,-127 302.79,-127 302.79,-127 297.46,-127 292.12,-121.67 292.12,-116.33 292.12,-116.33 292.12,-105.67 292.12,-105.67 292.12,-100.33 297.46,-95 302.79,-95"/>
<text text-anchor="start" x="297.12" y="-105.2" font-family="Helvetica,sans-Serif" font-size="14.00">&quot;dense&lt;[[1., 2., 3.], [4., 5., 6.]]&gt; : tensor&lt;2x3xf64&gt;&quot;</text>
<path fill="none" stroke="black" d="M302.79,-95C302.79,-95 595.21,-95 595.21,-95 600.54,-95 605.88,-100.33 605.88,-105.67 605.88,-105.67 605.88,-116.33 605.88,-116.33 605.88,-121.67 600.54,-127 595.21,-127 595.21,-127 302.79,-127 302.79,-127 297.46,-127 292.12,-121.67 292.12,-116.33 292.12,-116.33 292.12,-105.67 292.12,-105.67 292.12,-100.33 297.46,-95 302.79,-95"/>
</a>
</g>
</g>
<!-- String&#45;15542684115063436391 -->
<g id="node2" class="node">
<title>String&#45;15542684115063436391</title>
<g id="a_node2"><a xlink:title="String&#45;15542684115063436391: String&#45;15542684115063436391">
<path fill="white" stroke="none" d="M690.92,-16C690.92,-16 867.08,-16 867.08,-16 872.42,-16 877.75,-21.33 877.75,-26.67 877.75,-26.67 877.75,-37.33 877.75,-37.33 877.75,-42.67 872.42,-48 867.08,-48 867.08,-48 690.92,-48 690.92,-48 685.58,-48 680.25,-42.67 680.25,-37.33 680.25,-37.33 680.25,-26.67 680.25,-26.67 680.25,-21.33 685.58,-16 690.92,-16"/>
<text text-anchor="start" x="685.25" y="-26.2" font-family="Helvetica,sans-Serif" font-size="14.00">&quot;dense&lt;0.&gt; : tensor&lt;3x2xf64&gt;&quot;</text>
<path fill="none" stroke="black" d="M690.92,-16C690.92,-16 867.08,-16 867.08,-16 872.42,-16 877.75,-21.33 877.75,-26.67 877.75,-26.67 877.75,-37.33 877.75,-37.33 877.75,-42.67 872.42,-48 867.08,-48 867.08,-48 690.92,-48 690.92,-48 685.58,-48 680.25,-42.67 680.25,-37.33 680.25,-37.33 680.25,-26.67 680.25,-26.67 680.25,-21.33 685.58,-16 690.92,-16"/>
</a>
</g>
</g>
<!-- String&#45;6583887671197450110 -->
<g id="node3" class="node">
<title>String&#45;6583887671197450110</title>
<g id="a_node3"><a xlink:title="String&#45;6583887671197450110: String&#45;6583887671197450110">
<path fill="white" stroke="none" d="M628.79,-95C628.79,-95 723.21,-95 723.21,-95 728.54,-95 733.88,-100.33 733.88,-105.67 733.88,-105.67 733.88,-116.33 733.88,-116.33 733.88,-121.67 728.54,-127 723.21,-127 723.21,-127 628.79,-127 628.79,-127 623.46,-127 618.12,-121.67 618.12,-116.33 618.12,-116.33 618.12,-105.67 618.12,-105.67 618.12,-100.33 623.46,-95 628.79,-95"/>
<text text-anchor="start" x="623.12" y="-105.2" font-family="Helvetica,sans-Serif" font-size="14.00">&quot;array&lt;i64: 1, 0&gt;&quot;</text>
<path fill="none" stroke="black" d="M628.79,-95C628.79,-95 723.21,-95 723.21,-95 728.54,-95 733.88,-100.33 733.88,-105.67 733.88,-105.67 733.88,-116.33 733.88,-116.33 733.88,-121.67 728.54,-127 723.21,-127 723.21,-127 628.79,-127 628.79,-127 623.46,-127 618.12,-121.67 618.12,-116.33 618.12,-116.33 618.12,-105.67 618.12,-105.67 618.12,-100.33 623.46,-95 628.79,-95"/>
</a>
</g>
</g>
<!-- String&#45;5764174078010485202 -->
<g id="node4" class="node">
<title>String&#45;5764174078010485202</title>
<g id="a_node4"><a xlink:title="String&#45;5764174078010485202: String&#45;5764174078010485202">
<path fill="white" stroke="none" d="M834.79,-95C834.79,-95 935.21,-95 935.21,-95 940.54,-95 945.88,-100.33 945.88,-105.67 945.88,-105.67 945.88,-116.33 945.88,-116.33 945.88,-121.67 940.54,-127 935.21,-127 935.21,-127 834.79,-127 834.79,-127 829.46,-127 824.12,-121.67 824.12,-116.33 824.12,-116.33 824.12,-105.67 824.12,-105.67 824.12,-100.33 829.46,-95 834.79,-95"/>
<text text-anchor="start" x="829.12" y="-105.2" font-family="Helvetica,sans-Serif" font-size="14.00">&quot;tensor&lt;3x2xf64&gt;&quot;</text>
<path fill="none" stroke="black" d="M834.79,-95C834.79,-95 935.21,-95 935.21,-95 940.54,-95 945.88,-100.33 945.88,-105.67 945.88,-105.67 945.88,-116.33 945.88,-116.33 945.88,-121.67 940.54,-127 935.21,-127 935.21,-127 834.79,-127 834.79,-127 829.46,-127 824.12,-121.67 824.12,-116.33 824.12,-116.33 824.12,-105.67 824.12,-105.67 824.12,-100.33 829.46,-95 834.79,-95"/>
</a>
</g>
</g>
<!-- String&#45;12455668677761452563 -->
<g id="node5" class="node">
<title>String&#45;12455668677761452563</title>
<g id="a_node5"><a xlink:title="String&#45;12455668677761452563: String&#45;12455668677761452563">
<path fill="white" stroke="none" d="M24.92,-16C24.92,-16 201.08,-16 201.08,-16 206.42,-16 211.75,-21.33 211.75,-26.67 211.75,-26.67 211.75,-37.33 211.75,-37.33 211.75,-42.67 206.42,-48 201.08,-48 201.08,-48 24.92,-48 24.92,-48 19.58,-48 14.25,-42.67 14.25,-37.33 14.25,-37.33 14.25,-26.67 14.25,-26.67 14.25,-21.33 19.58,-16 24.92,-16"/>
<text text-anchor="start" x="19.25" y="-26.2" font-family="Helvetica,sans-Serif" font-size="14.00">&quot;dense&lt;0.&gt; : tensor&lt;2x3xf64&gt;&quot;</text>
<path fill="none" stroke="black" d="M24.92,-16C24.92,-16 201.08,-16 201.08,-16 206.42,-16 211.75,-21.33 211.75,-26.67 211.75,-26.67 211.75,-37.33 211.75,-37.33 211.75,-42.67 206.42,-48 201.08,-48 201.08,-48 24.92,-48 24.92,-48 19.58,-48 14.25,-42.67 14.25,-37.33 14.25,-37.33 14.25,-26.67 14.25,-26.67 14.25,-21.33 19.58,-16 24.92,-16"/>
</a>
</g>
</g>
<!-- String&#45;18350824605986613714 -->
<g id="node6" class="node">
<title>String&#45;18350824605986613714</title>
<g id="a_node6"><a xlink:title="String&#45;18350824605986613714: String&#45;18350824605986613714">
<path fill="white" stroke="none" d="M168.79,-95C168.79,-95 269.21,-95 269.21,-95 274.54,-95 279.88,-100.33 279.88,-105.67 279.88,-105.67 279.88,-116.33 279.88,-116.33 279.88,-121.67 274.54,-127 269.21,-127 269.21,-127 168.79,-127 168.79,-127 163.46,-127 158.12,-121.67 158.12,-116.33 158.12,-116.33 158.12,-105.67 158.12,-105.67 158.12,-100.33 163.46,-95 168.79,-95"/>
<text text-anchor="start" x="163.12" y="-105.2" font-family="Helvetica,sans-Serif" font-size="14.00">&quot;tensor&lt;2x3xf64&gt;&quot;</text>
<path fill="none" stroke="black" d="M168.79,-95C168.79,-95 269.21,-95 269.21,-95 274.54,-95 279.88,-100.33 279.88,-105.67 279.88,-105.67 279.88,-116.33 279.88,-116.33 279.88,-121.67 274.54,-127 269.21,-127 269.21,-127 168.79,-127 168.79,-127 163.46,-127 158.12,-121.67 158.12,-116.33 158.12,-116.33 158.12,-105.67 158.12,-105.67 158.12,-100.33 163.46,-95 168.79,-95"/>
</a>
</g>
</g>
<!-- arith_constant&#45;17545585994202306336 -->
<g id="node7" class="node">
<title>arith_constant&#45;17545585994202306336</title>
<g id="a_node7"><a xlink:title="12: arith_constant&#45;17545585994202306336">
<path fill="white" stroke="none" d="M303.67,-253C303.67,-253 376.33,-253 376.33,-253 381.67,-253 387,-258.33 387,-263.67 387,-263.67 387,-274.33 387,-274.33 387,-279.67 381.67,-285 376.33,-285 376.33,-285 303.67,-285 303.67,-285 298.33,-285 293,-279.67 293,-274.33 293,-274.33 293,-263.67 293,-263.67 293,-258.33 298.33,-253 303.67,-253"/>
<text text-anchor="start" x="297.62" y="-263.2" font-family="Helvetica,sans-Serif" font-size="14.00">arith_constant</text>
<path fill="none" stroke="black" d="M303.67,-253C303.67,-253 376.33,-253 376.33,-253 381.67,-253 387,-258.33 387,-263.67 387,-263.67 387,-274.33 387,-274.33 387,-279.67 381.67,-285 376.33,-285 376.33,-285 303.67,-285 303.67,-285 298.33,-285 293,-279.67 293,-274.33 293,-274.33 293,-263.67 293,-263.67 293,-258.33 298.33,-253 303.67,-253"/>
</a>
</g>
</g>
<!-- OtherAttr&#45;1845757586690957117 -->
<g id="node8" class="node">
<title>OtherAttr&#45;1845757586690957117</title>
<g id="a_node8"><a xlink:title="1: OtherAttr&#45;1845757586690957117">
<path fill="white" stroke="none" d="M375.92,-174C375.92,-174 420.08,-174 420.08,-174 425.42,-174 430.75,-179.33 430.75,-184.67 430.75,-184.67 430.75,-195.33 430.75,-195.33 430.75,-200.67 425.42,-206 420.08,-206 420.08,-206 375.92,-206 375.92,-206 370.58,-206 365.25,-200.67 365.25,-195.33 365.25,-195.33 365.25,-184.67 365.25,-184.67 365.25,-179.33 370.58,-174 375.92,-174"/>
<text text-anchor="start" x="370.25" y="-184.2" font-family="Helvetica,sans-Serif" font-size="14.00">OtherAttr</text>
<path fill="none" stroke="black" d="M375.92,-174C375.92,-174 420.08,-174 420.08,-174 425.42,-174 430.75,-179.33 430.75,-184.67 430.75,-184.67 430.75,-195.33 430.75,-195.33 430.75,-200.67 425.42,-206 420.08,-206 420.08,-206 375.92,-206 375.92,-206 370.58,-206 365.25,-200.67 365.25,-195.33 365.25,-195.33 365.25,-184.67 365.25,-184.67 365.25,-179.33 370.58,-174 375.92,-174"/>
</a>
</g>
</g>
<!-- linalg_transpose&#45;2323364363223201284 -->
<g id="node9" class="node">
<title>linalg_transpose&#45;2323364363223201284</title>
<g id="a_node9"><a xlink:title="12: linalg_transpose&#45;2323364363223201284">
<path fill="white" stroke="none" d="M191.67,-253C191.67,-253 278.33,-253 278.33,-253 283.67,-253 289,-258.33 289,-263.67 289,-263.67 289,-274.33 289,-274.33 289,-279.67 283.67,-285 278.33,-285 278.33,-285 191.67,-285 191.67,-285 186.33,-285 181,-279.67 181,-274.33 181,-274.33 181,-263.67 181,-263.67 181,-258.33 186.33,-253 191.67,-253"/>
<text text-anchor="start" x="185.88" y="-263.2" font-family="Helvetica,sans-Serif" font-size="14.00">linalg_transpose</text>
<path fill="none" stroke="black" d="M191.67,-253C191.67,-253 278.33,-253 278.33,-253 283.67,-253 289,-258.33 289,-263.67 289,-263.67 289,-274.33 289,-274.33 289,-279.67 283.67,-285 278.33,-285 278.33,-285 191.67,-285 191.67,-285 186.33,-285 181,-279.67 181,-274.33 181,-274.33 181,-263.67 181,-263.67 181,-258.33 186.33,-253 191.67,-253"/>
</a>
</g>
</g>
<!-- linalg_transpose&#45;894880600859532342 -->
<g id="node10" class="node">
<title>linalg_transpose&#45;894880600859532342</title>
<g id="a_node10"><a xlink:title="9: linalg_transpose&#45;894880600859532342">
<path fill="white" stroke="none" d="M672.67,-253C672.67,-253 759.33,-253 759.33,-253 764.67,-253 770,-258.33 770,-263.67 770,-263.67 770,-274.33 770,-274.33 770,-279.67 764.67,-285 759.33,-285 759.33,-285 672.67,-285 672.67,-285 667.33,-285 662,-279.67 662,-274.33 662,-274.33 662,-263.67 662,-263.67 662,-258.33 667.33,-253 672.67,-253"/>
<text text-anchor="start" x="666.88" y="-263.2" font-family="Helvetica,sans-Serif" font-size="14.00">linalg_transpose</text>
<path fill="none" stroke="black" d="M672.67,-253C672.67,-253 759.33,-253 759.33,-253 764.67,-253 770,-258.33 770,-263.67 770,-263.67 770,-274.33 770,-274.33 770,-279.67 764.67,-285 759.33,-285 759.33,-285 672.67,-285 672.67,-285 667.33,-285 662,-279.67 662,-274.33 662,-274.33 662,-263.67 662,-263.67 662,-258.33 667.33,-253 672.67,-253"/>
</a>
</g>
</g>
<!-- arith_constant&#45;2523751931733994353 -->
<g id="node11" class="node">
<title>arith_constant&#45;2523751931733994353</title>
<g id="a_node11"><a xlink:title="6: arith_constant&#45;2523751931733994353">
<path fill="white" stroke="none" d="M159.67,-174C159.67,-174 232.33,-174 232.33,-174 237.67,-174 243,-179.33 243,-184.67 243,-184.67 243,-195.33 243,-195.33 243,-200.67 237.67,-206 232.33,-206 232.33,-206 159.67,-206 159.67,-206 154.33,-206 149,-200.67 149,-195.33 149,-195.33 149,-184.67 149,-184.67 149,-179.33 154.33,-174 159.67,-174"/>
<text text-anchor="start" x="153.62" y="-184.2" font-family="Helvetica,sans-Serif" font-size="14.00">arith_constant</text>
<path fill="none" stroke="black" d="M159.67,-174C159.67,-174 232.33,-174 232.33,-174 237.67,-174 243,-179.33 243,-184.67 243,-184.67 243,-195.33 243,-195.33 243,-200.67 237.67,-206 232.33,-206 232.33,-206 159.67,-206 159.67,-206 154.33,-206 149,-200.67 149,-195.33 149,-195.33 149,-184.67 149,-184.67 149,-179.33 154.33,-174 159.67,-174"/>
</a>
</g>
</g>
<!-- OtherAttr&#45;6583887671197450110 -->
<g id="node12" class="node">
<title>OtherAttr&#45;6583887671197450110</title>
<g id="a_node12"><a xlink:title="10: OtherAttr&#45;6583887671197450110">
<path fill="white" stroke="none" d="M653.92,-174C653.92,-174 698.08,-174 698.08,-174 703.42,-174 708.75,-179.33 708.75,-184.67 708.75,-184.67 708.75,-195.33 708.75,-195.33 708.75,-200.67 703.42,-206 698.08,-206 698.08,-206 653.92,-206 653.92,-206 648.58,-206 643.25,-200.67 643.25,-195.33 643.25,-195.33 643.25,-184.67 643.25,-184.67 643.25,-179.33 648.58,-174 653.92,-174"/>
<text text-anchor="start" x="648.25" y="-184.2" font-family="Helvetica,sans-Serif" font-size="14.00">OtherAttr</text>
<path fill="none" stroke="black" d="M653.92,-174C653.92,-174 698.08,-174 698.08,-174 703.42,-174 708.75,-179.33 708.75,-184.67 708.75,-184.67 708.75,-195.33 708.75,-195.33 708.75,-200.67 703.42,-206 698.08,-206 698.08,-206 653.92,-206 653.92,-206 648.58,-206 643.25,-200.67 643.25,-195.33 643.25,-195.33 643.25,-184.67 643.25,-184.67 643.25,-179.33 648.58,-174 653.92,-174"/>
</a>
</g>
</g>
<!-- OtherAttr&#45;12455668677761452563 -->
<g id="node13" class="node">
<title>OtherAttr&#45;12455668677761452563</title>
<g id="a_node13"><a xlink:title="7: OtherAttr&#45;12455668677761452563">
<path fill="white" stroke="none" d="M90.92,-95C90.92,-95 135.08,-95 135.08,-95 140.42,-95 145.75,-100.33 145.75,-105.67 145.75,-105.67 145.75,-116.33 145.75,-116.33 145.75,-121.67 140.42,-127 135.08,-127 135.08,-127 90.92,-127 90.92,-127 85.58,-127 80.25,-121.67 80.25,-116.33 80.25,-116.33 80.25,-105.67 80.25,-105.67 80.25,-100.33 85.58,-95 90.92,-95"/>
<text text-anchor="start" x="85.25" y="-105.2" font-family="Helvetica,sans-Serif" font-size="14.00">OtherAttr</text>
<path fill="none" stroke="black" d="M90.92,-95C90.92,-95 135.08,-95 135.08,-95 140.42,-95 145.75,-100.33 145.75,-105.67 145.75,-105.67 145.75,-116.33 145.75,-116.33 145.75,-121.67 140.42,-127 135.08,-127 135.08,-127 90.92,-127 90.92,-127 85.58,-127 80.25,-121.67 80.25,-116.33 80.25,-116.33 80.25,-105.67 80.25,-105.67 80.25,-100.33 85.58,-95 90.92,-95"/>
</a>
</g>
</g>
<!-- arith_constant&#45;6398359255883280810 -->
<g id="node14" class="node">
<title>arith_constant&#45;6398359255883280810</title>
<g id="a_node14"><a xlink:title="3: arith_constant&#45;6398359255883280810">
<path fill="white" stroke="none" d="M765.67,-174C765.67,-174 838.33,-174 838.33,-174 843.67,-174 849,-179.33 849,-184.67 849,-184.67 849,-195.33 849,-195.33 849,-200.67 843.67,-206 838.33,-206 838.33,-206 765.67,-206 765.67,-206 760.33,-206 755,-200.67 755,-195.33 755,-195.33 755,-184.67 755,-184.67 755,-179.33 760.33,-174 765.67,-174"/>
<text text-anchor="start" x="759.62" y="-184.2" font-family="Helvetica,sans-Serif" font-size="14.00">arith_constant</text>
<path fill="none" stroke="black" d="M765.67,-174C765.67,-174 838.33,-174 838.33,-174 843.67,-174 849,-179.33 849,-184.67 849,-184.67 849,-195.33 849,-195.33 849,-200.67 843.67,-206 838.33,-206 838.33,-206 765.67,-206 765.67,-206 760.33,-206 755,-200.67 755,-195.33 755,-195.33 755,-184.67 755,-184.67 755,-179.33 760.33,-174 765.67,-174"/>
</a>
</g>
</g>
<!-- OtherAttr&#45;15542684115063436391 -->
<g id="node15" class="node">
<title>OtherAttr&#45;15542684115063436391</title>
<g id="a_node15"><a xlink:title="4: OtherAttr&#45;15542684115063436391">
<path fill="white" stroke="none" d="M756.92,-95C756.92,-95 801.08,-95 801.08,-95 806.42,-95 811.75,-100.33 811.75,-105.67 811.75,-105.67 811.75,-116.33 811.75,-116.33 811.75,-121.67 806.42,-127 801.08,-127 801.08,-127 756.92,-127 756.92,-127 751.58,-127 746.25,-121.67 746.25,-116.33 746.25,-116.33 746.25,-105.67 746.25,-105.67 746.25,-100.33 751.58,-95 756.92,-95"/>
<text text-anchor="start" x="751.25" y="-105.2" font-family="Helvetica,sans-Serif" font-size="14.00">OtherAttr</text>
<path fill="none" stroke="black" d="M756.92,-95C756.92,-95 801.08,-95 801.08,-95 806.42,-95 811.75,-100.33 811.75,-105.67 811.75,-105.67 811.75,-116.33 811.75,-116.33 811.75,-121.67 806.42,-127 801.08,-127 801.08,-127 756.92,-127 756.92,-127 751.58,-127 746.25,-121.67 746.25,-116.33 746.25,-116.33 746.25,-105.67 746.25,-105.67 746.25,-100.33 751.58,-95 756.92,-95"/>
</a>
</g>
</g>
</g>
</svg>
