<?xml version="1.0" encoding="UTF-8" standalone="no"?>
<!DOCTYPE svg PUBLIC "-//W3C//DTD SVG 1.1//EN"
 "http://www.w3.org/Graphics/SVG/1.1/DTD/svg11.dtd">
<!-- Generated by graphviz version 12.0.0 (20240704.0754)
 -->
<!-- Pages: 1 -->
<svg width="481pt" height="309pt"
 viewBox="0.00 0.00 481.00 309.00" xmlns="http://www.w3.org/2000/svg" xmlns:xlink="http://www.w3.org/1999/xlink">
<g id="graph0" class="graph" transform="scale(1 1) rotate(0) translate(4 305)">
<polygon fill="white" stroke="none" points="-4,4 -4,-305 477,-305 477,4 -4,4"/>
<g id="clust1" class="cluster">
<title>outer_cluster_6</title>
</g>
<g id="clust2" class="cluster">
<title>cluster_6</title>
<path fill="#ffffb3" stroke="black" stroke-dasharray="5,2" d="M45,-248C45,-248 269,-248 269,-248 275,-248 281,-254 281,-260 281,-260 281,-278 281,-278 281,-284 275,-290 269,-290 269,-290 45,-290 45,-290 39,-290 33,-284 33,-278 33,-278 33,-260 33,-260 33,-254 39,-248 45,-248"/>
</g>
<g id="clust4" class="cluster">
<title>outer_cluster_9</title>
</g>
<g id="clust5" class="cluster">
<title>cluster_9</title>
<path fill="#ffffb3" stroke="black" stroke-dasharray="5,2" d="M326,-248C326,-248 378,-248 378,-248 384,-248 390,-254 390,-260 390,-260 390,-278 390,-278 390,-284 384,-290 378,-290 378,-290 326,-290 326,-290 320,-290 314,-284 314,-278 314,-278 314,-260 314,-260 314,-254 320,-248 326,-248"/>
</g>
<g id="clust7" class="cluster">
<title>outer_cluster_0</title>
</g>
<g id="clust8" class="cluster">
<title>cluster_0</title>
<path fill="#ffffb3" stroke="black" stroke-dasharray="5,2" d="M140,-169C140,-169 216,-169 216,-169 222,-169 228,-175 228,-181 228,-181 228,-199 228,-199 228,-205 222,-211 216,-211 216,-211 140,-211 140,-211 134,-211 128,-205 128,-199 128,-199 128,-181 128,-181 128,-175 134,-169 140,-169"/>
</g>
<g id="clust10" class="cluster">
<title>outer_cluster_3</title>
</g>
<g id="clust11" class="cluster">
<title>cluster_3</title>
<path fill="#ffffb3" stroke="black" stroke-dasharray="5,2" d="M324,-169C324,-169 400,-169 400,-169 406,-169 412,-175 412,-181 412,-181 412,-199 412,-199 412,-205 406,-211 400,-211 400,-211 324,-211 324,-211 318,-211 312,-205 312,-199 312,-199 312,-181 312,-181 312,-175 318,-169 324,-169"/>
</g>
<g id="clust13" class="cluster">
<title>outer_cluster_1</title>
</g>
<g id="clust14" class="cluster">
<title>cluster_1</title>
<path fill="#bebada" stroke="black" stroke-dasharray="5,2" d="M150,-90C150,-90 194,-90 194,-90 200,-90 206,-96 206,-102 206,-102 206,-120 206,-120 206,-126 200,-132 194,-132 194,-132 150,-132 150,-132 144,-132 138,-126 138,-120 138,-120 138,-102 138,-102 138,-96 144,-90 150,-90"/>
</g>
<g id="clust16" class="cluster">
<title>outer_cluster_7</title>
</g>
<g id="clust17" class="cluster">
<title>cluster_7</title>
<path fill="#bebada" stroke="black" stroke-dasharray="5,2" d="M246,-169C246,-169 294,-169 294,-169 300,-169 306,-175 306,-181 306,-181 306,-199 306,-199 306,-205 300,-211 294,-211 294,-211 246,-211 246,-211 240,-211 234,-205 234,-199 234,-199 234,-181 234,-181 234,-175 240,-169 246,-169"/>
</g>
<g id="clust19" class="cluster">
<title>outer_cluster_11</title>
</g>
<g id="clust20" class="cluster">
<title>cluster_11</title>
<path fill="#bebada" stroke="black" stroke-dasharray="5,2" d="M34,-90C34,-90 78,-90 78,-90 84,-90 90,-96 90,-102 90,-102 90,-120 90,-120 90,-126 84,-132 78,-132 78,-132 34,-132 34,-132 28,-132 22,-126 22,-120 22,-120 22,-102 22,-102 22,-96 28,-90 34,-90"/>
</g>
<g id="clust22" class="cluster">
<title>outer_cluster_4</title>
</g>
<g id="clust23" class="cluster">
<title>cluster_4</title>
<path fill="#bebada" stroke="black" stroke-dasharray="5,2" d="M406,-90C406,-90 450,-90 450,-90 456,-90 462,-96 462,-102 462,-102 462,-120 462,-120 462,-126 456,-132 450,-132 450,-132 406,-132 406,-132 400,-132 394,-126 394,-120 394,-120 394,-102 394,-102 394,-96 400,-90 406,-90"/>
</g>
<g id="clust25" class="cluster">
<title>outer_cluster_f64&#45;16958304396863602688</title>
</g>
<g id="clust26" class="cluster">
<title>cluster_f64&#45;16958304396863602688</title>
<path fill="#fb8072" stroke="black" stroke-dasharray="5,2" d="M172,-11C172,-11 208,-11 208,-11 214,-11 220,-17 220,-23 220,-23 220,-41 220,-41 220,-47 214,-53 208,-53 208,-53 172,-53 172,-53 166,-53 160,-47 160,-41 160,-41 160,-23 160,-23 160,-17 166,-11 172,-11"/>
</g>
<g id="clust28" class="cluster">
<title>outer_cluster_f64&#45;4611686018427387904</title>
</g>
<g id="clust29" class="cluster">
<title>cluster_f64&#45;4611686018427387904</title>
<path fill="#fb8072" stroke="black" stroke-dasharray="5,2" d="M395,-11C395,-11 431,-11 431,-11 437,-11 443,-17 443,-23 443,-23 443,-41 443,-41 443,-47 437,-53 431,-53 431,-53 395,-53 395,-53 389,-53 383,-47 383,-41 383,-41 383,-23 383,-23 383,-17 389,-11 395,-11"/>
</g>
<g id="clust31" class="cluster">
<title>outer_cluster_f64&#45;13761874561337393152</title>
</g>
<g id="clust32" class="cluster">
<title>cluster_f64&#45;13761874561337393152</title>
<path fill="#fb8072" stroke="black" stroke-dasharray="5,2" d="M23,-11C23,-11 59,-11 59,-11 65,-11 71,-17 71,-23 71,-23 71,-41 71,-41 71,-47 65,-53 59,-53 59,-53 23,-53 23,-53 17,-53 11,-47 11,-41 11,-41 11,-23 11,-23 11,-17 17,-11 23,-11"/>
</g>
<g id="clust34" class="cluster">
<title>outer_cluster_String&#45;18036887277116069162</title>
</g>
<g id="clust35" class="cluster">
<title>cluster_String&#45;18036887277116069162</title>
<path fill="#80b1d3" stroke="black" stroke-dasharray="5,2" d="M106,-11C106,-11 142,-11 142,-11 148,-11 154,-17 154,-23 154,-23 154,-41 154,-41 154,-47 148,-53 142,-53 142,-53 106,-53 106,-53 100,-53 94,-47 94,-41 94,-41 94,-23 94,-23 94,-17 100,-11 106,-11"/>
</g>
<g id="clust37" class="cluster">
<title>outer_cluster_String&#45;9670903108499433938</title>
</g>
<g id="clust38" class="cluster">
<title>cluster_String&#45;9670903108499433938</title>
<path fill="#80b1d3" stroke="black" stroke-dasharray="5,2" d="M224,-90C224,-90 364,-90 364,-90 370,-90 376,-96 376,-102 376,-102 376,-120 376,-120 376,-126 370,-132 364,-132 364,-132 224,-132 224,-132 218,-132 212,-126 212,-120 212,-120 212,-102 212,-102 212,-96 218,-90 224,-90"/>
</g>
<!-- arith_constant&#45;11564207445834038490&#45;&gt;FloatAttr&#45;2022756157680705081 -->
<g id="edge1" class="edge">
<title>arith_constant&#45;11564207445834038490:s&#45;&gt;FloatAttr&#45;2022756157680705081</title>
<path fill="none" stroke="black" d="M60,-253C60,-211.51 58.25,-163.18 57.06,-135.24"/>
<polygon fill="black" stroke="black" points="59.08,-138.34 56.92,-133.51 55.59,-138.64 59.08,-138.34"/>
</g>
<!-- arith_constant&#45;11564207445834038490&#45;&gt;String&#45;18036887277116069162 -->
<g id="edge2" class="edge">
<title>arith_constant&#45;11564207445834038490:s&#45;&gt;String&#45;18036887277116069162</title>
<path fill="none" stroke="black" d="M106,-253C106,-179.22 94.18,-159.83 106,-87 107.71,-76.44 111.2,-65.15 114.65,-55.64"/>
<polygon fill="black" stroke="black" points="114.7,-59.64 115.25,-54.37 111.53,-58.15 114.7,-59.64"/>
</g>
<!-- FloatAttr&#45;2022756157680705081&#45;&gt;String&#45;18036887277116069162 -->
<g id="edge23" class="edge">
<title>FloatAttr&#45;2022756157680705081:s&#45;&gt;String&#45;18036887277116069162</title>
<path fill="none" stroke="black" d="M70.5,-95C70.5,-78.68 81.25,-64.54 93.12,-53.89"/>
<polygon fill="black" stroke="black" points="91.15,-58.95 93.03,-54 88.47,-56.7 91.15,-58.95"/>
</g>
<!-- FloatAttr&#45;2022756157680705081&#45;&gt;f64&#45;13761874561337393152 -->
<g id="edge22" class="edge">
<title>FloatAttr&#45;2022756157680705081:s&#45;&gt;f64&#45;13761874561337393152</title>
<path fill="none" stroke="black" d="M41,-95C41,-82.22 41,-67.96 41,-56.35"/>
<polygon fill="black" stroke="black" points="42.75,-59.51 41,-54.51 39.25,-59.51 42.75,-59.51"/>
</g>
<!-- arith_addf&#45;14329298399991804034&#45;&gt;String&#45;18036887277116069162 -->
<g id="edge6" class="edge">
<title>arith_addf&#45;14329298399991804034:s&#45;&gt;String&#45;18036887277116069162</title>
<path fill="none" stroke="black" d="M198.5,-253C198.5,-212.44 137.7,-248.26 116,-214 99.79,-188.41 112.5,-98.86 119.79,-56.09"/>
<polygon fill="black" stroke="black" points="120.38,-59.73 120.37,-54.43 117.07,-58.58 120.38,-59.73"/>
</g>
<!-- arith_addf&#45;14329298399991804034&#45;&gt;arith_constant&#45;1939104117755594322 -->
<g id="edge3" class="edge">
<title>arith_addf&#45;14329298399991804034:s&#45;&gt;arith_constant&#45;1939104117755594322</title>
<path fill="none" stroke="black" d="M152,-253C152,-181.96 239.6,-236.43 307,-214 307.88,-213.71 308.76,-213.41 309.64,-213.1"/>
<polygon fill="black" stroke="black" points="309.99,-214.84 314.11,-211.51 308.81,-211.54 309.99,-214.84"/>
</g>
<!-- arith_addf&#45;14329298399991804034&#45;&gt;arith_constant&#45;17859523323072850888 -->
<g id="edge4" class="edge">
<title>arith_addf&#45;14329298399991804034:s&#45;&gt;arith_constant&#45;17859523323072850888</title>
<path fill="none" stroke="black" d="M177.5,-253C177.5,-240.22 177.61,-225.96 177.72,-214.35"/>
<polygon fill="black" stroke="black" points="179.41,-217.55 177.76,-212.51 175.91,-217.48 179.41,-217.55"/>
</g>
<!-- arith_addf&#45;14329298399991804034&#45;&gt;OtherAttr&#45;9670903108499433938 -->
<g id="edge5" class="edge">
<title>arith_addf&#45;14329298399991804034:s&#45;&gt;OtherAttr&#45;9670903108499433938</title>
<path fill="none" stroke="black" d="M190,-253C190,-241.01 212.72,-224.19 233.95,-211.1"/>
<polygon fill="black" stroke="black" points="234.39,-217.58 233.69,-212.33 230.96,-216.87 234.39,-217.58"/>
</g>
<!-- arith_constant&#45;1939104117755594322&#45;&gt;String&#45;18036887277116069162 -->
<g id="edge18" class="edge">
<title>arith_constant&#45;1939104117755594322:s&#45;&gt;String&#45;18036887277116069162</title>
<path fill="none" stroke="black" d="M385,-174C385,-135.17 403.77,-115.13 377,-87 343.27,-51.55 204.77,-73.3 159,-56 158.72,-55.89 158.43,-55.78 158.15,-55.67"/>
<polygon fill="black" stroke="black" points="158.9,-54.09 153.63,-53.62 157.46,-57.28 158.9,-54.09"/>
</g>
<!-- arith_constant&#45;1939104117755594322&#45;&gt;FloatAttr&#45;9670903108499433938 -->
<g id="edge17" class="edge">
<title>arith_constant&#45;1939104117755594322:s&#45;&gt;FloatAttr&#45;9670903108499433938</title>
<path fill="none" stroke="black" d="M339,-174C339,-167.51 364.82,-150.02 388.65,-135.27"/>
<polygon fill="black" stroke="black" points="389.37,-136.88 392.72,-132.77 387.54,-133.9 389.37,-136.88"/>
</g>
<!-- arith_constant&#45;17859523323072850888&#45;&gt;String&#45;18036887277116069162 -->
<g id="edge16" class="edge">
<title>arith_constant&#45;17859523323072850888:s&#45;&gt;String&#45;18036887277116069162</title>
<path fill="none" stroke="black" d="M201,-174C201,-140.69 155.12,-162.95 137,-135 121.69,-111.38 120.31,-78.16 121.5,-56.12"/>
<polygon fill="black" stroke="black" points="122.77,-59.69 121.73,-54.5 119.3,-59.2 122.77,-59.69"/>
</g>
<!-- arith_constant&#45;17859523323072850888&#45;&gt;FloatAttr&#45;8967184907069507595 -->
<g id="edge15" class="edge">
<title>arith_constant&#45;17859523323072850888:s&#45;&gt;FloatAttr&#45;8967184907069507595</title>
<path fill="none" stroke="black" d="M155,-174C155,-160.72 158.67,-146.39 162.6,-134.86"/>
<polygon fill="black" stroke="black" points="162.91,-138.69 163.21,-133.4 159.68,-137.34 162.91,-138.69"/>
</g>
<!-- OtherAttr&#45;9670903108499433938&#45;&gt;String&#45;9670903108499433938 -->
<g id="edge21" class="edge">
<title>OtherAttr&#45;9670903108499433938:s&#45;&gt;String&#45;9670903108499433938</title>
<path fill="none" stroke="black" d="M270,-174C270,-160.34 275.13,-146.05 280.65,-134.65"/>
<polygon fill="black" stroke="black" points="280.17,-138.31 281.66,-133.23 277.33,-136.28 280.17,-138.31"/>
</g>
<!-- arith_addf&#45;4162801374681909104&#45;&gt;String&#45;18036887277116069162 -->
<g id="edge10" class="edge">
<title>arith_addf&#45;4162801374681909104:s&#45;&gt;String&#45;18036887277116069162</title>
<path fill="none" stroke="black" d="M272.5,-253C272.5,-186.05 168.19,-266.78 127,-214 108.33,-190.08 116.12,-99.27 121.07,-56.09"/>
<polygon fill="black" stroke="black" points="122,-59.74 121.46,-54.47 118.59,-58.93 122,-59.74"/>
</g>
<!-- arith_addf&#45;4162801374681909104&#45;&gt;arith_constant&#45;1939104117755594322 -->
<g id="edge8" class="edge">
<title>arith_addf&#45;4162801374681909104:s&#45;&gt;arith_constant&#45;1939104117755594322</title>
<path fill="none" stroke="black" d="M251.5,-253C251.5,-245.46 283.17,-228.22 312.61,-213.83"/>
<polygon fill="black" stroke="black" points="313.36,-215.41 317.09,-211.66 311.83,-212.27 313.36,-215.41"/>
</g>
<!-- arith_addf&#45;4162801374681909104&#45;&gt;arith_constant&#45;17859523323072850888 -->
<g id="edge7" class="edge">
<title>arith_addf&#45;4162801374681909104:s&#45;&gt;arith_constant&#45;17859523323072850888</title>
<path fill="none" stroke="black" d="M226,-253C226,-237.28 216.23,-223.12 205.5,-212.32"/>
<polygon fill="black" stroke="black" points="210.04,-213.74 205.05,-211.95 207.84,-216.46 210.04,-213.74"/>
</g>
<!-- arith_addf&#45;4162801374681909104&#45;&gt;OtherAttr&#45;9670903108499433938 -->
<g id="edge9" class="edge">
<title>arith_addf&#45;4162801374681909104:s&#45;&gt;OtherAttr&#45;9670903108499433938</title>
<path fill="none" stroke="black" d="M264,-253C264,-240.04 265.31,-225.63 266.71,-213.97"/>
<polygon fill="black" stroke="black" points="267.53,-217.74 267.11,-212.46 264.15,-216.86 267.53,-217.74"/>
</g>
<!-- arith_subf&#45;14329298399991804034&#45;&gt;String&#45;18036887277116069162 -->
<g id="edge14" class="edge">
<title>arith_subf&#45;14329298399991804034:s&#45;&gt;String&#45;18036887277116069162</title>
<path fill="none" stroke="black" d="M381,-253C381,-230.58 399.87,-232.17 413,-214 437.34,-180.32 451.43,-174.91 463,-135 468.94,-114.51 477.3,-102.83 463,-87 417.48,-36.61 222.98,-78.74 159,-56 158.56,-55.84 158.12,-55.68 157.68,-55.51"/>
<polygon fill="black" stroke="black" points="158.67,-54.04 153.39,-53.61 157.25,-57.24 158.67,-54.04"/>
</g>
<!-- arith_subf&#45;14329298399991804034&#45;&gt;arith_constant&#45;1939104117755594322 -->
<g id="edge11" class="edge">
<title>arith_subf&#45;14329298399991804034:s&#45;&gt;arith_constant&#45;1939104117755594322</title>
<path fill="none" stroke="black" d="M335,-253C335,-238.98 340.88,-224.54 347.15,-213.13"/>
<polygon fill="black" stroke="black" points="345.93,-216.88 348.18,-212.08 343.43,-214.43 345.93,-216.88"/>
</g>
<!-- arith_subf&#45;14329298399991804034&#45;&gt;arith_constant&#45;17859523323072850888 -->
<g id="edge12" class="edge">
<title>arith_subf&#45;14329298399991804034:s&#45;&gt;arith_constant&#45;17859523323072850888</title>
<path fill="none" stroke="black" d="M360,-253C360,-193.95 288.53,-234.08 233,-214 232.34,-213.76 231.68,-213.52 231.02,-213.28"/>
<polygon fill="black" stroke="black" points="231.68,-211.66 226.39,-211.53 230.45,-214.93 231.68,-211.66"/>
</g>
<!-- arith_subf&#45;14329298399991804034&#45;&gt;OtherAttr&#45;9670903108499433938 -->
<g id="edge13" class="edge">
<title>arith_subf&#45;14329298399991804034:s&#45;&gt;OtherAttr&#45;9670903108499433938</title>
<path fill="none" stroke="black" d="M372.5,-253C372.5,-250.97 334.53,-228.45 304.81,-211.13"/>
<polygon fill="black" stroke="black" points="311.12,-211.13 305.83,-211.42 310.14,-214.49 311.12,-211.13"/>
</g>
<!-- FloatAttr&#45;8967184907069507595&#45;&gt;String&#45;18036887277116069162 -->
<g id="edge20" class="edge">
<title>FloatAttr&#45;8967184907069507595:s&#45;&gt;String&#45;18036887277116069162</title>
<path fill="none" stroke="black" d="M186.5,-95C186.5,-84.45 168.33,-67.26 151.59,-53.65"/>
<polygon fill="black" stroke="black" points="156.62,-53.72 151.33,-53.55 155.36,-56.98 156.62,-53.72"/>
</g>
<!-- FloatAttr&#45;8967184907069507595&#45;&gt;f64&#45;16958304396863602688 -->
<g id="edge19" class="edge">
<title>FloatAttr&#45;8967184907069507595:s&#45;&gt;f64&#45;16958304396863602688</title>
<path fill="none" stroke="black" d="M157,-95C157,-80.64 163.98,-66.38 171.52,-55.16"/>
<polygon fill="black" stroke="black" points="170.55,-59.19 172.29,-54.18 167.81,-57.01 170.55,-59.19"/>
</g>
<!-- FloatAttr&#45;9670903108499433938&#45;&gt;String&#45;18036887277116069162 -->
<g id="edge25" class="edge">
<title>FloatAttr&#45;9670903108499433938:s&#45;&gt;String&#45;18036887277116069162</title>
<path fill="none" stroke="black" d="M442.5,-95C442.5,-70.96 412.8,-90.38 389,-87 286.88,-72.48 255.62,-92.11 159,-56 158.57,-55.84 158.15,-55.68 157.72,-55.5"/>
<polygon fill="black" stroke="black" points="158.86,-54.1 153.58,-53.62 157.41,-57.29 158.86,-54.1"/>
</g>
<!-- FloatAttr&#45;9670903108499433938&#45;&gt;f64&#45;4611686018427387904 -->
<g id="edge24" class="edge">
<title>FloatAttr&#45;9670903108499433938:s&#45;&gt;f64&#45;4611686018427387904</title>
<path fill="none" stroke="black" d="M413,-95C413,-82.22 413,-67.96 413,-56.35"/>
<polygon fill="black" stroke="black" points="414.75,-59.51 413,-54.51 411.25,-59.51 414.75,-59.51"/>
</g>
<!-- arith_constant&#45;11564207445834038490 -->
<g id="node1" class="node">
<title>arith_constant&#45;11564207445834038490</title>
<g id="a_node1"><a xlink:title="6: arith_constant&#45;11564207445834038490">
<path fill="white" stroke="none" d="M46.67,-253C46.67,-253 119.33,-253 119.33,-253 124.67,-253 130,-258.33 130,-263.67 130,-263.67 130,-274.33 130,-274.33 130,-279.67 124.67,-285 119.33,-285 119.33,-285 46.67,-285 46.67,-285 41.33,-285 36,-279.67 36,-274.33 36,-274.33 36,-263.67 36,-263.67 36,-258.33 41.33,-253 46.67,-253"/>
<text text-anchor="start" x="40.62" y="-263.2" font-family="Helvetica,sans-Serif" font-size="14.00">arith_constant</text>
<path fill="none" stroke="black" d="M46.67,-253C46.67,-253 119.33,-253 119.33,-253 124.67,-253 130,-258.33 130,-263.67 130,-263.67 130,-274.33 130,-274.33 130,-279.67 124.67,-285 119.33,-285 119.33,-285 46.67,-285 46.67,-285 41.33,-285 36,-279.67 36,-274.33 36,-274.33 36,-263.67 36,-263.67 36,-258.33 41.33,-253 46.67,-253"/>
</a>
</g>
</g>
<!-- FloatAttr&#45;2022756157680705081 -->
<g id="node2" class="node">
<title>FloatAttr&#45;2022756157680705081</title>
<g id="a_node2"><a xlink:title="11: FloatAttr&#45;2022756157680705081">
<path fill="white" stroke="none" d="M36.17,-95C36.17,-95 75.83,-95 75.83,-95 81.17,-95 86.5,-100.33 86.5,-105.67 86.5,-105.67 86.5,-116.33 86.5,-116.33 86.5,-121.67 81.17,-127 75.83,-127 75.83,-127 36.17,-127 36.17,-127 30.83,-127 25.5,-121.67 25.5,-116.33 25.5,-116.33 25.5,-105.67 25.5,-105.67 25.5,-100.33 30.83,-95 36.17,-95"/>
<text text-anchor="start" x="30.5" y="-105.2" font-family="Helvetica,sans-Serif" font-size="14.00">FloatAttr</text>
<path fill="none" stroke="black" d="M36.17,-95C36.17,-95 75.83,-95 75.83,-95 81.17,-95 86.5,-100.33 86.5,-105.67 86.5,-105.67 86.5,-116.33 86.5,-116.33 86.5,-121.67 81.17,-127 75.83,-127 75.83,-127 36.17,-127 36.17,-127 30.83,-127 25.5,-121.67 25.5,-116.33 25.5,-116.33 25.5,-105.67 25.5,-105.67 25.5,-100.33 30.83,-95 36.17,-95"/>
</a>
</g>
</g>
<!-- String&#45;18036887277116069162 -->
<g id="node3" class="node">
<title>String&#45;18036887277116069162</title>
<g id="a_node3"><a xlink:title="String&#45;18036887277116069162: String&#45;18036887277116069162">
<path fill="white" stroke="none" d="M115.04,-16C115.04,-16 132.96,-16 132.96,-16 138.29,-16 143.62,-21.33 143.62,-26.67 143.62,-26.67 143.62,-37.33 143.62,-37.33 143.62,-42.67 138.29,-48 132.96,-48 132.96,-48 115.04,-48 115.04,-48 109.71,-48 104.38,-42.67 104.38,-37.33 104.38,-37.33 104.38,-26.67 104.38,-26.67 104.38,-21.33 109.71,-16 115.04,-16"/>
<text text-anchor="start" x="109.38" y="-26.2" font-family="Helvetica,sans-Serif" font-size="14.00">&quot;f64&quot;</text>
<path fill="none" stroke="black" d="M115.04,-16C115.04,-16 132.96,-16 132.96,-16 138.29,-16 143.62,-21.33 143.62,-26.67 143.62,-26.67 143.62,-37.33 143.62,-37.33 143.62,-42.67 138.29,-48 132.96,-48 132.96,-48 115.04,-48 115.04,-48 109.71,-48 104.38,-42.67 104.38,-37.33 104.38,-37.33 104.38,-26.67 104.38,-26.67 104.38,-21.33 109.71,-16 115.04,-16"/>
</a>
</g>
</g>
<!-- arith_addf&#45;14329298399991804034 -->
<g id="node4" class="node">
<title>arith_addf&#45;14329298399991804034</title>
<g id="a_node4"><a xlink:title="6: arith_addf&#45;14329298399991804034">
<path fill="white" stroke="none" d="M144.67,-253C144.67,-253 193.33,-253 193.33,-253 198.67,-253 204,-258.33 204,-263.67 204,-263.67 204,-274.33 204,-274.33 204,-279.67 198.67,-285 193.33,-285 193.33,-285 144.67,-285 144.67,-285 139.33,-285 134,-279.67 134,-274.33 134,-274.33 134,-263.67 134,-263.67 134,-258.33 139.33,-253 144.67,-253"/>
<text text-anchor="start" x="139" y="-263.2" font-family="Helvetica,sans-Serif" font-size="14.00">arith_addf</text>
<path fill="none" stroke="black" d="M144.67,-253C144.67,-253 193.33,-253 193.33,-253 198.67,-253 204,-258.33 204,-263.67 204,-263.67 204,-274.33 204,-274.33 204,-279.67 198.67,-285 193.33,-285 193.33,-285 144.67,-285 144.67,-285 139.33,-285 134,-279.67 134,-274.33 134,-274.33 134,-263.67 134,-263.67 134,-258.33 139.33,-253 144.67,-253"/>
</a>
</g>
</g>
<!-- arith_constant&#45;1939104117755594322 -->
<g id="node5" class="node">
<title>arith_constant&#45;1939104117755594322</title>
<g id="a_node5"><a xlink:title="3: arith_constant&#45;1939104117755594322">
<path fill="white" stroke="none" d="M325.67,-174C325.67,-174 398.33,-174 398.33,-174 403.67,-174 409,-179.33 409,-184.67 409,-184.67 409,-195.33 409,-195.33 409,-200.67 403.67,-206 398.33,-206 398.33,-206 325.67,-206 325.67,-206 320.33,-206 315,-200.67 315,-195.33 315,-195.33 315,-184.67 315,-184.67 315,-179.33 320.33,-174 325.67,-174"/>
<text text-anchor="start" x="319.62" y="-184.2" font-family="Helvetica,sans-Serif" font-size="14.00">arith_constant</text>
<path fill="none" stroke="black" d="M325.67,-174C325.67,-174 398.33,-174 398.33,-174 403.67,-174 409,-179.33 409,-184.67 409,-184.67 409,-195.33 409,-195.33 409,-200.67 403.67,-206 398.33,-206 398.33,-206 325.67,-206 325.67,-206 320.33,-206 315,-200.67 315,-195.33 315,-195.33 315,-184.67 315,-184.67 315,-179.33 320.33,-174 325.67,-174"/>
</a>
</g>
</g>
<!-- arith_constant&#45;17859523323072850888 -->
<g id="node6" class="node">
<title>arith_constant&#45;17859523323072850888</title>
<g id="a_node6"><a xlink:title="0: arith_constant&#45;17859523323072850888">
<path fill="white" stroke="none" d="M141.67,-174C141.67,-174 214.33,-174 214.33,-174 219.67,-174 225,-179.33 225,-184.67 225,-184.67 225,-195.33 225,-195.33 225,-200.67 219.67,-206 214.33,-206 214.33,-206 141.67,-206 141.67,-206 136.33,-206 131,-200.67 131,-195.33 131,-195.33 131,-184.67 131,-184.67 131,-179.33 136.33,-174 141.67,-174"/>
<text text-anchor="start" x="135.62" y="-184.2" font-family="Helvetica,sans-Serif" font-size="14.00">arith_constant</text>
<path fill="none" stroke="black" d="M141.67,-174C141.67,-174 214.33,-174 214.33,-174 219.67,-174 225,-179.33 225,-184.67 225,-184.67 225,-195.33 225,-195.33 225,-200.67 219.67,-206 214.33,-206 214.33,-206 141.67,-206 141.67,-206 136.33,-206 131,-200.67 131,-195.33 131,-195.33 131,-184.67 131,-184.67 131,-179.33 136.33,-174 141.67,-174"/>
</a>
</g>
</g>
<!-- OtherAttr&#45;9670903108499433938 -->
<g id="node7" class="node">
<title>OtherAttr&#45;9670903108499433938</title>
<g id="a_node7"><a xlink:title="7: OtherAttr&#45;9670903108499433938">
<path fill="white" stroke="none" d="M247.92,-174C247.92,-174 292.08,-174 292.08,-174 297.42,-174 302.75,-179.33 302.75,-184.67 302.75,-184.67 302.75,-195.33 302.75,-195.33 302.75,-200.67 297.42,-206 292.08,-206 292.08,-206 247.92,-206 247.92,-206 242.58,-206 237.25,-200.67 237.25,-195.33 237.25,-195.33 237.25,-184.67 237.25,-184.67 237.25,-179.33 242.58,-174 247.92,-174"/>
<text text-anchor="start" x="242.25" y="-184.2" font-family="Helvetica,sans-Serif" font-size="14.00">OtherAttr</text>
<path fill="none" stroke="black" d="M247.92,-174C247.92,-174 292.08,-174 292.08,-174 297.42,-174 302.75,-179.33 302.75,-184.67 302.75,-184.67 302.75,-195.33 302.75,-195.33 302.75,-200.67 297.42,-206 292.08,-206 292.08,-206 247.92,-206 247.92,-206 242.58,-206 237.25,-200.67 237.25,-195.33 237.25,-195.33 237.25,-184.67 237.25,-184.67 237.25,-179.33 242.58,-174 247.92,-174"/>
</a>
</g>
</g>
<!-- arith_addf&#45;4162801374681909104 -->
<g id="node8" class="node">
<title>arith_addf&#45;4162801374681909104</title>
<g id="a_node8"><a xlink:title="6: arith_addf&#45;4162801374681909104">
<path fill="white" stroke="none" d="M218.67,-253C218.67,-253 267.33,-253 267.33,-253 272.67,-253 278,-258.33 278,-263.67 278,-263.67 278,-274.33 278,-274.33 278,-279.67 272.67,-285 267.33,-285 267.33,-285 218.67,-285 218.67,-285 213.33,-285 208,-279.67 208,-274.33 208,-274.33 208,-263.67 208,-263.67 208,-258.33 213.33,-253 218.67,-253"/>
<text text-anchor="start" x="213" y="-263.2" font-family="Helvetica,sans-Serif" font-size="14.00">arith_addf</text>
<path fill="none" stroke="black" d="M218.67,-253C218.67,-253 267.33,-253 267.33,-253 272.67,-253 278,-258.33 278,-263.67 278,-263.67 278,-274.33 278,-274.33 278,-279.67 272.67,-285 267.33,-285 267.33,-285 218.67,-285 218.67,-285 213.33,-285 208,-279.67 208,-274.33 208,-274.33 208,-263.67 208,-263.67 208,-258.33 213.33,-253 218.67,-253"/>
</a>
</g>
</g>
<!-- arith_subf&#45;14329298399991804034 -->
<g id="node9" class="node">
<title>arith_subf&#45;14329298399991804034</title>
<g id="a_node9"><a xlink:title="9: arith_subf&#45;14329298399991804034">
<path fill="white" stroke="none" d="M328.17,-253C328.17,-253 375.83,-253 375.83,-253 381.17,-253 386.5,-258.33 386.5,-263.67 386.5,-263.67 386.5,-274.33 386.5,-274.33 386.5,-279.67 381.17,-285 375.83,-285 375.83,-285 328.17,-285 328.17,-285 322.83,-285 317.5,-279.67 317.5,-274.33 317.5,-274.33 317.5,-263.67 317.5,-263.67 317.5,-258.33 322.83,-253 328.17,-253"/>
<text text-anchor="start" x="322.38" y="-263.2" font-family="Helvetica,sans-Serif" font-size="14.00">arith_subf</text>
<path fill="none" stroke="black" d="M328.17,-253C328.17,-253 375.83,-253 375.83,-253 381.17,-253 386.5,-258.33 386.5,-263.67 386.5,-263.67 386.5,-274.33 386.5,-274.33 386.5,-279.67 381.17,-285 375.83,-285 375.83,-285 328.17,-285 328.17,-285 322.83,-285 317.5,-279.67 317.5,-274.33 317.5,-274.33 317.5,-263.67 317.5,-263.67 317.5,-258.33 322.83,-253 328.17,-253"/>
</a>
</g>
</g>
<!-- FloatAttr&#45;8967184907069507595 -->
<g id="node10" class="node">
<title>FloatAttr&#45;8967184907069507595</title>
<g id="a_node10"><a xlink:title="1: FloatAttr&#45;8967184907069507595">
<path fill="white" stroke="none" d="M152.17,-95C152.17,-95 191.83,-95 191.83,-95 197.17,-95 202.5,-100.33 202.5,-105.67 202.5,-105.67 202.5,-116.33 202.5,-116.33 202.5,-121.67 197.17,-127 191.83,-127 191.83,-127 152.17,-127 152.17,-127 146.83,-127 141.5,-121.67 141.5,-116.33 141.5,-116.33 141.5,-105.67 141.5,-105.67 141.5,-100.33 146.83,-95 152.17,-95"/>
<text text-anchor="start" x="146.5" y="-105.2" font-family="Helvetica,sans-Serif" font-size="14.00">FloatAttr</text>
<path fill="none" stroke="black" d="M152.17,-95C152.17,-95 191.83,-95 191.83,-95 197.17,-95 202.5,-100.33 202.5,-105.67 202.5,-105.67 202.5,-116.33 202.5,-116.33 202.5,-121.67 197.17,-127 191.83,-127 191.83,-127 152.17,-127 152.17,-127 146.83,-127 141.5,-121.67 141.5,-116.33 141.5,-116.33 141.5,-105.67 141.5,-105.67 141.5,-100.33 146.83,-95 152.17,-95"/>
</a>
</g>
</g>
<!-- FloatAttr&#45;9670903108499433938 -->
<g id="node11" class="node">
<title>FloatAttr&#45;9670903108499433938</title>
<g id="a_node11"><a xlink:title="4: FloatAttr&#45;9670903108499433938">
<path fill="white" stroke="none" d="M408.17,-95C408.17,-95 447.83,-95 447.83,-95 453.17,-95 458.5,-100.33 458.5,-105.67 458.5,-105.67 458.5,-116.33 458.5,-116.33 458.5,-121.67 453.17,-127 447.83,-127 447.83,-127 408.17,-127 408.17,-127 402.83,-127 397.5,-121.67 397.5,-116.33 397.5,-116.33 397.5,-105.67 397.5,-105.67 397.5,-100.33 402.83,-95 408.17,-95"/>
<text text-anchor="start" x="402.5" y="-105.2" font-family="Helvetica,sans-Serif" font-size="14.00">FloatAttr</text>
<path fill="none" stroke="black" d="M408.17,-95C408.17,-95 447.83,-95 447.83,-95 453.17,-95 458.5,-100.33 458.5,-105.67 458.5,-105.67 458.5,-116.33 458.5,-116.33 458.5,-121.67 453.17,-127 447.83,-127 447.83,-127 408.17,-127 408.17,-127 402.83,-127 397.5,-121.67 397.5,-116.33 397.5,-116.33 397.5,-105.67 397.5,-105.67 397.5,-100.33 402.83,-95 408.17,-95"/>
</a>
</g>
</g>
<!-- f64&#45;16958304396863602688 -->
<g id="node12" class="node">
<title>f64&#45;16958304396863602688</title>
<g id="a_node12"><a xlink:title="f64&#45;16958304396863602688: f64&#45;16958304396863602688">
<path fill="white" stroke="none" d="M184.67,-16C184.67,-16 195.33,-16 195.33,-16 200.67,-16 206,-21.33 206,-26.67 206,-26.67 206,-37.33 206,-37.33 206,-42.67 200.67,-48 195.33,-48 195.33,-48 184.67,-48 184.67,-48 179.33,-48 174,-42.67 174,-37.33 174,-37.33 174,-26.67 174,-26.67 174,-21.33 179.33,-16 184.67,-16"/>
<text text-anchor="start" x="180.62" y="-26.2" font-family="Helvetica,sans-Serif" font-size="14.00">1.5</text>
<path fill="none" stroke="black" d="M184.67,-16C184.67,-16 195.33,-16 195.33,-16 200.67,-16 206,-21.33 206,-26.67 206,-26.67 206,-37.33 206,-37.33 206,-42.67 200.67,-48 195.33,-48 195.33,-48 184.67,-48 184.67,-48 179.33,-48 174,-42.67 174,-37.33 174,-37.33 174,-26.67 174,-26.67 174,-21.33 179.33,-16 184.67,-16"/>
</a>
</g>
</g>
<!-- String&#45;9670903108499433938 -->
<g id="node13" class="node">
<title>String&#45;9670903108499433938</title>
<g id="a_node13"><a xlink:title="String&#45;9670903108499433938: String&#45;9670903108499433938">
<path fill="white" stroke="none" d="M226.17,-95C226.17,-95 361.83,-95 361.83,-95 367.17,-95 372.5,-100.33 372.5,-105.67 372.5,-105.67 372.5,-116.33 372.5,-116.33 372.5,-121.67 367.17,-127 361.83,-127 361.83,-127 226.17,-127 226.17,-127 220.83,-127 215.5,-121.67 215.5,-116.33 215.5,-116.33 215.5,-105.67 215.5,-105.67 215.5,-100.33 220.83,-95 226.17,-95"/>
<text text-anchor="start" x="220.5" y="-105.2" font-family="Helvetica,sans-Serif" font-size="14.00">&quot;#arith.fastmath&lt;none&gt;&quot;</text>
<path fill="none" stroke="black" d="M226.17,-95C226.17,-95 361.83,-95 361.83,-95 367.17,-95 372.5,-100.33 372.5,-105.67 372.5,-105.67 372.5,-116.33 372.5,-116.33 372.5,-121.67 367.17,-127 361.83,-127 361.83,-127 226.17,-127 226.17,-127 220.83,-127 215.5,-121.67 215.5,-116.33 215.5,-116.33 215.5,-105.67 215.5,-105.67 215.5,-100.33 220.83,-95 226.17,-95"/>
</a>
</g>
</g>
<!-- f64&#45;13761874561337393152 -->
<g id="node14" class="node">
<title>f64&#45;13761874561337393152</title>
<g id="a_node14"><a xlink:title="f64&#45;13761874561337393152: f64&#45;13761874561337393152">
<path fill="white" stroke="none" d="M35.67,-16C35.67,-16 46.33,-16 46.33,-16 51.67,-16 57,-21.33 57,-26.67 57,-26.67 57,-37.33 57,-37.33 57,-42.67 51.67,-48 46.33,-48 46.33,-48 35.67,-48 35.67,-48 30.33,-48 25,-42.67 25,-37.33 25,-37.33 25,-26.67 25,-26.67 25,-21.33 30.33,-16 35.67,-16"/>
<text text-anchor="start" x="31.62" y="-26.2" font-family="Helvetica,sans-Serif" font-size="14.00">3.5</text>
<path fill="none" stroke="black" d="M35.67,-16C35.67,-16 46.33,-16 46.33,-16 51.67,-16 57,-21.33 57,-26.67 57,-26.67 57,-37.33 57,-37.33 57,-42.67 51.67,-48 46.33,-48 46.33,-48 35.67,-48 35.67,-48 30.33,-48 25,-42.67 25,-37.33 25,-37.33 25,-26.67 25,-26.67 25,-21.33 30.33,-16 35.67,-16"/>
</a>
</g>
</g>
<!-- f64&#45;4611686018427387904 -->
<g id="node15" class="node">
<title>f64&#45;4611686018427387904</title>
<g id="a_node15"><a xlink:title="f64&#45;4611686018427387904: f64&#45;4611686018427387904">
<path fill="white" stroke="none" d="M407.67,-16C407.67,-16 418.33,-16 418.33,-16 423.67,-16 429,-21.33 429,-26.67 429,-26.67 429,-37.33 429,-37.33 429,-42.67 423.67,-48 418.33,-48 418.33,-48 407.67,-48 407.67,-48 402.33,-48 397,-42.67 397,-37.33 397,-37.33 397,-26.67 397,-26.67 397,-21.33 402.33,-16 407.67,-16"/>
<text text-anchor="start" x="403.62" y="-26.2" font-family="Helvetica,sans-Serif" font-size="14.00">2.0</text>
<path fill="none" stroke="black" d="M407.67,-16C407.67,-16 418.33,-16 418.33,-16 423.67,-16 429,-21.33 429,-26.67 429,-26.67 429,-37.33 429,-37.33 429,-42.67 423.67,-48 418.33,-48 418.33,-48 407.67,-48 407.67,-48 402.33,-48 397,-42.67 397,-37.33 397,-37.33 397,-26.67 397,-26.67 397,-21.33 402.33,-16 407.67,-16"/>
</a>
</g>
</g>
</g>
</svg>
