<?xml version="1.0" encoding="UTF-8" standalone="no"?>
<!DOCTYPE svg PUBLIC "-//W3C//DTD SVG 1.1//EN"
 "http://www.w3.org/Graphics/SVG/1.1/DTD/svg11.dtd">
<!-- Generated by graphviz version 12.0.0 (20240704.0754)
 -->
<!-- Pages: 1 -->
<svg width="795pt" height="467pt"
 viewBox="0.00 0.00 795.00 467.00" xmlns="http://www.w3.org/2000/svg" xmlns:xlink="http://www.w3.org/1999/xlink">
<g id="graph0" class="graph" transform="scale(1 1) rotate(0) translate(4 463)">
<polygon fill="white" stroke="none" points="-4,4 -4,-463 791,-463 791,4 -4,4"/>
<g id="clust1" class="cluster">
<title>outer_cluster_f64&#45;4611686018427387904</title>
</g>
<g id="clust2" class="cluster">
<title>cluster_f64&#45;4611686018427387904</title>
<path fill="#ffffb3" stroke="black" stroke-dasharray="5,2" d="M510,-11C510,-11 546,-11 546,-11 552,-11 558,-17 558,-23 558,-23 558,-41 558,-41 558,-47 552,-53 546,-53 546,-53 510,-53 510,-53 504,-53 498,-47 498,-41 498,-41 498,-23 498,-23 498,-17 504,-11 510,-11"/>
</g>
<g id="clust4" class="cluster">
<title>outer_cluster_f64&#45;16958304396863602688</title>
</g>
<g id="clust5" class="cluster">
<title>cluster_f64&#45;16958304396863602688</title>
<path fill="#ffffb3" stroke="black" stroke-dasharray="5,2" d="M344,-11C344,-11 380,-11 380,-11 386,-11 392,-17 392,-23 392,-23 392,-41 392,-41 392,-47 386,-53 380,-53 380,-53 344,-53 344,-53 338,-53 332,-47 332,-41 332,-41 332,-23 332,-23 332,-17 338,-11 344,-11"/>
</g>
<g id="clust7" class="cluster">
<title>outer_cluster_f64&#45;0</title>
</g>
<g id="clust8" class="cluster">
<title>cluster_f64&#45;0</title>
<path fill="#ffffb3" stroke="black" stroke-dasharray="5,2" d="M662,-11C662,-11 698,-11 698,-11 704,-11 710,-17 710,-23 710,-23 710,-41 710,-41 710,-47 704,-53 698,-53 698,-53 662,-53 662,-53 656,-53 650,-47 650,-41 650,-41 650,-23 650,-23 650,-17 656,-11 662,-11"/>
</g>
<g id="clust10" class="cluster">
<title>outer_cluster_16</title>
</g>
<g id="clust11" class="cluster">
<title>cluster_16</title>
<path fill="#bebada" stroke="black" stroke-dasharray="5,2" d="M677,-248C677,-248 753,-248 753,-248 759,-248 765,-254 765,-260 765,-260 765,-278 765,-278 765,-284 759,-290 753,-290 753,-290 677,-290 677,-290 671,-290 665,-284 665,-278 665,-278 665,-260 665,-260 665,-254 671,-248 677,-248"/>
</g>
<g id="clust13" class="cluster">
<title>outer_cluster_14</title>
</g>
<g id="clust14" class="cluster">
<title>cluster_14</title>
<path fill="#bebada" stroke="black" stroke-dasharray="5,2" d="M23,-406C23,-406 75,-406 75,-406 81,-406 87,-412 87,-418 87,-418 87,-436 87,-436 87,-442 81,-448 75,-448 75,-448 23,-448 23,-448 17,-448 11,-442 11,-436 11,-436 11,-418 11,-418 11,-412 17,-406 23,-406"/>
</g>
<g id="clust16" class="cluster">
<title>outer_cluster_4</title>
</g>
<g id="clust17" class="cluster">
<title>cluster_4</title>
<path fill="#bebada" stroke="black" stroke-dasharray="5,2" d="M465,-248C465,-248 541,-248 541,-248 547,-248 553,-254 553,-260 553,-260 553,-278 553,-278 553,-284 547,-290 541,-290 541,-290 465,-290 465,-290 459,-290 453,-284 453,-278 453,-278 453,-260 453,-260 453,-254 459,-248 465,-248"/>
</g>
<g id="clust19" class="cluster">
<title>outer_cluster_8</title>
</g>
<g id="clust20" class="cluster">
<title>cluster_8</title>
<path fill="#bebada" stroke="black" stroke-dasharray="5,2" d="M283,-327C283,-327 335,-327 335,-327 341,-327 347,-333 347,-339 347,-339 347,-357 347,-357 347,-363 341,-369 335,-369 335,-369 283,-369 283,-369 277,-369 271,-363 271,-357 271,-357 271,-339 271,-339 271,-333 277,-327 283,-327"/>
</g>
<g id="clust22" class="cluster">
<title>outer_cluster_12</title>
</g>
<g id="clust23" class="cluster">
<title>cluster_12</title>
<path fill="#bebada" stroke="black" stroke-dasharray="5,2" d="M595,-90C595,-90 651,-90 651,-90 657,-90 663,-96 663,-102 663,-102 663,-120 663,-120 663,-126 657,-132 651,-132 651,-132 595,-132 595,-132 589,-132 583,-126 583,-120 583,-120 583,-102 583,-102 583,-96 589,-90 595,-90"/>
</g>
<g id="clust25" class="cluster">
<title>outer_cluster_0</title>
</g>
<g id="clust26" class="cluster">
<title>cluster_0</title>
<path fill="#bebada" stroke="black" stroke-dasharray="5,2" d="M359,-248C359,-248 435,-248 435,-248 441,-248 447,-254 447,-260 447,-260 447,-278 447,-278 447,-284 441,-290 435,-290 435,-290 359,-290 359,-290 353,-290 347,-284 347,-278 347,-278 347,-260 347,-260 347,-254 353,-248 359,-248"/>
</g>
<g id="clust28" class="cluster">
<title>outer_cluster_1</title>
</g>
<g id="clust29" class="cluster">
<title>cluster_1</title>
<path fill="#fb8072" stroke="black" stroke-dasharray="5,2" d="M359,-90C359,-90 403,-90 403,-90 409,-90 415,-96 415,-102 415,-102 415,-120 415,-120 415,-126 409,-132 403,-132 403,-132 359,-132 359,-132 353,-132 347,-126 347,-120 347,-120 347,-102 347,-102 347,-96 353,-90 359,-90"/>
</g>
<g id="clust31" class="cluster">
<title>outer_cluster_5</title>
</g>
<g id="clust32" class="cluster">
<title>cluster_5</title>
<path fill="#fb8072" stroke="black" stroke-dasharray="5,2" d="M521,-90C521,-90 565,-90 565,-90 571,-90 577,-96 577,-102 577,-102 577,-120 577,-120 577,-126 571,-132 565,-132 565,-132 521,-132 521,-132 515,-132 509,-126 509,-120 509,-120 509,-102 509,-102 509,-96 515,-90 521,-90"/>
</g>
<g id="clust34" class="cluster">
<title>outer_cluster_9</title>
</g>
<g id="clust35" class="cluster">
<title>cluster_9</title>
<path fill="#fb8072" stroke="black" stroke-dasharray="5,2" d="M153,-169C153,-169 201,-169 201,-169 207,-169 213,-175 213,-181 213,-181 213,-199 213,-199 213,-205 207,-211 201,-211 201,-211 153,-211 153,-211 147,-211 141,-205 141,-199 141,-199 141,-181 141,-181 141,-175 147,-169 153,-169"/>
</g>
<g id="clust37" class="cluster">
<title>outer_cluster_17</title>
</g>
<g id="clust38" class="cluster">
<title>cluster_17</title>
<path fill="#fb8072" stroke="black" stroke-dasharray="5,2" d="M681,-90C681,-90 725,-90 725,-90 731,-90 737,-96 737,-102 737,-102 737,-120 737,-120 737,-126 731,-132 725,-132 725,-132 681,-132 681,-132 675,-132 669,-126 669,-120 669,-120 669,-102 669,-102 669,-96 675,-90 681,-90"/>
</g>
<g id="clust40" class="cluster">
<title>outer_cluster_6</title>
</g>
<g id="clust41" class="cluster">
<title>cluster_6</title>
<path fill="#80b1d3" stroke="black" stroke-dasharray="5,2" d="M482,-169C482,-169 540,-169 540,-169 546,-169 552,-175 552,-181 552,-181 552,-199 552,-199 552,-205 546,-211 540,-211 540,-211 482,-211 482,-211 476,-211 470,-205 470,-199 470,-199 470,-181 470,-181 470,-175 476,-169 482,-169"/>
</g>
<g id="clust43" class="cluster">
<title>outer_cluster_10</title>
</g>
<g id="clust44" class="cluster">
<title>cluster_10</title>
<path fill="#80b1d3" stroke="black" stroke-dasharray="5,2" d="M210,-248C210,-248 268,-248 268,-248 274,-248 280,-254 280,-260 280,-260 280,-278 280,-278 280,-284 274,-290 268,-290 268,-290 210,-290 210,-290 204,-290 198,-284 198,-278 198,-278 198,-260 198,-260 198,-254 204,-248 210,-248"/>
</g>
<g id="clust46" class="cluster">
<title>outer_cluster_18</title>
</g>
<g id="clust47" class="cluster">
<title>cluster_18</title>
<path fill="#80b1d3" stroke="black" stroke-dasharray="5,2" d="M656,-169C656,-169 714,-169 714,-169 720,-169 726,-175 726,-181 726,-181 726,-199 726,-199 726,-205 720,-211 714,-211 714,-211 656,-211 656,-211 650,-211 644,-205 644,-199 644,-199 644,-181 644,-181 644,-175 650,-169 656,-169"/>
</g>
<g id="clust49" class="cluster">
<title>outer_cluster_2</title>
</g>
<g id="clust50" class="cluster">
<title>cluster_2</title>
<path fill="#80b1d3" stroke="black" stroke-dasharray="5,2" d="M382,-169C382,-169 440,-169 440,-169 446,-169 452,-175 452,-181 452,-181 452,-199 452,-199 452,-205 446,-211 440,-211 440,-211 382,-211 382,-211 376,-211 370,-205 370,-199 370,-199 370,-181 370,-181 370,-175 376,-169 382,-169"/>
</g>
<g id="clust52" class="cluster">
<title>outer_cluster_String&#45;10935535880771619347</title>
</g>
<g id="clust53" class="cluster">
<title>cluster_String&#45;10935535880771619347</title>
<path fill="#fdb462" stroke="black" stroke-dasharray="5,2" d="M455,-90C455,-90 491,-90 491,-90 497,-90 503,-96 503,-102 503,-102 503,-120 503,-120 503,-126 497,-132 491,-132 491,-132 455,-132 455,-132 449,-132 443,-126 443,-120 443,-120 443,-102 443,-102 443,-96 449,-90 455,-90"/>
</g>
<g id="clust55" class="cluster">
<title>outer_cluster_String&#45;18036887277116069162</title>
</g>
<g id="clust56" class="cluster">
<title>cluster_String&#45;18036887277116069162</title>
<path fill="#fdb462" stroke="black" stroke-dasharray="5,2" d="M410,-11C410,-11 446,-11 446,-11 452,-11 458,-17 458,-23 458,-23 458,-41 458,-41 458,-47 452,-53 446,-53 446,-53 410,-53 410,-53 404,-53 398,-47 398,-41 398,-41 398,-23 398,-23 398,-17 404,-11 410,-11"/>
</g>
<g id="clust58" class="cluster">
<title>outer_cluster_String&#45;5764174078010485202</title>
</g>
<g id="clust59" class="cluster">
<title>cluster_String&#45;5764174078010485202</title>
<path fill="#fdb462" stroke="black" stroke-dasharray="5,2" d="M231,-169C231,-169 287,-169 287,-169 293,-169 299,-175 299,-181 299,-181 299,-199 299,-199 299,-205 293,-211 287,-211 287,-211 231,-211 231,-211 225,-211 219,-205 219,-199 219,-199 219,-181 219,-181 219,-175 225,-169 231,-169"/>
</g>
<g id="clust61" class="cluster">
<title>outer_cluster_String&#45;9670903108499433938</title>
</g>
<g id="clust62" class="cluster">
<title>cluster_String&#45;9670903108499433938</title>
<path fill="#fdb462" stroke="black" stroke-dasharray="5,2" d="M61,-90C61,-90 201,-90 201,-90 207,-90 213,-96 213,-102 213,-102 213,-120 213,-120 213,-126 207,-132 201,-132 201,-132 61,-132 61,-132 55,-132 49,-126 49,-120 49,-120 49,-102 49,-102 49,-96 55,-90 61,-90"/>
</g>
<g id="clust64" class="cluster">
<title>outer_cluster_String&#45;1857445047521536466</title>
</g>
<g id="clust65" class="cluster">
<title>cluster_String&#45;1857445047521536466</title>
<path fill="#fdb462" stroke="black" stroke-dasharray="5,2" d="M231,-90C231,-90 317,-90 317,-90 323,-90 329,-96 329,-102 329,-102 329,-120 329,-120 329,-126 323,-132 317,-132 317,-132 231,-132 231,-132 225,-132 219,-126 219,-120 219,-120 219,-102 219,-102 219,-96 225,-90 231,-90"/>
</g>
<g id="clust67" class="cluster">
<title>outer_cluster_String&#45;13601007060649541372</title>
</g>
<g id="clust68" class="cluster">
<title>cluster_String&#45;13601007060649541372</title>
<path fill="#fdb462" stroke="black" stroke-dasharray="5,2" d="M728,-11C728,-11 764,-11 764,-11 770,-11 776,-17 776,-23 776,-23 776,-41 776,-41 776,-47 770,-53 764,-53 764,-53 728,-53 728,-53 722,-53 716,-47 716,-41 716,-41 716,-23 716,-23 716,-17 722,-11 728,-11"/>
</g>
<g id="clust70" class="cluster">
<title>outer_cluster_String&#45;11357080138195681150</title>
</g>
<g id="clust71" class="cluster">
<title>cluster_String&#45;11357080138195681150</title>
<path fill="#fdb462" stroke="black" stroke-dasharray="5,2" d="M587,-11C587,-11 623,-11 623,-11 629,-11 635,-17 635,-23 635,-23 635,-41 635,-41 635,-47 629,-53 623,-53 623,-53 587,-53 587,-53 581,-53 575,-47 575,-41 575,-41 575,-23 575,-23 575,-17 581,-11 587,-11"/>
</g>
<!-- arith_constant&#45;2754254161033510391&#45;&gt;NamedAttr&#45;1846110726563922335 -->
<g id="edge1" class="edge">
<title>arith_constant&#45;2754254161033510391:s&#45;&gt;NamedAttr&#45;1846110726563922335</title>
<path fill="none" stroke="black" d="M692,-253C692,-240.02 690.47,-225.61 688.84,-213.95"/>
<polygon fill="black" stroke="black" points="691.51,-216.71 688.37,-212.45 688.17,-217.74 691.51,-216.71"/>
</g>
<!-- arith_constant&#45;2754254161033510391&#45;&gt;String&#45;13601007060649541372 -->
<g id="edge2" class="edge">
<title>arith_constant&#45;2754254161033510391:s&#45;&gt;String&#45;13601007060649541372</title>
<path fill="none" stroke="black" d="M738,-253C738,-180.99 742.33,-95.8 744.62,-55.84"/>
<polygon fill="black" stroke="black" points="745.91,-59.68 744.79,-54.5 742.44,-59.25 745.91,-59.68"/>
</g>
<!-- NamedAttr&#45;1846110726563922335&#45;&gt;FloatAttr&#45;13601007060649541372 -->
<g id="edge30" class="edge">
<title>NamedAttr&#45;1846110726563922335:s&#45;&gt;FloatAttr&#45;13601007060649541372</title>
<path fill="none" stroke="black" d="M703,-174C703,-161.22 703,-146.96 703,-135.35"/>
<polygon fill="black" stroke="black" points="704.75,-138.51 703,-133.51 701.25,-138.51 704.75,-138.51"/>
</g>
<!-- NamedAttr&#45;1846110726563922335&#45;&gt;String&#45;10935535880771619347 -->
<g id="edge29" class="edge">
<title>NamedAttr&#45;1846110726563922335:s&#45;&gt;String&#45;10935535880771619347</title>
<path fill="none" stroke="black" d="M666.5,-174C666.5,-101.45 574.49,-164.01 508,-135 505.95,-134.1 503.88,-133.09 501.83,-132"/>
<polygon fill="black" stroke="black" points="508.01,-130.28 503,-132.01 507.99,-133.78 508.01,-130.28"/>
</g>
<!-- arith_addf&#45;6334862463755970478&#45;&gt;arith_addf&#45;3047796007016042705 -->
<g id="edge3" class="edge">
<title>arith_addf&#45;6334862463755970478:s&#45;&gt;arith_addf&#45;3047796007016042705</title>
<path fill="none" stroke="black" d="M32,-411C32,-363.25 190.75,-352.26 267.89,-349.74"/>
<polygon fill="black" stroke="black" points="264.61,-351.7 269.49,-349.65 264.39,-348.21 264.61,-351.7"/>
</g>
<!-- arith_addf&#45;6334862463755970478&#45;&gt;NamedOp&#45;7391942084657069733 -->
<g id="edge4" class="edge">
<title>arith_addf&#45;6334862463755970478:s&#45;&gt;NamedOp&#45;7391942084657069733</title>
<path fill="none" stroke="black" d="M57.5,-411C57.5,-345.87 284.89,-388.1 348,-372 443.01,-347.76 484.73,-362.41 554,-293 598.24,-248.67 614.63,-173.06 620.28,-135.13"/>
<polygon fill="black" stroke="black" points="621.08,-138.74 620.74,-133.46 617.71,-137.8 621.08,-138.74"/>
</g>
<!-- arith_addf&#45;6334862463755970478&#45;&gt;NamedAttr&#45;11831569617677543232 -->
<g id="edge5" class="edge">
<title>arith_addf&#45;6334862463755970478:s&#45;&gt;NamedAttr&#45;11831569617677543232</title>
<path fill="none" stroke="black" d="M70,-411C70,-345.46 145.87,-304.45 195.94,-284.52"/>
<polygon fill="black" stroke="black" points="193.47,-288.19 196.73,-284.01 191.58,-285.25 193.47,-288.19"/>
</g>
<!-- arith_addf&#45;6334862463755970478&#45;&gt;String&#45;18036887277116069162 -->
<g id="edge6" class="edge">
<title>arith_addf&#45;6334862463755970478:s&#45;&gt;String&#45;18036887277116069162</title>
<path fill="none" stroke="black" d="M78.5,-411C78.5,-346.04 40,-334.96 40,-270 40,-270 40,-270 40,-189 40,-143.53 16.03,-119.34 48,-87 102.12,-32.26 320.32,-81.34 393,-56 393.45,-55.84 393.89,-55.68 394.34,-55.51"/>
<polygon fill="black" stroke="black" points="394.81,-57.22 398.69,-53.6 393.41,-54.01 394.81,-57.22"/>
</g>
<!-- arith_addf&#45;3047796007016042705&#45;&gt;NamedAttr&#45;11831569617677543232 -->
<g id="edge11" class="edge">
<title>arith_addf&#45;3047796007016042705:s&#45;&gt;NamedAttr&#45;11831569617677543232</title>
<path fill="none" stroke="black" d="M330,-332C330,-306.71 305.7,-291 282.21,-281.73"/>
<polygon fill="black" stroke="black" points="286.55,-282.12 281.33,-281.23 284.86,-285.18 286.55,-282.12"/>
</g>
<!-- arith_addf&#45;3047796007016042705&#45;&gt;String&#45;18036887277116069162 -->
<g id="edge12" class="edge">
<title>arith_addf&#45;3047796007016042705:s&#45;&gt;String&#45;18036887277116069162</title>
<path fill="none" stroke="black" d="M338.5,-332C338.5,-277.53 319.43,-134.55 346,-87 346.1,-86.83 374.11,-68.4 397.37,-53.12"/>
<polygon fill="black" stroke="black" points="396.92,-58.37 397.38,-53.09 393.73,-56.93 396.92,-58.37"/>
</g>
<!-- arith_addf&#45;3047796007016042705&#45;&gt;arith_constant&#45;9723459060348179147 -->
<g id="edge9" class="edge">
<title>arith_addf&#45;3047796007016042705:s&#45;&gt;arith_constant&#45;9723459060348179147</title>
<path fill="none" stroke="black" d="M292,-332C292,-260.53 380.17,-315.52 448,-293 448.88,-292.71 449.76,-292.41 450.65,-292.1"/>
<polygon fill="black" stroke="black" points="451,-293.84 455.12,-290.51 449.82,-290.54 451,-293.84"/>
</g>
<!-- arith_addf&#45;3047796007016042705&#45;&gt;arith_constant&#45;1502717139435099918 -->
<g id="edge10" class="edge">
<title>arith_addf&#45;3047796007016042705:s&#45;&gt;arith_constant&#45;1502717139435099918</title>
<path fill="none" stroke="black" d="M317.5,-332C317.5,-313.6 330.9,-299.86 346.7,-290.05"/>
<polygon fill="black" stroke="black" points="342.3,-294.72 345.7,-290.65 340.51,-291.71 342.3,-294.72"/>
</g>
<!-- NamedOp&#45;7391942084657069733&#45;&gt;String&#45;18036887277116069162 -->
<g id="edge14" class="edge">
<title>NamedOp&#45;7391942084657069733:s&#45;&gt;String&#45;18036887277116069162</title>
<path fill="none" stroke="black" d="M640.5,-95C640.5,-28.91 560.26,-75.12 497,-56 485.17,-52.42 472.3,-48.22 460.91,-44.39"/>
<polygon fill="black" stroke="black" points="464.72,-43.94 459.42,-43.84 463.5,-47.22 464.72,-43.94"/>
</g>
<!-- NamedOp&#45;7391942084657069733&#45;&gt;String&#45;11357080138195681150 -->
<g id="edge13" class="edge">
<title>NamedOp&#45;7391942084657069733:s&#45;&gt;String&#45;11357080138195681150</title>
<path fill="none" stroke="black" d="M605,-95C605,-82.22 605,-67.96 605,-56.35"/>
<polygon fill="black" stroke="black" points="606.75,-59.51 605,-54.51 603.25,-59.51 606.75,-59.51"/>
</g>
<!-- NamedAttr&#45;11831569617677543232&#45;&gt;OtherAttr&#45;3799594150487030370 -->
<g id="edge28" class="edge">
<title>NamedAttr&#45;11831569617677543232:s&#45;&gt;OtherAttr&#45;3799594150487030370</title>
<path fill="none" stroke="black" d="M257,-253C257,-241.01 234.28,-224.19 213.05,-211.1"/>
<polygon fill="black" stroke="black" points="216.04,-216.87 213.31,-212.33 212.61,-217.58 216.04,-216.87"/>
</g>
<!-- NamedAttr&#45;11831569617677543232&#45;&gt;String&#45;5764174078010485202 -->
<g id="edge27" class="edge">
<title>NamedAttr&#45;11831569617677543232:s&#45;&gt;String&#45;5764174078010485202</title>
<path fill="none" stroke="black" d="M220.5,-253C220.5,-238.17 228.55,-223.93 237.29,-212.86"/>
<polygon fill="black" stroke="black" points="235.69,-216.68 238.21,-212.02 233.33,-214.09 235.69,-216.68"/>
</g>
<!-- arith_constant&#45;9723459060348179147&#45;&gt;String&#45;18036887277116069162 -->
<g id="edge8" class="edge">
<title>arith_constant&#45;9723459060348179147:s&#45;&gt;String&#45;18036887277116069162</title>
<path fill="none" stroke="black" d="M526,-253C526,-222.3 487.48,-238.51 469,-214 455.46,-196.05 460.32,-187.26 453,-166 448.24,-152.18 445.46,-149.2 442,-135 435.52,-108.36 431.78,-77.02 429.82,-56.18"/>
<polygon fill="black" stroke="black" points="432.12,-59.1 429.51,-54.49 428.68,-59.72 432.12,-59.1"/>
</g>
<!-- arith_constant&#45;9723459060348179147&#45;&gt;NamedAttr&#45;8601266415586661699 -->
<g id="edge7" class="edge">
<title>arith_constant&#45;9723459060348179147:s&#45;&gt;NamedAttr&#45;8601266415586661699</title>
<path fill="none" stroke="black" d="M480,-253C480,-238.73 486.65,-224.37 493.79,-213.08"/>
<polygon fill="black" stroke="black" points="492.88,-217.29 494.42,-212.22 490.06,-215.22 492.88,-217.29"/>
</g>
<!-- NamedAttr&#45;8601266415586661699&#45;&gt;FloatAttr&#45;9670903108499433938 -->
<g id="edge26" class="edge">
<title>NamedAttr&#45;8601266415586661699:s&#45;&gt;FloatAttr&#45;9670903108499433938</title>
<path fill="none" stroke="black" d="M529,-174C529,-160.87 532.02,-146.56 535.26,-134.99"/>
<polygon fill="black" stroke="black" points="535.2,-138.48 536.28,-133.3 532.2,-136.68 535.2,-138.48"/>
</g>
<!-- NamedAttr&#45;8601266415586661699&#45;&gt;String&#45;10935535880771619347 -->
<g id="edge25" class="edge">
<title>NamedAttr&#45;8601266415586661699:s&#45;&gt;String&#45;10935535880771619347</title>
<path fill="none" stroke="black" d="M492.5,-174C492.5,-160.55 488.27,-146.18 483.75,-134.66"/>
<polygon fill="black" stroke="black" points="486.92,-136.99 483.07,-133.35 483.8,-138.59 486.92,-136.99"/>
</g>
<!-- arith_constant&#45;1502717139435099918&#45;&gt;String&#45;18036887277116069162 -->
<g id="edge16" class="edge">
<title>arith_constant&#45;1502717139435099918:s&#45;&gt;String&#45;18036887277116069162</title>
<path fill="none" stroke="black" d="M420,-253C420,-224.47 381.64,-239.58 369,-214 359.55,-194.87 358.89,-184.78 369,-166 380.86,-143.97 402.87,-156.3 416,-135 430.67,-111.2 431.87,-78.3 430.6,-56.36"/>
<polygon fill="black" stroke="black" points="432.76,-59.22 430.34,-54.5 429.29,-59.69 432.76,-59.22"/>
</g>
<!-- arith_constant&#45;1502717139435099918&#45;&gt;NamedAttr&#45;3560886463040203503 -->
<g id="edge15" class="edge">
<title>arith_constant&#45;1502717139435099918:s&#45;&gt;NamedAttr&#45;3560886463040203503</title>
<path fill="none" stroke="black" d="M374,-253C374,-238.22 381.85,-223.9 390.32,-212.75"/>
<polygon fill="black" stroke="black" points="388.61,-216.69 391.12,-212.02 386.25,-214.11 388.61,-216.69"/>
</g>
<!-- NamedAttr&#45;3560886463040203503&#45;&gt;FloatAttr&#45;8967184907069507595 -->
<g id="edge32" class="edge">
<title>NamedAttr&#45;3560886463040203503:s&#45;&gt;FloatAttr&#45;8967184907069507595</title>
<path fill="none" stroke="black" d="M429,-174C429,-158.28 419.23,-144.12 408.5,-133.32"/>
<polygon fill="black" stroke="black" points="413.04,-134.74 408.05,-132.95 410.84,-137.46 413.04,-134.74"/>
</g>
<!-- NamedAttr&#45;3560886463040203503&#45;&gt;String&#45;10935535880771619347 -->
<g id="edge31" class="edge">
<title>NamedAttr&#45;3560886463040203503:s&#45;&gt;String&#45;10935535880771619347</title>
<path fill="none" stroke="black" d="M392.5,-174C392.5,-161.23 418.23,-143.09 440.6,-129.72"/>
<polygon fill="black" stroke="black" points="439.49,-133.19 441.9,-128.48 437.08,-130.66 439.49,-133.19"/>
</g>
<!-- FloatAttr&#45;8967184907069507595&#45;&gt;f64&#45;16958304396863602688 -->
<g id="edge17" class="edge">
<title>FloatAttr&#45;8967184907069507595:s&#45;&gt;f64&#45;16958304396863602688</title>
<path fill="none" stroke="black" d="M366,-95C366,-82.08 365.12,-67.67 364.19,-56"/>
<polygon fill="black" stroke="black" points="366.51,-59.12 363.93,-54.49 363.06,-59.72 366.51,-59.12"/>
</g>
<!-- FloatAttr&#45;8967184907069507595&#45;&gt;String&#45;18036887277116069162 -->
<g id="edge18" class="edge">
<title>FloatAttr&#45;8967184907069507595:s&#45;&gt;String&#45;18036887277116069162</title>
<path fill="none" stroke="black" d="M395.5,-95C395.5,-80.69 402.37,-66.43 409.8,-55.2"/>
<polygon fill="black" stroke="black" points="408.93,-59.25 410.55,-54.21 406.14,-57.14 408.93,-59.25"/>
</g>
<!-- FloatAttr&#45;9670903108499433938&#45;&gt;f64&#45;4611686018427387904 -->
<g id="edge19" class="edge">
<title>FloatAttr&#45;9670903108499433938:s&#45;&gt;f64&#45;4611686018427387904</title>
<path fill="none" stroke="black" d="M528,-95C528,-82.22 528,-67.96 528,-56.35"/>
<polygon fill="black" stroke="black" points="529.75,-59.51 528,-54.51 526.25,-59.51 529.75,-59.51"/>
</g>
<!-- FloatAttr&#45;9670903108499433938&#45;&gt;String&#45;18036887277116069162 -->
<g id="edge20" class="edge">
<title>FloatAttr&#45;9670903108499433938:s&#45;&gt;String&#45;18036887277116069162</title>
<path fill="none" stroke="black" d="M557.5,-95C557.5,-84.29 499.17,-60.03 460.81,-45.23"/>
<polygon fill="black" stroke="black" points="464.65,-45.07 459.38,-44.57 463.19,-48.25 464.65,-45.07"/>
</g>
<!-- OtherAttr&#45;3799594150487030370&#45;&gt;String&#45;9670903108499433938 -->
<g id="edge21" class="edge">
<title>OtherAttr&#45;3799594150487030370:s&#45;&gt;String&#45;9670903108499433938</title>
<path fill="none" stroke="black" d="M161,-174C161,-159.82 154.56,-145.47 147.65,-134.15"/>
<polygon fill="black" stroke="black" points="151.27,-136.5 147.07,-133.27 148.34,-138.41 151.27,-136.5"/>
</g>
<!-- OtherAttr&#45;3799594150487030370&#45;&gt;String&#45;1857445047521536466 -->
<g id="edge22" class="edge">
<title>OtherAttr&#45;3799594150487030370:s&#45;&gt;String&#45;1857445047521536466</title>
<path fill="none" stroke="black" d="M192.5,-174C192.5,-155.47 206.01,-141.75 222.02,-132"/>
<polygon fill="black" stroke="black" points="216.02,-133.76 221.02,-132 216.02,-130.26 216.02,-133.76"/>
</g>
<!-- FloatAttr&#45;13601007060649541372&#45;&gt;f64&#45;0 -->
<g id="edge23" class="edge">
<title>FloatAttr&#45;13601007060649541372:s&#45;&gt;f64&#45;0</title>
<path fill="none" stroke="black" d="M688,-95C688,-82 686.25,-67.58 684.38,-55.93"/>
<polygon fill="black" stroke="black" points="687.17,-58.56 683.85,-54.43 683.87,-59.72 687.17,-58.56"/>
</g>
<!-- FloatAttr&#45;13601007060649541372&#45;&gt;String&#45;13601007060649541372 -->
<g id="edge24" class="edge">
<title>FloatAttr&#45;13601007060649541372:s&#45;&gt;String&#45;13601007060649541372</title>
<path fill="none" stroke="black" d="M717.5,-95C717.5,-80.95 723.62,-66.61 730.18,-55.27"/>
<polygon fill="black" stroke="black" points="729.09,-58.87 731.35,-54.08 726.6,-56.41 729.09,-58.87"/>
</g>
<!-- f64&#45;4611686018427387904 -->
<g id="node1" class="node">
<title>f64&#45;4611686018427387904</title>
<g id="a_node1"><a xlink:title="f64&#45;4611686018427387904: f64&#45;4611686018427387904">
<path fill="white" stroke="none" d="M522.67,-16C522.67,-16 533.33,-16 533.33,-16 538.67,-16 544,-21.33 544,-26.67 544,-26.67 544,-37.33 544,-37.33 544,-42.67 538.67,-48 533.33,-48 533.33,-48 522.67,-48 522.67,-48 517.33,-48 512,-42.67 512,-37.33 512,-37.33 512,-26.67 512,-26.67 512,-21.33 517.33,-16 522.67,-16"/>
<text text-anchor="start" x="518.62" y="-26.2" font-family="Helvetica,sans-Serif" font-size="14.00">2.0</text>
<path fill="none" stroke="black" d="M522.67,-16C522.67,-16 533.33,-16 533.33,-16 538.67,-16 544,-21.33 544,-26.67 544,-26.67 544,-37.33 544,-37.33 544,-42.67 538.67,-48 533.33,-48 533.33,-48 522.67,-48 522.67,-48 517.33,-48 512,-42.67 512,-37.33 512,-37.33 512,-26.67 512,-26.67 512,-21.33 517.33,-16 522.67,-16"/>
</a>
</g>
</g>
<!-- f64&#45;16958304396863602688 -->
<g id="node2" class="node">
<title>f64&#45;16958304396863602688</title>
<g id="a_node2"><a xlink:title="f64&#45;16958304396863602688: f64&#45;16958304396863602688">
<path fill="white" stroke="none" d="M356.67,-16C356.67,-16 367.33,-16 367.33,-16 372.67,-16 378,-21.33 378,-26.67 378,-26.67 378,-37.33 378,-37.33 378,-42.67 372.67,-48 367.33,-48 367.33,-48 356.67,-48 356.67,-48 351.33,-48 346,-42.67 346,-37.33 346,-37.33 346,-26.67 346,-26.67 346,-21.33 351.33,-16 356.67,-16"/>
<text text-anchor="start" x="352.62" y="-26.2" font-family="Helvetica,sans-Serif" font-size="14.00">1.5</text>
<path fill="none" stroke="black" d="M356.67,-16C356.67,-16 367.33,-16 367.33,-16 372.67,-16 378,-21.33 378,-26.67 378,-26.67 378,-37.33 378,-37.33 378,-42.67 372.67,-48 367.33,-48 367.33,-48 356.67,-48 356.67,-48 351.33,-48 346,-42.67 346,-37.33 346,-37.33 346,-26.67 346,-26.67 346,-21.33 351.33,-16 356.67,-16"/>
</a>
</g>
</g>
<!-- f64&#45;0 -->
<g id="node3" class="node">
<title>f64&#45;0</title>
<g id="a_node3"><a xlink:title="f64&#45;0: f64&#45;0">
<path fill="white" stroke="none" d="M674.67,-16C674.67,-16 685.33,-16 685.33,-16 690.67,-16 696,-21.33 696,-26.67 696,-26.67 696,-37.33 696,-37.33 696,-42.67 690.67,-48 685.33,-48 685.33,-48 674.67,-48 674.67,-48 669.33,-48 664,-42.67 664,-37.33 664,-37.33 664,-26.67 664,-26.67 664,-21.33 669.33,-16 674.67,-16"/>
<text text-anchor="start" x="670.62" y="-26.2" font-family="Helvetica,sans-Serif" font-size="14.00">0.0</text>
<path fill="none" stroke="black" d="M674.67,-16C674.67,-16 685.33,-16 685.33,-16 690.67,-16 696,-21.33 696,-26.67 696,-26.67 696,-37.33 696,-37.33 696,-42.67 690.67,-48 685.33,-48 685.33,-48 674.67,-48 674.67,-48 669.33,-48 664,-42.67 664,-37.33 664,-37.33 664,-26.67 664,-26.67 664,-21.33 669.33,-16 674.67,-16"/>
</a>
</g>
</g>
<!-- arith_constant&#45;2754254161033510391 -->
<g id="node4" class="node">
<title>arith_constant&#45;2754254161033510391</title>
<g id="a_node4"><a xlink:title="16: arith_constant&#45;2754254161033510391">
<path fill="white" stroke="none" d="M678.67,-253C678.67,-253 751.33,-253 751.33,-253 756.67,-253 762,-258.33 762,-263.67 762,-263.67 762,-274.33 762,-274.33 762,-279.67 756.67,-285 751.33,-285 751.33,-285 678.67,-285 678.67,-285 673.33,-285 668,-279.67 668,-274.33 668,-274.33 668,-263.67 668,-263.67 668,-258.33 673.33,-253 678.67,-253"/>
<text text-anchor="start" x="672.62" y="-263.2" font-family="Helvetica,sans-Serif" font-size="14.00">arith_constant</text>
<path fill="none" stroke="black" d="M678.67,-253C678.67,-253 751.33,-253 751.33,-253 756.67,-253 762,-258.33 762,-263.67 762,-263.67 762,-274.33 762,-274.33 762,-279.67 756.67,-285 751.33,-285 751.33,-285 678.67,-285 678.67,-285 673.33,-285 668,-279.67 668,-274.33 668,-274.33 668,-263.67 668,-263.67 668,-258.33 673.33,-253 678.67,-253"/>
</a>
</g>
</g>
<!-- NamedAttr&#45;1846110726563922335 -->
<g id="node5" class="node">
<title>NamedAttr&#45;1846110726563922335</title>
<g id="a_node5"><a xlink:title="18: NamedAttr&#45;1846110726563922335">
<path fill="white" stroke="none" d="M658.17,-174C658.17,-174 711.83,-174 711.83,-174 717.17,-174 722.5,-179.33 722.5,-184.67 722.5,-184.67 722.5,-195.33 722.5,-195.33 722.5,-200.67 717.17,-206 711.83,-206 711.83,-206 658.17,-206 658.17,-206 652.83,-206 647.5,-200.67 647.5,-195.33 647.5,-195.33 647.5,-184.67 647.5,-184.67 647.5,-179.33 652.83,-174 658.17,-174"/>
<text text-anchor="start" x="652.38" y="-184.2" font-family="Helvetica,sans-Serif" font-size="14.00">NamedAttr</text>
<path fill="none" stroke="black" d="M658.17,-174C658.17,-174 711.83,-174 711.83,-174 717.17,-174 722.5,-179.33 722.5,-184.67 722.5,-184.67 722.5,-195.33 722.5,-195.33 722.5,-200.67 717.17,-206 711.83,-206 711.83,-206 658.17,-206 658.17,-206 652.83,-206 647.5,-200.67 647.5,-195.33 647.5,-195.33 647.5,-184.67 647.5,-184.67 647.5,-179.33 652.83,-174 658.17,-174"/>
</a>
</g>
</g>
<!-- String&#45;13601007060649541372 -->
<g id="node6" class="node">
<title>String&#45;13601007060649541372</title>
<g id="a_node6"><a xlink:title="String&#45;13601007060649541372: String&#45;13601007060649541372">
<path fill="white" stroke="none" d="M737.04,-16C737.04,-16 754.96,-16 754.96,-16 760.29,-16 765.62,-21.33 765.62,-26.67 765.62,-26.67 765.62,-37.33 765.62,-37.33 765.62,-42.67 760.29,-48 754.96,-48 754.96,-48 737.04,-48 737.04,-48 731.71,-48 726.38,-42.67 726.38,-37.33 726.38,-37.33 726.38,-26.67 726.38,-26.67 726.38,-21.33 731.71,-16 737.04,-16"/>
<text text-anchor="start" x="731.38" y="-26.2" font-family="Helvetica,sans-Serif" font-size="14.00">&quot;f32&quot;</text>
<path fill="none" stroke="black" d="M737.04,-16C737.04,-16 754.96,-16 754.96,-16 760.29,-16 765.62,-21.33 765.62,-26.67 765.62,-26.67 765.62,-37.33 765.62,-37.33 765.62,-42.67 760.29,-48 754.96,-48 754.96,-48 737.04,-48 737.04,-48 731.71,-48 726.38,-42.67 726.38,-37.33 726.38,-37.33 726.38,-26.67 726.38,-26.67 726.38,-21.33 731.71,-16 737.04,-16"/>
</a>
</g>
</g>
<!-- arith_addf&#45;6334862463755970478 -->
<g id="node7" class="node">
<title>arith_addf&#45;6334862463755970478</title>
<g id="a_node7"><a xlink:title="14: arith_addf&#45;6334862463755970478">
<path fill="white" stroke="none" d="M24.67,-411C24.67,-411 73.33,-411 73.33,-411 78.67,-411 84,-416.33 84,-421.67 84,-421.67 84,-432.33 84,-432.33 84,-437.67 78.67,-443 73.33,-443 73.33,-443 24.67,-443 24.67,-443 19.33,-443 14,-437.67 14,-432.33 14,-432.33 14,-421.67 14,-421.67 14,-416.33 19.33,-411 24.67,-411"/>
<text text-anchor="start" x="19" y="-421.2" font-family="Helvetica,sans-Serif" font-size="14.00">arith_addf</text>
<path fill="none" stroke="black" d="M24.67,-411C24.67,-411 73.33,-411 73.33,-411 78.67,-411 84,-416.33 84,-421.67 84,-421.67 84,-432.33 84,-432.33 84,-437.67 78.67,-443 73.33,-443 73.33,-443 24.67,-443 24.67,-443 19.33,-443 14,-437.67 14,-432.33 14,-432.33 14,-421.67 14,-421.67 14,-416.33 19.33,-411 24.67,-411"/>
</a>
</g>
</g>
<!-- arith_addf&#45;3047796007016042705 -->
<g id="node8" class="node">
<title>arith_addf&#45;3047796007016042705</title>
<g id="a_node8"><a xlink:title="8: arith_addf&#45;3047796007016042705">
<path fill="white" stroke="none" d="M284.67,-332C284.67,-332 333.33,-332 333.33,-332 338.67,-332 344,-337.33 344,-342.67 344,-342.67 344,-353.33 344,-353.33 344,-358.67 338.67,-364 333.33,-364 333.33,-364 284.67,-364 284.67,-364 279.33,-364 274,-358.67 274,-353.33 274,-353.33 274,-342.67 274,-342.67 274,-337.33 279.33,-332 284.67,-332"/>
<text text-anchor="start" x="279" y="-342.2" font-family="Helvetica,sans-Serif" font-size="14.00">arith_addf</text>
<path fill="none" stroke="black" d="M284.67,-332C284.67,-332 333.33,-332 333.33,-332 338.67,-332 344,-337.33 344,-342.67 344,-342.67 344,-353.33 344,-353.33 344,-358.67 338.67,-364 333.33,-364 333.33,-364 284.67,-364 284.67,-364 279.33,-364 274,-358.67 274,-353.33 274,-353.33 274,-342.67 274,-342.67 274,-337.33 279.33,-332 284.67,-332"/>
</a>
</g>
</g>
<!-- NamedOp&#45;7391942084657069733 -->
<g id="node9" class="node">
<title>NamedOp&#45;7391942084657069733</title>
<g id="a_node9"><a xlink:title="12: NamedOp&#45;7391942084657069733">
<path fill="white" stroke="none" d="M597.17,-95C597.17,-95 648.83,-95 648.83,-95 654.17,-95 659.5,-100.33 659.5,-105.67 659.5,-105.67 659.5,-116.33 659.5,-116.33 659.5,-121.67 654.17,-127 648.83,-127 648.83,-127 597.17,-127 597.17,-127 591.83,-127 586.5,-121.67 586.5,-116.33 586.5,-116.33 586.5,-105.67 586.5,-105.67 586.5,-100.33 591.83,-95 597.17,-95"/>
<text text-anchor="start" x="591.5" y="-105.2" font-family="Helvetica,sans-Serif" font-size="14.00">NamedOp</text>
<path fill="none" stroke="black" d="M597.17,-95C597.17,-95 648.83,-95 648.83,-95 654.17,-95 659.5,-100.33 659.5,-105.67 659.5,-105.67 659.5,-116.33 659.5,-116.33 659.5,-121.67 654.17,-127 648.83,-127 648.83,-127 597.17,-127 597.17,-127 591.83,-127 586.5,-121.67 586.5,-116.33 586.5,-116.33 586.5,-105.67 586.5,-105.67 586.5,-100.33 591.83,-95 597.17,-95"/>
</a>
</g>
</g>
<!-- NamedAttr&#45;11831569617677543232 -->
<g id="node10" class="node">
<title>NamedAttr&#45;11831569617677543232</title>
<g id="a_node10"><a xlink:title="10: NamedAttr&#45;11831569617677543232">
<path fill="white" stroke="none" d="M212.17,-253C212.17,-253 265.83,-253 265.83,-253 271.17,-253 276.5,-258.33 276.5,-263.67 276.5,-263.67 276.5,-274.33 276.5,-274.33 276.5,-279.67 271.17,-285 265.83,-285 265.83,-285 212.17,-285 212.17,-285 206.83,-285 201.5,-279.67 201.5,-274.33 201.5,-274.33 201.5,-263.67 201.5,-263.67 201.5,-258.33 206.83,-253 212.17,-253"/>
<text text-anchor="start" x="206.38" y="-263.2" font-family="Helvetica,sans-Serif" font-size="14.00">NamedAttr</text>
<path fill="none" stroke="black" d="M212.17,-253C212.17,-253 265.83,-253 265.83,-253 271.17,-253 276.5,-258.33 276.5,-263.67 276.5,-263.67 276.5,-274.33 276.5,-274.33 276.5,-279.67 271.17,-285 265.83,-285 265.83,-285 212.17,-285 212.17,-285 206.83,-285 201.5,-279.67 201.5,-274.33 201.5,-274.33 201.5,-263.67 201.5,-263.67 201.5,-258.33 206.83,-253 212.17,-253"/>
</a>
</g>
</g>
<!-- String&#45;18036887277116069162 -->
<g id="node11" class="node">
<title>String&#45;18036887277116069162</title>
<g id="a_node11"><a xlink:title="String&#45;18036887277116069162: String&#45;18036887277116069162">
<path fill="white" stroke="none" d="M419.04,-16C419.04,-16 436.96,-16 436.96,-16 442.29,-16 447.62,-21.33 447.62,-26.67 447.62,-26.67 447.62,-37.33 447.62,-37.33 447.62,-42.67 442.29,-48 436.96,-48 436.96,-48 419.04,-48 419.04,-48 413.71,-48 408.38,-42.67 408.38,-37.33 408.38,-37.33 408.38,-26.67 408.38,-26.67 408.38,-21.33 413.71,-16 419.04,-16"/>
<text text-anchor="start" x="413.38" y="-26.2" font-family="Helvetica,sans-Serif" font-size="14.00">&quot;f64&quot;</text>
<path fill="none" stroke="black" d="M419.04,-16C419.04,-16 436.96,-16 436.96,-16 442.29,-16 447.62,-21.33 447.62,-26.67 447.62,-26.67 447.62,-37.33 447.62,-37.33 447.62,-42.67 442.29,-48 436.96,-48 436.96,-48 419.04,-48 419.04,-48 413.71,-48 408.38,-42.67 408.38,-37.33 408.38,-37.33 408.38,-26.67 408.38,-26.67 408.38,-21.33 413.71,-16 419.04,-16"/>
</a>
</g>
</g>
<!-- arith_constant&#45;9723459060348179147 -->
<g id="node12" class="node">
<title>arith_constant&#45;9723459060348179147</title>
<g id="a_node12"><a xlink:title="4: arith_constant&#45;9723459060348179147">
<path fill="white" stroke="none" d="M466.67,-253C466.67,-253 539.33,-253 539.33,-253 544.67,-253 550,-258.33 550,-263.67 550,-263.67 550,-274.33 550,-274.33 550,-279.67 544.67,-285 539.33,-285 539.33,-285 466.67,-285 466.67,-285 461.33,-285 456,-279.67 456,-274.33 456,-274.33 456,-263.67 456,-263.67 456,-258.33 461.33,-253 466.67,-253"/>
<text text-anchor="start" x="460.62" y="-263.2" font-family="Helvetica,sans-Serif" font-size="14.00">arith_constant</text>
<path fill="none" stroke="black" d="M466.67,-253C466.67,-253 539.33,-253 539.33,-253 544.67,-253 550,-258.33 550,-263.67 550,-263.67 550,-274.33 550,-274.33 550,-279.67 544.67,-285 539.33,-285 539.33,-285 466.67,-285 466.67,-285 461.33,-285 456,-279.67 456,-274.33 456,-274.33 456,-263.67 456,-263.67 456,-258.33 461.33,-253 466.67,-253"/>
</a>
</g>
</g>
<!-- NamedAttr&#45;8601266415586661699 -->
<g id="node13" class="node">
<title>NamedAttr&#45;8601266415586661699</title>
<g id="a_node13"><a xlink:title="6: NamedAttr&#45;8601266415586661699">
<path fill="white" stroke="none" d="M484.17,-174C484.17,-174 537.83,-174 537.83,-174 543.17,-174 548.5,-179.33 548.5,-184.67 548.5,-184.67 548.5,-195.33 548.5,-195.33 548.5,-200.67 543.17,-206 537.83,-206 537.83,-206 484.17,-206 484.17,-206 478.83,-206 473.5,-200.67 473.5,-195.33 473.5,-195.33 473.5,-184.67 473.5,-184.67 473.5,-179.33 478.83,-174 484.17,-174"/>
<text text-anchor="start" x="478.38" y="-184.2" font-family="Helvetica,sans-Serif" font-size="14.00">NamedAttr</text>
<path fill="none" stroke="black" d="M484.17,-174C484.17,-174 537.83,-174 537.83,-174 543.17,-174 548.5,-179.33 548.5,-184.67 548.5,-184.67 548.5,-195.33 548.5,-195.33 548.5,-200.67 543.17,-206 537.83,-206 537.83,-206 484.17,-206 484.17,-206 478.83,-206 473.5,-200.67 473.5,-195.33 473.5,-195.33 473.5,-184.67 473.5,-184.67 473.5,-179.33 478.83,-174 484.17,-174"/>
</a>
</g>
</g>
<!-- arith_constant&#45;1502717139435099918 -->
<g id="node14" class="node">
<title>arith_constant&#45;1502717139435099918</title>
<g id="a_node14"><a xlink:title="0: arith_constant&#45;1502717139435099918">
<path fill="white" stroke="none" d="M360.67,-253C360.67,-253 433.33,-253 433.33,-253 438.67,-253 444,-258.33 444,-263.67 444,-263.67 444,-274.33 444,-274.33 444,-279.67 438.67,-285 433.33,-285 433.33,-285 360.67,-285 360.67,-285 355.33,-285 350,-279.67 350,-274.33 350,-274.33 350,-263.67 350,-263.67 350,-258.33 355.33,-253 360.67,-253"/>
<text text-anchor="start" x="354.62" y="-263.2" font-family="Helvetica,sans-Serif" font-size="14.00">arith_constant</text>
<path fill="none" stroke="black" d="M360.67,-253C360.67,-253 433.33,-253 433.33,-253 438.67,-253 444,-258.33 444,-263.67 444,-263.67 444,-274.33 444,-274.33 444,-279.67 438.67,-285 433.33,-285 433.33,-285 360.67,-285 360.67,-285 355.33,-285 350,-279.67 350,-274.33 350,-274.33 350,-263.67 350,-263.67 350,-258.33 355.33,-253 360.67,-253"/>
</a>
</g>
</g>
<!-- String&#45;11357080138195681150 -->
<g id="node15" class="node">
<title>String&#45;11357080138195681150</title>
<g id="a_node15"><a xlink:title="String&#45;11357080138195681150: String&#45;11357080138195681150">
<path fill="white" stroke="none" d="M590.42,-16C590.42,-16 619.58,-16 619.58,-16 624.92,-16 630.25,-21.33 630.25,-26.67 630.25,-26.67 630.25,-37.33 630.25,-37.33 630.25,-42.67 624.92,-48 619.58,-48 619.58,-48 590.42,-48 590.42,-48 585.08,-48 579.75,-42.67 579.75,-37.33 579.75,-37.33 579.75,-26.67 579.75,-26.67 579.75,-21.33 585.08,-16 590.42,-16"/>
<text text-anchor="start" x="584.75" y="-26.2" font-family="Helvetica,sans-Serif" font-size="14.00">&quot;op_1&quot;</text>
<path fill="none" stroke="black" d="M590.42,-16C590.42,-16 619.58,-16 619.58,-16 624.92,-16 630.25,-21.33 630.25,-26.67 630.25,-26.67 630.25,-37.33 630.25,-37.33 630.25,-42.67 624.92,-48 619.58,-48 619.58,-48 590.42,-48 590.42,-48 585.08,-48 579.75,-42.67 579.75,-37.33 579.75,-37.33 579.75,-26.67 579.75,-26.67 579.75,-21.33 585.08,-16 590.42,-16"/>
</a>
</g>
</g>
<!-- NamedAttr&#45;3560886463040203503 -->
<g id="node16" class="node">
<title>NamedAttr&#45;3560886463040203503</title>
<g id="a_node16"><a xlink:title="2: NamedAttr&#45;3560886463040203503">
<path fill="white" stroke="none" d="M384.17,-174C384.17,-174 437.83,-174 437.83,-174 443.17,-174 448.5,-179.33 448.5,-184.67 448.5,-184.67 448.5,-195.33 448.5,-195.33 448.5,-200.67 443.17,-206 437.83,-206 437.83,-206 384.17,-206 384.17,-206 378.83,-206 373.5,-200.67 373.5,-195.33 373.5,-195.33 373.5,-184.67 373.5,-184.67 373.5,-179.33 378.83,-174 384.17,-174"/>
<text text-anchor="start" x="378.38" y="-184.2" font-family="Helvetica,sans-Serif" font-size="14.00">NamedAttr</text>
<path fill="none" stroke="black" d="M384.17,-174C384.17,-174 437.83,-174 437.83,-174 443.17,-174 448.5,-179.33 448.5,-184.67 448.5,-184.67 448.5,-195.33 448.5,-195.33 448.5,-200.67 443.17,-206 437.83,-206 437.83,-206 384.17,-206 384.17,-206 378.83,-206 373.5,-200.67 373.5,-195.33 373.5,-195.33 373.5,-184.67 373.5,-184.67 373.5,-179.33 378.83,-174 384.17,-174"/>
</a>
</g>
</g>
<!-- FloatAttr&#45;8967184907069507595 -->
<g id="node17" class="node">
<title>FloatAttr&#45;8967184907069507595</title>
<g id="a_node17"><a xlink:title="1: FloatAttr&#45;8967184907069507595">
<path fill="white" stroke="none" d="M361.17,-95C361.17,-95 400.83,-95 400.83,-95 406.17,-95 411.5,-100.33 411.5,-105.67 411.5,-105.67 411.5,-116.33 411.5,-116.33 411.5,-121.67 406.17,-127 400.83,-127 400.83,-127 361.17,-127 361.17,-127 355.83,-127 350.5,-121.67 350.5,-116.33 350.5,-116.33 350.5,-105.67 350.5,-105.67 350.5,-100.33 355.83,-95 361.17,-95"/>
<text text-anchor="start" x="355.5" y="-105.2" font-family="Helvetica,sans-Serif" font-size="14.00">FloatAttr</text>
<path fill="none" stroke="black" d="M361.17,-95C361.17,-95 400.83,-95 400.83,-95 406.17,-95 411.5,-100.33 411.5,-105.67 411.5,-105.67 411.5,-116.33 411.5,-116.33 411.5,-121.67 406.17,-127 400.83,-127 400.83,-127 361.17,-127 361.17,-127 355.83,-127 350.5,-121.67 350.5,-116.33 350.5,-116.33 350.5,-105.67 350.5,-105.67 350.5,-100.33 355.83,-95 361.17,-95"/>
</a>
</g>
</g>
<!-- FloatAttr&#45;9670903108499433938 -->
<g id="node18" class="node">
<title>FloatAttr&#45;9670903108499433938</title>
<g id="a_node18"><a xlink:title="5: FloatAttr&#45;9670903108499433938">
<path fill="white" stroke="none" d="M523.17,-95C523.17,-95 562.83,-95 562.83,-95 568.17,-95 573.5,-100.33 573.5,-105.67 573.5,-105.67 573.5,-116.33 573.5,-116.33 573.5,-121.67 568.17,-127 562.83,-127 562.83,-127 523.17,-127 523.17,-127 517.83,-127 512.5,-121.67 512.5,-116.33 512.5,-116.33 512.5,-105.67 512.5,-105.67 512.5,-100.33 517.83,-95 523.17,-95"/>
<text text-anchor="start" x="517.5" y="-105.2" font-family="Helvetica,sans-Serif" font-size="14.00">FloatAttr</text>
<path fill="none" stroke="black" d="M523.17,-95C523.17,-95 562.83,-95 562.83,-95 568.17,-95 573.5,-100.33 573.5,-105.67 573.5,-105.67 573.5,-116.33 573.5,-116.33 573.5,-121.67 568.17,-127 562.83,-127 562.83,-127 523.17,-127 523.17,-127 517.83,-127 512.5,-121.67 512.5,-116.33 512.5,-116.33 512.5,-105.67 512.5,-105.67 512.5,-100.33 517.83,-95 523.17,-95"/>
</a>
</g>
</g>
<!-- OtherAttr&#45;3799594150487030370 -->
<g id="node19" class="node">
<title>OtherAttr&#45;3799594150487030370</title>
<g id="a_node19"><a xlink:title="9: OtherAttr&#45;3799594150487030370">
<path fill="white" stroke="none" d="M155.17,-174C155.17,-174 198.83,-174 198.83,-174 204.17,-174 209.5,-179.33 209.5,-184.67 209.5,-184.67 209.5,-195.33 209.5,-195.33 209.5,-200.67 204.17,-206 198.83,-206 198.83,-206 155.17,-206 155.17,-206 149.83,-206 144.5,-200.67 144.5,-195.33 144.5,-195.33 144.5,-184.67 144.5,-184.67 144.5,-179.33 149.83,-174 155.17,-174"/>
<text text-anchor="start" x="149.25" y="-184.2" font-family="Helvetica,sans-Serif" font-size="14.00">OtherAttr</text>
<path fill="none" stroke="black" d="M155.17,-174C155.17,-174 198.83,-174 198.83,-174 204.17,-174 209.5,-179.33 209.5,-184.67 209.5,-184.67 209.5,-195.33 209.5,-195.33 209.5,-200.67 204.17,-206 198.83,-206 198.83,-206 155.17,-206 155.17,-206 149.83,-206 144.5,-200.67 144.5,-195.33 144.5,-195.33 144.5,-184.67 144.5,-184.67 144.5,-179.33 149.83,-174 155.17,-174"/>
</a>
</g>
</g>
<!-- String&#45;9670903108499433938 -->
<g id="node20" class="node">
<title>String&#45;9670903108499433938</title>
<g id="a_node20"><a xlink:title="String&#45;9670903108499433938: String&#45;9670903108499433938">
<path fill="white" stroke="none" d="M63.17,-95C63.17,-95 198.83,-95 198.83,-95 204.17,-95 209.5,-100.33 209.5,-105.67 209.5,-105.67 209.5,-116.33 209.5,-116.33 209.5,-121.67 204.17,-127 198.83,-127 198.83,-127 63.17,-127 63.17,-127 57.83,-127 52.5,-121.67 52.5,-116.33 52.5,-116.33 52.5,-105.67 52.5,-105.67 52.5,-100.33 57.83,-95 63.17,-95"/>
<text text-anchor="start" x="57.5" y="-105.2" font-family="Helvetica,sans-Serif" font-size="14.00">&quot;#arith.fastmath&lt;none&gt;&quot;</text>
<path fill="none" stroke="black" d="M63.17,-95C63.17,-95 198.83,-95 198.83,-95 204.17,-95 209.5,-100.33 209.5,-105.67 209.5,-105.67 209.5,-116.33 209.5,-116.33 209.5,-121.67 204.17,-127 198.83,-127 198.83,-127 63.17,-127 63.17,-127 57.83,-127 52.5,-121.67 52.5,-116.33 52.5,-116.33 52.5,-105.67 52.5,-105.67 52.5,-100.33 57.83,-95 63.17,-95"/>
</a>
</g>
</g>
<!-- String&#45;1857445047521536466 -->
<g id="node21" class="node">
<title>String&#45;1857445047521536466</title>
<g id="a_node21"><a xlink:title="String&#45;1857445047521536466: String&#45;1857445047521536466">
<path fill="white" stroke="none" d="M233.17,-95C233.17,-95 314.83,-95 314.83,-95 320.17,-95 325.5,-100.33 325.5,-105.67 325.5,-105.67 325.5,-116.33 325.5,-116.33 325.5,-121.67 320.17,-127 314.83,-127 314.83,-127 233.17,-127 233.17,-127 227.83,-127 222.5,-121.67 222.5,-116.33 222.5,-116.33 222.5,-105.67 222.5,-105.67 222.5,-100.33 227.83,-95 233.17,-95"/>
<text text-anchor="start" x="227.5" y="-105.2" font-family="Helvetica,sans-Serif" font-size="14.00">&quot;arith.fastmath&quot;</text>
<path fill="none" stroke="black" d="M233.17,-95C233.17,-95 314.83,-95 314.83,-95 320.17,-95 325.5,-100.33 325.5,-105.67 325.5,-105.67 325.5,-116.33 325.5,-116.33 325.5,-121.67 320.17,-127 314.83,-127 314.83,-127 233.17,-127 233.17,-127 227.83,-127 222.5,-121.67 222.5,-116.33 222.5,-116.33 222.5,-105.67 222.5,-105.67 222.5,-100.33 227.83,-95 233.17,-95"/>
</a>
</g>
</g>
<!-- FloatAttr&#45;13601007060649541372 -->
<g id="node22" class="node">
<title>FloatAttr&#45;13601007060649541372</title>
<g id="a_node22"><a xlink:title="17: FloatAttr&#45;13601007060649541372">
<path fill="white" stroke="none" d="M683.17,-95C683.17,-95 722.83,-95 722.83,-95 728.17,-95 733.5,-100.33 733.5,-105.67 733.5,-105.67 733.5,-116.33 733.5,-116.33 733.5,-121.67 728.17,-127 722.83,-127 722.83,-127 683.17,-127 683.17,-127 677.83,-127 672.5,-121.67 672.5,-116.33 672.5,-116.33 672.5,-105.67 672.5,-105.67 672.5,-100.33 677.83,-95 683.17,-95"/>
<text text-anchor="start" x="677.5" y="-105.2" font-family="Helvetica,sans-Serif" font-size="14.00">FloatAttr</text>
<path fill="none" stroke="black" d="M683.17,-95C683.17,-95 722.83,-95 722.83,-95 728.17,-95 733.5,-100.33 733.5,-105.67 733.5,-105.67 733.5,-116.33 733.5,-116.33 733.5,-121.67 728.17,-127 722.83,-127 722.83,-127 683.17,-127 683.17,-127 677.83,-127 672.5,-121.67 672.5,-116.33 672.5,-116.33 672.5,-105.67 672.5,-105.67 672.5,-100.33 677.83,-95 683.17,-95"/>
</a>
</g>
</g>
<!-- String&#45;10935535880771619347 -->
<g id="node23" class="node">
<title>String&#45;10935535880771619347</title>
<g id="a_node23"><a xlink:title="String&#45;10935535880771619347: String&#45;10935535880771619347">
<path fill="white" stroke="none" d="M457.29,-95C457.29,-95 488.71,-95 488.71,-95 494.04,-95 499.38,-100.33 499.38,-105.67 499.38,-105.67 499.38,-116.33 499.38,-116.33 499.38,-121.67 494.04,-127 488.71,-127 488.71,-127 457.29,-127 457.29,-127 451.96,-127 446.62,-121.67 446.62,-116.33 446.62,-116.33 446.62,-105.67 446.62,-105.67 446.62,-100.33 451.96,-95 457.29,-95"/>
<text text-anchor="start" x="451.62" y="-105.2" font-family="Helvetica,sans-Serif" font-size="14.00">&quot;value&quot;</text>
<path fill="none" stroke="black" d="M457.29,-95C457.29,-95 488.71,-95 488.71,-95 494.04,-95 499.38,-100.33 499.38,-105.67 499.38,-105.67 499.38,-116.33 499.38,-116.33 499.38,-121.67 494.04,-127 488.71,-127 488.71,-127 457.29,-127 457.29,-127 451.96,-127 446.62,-121.67 446.62,-116.33 446.62,-116.33 446.62,-105.67 446.62,-105.67 446.62,-100.33 451.96,-95 457.29,-95"/>
</a>
</g>
</g>
<!-- String&#45;5764174078010485202 -->
<g id="node24" class="node">
<title>String&#45;5764174078010485202</title>
<g id="a_node24"><a xlink:title="String&#45;5764174078010485202: String&#45;5764174078010485202">
<path fill="white" stroke="none" d="M233.17,-174C233.17,-174 284.83,-174 284.83,-174 290.17,-174 295.5,-179.33 295.5,-184.67 295.5,-184.67 295.5,-195.33 295.5,-195.33 295.5,-200.67 290.17,-206 284.83,-206 284.83,-206 233.17,-206 233.17,-206 227.83,-206 222.5,-200.67 222.5,-195.33 222.5,-195.33 222.5,-184.67 222.5,-184.67 222.5,-179.33 227.83,-174 233.17,-174"/>
<text text-anchor="start" x="227.5" y="-184.2" font-family="Helvetica,sans-Serif" font-size="14.00">&quot;fastmath&quot;</text>
<path fill="none" stroke="black" d="M233.17,-174C233.17,-174 284.83,-174 284.83,-174 290.17,-174 295.5,-179.33 295.5,-184.67 295.5,-184.67 295.5,-195.33 295.5,-195.33 295.5,-200.67 290.17,-206 284.83,-206 284.83,-206 233.17,-206 233.17,-206 227.83,-206 222.5,-200.67 222.5,-195.33 222.5,-195.33 222.5,-184.67 222.5,-184.67 222.5,-179.33 227.83,-174 233.17,-174"/>
</a>
</g>
</g>
</g>
</svg>
