<?xml version="1.0" encoding="UTF-8" standalone="no"?>
<!DOCTYPE svg PUBLIC "-//W3C//DTD SVG 1.1//EN"
 "http://www.w3.org/Graphics/SVG/1.1/DTD/svg11.dtd">
<!-- Generated by graphviz version 12.0.0 (20240704.0754)
 -->
<!-- Pages: 1 -->
<svg width="963pt" height="388pt"
 viewBox="0.00 0.00 963.00 388.00" xmlns="http://www.w3.org/2000/svg" xmlns:xlink="http://www.w3.org/1999/xlink">
<g id="graph0" class="graph" transform="scale(1 1) rotate(0) translate(4 384)">
<polygon fill="white" stroke="none" points="-4,4 -4,-384 959,-384 959,4 -4,4"/>
<g id="clust1" class="cluster">
<title>outer_cluster_14</title>
</g>
<g id="clust2" class="cluster">
<title>cluster_14</title>
<path fill="#ffffb3" stroke="black" stroke-dasharray="5,2" d="M42,-248C42,-248 118,-248 118,-248 124,-248 130,-254 130,-260 130,-260 130,-278 130,-278 130,-284 124,-290 118,-290 118,-290 42,-290 42,-290 36,-290 30,-284 30,-278 30,-278 30,-260 30,-260 30,-254 36,-248 42,-248"/>
</g>
<g id="clust4" class="cluster">
<title>outer_cluster_4</title>
</g>
<g id="clust5" class="cluster">
<title>cluster_4</title>
<path fill="#ffffb3" stroke="black" stroke-dasharray="5,2" d="M392,-169C392,-169 468,-169 468,-169 474,-169 480,-175 480,-181 480,-181 480,-199 480,-199 480,-205 474,-211 468,-211 468,-211 392,-211 392,-211 386,-211 380,-205 380,-199 380,-199 380,-181 380,-181 380,-175 386,-169 392,-169"/>
</g>
<g id="clust7" class="cluster">
<title>outer_cluster_0</title>
</g>
<g id="clust8" class="cluster">
<title>cluster_0</title>
<path fill="#ffffb3" stroke="black" stroke-dasharray="5,2" d="M402,-90C402,-90 458,-90 458,-90 464,-90 470,-96 470,-102 470,-102 470,-120 470,-120 470,-126 464,-132 458,-132 458,-132 402,-132 402,-132 396,-132 390,-126 390,-120 390,-120 390,-102 390,-102 390,-96 396,-90 402,-90"/>
</g>
<g id="clust10" class="cluster">
<title>outer_cluster_12</title>
</g>
<g id="clust11" class="cluster">
<title>cluster_12</title>
<path fill="#ffffb3" stroke="black" stroke-dasharray="5,2" d="M526,-327C526,-327 726,-327 726,-327 732,-327 738,-333 738,-339 738,-339 738,-357 738,-357 738,-363 732,-369 726,-369 726,-369 526,-369 526,-369 520,-369 514,-363 514,-357 514,-357 514,-339 514,-339 514,-333 520,-327 526,-327"/>
</g>
<g id="clust13" class="cluster">
<title>outer_cluster_8</title>
</g>
<g id="clust14" class="cluster">
<title>cluster_8</title>
<path fill="#ffffb3" stroke="black" stroke-dasharray="5,2" d="M330,-248C330,-248 554,-248 554,-248 560,-248 566,-254 566,-260 566,-260 566,-278 566,-278 566,-284 560,-290 554,-290 554,-290 330,-290 330,-290 324,-290 318,-284 318,-278 318,-278 318,-260 318,-260 318,-254 324,-248 330,-248"/>
</g>
<g id="clust16" class="cluster">
<title>outer_cluster_2</title>
</g>
<g id="clust17" class="cluster">
<title>cluster_2</title>
<path fill="#ffffb3" stroke="black" stroke-dasharray="5,2" d="M606,-248C606,-248 662,-248 662,-248 668,-248 674,-254 674,-260 674,-260 674,-278 674,-278 674,-284 668,-290 662,-290 662,-290 606,-290 606,-290 600,-290 594,-284 594,-278 594,-278 594,-260 594,-260 594,-254 600,-248 606,-248"/>
</g>
<g id="clust19" class="cluster">
<title>outer_cluster_6</title>
</g>
<g id="clust20" class="cluster">
<title>cluster_6</title>
<path fill="#bebada" stroke="black" stroke-dasharray="5,2" d="M216,-169C216,-169 274,-169 274,-169 280,-169 286,-175 286,-181 286,-181 286,-199 286,-199 286,-205 280,-211 274,-211 274,-211 216,-211 216,-211 210,-211 204,-205 204,-199 204,-199 204,-181 204,-181 204,-175 210,-169 216,-169"/>
</g>
<g id="clust22" class="cluster">
<title>outer_cluster_21</title>
</g>
<g id="clust23" class="cluster">
<title>cluster_21</title>
<path fill="#bebada" stroke="black" stroke-dasharray="5,2" d="M304,-169C304,-169 362,-169 362,-169 368,-169 374,-175 374,-181 374,-181 374,-199 374,-199 374,-205 368,-211 362,-211 362,-211 304,-211 304,-211 298,-211 292,-205 292,-199 292,-199 292,-181 292,-181 292,-175 298,-169 304,-169"/>
</g>
<g id="clust25" class="cluster">
<title>outer_cluster_16</title>
</g>
<g id="clust26" class="cluster">
<title>cluster_16</title>
<path fill="#bebada" stroke="black" stroke-dasharray="5,2" d="M62,-169C62,-169 120,-169 120,-169 126,-169 132,-175 132,-181 132,-181 132,-199 132,-199 132,-205 126,-211 120,-211 120,-211 62,-211 62,-211 56,-211 50,-205 50,-199 50,-199 50,-181 50,-181 50,-175 56,-169 62,-169"/>
</g>
<g id="clust28" class="cluster">
<title>outer_cluster_10</title>
</g>
<g id="clust29" class="cluster">
<title>cluster_10</title>
<path fill="#bebada" stroke="black" stroke-dasharray="5,2" d="M684,-169C684,-169 742,-169 742,-169 748,-169 754,-175 754,-181 754,-181 754,-199 754,-199 754,-205 748,-211 742,-211 742,-211 684,-211 684,-211 678,-211 672,-205 672,-199 672,-199 672,-181 672,-181 672,-175 678,-169 684,-169"/>
</g>
<g id="clust31" class="cluster">
<title>outer_cluster_String&#45;9670903108499433938</title>
</g>
<g id="clust32" class="cluster">
<title>cluster_String&#45;9670903108499433938</title>
<path fill="#fb8072" stroke="black" stroke-dasharray="5,2" d="M676,-11C676,-11 816,-11 816,-11 822,-11 828,-17 828,-23 828,-23 828,-41 828,-41 828,-47 822,-53 816,-53 816,-53 676,-53 676,-53 670,-53 664,-47 664,-41 664,-41 664,-23 664,-23 664,-17 670,-11 676,-11"/>
</g>
<g id="clust34" class="cluster">
<title>outer_cluster_String&#45;7729226054085538919</title>
</g>
<g id="clust35" class="cluster">
<title>cluster_String&#45;7729226054085538919</title>
<path fill="#fb8072" stroke="black" stroke-dasharray="5,2" d="M23,-11C23,-11 59,-11 59,-11 65,-11 71,-17 71,-23 71,-23 71,-41 71,-41 71,-47 65,-53 59,-53 59,-53 23,-53 23,-53 17,-53 11,-47 11,-41 11,-41 11,-23 11,-23 11,-17 17,-11 23,-11"/>
</g>
<g id="clust37" class="cluster">
<title>outer_cluster_String&#45;5764174078010485202</title>
</g>
<g id="clust38" class="cluster">
<title>cluster_String&#45;5764174078010485202</title>
<path fill="#fb8072" stroke="black" stroke-dasharray="5,2" d="M684,-90C684,-90 740,-90 740,-90 746,-90 752,-96 752,-102 752,-102 752,-120 752,-120 752,-126 746,-132 740,-132 740,-132 684,-132 684,-132 678,-132 672,-126 672,-120 672,-120 672,-102 672,-102 672,-96 678,-90 684,-90"/>
</g>
<g id="clust40" class="cluster">
<title>outer_cluster_String&#45;18036887277116069162</title>
</g>
<g id="clust41" class="cluster">
<title>cluster_String&#45;18036887277116069162</title>
<path fill="#fb8072" stroke="black" stroke-dasharray="5,2" d="M481,-11C481,-11 517,-11 517,-11 523,-11 529,-17 529,-23 529,-23 529,-41 529,-41 529,-47 523,-53 517,-53 517,-53 481,-53 481,-53 475,-53 469,-47 469,-41 469,-41 469,-23 469,-23 469,-17 475,-11 481,-11"/>
</g>
<g id="clust43" class="cluster">
<title>outer_cluster_String&#45;5063754874207616894</title>
</g>
<g id="clust44" class="cluster">
<title>cluster_String&#45;5063754874207616894</title>
<path fill="#fb8072" stroke="black" stroke-dasharray="5,2" d="M250,-90C250,-90 286,-90 286,-90 292,-90 298,-96 298,-102 298,-102 298,-120 298,-120 298,-126 292,-132 286,-132 286,-132 250,-132 250,-132 244,-132 238,-126 238,-120 238,-120 238,-102 238,-102 238,-96 244,-90 250,-90"/>
</g>
<g id="clust46" class="cluster">
<title>outer_cluster_String&#45;14432408114667085629</title>
</g>
<g id="clust47" class="cluster">
<title>cluster_String&#45;14432408114667085629</title>
<path fill="#fb8072" stroke="black" stroke-dasharray="5,2" d="M846,-11C846,-11 932,-11 932,-11 938,-11 944,-17 944,-23 944,-23 944,-41 944,-41 944,-47 938,-53 932,-53 932,-53 846,-53 846,-53 840,-53 834,-47 834,-41 834,-41 834,-23 834,-23 834,-17 840,-11 846,-11"/>
</g>
<g id="clust49" class="cluster">
<title>outer_cluster_i64&#45;11743562013128004906</title>
</g>
<g id="clust50" class="cluster">
<title>cluster_i64&#45;11743562013128004906</title>
<path fill="#80b1d3" stroke="black" stroke-dasharray="5,2" d="M264,-248C264,-248 300,-248 300,-248 306,-248 312,-254 312,-260 312,-260 312,-278 312,-278 312,-284 306,-290 300,-290 300,-290 264,-290 264,-290 258,-290 252,-284 252,-278 252,-278 252,-260 252,-260 252,-254 258,-248 264,-248"/>
</g>
<g id="clust52" class="cluster">
<title>outer_cluster_i64&#45;12574963067145549163</title>
</g>
<g id="clust53" class="cluster">
<title>cluster_i64&#45;12574963067145549163</title>
<path fill="#80b1d3" stroke="black" stroke-dasharray="5,2" d="M530,-169C530,-169 566,-169 566,-169 572,-169 578,-175 578,-181 578,-181 578,-199 578,-199 578,-205 572,-211 566,-211 566,-211 530,-211 530,-211 524,-211 518,-205 518,-199 518,-199 518,-181 518,-181 518,-175 524,-169 530,-169"/>
</g>
<g id="clust55" class="cluster">
<title>outer_cluster_i64&#45;5871781006564002453</title>
</g>
<g id="clust56" class="cluster">
<title>cluster_i64&#45;5871781006564002453</title>
<path fill="#80b1d3" stroke="black" stroke-dasharray="5,2" d="M596,-169C596,-169 632,-169 632,-169 638,-169 644,-175 644,-181 644,-181 644,-199 644,-199 644,-205 638,-211 632,-211 632,-211 596,-211 596,-211 590,-211 584,-205 584,-199 584,-199 584,-181 584,-181 584,-175 590,-169 596,-169"/>
</g>
<g id="clust58" class="cluster">
<title>outer_cluster_i64&#45;0</title>
</g>
<g id="clust59" class="cluster">
<title>cluster_i64&#45;0</title>
<path fill="#80b1d3" stroke="black" stroke-dasharray="5,2" d="M383,-11C383,-11 419,-11 419,-11 425,-11 431,-17 431,-23 431,-23 431,-41 431,-41 431,-47 425,-53 419,-53 419,-53 383,-53 383,-53 377,-53 371,-47 371,-41 371,-41 371,-23 371,-23 371,-17 377,-11 383,-11"/>
</g>
<g id="clust61" class="cluster">
<title>outer_cluster_i64&#45;17615343019692007359</title>
</g>
<g id="clust62" class="cluster">
<title>cluster_i64&#45;17615343019692007359</title>
<path fill="#80b1d3" stroke="black" stroke-dasharray="5,2" d="M150,-169C150,-169 186,-169 186,-169 192,-169 198,-175 198,-181 198,-181 198,-199 198,-199 198,-205 192,-211 186,-211 186,-211 150,-211 150,-211 144,-211 138,-205 138,-199 138,-199 138,-181 138,-181 138,-175 144,-169 150,-169"/>
</g>
<g id="clust64" class="cluster">
<title>outer_cluster_20</title>
</g>
<g id="clust65" class="cluster">
<title>cluster_20</title>
<path fill="#fdb462" stroke="black" stroke-dasharray="5,2" d="M316,-90C316,-90 360,-90 360,-90 366,-90 372,-96 372,-102 372,-102 372,-120 372,-120 372,-126 366,-132 360,-132 360,-132 316,-132 316,-132 310,-132 304,-126 304,-120 304,-120 304,-102 304,-102 304,-96 310,-90 316,-90"/>
</g>
<g id="clust67" class="cluster">
<title>outer_cluster_5</title>
</g>
<g id="clust68" class="cluster">
<title>cluster_5</title>
<path fill="#fdb462" stroke="black" stroke-dasharray="5,2" d="M176,-90C176,-90 220,-90 220,-90 226,-90 232,-96 232,-102 232,-102 232,-120 232,-120 232,-126 226,-132 220,-132 220,-132 176,-132 176,-132 170,-132 164,-126 164,-120 164,-120 164,-102 164,-102 164,-96 170,-90 176,-90"/>
</g>
<g id="clust70" class="cluster">
<title>outer_cluster_15</title>
</g>
<g id="clust71" class="cluster">
<title>cluster_15</title>
<path fill="#fdb462" stroke="black" stroke-dasharray="5,2" d="M87,-90C87,-90 131,-90 131,-90 137,-90 143,-96 143,-102 143,-102 143,-120 143,-120 143,-126 137,-132 131,-132 131,-132 87,-132 87,-132 81,-132 75,-126 75,-120 75,-120 75,-102 75,-102 75,-96 81,-90 87,-90"/>
</g>
<g id="clust73" class="cluster">
<title>outer_cluster_9</title>
</g>
<g id="clust74" class="cluster">
<title>cluster_9</title>
<path fill="#fdb462" stroke="black" stroke-dasharray="5,2" d="M794,-90C794,-90 842,-90 842,-90 848,-90 854,-96 854,-102 854,-102 854,-120 854,-120 854,-126 848,-132 842,-132 842,-132 794,-132 794,-132 788,-132 782,-126 782,-120 782,-120 782,-102 782,-102 782,-96 788,-90 794,-90"/>
</g>
<g id="clust76" class="cluster">
<title>outer_cluster_f64&#45;16811937408974061568</title>
</g>
<g id="clust77" class="cluster">
<title>cluster_f64&#45;16811937408974061568</title>
<path fill="#b3de69" stroke="black" stroke-dasharray="5,2" d="M305,-11C305,-11 341,-11 341,-11 347,-11 353,-17 353,-23 353,-23 353,-41 353,-41 353,-47 347,-53 341,-53 341,-53 305,-53 305,-53 299,-53 293,-47 293,-41 293,-41 293,-23 293,-23 293,-17 299,-11 305,-11"/>
</g>
<g id="clust79" class="cluster">
<title>outer_cluster_f64&#45;4611686018427387904</title>
</g>
<g id="clust80" class="cluster">
<title>cluster_f64&#45;4611686018427387904</title>
<path fill="#b3de69" stroke="black" stroke-dasharray="5,2" d="M165,-11C165,-11 201,-11 201,-11 207,-11 213,-17 213,-23 213,-23 213,-41 213,-41 213,-47 207,-53 201,-53 201,-53 165,-53 165,-53 159,-53 153,-47 153,-41 153,-41 153,-23 153,-23 153,-17 159,-11 165,-11"/>
</g>
<g id="clust82" class="cluster">
<title>outer_cluster_f64&#45;0</title>
</g>
<g id="clust83" class="cluster">
<title>cluster_f64&#45;0</title>
<path fill="#b3de69" stroke="black" stroke-dasharray="5,2" d="M89,-11C89,-11 125,-11 125,-11 131,-11 137,-17 137,-23 137,-23 137,-41 137,-41 137,-47 131,-53 125,-53 125,-53 89,-53 89,-53 83,-53 77,-47 77,-41 77,-41 77,-23 77,-23 77,-17 83,-11 89,-11"/>
</g>
<!-- arith_constant&#45;14001371589644730109&#45;&gt;i64&#45;17615343019692007359 -->
<g id="edge1" class="edge">
<title>arith_constant&#45;14001371589644730109:s&#45;&gt;i64&#45;17615343019692007359</title>
<path fill="none" stroke="black" d="M57,-253C57,-215.03 100.2,-233.12 133,-214 134.53,-213.11 136.09,-212.18 137.65,-211.22"/>
<polygon fill="black" stroke="black" points="134.31,-216.56 136.87,-211.92 131.98,-213.94 134.31,-216.56"/>
</g>
<!-- arith_constant&#45;14001371589644730109&#45;&gt;NamedAttr&#45;9307781555607459027 -->
<g id="edge2" class="edge">
<title>arith_constant&#45;14001371589644730109:s&#45;&gt;NamedAttr&#45;9307781555607459027</title>
<path fill="none" stroke="black" d="M91.5,-253C91.5,-240.22 91.39,-225.96 91.28,-214.35"/>
<polygon fill="black" stroke="black" points="93.09,-217.48 91.24,-212.51 89.59,-217.55 93.09,-217.48"/>
</g>
<!-- arith_constant&#45;14001371589644730109&#45;&gt;String&#45;7729226054085538919 -->
<g id="edge3" class="edge">
<title>arith_constant&#45;14001371589644730109:s&#45;&gt;String&#45;7729226054085538919</title>
<path fill="none" stroke="black" d="M114.5,-253C114.5,-219.12 66.39,-243.08 49,-214 19.24,-164.24 28.19,-92.29 35.53,-55.91"/>
<polygon fill="black" stroke="black" points="35.82,-59.68 36.19,-54.39 32.61,-58.29 35.82,-59.68"/>
</g>
<!-- NamedAttr&#45;9307781555607459027&#45;&gt;String&#45;5063754874207616894 -->
<g id="edge43" class="edge">
<title>NamedAttr&#45;9307781555607459027:s&#45;&gt;String&#45;5063754874207616894</title>
<path fill="none" stroke="black" d="M72.5,-174C72.5,-100.59 165.67,-164.25 233,-135 235.05,-134.11 237.12,-133.1 239.17,-132.01"/>
<polygon fill="black" stroke="black" points="233.05,-133.91 238,-132.04 232.96,-130.41 233.05,-133.91"/>
</g>
<!-- NamedAttr&#45;9307781555607459027&#45;&gt;FloatAttr&#45;7729226054085538919 -->
<g id="edge44" class="edge">
<title>NamedAttr&#45;9307781555607459027:s&#45;&gt;FloatAttr&#45;7729226054085538919</title>
<path fill="none" stroke="black" d="M109,-174C109,-161.22 109,-146.96 109,-135.35"/>
<polygon fill="black" stroke="black" points="110.75,-138.51 109,-133.51 107.25,-138.51 110.75,-138.51"/>
</g>
<!-- arith_constant&#45;9723459060348179147&#45;&gt;i64&#45;0 -->
<g id="edge4" class="edge">
<title>arith_constant&#45;9723459060348179147:s&#45;&gt;i64&#45;0</title>
<path fill="none" stroke="black" d="M407,-174C407,-154.91 393.1,-153.65 389,-135 384.42,-114.16 386.67,-108.21 389,-87 390.12,-76.76 392.41,-65.62 394.69,-56.14"/>
<polygon fill="black" stroke="black" points="394.92,-59.61 395.58,-54.35 391.78,-58.05 394.92,-59.61"/>
</g>
<!-- arith_constant&#45;9723459060348179147&#45;&gt;NamedAttr&#45;7644979447572370513 -->
<g id="edge5" class="edge">
<title>arith_constant&#45;9723459060348179147:s&#45;&gt;NamedAttr&#45;7644979447572370513</title>
<path fill="none" stroke="black" d="M441.5,-174C441.5,-106.71 355.51,-119.58 293,-144.5 280.9,-149.32 270.1,-158.81 261.82,-167.87"/>
<polygon fill="black" stroke="black" points="264.62,-164.12 261.26,-168.21 266.44,-167.11 264.62,-164.12"/>
</g>
<!-- arith_constant&#45;9723459060348179147&#45;&gt;String&#45;18036887277116069162 -->
<g id="edge6" class="edge">
<title>arith_constant&#45;9723459060348179147:s&#45;&gt;String&#45;18036887277116069162</title>
<path fill="none" stroke="black" d="M464.5,-174C464.5,-162.24 482.85,-92.64 492.78,-55.82"/>
<polygon fill="black" stroke="black" points="492.66,-59.51 493.66,-54.31 489.64,-57.76 492.66,-59.51"/>
</g>
<!-- NamedAttr&#45;7644979447572370513&#45;&gt;String&#45;5063754874207616894 -->
<g id="edge39" class="edge">
<title>NamedAttr&#45;7644979447572370513:s&#45;&gt;String&#45;5063754874207616894</title>
<path fill="none" stroke="black" d="M226.5,-174C226.5,-158.95 235.05,-144.79 244.39,-133.81"/>
<polygon fill="black" stroke="black" points="242.65,-137.39 245.51,-132.93 240.5,-134.63 242.65,-137.39"/>
</g>
<!-- NamedAttr&#45;7644979447572370513&#45;&gt;FloatAttr&#45;9670903108499433938 -->
<g id="edge40" class="edge">
<title>NamedAttr&#45;7644979447572370513:s&#45;&gt;FloatAttr&#45;9670903108499433938</title>
<path fill="none" stroke="black" d="M263,-174C263,-163.24 244.11,-146.06 226.69,-132.51"/>
<polygon fill="black" stroke="black" points="232.33,-133.83 227.14,-132.77 230.54,-136.83 232.33,-133.83"/>
</g>
<!-- NamedOp&#45;18036887277116069162&#45;&gt;i64&#45;0 -->
<g id="edge7" class="edge">
<title>NamedOp&#45;18036887277116069162:s&#45;&gt;i64&#45;0</title>
<path fill="none" stroke="black" d="M412,-95C412,-81.99 409.62,-67.69 407.08,-56.1"/>
<polygon fill="black" stroke="black" points="409.97,-58.2 406.29,-54.38 406.78,-59.65 409.97,-58.2"/>
</g>
<!-- NamedOp&#45;18036887277116069162&#45;&gt;String&#45;18036887277116069162 -->
<g id="edge8" class="edge">
<title>NamedOp&#45;18036887277116069162:s&#45;&gt;String&#45;18036887277116069162</title>
<path fill="none" stroke="black" d="M447.5,-95C447.5,-78.82 458.01,-64.6 469.53,-53.88"/>
<polygon fill="black" stroke="black" points="466.27,-57.65 469.83,-53.72 464.6,-54.57 466.27,-57.65"/>
</g>
<!-- arith_addf&#45;18158653556061514656&#45;&gt;String&#45;18036887277116069162 -->
<g id="edge13" class="edge">
<title>arith_addf&#45;18158653556061514656:s&#45;&gt;String&#45;18036887277116069162</title>
<path fill="none" stroke="black" d="M583.5,-332C583.5,-327.13 586.88,-326.6 591,-324 629.26,-299.83 650.35,-318.12 688,-293 726.3,-267.45 739.14,-257.22 755,-214 761.24,-196.98 760.07,-95.51 753,-87 738.87,-69.99 597.24,-47.34 531.82,-37.68"/>
<polygon fill="black" stroke="black" points="535.74,-37.09 530.44,-37.25 534.68,-40.43 535.74,-37.09"/>
</g>
<!-- arith_addf&#45;18158653556061514656&#45;&gt;i64&#45;11743562013128004906 -->
<g id="edge9" class="edge">
<title>arith_addf&#45;18158653556061514656:s&#45;&gt;i64&#45;11743562013128004906</title>
<path fill="none" stroke="black" d="M535,-332C535,-282.79 362.72,-311.22 317,-293 314.85,-292.14 312.69,-291.14 310.56,-290.05"/>
<polygon fill="black" stroke="black" points="316.64,-288.8 311.51,-290.13 316.35,-292.29 316.64,-288.8"/>
</g>
<!-- arith_addf&#45;18158653556061514656&#45;&gt;arith_constant&#45;18143982552995433342 -->
<g id="edge10" class="edge">
<title>arith_addf&#45;18158653556061514656:s&#45;&gt;arith_constant&#45;18143982552995433342</title>
<path fill="none" stroke="black" d="M560.5,-332C560.5,-266.77 480.36,-315.14 419,-293 418.35,-292.77 417.7,-292.53 417.05,-292.28"/>
<polygon fill="black" stroke="black" points="417.82,-290.71 412.53,-290.54 416.56,-293.97 417.82,-290.71"/>
</g>
<!-- arith_addf&#45;18158653556061514656&#45;&gt;NamedOp&#45;17859523323072850888 -->
<g id="edge11" class="edge">
<title>arith_addf&#45;18158653556061514656:s&#45;&gt;NamedOp&#45;17859523323072850888</title>
<path fill="none" stroke="black" d="M573,-332C573,-314.92 584.91,-300.83 598.2,-290.42"/>
<polygon fill="black" stroke="black" points="593.91,-294.26 597.76,-290.62 592.48,-291.07 593.91,-294.26"/>
</g>
<!-- arith_addf&#45;18158653556061514656&#45;&gt;NamedAttr&#45;11831569617677543232 -->
<g id="edge12" class="edge">
<title>arith_addf&#45;18158653556061514656:s&#45;&gt;NamedAttr&#45;11831569617677543232</title>
<path fill="none" stroke="black" d="M579,-332C579,-285.95 642.39,-325.51 675,-293 680.82,-287.2 696.26,-242.24 705.57,-213.98"/>
<polygon fill="black" stroke="black" points="706.15,-217.73 706.09,-212.43 702.84,-216.62 706.15,-217.73"/>
</g>
<!-- arith_constant&#45;18143982552995433342&#45;&gt;String&#45;18036887277116069162 -->
<g id="edge26" class="edge">
<title>arith_constant&#45;18143982552995433342:s&#45;&gt;String&#45;18036887277116069162</title>
<path fill="none" stroke="black" d="M402.5,-253C402.5,-214.04 458.86,-246.06 481,-214 485.42,-207.59 493.71,-103.63 497.29,-56.23"/>
<polygon fill="black" stroke="black" points="498.55,-59.7 497.54,-54.5 495.09,-59.19 498.55,-59.7"/>
</g>
<!-- arith_constant&#45;18143982552995433342&#45;&gt;i64&#45;12574963067145549163 -->
<g id="edge24" class="edge">
<title>arith_constant&#45;18143982552995433342:s&#45;&gt;i64&#45;12574963067145549163</title>
<path fill="none" stroke="black" d="M345,-253C345,-184.98 428.58,-235.84 493,-214 500.27,-211.53 507.95,-208.56 515.19,-205.59"/>
<polygon fill="black" stroke="black" points="513.06,-208.7 516.66,-204.81 511.43,-205.61 513.06,-208.7"/>
</g>
<!-- arith_constant&#45;18143982552995433342&#45;&gt;NamedAttr&#45;3487974177484649228 -->
<g id="edge25" class="edge">
<title>arith_constant&#45;18143982552995433342:s&#45;&gt;NamedAttr&#45;3487974177484649228</title>
<path fill="none" stroke="black" d="M379.5,-253C379.5,-237.34 369.89,-223.11 359.41,-212.24"/>
<polygon fill="black" stroke="black" points="364.04,-213.76 359.06,-211.96 361.83,-216.47 364.04,-213.76"/>
</g>
<!-- NamedOp&#45;17859523323072850888&#45;&gt;String&#45;18036887277116069162 -->
<g id="edge38" class="edge">
<title>NamedOp&#45;17859523323072850888:s&#45;&gt;String&#45;18036887277116069162</title>
<path fill="none" stroke="black" d="M651.5,-253C651.5,-214.23 661.98,-200.86 645,-166 620.06,-114.8 566.01,-74.04 531.13,-51.74"/>
<polygon fill="black" stroke="black" points="535.39,-52.47 530.26,-51.16 533.45,-55.38 535.39,-52.47"/>
</g>
<!-- NamedOp&#45;17859523323072850888&#45;&gt;i64&#45;5871781006564002453 -->
<g id="edge37" class="edge">
<title>NamedOp&#45;17859523323072850888:s&#45;&gt;i64&#45;5871781006564002453</title>
<path fill="none" stroke="black" d="M616,-253C616,-240.22 615.57,-225.96 615.11,-214.34"/>
<polygon fill="black" stroke="black" points="617.11,-217.35 614.96,-212.51 613.62,-217.63 617.11,-217.35"/>
</g>
<!-- NamedAttr&#45;11831569617677543232&#45;&gt;String&#45;5764174078010485202 -->
<g id="edge45" class="edge">
<title>NamedAttr&#45;11831569617677543232:s&#45;&gt;String&#45;5764174078010485202</title>
<path fill="none" stroke="black" d="M694.5,-174C694.5,-160.69 698.28,-146.37 702.33,-134.84"/>
<polygon fill="black" stroke="black" points="702.55,-138.67 702.97,-133.38 699.35,-137.25 702.55,-138.67"/>
</g>
<!-- NamedAttr&#45;11831569617677543232&#45;&gt;OtherAttr&#45;16374557217632579533 -->
<g id="edge46" class="edge">
<title>NamedAttr&#45;11831569617677543232:s&#45;&gt;OtherAttr&#45;16374557217632579533</title>
<path fill="none" stroke="black" d="M731,-174C731,-148.35 756.38,-132.32 779.73,-123"/>
<polygon fill="black" stroke="black" points="777.1,-126.41 780.67,-122.5 775.44,-123.33 777.1,-126.41"/>
</g>
<!-- arith_addf&#45;11673421547927531845&#45;&gt;String&#45;18036887277116069162 -->
<g id="edge18" class="edge">
<title>arith_addf&#45;11673421547927531845:s&#45;&gt;String&#45;18036887277116069162</title>
<path fill="none" stroke="black" d="M657.5,-332C657.5,-313 671.02,-311.58 675,-293 679.47,-272.14 677.89,-266.14 675,-245 664.63,-169.08 662.03,-139.27 606,-87 584.63,-67.06 554.5,-52.75 531.66,-43.89"/>
<polygon fill="black" stroke="black" points="535.64,-43.82 530.37,-43.28 534.16,-46.99 535.64,-43.82"/>
</g>
<!-- arith_addf&#45;11673421547927531845&#45;&gt;NamedOp&#45;17859523323072850888 -->
<g id="edge15" class="edge">
<title>arith_addf&#45;11673421547927531845:s&#45;&gt;NamedOp&#45;17859523323072850888</title>
<path fill="none" stroke="black" d="M634.5,-332C634.5,-319.22 634.39,-304.96 634.28,-293.35"/>
<polygon fill="black" stroke="black" points="636.09,-296.48 634.24,-291.51 632.59,-296.55 636.09,-296.48"/>
</g>
<!-- arith_addf&#45;11673421547927531845&#45;&gt;NamedAttr&#45;11831569617677543232 -->
<g id="edge17" class="edge">
<title>arith_addf&#45;11673421547927531845:s&#45;&gt;NamedAttr&#45;11831569617677543232</title>
<path fill="none" stroke="black" d="M653,-332C653,-305.87 684.46,-315.93 697,-293 710.49,-268.35 713.46,-235.63 713.73,-213.98"/>
<polygon fill="black" stroke="black" points="715.47,-217.52 713.73,-212.51 711.97,-217.51 715.47,-217.52"/>
</g>
<!-- arith_addf&#45;11673421547927531845&#45;&gt;i64&#45;12574963067145549163 -->
<g id="edge14" class="edge">
<title>arith_addf&#45;11673421547927531845:s&#45;&gt;i64&#45;12574963067145549163</title>
<path fill="none" stroke="black" d="M609,-332C609,-310.92 591.25,-311.94 582,-293 572.19,-272.92 574.04,-266.21 567,-245 563.61,-234.79 559.69,-223.55 556.29,-213.99"/>
<polygon fill="black" stroke="black" points="559.11,-216.46 555.69,-212.41 555.84,-217.71 559.11,-216.46"/>
</g>
<!-- arith_addf&#45;11673421547927531845&#45;&gt;arith_addf&#45;8593860050656477445 -->
<g id="edge16" class="edge">
<title>arith_addf&#45;11673421547927531845:s&#45;&gt;arith_addf&#45;8593860050656477445</title>
<path fill="none" stroke="black" d="M647,-332C647,-261.39 558.29,-319.87 493,-293 492.72,-292.89 492.45,-292.77 492.17,-292.66"/>
<polygon fill="black" stroke="black" points="493.01,-291.11 487.74,-290.63 491.56,-294.3 493.01,-291.11"/>
</g>
<!-- arith_addf&#45;8593860050656477445&#45;&gt;arith_constant&#45;9723459060348179147 -->
<g id="edge33" class="edge">
<title>arith_addf&#45;8593860050656477445:s&#45;&gt;arith_constant&#45;9723459060348179147</title>
<path fill="none" stroke="black" d="M462.5,-253C462.5,-238.69 455.63,-224.43 448.2,-213.2"/>
<polygon fill="black" stroke="black" points="451.86,-215.14 447.45,-212.21 449.07,-217.25 451.86,-215.14"/>
</g>
<!-- arith_addf&#45;8593860050656477445&#45;&gt;arith_constant&#45;9723459060348179147 -->
<g id="edge34" class="edge">
<title>arith_addf&#45;8593860050656477445:s&#45;&gt;arith_constant&#45;9723459060348179147</title>
<path fill="none" stroke="black" d="M475,-253C475,-237.52 465.7,-223.3 455.56,-212.4"/>
<polygon fill="black" stroke="black" points="460,-214.42 455.24,-212.08 457.5,-216.87 460,-214.42"/>
</g>
<!-- arith_addf&#45;8593860050656477445&#45;&gt;String&#45;18036887277116069162 -->
<g id="edge36" class="edge">
<title>arith_addf&#45;8593860050656477445:s&#45;&gt;String&#45;18036887277116069162</title>
<path fill="none" stroke="black" d="M485.5,-253C485.5,-235.43 490.21,-231.48 492,-214 497.79,-157.4 498.89,-90.39 499.04,-55.96"/>
<polygon fill="black" stroke="black" points="500.77,-59.52 499.05,-54.51 497.27,-59.5 500.77,-59.52"/>
</g>
<!-- arith_addf&#45;8593860050656477445&#45;&gt;NamedAttr&#45;11831569617677543232 -->
<g id="edge35" class="edge">
<title>arith_addf&#45;8593860050656477445:s&#45;&gt;NamedAttr&#45;11831569617677543232</title>
<path fill="none" stroke="black" d="M481,-253C481,-246.59 487.08,-247.46 493,-245 556.65,-218.49 578.44,-231.97 645,-214 653.05,-211.83 661.54,-209.22 669.69,-206.55"/>
<polygon fill="black" stroke="black" points="666.79,-209.79 670.62,-206.13 665.35,-206.6 666.79,-209.79"/>
</g>
<!-- arith_addf&#45;8593860050656477445&#45;&gt;i64&#45;12574963067145549163 -->
<g id="edge32" class="edge">
<title>arith_addf&#45;8593860050656477445:s&#45;&gt;i64&#45;12574963067145549163</title>
<path fill="none" stroke="black" d="M437,-253C437,-250.73 482.82,-225.78 515.59,-208.23"/>
<polygon fill="black" stroke="black" points="514.05,-211.74 516.83,-207.23 511.84,-209.03 514.05,-211.74"/>
</g>
<!-- arith_addf&#45;1197112384597269446&#45;&gt;String&#45;18036887277116069162 -->
<g id="edge23" class="edge">
<title>arith_addf&#45;1197112384597269446:s&#45;&gt;String&#45;18036887277116069162</title>
<path fill="none" stroke="black" d="M731.5,-332C731.5,-277.94 754.39,-267.65 761,-214 763.61,-192.83 761.27,-187.33 761,-166 760.56,-130.88 781.51,-113.96 759,-87 744.47,-69.6 598.84,-47.07 532.1,-37.56"/>
<polygon fill="black" stroke="black" points="535.74,-36.77 530.46,-37.09 534.79,-40.14 535.74,-36.77"/>
</g>
<!-- arith_addf&#45;1197112384597269446&#45;&gt;arith_constant&#45;18143982552995433342 -->
<g id="edge20" class="edge">
<title>arith_addf&#45;1197112384597269446:s&#45;&gt;arith_constant&#45;18143982552995433342</title>
<path fill="none" stroke="black" d="M708.5,-332C708.5,-267.09 481.47,-310.66 419,-293 417.95,-292.7 416.89,-292.39 415.83,-292.06"/>
<polygon fill="black" stroke="black" points="416.48,-290.43 411.18,-290.48 415.36,-293.74 416.48,-290.43"/>
</g>
<!-- arith_addf&#45;1197112384597269446&#45;&gt;NamedOp&#45;17859523323072850888 -->
<g id="edge21" class="edge">
<title>arith_addf&#45;1197112384597269446:s&#45;&gt;NamedOp&#45;17859523323072850888</title>
<path fill="none" stroke="black" d="M721,-332C721,-307.82 698.44,-292.19 676.3,-282.67"/>
<polygon fill="black" stroke="black" points="680.47,-283.17 675.29,-282.06 678.64,-286.16 680.47,-283.17"/>
</g>
<!-- arith_addf&#45;1197112384597269446&#45;&gt;NamedAttr&#45;11831569617677543232 -->
<g id="edge22" class="edge">
<title>arith_addf&#45;1197112384597269446:s&#45;&gt;NamedAttr&#45;11831569617677543232</title>
<path fill="none" stroke="black" d="M727,-332C727,-290.32 720.87,-242.06 716.72,-214.17"/>
<polygon fill="black" stroke="black" points="719.32,-216.73 716.2,-212.45 715.97,-217.74 719.32,-216.73"/>
</g>
<!-- arith_addf&#45;1197112384597269446&#45;&gt;i64&#45;12574963067145549163 -->
<g id="edge19" class="edge">
<title>arith_addf&#45;1197112384597269446:s&#45;&gt;i64&#45;12574963067145549163</title>
<path fill="none" stroke="black" d="M683,-332C683,-288.41 622.15,-325.42 593,-293 578.06,-276.38 586.81,-265.54 578,-245 573.34,-234.12 567.12,-222.59 561.56,-212.99"/>
<polygon fill="black" stroke="black" points="565.21,-215.7 561.15,-212.3 562.2,-217.49 565.21,-215.7"/>
</g>
<!-- NamedAttr&#45;3487974177484649228&#45;&gt;String&#45;5063754874207616894 -->
<g id="edge41" class="edge">
<title>NamedAttr&#45;3487974177484649228:s&#45;&gt;String&#45;5063754874207616894</title>
<path fill="none" stroke="black" d="M314.5,-174C314.5,-158.34 304.89,-144.11 294.41,-133.24"/>
<polygon fill="black" stroke="black" points="299.04,-134.76 294.06,-132.96 296.83,-137.47 299.04,-134.76"/>
</g>
<!-- NamedAttr&#45;3487974177484649228&#45;&gt;FloatAttr&#45;12065661450700408843 -->
<g id="edge42" class="edge">
<title>NamedAttr&#45;3487974177484649228:s&#45;&gt;FloatAttr&#45;12065661450700408843</title>
<path fill="none" stroke="black" d="M351,-174C351,-160.92 348.19,-146.6 345.19,-135.03"/>
<polygon fill="black" stroke="black" points="348.2,-136.85 344.25,-133.32 345.13,-138.55 348.2,-136.85"/>
</g>
<!-- arith_addf&#45;13659420839311521683&#45;&gt;arith_constant&#45;9723459060348179147 -->
<g id="edge28" class="edge">
<title>arith_addf&#45;13659420839311521683:s&#45;&gt;arith_constant&#45;9723459060348179147</title>
<path fill="none" stroke="black" d="M536.5,-253C536.5,-238.82 507.94,-222.7 480.4,-210.45"/>
<polygon fill="black" stroke="black" points="485.23,-214.15 480.89,-211.12 482.4,-216.2 485.23,-214.15"/>
</g>
<!-- arith_addf&#45;13659420839311521683&#45;&gt;arith_constant&#45;9723459060348179147 -->
<g id="edge29" class="edge">
<title>arith_addf&#45;13659420839311521683:s&#45;&gt;arith_constant&#45;9723459060348179147</title>
<path fill="none" stroke="black" d="M549,-253C549,-236.94 514.46,-220.19 482.6,-208.15"/>
<polygon fill="black" stroke="black" points="486.65,-208.08 481.38,-207.59 485.19,-211.26 486.65,-208.08"/>
</g>
<!-- arith_addf&#45;13659420839311521683&#45;&gt;String&#45;18036887277116069162 -->
<g id="edge31" class="edge">
<title>arith_addf&#45;13659420839311521683:s&#45;&gt;String&#45;18036887277116069162</title>
<path fill="none" stroke="black" d="M559.5,-253C559.5,-227.36 528.47,-236.93 517,-214 510.1,-200.2 503.25,-102.03 500.39,-56.31"/>
<polygon fill="black" stroke="black" points="502.5,-59.26 500.17,-54.5 499.02,-59.67 502.5,-59.26"/>
</g>
<!-- arith_addf&#45;13659420839311521683&#45;&gt;NamedAttr&#45;11831569617677543232 -->
<g id="edge30" class="edge">
<title>arith_addf&#45;13659420839311521683:s&#45;&gt;NamedAttr&#45;11831569617677543232</title>
<path fill="none" stroke="black" d="M555,-253C555,-246.82 622.9,-222.1 669.68,-205.8"/>
<polygon fill="black" stroke="black" points="666.77,-209.02 670.62,-205.38 665.34,-205.83 666.77,-209.02"/>
</g>
<!-- arith_addf&#45;13659420839311521683&#45;&gt;i64&#45;5871781006564002453 -->
<g id="edge27" class="edge">
<title>arith_addf&#45;13659420839311521683:s&#45;&gt;i64&#45;5871781006564002453</title>
<path fill="none" stroke="black" d="M511,-253C511,-218.16 549.32,-232.24 579,-214 580.51,-213.07 582.05,-212.11 583.6,-211.14"/>
<polygon fill="black" stroke="black" points="580.39,-216.46 582.89,-211.79 578.02,-213.89 580.39,-216.46"/>
</g>
<!-- FloatAttr&#45;9670903108499433938&#45;&gt;String&#45;18036887277116069162 -->
<g id="edge50" class="edge">
<title>FloatAttr&#45;9670903108499433938:s&#45;&gt;String&#45;18036887277116069162</title>
<path fill="none" stroke="black" d="M212.5,-95C212.5,-83.55 225.86,-89.69 237,-87 322.31,-66.43 346.85,-77.21 432,-56 443.38,-53.17 455.57,-49.25 466.4,-45.46"/>
<polygon fill="black" stroke="black" points="463.67,-48.5 467.6,-44.95 462.32,-45.27 463.67,-48.5"/>
</g>
<!-- FloatAttr&#45;9670903108499433938&#45;&gt;f64&#45;4611686018427387904 -->
<g id="edge49" class="edge">
<title>FloatAttr&#45;9670903108499433938:s&#45;&gt;f64&#45;4611686018427387904</title>
<path fill="none" stroke="black" d="M183,-95C183,-82.22 183,-67.96 183,-56.35"/>
<polygon fill="black" stroke="black" points="184.75,-59.51 183,-54.51 181.25,-59.51 184.75,-59.51"/>
</g>
<!-- FloatAttr&#45;12065661450700408843&#45;&gt;String&#45;18036887277116069162 -->
<g id="edge48" class="edge">
<title>FloatAttr&#45;12065661450700408843:s&#45;&gt;String&#45;18036887277116069162</title>
<path fill="none" stroke="black" d="M352.5,-95C352.5,-88.87 423.04,-61.39 466.23,-45.15"/>
<polygon fill="black" stroke="black" points="463.74,-48.15 467.61,-44.54 462.33,-44.94 463.74,-48.15"/>
</g>
<!-- FloatAttr&#45;12065661450700408843&#45;&gt;f64&#45;16811937408974061568 -->
<g id="edge47" class="edge">
<title>FloatAttr&#45;12065661450700408843:s&#45;&gt;f64&#45;16811937408974061568</title>
<path fill="none" stroke="black" d="M323,-95C323,-82.22 323,-67.96 323,-56.35"/>
<polygon fill="black" stroke="black" points="324.75,-59.51 323,-54.51 321.25,-59.51 324.75,-59.51"/>
</g>
<!-- FloatAttr&#45;7729226054085538919&#45;&gt;String&#45;7729226054085538919 -->
<g id="edge52" class="edge">
<title>FloatAttr&#45;7729226054085538919:s&#45;&gt;String&#45;7729226054085538919</title>
<path fill="none" stroke="black" d="M123.5,-95C123.5,-91.59 94.24,-70.25 70.57,-53.54"/>
<polygon fill="black" stroke="black" points="75.98,-53.98 70.7,-53.6 74.59,-57.19 75.98,-53.98"/>
</g>
<!-- FloatAttr&#45;7729226054085538919&#45;&gt;f64&#45;0 -->
<g id="edge51" class="edge">
<title>FloatAttr&#45;7729226054085538919:s&#45;&gt;f64&#45;0</title>
<path fill="none" stroke="black" d="M94,-95C94,-81.92 96.81,-67.6 99.81,-56.03"/>
<polygon fill="black" stroke="black" points="99.87,-59.55 100.75,-54.32 96.8,-57.85 99.87,-59.55"/>
</g>
<!-- OtherAttr&#45;16374557217632579533&#45;&gt;String&#45;9670903108499433938 -->
<g id="edge53" class="edge">
<title>OtherAttr&#45;16374557217632579533:s&#45;&gt;String&#45;9670903108499433938</title>
<path fill="none" stroke="black" d="M802,-95C802,-78.48 790.92,-64.39 778.61,-53.84"/>
<polygon fill="black" stroke="black" points="783.35,-53.97 778.06,-53.6 781.96,-57.18 783.35,-53.97"/>
</g>
<!-- OtherAttr&#45;16374557217632579533&#45;&gt;String&#45;14432408114667085629 -->
<g id="edge54" class="edge">
<title>OtherAttr&#45;16374557217632579533:s&#45;&gt;String&#45;14432408114667085629</title>
<path fill="none" stroke="black" d="M833.5,-95C833.5,-78.55 844.48,-64.46 856.68,-53.9"/>
<polygon fill="black" stroke="black" points="853.43,-57.37 857.21,-53.65 851.94,-54.2 853.43,-57.37"/>
</g>
<!-- arith_constant&#45;14001371589644730109 -->
<g id="node1" class="node">
<title>arith_constant&#45;14001371589644730109</title>
<g id="a_node1"><a xlink:title="14: arith_constant&#45;14001371589644730109">
<path fill="white" stroke="none" d="M43.67,-253C43.67,-253 116.33,-253 116.33,-253 121.67,-253 127,-258.33 127,-263.67 127,-263.67 127,-274.33 127,-274.33 127,-279.67 121.67,-285 116.33,-285 116.33,-285 43.67,-285 43.67,-285 38.33,-285 33,-279.67 33,-274.33 33,-274.33 33,-263.67 33,-263.67 33,-258.33 38.33,-253 43.67,-253"/>
<text text-anchor="start" x="37.62" y="-263.2" font-family="Helvetica,sans-Serif" font-size="14.00">arith_constant</text>
<path fill="none" stroke="black" d="M43.67,-253C43.67,-253 116.33,-253 116.33,-253 121.67,-253 127,-258.33 127,-263.67 127,-263.67 127,-274.33 127,-274.33 127,-279.67 121.67,-285 116.33,-285 116.33,-285 43.67,-285 43.67,-285 38.33,-285 33,-279.67 33,-274.33 33,-274.33 33,-263.67 33,-263.67 33,-258.33 38.33,-253 43.67,-253"/>
</a>
</g>
</g>
<!-- i64&#45;17615343019692007359 -->
<g id="node2" class="node">
<title>i64&#45;17615343019692007359</title>
<g id="a_node2"><a xlink:title="i64&#45;17615343019692007359: i64&#45;17615343019692007359">
<path fill="white" stroke="none" d="M162.67,-174C162.67,-174 173.33,-174 173.33,-174 178.67,-174 184,-179.33 184,-184.67 184,-184.67 184,-195.33 184,-195.33 184,-200.67 178.67,-206 173.33,-206 173.33,-206 162.67,-206 162.67,-206 157.33,-206 152,-200.67 152,-195.33 152,-195.33 152,-184.67 152,-184.67 152,-179.33 157.33,-174 162.67,-174"/>
<text text-anchor="start" x="164.25" y="-184.2" font-family="Helvetica,sans-Serif" font-size="14.00">3</text>
<path fill="none" stroke="black" d="M162.67,-174C162.67,-174 173.33,-174 173.33,-174 178.67,-174 184,-179.33 184,-184.67 184,-184.67 184,-195.33 184,-195.33 184,-200.67 178.67,-206 173.33,-206 173.33,-206 162.67,-206 162.67,-206 157.33,-206 152,-200.67 152,-195.33 152,-195.33 152,-184.67 152,-184.67 152,-179.33 157.33,-174 162.67,-174"/>
</a>
</g>
</g>
<!-- NamedAttr&#45;9307781555607459027 -->
<g id="node3" class="node">
<title>NamedAttr&#45;9307781555607459027</title>
<g id="a_node3"><a xlink:title="16: NamedAttr&#45;9307781555607459027">
<path fill="white" stroke="none" d="M64.17,-174C64.17,-174 117.83,-174 117.83,-174 123.17,-174 128.5,-179.33 128.5,-184.67 128.5,-184.67 128.5,-195.33 128.5,-195.33 128.5,-200.67 123.17,-206 117.83,-206 117.83,-206 64.17,-206 64.17,-206 58.83,-206 53.5,-200.67 53.5,-195.33 53.5,-195.33 53.5,-184.67 53.5,-184.67 53.5,-179.33 58.83,-174 64.17,-174"/>
<text text-anchor="start" x="58.38" y="-184.2" font-family="Helvetica,sans-Serif" font-size="14.00">NamedAttr</text>
<path fill="none" stroke="black" d="M64.17,-174C64.17,-174 117.83,-174 117.83,-174 123.17,-174 128.5,-179.33 128.5,-184.67 128.5,-184.67 128.5,-195.33 128.5,-195.33 128.5,-200.67 123.17,-206 117.83,-206 117.83,-206 64.17,-206 64.17,-206 58.83,-206 53.5,-200.67 53.5,-195.33 53.5,-195.33 53.5,-184.67 53.5,-184.67 53.5,-179.33 58.83,-174 64.17,-174"/>
</a>
</g>
</g>
<!-- String&#45;7729226054085538919 -->
<g id="node4" class="node">
<title>String&#45;7729226054085538919</title>
<g id="a_node4"><a xlink:title="String&#45;7729226054085538919: String&#45;7729226054085538919">
<path fill="white" stroke="none" d="M32.04,-16C32.04,-16 49.96,-16 49.96,-16 55.29,-16 60.62,-21.33 60.62,-26.67 60.62,-26.67 60.62,-37.33 60.62,-37.33 60.62,-42.67 55.29,-48 49.96,-48 49.96,-48 32.04,-48 32.04,-48 26.71,-48 21.38,-42.67 21.38,-37.33 21.38,-37.33 21.38,-26.67 21.38,-26.67 21.38,-21.33 26.71,-16 32.04,-16"/>
<text text-anchor="start" x="26.38" y="-26.2" font-family="Helvetica,sans-Serif" font-size="14.00">&quot;f32&quot;</text>
<path fill="none" stroke="black" d="M32.04,-16C32.04,-16 49.96,-16 49.96,-16 55.29,-16 60.62,-21.33 60.62,-26.67 60.62,-26.67 60.62,-37.33 60.62,-37.33 60.62,-42.67 55.29,-48 49.96,-48 49.96,-48 32.04,-48 32.04,-48 26.71,-48 21.38,-42.67 21.38,-37.33 21.38,-37.33 21.38,-26.67 21.38,-26.67 21.38,-21.33 26.71,-16 32.04,-16"/>
</a>
</g>
</g>
<!-- arith_constant&#45;9723459060348179147 -->
<g id="node5" class="node">
<title>arith_constant&#45;9723459060348179147</title>
<g id="a_node5"><a xlink:title="4: arith_constant&#45;9723459060348179147">
<path fill="white" stroke="none" d="M393.67,-174C393.67,-174 466.33,-174 466.33,-174 471.67,-174 477,-179.33 477,-184.67 477,-184.67 477,-195.33 477,-195.33 477,-200.67 471.67,-206 466.33,-206 466.33,-206 393.67,-206 393.67,-206 388.33,-206 383,-200.67 383,-195.33 383,-195.33 383,-184.67 383,-184.67 383,-179.33 388.33,-174 393.67,-174"/>
<text text-anchor="start" x="387.62" y="-184.2" font-family="Helvetica,sans-Serif" font-size="14.00">arith_constant</text>
<path fill="none" stroke="black" d="M393.67,-174C393.67,-174 466.33,-174 466.33,-174 471.67,-174 477,-179.33 477,-184.67 477,-184.67 477,-195.33 477,-195.33 477,-200.67 471.67,-206 466.33,-206 466.33,-206 393.67,-206 393.67,-206 388.33,-206 383,-200.67 383,-195.33 383,-195.33 383,-184.67 383,-184.67 383,-179.33 388.33,-174 393.67,-174"/>
</a>
</g>
</g>
<!-- i64&#45;0 -->
<g id="node6" class="node">
<title>i64&#45;0</title>
<g id="a_node6"><a xlink:title="i64&#45;0: i64&#45;0">
<path fill="white" stroke="none" d="M395.67,-16C395.67,-16 406.33,-16 406.33,-16 411.67,-16 417,-21.33 417,-26.67 417,-26.67 417,-37.33 417,-37.33 417,-42.67 411.67,-48 406.33,-48 406.33,-48 395.67,-48 395.67,-48 390.33,-48 385,-42.67 385,-37.33 385,-37.33 385,-26.67 385,-26.67 385,-21.33 390.33,-16 395.67,-16"/>
<text text-anchor="start" x="397.25" y="-26.2" font-family="Helvetica,sans-Serif" font-size="14.00">0</text>
<path fill="none" stroke="black" d="M395.67,-16C395.67,-16 406.33,-16 406.33,-16 411.67,-16 417,-21.33 417,-26.67 417,-26.67 417,-37.33 417,-37.33 417,-42.67 411.67,-48 406.33,-48 406.33,-48 395.67,-48 395.67,-48 390.33,-48 385,-42.67 385,-37.33 385,-37.33 385,-26.67 385,-26.67 385,-21.33 390.33,-16 395.67,-16"/>
</a>
</g>
</g>
<!-- NamedAttr&#45;7644979447572370513 -->
<g id="node7" class="node">
<title>NamedAttr&#45;7644979447572370513</title>
<g id="a_node7"><a xlink:title="6: NamedAttr&#45;7644979447572370513">
<path fill="white" stroke="none" d="M218.17,-174C218.17,-174 271.83,-174 271.83,-174 277.17,-174 282.5,-179.33 282.5,-184.67 282.5,-184.67 282.5,-195.33 282.5,-195.33 282.5,-200.67 277.17,-206 271.83,-206 271.83,-206 218.17,-206 218.17,-206 212.83,-206 207.5,-200.67 207.5,-195.33 207.5,-195.33 207.5,-184.67 207.5,-184.67 207.5,-179.33 212.83,-174 218.17,-174"/>
<text text-anchor="start" x="212.38" y="-184.2" font-family="Helvetica,sans-Serif" font-size="14.00">NamedAttr</text>
<path fill="none" stroke="black" d="M218.17,-174C218.17,-174 271.83,-174 271.83,-174 277.17,-174 282.5,-179.33 282.5,-184.67 282.5,-184.67 282.5,-195.33 282.5,-195.33 282.5,-200.67 277.17,-206 271.83,-206 271.83,-206 218.17,-206 218.17,-206 212.83,-206 207.5,-200.67 207.5,-195.33 207.5,-195.33 207.5,-184.67 207.5,-184.67 207.5,-179.33 212.83,-174 218.17,-174"/>
</a>
</g>
</g>
<!-- String&#45;18036887277116069162 -->
<g id="node8" class="node">
<title>String&#45;18036887277116069162</title>
<g id="a_node8"><a xlink:title="String&#45;18036887277116069162: String&#45;18036887277116069162">
<path fill="white" stroke="none" d="M490.04,-16C490.04,-16 507.96,-16 507.96,-16 513.29,-16 518.62,-21.33 518.62,-26.67 518.62,-26.67 518.62,-37.33 518.62,-37.33 518.62,-42.67 513.29,-48 507.96,-48 507.96,-48 490.04,-48 490.04,-48 484.71,-48 479.38,-42.67 479.38,-37.33 479.38,-37.33 479.38,-26.67 479.38,-26.67 479.38,-21.33 484.71,-16 490.04,-16"/>
<text text-anchor="start" x="484.38" y="-26.2" font-family="Helvetica,sans-Serif" font-size="14.00">&quot;f64&quot;</text>
<path fill="none" stroke="black" d="M490.04,-16C490.04,-16 507.96,-16 507.96,-16 513.29,-16 518.62,-21.33 518.62,-26.67 518.62,-26.67 518.62,-37.33 518.62,-37.33 518.62,-42.67 513.29,-48 507.96,-48 507.96,-48 490.04,-48 490.04,-48 484.71,-48 479.38,-42.67 479.38,-37.33 479.38,-37.33 479.38,-26.67 479.38,-26.67 479.38,-21.33 484.71,-16 490.04,-16"/>
</a>
</g>
</g>
<!-- NamedOp&#45;18036887277116069162 -->
<g id="node9" class="node">
<title>NamedOp&#45;18036887277116069162</title>
<g id="a_node9"><a xlink:title="0: NamedOp&#45;18036887277116069162">
<path fill="white" stroke="none" d="M404.17,-95C404.17,-95 455.83,-95 455.83,-95 461.17,-95 466.5,-100.33 466.5,-105.67 466.5,-105.67 466.5,-116.33 466.5,-116.33 466.5,-121.67 461.17,-127 455.83,-127 455.83,-127 404.17,-127 404.17,-127 398.83,-127 393.5,-121.67 393.5,-116.33 393.5,-116.33 393.5,-105.67 393.5,-105.67 393.5,-100.33 398.83,-95 404.17,-95"/>
<text text-anchor="start" x="398.5" y="-105.2" font-family="Helvetica,sans-Serif" font-size="14.00">NamedOp</text>
<path fill="none" stroke="black" d="M404.17,-95C404.17,-95 455.83,-95 455.83,-95 461.17,-95 466.5,-100.33 466.5,-105.67 466.5,-105.67 466.5,-116.33 466.5,-116.33 466.5,-121.67 461.17,-127 455.83,-127 455.83,-127 404.17,-127 404.17,-127 398.83,-127 393.5,-121.67 393.5,-116.33 393.5,-116.33 393.5,-105.67 393.5,-105.67 393.5,-100.33 398.83,-95 404.17,-95"/>
</a>
</g>
</g>
<!-- arith_addf&#45;18158653556061514656 -->
<g id="node10" class="node">
<title>arith_addf&#45;18158653556061514656</title>
<g id="a_node10"><a xlink:title="12: arith_addf&#45;18158653556061514656">
<path fill="white" stroke="none" d="M527.67,-332C527.67,-332 576.33,-332 576.33,-332 581.67,-332 587,-337.33 587,-342.67 587,-342.67 587,-353.33 587,-353.33 587,-358.67 581.67,-364 576.33,-364 576.33,-364 527.67,-364 527.67,-364 522.33,-364 517,-358.67 517,-353.33 517,-353.33 517,-342.67 517,-342.67 517,-337.33 522.33,-332 527.67,-332"/>
<text text-anchor="start" x="522" y="-342.2" font-family="Helvetica,sans-Serif" font-size="14.00">arith_addf</text>
<path fill="none" stroke="black" d="M527.67,-332C527.67,-332 576.33,-332 576.33,-332 581.67,-332 587,-337.33 587,-342.67 587,-342.67 587,-353.33 587,-353.33 587,-358.67 581.67,-364 576.33,-364 576.33,-364 527.67,-364 527.67,-364 522.33,-364 517,-358.67 517,-353.33 517,-353.33 517,-342.67 517,-342.67 517,-337.33 522.33,-332 527.67,-332"/>
</a>
</g>
</g>
<!-- i64&#45;11743562013128004906 -->
<g id="node11" class="node">
<title>i64&#45;11743562013128004906</title>
<g id="a_node11"><a xlink:title="i64&#45;11743562013128004906: i64&#45;11743562013128004906">
<path fill="white" stroke="none" d="M276.67,-253C276.67,-253 287.33,-253 287.33,-253 292.67,-253 298,-258.33 298,-263.67 298,-263.67 298,-274.33 298,-274.33 298,-279.67 292.67,-285 287.33,-285 287.33,-285 276.67,-285 276.67,-285 271.33,-285 266,-279.67 266,-274.33 266,-274.33 266,-263.67 266,-263.67 266,-258.33 271.33,-253 276.67,-253"/>
<text text-anchor="start" x="278.25" y="-263.2" font-family="Helvetica,sans-Serif" font-size="14.00">2</text>
<path fill="none" stroke="black" d="M276.67,-253C276.67,-253 287.33,-253 287.33,-253 292.67,-253 298,-258.33 298,-263.67 298,-263.67 298,-274.33 298,-274.33 298,-279.67 292.67,-285 287.33,-285 287.33,-285 276.67,-285 276.67,-285 271.33,-285 266,-279.67 266,-274.33 266,-274.33 266,-263.67 266,-263.67 266,-258.33 271.33,-253 276.67,-253"/>
</a>
</g>
</g>
<!-- arith_constant&#45;18143982552995433342 -->
<g id="node12" class="node">
<title>arith_constant&#45;18143982552995433342</title>
<g id="a_node12"><a xlink:title="8: arith_constant&#45;18143982552995433342">
<path fill="white" stroke="none" d="M331.67,-253C331.67,-253 404.33,-253 404.33,-253 409.67,-253 415,-258.33 415,-263.67 415,-263.67 415,-274.33 415,-274.33 415,-279.67 409.67,-285 404.33,-285 404.33,-285 331.67,-285 331.67,-285 326.33,-285 321,-279.67 321,-274.33 321,-274.33 321,-263.67 321,-263.67 321,-258.33 326.33,-253 331.67,-253"/>
<text text-anchor="start" x="325.62" y="-263.2" font-family="Helvetica,sans-Serif" font-size="14.00">arith_constant</text>
<path fill="none" stroke="black" d="M331.67,-253C331.67,-253 404.33,-253 404.33,-253 409.67,-253 415,-258.33 415,-263.67 415,-263.67 415,-274.33 415,-274.33 415,-279.67 409.67,-285 404.33,-285 404.33,-285 331.67,-285 331.67,-285 326.33,-285 321,-279.67 321,-274.33 321,-274.33 321,-263.67 321,-263.67 321,-258.33 326.33,-253 331.67,-253"/>
</a>
</g>
</g>
<!-- NamedOp&#45;17859523323072850888 -->
<g id="node13" class="node">
<title>NamedOp&#45;17859523323072850888</title>
<g id="a_node13"><a xlink:title="2: NamedOp&#45;17859523323072850888">
<path fill="white" stroke="none" d="M608.17,-253C608.17,-253 659.83,-253 659.83,-253 665.17,-253 670.5,-258.33 670.5,-263.67 670.5,-263.67 670.5,-274.33 670.5,-274.33 670.5,-279.67 665.17,-285 659.83,-285 659.83,-285 608.17,-285 608.17,-285 602.83,-285 597.5,-279.67 597.5,-274.33 597.5,-274.33 597.5,-263.67 597.5,-263.67 597.5,-258.33 602.83,-253 608.17,-253"/>
<text text-anchor="start" x="602.5" y="-263.2" font-family="Helvetica,sans-Serif" font-size="14.00">NamedOp</text>
<path fill="none" stroke="black" d="M608.17,-253C608.17,-253 659.83,-253 659.83,-253 665.17,-253 670.5,-258.33 670.5,-263.67 670.5,-263.67 670.5,-274.33 670.5,-274.33 670.5,-279.67 665.17,-285 659.83,-285 659.83,-285 608.17,-285 608.17,-285 602.83,-285 597.5,-279.67 597.5,-274.33 597.5,-274.33 597.5,-263.67 597.5,-263.67 597.5,-258.33 602.83,-253 608.17,-253"/>
</a>
</g>
</g>
<!-- NamedAttr&#45;11831569617677543232 -->
<g id="node14" class="node">
<title>NamedAttr&#45;11831569617677543232</title>
<g id="a_node14"><a xlink:title="10: NamedAttr&#45;11831569617677543232">
<path fill="white" stroke="none" d="M686.17,-174C686.17,-174 739.83,-174 739.83,-174 745.17,-174 750.5,-179.33 750.5,-184.67 750.5,-184.67 750.5,-195.33 750.5,-195.33 750.5,-200.67 745.17,-206 739.83,-206 739.83,-206 686.17,-206 686.17,-206 680.83,-206 675.5,-200.67 675.5,-195.33 675.5,-195.33 675.5,-184.67 675.5,-184.67 675.5,-179.33 680.83,-174 686.17,-174"/>
<text text-anchor="start" x="680.38" y="-184.2" font-family="Helvetica,sans-Serif" font-size="14.00">NamedAttr</text>
<path fill="none" stroke="black" d="M686.17,-174C686.17,-174 739.83,-174 739.83,-174 745.17,-174 750.5,-179.33 750.5,-184.67 750.5,-184.67 750.5,-195.33 750.5,-195.33 750.5,-200.67 745.17,-206 739.83,-206 739.83,-206 686.17,-206 686.17,-206 680.83,-206 675.5,-200.67 675.5,-195.33 675.5,-195.33 675.5,-184.67 675.5,-184.67 675.5,-179.33 680.83,-174 686.17,-174"/>
</a>
</g>
</g>
<!-- arith_addf&#45;11673421547927531845 -->
<g id="node15" class="node">
<title>arith_addf&#45;11673421547927531845</title>
<g id="a_node15"><a xlink:title="12: arith_addf&#45;11673421547927531845">
<path fill="white" stroke="none" d="M601.67,-332C601.67,-332 650.33,-332 650.33,-332 655.67,-332 661,-337.33 661,-342.67 661,-342.67 661,-353.33 661,-353.33 661,-358.67 655.67,-364 650.33,-364 650.33,-364 601.67,-364 601.67,-364 596.33,-364 591,-358.67 591,-353.33 591,-353.33 591,-342.67 591,-342.67 591,-337.33 596.33,-332 601.67,-332"/>
<text text-anchor="start" x="596" y="-342.2" font-family="Helvetica,sans-Serif" font-size="14.00">arith_addf</text>
<path fill="none" stroke="black" d="M601.67,-332C601.67,-332 650.33,-332 650.33,-332 655.67,-332 661,-337.33 661,-342.67 661,-342.67 661,-353.33 661,-353.33 661,-358.67 655.67,-364 650.33,-364 650.33,-364 601.67,-364 601.67,-364 596.33,-364 591,-358.67 591,-353.33 591,-353.33 591,-342.67 591,-342.67 591,-337.33 596.33,-332 601.67,-332"/>
</a>
</g>
</g>
<!-- i64&#45;12574963067145549163 -->
<g id="node16" class="node">
<title>i64&#45;12574963067145549163</title>
<g id="a_node16"><a xlink:title="i64&#45;12574963067145549163: i64&#45;12574963067145549163">
<path fill="white" stroke="none" d="M542.67,-174C542.67,-174 553.33,-174 553.33,-174 558.67,-174 564,-179.33 564,-184.67 564,-184.67 564,-195.33 564,-195.33 564,-200.67 558.67,-206 553.33,-206 553.33,-206 542.67,-206 542.67,-206 537.33,-206 532,-200.67 532,-195.33 532,-195.33 532,-184.67 532,-184.67 532,-179.33 537.33,-174 542.67,-174"/>
<text text-anchor="start" x="542" y="-184.2" font-family="Helvetica,sans-Serif" font-size="14.00">&#45;1</text>
<path fill="none" stroke="black" d="M542.67,-174C542.67,-174 553.33,-174 553.33,-174 558.67,-174 564,-179.33 564,-184.67 564,-184.67 564,-195.33 564,-195.33 564,-200.67 558.67,-206 553.33,-206 553.33,-206 542.67,-206 542.67,-206 537.33,-206 532,-200.67 532,-195.33 532,-195.33 532,-184.67 532,-184.67 532,-179.33 537.33,-174 542.67,-174"/>
</a>
</g>
</g>
<!-- arith_addf&#45;8593860050656477445 -->
<g id="node17" class="node">
<title>arith_addf&#45;8593860050656477445</title>
<g id="a_node17"><a xlink:title="8: arith_addf&#45;8593860050656477445">
<path fill="white" stroke="none" d="M429.67,-253C429.67,-253 478.33,-253 478.33,-253 483.67,-253 489,-258.33 489,-263.67 489,-263.67 489,-274.33 489,-274.33 489,-279.67 483.67,-285 478.33,-285 478.33,-285 429.67,-285 429.67,-285 424.33,-285 419,-279.67 419,-274.33 419,-274.33 419,-263.67 419,-263.67 419,-258.33 424.33,-253 429.67,-253"/>
<text text-anchor="start" x="424" y="-263.2" font-family="Helvetica,sans-Serif" font-size="14.00">arith_addf</text>
<path fill="none" stroke="black" d="M429.67,-253C429.67,-253 478.33,-253 478.33,-253 483.67,-253 489,-258.33 489,-263.67 489,-263.67 489,-274.33 489,-274.33 489,-279.67 483.67,-285 478.33,-285 478.33,-285 429.67,-285 429.67,-285 424.33,-285 419,-279.67 419,-274.33 419,-274.33 419,-263.67 419,-263.67 419,-258.33 424.33,-253 429.67,-253"/>
</a>
</g>
</g>
<!-- arith_addf&#45;1197112384597269446 -->
<g id="node18" class="node">
<title>arith_addf&#45;1197112384597269446</title>
<g id="a_node18"><a xlink:title="12: arith_addf&#45;1197112384597269446">
<path fill="white" stroke="none" d="M675.67,-332C675.67,-332 724.33,-332 724.33,-332 729.67,-332 735,-337.33 735,-342.67 735,-342.67 735,-353.33 735,-353.33 735,-358.67 729.67,-364 724.33,-364 724.33,-364 675.67,-364 675.67,-364 670.33,-364 665,-358.67 665,-353.33 665,-353.33 665,-342.67 665,-342.67 665,-337.33 670.33,-332 675.67,-332"/>
<text text-anchor="start" x="670" y="-342.2" font-family="Helvetica,sans-Serif" font-size="14.00">arith_addf</text>
<path fill="none" stroke="black" d="M675.67,-332C675.67,-332 724.33,-332 724.33,-332 729.67,-332 735,-337.33 735,-342.67 735,-342.67 735,-353.33 735,-353.33 735,-358.67 729.67,-364 724.33,-364 724.33,-364 675.67,-364 675.67,-364 670.33,-364 665,-358.67 665,-353.33 665,-353.33 665,-342.67 665,-342.67 665,-337.33 670.33,-332 675.67,-332"/>
</a>
</g>
</g>
<!-- NamedAttr&#45;3487974177484649228 -->
<g id="node19" class="node">
<title>NamedAttr&#45;3487974177484649228</title>
<g id="a_node19"><a xlink:title="21: NamedAttr&#45;3487974177484649228">
<path fill="white" stroke="none" d="M306.17,-174C306.17,-174 359.83,-174 359.83,-174 365.17,-174 370.5,-179.33 370.5,-184.67 370.5,-184.67 370.5,-195.33 370.5,-195.33 370.5,-200.67 365.17,-206 359.83,-206 359.83,-206 306.17,-206 306.17,-206 300.83,-206 295.5,-200.67 295.5,-195.33 295.5,-195.33 295.5,-184.67 295.5,-184.67 295.5,-179.33 300.83,-174 306.17,-174"/>
<text text-anchor="start" x="300.38" y="-184.2" font-family="Helvetica,sans-Serif" font-size="14.00">NamedAttr</text>
<path fill="none" stroke="black" d="M306.17,-174C306.17,-174 359.83,-174 359.83,-174 365.17,-174 370.5,-179.33 370.5,-184.67 370.5,-184.67 370.5,-195.33 370.5,-195.33 370.5,-200.67 365.17,-206 359.83,-206 359.83,-206 306.17,-206 306.17,-206 300.83,-206 295.5,-200.67 295.5,-195.33 295.5,-195.33 295.5,-184.67 295.5,-184.67 295.5,-179.33 300.83,-174 306.17,-174"/>
</a>
</g>
</g>
<!-- arith_addf&#45;13659420839311521683 -->
<g id="node20" class="node">
<title>arith_addf&#45;13659420839311521683</title>
<g id="a_node20"><a xlink:title="8: arith_addf&#45;13659420839311521683">
<path fill="white" stroke="none" d="M503.67,-253C503.67,-253 552.33,-253 552.33,-253 557.67,-253 563,-258.33 563,-263.67 563,-263.67 563,-274.33 563,-274.33 563,-279.67 557.67,-285 552.33,-285 552.33,-285 503.67,-285 503.67,-285 498.33,-285 493,-279.67 493,-274.33 493,-274.33 493,-263.67 493,-263.67 493,-258.33 498.33,-253 503.67,-253"/>
<text text-anchor="start" x="498" y="-263.2" font-family="Helvetica,sans-Serif" font-size="14.00">arith_addf</text>
<path fill="none" stroke="black" d="M503.67,-253C503.67,-253 552.33,-253 552.33,-253 557.67,-253 563,-258.33 563,-263.67 563,-263.67 563,-274.33 563,-274.33 563,-279.67 557.67,-285 552.33,-285 552.33,-285 503.67,-285 503.67,-285 498.33,-285 493,-279.67 493,-274.33 493,-274.33 493,-263.67 493,-263.67 493,-258.33 498.33,-253 503.67,-253"/>
</a>
</g>
</g>
<!-- i64&#45;5871781006564002453 -->
<g id="node21" class="node">
<title>i64&#45;5871781006564002453</title>
<g id="a_node21"><a xlink:title="i64&#45;5871781006564002453: i64&#45;5871781006564002453">
<path fill="white" stroke="none" d="M608.67,-174C608.67,-174 619.33,-174 619.33,-174 624.67,-174 630,-179.33 630,-184.67 630,-184.67 630,-195.33 630,-195.33 630,-200.67 624.67,-206 619.33,-206 619.33,-206 608.67,-206 608.67,-206 603.33,-206 598,-200.67 598,-195.33 598,-195.33 598,-184.67 598,-184.67 598,-179.33 603.33,-174 608.67,-174"/>
<text text-anchor="start" x="610.25" y="-184.2" font-family="Helvetica,sans-Serif" font-size="14.00">1</text>
<path fill="none" stroke="black" d="M608.67,-174C608.67,-174 619.33,-174 619.33,-174 624.67,-174 630,-179.33 630,-184.67 630,-184.67 630,-195.33 630,-195.33 630,-200.67 624.67,-206 619.33,-206 619.33,-206 608.67,-206 608.67,-206 603.33,-206 598,-200.67 598,-195.33 598,-195.33 598,-184.67 598,-184.67 598,-179.33 603.33,-174 608.67,-174"/>
</a>
</g>
</g>
<!-- String&#45;5063754874207616894 -->
<g id="node22" class="node">
<title>String&#45;5063754874207616894</title>
<g id="a_node22"><a xlink:title="String&#45;5063754874207616894: String&#45;5063754874207616894">
<path fill="white" stroke="none" d="M252.29,-95C252.29,-95 283.71,-95 283.71,-95 289.04,-95 294.38,-100.33 294.38,-105.67 294.38,-105.67 294.38,-116.33 294.38,-116.33 294.38,-121.67 289.04,-127 283.71,-127 283.71,-127 252.29,-127 252.29,-127 246.96,-127 241.62,-121.67 241.62,-116.33 241.62,-116.33 241.62,-105.67 241.62,-105.67 241.62,-100.33 246.96,-95 252.29,-95"/>
<text text-anchor="start" x="246.62" y="-105.2" font-family="Helvetica,sans-Serif" font-size="14.00">&quot;value&quot;</text>
<path fill="none" stroke="black" d="M252.29,-95C252.29,-95 283.71,-95 283.71,-95 289.04,-95 294.38,-100.33 294.38,-105.67 294.38,-105.67 294.38,-116.33 294.38,-116.33 294.38,-121.67 289.04,-127 283.71,-127 283.71,-127 252.29,-127 252.29,-127 246.96,-127 241.62,-121.67 241.62,-116.33 241.62,-116.33 241.62,-105.67 241.62,-105.67 241.62,-100.33 246.96,-95 252.29,-95"/>
</a>
</g>
</g>
<!-- FloatAttr&#45;9670903108499433938 -->
<g id="node23" class="node">
<title>FloatAttr&#45;9670903108499433938</title>
<g id="a_node23"><a xlink:title="5: FloatAttr&#45;9670903108499433938">
<path fill="white" stroke="none" d="M178.17,-95C178.17,-95 217.83,-95 217.83,-95 223.17,-95 228.5,-100.33 228.5,-105.67 228.5,-105.67 228.5,-116.33 228.5,-116.33 228.5,-121.67 223.17,-127 217.83,-127 217.83,-127 178.17,-127 178.17,-127 172.83,-127 167.5,-121.67 167.5,-116.33 167.5,-116.33 167.5,-105.67 167.5,-105.67 167.5,-100.33 172.83,-95 178.17,-95"/>
<text text-anchor="start" x="172.5" y="-105.2" font-family="Helvetica,sans-Serif" font-size="14.00">FloatAttr</text>
<path fill="none" stroke="black" d="M178.17,-95C178.17,-95 217.83,-95 217.83,-95 223.17,-95 228.5,-100.33 228.5,-105.67 228.5,-105.67 228.5,-116.33 228.5,-116.33 228.5,-121.67 223.17,-127 217.83,-127 217.83,-127 178.17,-127 178.17,-127 172.83,-127 167.5,-121.67 167.5,-116.33 167.5,-116.33 167.5,-105.67 167.5,-105.67 167.5,-100.33 172.83,-95 178.17,-95"/>
</a>
</g>
</g>
<!-- FloatAttr&#45;12065661450700408843 -->
<g id="node24" class="node">
<title>FloatAttr&#45;12065661450700408843</title>
<g id="a_node24"><a xlink:title="20: FloatAttr&#45;12065661450700408843">
<path fill="white" stroke="none" d="M318.17,-95C318.17,-95 357.83,-95 357.83,-95 363.17,-95 368.5,-100.33 368.5,-105.67 368.5,-105.67 368.5,-116.33 368.5,-116.33 368.5,-121.67 363.17,-127 357.83,-127 357.83,-127 318.17,-127 318.17,-127 312.83,-127 307.5,-121.67 307.5,-116.33 307.5,-116.33 307.5,-105.67 307.5,-105.67 307.5,-100.33 312.83,-95 318.17,-95"/>
<text text-anchor="start" x="312.5" y="-105.2" font-family="Helvetica,sans-Serif" font-size="14.00">FloatAttr</text>
<path fill="none" stroke="black" d="M318.17,-95C318.17,-95 357.83,-95 357.83,-95 363.17,-95 368.5,-100.33 368.5,-105.67 368.5,-105.67 368.5,-116.33 368.5,-116.33 368.5,-121.67 363.17,-127 357.83,-127 357.83,-127 318.17,-127 318.17,-127 312.83,-127 307.5,-121.67 307.5,-116.33 307.5,-116.33 307.5,-105.67 307.5,-105.67 307.5,-100.33 312.83,-95 318.17,-95"/>
</a>
</g>
</g>
<!-- FloatAttr&#45;7729226054085538919 -->
<g id="node25" class="node">
<title>FloatAttr&#45;7729226054085538919</title>
<g id="a_node25"><a xlink:title="15: FloatAttr&#45;7729226054085538919">
<path fill="white" stroke="none" d="M89.17,-95C89.17,-95 128.83,-95 128.83,-95 134.17,-95 139.5,-100.33 139.5,-105.67 139.5,-105.67 139.5,-116.33 139.5,-116.33 139.5,-121.67 134.17,-127 128.83,-127 128.83,-127 89.17,-127 89.17,-127 83.83,-127 78.5,-121.67 78.5,-116.33 78.5,-116.33 78.5,-105.67 78.5,-105.67 78.5,-100.33 83.83,-95 89.17,-95"/>
<text text-anchor="start" x="83.5" y="-105.2" font-family="Helvetica,sans-Serif" font-size="14.00">FloatAttr</text>
<path fill="none" stroke="black" d="M89.17,-95C89.17,-95 128.83,-95 128.83,-95 134.17,-95 139.5,-100.33 139.5,-105.67 139.5,-105.67 139.5,-116.33 139.5,-116.33 139.5,-121.67 134.17,-127 128.83,-127 128.83,-127 89.17,-127 89.17,-127 83.83,-127 78.5,-121.67 78.5,-116.33 78.5,-116.33 78.5,-105.67 78.5,-105.67 78.5,-100.33 83.83,-95 89.17,-95"/>
</a>
</g>
</g>
<!-- String&#45;5764174078010485202 -->
<g id="node26" class="node">
<title>String&#45;5764174078010485202</title>
<g id="a_node26"><a xlink:title="String&#45;5764174078010485202: String&#45;5764174078010485202">
<path fill="white" stroke="none" d="M686.17,-95C686.17,-95 737.83,-95 737.83,-95 743.17,-95 748.5,-100.33 748.5,-105.67 748.5,-105.67 748.5,-116.33 748.5,-116.33 748.5,-121.67 743.17,-127 737.83,-127 737.83,-127 686.17,-127 686.17,-127 680.83,-127 675.5,-121.67 675.5,-116.33 675.5,-116.33 675.5,-105.67 675.5,-105.67 675.5,-100.33 680.83,-95 686.17,-95"/>
<text text-anchor="start" x="680.5" y="-105.2" font-family="Helvetica,sans-Serif" font-size="14.00">&quot;fastmath&quot;</text>
<path fill="none" stroke="black" d="M686.17,-95C686.17,-95 737.83,-95 737.83,-95 743.17,-95 748.5,-100.33 748.5,-105.67 748.5,-105.67 748.5,-116.33 748.5,-116.33 748.5,-121.67 743.17,-127 737.83,-127 737.83,-127 686.17,-127 686.17,-127 680.83,-127 675.5,-121.67 675.5,-116.33 675.5,-116.33 675.5,-105.67 675.5,-105.67 675.5,-100.33 680.83,-95 686.17,-95"/>
</a>
</g>
</g>
<!-- OtherAttr&#45;16374557217632579533 -->
<g id="node27" class="node">
<title>OtherAttr&#45;16374557217632579533</title>
<g id="a_node27"><a xlink:title="9: OtherAttr&#45;16374557217632579533">
<path fill="white" stroke="none" d="M796.17,-95C796.17,-95 839.83,-95 839.83,-95 845.17,-95 850.5,-100.33 850.5,-105.67 850.5,-105.67 850.5,-116.33 850.5,-116.33 850.5,-121.67 845.17,-127 839.83,-127 839.83,-127 796.17,-127 796.17,-127 790.83,-127 785.5,-121.67 785.5,-116.33 785.5,-116.33 785.5,-105.67 785.5,-105.67 785.5,-100.33 790.83,-95 796.17,-95"/>
<text text-anchor="start" x="790.25" y="-105.2" font-family="Helvetica,sans-Serif" font-size="14.00">OtherAttr</text>
<path fill="none" stroke="black" d="M796.17,-95C796.17,-95 839.83,-95 839.83,-95 845.17,-95 850.5,-100.33 850.5,-105.67 850.5,-105.67 850.5,-116.33 850.5,-116.33 850.5,-121.67 845.17,-127 839.83,-127 839.83,-127 796.17,-127 796.17,-127 790.83,-127 785.5,-121.67 785.5,-116.33 785.5,-116.33 785.5,-105.67 785.5,-105.67 785.5,-100.33 790.83,-95 796.17,-95"/>
</a>
</g>
</g>
<!-- String&#45;9670903108499433938 -->
<g id="node28" class="node">
<title>String&#45;9670903108499433938</title>
<g id="a_node28"><a xlink:title="String&#45;9670903108499433938: String&#45;9670903108499433938">
<path fill="white" stroke="none" d="M678.17,-16C678.17,-16 813.83,-16 813.83,-16 819.17,-16 824.5,-21.33 824.5,-26.67 824.5,-26.67 824.5,-37.33 824.5,-37.33 824.5,-42.67 819.17,-48 813.83,-48 813.83,-48 678.17,-48 678.17,-48 672.83,-48 667.5,-42.67 667.5,-37.33 667.5,-37.33 667.5,-26.67 667.5,-26.67 667.5,-21.33 672.83,-16 678.17,-16"/>
<text text-anchor="start" x="672.5" y="-26.2" font-family="Helvetica,sans-Serif" font-size="14.00">&quot;#arith.fastmath&lt;none&gt;&quot;</text>
<path fill="none" stroke="black" d="M678.17,-16C678.17,-16 813.83,-16 813.83,-16 819.17,-16 824.5,-21.33 824.5,-26.67 824.5,-26.67 824.5,-37.33 824.5,-37.33 824.5,-42.67 819.17,-48 813.83,-48 813.83,-48 678.17,-48 678.17,-48 672.83,-48 667.5,-42.67 667.5,-37.33 667.5,-37.33 667.5,-26.67 667.5,-26.67 667.5,-21.33 672.83,-16 678.17,-16"/>
</a>
</g>
</g>
<!-- String&#45;14432408114667085629 -->
<g id="node29" class="node">
<title>String&#45;14432408114667085629</title>
<g id="a_node29"><a xlink:title="String&#45;14432408114667085629: String&#45;14432408114667085629">
<path fill="white" stroke="none" d="M848.17,-16C848.17,-16 929.83,-16 929.83,-16 935.17,-16 940.5,-21.33 940.5,-26.67 940.5,-26.67 940.5,-37.33 940.5,-37.33 940.5,-42.67 935.17,-48 929.83,-48 929.83,-48 848.17,-48 848.17,-48 842.83,-48 837.5,-42.67 837.5,-37.33 837.5,-37.33 837.5,-26.67 837.5,-26.67 837.5,-21.33 842.83,-16 848.17,-16"/>
<text text-anchor="start" x="842.5" y="-26.2" font-family="Helvetica,sans-Serif" font-size="14.00">&quot;arith.fastmath&quot;</text>
<path fill="none" stroke="black" d="M848.17,-16C848.17,-16 929.83,-16 929.83,-16 935.17,-16 940.5,-21.33 940.5,-26.67 940.5,-26.67 940.5,-37.33 940.5,-37.33 940.5,-42.67 935.17,-48 929.83,-48 929.83,-48 848.17,-48 848.17,-48 842.83,-48 837.5,-42.67 837.5,-37.33 837.5,-37.33 837.5,-26.67 837.5,-26.67 837.5,-21.33 842.83,-16 848.17,-16"/>
</a>
</g>
</g>
<!-- f64&#45;16811937408974061568 -->
<g id="node30" class="node">
<title>f64&#45;16811937408974061568</title>
<g id="a_node30"><a xlink:title="f64&#45;16811937408974061568: f64&#45;16811937408974061568">
<path fill="white" stroke="none" d="M317.67,-16C317.67,-16 328.33,-16 328.33,-16 333.67,-16 339,-21.33 339,-26.67 339,-26.67 339,-37.33 339,-37.33 339,-42.67 333.67,-48 328.33,-48 328.33,-48 317.67,-48 317.67,-48 312.33,-48 307,-42.67 307,-37.33 307,-37.33 307,-26.67 307,-26.67 307,-21.33 312.33,-16 317.67,-16"/>
<text text-anchor="start" x="313.62" y="-26.2" font-family="Helvetica,sans-Serif" font-size="14.00">4.0</text>
<path fill="none" stroke="black" d="M317.67,-16C317.67,-16 328.33,-16 328.33,-16 333.67,-16 339,-21.33 339,-26.67 339,-26.67 339,-37.33 339,-37.33 339,-42.67 333.67,-48 328.33,-48 328.33,-48 317.67,-48 317.67,-48 312.33,-48 307,-42.67 307,-37.33 307,-37.33 307,-26.67 307,-26.67 307,-21.33 312.33,-16 317.67,-16"/>
</a>
</g>
</g>
<!-- f64&#45;4611686018427387904 -->
<g id="node31" class="node">
<title>f64&#45;4611686018427387904</title>
<g id="a_node31"><a xlink:title="f64&#45;4611686018427387904: f64&#45;4611686018427387904">
<path fill="white" stroke="none" d="M177.67,-16C177.67,-16 188.33,-16 188.33,-16 193.67,-16 199,-21.33 199,-26.67 199,-26.67 199,-37.33 199,-37.33 199,-42.67 193.67,-48 188.33,-48 188.33,-48 177.67,-48 177.67,-48 172.33,-48 167,-42.67 167,-37.33 167,-37.33 167,-26.67 167,-26.67 167,-21.33 172.33,-16 177.67,-16"/>
<text text-anchor="start" x="173.62" y="-26.2" font-family="Helvetica,sans-Serif" font-size="14.00">2.0</text>
<path fill="none" stroke="black" d="M177.67,-16C177.67,-16 188.33,-16 188.33,-16 193.67,-16 199,-21.33 199,-26.67 199,-26.67 199,-37.33 199,-37.33 199,-42.67 193.67,-48 188.33,-48 188.33,-48 177.67,-48 177.67,-48 172.33,-48 167,-42.67 167,-37.33 167,-37.33 167,-26.67 167,-26.67 167,-21.33 172.33,-16 177.67,-16"/>
</a>
</g>
</g>
<!-- f64&#45;0 -->
<g id="node32" class="node">
<title>f64&#45;0</title>
<g id="a_node32"><a xlink:title="f64&#45;0: f64&#45;0">
<path fill="white" stroke="none" d="M101.67,-16C101.67,-16 112.33,-16 112.33,-16 117.67,-16 123,-21.33 123,-26.67 123,-26.67 123,-37.33 123,-37.33 123,-42.67 117.67,-48 112.33,-48 112.33,-48 101.67,-48 101.67,-48 96.33,-48 91,-42.67 91,-37.33 91,-37.33 91,-26.67 91,-26.67 91,-21.33 96.33,-16 101.67,-16"/>
<text text-anchor="start" x="97.62" y="-26.2" font-family="Helvetica,sans-Serif" font-size="14.00">0.0</text>
<path fill="none" stroke="black" d="M101.67,-16C101.67,-16 112.33,-16 112.33,-16 117.67,-16 123,-21.33 123,-26.67 123,-26.67 123,-37.33 123,-37.33 123,-42.67 117.67,-48 112.33,-48 112.33,-48 101.67,-48 101.67,-48 96.33,-48 91,-42.67 91,-37.33 91,-37.33 91,-26.67 91,-26.67 91,-21.33 96.33,-16 101.67,-16"/>
</a>
</g>
</g>
</g>
</svg>
